<svg xmlns="http://www.w3.org/2000/svg" xmlns:xlink="http://www.w3.org/1999/xlink" version="1.1" id="Layer_1" x="0px" y="0px" width="100px" height="100px" viewBox="0 0 100 100" enable-background="new 0 0 100 100" xml:space="preserve">
<g>
	<path d="M79.771,67.182c-3.908,0.6-2.42,0.343-5.455,0.906c-1.919,0.356-4.37,0.089-5.773,1.114l-10.655-11.39   c-0.656-0.775-1.816-0.871-2.591-0.215c-0.775,0.656-0.871,1.816-0.215,2.591l12.796,15.985c3.151,4.032,0.522,5.084,0.522,5.084   c-0.217,0.152-0.599,0.409-0.883,0.335c-3.005-0.786-7.492-3.429-7.492-3.429s-4.846-1.597-0.104,3.222   c4.35,4.42,7.45,7.539,12.056,8.356l1.865,1.434c1.051,1.616,2.364,2.619,4.064,2.072l9.493-3.054   c1.7-0.547,2.638-2.361,2.094-4.053l-0.276-0.857c0.427-4.204-1.087-13.059-2.623-15.497   C84.839,67.005,83.679,66.583,79.771,67.182z"/>
	<path d="M56.921,77.517c0.15-0.357,0.57-1.299,1.706-1.299c0.77,0,3.194,1.318,5.639,2.351l-0.144-4.636l-2.829-3.536   c-0.309,1.289-0.613,2.102-1.56,2.102h-39.98c-4.457,0-4.254,0.073-4.254-4.55V14.499c0-1.523,0.396-1.819,1.919-1.819l42.315-0.18   c1.523,0,1.766-0.069,1.766,1.454l-0.066,44.922l3,3.684l0.075-51.925c0-1.523-0.58-2.135-2.102-2.135L15.131,8.587   c-1.523,0-2.631,0.621-2.631,2.144l0.01,67.566c0,1.523,0.611,3.202,2.134,3.202h43.623C56.955,79.5,56.573,78.348,56.921,77.517z    M41.5,79.223c0,0.153-0.124,0.277-0.277,0.277h-4.447c-0.153,0-0.277-0.124-0.277-0.277v-4.447c0-0.153,0.124-0.277,0.277-0.277   h4.447c0.153,0,0.277,0.124,0.277,0.277V79.223z"/>
	<path d="M53.867,30.41l-2.016-4.639l-9.795,4.833L42.054,20.5h-5.058l0.002,10.103l-9.793-4.544l-2.016,4.495l7.995,3.403   l-7.995,3.439l2.016,4.621l9.795-3.727l0.002,11.21h5.058l-0.002-11.218l9.793,3.987l2.016-4.774l-7.995-3.543L53.867,30.41z    M40.524,37.653c-0.273,0.162-1.043,0.674-0.941,1.08c0.119,0.474,0.783,0.563,1.154,0.755c1.006,0.521,1.027,1.751,0.212,2.471   c-0.694,0.614-1.642,0.82-2.507,1.072c-0.802,0.233-0.761,1.189-0.618,1.863c-0.288-0.724-0.462-1.845,0.349-2.301   c0.694-0.39,1.439-0.819,2.001-1.393c0.488-0.499-0.089-0.659-0.524-0.88c-1.493-0.758-1.651-2.346-0.27-3.253   c0.516-0.339,1.189-0.595,1.613-1.054c0.337-0.365-0.941-1.046-1.168-1.183c-0.843-0.511-2.27-1.126-1.655-2.327   c0.722-1.411,2.42-1.553,2.748-3.279c0.145-0.764-0.002-1.712-0.474-2.342c-0.356-0.475-1.08-0.531-1.525-1.002   c-0.068-0.071-0.649-1.124-0.313-0.985c0.073,0.03,0.701,0.705,0.804,0.606c0.119-0.115-0.114-1.046-0.583-1.015   c-0.176,0.012,0.047-0.391,0.047-0.391c0.359-0.766,0.768,0.126,0.918,0.487c0.19,0.454,0.475,1.058,0.784,1.432   c1.051,1.274,1.432,3.013,0.769,4.571c-0.381,0.896-1.07,1.261-1.744,1.894c-0.386,0.363-0.47,0.425-0.095,0.798   c0.322,0.32,0.732,0.511,1.11,0.754c0.614,0.396,1.314,0.93,1.403,1.714C42.128,36.708,41.238,37.23,40.524,37.653z"/>
</g>
</svg>