<svg xmlns="http://www.w3.org/2000/svg" xmlns:xlink="http://www.w3.org/1999/xlink" version="1.1" id="Layer_1" x="0px" y="0px" width="100px" height="100px" viewBox="0 0 100 100" enable-background="new 0 0 100 100" xml:space="preserve">
<polyline points="79.769,2.5 74.842,8.03 77.742,10.617 69.475,19.489 71.518,21.328 79.579,12.335 83.167,15.442 74.916,24.386   76.944,26.212 85.031,17.126 88.115,19.853 93.043,14.319 79.769,2.5 "/>
<path d="M84.208,32.748L62.939,13.609c-0.881-0.792-2.617-0.289-3.886,1.121c-1.269,1.411-1.589,3.191-0.71,3.979l5.008,4.507  L36.393,53.83c0,0-3.191,3.022-3.552,5.61c-0.249,1.946,0.278,3.805,1.304,5.304c-0.805-0.027-1.608,0.249-2.22,0.86l-3.857,3.802  c-1.11,1.083-1.221,2.746-0.36,3.969l-0.271-0.465c0,0-19.709,21.75-20.153,22.191c-0.416,0.444-0.471,1.417,0.056,1.916  c1.915,1.333,2.636-0.388,3.801-1.693L29.542,74.6L28.928,74.4c1.138,0.5,2.497,0.306,3.442-0.61l3.856-3.801  c0.778-0.749,1.056-1.776,0.861-2.775c0.693,0.332,1.416,0.554,2.221,0.638c2.802,0.389,5.466-0.805,7.049-2.941l27.989-31.802  l-2.062-1.855L47.659,59.088l-6.965-6.227l24.554-27.94l0,0l14.366,12.93c0.881,0.787,2.62,0.289,3.89-1.121  C84.771,35.32,85.086,33.538,84.208,32.748"/>
</svg>