<svg xmlns="http://www.w3.org/2000/svg" xmlns:xlink="http://www.w3.org/1999/xlink" version="1.1" id="Layer_1" x="0px" y="0px" width="100px" height="100px" viewBox="0 0 100 100" enable-background="new 0 0 100 100" xml:space="preserve">
<g>
	<path d="M48.989,30.535l0.009,0.009l-0.103,0.09l-0.438,0.464l-0.045-0.039l-8.183,7.208l-5,8.508l0.406,11.442l2.513,8.249   l-4.399,9.159l-3.753-1.646l3.841-7.995l-0.261-1.253l-0.72,0.304l-4.223,5.437l-2.209-1.569l4.656-5.989l1.946-0.823l-1.551-3.641   l-0.716-7.732l-3.148,5.713l-7.471,8.168l-0.053,5.927L17.333,70.5l0.037-4.018l-5.641,2.204l-1.043-2.434l6.465-2.527l8.367-9.019   l3.494-6.444l-5.291-2.068l-1.516,0.682l-1.65,5.286l-3.835,5.515l-2.292-1.457l3.717-5.342l0.756-2.512l-6.587,2.965l-1.172-2.38   l4.304-1.921l-4.664-1.377l0.813-2.512l7.562,2.233l3.728-1.663l-1.92-1.743l-5.005-1.397l0.772-2.524l5.646,1.577l3.812,3.46   l5.256,2.076l5.505-9.372l0.433-0.382l-4.951-4.281l-3.686-5.007l2.251-1.513l2.286,3.104l1.037-3.891l2.668,0.649l-1.535,5.759   l3.958,3.393l6.554-5.773l2.734-1.837c-1.044-2.967-2.027-6.921-2.238-10.683c-0.365-6.493-1.586-12.625-8.499-12.434   c-4.657,0.13-8.492,3.647-11.003,6.371c-2.846,3.085-6.661,6.386-8.7,9.626c-4.72,7.498-8.069,14.394-10.963,22.695   C4.4,49.894,2.962,59.743,1.839,70.21c-0.796,7.435-1.357,16.74-0.152,24.486c0.405,2.594,8.553,1.394,11.383,0.688   c7.914-1.969,13.787-5.023,20.26-8.517c3.256-1.758,6.463-3.632,8.196-6.219c0.946-1.407,1.759-2.981,2.657-4.529   c0.88-1.518,1.963-2.966,2.656-4.526c1.495-3.369,2.066-7.366,2.201-12.281c0.129-4.725-0.294-9.487,0.228-13.969   c0.252-2.16,0.584-4.331,0.683-6.524c0.065-1.447-0.459-5.479-0.936-8.312L48.989,30.535z"/>
	<path d="M99.144,69.245c-1.271-12.156-3.308-21.26-5.89-28.629c-2.852-8.143-7.148-15.419-11.701-22.643   c-2.143-3.394-5.034-6.026-7.983-9.062c-2.63-2.711-5.247-5.888-10.264-5.717c-5.766,0.194-7.602,7.084-8.077,12.647l-2.396,9.532   l2.941,2.622l0.027-0.02l5.357,6.491l4.659-3.289l3.183-3.98l3.28,2.394l-3.536,4.425l-5.353,3.779l4.055,8.634l7.353,0.755   l10.173-4.215l1.097,2.413l-7.579,3.141l0.152,0.057l2.803,1.862l4.606-0.475l0.296,2.614l-1.455,0.149l1.811,1.206l-1.572,2.157   l-4.686-3.113l0.934,2.718l2.767,4.354l-2.35,1.366l-2.984-4.76l-2.057-5.992l-7.723-0.866l2.602,5.542l6.449,9.742l4.833,3.333   l-2.082,2.917l-2.657-1.847l-0.21,2.982l-2.747-0.177l0.324-4.638l-2.076-3.14l-5.521-7.386l-1.142-2.458l-1.035,2.102   l-0.457,2.179l1.977,4.74l0.896,4.35l-2.702,0.507l-0.858-4.174l-1.159-2.205l-1.288,3.588l0.726,2.65l-2.663,0.666l-0.936-3.42   l1.629-4.523l2.112-4.749l1.066-7.485l-5.061-10.71l-5.934-7.104l-0.077,0.051l-0.043-0.059l-0.357,2.441   c-0.268-0.4-0.518,6.817-0.013,11.169c0.521,4.456,0.116,9.285,0.224,13.97c0.115,4.878,0.741,8.827,2.239,12.205   c0.705,1.598,1.673,3.096,2.531,4.605c0.896,1.566,1.73,3.134,2.687,4.528c1.823,2.667,4.875,5.831,8.044,7.572   c3.132,1.72,6.27,1.988,9.399,3.404c3.216,1.454,6.457,1.541,10.51,2.583c1.594,0.412,3.231,0.468,4.471,1.514   c0.957,0.808,6.315-0.191,6.634-2.354C100.509,84.983,99.901,76.49,99.144,69.245z"/>
</g>
</svg>