<svg xmlns:x="http://ns.adobe.com/Extensibility/1.0/" xmlns:i="http://ns.adobe.com/AdobeIllustrator/10.0/" xmlns:graph="http://ns.adobe.com/Graphs/1.0/" xmlns="http://www.w3.org/2000/svg" xmlns:xlink="http://www.w3.org/1999/xlink" version="1.1" id="Calque_1" x="0px" y="0px" width="100px" height="100px" viewBox="0 0 100 100" enable-background="new 0 0 100 100" xml:space="preserve">
<metadata>
	<sfw xmlns="http://ns.adobe.com/SaveForWeb/1.0/">
		<slices/>
		<sliceSourceBounds height="81.252" width="99.952" y="257.026" x="370.531" bottomLeftOrigin="true"/>
	</sfw>
</metadata>
<path fill="#000000" d="M90.876,20.153H66.337l-4.409-9.351c-0.354-0.742-0.758-1.582-2.047-1.582H40.133  c-1.289,0-1.692,0.839-2.049,1.585l-4.405,9.347H9.138c-5.021,0-9.107,4.087-9.107,9.112v52.096c0,5.024,4.086,9.112,9.107,9.112  h81.738c5.021,0,9.106-4.088,9.106-9.112V29.265C99.982,24.241,95.896,20.153,90.876,20.153z M92.518,81.361  c0,0.907-0.735,1.646-1.642,1.646H9.138c-0.904,0-1.641-0.739-1.641-1.646V29.265c0-0.908,0.737-1.646,1.641-1.646h81.738  c0.906,0,1.642,0.738,1.642,1.646V81.361z"/>
<polygon fill="#000000" points="66.719,49.869 55.451,49.869 55.451,38.602 44.562,38.602 44.562,49.869 33.296,49.869   33.296,60.761 44.562,60.761 44.562,72.025 55.451,72.025 55.451,60.761 66.719,60.761 "/>
</svg>