<svg xmlns="http://www.w3.org/2000/svg" xmlns:xlink="http://www.w3.org/1999/xlink" version="1.1" id="Ok" x="0px" y="0px" width="100px" height="100px" viewBox="0 0 100 100" enable-background="new 0 0 100 100" xml:space="preserve">
<g>
	<path d="M57.045,76.259V10.283c0-3.771-3.057-6.827-6.826-6.827s-6.826,3.056-6.826,6.827c0,8.335,0,47.052,0,65.976   c-2.864,2.102-4.73,5.484-4.73,9.31c0,6.384,5.175,11.557,11.556,11.557c6.382,0,11.557-5.174,11.557-11.557   C61.775,81.741,59.908,78.36,57.045,76.259z M50.219,93.188c-3.922,0-7.102-3.18-7.102-7.102c0-2.857,1.69-5.319,4.124-6.447V11.28   c0-1.645,1.334-2.978,2.978-2.978c1.645,0,2.978,1.333,2.978,2.978v68.358c2.435,1.128,4.125,3.59,4.125,6.447   C57.321,90.009,54.142,93.188,50.219,93.188z"/>
	<path d="M51.139,82.172V33.06c0-0.548-0.444-0.992-0.991-0.992c-0.548,0-0.991,0.445-0.991,0.992v49.149   c-1.707,0.467-2.961,2.023-2.961,3.877c0,2.223,1.803,4.025,4.024,4.025c2.223,0,4.024-1.803,4.024-4.025   C54.242,84.181,52.918,82.588,51.139,82.172z"/>
</g>
</svg>