<svg xmlns="http://www.w3.org/2000/svg" xmlns:xlink="http://www.w3.org/1999/xlink" version="1.0" x="0px" y="0px" width="100px" height="100px" viewBox="0 0 100 100" overflow="" enable-background="new 0 0 100 100" xml:space="preserve">
    <path d="M49.792,15.948c2.619,0,4.729-2.109,4.729-4.722c0-2.609-2.109-4.729-4.729-4.729 c-2.604,0-4.719,2.12-4.719,4.729C45.073,13.839,47.188,15.948,49.792,15.948z"/>
    <rect x="28.561" y="69.473" width="10.325" height="13.174"/>
    <rect x="44.63" y="60.445" width="10.326" height="22.201"/>
    <rect x="60.688" y="42.393" width="10.323" height="40.254"/>
    <path d="M76.69,6.381H62.643c-1.431-2.844-4.078-4.971-7.266-5.671c-0.024-0.012-0.048-0.012-0.059-0.029 c-0.069-0.007-0.139-0.024-0.202-0.024c-0.424,0-0.768,0.345-0.768,0.765c0,0.329,0.21,0.609,0.499,0.71 c3.36,1.823,5.66,5.374,5.66,9.471h8.923c5.937,0,10.752,4.82,10.752,10.758v3.39c0,1.791-1.461,3.258-3.26,3.258H22.582 c-1.805,0-3.259-1.467-3.259-3.258v-3.39c0-5.938,4.815-10.758,10.75-10.758H39c0-1.896,0.491-3.671,1.356-5.223H23.339 c-7.245,0-13.112,5.878-13.112,13.125v67.375v0.005c0,7.246,5.867,13.114,13.112,13.114h53.354c7.246,0,13.114-5.868,13.114-13.114 v-0.005V19.506C89.808,12.26,83.936,6.381,76.69,6.381z M76.923,85.299c0,1.807-1.462,3.26-3.266,3.26H25.919 c-1.798,0-3.258-1.453-3.258-3.26V39.728c0-1.799,1.459-3.258,3.258-3.258h47.738c1.804,0,3.266,1.459,3.266,3.258V85.299z"/>
    <rect x="28.561" y="69.473" width="10.325" height="13.174"/>
    <rect x="44.63" y="60.445" width="10.326" height="22.201"/>
    <rect x="60.688" y="42.393" width="10.323" height="40.254"/>
</svg>