<?xml version="1.0" encoding="utf-8"?>
<!-- Generator: Adobe Illustrator 15.0.0, SVG Export Plug-In . SVG Version: 6.00 Build 0)  -->
<!DOCTYPE svg PUBLIC "-//W3C//DTD SVG 1.1//EN" "http://www.w3.org/Graphics/SVG/1.1/DTD/svg11.dtd">
<svg version="1.1" id="Final_Foreground" xmlns="http://www.w3.org/2000/svg" xmlns:xlink="http://www.w3.org/1999/xlink" x="0px"
	 y="0px" width="100px" height="100px" viewBox="0 0 100 100" enable-background="new 0 0 100 100" xml:space="preserve">
<path d="M42.931,7.095c0-3.92,3.177-7.096,7.094-7.096c3.919,0,7.094,3.176,7.094,7.096c0,3.915-3.175,7.093-7.094,7.093
	C46.108,14.188,42.931,11.01,42.931,7.095z M63.739,66.484L60.98,48.086h-1.993c0-0.723-0.469-1.134-0.905-1.277
	c-0.211-0.07-0.941-0.236-1.497,0.522c-1.2,1.636-2.891,2.611-4.386,2.611c-0.331,0-0.654-0.047-0.96-0.148
	c-0.61-0.2-2.03-0.93-2.03-3.388c0-15.198-0.277-18.938-0.351-19.653l-6.864-9.706c-3.805,0.189-6.957,2.837-7.905,6.393
	l-0.054-0.016l-7.757,28.949c-0.5,1.866,0.608,3.788,2.475,4.287c1.869,0.5,3.788-0.607,4.288-2.474l7.642-28.517h1.747v0.005
	l-6.116,40.811h3.075v29.233c0,2.519,2.041,4.561,4.558,4.561c2.52,0,4.562-2.042,4.562-4.561c0-0.002-0.001-0.003-0.001-0.005
	V66.484h3.036v29.232c0,2.52,2.041,4.561,4.559,4.561c2.519,0,4.561-2.041,4.561-4.561c0-0.001-0.001-0.002-0.001-0.003V66.484
	H63.739z M55.278,17.028h-10.56L50,24.496L55.278,17.028z M73.723,52.382l-7.757-28.949l-0.007,0.001
	c-0.955-3.568-4.128-6.222-7.954-6.39l-6.901,9.76c0.109,1.384,0.339,5.909,0.339,19.601c0,0.413,0.063,1.125,0.491,1.265
	c0.555,0.179,1.849-0.297,2.85-1.662c0.945-1.29,2.511-1.81,3.993-1.324c0.837,0.273,1.498,0.823,1.924,1.528l-3.08-20.54v-0.005
	h1.696l7.642,28.524c0.502,1.866,2.421,2.975,4.29,2.475C73.113,56.168,74.222,54.248,73.723,52.382z"/>
</svg>
