<svg xmlns="http://www.w3.org/2000/svg" xmlns:xlink="http://www.w3.org/1999/xlink" version="1.0" id="Layer_1" x="0px" y="0px" width="50px" height="50px" viewBox="0 0 50 50" enable-background="new 0 0 50 50" xml:space="preserve">
<g>
	<path fill="#000000" d="M16.349,1.948c-2.234-0.046-4.166,1.43-4.939,3.537C10.735,3.346,8.869,1.786,6.639,1.74   c-2.862-0.059-5.233,2.373-5.3,5.434C1.324,8,1.474,8.78,1.761,9.492c1.434,4.615,9.519,8.765,9.519,8.765s9.528-4.314,9.936-9.342   c0.106-0.42,0.175-0.86,0.185-1.315C21.466,4.539,19.206,2.008,16.349,1.948z"/>
	<g>
		<path fill="#000000" d="M22.817,6c0.101,0,0.155,0.969,0.144,1.51c-0.012,0.504-0.082,0.904-0.209,1.427    C22.713,9.337,22.622,10,22.499,10H45v34H9V18.715c-1-0.718-3-1.794-5-3.107V48h45V6H22.817z"/>
	</g>
	<g>
		<polygon fill="#000000" points="15.404,41.005 11.991,38.302 22.667,24.82 30.97,29.985 36.895,18.147 40.787,20.096     32.725,36.204 23.667,30.568   "/>
		<g>
			<path fill="#000000" d="M38.605,19.591c-1.831,0.609-4.535-0.017-6.233-0.807c3.085-0.548,6.134-1.741,8.55-3.821     c-0.264,3.157,0.774,6.276,2.065,9.134C41.267,23.056,39.31,21.529,38.605,19.591z"/>
		</g>
	</g>
</g>
</svg>