<svg xmlns="http://www.w3.org/2000/svg" xmlns:xlink="http://www.w3.org/1999/xlink" version="1.1" x="0px" y="0px" width="100px" height="100px" viewBox="0 0 100 100" enable-background="new 0 0 100 100" xml:space="preserve">
<g id="Layer_1">
</g>
<g id="Layer_2">
	<path d="M60.523,15.631c0.105,0,0.189-0.017,0.189-0.038V4.928c0-0.011-0.027-0.021-0.065-0.029   c0.018-0.034,0.038-0.067,0.038-0.102c0-0.721-4.336-1.306-9.686-1.306c-5.347,0-9.684,0.584-9.684,1.306   c0,0.034,0.018,0.068,0.039,0.102c-0.04,0.008-0.066,0.018-0.066,0.029v10.666c0,0.021,0.084,0.038,0.189,0.038H60.523z"/>
	<path d="M73.017,46.674V26.613L61.04,21.306h-0.408c-0.208-0.065-0.461-0.126-0.748-0.185v-3.523c0-0.005-0.022-0.007-0.059-0.009   c0.017-0.025,0.034-0.05,0.034-0.074c0-0.551-3.966-0.998-8.859-0.998c-4.893,0-8.859,0.447-8.859,0.998   c0,0.024,0.017,0.049,0.033,0.074c-0.035,0.002-0.059,0.004-0.059,0.009v3.522c-0.287,0.06-0.539,0.121-0.746,0.187H40.96   l-11.978,5.307v20.062l2.662,1.08v21.894l-2.662,1.179v20.061L40.96,95.75h20.08l11.977-4.862V70.827l-2.661-1.179V47.755   L73.017,46.674z M64.405,81.51H37.594V35.754h26.811V81.51z"/>
</g>
</svg>