<svg xmlns="http://www.w3.org/2000/svg" xmlns:xlink="http://www.w3.org/1999/xlink" version="1.1" id="Layer_1" x="0px" y="0px" width="100px" height="100px" viewBox="0 0 100 100" enable-background="new 0 0 100 100" xml:space="preserve">
<g>
	<g>
		<g>
			<path d="M48.189,16.093c3.763,0,6.845-3.088,6.845-6.946c0-3.762-3.082-6.85-6.845-6.85c-3.859,0-6.85,3.087-6.85,6.85     C41.339,13.005,44.331,16.093,48.189,16.093z M48.216,7.12c1.074,0,1.951,0.952,1.951,1.996c0,1.046-0.877,1.995-1.951,1.995     c-1.176,0-2.058-0.949-2.058-1.995C46.158,8.072,47.04,7.12,48.216,7.12z"/>
			<path d="M48.189,33.934c6.171,0,11.379-5.207,11.379-11.478c0-3.277-1.446-6.363-3.953-8.581     c-1.641,2.603-4.438,4.049-7.426,4.049c-3.088,0-5.884-1.447-7.428-4.049c-2.601,2.218-4.052,5.304-4.052,8.581     C36.709,28.727,41.917,33.934,48.189,33.934z"/>
			<path d="M46.257,83.896c0,1.061,0.87,1.928,1.932,1.928c0.96,0,1.831-0.867,1.831-1.928c0-0.869-0.871-1.736-1.831-1.736     C47.127,82.159,46.257,83.026,46.257,83.896z"/>
			<path d="M59.374,37.117c1.158,2.026,1.833,4.436,1.833,6.753c0,4.824-2.797,9.354-7.134,11.474v7.142     c0,2.699-1.932,5.111-4.632,5.693v11.569c1.926,0.579,3.185,2.318,3.185,4.147c0,2.509-2.028,4.534-4.437,4.534     c-2.51,0-4.536-2.025-4.536-4.534c0-1.829,1.351-3.568,3.185-4.147V68.179c-2.703-0.582-4.632-2.994-4.632-5.693v-7.142     c-4.241-2.119-7.038-6.65-7.038-11.474c0-2.317,0.675-4.727,1.83-6.753c-8.003,0-14.562,6.558-14.562,14.563v36.361     c0,2.893,1.831,5.114,4.727,5.114c2.988,0,4.821-2.222,4.821-5.114V57.372h2.601v40.414h27.198V57.372h2.512v30.669     c0,2.893,1.831,5.114,4.821,5.114c2.894,0,4.726-2.222,4.726-5.114V51.68C73.842,43.774,67.382,37.117,59.374,37.117z"/>
			<path d="M51.563,62.485v-8.68c4.145-1.834,7.039-5.211,7.039-9.936c0-2.413-0.866-4.823-2.507-6.753H40.182     c-1.542,1.93-2.508,4.34-2.508,6.753c0,4.724,2.895,8.102,7.042,9.936v8.68c0,1.83,1.542,3.275,3.474,3.275     C50.02,65.761,51.563,64.315,51.563,62.485z"/>
		</g>
	</g>
</g>
</svg>