<svg xmlns="http://www.w3.org/2000/svg" xmlns:xlink="http://www.w3.org/1999/xlink" version="1.1" id="Layer_1" x="0px" y="0px" width="100px" height="100px" viewBox="0 0 100 100" enable-background="new 0 0 100 100" xml:space="preserve">
<g>
	<path d="M62.586,23.928c3.205-0.002,2.963-4.15-0.008-4.411c-1.441-0.126-4.693-0.412-5.822-0.511   c-1.117-0.098-1.947-1.033-1.949-1.938c-0.002-2.844-0.74-4.329-3.428-4.327l-2.93,0.002c-2.689,0.002-3.424,1.487-3.422,4.333   c0,0.905-0.83,1.84-1.945,1.939c-1.129,0.103-4.381,0.393-5.818,0.521c-2.975,0.265-3.213,4.413-0.004,4.411L62.586,23.928z    M49.979,17.819c-0.916-0.001-1.656-0.739-1.66-1.656c-0.002-0.917,0.74-1.66,1.658-1.661c0.918,0,1.658,0.742,1.662,1.657   C51.641,17.074,50.896,17.818,49.979,17.819z"/>
</g>
<path d="M66.408,22.092c-0.072,0.706-0.322,1.582-0.797,2.093c-0.43,0.468-1.221,1.023-2.521,1.027l-26.211,0.015  c-1.303,0-2.092-0.561-2.523-1.027c-0.479-0.511-0.727-1.385-0.807-2.088h-8.83l0.033,65.148l50.529-0.03l-0.033-65.143  L66.408,22.092z M31.52,82.179l-3.039,0.002l-0.002-3.057l3.035-0.002L31.52,82.179z M31.51,75.427l-3.033-0.001l-0.002-3.058  l3.033,0.001L31.51,75.427z M31.506,68.675l-3.033-0.001l-0.004-3.057l3.035-0.002L31.506,68.675z M31.504,61.923l-3.037,0.002  l0.002-3.059l3.033-0.002L31.504,61.923z M31.5,55.174l-3.033-0.001v-3.058l3.035-0.003L31.5,55.174z M31.496,48.419l-3.033,0.002  v-3.062h3.031L31.496,48.419z M42.705,32.463l4.822-0.003l-0.002-4.817l4.926-0.004l0.002,4.82l4.82-0.001l0.006,4.927l-4.82,0.002  v4.82l-4.93,0.004v-4.824l-4.822,0.007l-0.004-4.93L42.705,32.463L42.705,32.463z M69.943,82.155l-35.775,0.017l-0.006-3.058  l35.783-0.018L69.943,82.155z M69.945,75.405l-35.783,0.018l-0.002-3.058l35.775-0.018L69.945,75.405z M69.938,68.655L34.16,68.672  l-0.004-3.062l35.777-0.014L69.938,68.655z M69.932,61.903l-35.777,0.015v-3.059l35.777-0.02V61.903z M69.932,55.152l-35.777,0.02  l-0.002-3.062l35.775-0.017L69.932,55.152z M69.926,48.401l-35.773,0.012l-0.002-3.057l35.773-0.017L69.926,48.401z"/>
</svg>