<svg xmlns:dc="http://purl.org/dc/elements/1.1/" xmlns:cc="http://creativecommons.org/ns#" xmlns:rdf="http://www.w3.org/1999/02/22-rdf-syntax-ns#" xmlns:svg="http://www.w3.org/2000/svg" xmlns="http://www.w3.org/2000/svg" xmlns:sodipodi="http://sodipodi.sourceforge.net/DTD/sodipodi-0.dtd" xmlns:inkscape="http://www.inkscape.org/namespaces/inkscape" width="100" height="100" viewBox="0 0 80 80" version="1.1" id="svg2" inkscape:version="0.48.2 r9819" sodipodi:docname="electronic health record.svg">
  <metadata id="metadata10">
    <rdf:RDF>
      <cc:Work rdf:about="">
        <dc:format>image/svg+xml</dc:format>
        <dc:type rdf:resource="http://purl.org/dc/dcmitype/StillImage"/>
        <dc:title/>
      </cc:Work>
    </rdf:RDF>
  </metadata>
  <defs id="defs8">
    <inkscape:path-effect is_visible="true" id="path-effect5043" effect="spiro"/>
    <inkscape:path-effect is_visible="true" id="path-effect5065" effect="spiro"/>
    <marker inkscape:stockid="TriangleOutM" orient="auto" refY="0" refX="0" id="TriangleOutM" style="overflow:visible">
      <path inkscape:connector-curvature="0" id="path4281" d="m 5.77,0 -8.65,5 0,-10 8.65,5 z" style="fill-rule:evenodd;stroke:#000000;stroke-width:1pt;marker-start:none" transform="scale(0.4,0.4)"/>
    </marker>
    <marker inkscape:stockid="TriangleOutM" orient="auto" refY="0" refX="0" id="marker4230" style="overflow:visible">
      <path inkscape:connector-curvature="0" id="path4232" d="m 5.77,0 -8.65,5 0,-10 8.65,5 z" style="fill-rule:evenodd;stroke:#000000;stroke-width:1pt;marker-start:none" transform="scale(0.4,0.4)"/>
    </marker>
    <marker inkscape:stockid="TriangleOutM" orient="auto" refY="0" refX="0" id="marker4234" style="overflow:visible">
      <path inkscape:connector-curvature="0" id="path4236" d="m 5.77,0 -8.65,5 0,-10 8.65,5 z" style="fill-rule:evenodd;stroke:#000000;stroke-width:1pt;marker-start:none" transform="scale(0.4,0.4)"/>
    </marker>
    <marker inkscape:stockid="TriangleOutM" orient="auto" refY="0" refX="0" id="marker4238" style="overflow:visible">
      <path inkscape:connector-curvature="0" id="path4240" d="m 5.77,0 -8.65,5 0,-10 8.65,5 z" style="fill-rule:evenodd;stroke:#000000;stroke-width:1pt;marker-start:none" transform="scale(0.4,0.4)"/>
    </marker>
  </defs>
  <sodipodi:namedview pagecolor="#ffffff" bordercolor="#666666" borderopacity="1" objecttolerance="10" gridtolerance="10" guidetolerance="10" inkscape:pageopacity="0" inkscape:pageshadow="2" inkscape:window-width="1600" inkscape:window-height="829" id="namedview6" showgrid="true" inkscape:zoom="6.7653088" inkscape:cx="39.665069" inkscape:cy="42.367343" inkscape:window-x="-4" inkscape:window-y="-4" inkscape:window-maximized="1" inkscape:current-layer="svg2" inkscape:snap-grids="true">
    <inkscape:grid type="xygrid" id="grid3807"/>
  </sodipodi:namedview>
  <path style="fill:#000000;stroke:none;stroke-width:0.20000002000000000;stroke-miterlimit:4;stroke-dasharray:none" d="M 1.8125 49.90625 L 1.8125 50 L 1.8125 73.03125 L 1.8125 73.125 L 1.90625 73.125 L 16.125 73.125 L 16.21875 73.125 L 16.21875 73.03125 L 16.21875 50 L 16.21875 49.90625 L 16.125 49.90625 L 1.90625 49.90625 L 1.8125 49.90625 z M 2.34375 50.4375 L 15.6875 50.4375 L 15.6875 72.5625 L 2.34375 72.5625 L 2.34375 50.4375 z M 6.53125 52.78125 L 6.5 52.8125 C 5.30669 53.53679 4.53125 55.005494 4.53125 56.5625 C 4.53125 58.151275 5.3439035 59.449941 6.5625 60.34375 L 6.5625 60.375 L 6.59375 60.375 L 11.40625 60.375 L 11.4375 60.375 L 11.5 60.34375 C 12.718604 59.45017 13.5 58.151295 13.5 56.5625 C 13.5 55.005269 12.755802 53.536785 11.5625 52.8125 L 11.53125 52.78125 L 11.5 52.78125 L 6.53125 52.78125 z M 6.6875 53.375 L 11.3125 53.375 C 12.290898 54.123815 12.9375 55.255413 12.9375 56.5 C 12.9375 57.788164 12.316268 58.945231 11.28125 59.71875 L 6.75 59.71875 C 5.7136819 58.944921 5.0625 57.81887 5.0625 56.53125 C 5.0625 55.276469 5.7004757 54.063367 6.6875 53.375 z M 7.125 54.75 L 7.125 56.84375 L 7.625 56.84375 L 7.625 54.75 L 7.125 54.75 z M 10.375 54.90625 L 10.375 56.65625 L 10.875 56.65625 L 10.875 54.90625 L 10.375 54.90625 z M 9.03125 58.0625 C 8.5944834 58.0625 8.21875 58.242402 8.21875 58.59375 L 8.21875 59.40625 L 9.8125 59.40625 L 9.8125 58.59375 C 9.8127302 58.242402 9.4677864 58.0625 9.03125 58.0625 z M 6.53125 62.625 L 6.5 62.65625 C 5.306713 63.380763 4.53125 64.849245 4.53125 66.40625 C 4.53125 67.995025 5.3439035 69.293691 6.5625 70.1875 L 6.5625 70.25 L 6.59375 70.25 L 11.40625 70.25 L 11.4375 70.25 L 11.5 70.1875 C 12.718604 69.293921 13.5 67.995045 13.5 66.40625 C 13.5 64.849019 12.755802 63.380535 11.5625 62.65625 L 11.53125 62.625 L 11.5 62.625 L 6.53125 62.625 z M 6.6875 63.1875 L 11.3125 63.1875 C 12.290891 63.93632 12.9375 65.068142 12.9375 66.3125 C 12.9375 67.600662 12.31625 68.789205 11.28125 69.5625 L 6.75 69.5625 C 5.7136997 68.788893 5.0625 67.662387 5.0625 66.375 C 5.0625 65.119987 5.7004757 63.875867 6.6875 63.1875 z M 7.125 64.59375 L 7.125 66.6875 L 7.625 66.6875 L 7.625 64.59375 L 7.125 64.59375 z M 10.375 64.75 L 10.375 66.5 L 10.875 66.5 L 10.875 64.75 L 10.375 64.75 z M 9.03125 67.90625 C 8.5944834 67.90625 8.21875 68.086152 8.21875 68.4375 L 8.21875 69.25 L 9.8125 69.25 L 9.8125 68.4375 C 9.8127302 68.086152 9.4677864 67.90625 9.03125 67.90625 z " transform="scale(0.8,0.8)" id="path3928"/>
  <path style="fill:#000000;fill-opacity:1;fill-rule:nonzero;stroke:none" d="m 4.1672312,50.781922 6.1043968,0 c 0.581902,0 1.050366,0.517812 1.050366,1.161015 l 0,2.236374 c 0,0.643202 -0.468464,1.161015 -1.050366,1.161015 l -6.1043968,0 c -0.5819026,0 -1.0503657,-0.517813 -1.0503657,-1.161015 l 0,-2.236374 c 0,-0.643203 0.4684631,-1.161015 1.0503657,-1.161015 z" id="rect3074" inkscape:connector-curvature="0"/>
  <path style="font-size:medium;font-style:normal;font-variant:normal;font-weight:normal;font-stretch:normal;text-indent:0;text-align:start;text-decoration:none;line-height:normal;letter-spacing:normal;word-spacing:normal;text-transform:none;direction:ltr;block-progression:tb;writing-mode:lr-tb;text-anchor:start;baseline-shift:baseline;color:#000000;fill:#000000;fill-opacity:1;stroke:none;stroke-width:1px;marker:none;visibility:visible;display:inline;overflow:visible;enable-background:accumulate;font-family:Sans;-inkscape-font-specification:Sans" d="m 33.6,50.375 -0.8,0.05 c 0.197334,5.72269 -1.331462,9.492517 -3.675,11.8 -2.343538,2.307483 -5.536978,3.169807 -8.8,2.975 -3.263022,-0.194807 -6.581742,-1.479575 -9.05,-3.425 C 8.806742,59.829575 7.2,57.248889 7.2,54.4 l -0.8,0 c 0,3.151111 1.793258,5.970425 4.4,8.025 2.606742,2.054575 6.038022,3.369807 9.475,3.575 3.436978,0.205193 6.893538,-0.732483 9.425,-3.225 2.531462,-2.492517 4.102666,-6.52269 3.9,-12.4 z" id="path3076" inkscape:connector-curvature="0"/>
  <path style="font-size:medium;font-style:normal;font-variant:normal;font-weight:normal;font-stretch:normal;text-indent:0;text-align:start;text-decoration:none;line-height:normal;letter-spacing:normal;word-spacing:normal;text-transform:none;direction:ltr;block-progression:tb;writing-mode:lr-tb;text-anchor:start;baseline-shift:baseline;color:#000000;fill:#000000;fill-opacity:1;stroke:none;stroke-width:1.25;marker:none;visibility:visible;display:inline;overflow:visible;enable-background:accumulate;font-family:Sans;-inkscape-font-specification:Sans" d="m 21.095399,8.7171573 c -1.479224,0 -2.575,1.279672 -2.575,2.7749997 l 0,37.4 c 0.01192,1.102566 0.656,1.675 1.87488,1.675 l 4.025,0 c 15.25012,0 30.45012,0 44.50012,-0.05 1.041872,0 1.987064,-0.752973 2.175,-1.775 l 5.725,-31.25 c 0.0942,-0.509792 -0.01952,-1.007281 -0.325,-1.375 -0.30512,-0.367719 -0.803128,-0.6 -1.325,-0.6 -1.670104,7.58e-4 -3.331328,9.5e-5 -5,0 l 0,-0.35 c 8e-4,-1.067123 -0.82476,-1.975 -1.875,-1.975 l -26.875,0 0,-1.7 c 0,-1.5021365 -1.120024,-2.7749997 -2.6,-2.7749997 z m 0,1 17.725,0 c 0.91828,0 1.6,0.7477447 1.6,1.7749997 l 0,2.2 0,0.5 0.5,0 27.375,0 c 0.474456,0 0.875432,0.408973 0.875,0.975 l 0,0.35 c -14.073128,-0.0021 -28.099472,-0.02299 -42.175,-0.025 l -0.02496,0 0,0.025 c -0.648272,0.06227 -1.296824,0.216484 -1.8,0.625 -0.503176,0.408516 -0.813768,1.043023 -0.95,1.875 l 0,0.025 c -0.0048,0.02674 -0.0204,0.04784 -0.02496,0.075 -8e-4,0.0087 8e-4,0.01628 0,0.025 l -0.85,4.6 -3.825,20.8 0,-32.05 c 0,-1.032736 0.658408,-1.7749997 1.575,-1.7749997 z m 49.075,6.8499997 c 1.66836,9.4e-5 3.330168,7.58e-4 5,0 0.25328,0 0.4414,0.06912 0.55,0.2 0.1086,0.130882 0.1704,0.304196 0.125,0.55 l -5.75,31.25 c -0.0915,0.497765 -0.666568,0.925 -1.175,0.925 l -44.625,0 -4.05,0 c -0.25464,0 -0.416976,-0.09507 -0.525,-0.225 -0.054,-0.06497 -0.101528,-0.139556 -0.125,-0.225 -0.01568,-0.05696 -0.004,-0.127053 0,-0.2 l 5.6,-30.525 0,-0.025 c 0.108152,-0.660486 0.3098,-1.01721 0.6,-1.25 0.279672,-0.224344 0.690352,-0.344772 1.2,-0.4 l 0.05,0 c 14.225184,0.002 28.401608,-3.04e-4 42.625,0 l 0.5,0 z" id="path3085" inkscape:connector-curvature="0" sodipodi:nodetypes="ssccccccccccscssscsscccscccccsccccccssccsccscscscccscccccc"/>
  <path style="fill:#000000;fill-opacity:1;fill-rule:nonzero;stroke:none" d="m 44.955909,21.710273 -1.43895,7.825001 -7.95638,0 -1.43895,7.824999 7.95639,0 -1.44354,7.85 7.9818,0 1.44354,-7.85 7.9818,0 1.43895,-7.824999 -7.9818,0 1.43894,-7.825001 z" id="rect3080" inkscape:connector-curvature="0" sodipodi:nodetypes="ccccccccccccc"/>
</svg>