<svg xmlns="http://www.w3.org/2000/svg" xmlns:xlink="http://www.w3.org/1999/xlink" version="1.1" id="Layer_1" x="0px" y="0px" width="100px" height="55.443px" viewBox="0 0 100 55.443" enable-background="new 0 0 100 55.443" xml:space="preserve">
<path d="M0,0v39.167h63.724V0H0z M41.068,33.691c-2.24,1.706-5.104,2.559-8.555,2.559c-4.284,0-7.8-1.465-10.56-4.388  c-2.748-2.923-4.127-6.92-4.127-11.992c0-5.365,1.38-9.531,4.153-12.5s6.406-4.453,10.925-4.453c3.945,0,7.148,1.166,9.609,3.496  c1.471,1.38,2.565,3.359,3.294,5.938l-6.432,1.537c-0.391-1.667-1.185-2.988-2.396-3.958c-1.198-0.963-2.669-1.452-4.401-1.452  c-2.396,0-4.336,0.859-5.82,2.578c-1.484,1.712-2.227,4.492-2.227,8.333c0,4.076,0.729,6.973,2.201,8.705  c1.458,1.731,3.372,2.598,5.716,2.598c1.732,0,3.216-0.554,4.453-1.653c1.25-1.101,2.148-2.826,2.695-5.189l6.302,2.005  C44.935,29.369,43.32,31.979,41.068,33.691z"/>
<path d="M0,41.562h19.635c-1.309,1.745-2.096,3.881-2.096,6.237H7.865L0,45.807V41.562z"/>
<path d="M90.267,26.276L84.714,9.609V5.442H67.305v36.12H36.263c1.315,1.745,2.103,3.881,2.103,6.237h32.461  c0-5.742,4.668-10.403,10.423-10.403c4.043,0,7.539,2.305,9.265,5.677c0.618,1.211,1.009,2.565,1.1,3.984  c0.02,0.247,0.053,0.495,0.053,0.742H100V30.443L90.267,26.276z M72.22,26.276v-12.5h9.727l4.154,12.5H72.22z"/>
<path d="M27.962,40.169c-4.226,0-7.644,3.424-7.644,7.63c0,4.219,3.418,7.644,7.644,7.644c4.206,0,7.624-3.425,7.624-7.644  C35.586,43.593,32.168,40.169,27.962,40.169z M27.962,51.966c-2.312,0-4.187-1.862-4.187-4.167c0-2.292,1.875-4.167,4.187-4.167  c2.285,0,4.16,1.875,4.16,4.167C32.123,50.104,30.248,51.966,27.962,51.966z"/>
<path d="M81.25,40.169c-4.226,0-7.644,3.424-7.644,7.63c0,4.219,3.418,7.644,7.644,7.644c4.206,0,7.637-3.425,7.637-7.644  C88.887,43.593,85.456,40.169,81.25,40.169z M81.25,51.966c-2.305,0-4.167-1.862-4.167-4.167c0-2.292,1.862-4.167,4.167-4.167  c2.298,0,4.167,1.875,4.167,4.167C85.417,50.104,83.548,51.966,81.25,51.966z"/>
</svg>