<svg xmlns="http://www.w3.org/2000/svg" xmlns:xlink="http://www.w3.org/1999/xlink" version="1.1" id="Layer_1" x="0px" y="0px" viewBox="0 0 100 100" enable-background="new 0 0 100 100" xml:space="preserve" height="100px" width="100px">
<path d="M84.1,32.5c4,0.6,7.4,2.5,9.9,5.7c2.4,3,3.6,6.5,3.5,10.3c-0.1,2.7-0.4,5.4-1.1,8c-1.6,5.8-4.6,10.9-9,14.9  c-2.7,2.4-5.9,3.2-9.5,2.7c-1.5-0.2-2.9-0.7-4.4-1.1c-0.3-0.1-0.6-0.1-0.9,0c-1.1,0.3-2.2,0.6-3.3,0.8c-3.8,0.9-7.2,0.2-10.3-2.3  c-1.2-0.9-2.1-2-3.1-3.2c-2.9-3.4-4.9-7.3-6.2-11.6c-0.7-2.3-1.1-4.7-1.2-7.1c-0.1-1.5-0.1-2.9,0.1-4.4c0.6-3.7,2.3-6.8,5.1-9.2  c3.5-3.1,7.7-4.2,12.3-3.9c1.7,0.1,3.4,0.4,5.1,0.8c0.3,0.1,0.4,0,0.4-0.3c0-0.6-0.1-1.3-0.2-1.9c-0.6-2.5-2-4.5-4.3-5.8  c-0.5-0.3-0.5-0.3-0.2-0.8c0.3-0.6,0.6-1.2,0.9-1.8c0.1-0.3,0.3-0.3,0.5-0.2c0.4,0.3,0.8,0.5,1.2,0.8c1.6,1.1,2.8,2.5,3.7,4.2  c0.2,0.3,0.2,0.3,0.4,0c0.3-0.5,0.7-0.9,1.1-1.3c2.5-2.6,5.6-3.9,9.2-4c2.1-0.1,4,0.6,6,1.3c0.2,0.1,0.2,0.2,0.1,0.4  c-1,1.5-2,2.9-3.4,4.1c-2.3,1.9-5,3-8.1,3.1c-1.4,0-2.7-0.2-4-0.6c-0.2-0.1-0.3-0.1-0.3,0.2c0.2,0.8,0.3,1.6,0.2,2.3  c0,0.2,0.1,0.2,0.3,0.2c2.2-0.6,4.5-0.9,7.2-0.9C82.4,32.3,83.2,32.4,84.1,32.5z M62.8,38.2c-2.3,0.3-4.2,1.3-5.8,3  c-1.7,1.8-2.6,3.9-2.7,6.4c0,0.6,0.1,1.2,0.6,1.6c0.5,0.4,1,0.4,1.6,0.1c0.5-0.3,0.8-0.7,0.8-1.3c0-0.8,0.1-1.5,0.4-2.2  c1-2.8,3.5-4.6,6.6-4.7c0.8,0,1.3-0.5,1.4-1.2c0.1-0.8-0.3-1.5-1-1.7c-0.3-0.1-0.5,0-0.8-0.1C63.5,38.1,63.2,38.2,62.8,38.2z   M37,72.2v-0.4c0-2.5-2-4.5-4.5-4.5H7c-2.5,0-4.5,2-4.5,4.5v0.4c0,2.5,2,4.5,4.5,4.5h25.6C35,76.6,37,74.7,37,72.2z M31.2,83.2v-0.4  c0-2.5-2-4.5-4.5-4.5h-14c-2.5,0-4.5,2-4.5,4.5v0.4c0,2.5,2,4.5,4.5,4.5h14C29.2,87.7,31.2,85.7,31.2,83.2z M2.5,27.8v0.4  c0,2.5,2,4.5,4.5,4.5h25.6c2.5,0,4.5-2,4.5-4.5v-0.4c0-2.5-2-4.5-4.5-4.5H7C4.5,23.4,2.5,25.3,2.5,27.8z M8.3,16.8v0.4  c0,2.5,2,4.5,4.5,4.5h14c2.5,0,4.5-2,4.5-4.5v-0.4c0-2.5-2-4.5-4.5-4.5h-14C10.3,12.3,8.3,14.3,8.3,16.8z M24.2,61.1V38.9  c0-2.2-1.8-4-4-4h-0.9c-2.2,0-4,1.8-4,4v22.1c0,2.2,1.8,4,4,4h0.9C22.4,65.1,24.2,63.3,24.2,61.1z"/>
</svg>