<?xml version="1.0" encoding="utf-8"?>
<!-- Generator: Adobe Illustrator 14.0.0, SVG Export Plug-In . SVG Version: 6.00 Build 43363)  -->
<!DOCTYPE svg PUBLIC "-//W3C//DTD SVG 1.0//EN" "http://www.w3.org/TR/2001/REC-SVG-20010904/DTD/svg10.dtd">
<svg version="1.0" id="Layer_1" xmlns="http://www.w3.org/2000/svg" xmlns:xlink="http://www.w3.org/1999/xlink" x="0px" y="0px"
	 width="64.124px" height="100px" viewBox="0 0 64.124 100" enable-background="new 0 0 64.124 100" xml:space="preserve">
<rect x="-0.69" y="69.902" transform="matrix(0.866 0.5 -0.5 0.866 38.008 2.8741)" width="28.663" height="4.914"/>
<path d="M50.154,89.814C57.331,83.048,61.87,73.53,61.87,62.916c0-13.087-6.868-24.882-17.554-31.511l11.966-20.722l-1.881-1.09
	l2.96-5.125L49.624,0l-2.96,5.121l-1.985-1.142L15.254,54.953l2.575,1.487l-3.649,6.318l6.456,3.725l3.65-6.311l2.568,1.485
	l12.372-21.436c7.596,4.833,12.455,13.305,12.455,22.694c0,14.835-12.07,26.898-26.906,26.898c-9.927,0-21.684,0-21.684,0V100
	h61.033V89.814C64.124,89.814,55.091,89.814,50.154,89.814z"/>
</svg>
