<svg xmlns="http://www.w3.org/2000/svg" xmlns:xlink="http://www.w3.org/1999/xlink" version="1.1" id="Layer_1" x="0px" y="0px" width="100px" height="100px" viewBox="-346 256 100 100" enable-background="new -346 256 100 100" xml:space="preserve">
<path d="M-251.791,314.874l-2.489-1.496l4.04-6.725c0.958-1.596,1.237-3.468,0.786-5.273c-0.449-1.806-1.575-3.326-3.169-4.284  c-1.596-0.958-3.469-1.238-5.273-0.789c-1.807,0.45-3.327,1.577-4.285,3.172l-4.041,6.725l-2.489-1.495l4.04-6.726  c1.357-2.259,3.514-3.855,6.072-4.493c2.558-0.639,5.211-0.241,7.472,1.116c2.259,1.357,3.854,3.514,4.493,6.072  c0.637,2.558,0.241,5.211-1.116,7.471L-251.791,314.874L-251.791,314.874z"/>
<path d="M-265.504,328.375c-1.73,0-3.48-0.455-5.066-1.408c-4.667-2.803-6.181-8.878-3.379-13.543l4.041-6.725l2.488,1.495  l-4.039,6.725c-1.979,3.292-0.909,7.581,2.384,9.559c3.291,1.978,7.579,0.909,9.558-2.385l4.041-6.723l2.488,1.494l-4.039,6.725  C-258.878,326.667-262.152,328.374-265.504,328.375L-265.504,328.375z"/>
<path d="M-321.918,308.943l-1.723-2.338l6.316-4.653c1.498-1.104,2.476-2.726,2.755-4.564c0.279-1.84-0.175-3.678-1.279-5.176  c-1.104-1.497-2.725-2.477-4.564-2.755c-1.839-0.279-3.678,0.176-5.176,1.279l-6.315,4.653l-1.723-2.339l6.315-4.652  c2.123-1.563,4.728-2.206,7.333-1.812c2.607,0.395,4.904,1.78,6.467,3.904c1.563,2.122,2.208,4.726,1.812,7.333  c-0.395,2.606-1.781,4.902-3.903,6.467L-321.918,308.943L-321.918,308.943z"/>
<path d="M-335.946,316.895c-3.032,0-6.026-1.389-7.958-4.012c-3.228-4.382-2.289-10.573,2.091-13.801l6.316-4.653l1.722,2.339  l-6.316,4.653c-3.092,2.278-3.754,6.646-1.476,9.739c2.279,3.093,6.648,3.756,9.74,1.478l6.315-4.654l1.723,2.338l-6.315,4.653  C-331.863,316.27-333.914,316.895-335.946,316.895L-335.946,316.895z"/>
<circle cx="-328.122" cy="296.835" r="1.742"/>
<circle cx="-329.381" cy="301.396" r="1.743"/>
<circle cx="-334.183" cy="300.614" r="1.742"/>
<circle cx="-332.393" cy="305.247" r="1.742"/>
<circle cx="-337.216" cy="304.753" r="1.742"/>
<circle cx="-335.368" cy="309.315" r="1.742"/>
<circle cx="-327.724" cy="306.005" r="1.742"/>
<circle cx="-321.909" cy="300.47" r="1.742"/>
<path d="M-286.978,290.272l-2.904-0.03l0.086-7.845c0.02-1.861-0.687-3.618-1.987-4.947c-1.301-1.33-3.043-2.073-4.903-2.093  c-1.863-0.035-3.618,0.685-4.947,1.986c-1.33,1.302-2.074,3.043-2.093,4.903l-0.085,7.844l-2.904-0.031l0.085-7.844  c0.028-2.636,1.081-5.104,2.966-6.948c1.884-1.844,4.366-2.837,7.01-2.815c2.637,0.028,5.104,1.082,6.947,2.966  c1.844,1.884,2.843,4.374,2.816,7.01L-286.978,290.272L-286.978,290.272z"/>
<path d="M-296.955,310.205c-0.037,0-0.073-0.001-0.109-0.002c-5.442-0.059-9.822-4.535-9.763-9.977l0.085-7.844l2.904,0.031  l-0.085,7.845c-0.042,3.839,3.049,6.998,6.891,7.04c1.855,0.034,3.617-0.685,4.947-1.986s2.073-3.043,2.093-4.904l0.085-7.844  l2.904,0.031l-0.085,7.845c-0.029,2.637-1.082,5.104-2.966,6.947C-291.912,309.206-294.359,310.205-296.955,310.205  L-296.955,310.205z"/>
<circle cx="-300.382" cy="287.941" r="1.743"/>
<circle cx="-297.496" cy="291.691" r="1.743"/>
<circle cx="-301.011" cy="295.055" r="1.743"/>
<circle cx="-296.233" cy="296.414" r="1.742"/>
<circle cx="-299.531" cy="299.969" r="1.742"/>
<circle cx="-294.776" cy="301.238" r="1.743"/>
<circle cx="-292.818" cy="293.142" r="1.742"/>
<circle cx="-293.739" cy="285.167" r="1.743"/>
<path d="M-317.143,330.395l-4.086-6.697c-1.373-2.251-1.788-4.9-1.167-7.464c0.621-2.562,2.202-4.729,4.453-6.102  c4.646-2.835,10.73-1.359,13.565,3.286l4.085,6.697l-2.479,1.512l-4.086-6.696c-2-3.279-6.295-4.319-9.574-2.32  c-1.589,0.969-2.705,2.498-3.143,4.308c-0.438,1.808-0.145,3.679,0.824,5.268l4.085,6.696L-317.143,330.395L-317.143,330.395z"/>
<path d="M-303.406,343.802c-3.331,0-6.585-1.682-8.442-4.727l-4.085-6.697l2.479-1.512l4.085,6.696c2,3.278,6.295,4.318,9.575,2.319  c1.588-0.97,2.704-2.499,3.141-4.307c0.439-1.809,0.146-3.68-0.823-5.268l-4.086-6.697l2.479-1.512l4.086,6.697  c1.372,2.251,1.787,4.9,1.166,7.462c-0.619,2.563-2.202,4.729-4.452,6.103C-299.883,343.338-301.654,343.802-303.406,343.802  L-303.406,343.802z"/>
<circle cx="-312.895" cy="325.241" r="1.743"/>
<circle cx="-308.46" cy="326.892" r="1.743"/>
<circle cx="-309.657" cy="331.608" r="1.742"/>
<circle cx="-304.887" cy="330.228" r="1.743"/>
<circle cx="-305.798" cy="334.99" r="1.742"/>
<circle cx="-301.094" cy="333.545" r="1.743"/>
<circle cx="-303.724" cy="325.644" r="1.743"/>
<circle cx="-308.732" cy="319.368" r="1.742"/>
</svg>