<?xml version="1.0" encoding="utf-8"?>
<!-- Generator: Adobe Illustrator 15.1.0, SVG Export Plug-In . SVG Version: 6.00 Build 0)  -->
<!DOCTYPE svg PUBLIC "-//W3C//DTD SVG 1.1//EN" "http://www.w3.org/Graphics/SVG/1.1/DTD/svg11.dtd">
<svg version="1.1" id="Layer_1" xmlns="http://www.w3.org/2000/svg" xmlns:xlink="http://www.w3.org/1999/xlink" x="0px" y="0px"
	 width="100px" height="86.567px" viewBox="0 0 100 86.567" enable-background="new 0 0 100 86.567" xml:space="preserve">
<rect x="28.528" y="51.007" fill="#010101" width="71.447" height="6.696"/>
<path fill="#010101" d="M35.423,45.404c-4.673,0-8.481-3.806-8.481-8.477c0-4.684,3.808-8.475,8.481-8.475
	c4.677,0,8.474,3.791,8.474,8.475C43.896,41.598,40.1,45.404,35.423,45.404z"/>
<path fill="#010101" d="M46.086,36.789c0,4.741,3.821,8.577,8.579,8.614l30.78-0.004c2.051-0.024,3.702-1.691,3.702-3.744
	c0-2.074-1.678-3.752-3.751-3.752H69.498L56.55,35.198l0.697-3.347l12.602,2.633h15.547c3.955,0,7.171,3.215,7.171,7.171
	c0,1.373-0.409,2.652-1.086,3.744l8.52-0.005V30.741L83.12,28.157H54.734C49.941,28.157,46.086,32.026,46.086,36.789z"/>
<path fill="#010101" d="M0.005,30.517c-0.002,0-0.003,0-0.005,0l0.003-2.826l-0.002-2.826C1.016,24.863,24.87,24.504,24.87,0h5.651
	c0,8.958-2.698,16.196-8.018,21.509C13.6,30.402,0.633,30.517,0.005,30.517z"/>
<path fill="#010101" d="M30.521,86.567H24.87c0-24.502-23.854-24.862-24.869-24.865V56.05c0.001,0,0.003,0,0.006,0
	c0.624,0,13.593,0.114,22.499,9.009C27.823,70.373,30.521,77.61,30.521,86.567z"/>
</svg>
