<svg xmlns="http://www.w3.org/2000/svg" xmlns:xlink="http://www.w3.org/1999/xlink" version="1.1" id="Your_Icon" x="0px" y="0px" width="100px" height="100px" viewBox="0 0 100 100" enable-background="new 0 0 100 100" xml:space="preserve">
<rect x="58.954" y="17.549" width="4.34" height="4.34"/>
<rect x="67.042" y="18.705" width="4.339" height="4.34"/>
<rect x="68.479" y="9.659" width="4.341" height="4.341"/>
<rect x="75.412" y="16.394" width="4.34" height="4.34"/>
<rect x="84.655" y="11.772" width="4.34" height="4.34"/>
<rect x="60.392" y="8.306" width="4.339" height="4.34"/>
<rect x="85.811" y="1.655" width="4.339" height="4.34"/>
<rect x="76.427" y="6.136" width="4.34" height="4.34"/>
<rect x="69.633" y="0.5" width="4.342" height="4.339"/>
<rect x="54.586" y="25.722" width="4.34" height="4.34"/>
<rect x="60.108" y="24.482" width="4.339" height="4.34"/>
<rect x="74.355" y="24.035" width="4.34" height="4.34"/>
<rect x="81.189" y="21.016" width="4.339" height="4.34"/>
<rect x="88.07" y="24.035" width="4.341" height="4.34"/>
<rect x="67.605" y="25.722" width="4.341" height="4.339"/>
<g>
	<path d="M28.329,13.569c-15.045,0-24.955,26.148-12.804,42.64C27.679,72.7,50.246,97.965,50.246,97.965V30.811   C50.246,30.811,43.375,13.569,28.329,13.569z"/>
</g>
<g>
	<path d="M89,34v-4h-4.035H81v4h-5v-4h-4.054h-4.341H63v4h-4v-4h-4.413H50v0.811V34.4v4.34v4.34v4.341v4.339v4.341v4.339v4.341   v4.339v4.341v4.338v4.343v4.339v4.341v4.338v2.806c0,0,1.164-0.965,2.71-2.965H55v-1.994C55,92.332,55.805,92,56.479,91H59v-3.019   C59,87.493,59.772,87,60.211,86H63v-3.109C63,82.643,63.687,82,63.898,82H68v-4h4v-5h4v-4h5v-4h4v-5h4v-3.898V52h5v-4.579v-4.341   v-4.34V34H89z"/>
</g>
</svg>