<svg xmlns="http://www.w3.org/2000/svg" xmlns:xlink="http://www.w3.org/1999/xlink" version="1.1" id="Layer_1" x="0px" y="0px" width="100px" height="100.001px" viewBox="0 0 100 100.001" enable-background="new 0 0 100 100.001" xml:space="preserve">
<path d="M92.72,7.292C87.863,2.435,81.496,0,75.129,0S62.401,2.435,57.551,7.292l-25.136,25.13l0,0l-25.13,25.13  c-9.714,9.7-9.714,25.455,0.006,35.169c9.7,9.707,25.456,9.707,35.163,0l19.778-19.772L92.72,42.46  C102.427,32.747,102.427,16.992,92.72,7.292z M87.368,37.109l-25.137,25.13L37.766,37.773l25.143-25.13  c3.262-3.268,7.604-5.071,12.22-5.071c4.622,0,8.972,1.803,12.239,5.071C94.106,19.381,94.106,30.364,87.368,37.109z"/>
</svg>