<svg xmlns="http://www.w3.org/2000/svg" xmlns:xlink="http://www.w3.org/1999/xlink" version="1.0" id="svg" x="0px" y="0px" width="100px" height="100px" viewBox="0 0 100 100" enable-background="new 0 0 100 100" xml:space="preserve">
<path fill="#000000" d="M80,71.25H20c-3.446,0-6.25-2.805-6.25-6.25V25c0-3.446,2.804-6.25,6.25-6.25h60  c3.445,0,6.25,2.804,6.25,6.25v40C86.25,68.445,83.445,71.25,80,71.25z M20,21.25c-2.067,0-3.75,1.683-3.75,3.75v40  c0,2.066,1.683,3.75,3.75,3.75h60c2.066,0,3.75-1.684,3.75-3.75V25c0-2.067-1.684-3.75-3.75-3.75H20z M56.25,36.25H52.5V32.5  c0-0.69-0.561-1.25-1.25-1.25h-2.5c-0.69,0-1.25,0.56-1.25,1.25v3.75h-3.75c-0.69,0-1.25,0.56-1.25,1.25V40  c0,0.69,0.56,1.25,1.25,1.25h3.75V45c0,0.69,0.56,1.25,1.25,1.25h2.5c0.689,0,1.25-0.56,1.25-1.25v-3.75h3.75  c0.689,0,1.25-0.56,1.25-1.25v-2.5C57.5,36.81,56.939,36.25,56.25,36.25z M80,61.25H20c-0.69,0-1.25-0.561-1.25-1.25  s0.56-1.25,1.25-1.25h60c0.689,0,1.25,0.561,1.25,1.25S80.689,61.25,80,61.25z M50,66.25c-0.33,0-0.65-0.13-0.891-0.37  C48.88,65.65,48.75,65.33,48.75,65s0.13-0.65,0.359-0.88c0.471-0.472,1.311-0.472,1.771-0.011c0.24,0.24,0.37,0.561,0.37,0.891  s-0.13,0.648-0.37,0.88C50.648,66.12,50.33,66.25,50,66.25z M65,88.75H35c-0.69,0-1.25-0.561-1.25-1.25s0.56-1.25,1.25-1.25h30  c0.689,0,1.25,0.561,1.25,1.25S65.689,88.75,65,88.75z M42.5,83.75c-0.69,0-1.25-0.561-1.25-1.25V75c0-0.689,0.56-1.25,1.25-1.25  s1.25,0.561,1.25,1.25v7.5C43.75,83.189,43.19,83.75,42.5,83.75z M57.5,83.75c-0.689,0-1.25-0.561-1.25-1.25V75  c0-0.689,0.561-1.25,1.25-1.25s1.25,0.561,1.25,1.25v7.5C58.75,83.189,58.189,83.75,57.5,83.75z"/>
</svg>