<svg xmlns="http://www.w3.org/2000/svg" xmlns:xlink="http://www.w3.org/1999/xlink" version="1.1" x="0px" y="0px" width="100px" height="100px" viewBox="0 0 100 100" enable-background="new 0 0 100 100" xml:space="preserve">
<g id="Captions">
</g>
<g id="Your_Icon">
	<path d="M44.608,35.521c-5.684,5.687-5.684,14.938,0,20.625c2.756,2.753,6.418,4.271,10.314,4.271c3.408,0,6.638-1.161,9.237-3.297   V34.546c-2.6-2.134-5.829-3.296-9.237-3.296C51.026,31.25,47.364,32.767,44.608,35.521z M40.484,22.917H13.119   c-2.877,0-5.208,2.332-5.208,5.208s2.332,5.208,5.208,5.208h17.768c1.263-2.421,2.898-4.666,4.885-6.651   C37.215,25.238,38.8,23.983,40.484,22.917z M49.062,18.75c5.178,0,9.375-4.197,9.375-9.375S54.24,0,49.062,0   c-5.178,0-9.375,4.197-9.375,9.375S43.884,18.75,49.062,18.75z M84.993,22.917H69.358c1.687,1.066,3.27,2.321,4.714,3.766   c1.986,1.985,3.621,4.229,4.885,6.651h6.036c2.877,0,5.209-2.332,5.209-5.208S87.87,22.917,84.993,22.917z M33.952,62.975V93.75   c0,3.451,2.799,6.25,6.25,6.25c3.452,0,6.25-2.799,6.25-6.25V71.562c-3.981-1.306-7.631-3.53-10.68-6.579   C35.128,64.339,34.521,63.67,33.952,62.975z M51.66,72.714V93.75c0,3.451,2.799,6.25,6.25,6.25s6.25-2.799,6.25-6.25V71.305   c-2.923,1.058-6.037,1.611-9.237,1.611C53.823,72.916,52.734,72.843,51.66,72.714z"/>
	<path d="M96.169,78.243l-19.12-19.12c-0.588-0.589-1.268-1.028-1.99-1.333c2.137-3.584,3.302-7.676,3.302-11.957   c0-6.261-2.438-12.146-6.866-16.573c-4.427-4.427-10.312-6.865-16.571-6.865c-6.262,0-12.146,2.438-16.573,6.865   c-4.427,4.427-6.866,10.312-6.866,16.573c0,6.26,2.438,12.145,6.866,16.572c4.427,4.427,10.312,6.865,16.573,6.865   c4.279,0,8.37-1.164,11.955-3.301c0.306,0.723,0.744,1.402,1.333,1.991l19.12,19.12c1.22,1.221,2.82,1.831,4.419,1.831   c1.6,0,3.199-0.61,4.419-1.831C98.61,84.641,98.61,80.684,96.169,78.243z M42.032,58.723c-3.443-3.443-5.339-8.021-5.339-12.889   c0-4.87,1.896-9.447,5.339-12.891c3.443-3.442,8.021-5.34,12.891-5.34c4.868,0,9.444,1.897,12.89,5.34   c3.442,3.443,5.339,8.021,5.339,12.891c0,4.869-1.896,9.446-5.339,12.889c-3.445,3.442-8.021,5.34-12.89,5.34   C50.053,64.062,45.475,62.165,42.032,58.723z"/>
</g>
</svg>