<svg xmlns="http://www.w3.org/2000/svg" xmlns:xlink="http://www.w3.org/1999/xlink" version="1.1" id="Layer_1" x="0px" y="0px" width="100px" height="100px" viewBox="0 0 100 100" enable-background="new 0 0 100 100" xml:space="preserve">
<path d="M53.208,26.833c8.301-9.13,9.961-24.069,9.961-24.069h-3.97c0,0-1.628,14.524-9.636,23.682  c-1.261-1.442-2.362-3.013-3.325-4.644h4.865c0.845-1.431,1.59-2.897,2.231-4.361h-9.327c-0.806-1.839-1.458-3.652-1.989-5.356  h13.304c0.495-1.586,0.887-3.067,1.186-4.362H40.834c-0.682-2.963-0.908-4.959-0.908-4.959H35.96c0,0,1.66,14.939,9.959,24.069  c0.571,0.627,1.123,1.236,1.661,1.834c-7.296,8.099-11.62,13.674-11.62,21.402c0,7.725,4.324,13.302,11.62,21.404  c-0.538,0.598-1.09,1.206-1.661,1.833c-8.299,9.13-9.959,24.068-9.959,24.068h3.966c0,0,0.21-1.826,0.82-4.563h15.849  c-0.286-1.284-0.659-2.759-1.147-4.363H41.895c0.514-1.693,1.15-3.51,1.939-5.354h9.675c-0.623-1.459-1.343-2.928-2.166-4.363  h-5.344c1.017-1.771,2.201-3.478,3.564-5.036c8.008,9.156,9.636,23.681,9.636,23.681h3.97c0,0-1.66-14.938-9.961-24.068  c-0.57-0.627-1.122-1.235-1.661-1.835c7.297-8.1,11.622-13.677,11.622-21.402c0-7.727-4.325-13.303-11.622-21.402  C52.086,28.069,52.638,27.46,53.208,26.833z M54.82,37.472h-8.522c-1.012,1.469-1.854,2.91-2.526,4.365h13.574  c0.929,2.009,1.521,4.052,1.743,6.247h-17.06c-0.065,0.649-0.111,1.306-0.111,1.985c0,0.816,0.062,1.604,0.157,2.378h16.968  c-0.269,2.188-0.897,4.231-1.876,6.249H43.95c0.704,1.449,1.588,2.89,2.626,4.363h7.964c-1.384,1.96-3.055,3.988-4.978,6.181  c-6.086-6.939-9.637-12.177-9.637-19.171c0-6.996,3.551-12.232,9.637-19.17C51.615,33.237,53.386,35.389,54.82,37.472z"/>
</svg>