<svg xmlns="http://www.w3.org/2000/svg" xmlns:xlink="http://www.w3.org/1999/xlink" version="1.1" id="Layer_1" x="0px" y="0px" width="100px" height="100px" viewBox="0 0 100 100" enable-background="new 0 0 100 100" xml:space="preserve">
<g>
	<path d="M73.615,32.812c-1.749-0.778-3.814,0.011-4.6,1.77l-3.646,8.197c-2.967,0.531-5.271,3.014-5.271,6.134   c0,3.499,2.852,6.351,6.352,6.351c3.507,0,6.357-2.852,6.357-6.351c0-1.242-0.451-2.334-1.068-3.313l3.644-8.188   C76.162,35.657,75.373,33.595,73.615,32.812z"/>
	<path d="M94.801,25.49c1.364-1.357,1.364-3.565,0.008-4.926c-1.354-1.365-3.561-1.365-4.926-0.007l-3.376,3.371   c-4.659-3.742-10.329-6.17-16.573-6.858v-1.279h5.132c1.926,0,3.484-1.557,3.484-3.483c0-1.925-1.559-3.483-3.484-3.483H57.834   c-1.926,0-3.482,1.559-3.482,3.483c0,1.926,1.557,3.483,3.482,3.483h5.133v1.283c-16.093,1.762-28.701,15.283-28.701,31.839   c0,5.241,1.38,10.122,3.611,14.499C22.638,63.92,1.352,67.232,1.352,77.256c0,10.988,25.628,13.92,40.771,13.92   c15.14,0,40.768-2.932,40.768-13.92c0-0.262-0.097-0.492-0.147-0.738c9.471-5.611,15.905-15.826,15.905-27.604   c0-7.623-2.772-14.54-7.218-20.059L94.801,25.49z M42.123,84.211c-21.944,0-33.084-5.062-33.822-6.834   c0.735-2.014,11.868-7.078,33.822-7.078c0.14,0,0.257-0.062,0.391-0.08c5.898,6.621,14.392,10.879,23.937,10.879   c0.796,0,1.544-0.178,2.33-0.236C63.197,82.615,54.416,84.211,42.123,84.211z M66.45,74.131c-13.905,0-25.22-11.312-25.22-25.218   c0-13.91,11.314-25.227,25.22-25.227c13.912,0,25.232,11.317,25.232,25.227C91.683,62.818,80.362,74.131,66.45,74.131z"/>
</g>
</svg>