<?xml version="1.0" encoding="utf-8"?>
<!-- Generator: Adobe Illustrator 14.0.0, SVG Export Plug-In . SVG Version: 6.00 Build 43363)  -->
<!DOCTYPE svg PUBLIC "-//W3C//DTD SVG 1.0//EN" "http://www.w3.org/TR/2001/REC-SVG-20010904/DTD/svg10.dtd">
<svg version="1.0" id="Layer_1" xmlns="http://www.w3.org/2000/svg" xmlns:xlink="http://www.w3.org/1999/xlink" x="0px" y="0px"
	 width="54.168px" height="100px" viewBox="0 0 54.168 100" enable-background="new 0 0 54.168 100" xml:space="preserve">
<path d="M53.515,68.591l0.004-0.001c-1.361-8.829-10.823-24.485-10.823-35.032c0-7.369-5.632-13.481-13.021-14.657v-0.208
	c0-4.644,3.778-8.421,8.422-8.421V5.089c-7.471,0-13.55,6.054-13.6,13.514c0.007-1.568-0.218-9.076-4.872-13.731
	C14.407-0.346,5.597,0.005,5.597,0.005s-0.352,8.811,4.867,14.029c5.218,5.218,14.029,4.867,14.029,4.867
	c-7.389,1.176-13.021,7.289-13.021,14.657c0,10.546-9.462,26.203-10.823,35.032l0.004,0.001C0.23,70.401,0,72.28,0,74.212
	C0,88.454,12.127,100,27.084,100s27.084-11.546,27.084-25.788C54.168,72.28,53.938,70.401,53.515,68.591z"/>
</svg>
