<?xml version="1.0" encoding="utf-8"?>
<!-- Generator: Adobe Illustrator 14.0.0, SVG Export Plug-In . SVG Version: 6.00 Build 43363)  -->
<!DOCTYPE svg PUBLIC "-//W3C//DTD SVG 1.0//EN" "http://www.w3.org/TR/2001/REC-SVG-20010904/DTD/svg10.dtd">
<svg version="1.0" id="Layer_1" xmlns="http://www.w3.org/2000/svg" xmlns:xlink="http://www.w3.org/1999/xlink" x="0px" y="0px"
	 width="100px" height="85.031px" viewBox="0 0 100 85.031" enable-background="new 0 0 100 85.031" xml:space="preserve">
<g>
	<g>
		<path d="M13.962,29.737c2.946,0,5.343,2.392,5.343,5.345c0,2.946-2.397,5.34-5.343,5.34c-2.946,0-5.339-2.394-5.339-5.34
			C8.623,32.129,11.016,29.737,13.962,29.737z"/>
	</g>
</g>
<path d="M49.372,0c3.879,0,7.032,3.149,7.032,7.032c0,3.883-3.152,7.022-7.032,7.022c-3.876,0-7.022-3.14-7.022-7.022
	C42.35,3.149,45.496,0,49.372,0z"/>
<g>
	<path d="M10.667,22.711l1.092,1.736c2.511-1.584,5.848-0.825,7.429,1.686l1.733-1.095C18.737,21.573,14.137,20.527,10.667,22.711z"
		/>
</g>
<g>
	<path d="M15.594,14.454l0.673,1.935c2.806-0.976,5.886,0.51,6.86,3.314l1.933-0.675C23.711,15.159,19.464,13.108,15.594,14.454z"/>
</g>
<g>
	<path d="M22.251,7.515l0.222,2.038c2.953-0.321,5.616,1.822,5.94,4.771l2.035-0.224C30.003,10.029,26.327,7.073,22.251,7.515z"/>
</g>
<g>
	<path d="M30.058,4.286c2.949,0.353,5.063,3.039,4.711,5.988l2.035,0.241c0.482-4.072-2.435-7.778-6.502-8.264L30.058,4.286z"/>
</g>
<g>
	<path d="M62.702,1.661c1.74,2.406,1.194,5.781-1.206,7.521l1.2,1.662c3.318-2.405,4.067-7.058,1.667-10.381L62.702,1.661z"/>
</g>
<g>
	<path d="M71.029,5.648c1.152,2.736-0.133,5.898-2.867,7.054l0.797,1.889c3.771-1.59,5.549-5.962,3.959-9.737L71.029,5.648z"/>
</g>
<g>
	<path d="M78.249,11.403c0.508,2.93-1.457,5.721-4.384,6.232l0.349,2.018c4.038-0.703,6.756-4.561,6.054-8.599L78.249,11.403z"/>
</g>
<g>
	<path d="M78.312,23.724l-0.111,2.044c4.092,0.222,7.604-2.922,7.832-7.018l-2.048-0.113C83.823,21.604,81.28,23.886,78.312,23.724z
		"/>
</g>
<path d="M83.766,41.091c-2.972,0-5.381-2.39-5.381-5.336c0-2.948,2.41-5.336,5.381-5.336c2.968,0,5.381,2.389,5.381,5.336
	C89.147,38.701,86.734,41.091,83.766,41.091z"/>
<path d="M89.445,50.212l2.013,0.003l4.118,14.379c0.317,1.104,1.549,1.71,2.752,1.365c1.206-0.344,1.968-1.398,1.562-2.778
	l-4.235-14.751c-1.692-5.898-6.628-5.714-6.628-5.714H78.506c0,0-4.934-0.184-6.629,5.714l-4.238,14.751
	c-0.403,1.379,0.359,2.434,1.565,2.778c1.203,0.345,2.435-0.262,2.749-1.365l4.121-14.379l2.01-0.003l-5.502,19.183H94.95
	L89.445,50.212z"/>
<path d="M13.851,48.17c1.927,0,3.06-0.705,3.102-6.032c-1.933,0-4.209,0-6.118,0C10.879,47.466,11.911,48.17,13.851,48.17z"/>
<path d="M21.124,50.602h1.953c0,0,0,13.418,0,14.918c0,1.292,1.044,2.343,2.33,2.343c1.292,0,2.311-1.051,2.311-2.343
	c0-1.289,0-14.623,0-16.546c0-3.775-3.095-6.835-6.87-6.835c-0.435,0-1.314,0-2.416,0c0,5.198-1.518,7.4-3.756,7.4v6.013
	c0.661,0.283,1.127,0.94,1.127,1.702c0,1.022-0.819,1.864-1.841,1.864c-1.025,0-1.841-0.813-1.841-1.838
	c0-0.767,0.46-1.419,1.121-1.702v-6.016c-2.35,0-3.797-2.402-3.797-7.422c-1.054,0-1.889,0-2.299,0C3.368,42.139,0,45.199,0,48.974
	c0,1.924,0,15.257,0,16.546c0,1.292,1.013,2.343,2.305,2.343c1.289,0,2.337-1.051,2.337-2.343c0-1.5,0-14.918,0-14.918h1.933v18.792
	h14.549V50.602z"/>
<path d="M60.099,25.627h-1.778v55.442c0,2.189-1.774,3.962-3.965,3.962c-2.19,0-3.965-1.773-3.965-3.962V46.732h-2.032v34.337
	c0,2.189-1.781,3.962-3.972,3.962s-3.962-1.773-3.962-3.962V25.627h-1.784l-0.003,20.444c0,1.671-1.355,3.025-3.025,3.025
	s-3.025-1.354-3.025-3.025V23.467c0-4.978,3.562-7.799,8.441-7.799h16.689c4.876,0,8.441,2.821,8.441,7.799v22.604
	c0,1.671-1.356,3.025-3.026,3.025c-1.669,0-3.025-1.354-3.025-3.025L60.099,25.627z"/>
</svg>
