<svg xmlns:dc="http://purl.org/dc/elements/1.1/" xmlns:cc="http://creativecommons.org/ns#" xmlns:rdf="http://www.w3.org/1999/02/22-rdf-syntax-ns#" xmlns:svg="http://www.w3.org/2000/svg" xmlns="http://www.w3.org/2000/svg" xmlns:sodipodi="http://sodipodi.sourceforge.net/DTD/sodipodi-0.dtd" xmlns:inkscape="http://www.inkscape.org/namespaces/inkscape" width="100" height="100" viewBox="0 0 80 80" version="1.1" id="svg2" inkscape:version="0.48.2 r9819" sodipodi:docname="blank.svg">
  <metadata id="metadata10">
    <rdf:RDF>
      <cc:Work rdf:about="">
        <dc:format>image/svg+xml</dc:format>
        <dc:type rdf:resource="http://purl.org/dc/dcmitype/StillImage"/>
        <dc:title/>
      </cc:Work>
    </rdf:RDF>
  </metadata>
  <defs id="defs8">
    <inkscape:path-effect is_visible="true" id="path-effect5043" effect="spiro"/>
    <inkscape:path-effect is_visible="true" id="path-effect5065" effect="spiro"/>
    <marker inkscape:stockid="TriangleOutM" orient="auto" refY="0" refX="0" id="TriangleOutM" style="overflow:visible">
      <path inkscape:connector-curvature="0" id="path4281" d="m 5.77,0 -8.65,5 0,-10 8.65,5 z" style="fill-rule:evenodd;stroke:#000000;stroke-width:1pt;marker-start:none" transform="scale(0.4,0.4)"/>
    </marker>
    <marker inkscape:stockid="TriangleOutM" orient="auto" refY="0" refX="0" id="marker4230" style="overflow:visible">
      <path inkscape:connector-curvature="0" id="path4232" d="m 5.77,0 -8.65,5 0,-10 8.65,5 z" style="fill-rule:evenodd;stroke:#000000;stroke-width:1pt;marker-start:none" transform="scale(0.4,0.4)"/>
    </marker>
    <marker inkscape:stockid="TriangleOutM" orient="auto" refY="0" refX="0" id="marker4234" style="overflow:visible">
      <path inkscape:connector-curvature="0" id="path4236" d="m 5.77,0 -8.65,5 0,-10 8.65,5 z" style="fill-rule:evenodd;stroke:#000000;stroke-width:1pt;marker-start:none" transform="scale(0.4,0.4)"/>
    </marker>
    <marker inkscape:stockid="TriangleOutM" orient="auto" refY="0" refX="0" id="marker4238" style="overflow:visible">
      <path inkscape:connector-curvature="0" id="path4240" d="m 5.77,0 -8.65,5 0,-10 8.65,5 z" style="fill-rule:evenodd;stroke:#000000;stroke-width:1pt;marker-start:none" transform="scale(0.4,0.4)"/>
    </marker>
  </defs>
  <sodipodi:namedview pagecolor="#ffffff" bordercolor="#666666" borderopacity="1" objecttolerance="10" gridtolerance="10" guidetolerance="10" inkscape:pageopacity="0" inkscape:pageshadow="2" inkscape:window-width="1600" inkscape:window-height="829" id="namedview6" showgrid="true" inkscape:zoom="4.7837957" inkscape:cx="95.555314" inkscape:cy="48.211327" inkscape:window-x="-4" inkscape:window-y="-4" inkscape:window-maximized="1" inkscape:current-layer="svg2" inkscape:snap-grids="false">
    <inkscape:grid type="xygrid" id="grid3807"/>
  </sodipodi:namedview>
  <path d="m 28.824028,14.212525 c -1.197896,0 -2.07047,0.94442 -2.07047,2.114059 l 0,34.609537 c 0,0.759897 0.61008,1.373048 1.373048,1.373048 l 4.010173,0 43.893958,0 c 0.76236,0 1.373048,-0.613151 1.373048,-1.373048 l 0,-31.209608 c 6.16e-4,-0.755596 -0.610696,-1.373048 -1.373048,-1.373048 l -27.395583,0 0,-2.026881 c 0,-1.170253 -0.893138,-2.114059 -2.092264,-2.114059 l -17.718862,0 z m 19.331649,9.829283 7.845991,0 0,7.824196 7.845989,0 0,7.845991 -7.845989,0 0,7.845991 -7.845991,0 0,-7.845991 -7.824196,0 0,-7.845991 7.824196,0 0,-7.824196 z" id="path3019" inkscape:connector-curvature="0" style="fill:#000000;stroke:none"/>
  <path inkscape:connector-curvature="0" style="fill:#000000;stroke:none;stroke-width:0.16000001000000000;stroke-miterlimit:4;stroke-dasharray:none" d="m 2.8499383,40.220914 0,0.075 0,18.425 0,0.075 0.075,0 11.3750007,0 0.075,0 0,-0.075 0,-18.425 0,-0.075 -0.075,0 -11.3750007,0 -0.075,0 z m 0.425,0.425 10.6750007,0 0,17.7 -10.6750007,0 0,-17.7 z m 3.3500005,1.875 -0.025,0.025 c -0.954648,0.57943 -1.5750003,1.7544 -1.5750003,3 0,1.27103 0.6501233,2.30995 1.6250003,3.025 l 0,0.025 0.025,0 3.8500002,0 0.025,0 0.05,-0.025 c 0.974883,-0.71486 1.6,-1.75396 1.6,-3.025 0,-1.24578 -0.595359,-2.42057 -1.55,-3 l -0.025,-0.025 -0.025,0 -3.9750002,0 z m 0.125,0.475 3.7000002,0 c 0.782718,0.59906 1.3,1.50434 1.3,2.5 0,1.03054 -0.496986,1.95619 -1.325,2.575 l -3.6250002,0 c -0.829055,-0.61906 -1.35,-1.5199 -1.35,-2.55 0,-1.00382 0.51038,-1.9743 1.3,-2.525 z m 0.35,1.1 0,1.675 0.4,0 0,-1.675 -0.4,0 z m 2.6,0.125 0,1.4 0.4000002,0 0,-1.4 -0.4000002,0 z m -1.075,2.525 c -0.349414,0 -0.65,0.14393 -0.65,0.425 l 0,0.65 1.275,0 0,-0.65 c 1.84e-4,-0.28107 -0.275771,-0.425 -0.625,-0.425 z m -2,3.65 -0.025,0.025 c -0.95463,0.57962 -1.5750003,1.7544 -1.5750003,3 0,1.27103 0.6501233,2.30995 1.6250003,3.025 l 0,0.05 0.025,0 3.8500002,0 0.025,0 0.05,-0.05 c 0.974883,-0.71486 1.6,-1.75396 1.6,-3.025 0,-1.24578 -0.595359,-2.42057 -1.55,-3 l -0.025,-0.025 -0.025,0 -3.9750002,0 z m 0.125,0.45 3.7000002,0 c 0.782713,0.59906 1.3,1.50452 1.3,2.5 0,1.03054 -0.497,1.98137 -1.325,2.6 l -3.6250002,0 c -0.82904,-0.61888 -1.35,-1.52009 -1.35,-2.55 0,-1.00401 0.51038,-1.9993 1.3,-2.55 z m 0.35,1.125 0,1.675 0.4,0 0,-1.675 -0.4,0 z m 2.6,0.125 0,1.4 0.4000002,0 0,-1.4 -0.4000002,0 z m -1.075,2.525 c -0.349414,0 -0.65,0.14393 -0.65,0.425 l 0,0.65 1.275,0 0,-0.65 c 1.84e-4,-0.28107 -0.275771,-0.425 -0.625,-0.425 z" id="path3928"/>
  <path style="fill:#000000;fill-opacity:1;fill-rule:nonzero;stroke:none" d="m 5.5671698,51.077844 6.1043972,0 c 0.581902,0 1.050366,0.51781 1.050366,1.16101 l 0,2.23637 c 0,0.6432 -0.468464,1.16102 -1.050366,1.16102 l -6.1043972,0 c -0.5819027,0 -1.0503658,-0.51782 -1.0503658,-1.16102 l 0,-2.23637 c 0,-0.6432 0.4684631,-1.16101 1.0503658,-1.16101 z" id="rect3074" inkscape:connector-curvature="0"/>
  <path style="font-size:medium;font-style:normal;font-variant:normal;font-weight:normal;font-stretch:normal;text-indent:0;text-align:start;text-decoration:none;line-height:normal;letter-spacing:normal;word-spacing:normal;text-transform:none;direction:ltr;block-progression:tb;writing-mode:lr-tb;text-anchor:start;baseline-shift:baseline;color:#000000;fill:#000000;fill-opacity:1;stroke:none;stroke-width:1px;marker:none;visibility:visible;display:inline;overflow:visible;enable-background:accumulate;font-family:Sans;-inkscape-font-specification:Sans" d="m 34.999939,50.670914 -0.8,0.05 c 0.197334,5.7227 -1.331462,9.49252 -3.675,11.8 -2.343538,2.30749 -5.536978,3.16981 -8.8,2.975 -3.263022,-0.19481 -6.581742,-1.47957 -9.05,-3.425 -2.468258,-1.94542 -4.0750002,-4.52611 -4.0750002,-7.375 l -0.8,0 c 0,3.15111 1.793258,5.97043 4.4000002,8.025 2.606742,2.05458 6.038022,3.36981 9.475,3.575 3.436978,0.20519 6.893538,-0.73248 9.425,-3.225 2.531462,-2.49251 4.102666,-6.52269 3.9,-12.4 z" id="path3076" inkscape:connector-curvature="0"/>
  <path style="font-size:medium;font-style:normal;font-variant:normal;font-weight:normal;font-stretch:normal;text-indent:0;text-align:start;text-decoration:none;line-height:normal;letter-spacing:normal;word-spacing:normal;text-transform:none;direction:ltr;block-progression:tb;writing-mode:lr-tb;text-anchor:start;baseline-shift:baseline;color:#000000;fill:#000000;fill-opacity:1;stroke:none;stroke-width:0.80000001px;marker:none;visibility:visible;display:inline;overflow:visible;enable-background:accumulate;font-family:Sans;-inkscape-font-specification:Sans" d="m 21.111237,19.296725 0.0625,0.4375 c 0,0 1.009006,7.025874 2.25,14.53125 0.620497,3.752688 1.290721,7.616793 1.9375,10.8125 0.646779,3.195707 1.214411,5.665927 1.75,6.78125 l 0.75,-0.34375 c -0.424831,-0.884677 -1.075293,-3.414457 -1.71875,-6.59375 -0.643457,-3.179293 -1.317892,-7.033938 -1.9375,-10.78125 -1.201896,-7.268915 -2.129776,-13.659482 -2.1875,-14.0625 l 11.5625,0 0,-0.78125 -12,0 -0.46875,0 z" id="path3078" inkscape:connector-curvature="0"/>
</svg>