<?xml version="1.0" encoding="utf-8"?>
<!-- Generator: Adobe Illustrator 16.0.0, SVG Export Plug-In . SVG Version: 6.00 Build 0)  -->
<!DOCTYPE svg PUBLIC "-//W3C//DTD SVG 1.1//EN" "http://www.w3.org/Graphics/SVG/1.1/DTD/svg11.dtd">
<svg version="1.1" id="Layer_1" xmlns="http://www.w3.org/2000/svg" xmlns:xlink="http://www.w3.org/1999/xlink" x="0px" y="0px"
	 width="154.359px" height="116.5px" viewBox="0 0 154.359 116.5" enable-background="new 0 0 154.359 116.5" xml:space="preserve">
<g display="none">
	<g display="inline">
		<ellipse fill="#4788C8" cx="111.629" cy="61.948" rx="15.506" ry="4.958"/>
		<path fill="#4788C8" d="M96.123,65.181v7.437c0,0,3.494,4.42,15.326,4.42c11.834,0,15.686-4.311,15.686-4.311v-7.978
			c0,0-3.805,3.989-15.686,3.989C99.57,68.738,96.123,65.181,96.123,65.181z"/>
		<path fill="#4788C8" d="M96.123,75.486v7.438c0,0,3.494,4.42,15.326,4.42c11.834,0,15.686-4.312,15.686-4.312v-7.976
			c0,0-3.805,3.988-15.686,3.988C99.57,79.044,96.123,75.486,96.123,75.486z"/>
		<path fill="#4788C8" d="M96.123,85.726v7.438c0,0,3.494,4.418,15.326,4.418c11.834,0,15.686-4.311,15.686-4.311v-7.976
			c0,0-3.805,3.987-15.686,3.987C99.57,89.283,96.123,85.726,96.123,85.726z"/>
	</g>
	<path display="inline" fill="#81D3F0" d="M139.479,86.861c0-0.688,0-2.586,0-3.578c0-1.228-0.973-8.844-10.307-8.844
		c-9.338,0-10.295,7.412-10.295,8.844c0,1.149,0,2.924,0,3.578h-1.65c0,0,0,17.788,0,18.301c0,0.512,0.424,0.817,1.242,0.817
		c0.816,0,20.65,0,21.52,0s1.123-0.204,1.123-0.817c0-0.611,0-18.301,0-18.301H139.479z M126.512,101.488l1.746-4.746
		c-1.01-0.372-1.73-1.339-1.73-2.479c0-1.46,1.184-2.644,2.645-2.644c1.459,0,2.641,1.184,2.641,2.644
		c0,1.14-0.721,2.106-1.73,2.479l1.746,4.746H126.512z M135.436,86.861H122.66c0-0.694,0-2.59,0-2.965
		c0-0.459,0.357-5.98,6.512-5.98c6.15,0,6.264,5.42,6.264,5.98C135.436,84.352,135.436,86.182,135.436,86.861z"/>
	<path display="inline" fill="#4788C8" d="M49.194,35.04l-33.061,0.159c-1.898,0.009-3.428,1.555-3.42,3.453l0.311,64.675
		c0.009,1.897,1.554,3.429,3.453,3.42l33.059-0.158c1.899-0.011,3.429-1.556,3.419-3.454l-0.31-64.675
		C52.636,36.562,51.09,35.031,49.194,35.04z M33.003,105.703c-1.741,0.009-3.159-1.395-3.166-3.135
		c-0.01-1.739,1.394-3.156,3.134-3.166c1.74-0.006,3.156,1.396,3.165,3.137C36.143,104.277,34.743,105.695,33.003,105.703z
		 M50.118,97.497l-34.309,0.165l-0.247-51.125l34.309-0.166L50.118,97.497z"/>
	<g display="inline">
		<text transform="matrix(1 0 0 1 17.3091 61.7246)" fill="#AAD485" font-family="'Arial-Black'" font-size="11.1959">1100</text>
		<text transform="matrix(1 0 0 1 17.3091 75.4658)" fill="#AAD485" font-family="'Arial-Black'" font-size="11.1959">1010</text>
		<text transform="matrix(1 0 0 1 17.8188 88.6963)" fill="#AAD485" font-family="'Arial-Black'" font-size="11.1959">0101</text>
	</g>
	<path display="inline" fill="#4788C8" d="M111.064,62.678l-21.83-0.586l4.742-5.598c0,0-16.213-16.941-46.968,3.709
		c16.393-36.903,53.828-13.236,53.828-13.236l3.633-5.405L111.064,62.678z"/>
	<g display="inline">
		<path fill="#FBAB2C" d="M53.077,74.442c5.662,0,10.255,5.204,10.255,11.623c0,6.418-4.593,11.621-10.255,11.621
			c-5.665,0-10.256-5.203-10.256-11.621C42.821,79.646,47.412,74.442,53.077,74.442z"/>
		<path fill="#4788C8" d="M42.821,82.646h0.063c3.746,0,7.03-1.289,8.878-3.228c1.9,1.731,4.996,2.858,8.497,2.858
			c0.945,0,1.859-0.083,2.728-0.237c-1.486-4.831-5.401-8.279-9.997-8.279C48.205,73.76,44.157,77.499,42.821,82.646z"/>
		<path fill="#FFFFFF" d="M56.324,85.04c-1.039,0-1.881,0.842-1.881,1.88s0.842,1.88,1.881,1.88c1.037,0,1.879-0.842,1.879-1.88
			S57.361,85.04,56.324,85.04z M49.829,85.04c-1.038,0-1.881,0.842-1.881,1.88s0.843,1.88,1.881,1.88s1.88-0.842,1.88-1.88
			S50.867,85.04,49.829,85.04z"/>
		<path fill="#4788C8" d="M49.829,86.065c-0.471,0-0.854,0.382-0.854,0.854c0,0.472,0.383,0.854,0.854,0.854
			c0.471,0,0.855-0.383,0.855-0.854C50.684,86.447,50.299,86.065,49.829,86.065z M56.324,86.065c-0.472,0-0.855,0.382-0.855,0.854
			c0,0.472,0.384,0.854,0.855,0.854c0.471,0,0.854-0.383,0.854-0.854C57.178,86.447,56.795,86.065,56.324,86.065z"/>
		<path fill="#FFFFFF" d="M53.115,93.599c-0.938,0-1.667-0.475-1.713-0.504c-0.233-0.157-0.299-0.477-0.143-0.711
			c0.157-0.234,0.473-0.301,0.709-0.145c0.048,0.031,1.133,0.721,2.117,0.012c0.23-0.164,0.551-0.112,0.717,0.116
			c0.165,0.229,0.113,0.55-0.116,0.715C54.149,93.47,53.603,93.599,53.115,93.599z"/>
		<path fill="#FBAB2C" d="M53.077,95.294c-6.988,0-12.649,5.129-12.649,11.453h25.297C65.725,100.423,60.061,95.294,53.077,95.294z"
			/>
	</g>
</g>
<g>
	<g>
		<ellipse fill="#4788C8" cx="111.684" cy="61.788" rx="15.531" ry="4.966"/>
		<path fill="#4788C8" d="M96.152,65.026v7.449c0,0,3.501,4.426,15.354,4.426c11.852,0,15.709-4.318,15.709-4.318v-7.989
			c0,0-3.812,3.995-15.709,3.995C99.606,68.589,96.152,65.026,96.152,65.026z"/>
		<path fill="#4788C8" d="M96.152,75.349v7.449c0,0,3.501,4.427,15.354,4.427c11.852,0,15.709-4.319,15.709-4.319v-7.988
			c0,0-3.812,3.995-15.709,3.995C99.606,78.912,96.152,75.349,96.152,75.349z"/>
		<path fill="#4788C8" d="M96.152,85.604v7.449c0,0,3.501,4.426,15.354,4.426c11.852,0,15.709-4.318,15.709-4.318v-7.988
			c0,0-3.812,3.994-15.709,3.994C99.606,89.167,96.152,85.604,96.152,85.604z"/>
	</g>
	<path fill="#81D3F0" d="M139.578,86.741c0-0.688,0-2.588,0-3.584c0-1.229-0.973-8.857-10.324-8.857s-10.311,7.424-10.311,8.857
		c0,1.151,0,2.928,0,3.584h-1.652c0,0,0,17.818,0,18.33c0,0.513,0.424,0.82,1.242,0.82c0.82,0,20.686,0,21.556,0
		c0.871,0,1.127-0.205,1.127-0.82c0-0.613,0-18.33,0-18.33H139.578z M126.592,101.394l1.748-4.756
		c-1.011-0.372-1.734-1.341-1.734-2.482c0-1.461,1.186-2.647,2.648-2.647c1.462,0,2.648,1.187,2.648,2.647
		c0,1.142-0.725,2.111-1.735,2.482l1.749,4.756H126.592z M135.529,86.741h-12.797c0-0.695,0-2.594,0-2.969
		c0-0.461,0.358-5.99,6.521-5.99c6.162,0,6.275,5.428,6.275,5.99C135.529,84.228,135.529,86.062,135.529,86.741z"/>
	<path fill="#4788C8" d="M49.148,34.837l-33.113,0.159c-1.9,0.009-3.434,1.557-3.425,3.458l0.312,64.78
		c0.009,1.901,1.558,3.434,3.458,3.425l33.112-0.159c1.9-0.009,3.434-1.558,3.425-3.458l-0.312-64.779
		C52.596,36.361,51.048,34.828,49.148,34.837z M32.931,105.614c-1.743,0.008-3.163-1.398-3.17-3.141
		c-0.009-1.742,1.397-3.162,3.139-3.17c1.743-0.008,3.162,1.397,3.17,3.141C36.079,104.186,34.672,105.605,32.931,105.614z
		 M50.073,97.395L15.709,97.56l-0.246-51.208l34.363-0.165L50.073,97.395z"/>
	<g>
		<text transform="matrix(1 0 0 1 17.2139 61.5664)" fill="#AAD485" font-family="'Arial-Black'" font-size="11.2139">1100</text>
		<text transform="matrix(1 0 0 1 17.2139 75.3281)" fill="#AAD485" font-family="'Arial-Black'" font-size="11.2139">1010</text>
		<text transform="matrix(1 0 0 1 17.7227 88.5811)" fill="#AAD485" font-family="'Arial-Black'" font-size="11.2139">0101</text>
	</g>
	<path opacity="0.5" fill="#4788C8" d="M111.119,62.52l-21.865-0.588l4.75-5.606c0,0-16.238-16.968-47.044,3.716
		c16.419-36.963,53.914-13.258,53.914-13.258l3.64-5.413L111.119,62.52z"/>
	<g>
		<path fill="#FBAB2C" d="M53.037,74.593c5.673,0,10.271,5.213,10.271,11.642s-4.599,11.642-10.271,11.642
			c-5.672,0-10.271-5.213-10.271-11.642S47.365,74.593,53.037,74.593z"/>
		<path fill="#4788C8" d="M42.765,82.81h0.064c3.752,0,7.041-1.291,8.892-3.232c1.902,1.732,5.004,2.862,8.511,2.862
			c0.946,0,1.861-0.083,2.732-0.237c-1.488-4.839-5.41-8.294-10.013-8.294C48.158,73.908,44.104,77.655,42.765,82.81z"/>
		<path fill="#FFFFFF" d="M56.29,85.207c-1.04,0-1.884,0.843-1.884,1.884c0,1.039,0.844,1.883,1.884,1.883s1.883-0.844,1.883-1.883
			C58.172,86.05,57.33,85.207,56.29,85.207z M49.785,85.207c-1.041,0-1.884,0.843-1.884,1.884c0,1.039,0.843,1.883,1.884,1.883
			c1.039,0,1.883-0.844,1.883-1.883C51.667,86.05,50.824,85.207,49.785,85.207z"/>
		<path fill="#4788C8" d="M49.785,86.234c-0.473,0-0.856,0.383-0.856,0.856c0,0.473,0.384,0.855,0.856,0.855
			c0.472,0,0.855-0.383,0.855-0.855C50.64,86.617,50.256,86.234,49.785,86.234z M56.29,86.234c-0.472,0-0.855,0.383-0.855,0.856
			c0,0.473,0.384,0.855,0.855,0.855c0.473,0,0.855-0.383,0.855-0.855C57.145,86.617,56.762,86.234,56.29,86.234z"/>
		<path fill="#FFFFFF" d="M53.076,93.778c-0.939,0-1.669-0.474-1.715-0.504c-0.235-0.157-0.3-0.477-0.144-0.713
			c0.157-0.234,0.475-0.299,0.71-0.144c0.048,0.03,1.135,0.722,2.121,0.012c0.23-0.165,0.552-0.112,0.718,0.117
			c0.165,0.229,0.113,0.551-0.117,0.717C54.112,93.65,53.565,93.778,53.076,93.778z"/>
		<path fill="#FBAB2C" d="M53.037,95.479c-6.997,0-12.669,5.136-12.669,11.471h25.337C65.705,100.614,60.034,95.479,53.037,95.479z"
			/>
	</g>
</g>
<g display="none">
	<g display="inline">
		<ellipse fill="#4788C8" cx="111.684" cy="61.788" rx="15.531" ry="4.966"/>
		<path fill="#4788C8" d="M96.152,65.026v7.449c0,0,3.501,4.426,15.354,4.426c11.852,0,15.709-4.318,15.709-4.318v-7.989
			c0,0-3.812,3.995-15.709,3.995C99.606,68.589,96.152,65.026,96.152,65.026z"/>
		<path fill="#4788C8" d="M96.152,75.349v7.449c0,0,3.501,4.427,15.354,4.427c11.852,0,15.709-4.319,15.709-4.319v-7.988
			c0,0-3.812,3.995-15.709,3.995C99.606,78.912,96.152,75.349,96.152,75.349z"/>
		<path fill="#4788C8" d="M96.152,85.604v7.449c0,0,3.501,4.426,15.354,4.426c11.852,0,15.709-4.318,15.709-4.318v-7.988
			c0,0-3.812,3.994-15.709,3.994C99.606,89.167,96.152,85.604,96.152,85.604z"/>
	</g>
	<path display="inline" fill="#81D3F0" d="M139.578,86.741c0-0.688,0-2.588,0-3.584c0-1.229-0.973-8.857-10.324-8.857
		s-10.311,7.424-10.311,8.857c0,1.151,0,2.928,0,3.584h-1.652c0,0,0,17.818,0,18.33c0,0.513,0.424,0.82,1.242,0.82
		c0.82,0,20.686,0,21.556,0c0.871,0,1.127-0.205,1.127-0.82c0-0.613,0-18.33,0-18.33H139.578z M126.592,101.394l1.748-4.756
		c-1.011-0.372-1.734-1.341-1.734-2.482c0-1.461,1.186-2.647,2.648-2.647c1.462,0,2.648,1.187,2.648,2.647
		c0,1.142-0.725,2.111-1.735,2.482l1.749,4.756H126.592z M135.529,86.741h-12.797c0-0.695,0-2.594,0-2.969
		c0-0.461,0.358-5.99,6.521-5.99c6.162,0,6.275,5.428,6.275,5.99C135.529,84.228,135.529,86.062,135.529,86.741z"/>
	<path display="inline" fill="#4788C8" d="M49.148,34.837l-33.113,0.159c-1.9,0.009-3.434,1.557-3.425,3.458l0.312,64.78
		c0.009,1.901,1.558,3.434,3.458,3.425l33.112-0.159c1.9-0.009,3.434-1.558,3.425-3.458l-0.312-64.779
		C52.596,36.361,51.048,34.828,49.148,34.837z M32.931,105.614c-1.743,0.008-3.163-1.398-3.17-3.141
		c-0.009-1.742,1.397-3.162,3.139-3.17c1.743-0.008,3.162,1.397,3.17,3.141C36.079,104.186,34.672,105.605,32.931,105.614z
		 M50.073,97.395L15.709,97.56l-0.246-51.208l34.363-0.165L50.073,97.395z"/>
	<g display="inline">
		<text transform="matrix(1 0 0 1 17.2139 61.5664)" fill="#AAD485" font-family="'Arial-Black'" font-size="11.2139">1100</text>
		<text transform="matrix(1 0 0 1 17.2139 75.3281)" fill="#AAD485" font-family="'Arial-Black'" font-size="11.2139">1010</text>
		<text transform="matrix(1 0 0 1 17.7227 88.5811)" fill="#AAD485" font-family="'Arial-Black'" font-size="11.2139">0101</text>
	</g>
	<g display="inline">
		<path fill="#FBAB2C" d="M53.037,74.593c5.673,0,10.271,5.213,10.271,11.642s-4.599,11.642-10.271,11.642
			c-5.672,0-10.271-5.213-10.271-11.642S47.365,74.593,53.037,74.593z"/>
		<path fill="#4788C8" d="M42.765,82.81h0.064c3.752,0,7.041-1.291,8.892-3.232c1.902,1.732,5.004,2.862,8.511,2.862
			c0.946,0,1.861-0.083,2.732-0.237c-1.488-4.839-5.41-8.294-10.013-8.294C48.158,73.908,44.104,77.655,42.765,82.81z"/>
		<path fill="#FFFFFF" d="M56.29,85.207c-1.04,0-1.884,0.843-1.884,1.884c0,1.039,0.844,1.883,1.884,1.883s1.883-0.844,1.883-1.883
			C58.172,86.05,57.33,85.207,56.29,85.207z M49.785,85.207c-1.041,0-1.884,0.843-1.884,1.884c0,1.039,0.843,1.883,1.884,1.883
			c1.039,0,1.883-0.844,1.883-1.883C51.667,86.05,50.824,85.207,49.785,85.207z"/>
		<path fill="#4788C8" d="M49.785,86.234c-0.473,0-0.856,0.383-0.856,0.856c0,0.473,0.384,0.855,0.856,0.855
			c0.472,0,0.855-0.383,0.855-0.855C50.64,86.617,50.256,86.234,49.785,86.234z M56.29,86.234c-0.472,0-0.855,0.383-0.855,0.856
			c0,0.473,0.384,0.855,0.855,0.855c0.473,0,0.855-0.383,0.855-0.855C57.145,86.617,56.762,86.234,56.29,86.234z"/>
		<path fill="#FFFFFF" d="M53.076,93.778c-0.939,0-1.669-0.474-1.715-0.504c-0.235-0.157-0.3-0.477-0.144-0.713
			c0.157-0.234,0.475-0.299,0.71-0.144c0.048,0.03,1.135,0.722,2.121,0.012c0.23-0.165,0.552-0.112,0.718,0.117
			c0.165,0.229,0.113,0.551-0.117,0.717C54.112,93.65,53.565,93.778,53.076,93.778z"/>
		<path fill="#FBAB2C" d="M53.037,95.479c-6.997,0-12.669,5.136-12.669,11.471h25.337C65.705,100.614,60.034,95.479,53.037,95.479z"
			/>
	</g>
</g>
<g display="none">
	<g display="inline">
		<g>
			<ellipse fill="#4788C8" cx="112.785" cy="54.256" rx="13.089" ry="4.186"/>
			<path fill="#4788C8" d="M99.695,56.985v6.278c0,0,2.95,3.729,12.939,3.729c9.988,0,13.239-3.639,13.239-3.639v-6.733
				c0,0-3.213,3.367-13.239,3.367C102.605,59.988,99.695,56.985,99.695,56.985z"/>
			<path fill="#4788C8" d="M99.695,65.685v6.278c0,0,2.95,3.73,12.939,3.73c9.988,0,13.239-3.64,13.239-3.64v-6.732
				c0,0-3.213,3.367-13.239,3.367C102.605,68.688,99.695,65.685,99.695,65.685z"/>
			<path fill="#4788C8" d="M99.695,74.328v6.278c0,0,2.95,3.729,12.939,3.729c9.988,0,13.239-3.639,13.239-3.639v-6.732
				c0,0-3.213,3.366-13.239,3.366C102.605,77.331,99.695,74.328,99.695,74.328z"/>
		</g>
		<path fill="#81D3F0" d="M136.293,75.286c0-0.579,0-2.181,0-3.021c0-1.035-0.819-7.465-8.701-7.465
			c-7.881,0-8.689,6.257-8.689,7.465c0,0.971,0,2.468,0,3.021h-1.393c0,0,0,15.017,0,15.448c0,0.433,0.357,0.691,1.047,0.691
			c0.691,0,17.434,0,18.167,0c0.734,0,0.95-0.173,0.95-0.691c0-0.517,0-15.448,0-15.448H136.293z M125.349,87.635l1.473-4.008
			c-0.852-0.313-1.461-1.13-1.461-2.093c0-1.23,0.999-2.23,2.231-2.23s2.232,1,2.232,2.23c0,0.963-0.61,1.78-1.463,2.093
			l1.475,4.008H125.349z M132.881,75.286h-10.785c0-0.586,0-2.186,0-2.502c0-0.389,0.303-5.049,5.496-5.049s5.289,4.575,5.289,5.049
			C132.881,73.168,132.881,74.714,132.881,75.286z"/>
	</g>
	<path display="inline" fill="#4788C8" d="M49.148,34.837l-33.113,0.159c-1.9,0.009-3.434,1.557-3.425,3.458l0.312,64.78
		c0.009,1.901,1.558,3.434,3.458,3.425l33.112-0.159c1.9-0.009,3.434-1.558,3.425-3.458l-0.312-64.779
		C52.596,36.361,51.048,34.828,49.148,34.837z M32.931,105.614c-1.743,0.008-3.163-1.398-3.17-3.141
		c-0.009-1.742,1.397-3.162,3.139-3.17c1.743-0.008,3.162,1.397,3.17,3.141C36.079,104.186,34.672,105.605,32.931,105.614z
		 M50.073,97.395L15.709,97.56l-0.246-51.208l34.363-0.165L50.073,97.395z"/>
	<g display="inline">
		<text transform="matrix(1 0 0 1 17.2139 61.5664)" fill="#AAD485" font-family="'Arial-Black'" font-size="11.2139">1100</text>
		<text transform="matrix(1 0 0 1 17.2139 75.3281)" fill="#AAD485" font-family="'Arial-Black'" font-size="11.2139">1010</text>
		<text transform="matrix(1 0 0 1 17.7227 88.5811)" fill="#AAD485" font-family="'Arial-Black'" font-size="11.2139">0101</text>
	</g>
	<g display="inline">
		<path fill="#FBAB2C" d="M60.684,71.662c6.187,0,11.202,5.685,11.202,12.696c0,7.011-5.015,12.695-11.202,12.695
			c-6.186,0-11.202-5.685-11.202-12.695C49.482,77.347,54.499,71.662,60.684,71.662z"/>
		<path fill="#4788C8" d="M49.482,80.623h0.07c4.092,0,7.679-1.408,9.697-3.525c2.075,1.89,5.457,3.122,9.282,3.122
			c1.032,0,2.03-0.091,2.98-0.259c-1.623-5.277-5.9-9.045-10.92-9.045C55.363,70.916,50.942,75.002,49.482,80.623z"/>
		<path fill="#FFFFFF" d="M64.231,83.237c-1.134,0-2.054,0.92-2.054,2.055c0,1.134,0.92,2.054,2.054,2.054
			c1.134,0,2.054-0.92,2.054-2.054C66.285,84.157,65.366,83.237,64.231,83.237z M57.138,83.237c-1.135,0-2.055,0.92-2.055,2.055
			c0,1.134,0.919,2.054,2.055,2.054c1.133,0,2.053-0.92,2.053-2.054C59.191,84.157,58.271,83.237,57.138,83.237z"/>
		<path fill="#4788C8" d="M57.138,84.358c-0.516,0-0.934,0.417-0.934,0.934c0,0.516,0.418,0.934,0.934,0.934
			c0.514,0,0.933-0.418,0.933-0.934C58.071,84.775,57.652,84.358,57.138,84.358z M64.231,84.358c-0.514,0-0.933,0.417-0.933,0.934
			c0,0.516,0.418,0.934,0.933,0.934c0.516,0,0.933-0.418,0.933-0.934C65.165,84.775,64.747,84.358,64.231,84.358z"/>
		<path fill="#FFFFFF" d="M60.727,92.585c-1.024,0-1.82-0.517-1.87-0.549c-0.256-0.172-0.327-0.521-0.156-0.777
			c0.171-0.256,0.518-0.326,0.774-0.157c0.052,0.033,1.238,0.787,2.313,0.013c0.251-0.18,0.602-0.122,0.783,0.128
			c0.18,0.25,0.124,0.601-0.128,0.782C61.856,92.446,61.26,92.585,60.727,92.585z"/>
		<path fill="#FBAB2C" d="M60.684,94.439c-7.631,0-13.816,5.601-13.816,12.51H74.5C74.5,100.04,68.315,94.439,60.684,94.439z"/>
	</g>
</g>
<g display="none">
	<g display="inline">
		<g>
			<ellipse fill="#4788C8" cx="107.851" cy="45.147" rx="10.944" ry="3.5"/>
			<path fill="#4788C8" d="M96.907,47.429v5.25c0,0,2.467,3.118,10.818,3.118s11.069-3.042,11.069-3.042v-5.63
				c0,0-2.686,2.815-11.069,2.815C99.34,49.94,96.907,47.429,96.907,47.429z"/>
			<path fill="#4788C8" d="M96.907,54.703v5.249c0,0,2.467,3.119,10.818,3.119s11.069-3.043,11.069-3.043v-5.629
				c0,0-2.686,2.816-11.069,2.816C99.34,57.215,96.907,54.703,96.907,54.703z"/>
			<path fill="#4788C8" d="M96.907,61.93v5.25c0,0,2.467,3.118,10.818,3.118s11.069-3.043,11.069-3.043v-5.629
				c0,0-2.686,2.814-11.069,2.814C99.34,64.44,96.907,61.93,96.907,61.93z"/>
		</g>
		<path fill="#81D3F0" d="M127.507,62.73c0-0.483,0-1.823,0-2.525c0-0.865-0.685-6.241-7.275-6.241
			c-6.589,0-7.266,5.231-7.266,6.241c0,0.812,0,2.063,0,2.525h-1.164c0,0,0,12.556,0,12.917s0.299,0.578,0.875,0.578
			c0.578,0,14.577,0,15.19,0c0.614,0,0.794-0.145,0.794-0.578c0-0.432,0-12.917,0-12.917H127.507z M118.356,73.056l1.231-3.351
			c-0.713-0.263-1.222-0.945-1.222-1.75c0-1.029,0.835-1.865,1.865-1.865s1.867,0.836,1.867,1.865c0,0.805-0.511,1.488-1.224,1.75
			l1.233,3.351H118.356z M124.654,62.73h-9.018c0-0.489,0-1.827,0-2.092c0-0.324,0.253-4.221,4.595-4.221
			c4.343,0,4.423,3.825,4.423,4.221C124.654,60.96,124.654,62.253,124.654,62.73z"/>
	</g>
	<path display="inline" fill="#4788C8" d="M49.148,34.837l-33.113,0.159c-1.9,0.009-3.434,1.557-3.425,3.458l0.312,64.78
		c0.009,1.901,1.558,3.434,3.458,3.425l33.112-0.159c1.9-0.009,3.434-1.558,3.425-3.458l-0.312-64.779
		C52.596,36.361,51.048,34.828,49.148,34.837z M32.931,105.614c-1.743,0.008-3.163-1.398-3.17-3.141
		c-0.009-1.742,1.397-3.162,3.139-3.17c1.743-0.008,3.162,1.397,3.17,3.141C36.079,104.186,34.672,105.605,32.931,105.614z
		 M50.073,97.395L15.709,97.56l-0.246-51.208l34.363-0.165L50.073,97.395z"/>
	<g display="inline">
		<text transform="matrix(1 0 0 1 17.2139 61.5664)" fill="#AAD485" font-family="'Arial-Black'" font-size="11.2139">1100</text>
		<text transform="matrix(1 0 0 1 17.2139 75.3281)" fill="#AAD485" font-family="'Arial-Black'" font-size="11.2139">1010</text>
		<text transform="matrix(1 0 0 1 17.7227 88.5811)" fill="#AAD485" font-family="'Arial-Black'" font-size="11.2139">0101</text>
	</g>
	<g display="inline">
		<path fill="#FBAB2C" d="M77.354,69.459c6.573,0,11.901,6.039,11.901,13.489c0,7.448-5.328,13.487-11.901,13.487
			c-6.571,0-11.901-6.039-11.901-13.487C65.454,75.498,70.783,69.459,77.354,69.459z"/>
		<path fill="#4788C8" d="M65.454,78.979h0.075c4.348,0,8.158-1.496,10.302-3.746c2.205,2.008,5.798,3.317,9.862,3.317
			c1.096,0,2.156-0.097,3.166-0.275c-1.725-5.606-6.27-9.609-11.602-9.609C71.702,68.666,67.005,73.007,65.454,78.979z"/>
		<path fill="#FFFFFF" d="M81.123,81.757c-1.203,0-2.182,0.978-2.182,2.183s0.979,2.183,2.182,2.183
			c1.206,0,2.184-0.978,2.184-2.183S82.329,81.757,81.123,81.757z M73.587,81.757c-1.206,0-2.183,0.978-2.183,2.183
			s0.977,2.183,2.183,2.183c1.204,0,2.182-0.978,2.182-2.183S74.791,81.757,73.587,81.757z"/>
		<path fill="#4788C8" d="M73.587,82.948c-0.548,0-0.992,0.442-0.992,0.991c0,0.548,0.444,0.992,0.992,0.992
			c0.546,0,0.992-0.444,0.992-0.992C74.579,83.391,74.133,82.948,73.587,82.948z M81.123,82.948c-0.546,0-0.989,0.442-0.989,0.991
			c0,0.548,0.443,0.992,0.989,0.992c0.548,0,0.992-0.444,0.992-0.992C82.115,83.391,81.671,82.948,81.123,82.948z"/>
		<path fill="#FFFFFF" d="M77.4,91.688c-1.089,0-1.934-0.549-1.987-0.584c-0.272-0.183-0.347-0.553-0.166-0.825
			c0.182-0.272,0.55-0.347,0.822-0.167c0.056,0.035,1.315,0.836,2.458,0.013c0.267-0.19,0.639-0.129,0.832,0.137
			c0.191,0.266,0.131,0.638-0.137,0.831C78.6,91.541,77.967,91.688,77.4,91.688z"/>
		<path fill="#FBAB2C" d="M77.354,93.658c-8.107,0-14.679,5.95-14.679,13.291h29.357C92.033,99.608,85.462,93.658,77.354,93.658z"/>
	</g>
</g>
<g display="none">
	<g display="inline">
		<g>
			<ellipse fill="#4788C8" cx="100.835" cy="34.056" rx="8.802" ry="2.815"/>
			<path fill="#4788C8" d="M92.033,35.892v4.222c0,0,1.984,2.508,8.701,2.508c6.718,0,8.903-2.446,8.903-2.446v-4.528
				c0,0-2.16,2.264-8.903,2.264C93.99,37.911,92.033,35.892,92.033,35.892z"/>
			<path fill="#4788C8" d="M92.033,41.742v4.222c0,0,1.984,2.509,8.701,2.509c6.718,0,8.903-2.447,8.903-2.447v-4.528
				c0,0-2.16,2.265-8.903,2.265C93.99,43.762,92.033,41.742,92.033,41.742z"/>
			<path fill="#4788C8" d="M92.033,47.555v4.222c0,0,1.984,2.508,8.701,2.508c6.718,0,8.903-2.448,8.903-2.448V47.31
				c0,0-2.16,2.264-8.903,2.264C93.99,49.574,92.033,47.555,92.033,47.555z"/>
		</g>
		<path fill="#81D3F0" d="M116.645,48.199c0-0.389,0-1.467,0-2.031c0-0.696-0.551-5.02-5.852-5.02c-5.3,0-5.844,4.208-5.844,5.02
			c0,0.652,0,1.66,0,2.031h-0.937c0,0,0,10.098,0,10.389c0,0.29,0.24,0.465,0.704,0.465c0.465,0,11.725,0,12.218,0
			c0.494,0,0.639-0.116,0.639-0.465c0-0.348,0-10.389,0-10.389H116.645z M109.285,56.503l0.99-2.695
			c-0.573-0.211-0.982-0.76-0.982-1.407c0-0.828,0.672-1.5,1.5-1.5c0.829,0,1.502,0.672,1.502,1.5c0,0.647-0.411,1.197-0.984,1.407
			l0.992,2.695H109.285z M114.351,48.199h-7.253c0-0.394,0-1.47,0-1.683c0-0.261,0.203-3.395,3.695-3.395
			c3.493,0,3.558,3.077,3.558,3.395C114.351,46.774,114.351,47.814,114.351,48.199z"/>
	</g>
	<path display="inline" fill="#4788C8" d="M49.148,34.837l-33.113,0.159c-1.9,0.009-3.434,1.557-3.425,3.458l0.312,64.78
		c0.009,1.901,1.558,3.434,3.458,3.425l33.112-0.159c1.9-0.009,3.434-1.558,3.425-3.458l-0.312-64.779
		C52.596,36.361,51.048,34.828,49.148,34.837z M32.931,105.614c-1.743,0.008-3.163-1.398-3.17-3.141
		c-0.009-1.742,1.397-3.162,3.139-3.17c1.743-0.008,3.162,1.397,3.17,3.141C36.079,104.186,34.672,105.605,32.931,105.614z
		 M50.073,97.395L15.709,97.56l-0.246-51.208l34.363-0.165L50.073,97.395z"/>
	<g display="inline">
		<text transform="matrix(1 0 0 1 17.2139 61.5664)" fill="#AAD485" font-family="'Arial-Black'" font-size="11.2139">1100</text>
		<text transform="matrix(1 0 0 1 17.2139 75.3281)" fill="#AAD485" font-family="'Arial-Black'" font-size="11.2139">1010</text>
		<text transform="matrix(1 0 0 1 17.7227 88.5811)" fill="#AAD485" font-family="'Arial-Black'" font-size="11.2139">0101</text>
	</g>
	<g display="inline">
		<path fill="#FBAB2C" d="M99.399,64.051c7.521,0,13.619,6.91,13.619,15.435c0,8.523-6.098,15.434-13.619,15.434
			c-7.519,0-13.618-6.91-13.618-15.434C85.781,70.961,91.881,64.051,99.399,64.051z"/>
		<path fill="#4788C8" d="M85.781,74.944h0.086c4.976,0,9.336-1.712,11.788-4.286c2.523,2.297,6.636,3.796,11.285,3.796
			c1.254,0,2.468-0.11,3.623-0.315c-1.974-6.415-7.174-10.996-13.275-10.996C92.931,63.143,87.558,68.11,85.781,74.944z"/>
		<path fill="#FFFFFF" d="M103.712,78.122c-1.377,0-2.496,1.119-2.496,2.498s1.119,2.497,2.496,2.497
			c1.38,0,2.499-1.118,2.499-2.497S105.092,78.122,103.712,78.122z M95.089,78.122c-1.38,0-2.498,1.119-2.498,2.498
			s1.118,2.497,2.498,2.497c1.378,0,2.496-1.118,2.496-2.497S96.467,78.122,95.089,78.122z"/>
		<path fill="#4788C8" d="M95.089,79.485c-0.627,0-1.136,0.507-1.136,1.135c0,0.627,0.509,1.135,1.136,1.135
			c0.624,0,1.134-0.508,1.134-1.135C96.223,79.992,95.713,79.485,95.089,79.485z M103.712,79.485c-0.625,0-1.132,0.507-1.132,1.135
			c0,0.627,0.507,1.135,1.132,1.135c0.627,0,1.136-0.508,1.136-1.135C104.848,79.992,104.339,79.485,103.712,79.485z"/>
		<path fill="#FFFFFF" d="M99.452,89.487c-1.246,0-2.212-0.628-2.273-0.669c-0.312-0.209-0.397-0.632-0.19-0.944
			c0.209-0.312,0.629-0.396,0.941-0.19c0.063,0.04,1.505,0.956,2.812,0.015c0.305-0.218,0.73-0.147,0.952,0.156
			c0.219,0.304,0.149,0.729-0.157,0.951C100.824,89.318,100.101,89.487,99.452,89.487z"/>
		<path fill="#FBAB2C" d="M99.399,91.741c-9.275,0-16.796,6.809-16.796,15.208h33.593C116.196,98.55,108.677,91.741,99.399,91.741z"
			/>
	</g>
</g>
<g display="none">
	<g display="inline">
		<g>
			<ellipse fill="#4788C8" cx="88.623" cy="22.613" rx="8.802" ry="2.815"/>
			<path fill="#4788C8" d="M79.82,24.448v4.222c0,0,1.984,2.508,8.701,2.508c6.718,0,8.903-2.446,8.903-2.446v-4.528
				c0,0-2.16,2.264-8.903,2.264C81.777,26.468,79.82,24.448,79.82,24.448z"/>
			<path fill="#4788C8" d="M79.82,30.299v4.222c0,0,1.984,2.509,8.701,2.509c6.718,0,8.903-2.447,8.903-2.447v-4.528
				c0,0-2.16,2.265-8.903,2.265C81.777,32.319,79.82,30.299,79.82,30.299z"/>
			<path fill="#4788C8" d="M79.82,36.111v4.222c0,0,1.984,2.508,8.701,2.508c6.718,0,8.903-2.448,8.903-2.448v-4.527
				c0,0-2.16,2.264-8.903,2.264C81.777,38.13,79.82,36.111,79.82,36.111z"/>
		</g>
		<path fill="#81D3F0" d="M104.432,36.755c0-0.389,0-1.467,0-2.031c0-0.696-0.551-5.02-5.852-5.02c-5.3,0-5.844,4.208-5.844,5.02
			c0,0.652,0,1.66,0,2.031H91.8c0,0,0,10.098,0,10.389c0,0.29,0.24,0.465,0.704,0.465c0.465,0,11.725,0,12.218,0
			c0.494,0,0.639-0.116,0.639-0.465c0-0.348,0-10.389,0-10.389H104.432z M97.072,45.06l0.99-2.695
			c-0.573-0.211-0.982-0.76-0.982-1.407c0-0.828,0.672-1.5,1.5-1.5c0.829,0,1.502,0.672,1.502,1.5c0,0.647-0.411,1.197-0.984,1.407
			l0.992,2.695H97.072z M102.138,36.755h-7.253c0-0.394,0-1.47,0-1.683c0-0.261,0.203-3.395,3.695-3.395
			c3.493,0,3.558,3.077,3.558,3.395C102.138,35.331,102.138,36.371,102.138,36.755z"/>
	</g>
	<path display="inline" fill="#4788C8" d="M49.148,34.837l-33.113,0.159c-1.9,0.009-3.434,1.557-3.425,3.458l0.312,64.78
		c0.009,1.901,1.558,3.434,3.458,3.425l33.112-0.159c1.9-0.009,3.434-1.558,3.425-3.458l-0.312-64.779
		C52.596,36.361,51.048,34.828,49.148,34.837z M32.931,105.614c-1.743,0.008-3.163-1.398-3.17-3.141
		c-0.009-1.742,1.397-3.162,3.139-3.17c1.743-0.008,3.162,1.397,3.17,3.141C36.079,104.186,34.672,105.605,32.931,105.614z
		 M50.073,97.395L15.709,97.56l-0.246-51.208l34.363-0.165L50.073,97.395z"/>
	<g display="inline">
		<text transform="matrix(1 0 0 1 17.2139 61.5664)" fill="#AAD485" font-family="'Arial-Black'" font-size="11.2139">1100</text>
		<text transform="matrix(1 0 0 1 17.2139 75.3281)" fill="#AAD485" font-family="'Arial-Black'" font-size="11.2139">1010</text>
		<text transform="matrix(1 0 0 1 17.7227 88.5811)" fill="#AAD485" font-family="'Arial-Black'" font-size="11.2139">0101</text>
	</g>
	<g display="inline">
		<path fill="#FBAB2C" d="M113.458,59.154c8.38,0,15.174,7.699,15.174,17.196c0,9.496-6.794,17.195-15.174,17.195
			c-8.377,0-15.173-7.699-15.173-17.195C98.285,66.854,105.081,59.154,113.458,59.154z"/>
		<path fill="#4788C8" d="M98.285,71.291h0.096c5.544,0,10.402-1.907,13.134-4.775c2.812,2.56,7.394,4.229,12.573,4.229
			c1.397,0,2.75-0.123,4.037-0.352c-2.199-7.147-7.993-12.25-14.791-12.25C106.251,58.143,100.265,63.677,98.285,71.291z"/>
		<path fill="#FFFFFF" d="M118.263,74.832c-1.534,0-2.781,1.247-2.781,2.783s1.247,2.782,2.781,2.782
			c1.537,0,2.784-1.246,2.784-2.782S119.8,74.832,118.263,74.832z M108.655,74.832c-1.537,0-2.783,1.247-2.783,2.783
			s1.246,2.782,2.783,2.782c1.535,0,2.781-1.246,2.781-2.782S110.19,74.832,108.655,74.832z"/>
		<path fill="#4788C8" d="M108.655,76.351c-0.698,0-1.265,0.564-1.265,1.265c0,0.698,0.566,1.264,1.265,1.264
			c0.695,0,1.264-0.565,1.264-1.264C109.919,76.915,109.351,76.351,108.655,76.351z M118.263,76.351
			c-0.696,0-1.261,0.564-1.261,1.265c0,0.698,0.564,1.264,1.261,1.264c0.698,0,1.266-0.565,1.266-1.264
			C119.528,76.915,118.961,76.351,118.263,76.351z"/>
		<path fill="#FFFFFF" d="M113.517,87.494c-1.388,0-2.464-0.699-2.532-0.745c-0.349-0.233-0.443-0.704-0.213-1.052
			c0.233-0.348,0.701-0.442,1.049-0.213c0.071,0.045,1.677,1.065,3.134,0.017c0.34-0.242,0.813-0.164,1.061,0.174
			c0.244,0.339,0.167,0.813-0.175,1.06C115.046,87.306,114.239,87.494,113.517,87.494z"/>
		<path fill="#FBAB2C" d="M113.458,90.006c-10.334,0-18.713,7.585-18.713,16.943h37.427
			C132.172,97.591,123.794,90.006,113.458,90.006z"/>
	</g>
</g>
<g display="none">
	<g display="inline">
		<g>
			<ellipse fill="#4788C8" cx="74.013" cy="8.708" rx="8.802" ry="2.815"/>
			<path fill="#4788C8" d="M65.211,10.543v4.222c0,0,1.984,2.508,8.701,2.508c6.718,0,8.903-2.446,8.903-2.446v-4.528
				c0,0-2.16,2.264-8.903,2.264C67.168,12.562,65.211,10.543,65.211,10.543z"/>
			<path fill="#4788C8" d="M65.211,16.394v4.222c0,0,1.984,2.509,8.701,2.509c6.718,0,8.903-2.447,8.903-2.447v-4.528
				c0,0-2.16,2.265-8.903,2.265C67.168,18.414,65.211,16.394,65.211,16.394z"/>
			<path fill="#4788C8" d="M65.211,22.206v4.222c0,0,1.984,2.508,8.701,2.508c6.718,0,8.903-2.448,8.903-2.448v-4.527
				c0,0-2.16,2.264-8.903,2.264C67.168,24.225,65.211,22.206,65.211,22.206z"/>
		</g>
		<path fill="#81D3F0" d="M89.822,22.85c0-0.389,0-1.467,0-2.031c0-0.696-0.551-5.02-5.852-5.02c-5.3,0-5.844,4.208-5.844,5.02
			c0,0.652,0,1.66,0,2.031H77.19c0,0,0,10.098,0,10.389c0,0.29,0.24,0.465,0.704,0.465c0.465,0,11.725,0,12.218,0
			c0.494,0,0.639-0.116,0.639-0.465c0-0.348,0-10.389,0-10.389H89.822z M82.463,31.154l0.99-2.695
			c-0.573-0.211-0.982-0.76-0.982-1.407c0-0.828,0.672-1.5,1.5-1.5c0.829,0,1.502,0.672,1.502,1.5c0,0.647-0.411,1.197-0.984,1.407
			l0.992,2.695H82.463z M87.528,22.85h-7.253c0-0.394,0-1.47,0-1.683c0-0.261,0.203-3.395,3.695-3.395
			c3.493,0,3.558,3.077,3.558,3.395C87.528,21.426,87.528,22.466,87.528,22.85z"/>
	</g>
	<path display="inline" fill="#4788C8" d="M49.148,34.837l-33.113,0.159c-1.9,0.009-3.434,1.557-3.425,3.458l0.312,64.78
		c0.009,1.901,1.558,3.434,3.458,3.425l33.112-0.159c1.9-0.009,3.434-1.558,3.425-3.458l-0.312-64.779
		C52.596,36.361,51.048,34.828,49.148,34.837z M32.931,105.614c-1.743,0.008-3.163-1.398-3.17-3.141
		c-0.009-1.742,1.397-3.162,3.139-3.17c1.743-0.008,3.162,1.397,3.17,3.141C36.079,104.186,34.672,105.605,32.931,105.614z
		 M50.073,97.395L15.709,97.56l-0.246-51.208l34.363-0.165L50.073,97.395z"/>
	<g display="inline">
		<text transform="matrix(1 0 0 1 17.2139 61.5664)" fill="#AAD485" font-family="'Arial-Black'" font-size="11.2139">1100</text>
		<text transform="matrix(1 0 0 1 17.2139 75.3281)" fill="#AAD485" font-family="'Arial-Black'" font-size="11.2139">1010</text>
		<text transform="matrix(1 0 0 1 17.7227 88.5811)" fill="#AAD485" font-family="'Arial-Black'" font-size="11.2139">0101</text>
	</g>
	<g display="inline">
		<path fill="#FBAB2C" d="M123.043,52.697c9.512,0,17.224,8.74,17.224,19.52c0,10.778-7.712,19.519-17.224,19.519
			c-9.509,0-17.223-8.74-17.223-19.519C105.82,61.437,113.534,52.697,123.043,52.697z"/>
		<path fill="#4788C8" d="M105.82,66.473h0.108c6.293,0,11.808-2.165,14.908-5.42c3.191,2.905,8.393,4.801,14.272,4.801
			c1.586,0,3.121-0.14,4.582-0.399c-2.496-8.113-9.073-13.906-16.789-13.906C114.862,51.549,108.067,57.831,105.82,66.473z"/>
		<path fill="#FFFFFF" d="M128.497,70.493c-1.742,0-3.157,1.415-3.157,3.159c0,1.743,1.415,3.158,3.157,3.158
			c1.744,0,3.16-1.415,3.16-3.158C131.657,71.908,130.241,70.493,128.497,70.493z M117.591,70.493c-1.744,0-3.159,1.415-3.159,3.159
			c0,1.743,1.415,3.158,3.159,3.158c1.743,0,3.157-1.415,3.157-3.158C120.748,71.908,119.334,70.493,117.591,70.493z"/>
		<path fill="#4788C8" d="M117.591,72.217c-0.792,0-1.435,0.641-1.435,1.436c0,0.792,0.643,1.434,1.435,1.434
			c0.79,0,1.435-0.642,1.435-1.434C119.025,72.857,118.381,72.217,117.591,72.217z M128.497,72.217
			c-0.791,0-1.432,0.641-1.432,1.436c0,0.792,0.641,1.434,1.432,1.434c0.792,0,1.437-0.642,1.437-1.434
			C129.934,72.857,129.289,72.217,128.497,72.217z"/>
		<path fill="#FFFFFF" d="M123.109,84.865c-1.575,0-2.797-0.793-2.874-0.846c-0.396-0.265-0.504-0.799-0.242-1.193
			c0.266-0.395,0.796-0.502,1.19-0.242c0.081,0.052,1.903,1.21,3.558,0.02c0.386-0.275,0.923-0.187,1.204,0.197
			c0.276,0.385,0.189,0.923-0.199,1.202C124.846,84.651,123.93,84.865,123.109,84.865z"/>
		<path fill="#FBAB2C" d="M123.043,87.717c-11.73,0-21.241,8.609-21.241,19.232h42.483
			C144.285,96.326,134.775,87.717,123.043,87.717z"/>
	</g>
</g>
<g display="none">
	<g display="inline">
		<g>
			<ellipse fill="#4788C8" cx="74.013" cy="8.708" rx="8.802" ry="2.815"/>
			<path fill="#4788C8" d="M65.211,10.543v4.222c0,0,1.984,2.508,8.701,2.508c6.718,0,8.903-2.446,8.903-2.446v-4.528
				c0,0-2.16,2.264-8.903,2.264C67.168,12.562,65.211,10.543,65.211,10.543z"/>
			<path fill="#4788C8" d="M65.211,16.394v4.222c0,0,1.984,2.509,8.701,2.509c6.718,0,8.903-2.447,8.903-2.447v-4.528
				c0,0-2.16,2.265-8.903,2.265C67.168,18.414,65.211,16.394,65.211,16.394z"/>
			<path fill="#4788C8" d="M65.211,22.206v4.222c0,0,1.984,2.508,8.701,2.508c6.718,0,8.903-2.448,8.903-2.448v-4.527
				c0,0-2.16,2.264-8.903,2.264C67.168,24.225,65.211,22.206,65.211,22.206z"/>
		</g>
		<path fill="#81D3F0" d="M89.822,22.85c0-0.389,0-1.467,0-2.031c0-0.696-0.551-5.02-5.852-5.02c-5.3,0-5.844,4.208-5.844,5.02
			c0,0.652,0,1.66,0,2.031H77.19c0,0,0,10.098,0,10.389c0,0.29,0.24,0.465,0.704,0.465c0.465,0,11.725,0,12.218,0
			c0.494,0,0.639-0.116,0.639-0.465c0-0.348,0-10.389,0-10.389H89.822z M82.463,31.154l0.99-2.695
			c-0.573-0.211-0.982-0.76-0.982-1.407c0-0.828,0.672-1.5,1.5-1.5c0.829,0,1.502,0.672,1.502,1.5c0,0.647-0.411,1.197-0.984,1.407
			l0.992,2.695H82.463z M87.528,22.85h-7.253c0-0.394,0-1.47,0-1.683c0-0.261,0.203-3.395,3.695-3.395
			c3.493,0,3.558,3.077,3.558,3.395C87.528,21.426,87.528,22.466,87.528,22.85z"/>
	</g>
	<path display="inline" fill="#4788C8" d="M49.148,34.837l-33.113,0.159c-1.9,0.009-3.434,1.557-3.425,3.458l0.312,64.78
		c0.009,1.901,1.558,3.434,3.458,3.425l33.112-0.159c1.9-0.009,3.434-1.558,3.425-3.458l-0.312-64.779
		C52.596,36.361,51.048,34.828,49.148,34.837z M32.931,105.614c-1.743,0.008-3.163-1.398-3.17-3.141
		c-0.009-1.742,1.397-3.162,3.139-3.17c1.743-0.008,3.162,1.397,3.17,3.141C36.079,104.186,34.672,105.605,32.931,105.614z
		 M50.073,97.395L15.709,97.56l-0.246-51.208l34.363-0.165L50.073,97.395z"/>
	<g display="inline">
		<text transform="matrix(1 0 0 1 17.2139 61.5664)" fill="#AAD485" font-family="'Arial-Black'" font-size="11.2139">1100</text>
		<text transform="matrix(1 0 0 1 17.2139 75.3281)" fill="#AAD485" font-family="'Arial-Black'" font-size="11.2139">1010</text>
		<text transform="matrix(1 0 0 1 17.7227 88.5811)" fill="#AAD485" font-family="'Arial-Black'" font-size="11.2139">0101</text>
	</g>
	<g display="inline">
		<path fill="#FBAB2C" d="M123.043,52.697c9.512,0,17.224,8.74,17.224,19.52c0,10.778-7.712,19.519-17.224,19.519
			c-9.509,0-17.223-8.74-17.223-19.519C105.82,61.437,113.534,52.697,123.043,52.697z"/>
		<path fill="#4788C8" d="M105.82,66.473h0.108c6.293,0,11.808-2.165,14.908-5.42c3.191,2.905,8.393,4.801,14.272,4.801
			c1.586,0,3.121-0.14,4.582-0.399c-2.496-8.113-9.073-13.906-16.789-13.906C114.862,51.549,108.067,57.831,105.82,66.473z"/>
		<path fill="#FFFFFF" d="M128.497,70.493c-1.742,0-3.157,1.415-3.157,3.159c0,1.743,1.415,3.158,3.157,3.158
			c1.744,0,3.16-1.415,3.16-3.158C131.657,71.908,130.241,70.493,128.497,70.493z M117.591,70.493c-1.744,0-3.159,1.415-3.159,3.159
			c0,1.743,1.415,3.158,3.159,3.158c1.743,0,3.157-1.415,3.157-3.158C120.748,71.908,119.334,70.493,117.591,70.493z"/>
		<path fill="#4788C8" d="M117.591,72.217c-0.792,0-1.435,0.641-1.435,1.436c0,0.792,0.643,1.434,1.435,1.434
			c0.79,0,1.435-0.642,1.435-1.434C119.025,72.857,118.381,72.217,117.591,72.217z M128.497,72.217
			c-0.791,0-1.432,0.641-1.432,1.436c0,0.792,0.641,1.434,1.432,1.434c0.792,0,1.437-0.642,1.437-1.434
			C129.934,72.857,129.289,72.217,128.497,72.217z"/>
		<path fill="#FFFFFF" d="M123.109,84.865c-1.575,0-2.797-0.793-2.874-0.846c-0.396-0.265-0.504-0.799-0.242-1.193
			c0.266-0.395,0.796-0.502,1.19-0.242c0.081,0.052,1.903,1.21,3.558,0.02c0.386-0.275,0.923-0.187,1.204,0.197
			c0.276,0.385,0.189,0.923-0.199,1.202C124.846,84.651,123.93,84.865,123.109,84.865z"/>
		<path fill="#FBAB2C" d="M123.043,87.717c-11.73,0-21.241,8.609-21.241,19.232h42.483
			C144.285,96.326,134.775,87.717,123.043,87.717z"/>
	</g>
	
		<line display="inline" fill="none" stroke="#95C0C9" stroke-width="6" stroke-miterlimit="10" x1="77.887" y1="38.457" x2="77.887" y2="75.086"/>
</g>
<g display="none">
	<g display="inline">
		<g>
			<ellipse fill="#4788C8" cx="74.013" cy="8.708" rx="8.802" ry="2.815"/>
			<path fill="#4788C8" d="M65.211,10.543v4.222c0,0,1.984,2.508,8.701,2.508c6.718,0,8.903-2.446,8.903-2.446v-4.528
				c0,0-2.16,2.264-8.903,2.264C67.168,12.562,65.211,10.543,65.211,10.543z"/>
			<path fill="#4788C8" d="M65.211,16.394v4.222c0,0,1.984,2.509,8.701,2.509c6.718,0,8.903-2.447,8.903-2.447v-4.528
				c0,0-2.16,2.265-8.903,2.265C67.168,18.414,65.211,16.394,65.211,16.394z"/>
			<path fill="#4788C8" d="M65.211,22.206v4.222c0,0,1.984,2.508,8.701,2.508c6.718,0,8.903-2.448,8.903-2.448v-4.527
				c0,0-2.16,2.264-8.903,2.264C67.168,24.225,65.211,22.206,65.211,22.206z"/>
		</g>
		<path fill="#81D3F0" d="M89.822,22.85c0-0.389,0-1.467,0-2.031c0-0.696-0.551-5.02-5.852-5.02c-5.3,0-5.844,4.208-5.844,5.02
			c0,0.652,0,1.66,0,2.031H77.19c0,0,0,10.098,0,10.389c0,0.29,0.24,0.465,0.704,0.465c0.465,0,11.725,0,12.218,0
			c0.494,0,0.639-0.116,0.639-0.465c0-0.348,0-10.389,0-10.389H89.822z M82.463,31.154l0.99-2.695
			c-0.573-0.211-0.982-0.76-0.982-1.407c0-0.828,0.672-1.5,1.5-1.5c0.829,0,1.502,0.672,1.502,1.5c0,0.647-0.411,1.197-0.984,1.407
			l0.992,2.695H82.463z M87.528,22.85h-7.253c0-0.394,0-1.47,0-1.683c0-0.261,0.203-3.395,3.695-3.395
			c3.493,0,3.558,3.077,3.558,3.395C87.528,21.426,87.528,22.466,87.528,22.85z"/>
	</g>
	<path display="inline" fill="#4788C8" d="M49.148,34.837l-33.113,0.159c-1.9,0.009-3.434,1.557-3.425,3.458l0.312,64.78
		c0.009,1.901,1.558,3.434,3.458,3.425l33.112-0.159c1.9-0.009,3.434-1.558,3.425-3.458l-0.312-64.779
		C52.596,36.361,51.048,34.828,49.148,34.837z M32.931,105.614c-1.743,0.008-3.163-1.398-3.17-3.141
		c-0.009-1.742,1.397-3.162,3.139-3.17c1.743-0.008,3.162,1.397,3.17,3.141C36.079,104.186,34.672,105.605,32.931,105.614z
		 M50.073,97.395L15.709,97.56l-0.246-51.208l34.363-0.165L50.073,97.395z"/>
	<g display="inline">
		<text transform="matrix(1 0 0 1 17.2139 61.5664)" fill="#AAD485" font-family="'Arial-Black'" font-size="11.2139">1100</text>
		<text transform="matrix(1 0 0 1 17.2139 75.3281)" fill="#AAD485" font-family="'Arial-Black'" font-size="11.2139">1010</text>
		<text transform="matrix(1 0 0 1 17.7227 88.5811)" fill="#AAD485" font-family="'Arial-Black'" font-size="11.2139">0101</text>
	</g>
	<g display="inline">
		<path fill="#FBAB2C" d="M123.043,52.697c9.512,0,17.224,8.74,17.224,19.52c0,10.778-7.712,19.519-17.224,19.519
			c-9.509,0-17.223-8.74-17.223-19.519C105.82,61.437,113.534,52.697,123.043,52.697z"/>
		<path fill="#4788C8" d="M105.82,66.473h0.108c6.293,0,11.808-2.165,14.908-5.42c3.191,2.905,8.393,4.801,14.272,4.801
			c1.586,0,3.121-0.14,4.582-0.399c-2.496-8.113-9.073-13.906-16.789-13.906C114.862,51.549,108.067,57.831,105.82,66.473z"/>
		<path fill="#FFFFFF" d="M128.497,70.493c-1.742,0-3.157,1.415-3.157,3.159c0,1.743,1.415,3.158,3.157,3.158
			c1.744,0,3.16-1.415,3.16-3.158C131.657,71.908,130.241,70.493,128.497,70.493z M117.591,70.493c-1.744,0-3.159,1.415-3.159,3.159
			c0,1.743,1.415,3.158,3.159,3.158c1.743,0,3.157-1.415,3.157-3.158C120.748,71.908,119.334,70.493,117.591,70.493z"/>
		<path fill="#4788C8" d="M117.591,72.217c-0.792,0-1.435,0.641-1.435,1.436c0,0.792,0.643,1.434,1.435,1.434
			c0.79,0,1.435-0.642,1.435-1.434C119.025,72.857,118.381,72.217,117.591,72.217z M128.497,72.217
			c-0.791,0-1.432,0.641-1.432,1.436c0,0.792,0.641,1.434,1.432,1.434c0.792,0,1.437-0.642,1.437-1.434
			C129.934,72.857,129.289,72.217,128.497,72.217z"/>
		<path fill="#FFFFFF" d="M123.109,84.865c-1.575,0-2.797-0.793-2.874-0.846c-0.396-0.265-0.504-0.799-0.242-1.193
			c0.266-0.395,0.796-0.502,1.19-0.242c0.081,0.052,1.903,1.21,3.558,0.02c0.386-0.275,0.923-0.187,1.204,0.197
			c0.276,0.385,0.189,0.923-0.199,1.202C124.846,84.651,123.93,84.865,123.109,84.865z"/>
		<path fill="#FBAB2C" d="M123.043,87.717c-11.73,0-21.241,8.609-21.241,19.232h42.483
			C144.285,96.326,134.775,87.717,123.043,87.717z"/>
	</g>
	
		<line display="inline" fill="none" stroke="#95C0C9" stroke-width="6" stroke-miterlimit="10" x1="77.887" y1="38.457" x2="77.887" y2="106.847"/>
</g>
<g display="none">
	<g display="inline">
		<g>
			<ellipse fill="#4788C8" cx="74.013" cy="8.708" rx="8.802" ry="2.815"/>
			<path fill="#4788C8" d="M65.211,10.543v4.222c0,0,1.984,2.508,8.701,2.508c6.718,0,8.903-2.446,8.903-2.446v-4.528
				c0,0-2.16,2.264-8.903,2.264C67.168,12.562,65.211,10.543,65.211,10.543z"/>
			<path fill="#4788C8" d="M65.211,16.394v4.222c0,0,1.984,2.509,8.701,2.509c6.718,0,8.903-2.447,8.903-2.447v-4.528
				c0,0-2.16,2.265-8.903,2.265C67.168,18.414,65.211,16.394,65.211,16.394z"/>
			<path fill="#4788C8" d="M65.211,22.206v4.222c0,0,1.984,2.508,8.701,2.508c6.718,0,8.903-2.448,8.903-2.448v-4.527
				c0,0-2.16,2.264-8.903,2.264C67.168,24.225,65.211,22.206,65.211,22.206z"/>
		</g>
		<path fill="#81D3F0" d="M89.822,22.85c0-0.389,0-1.467,0-2.031c0-0.696-0.551-5.02-5.852-5.02c-5.3,0-5.844,4.208-5.844,5.02
			c0,0.652,0,1.66,0,2.031H77.19c0,0,0,10.098,0,10.389c0,0.29,0.24,0.465,0.704,0.465c0.465,0,11.725,0,12.218,0
			c0.494,0,0.639-0.116,0.639-0.465c0-0.348,0-10.389,0-10.389H89.822z M82.463,31.154l0.99-2.695
			c-0.573-0.211-0.982-0.76-0.982-1.407c0-0.828,0.672-1.5,1.5-1.5c0.829,0,1.502,0.672,1.502,1.5c0,0.647-0.411,1.197-0.984,1.407
			l0.992,2.695H82.463z M87.528,22.85h-7.253c0-0.394,0-1.47,0-1.683c0-0.261,0.203-3.395,3.695-3.395
			c3.493,0,3.558,3.077,3.558,3.395C87.528,21.426,87.528,22.466,87.528,22.85z"/>
	</g>
	<path display="inline" fill="#4788C8" d="M49.148,34.837l-33.113,0.159c-1.9,0.009-3.434,1.557-3.425,3.458l0.312,64.78
		c0.009,1.901,1.558,3.434,3.458,3.425l33.112-0.159c1.9-0.009,3.434-1.558,3.425-3.458l-0.312-64.779
		C52.596,36.361,51.048,34.828,49.148,34.837z M32.931,105.614c-1.743,0.008-3.163-1.398-3.17-3.141
		c-0.009-1.742,1.397-3.162,3.139-3.17c1.743-0.008,3.162,1.397,3.17,3.141C36.079,104.186,34.672,105.605,32.931,105.614z
		 M50.073,97.395L15.709,97.56l-0.246-51.208l34.363-0.165L50.073,97.395z"/>
	<g display="inline">
		<text transform="matrix(1 0 0 1 17.2139 61.5664)" fill="#AAD485" font-family="'Arial-Black'" font-size="11.2139">1100</text>
		<text transform="matrix(1 0 0 1 17.2139 75.3281)" fill="#AAD485" font-family="'Arial-Black'" font-size="11.2139">1010</text>
		<text transform="matrix(1 0 0 1 17.7227 88.5811)" fill="#AAD485" font-family="'Arial-Black'" font-size="11.2139">0101</text>
	</g>
	<g display="inline">
		<path fill="#FBAB2C" d="M123.043,52.697c9.512,0,17.224,8.74,17.224,19.52c0,10.778-7.712,19.519-17.224,19.519
			c-9.509,0-17.223-8.74-17.223-19.519C105.82,61.437,113.534,52.697,123.043,52.697z"/>
		<path fill="#4788C8" d="M105.82,66.473h0.108c6.293,0,11.808-2.165,14.908-5.42c3.191,2.905,8.393,4.801,14.272,4.801
			c1.586,0,3.121-0.14,4.582-0.399c-2.496-8.113-9.073-13.906-16.789-13.906C114.862,51.549,108.067,57.831,105.82,66.473z"/>
		<path fill="#FFFFFF" d="M128.497,70.493c-1.742,0-3.157,1.415-3.157,3.159c0,1.743,1.415,3.158,3.157,3.158
			c1.744,0,3.16-1.415,3.16-3.158C131.657,71.908,130.241,70.493,128.497,70.493z M117.591,70.493c-1.744,0-3.159,1.415-3.159,3.159
			c0,1.743,1.415,3.158,3.159,3.158c1.743,0,3.157-1.415,3.157-3.158C120.748,71.908,119.334,70.493,117.591,70.493z"/>
		<path fill="#4788C8" d="M117.591,72.217c-0.792,0-1.435,0.641-1.435,1.436c0,0.792,0.643,1.434,1.435,1.434
			c0.79,0,1.435-0.642,1.435-1.434C119.025,72.857,118.381,72.217,117.591,72.217z M128.497,72.217
			c-0.791,0-1.432,0.641-1.432,1.436c0,0.792,0.641,1.434,1.432,1.434c0.792,0,1.437-0.642,1.437-1.434
			C129.934,72.857,129.289,72.217,128.497,72.217z"/>
		<path fill="#FFFFFF" d="M123.109,84.865c-1.575,0-2.797-0.793-2.874-0.846c-0.396-0.265-0.504-0.799-0.242-1.193
			c0.266-0.395,0.796-0.502,1.19-0.242c0.081,0.052,1.903,1.21,3.558,0.02c0.386-0.275,0.923-0.187,1.204,0.197
			c0.276,0.385,0.189,0.923-0.199,1.202C124.846,84.651,123.93,84.865,123.109,84.865z"/>
		<path fill="#FBAB2C" d="M123.043,87.717c-11.73,0-21.241,8.609-21.241,19.232h42.483
			C144.285,96.326,134.775,87.717,123.043,87.717z"/>
	</g>
	
		<line display="inline" fill="none" stroke="#95C0C9" stroke-width="6" stroke-miterlimit="10" x1="89.387" y1="38.457" x2="89.387" y2="106.847"/>
	
		<line display="inline" fill="none" stroke="#95C0C9" stroke-width="6" stroke-miterlimit="10" x1="66.887" y1="38.457" x2="66.887" y2="106.847"/>
</g>
<g display="none">
	<g display="inline">
		<g>
			<ellipse fill="#4788C8" cx="74.013" cy="8.708" rx="8.802" ry="2.815"/>
			<path fill="#4788C8" d="M65.211,10.543v4.222c0,0,1.984,2.508,8.701,2.508c6.718,0,8.903-2.446,8.903-2.446v-4.528
				c0,0-2.16,2.264-8.903,2.264C67.168,12.562,65.211,10.543,65.211,10.543z"/>
			<path fill="#4788C8" d="M65.211,16.394v4.222c0,0,1.984,2.509,8.701,2.509c6.718,0,8.903-2.447,8.903-2.447v-4.528
				c0,0-2.16,2.265-8.903,2.265C67.168,18.414,65.211,16.394,65.211,16.394z"/>
			<path fill="#4788C8" d="M65.211,22.206v4.222c0,0,1.984,2.508,8.701,2.508c6.718,0,8.903-2.448,8.903-2.448v-4.527
				c0,0-2.16,2.264-8.903,2.264C67.168,24.225,65.211,22.206,65.211,22.206z"/>
		</g>
		<path fill="#81D3F0" d="M89.822,22.85c0-0.389,0-1.467,0-2.031c0-0.696-0.551-5.02-5.852-5.02c-5.3,0-5.844,4.208-5.844,5.02
			c0,0.652,0,1.66,0,2.031H77.19c0,0,0,10.098,0,10.389c0,0.29,0.24,0.465,0.704,0.465c0.465,0,11.725,0,12.218,0
			c0.494,0,0.639-0.116,0.639-0.465c0-0.348,0-10.389,0-10.389H89.822z M82.463,31.154l0.99-2.695
			c-0.573-0.211-0.982-0.76-0.982-1.407c0-0.828,0.672-1.5,1.5-1.5c0.829,0,1.502,0.672,1.502,1.5c0,0.647-0.411,1.197-0.984,1.407
			l0.992,2.695H82.463z M87.528,22.85h-7.253c0-0.394,0-1.47,0-1.683c0-0.261,0.203-3.395,3.695-3.395
			c3.493,0,3.558,3.077,3.558,3.395C87.528,21.426,87.528,22.466,87.528,22.85z"/>
	</g>
	<path display="inline" fill="#4788C8" d="M49.148,34.837l-33.113,0.159c-1.9,0.009-3.434,1.557-3.425,3.458l0.312,64.78
		c0.009,1.901,1.558,3.434,3.458,3.425l33.112-0.159c1.9-0.009,3.434-1.558,3.425-3.458l-0.312-64.779
		C52.596,36.361,51.048,34.828,49.148,34.837z M32.931,105.614c-1.743,0.008-3.163-1.398-3.17-3.141
		c-0.009-1.742,1.397-3.162,3.139-3.17c1.743-0.008,3.162,1.397,3.17,3.141C36.079,104.186,34.672,105.605,32.931,105.614z
		 M50.073,97.395L15.709,97.56l-0.246-51.208l34.363-0.165L50.073,97.395z"/>
	<g display="inline">
		<text transform="matrix(1 0 0 1 17.2139 61.5664)" fill="#AAD485" font-family="'Arial-Black'" font-size="11.2139">1100</text>
		<text transform="matrix(1 0 0 1 17.2139 75.3281)" fill="#AAD485" font-family="'Arial-Black'" font-size="11.2139">1010</text>
		<text transform="matrix(1 0 0 1 17.7227 88.5811)" fill="#AAD485" font-family="'Arial-Black'" font-size="11.2139">0101</text>
	</g>
	<g display="inline">
		<path fill="#FBAB2C" d="M123.043,52.697c9.512,0,17.224,8.74,17.224,19.52c0,10.778-7.712,19.519-17.224,19.519
			c-9.509,0-17.223-8.74-17.223-19.519C105.82,61.437,113.534,52.697,123.043,52.697z"/>
		<path fill="#4788C8" d="M105.82,66.473h0.108c6.293,0,11.808-2.165,14.908-5.42c3.191,2.905,8.393,4.801,14.272,4.801
			c1.586,0,3.121-0.14,4.582-0.399c-2.496-8.113-9.073-13.906-16.789-13.906C114.862,51.549,108.067,57.831,105.82,66.473z"/>
		<path fill="#FFFFFF" d="M128.497,70.493c-1.742,0-3.157,1.415-3.157,3.159c0,1.743,1.415,3.158,3.157,3.158
			c1.744,0,3.16-1.415,3.16-3.158C131.657,71.908,130.241,70.493,128.497,70.493z M117.591,70.493c-1.744,0-3.159,1.415-3.159,3.159
			c0,1.743,1.415,3.158,3.159,3.158c1.743,0,3.157-1.415,3.157-3.158C120.748,71.908,119.334,70.493,117.591,70.493z"/>
		<path fill="#4788C8" d="M117.591,72.217c-0.792,0-1.435,0.641-1.435,1.436c0,0.792,0.643,1.434,1.435,1.434
			c0.79,0,1.435-0.642,1.435-1.434C119.025,72.857,118.381,72.217,117.591,72.217z M128.497,72.217
			c-0.791,0-1.432,0.641-1.432,1.436c0,0.792,0.641,1.434,1.432,1.434c0.792,0,1.437-0.642,1.437-1.434
			C129.934,72.857,129.289,72.217,128.497,72.217z"/>
		<path fill="#FFFFFF" d="M123.109,84.865c-1.575,0-2.797-0.793-2.874-0.846c-0.396-0.265-0.504-0.799-0.242-1.193
			c0.266-0.395,0.796-0.502,1.19-0.242c0.081,0.052,1.903,1.21,3.558,0.02c0.386-0.275,0.923-0.187,1.204,0.197
			c0.276,0.385,0.189,0.923-0.199,1.202C124.846,84.651,123.93,84.865,123.109,84.865z"/>
		<path fill="#FBAB2C" d="M123.043,87.717c-11.73,0-21.241,8.609-21.241,19.232h42.483
			C144.285,96.326,134.775,87.717,123.043,87.717z"/>
	</g>
	
		<line display="inline" fill="none" stroke="#95C0C9" stroke-width="6" stroke-miterlimit="10" x1="97.637" y1="38.457" x2="97.637" y2="106.847"/>
	
		<line display="inline" fill="none" stroke="#95C0C9" stroke-width="6" stroke-miterlimit="10" x1="58.137" y1="38.457" x2="58.137" y2="106.847"/>
</g>
<g display="none">
	<g display="inline">
		<g>
			<ellipse fill="#4788C8" cx="74.013" cy="35.076" rx="8.802" ry="2.815"/>
			<path fill="#4788C8" d="M65.211,36.912v4.222c0,0,1.984,2.508,8.701,2.508c6.718,0,8.903-2.446,8.903-2.446v-4.528
				c0,0-2.16,2.264-8.903,2.264C67.168,38.931,65.211,36.912,65.211,36.912z"/>
			<path fill="#4788C8" d="M65.211,42.762v4.222c0,0,1.984,2.509,8.701,2.509c6.718,0,8.903-2.447,8.903-2.447v-4.528
				c0,0-2.16,2.265-8.903,2.265C67.168,44.782,65.211,42.762,65.211,42.762z"/>
			<path fill="#4788C8" d="M65.211,48.575v4.222c0,0,1.984,2.508,8.701,2.508c6.718,0,8.903-2.448,8.903-2.448V48.33
				c0,0-2.16,2.264-8.903,2.264C67.168,50.594,65.211,48.575,65.211,48.575z"/>
		</g>
		<path fill="#81D3F0" d="M89.822,49.219c0-0.389,0-1.467,0-2.031c0-0.696-0.551-5.02-5.852-5.02c-5.3,0-5.844,4.208-5.844,5.02
			c0,0.652,0,1.66,0,2.031H77.19c0,0,0,10.098,0,10.389c0,0.29,0.24,0.465,0.704,0.465c0.465,0,11.725,0,12.218,0
			c0.494,0,0.639-0.116,0.639-0.465c0-0.348,0-10.389,0-10.389H89.822z M82.463,57.523l0.99-2.695
			c-0.573-0.211-0.982-0.76-0.982-1.407c0-0.828,0.672-1.5,1.5-1.5c0.829,0,1.502,0.672,1.502,1.5c0,0.647-0.411,1.197-0.984,1.407
			l0.992,2.695H82.463z M87.528,49.219h-7.253c0-0.394,0-1.47,0-1.683c0-0.261,0.203-3.395,3.695-3.395
			c3.493,0,3.558,3.077,3.558,3.395C87.528,47.794,87.528,48.834,87.528,49.219z"/>
	</g>
	<path display="inline" fill="#4788C8" d="M49.148,34.837l-33.113,0.159c-1.9,0.009-3.434,1.557-3.425,3.458l0.312,64.78
		c0.009,1.901,1.558,3.434,3.458,3.425l33.112-0.159c1.9-0.009,3.434-1.558,3.425-3.458l-0.312-64.779
		C52.596,36.361,51.048,34.828,49.148,34.837z M32.931,105.614c-1.743,0.008-3.163-1.398-3.17-3.141
		c-0.009-1.742,1.397-3.162,3.139-3.17c1.743-0.008,3.162,1.397,3.17,3.141C36.079,104.186,34.672,105.605,32.931,105.614z
		 M50.073,97.395L15.709,97.56l-0.246-51.208l34.363-0.165L50.073,97.395z"/>
	<g display="inline">
		<text transform="matrix(1 0 0 1 17.2139 61.5664)" fill="#AAD485" font-family="'Arial-Black'" font-size="11.2139">1100</text>
		<text transform="matrix(1 0 0 1 17.2139 75.3281)" fill="#AAD485" font-family="'Arial-Black'" font-size="11.2139">1010</text>
		<text transform="matrix(1 0 0 1 17.7227 88.5811)" fill="#AAD485" font-family="'Arial-Black'" font-size="11.2139">0101</text>
	</g>
	<g display="inline">
		<path fill="#FBAB2C" d="M123.043,52.697c9.512,0,17.224,8.74,17.224,19.52c0,10.778-7.712,19.519-17.224,19.519
			c-9.509,0-17.223-8.74-17.223-19.519C105.82,61.437,113.534,52.697,123.043,52.697z"/>
		<path fill="#4788C8" d="M105.82,66.473h0.108c6.293,0,11.808-2.165,14.908-5.42c3.191,2.905,8.393,4.801,14.272,4.801
			c1.586,0,3.121-0.14,4.582-0.399c-2.496-8.113-9.073-13.906-16.789-13.906C114.862,51.549,108.067,57.831,105.82,66.473z"/>
		<path fill="#FFFFFF" d="M128.497,70.493c-1.742,0-3.157,1.415-3.157,3.159c0,1.743,1.415,3.158,3.157,3.158
			c1.744,0,3.16-1.415,3.16-3.158C131.657,71.908,130.241,70.493,128.497,70.493z M117.591,70.493c-1.744,0-3.159,1.415-3.159,3.159
			c0,1.743,1.415,3.158,3.159,3.158c1.743,0,3.157-1.415,3.157-3.158C120.748,71.908,119.334,70.493,117.591,70.493z"/>
		<path fill="#4788C8" d="M117.591,72.217c-0.792,0-1.435,0.641-1.435,1.436c0,0.792,0.643,1.434,1.435,1.434
			c0.79,0,1.435-0.642,1.435-1.434C119.025,72.857,118.381,72.217,117.591,72.217z M128.497,72.217
			c-0.791,0-1.432,0.641-1.432,1.436c0,0.792,0.641,1.434,1.432,1.434c0.792,0,1.437-0.642,1.437-1.434
			C129.934,72.857,129.289,72.217,128.497,72.217z"/>
		<path fill="#FFFFFF" d="M123.109,84.865c-1.575,0-2.797-0.793-2.874-0.846c-0.396-0.265-0.504-0.799-0.242-1.193
			c0.266-0.395,0.796-0.502,1.19-0.242c0.081,0.052,1.903,1.21,3.558,0.02c0.386-0.275,0.923-0.187,1.204,0.197
			c0.276,0.385,0.189,0.923-0.199,1.202C124.846,84.651,123.93,84.865,123.109,84.865z"/>
		<path fill="#FBAB2C" d="M123.043,87.717c-11.73,0-21.241,8.609-21.241,19.232h42.483
			C144.285,96.326,134.775,87.717,123.043,87.717z"/>
	</g>
	
		<line display="inline" fill="none" stroke="#95C0C9" stroke-width="6" stroke-miterlimit="10" x1="97.637" y1="38.457" x2="97.637" y2="106.847"/>
	
		<line display="inline" fill="none" stroke="#95C0C9" stroke-width="6" stroke-miterlimit="10" x1="58.137" y1="38.457" x2="58.137" y2="106.847"/>
</g>
<g display="none">
	<g display="inline">
		<g>
			<ellipse fill="#4788C8" cx="74.013" cy="62.402" rx="8.802" ry="2.815"/>
			<path fill="#4788C8" d="M65.211,64.237v4.222c0,0,1.984,2.508,8.701,2.508c6.718,0,8.903-2.445,8.903-2.445v-4.529
				c0,0-2.16,2.264-8.903,2.264C67.168,66.257,65.211,64.237,65.211,64.237z"/>
			<path fill="#4788C8" d="M65.211,70.088v4.222c0,0,1.984,2.509,8.701,2.509c6.718,0,8.903-2.447,8.903-2.447v-4.527
				c0,0-2.16,2.264-8.903,2.264C67.168,72.107,65.211,70.088,65.211,70.088z"/>
			<path fill="#4788C8" d="M65.211,75.9v4.223c0,0,1.984,2.508,8.701,2.508c6.718,0,8.903-2.447,8.903-2.447v-4.527
				c0,0-2.16,2.264-8.903,2.264C67.168,77.92,65.211,75.9,65.211,75.9z"/>
		</g>
		<path fill="#81D3F0" d="M89.822,76.545c0-0.39,0-1.467,0-2.031c0-0.697-0.551-5.021-5.852-5.021c-5.3,0-5.844,4.208-5.844,5.021
			c0,0.652,0,1.659,0,2.031H77.19c0,0,0,10.098,0,10.389c0,0.29,0.24,0.465,0.704,0.465c0.465,0,11.725,0,12.218,0
			c0.494,0,0.639-0.116,0.639-0.465c0-0.348,0-10.389,0-10.389H89.822z M82.463,84.849l0.99-2.694
			c-0.573-0.211-0.982-0.761-0.982-1.408c0-0.828,0.672-1.5,1.5-1.5c0.829,0,1.502,0.672,1.502,1.5c0,0.647-0.411,1.197-0.984,1.408
			l0.992,2.694H82.463z M87.528,76.545h-7.253c0-0.395,0-1.471,0-1.684c0-0.26,0.203-3.395,3.695-3.395
			c3.493,0,3.558,3.076,3.558,3.395C87.528,75.12,87.528,76.16,87.528,76.545z"/>
	</g>
	<path display="inline" fill="#4788C8" d="M49.148,34.837l-33.113,0.159c-1.9,0.009-3.434,1.557-3.425,3.458l0.312,64.78
		c0.009,1.901,1.558,3.434,3.458,3.425l33.112-0.159c1.9-0.009,3.434-1.558,3.425-3.458l-0.312-64.779
		C52.596,36.361,51.048,34.828,49.148,34.837z M32.931,105.614c-1.743,0.008-3.163-1.398-3.17-3.141
		c-0.009-1.742,1.397-3.162,3.139-3.17c1.743-0.008,3.162,1.397,3.17,3.141C36.079,104.186,34.672,105.605,32.931,105.614z
		 M50.073,97.395L15.709,97.56l-0.246-51.208l34.363-0.165L50.073,97.395z"/>
	<g display="inline">
		<text transform="matrix(1 0 0 1 17.2139 61.5664)" fill="#AAD485" font-family="'Arial-Black'" font-size="11.2139">1100</text>
		<text transform="matrix(1 0 0 1 17.2139 75.3281)" fill="#AAD485" font-family="'Arial-Black'" font-size="11.2139">1010</text>
		<text transform="matrix(1 0 0 1 17.7227 88.5811)" fill="#AAD485" font-family="'Arial-Black'" font-size="11.2139">0101</text>
	</g>
	<g display="inline">
		<path fill="#FBAB2C" d="M123.043,52.697c9.512,0,17.224,8.74,17.224,19.52c0,10.778-7.712,19.519-17.224,19.519
			c-9.509,0-17.223-8.74-17.223-19.519C105.82,61.437,113.534,52.697,123.043,52.697z"/>
		<path fill="#4788C8" d="M105.82,66.473h0.108c6.293,0,11.808-2.165,14.908-5.42c3.191,2.905,8.393,4.801,14.272,4.801
			c1.586,0,3.121-0.14,4.582-0.399c-2.496-8.113-9.073-13.906-16.789-13.906C114.862,51.549,108.067,57.831,105.82,66.473z"/>
		<path fill="#FFFFFF" d="M128.497,70.493c-1.742,0-3.157,1.415-3.157,3.159c0,1.743,1.415,3.158,3.157,3.158
			c1.744,0,3.16-1.415,3.16-3.158C131.657,71.908,130.241,70.493,128.497,70.493z M117.591,70.493c-1.744,0-3.159,1.415-3.159,3.159
			c0,1.743,1.415,3.158,3.159,3.158c1.743,0,3.157-1.415,3.157-3.158C120.748,71.908,119.334,70.493,117.591,70.493z"/>
		<path fill="#4788C8" d="M117.591,72.217c-0.792,0-1.435,0.641-1.435,1.436c0,0.792,0.643,1.434,1.435,1.434
			c0.79,0,1.435-0.642,1.435-1.434C119.025,72.857,118.381,72.217,117.591,72.217z M128.497,72.217
			c-0.791,0-1.432,0.641-1.432,1.436c0,0.792,0.641,1.434,1.432,1.434c0.792,0,1.437-0.642,1.437-1.434
			C129.934,72.857,129.289,72.217,128.497,72.217z"/>
		<path fill="#FFFFFF" d="M123.109,84.865c-1.575,0-2.797-0.793-2.874-0.846c-0.396-0.265-0.504-0.799-0.242-1.193
			c0.266-0.395,0.796-0.502,1.19-0.242c0.081,0.052,1.903,1.21,3.558,0.02c0.386-0.275,0.923-0.187,1.204,0.197
			c0.276,0.385,0.189,0.923-0.199,1.202C124.846,84.651,123.93,84.865,123.109,84.865z"/>
		<path fill="#FBAB2C" d="M123.043,87.717c-11.73,0-21.241,8.609-21.241,19.232h42.483
			C144.285,96.326,134.775,87.717,123.043,87.717z"/>
	</g>
	
		<line display="inline" fill="none" stroke="#95C0C9" stroke-width="6" stroke-miterlimit="10" x1="97.637" y1="38.457" x2="97.637" y2="106.847"/>
	
		<line display="inline" fill="none" stroke="#95C0C9" stroke-width="6" stroke-miterlimit="10" x1="58.137" y1="38.457" x2="58.137" y2="106.847"/>
</g>
</svg>
