<svg xmlns="http://www.w3.org/2000/svg" xmlns:xlink="http://www.w3.org/1999/xlink" version="1.1" id="Layer_1" x="0px" y="0px" width="99.471px" height="100px" viewBox="0 0 99.471 100" enable-background="new 0 0 99.471 100" xml:space="preserve">
<g>
	<path d="M74.913,89.033c-1.077-0.834-2.158-1.696-3.254-2.57c-0.91-0.724-1.823-1.456-2.743-2.173   c-5.508-4.304-11.232-8.228-17.605-8.798c-0.528-0.049-1.06-0.076-1.595-0.076c-0.539,0-1.065,0.068-1.594,0.116   c-6.392,0.579-12.139,4.479-17.66,8.798c0.193,0.152,0.387,0.306,0.579,0.459c0.673,0.535,1.333,1.048,1.999,1.572   c5.489-4.256,10.843-7.762,16.677-7.762c5.813,0,11.153,3.487,16.624,7.726c1.106,0.852,2.218,1.735,3.333,2.631   c0.886,0.703,1.772,1.413,2.664,2.11C78.324,95.748,84.569,100,91.616,100c2.729,0,5.336-0.65,7.854-1.707v-3.479   c-2.556,1.229-5.154,2-7.854,2C85.777,96.814,80.417,93.299,74.913,89.033z"/>
	<path d="M91.652,75.416c-7.051,0-13.312,4.251-19.313,8.938c0.184,0.146,0.368,0.291,0.551,0.437   c0.681,0.546,1.354,1.062,2.026,1.599c1.99-1.541,3.968-2.979,5.95-4.189v8.561c1.063,0.695,2.126,1.34,3.188,1.883V80.486   c1.966-0.918,3.961-1.547,6.003-1.766v15.854c0.49,0.059,0.981,0.112,1.478,0.112c0.571,0,1.144-0.055,1.711-0.131V78.699   c2.122,0.229,4.187,0.902,6.225,1.878v-3.474C96.962,76.059,94.367,75.416,91.652,75.416z"/>
	<path d="M24.463,89.068c-5.48,4.248-10.832,7.746-16.654,7.746C5.125,96.814,2.544,96,0,94.7v3.513   C2.504,99.318,5.092,100,7.807,100c7.027,0,13.259-4.229,19.232-8.896c-0.211-0.168-0.426-0.334-0.637-0.506   C25.752,90.076,25.111,89.582,24.463,89.068z"/>
	<path d="M66.335,89.088c-1.955,1.51-3.891,2.911-5.838,4.109v-8.424c-1.066-0.701-2.13-1.342-3.188-1.893v11.833   c0,0.065,0.027,0.12,0.036,0.183c-1.978,0.932-3.982,1.571-6.035,1.797V80.857c-0.558-0.076-1.11-0.129-1.667-0.129   c-0.511,0-1.017,0.056-1.521,0.117v15.877c-2.062-0.218-4.073-0.844-6.053-1.771c0.011-0.08,0.047-0.152,0.047-0.236V82.807   c-1.062,0.541-2.125,1.187-3.188,1.885v8.547c-3.062-1.875-6.098-4.288-9.213-6.774C22.91,81.033,15.874,75.417,7.776,75.417   c-2.701,0-5.278,0.601-7.774,1.572v3.438c2.023-0.898,4.073-1.525,6.181-1.736v15.893H6.18c0.527,0.068,1.059,0.12,1.59,0.12   c0.535,0,1.065-0.052,1.598-0.12V78.699c2.057,0.222,4.062,0.852,6.042,1.783c-0.011,0.072-0.043,0.142-0.043,0.222v11.894   c1.059-0.551,2.122-1.19,3.188-1.891v-8.506c3.046,1.871,6.07,4.275,9.172,6.752C34.534,94.384,41.573,100,49.675,100   c7.021,0,13.257-4.219,19.237-8.878c-0.219-0.175-0.439-0.351-0.659-0.524C67.606,90.085,66.972,89.594,66.335,89.088z"/>
	<path d="M84.187,13.561c3.075,0,5.572-2.497,5.572-5.573c0-3.072-2.497-5.573-5.572-5.573c-3.076,0-5.569,2.5-5.569,5.573   C78.618,11.063,81.111,13.561,84.187,13.561z"/>
	<path d="M72.121,38.5c1.773,0,3.209-1.437,3.209-3.209V20.25h1.26v19.334v2.666v24.667c0,1.772,1.437,3.209,3.209,3.209   c1.771,0,3.209-1.437,3.209-3.209V42.25h2.362v24.667c0,1.772,1.437,3.209,3.209,3.209c1.771,0,3.209-1.437,3.209-3.209V42.25   v-2.666V20.25h1.26v15.041c0,1.772,1.437,3.209,3.209,3.209s3.209-1.437,3.209-3.209V21.587c0-3.274-1.659-6.212-5.211-6.212   h-2.467H76.59h-2.467c-3.879,0-5.211,3.375-5.211,6.212v13.704C68.912,37.063,70.349,38.5,72.121,38.5z"/>
	<path d="M43.228,24.839c2.462,0,4.46-2,4.46-4.462c0-2.459-1.998-4.462-4.46-4.462c-2.463,0-4.459,2.001-4.459,4.462   C38.769,22.839,40.765,24.839,43.228,24.839z"/>
	<path d="M33.567,44.806c1.42,0,2.569-1.15,2.569-2.569V30.194h1.009v15.479v2.134v19.749c0,1.419,1.15,2.569,2.569,2.569   c1.418,0,2.569-1.15,2.569-2.569V47.808h1.892v19.749c0,1.419,1.15,2.569,2.569,2.569c1.419,0,2.569-1.15,2.569-2.569V47.808   v-2.134V30.194h1.008v12.042c0,1.419,1.15,2.569,2.57,2.569c1.418,0,2.568-1.15,2.568-2.569V31.265   c0-2.622-1.328-4.974-4.172-4.974h-1.975H37.145H35.17c-3.105,0-4.172,2.702-4.172,4.974v10.972   C30.998,43.655,32.149,44.806,33.567,44.806z"/>
	<path d="M7.896,40.884c1.59,0,2.88-1.291,2.88-2.881c0-1.588-1.29-2.881-2.88-2.881c-1.59,0-2.879,1.292-2.879,2.881   C5.017,39.593,6.306,40.884,7.896,40.884z"/>
	<path d="M1.659,53.776c0.917,0,1.658-0.742,1.658-1.658v-7.775h0.651v9.994v1.378v12.752c0,0.917,0.743,1.659,1.659,1.659   c0.916,0,1.659-0.742,1.659-1.659V58.108h1.221v10.358c0,0.917,0.742,1.659,1.659,1.659s1.659-0.742,1.659-1.659V55.715v-1.378   v-9.994h0.651v7.775c0,0.916,0.743,1.658,1.659,1.658c0.916,0,1.659-0.742,1.659-1.658v-7.085c0-1.692-0.857-3.211-2.694-3.211   h-1.275H3.969H2.694C0.688,41.822,0,43.567,0,45.033v7.085C0,53.034,0.743,53.776,1.659,53.776z"/>
</g>
</svg>