<?xml version="1.0" encoding="utf-8"?>
<!-- Generator: Adobe Illustrator 16.0.0, SVG Export Plug-In . SVG Version: 6.00 Build 0)  -->
<!DOCTYPE svg PUBLIC "-//W3C//DTD SVG 1.1//EN" "http://www.w3.org/Graphics/SVG/1.1/DTD/svg11.dtd">
<svg version="1.1" id="Layer_1" xmlns="http://www.w3.org/2000/svg" xmlns:xlink="http://www.w3.org/1999/xlink" x="0px" y="0px"
	 width="100px" height="58.04px" viewBox="0 0 100 58.04" enable-background="new 0 0 100 58.04" xml:space="preserve">
<g id="Layer_2">
	<path fill="#010101" d="M65.083,28.254c3.983-2.01,5.576-6.87,3.567-10.845c-1.998-3.962-6.86-5.562-10.849-3.543
		c-3.97,2.028-5.561,6.876-3.561,10.844C56.257,28.678,61.121,30.272,65.083,28.254z"/>
	<rect x="88.844" y="4.142" fill="#010101" width="11.156" height="24.844"/>
	<path fill="#010101" d="M51.139,22.005c0,0,0.108-7.404-7.59-11.841C41.227,8.82,36.83,6.95,27.822,8.275
		c-11.922,1.75-18.971,9.441-20.556,11.307c-3.05,2.856-3.764,7.549-1.465,11.226c0.448,0.706,0.997,1.298,1.591,1.832
		c0.07,0.095,0.093,0.209,0.173,0.291l16.169,15.608H4.75C2.128,48.541,0,50.663,0,53.285c0,2.631,2.128,4.753,4.75,4.753h29.774
		c1.884,0,3.58-1.044,4.509-3.024c1.184-2.524-0.403-5.464-0.949-6.333L25.03,27.7c1.567-0.927,3.644-2.006,6.055-2.605
		c5.108-1.267,9.14-0.984,10.826-0.767V53.15c0,2.546,2.06,4.606,4.604,4.606c2.555,0,4.615-2.061,4.615-4.606V22.007L51.139,22.005
		z"/>
	<path fill="#010101" d="M95.291,31.627l-9.511-0.01V1.925C85.78,1.112,85.307,0,83.753,0c-1.18,0-1.801,1.112-1.801,1.925v29.692
		H57.425v0.01c0,0-1.461,0.089-2.289,0.779c-0.947,0.79-1.209,2.265-1.209,2.265s-0.314,1.253-0.314,2.844
		c0,9.473,6.104,16.734,12.104,20.525h29.578L95.291,31.627L95.291,31.627z"/>
</g>
</svg>
