<svg xmlns="http://www.w3.org/2000/svg" xmlns:xlink="http://www.w3.org/1999/xlink" version="1.1" id="Your_Icon_copia" x="0px" y="0px" width="100px" height="100px" viewBox="0 0 100 100" enable-background="new 0 0 100 100" xml:space="preserve">
<path d="M9.117,8.945L8.853,9.208C-2.223,20.284-2.691,38.339,8.385,49.415L50.67,91.7c11.076,11.076,29.13,10.609,40.209-0.469  l0.261-0.261c11.078-11.078,10.911-28.5-0.165-39.576L48.689,9.109C37.614-1.966,20.192-2.131,9.117,8.945z M81.528,70.883  c-3.257-0.985-6.091-1.03-9.133-1.025c0.053-1.276,0.185-2.519,0.267-3.847c0.048-0.789,0.094-1.591,0.136-2.396  c6.108,0.033,12.728,1.025,19.756,5.32c1.485,0.908,1.965,2.86,1.058,4.345c-0.132,0.219-0.262,0.441-0.435,0.614  c-1.007,1.007-2.553,1.284-3.82,0.509c-1.317-0.804-2.713-1.563-3.784-1.906L72.457,85.611c0.343,1.071,1.103,2.468,1.908,3.785  c0.774,1.268,0.444,2.762-0.562,3.768c-0.174,0.174-0.368,0.33-0.586,0.464c-1.486,0.906-3.425,0.44-4.332-1.045  c-4.295-7.028-5.271-13.63-5.305-19.739c-0.006-0.851,0.014-1.687,0.039-2.519c0.052-1.653,0.163-3.254,0.258-4.828  c0.031-0.502,0.091-0.97,0.119-1.46c0.05-0.863,0.147-1.649,0.18-2.479c0.16-4.171-0.367-8.312-1.377-11.545L49.975,62.839  c3.232,1.01,7.372,1.537,11.545,1.377c-0.023,0.4-0.16,0.688-0.187,1.099c-0.099,1.624-0.201,3.33-0.251,5.104  c-7.682,0.231-15.526-0.69-23.278-8.442c-7.734-7.734-8.671-15.578-8.439-23.261c0.026-0.844,0.057-1.691,0.103-2.53  c0.043-0.769,0.075-1.55,0.122-2.313c0.085-1.351,0.139-2.717,0.195-4.048c0.034-0.844,0-1.742,0.005-2.582  c0.016-2.738,0.139-5.167-0.896-8.375L18.828,28.932c3.207,1.036,5.637,0.913,8.375,0.897c-0.054,1.245-0.018,2.62-0.099,3.915  c-0.052,0.821-0.098,1.659-0.144,2.499c-6.165-0.012-12.841-0.953-19.983-5.229c-1.494-0.894-1.968-2.818-1.075-4.313  c0.137-0.229,0.319-0.411,0.499-0.591c0.999-0.999,2.624-1.188,3.889-0.431c1.692,1.013,3.133,1.586,5.056,2.492l12.787-12.787  c-0.907-1.922-1.478-3.363-2.491-5.056c-0.757-1.265-0.607-2.935,0.388-3.932c0.18-0.179,0.383-0.339,0.612-0.475  c1.495-0.895,3.431-0.407,4.326,1.086c4.275,7.143,5.225,13.827,5.236,19.992c0.002,0.852-0.006,1.7-0.035,2.531  c-0.054,1.628-0.143,3.229-0.24,4.78c-0.033,0.527-0.046,1.065-0.078,1.58c-0.049,0.862-0.053,1.741-0.087,2.572  c-0.174,4.502,0.186,8.701,1.937,12.607l13.331-13.33c-3.906-1.752-8.105-2.111-12.607-1.938c0.026-0.42-0.025-0.92,0.002-1.354  c0.101-1.604,0.203-3.289,0.256-5.04c7.683-0.232,15.522,0.701,23.256,8.436c7.752,7.751,8.671,15.593,8.44,23.274  c-0.025,0.843-0.067,1.681-0.113,2.519c-0.04,0.737-0.089,1.47-0.134,2.204c-0.086,1.381-0.181,2.733-0.233,4.094  c-0.032,0.843-0.078,1.657-0.078,2.499c-0.007,3.042,0.039,5.875,1.024,9.132L81.528,70.883z"/>
<path d="M57.316,42.14c-1.141-1.14-1.897-1.715-3.481-2.96L39.14,53.875c1.245,1.583,1.819,2.34,2.961,3.481  c1.396,1.396,3.283,3.002,4.24,3.459L60.776,46.38C60.319,45.423,58.714,43.536,57.316,42.14z"/>
</svg>