<svg xmlns="http://www.w3.org/2000/svg" xmlns:xlink="http://www.w3.org/1999/xlink" version="1.1" id="Layer_1" x="0px" y="0px" width="96px" height="96px" viewBox="0 0 96 96" enable-background="new 0 0 96 96" xml:space="preserve">
<path d="M88,44c-7.393,0-8,4.548-8,9.6v4.588c-4,0.864-4,4.373-4,5.805v4c0,2.156,1.184,4.5,3.048,5.5  c0.656,9.972,7.688,20.5,16.952,20.5V44H88z"/>
<path d="M12,8H2c-1.104,0-2,0.9-2,2v32c0,1.1,0.896,2,2,2h10V8z"/>
<path d="M36,20V2c0-1.1-0.896-2-2-2H18c-1.104,0-2,0.9-2,2v48c0,1.1,0.896,2,2,2h16c1.104,0,2-0.9,2-2V20z"/>
<path d="M84,20H40v12h56V20H84z"/>
<path d="M75.42,86.6C70.152,81.684,68,77.452,68,72V36H48v37.916c0,9.796,5.252,17.344,15.176,21.828  c0.26,0.111,0.545,0.172,0.82,0.172l0,0V96h12v-7.616C76.1,87.744,75.928,87.072,75.42,86.6L75.42,86.6z"/>
</svg>