<svg xmlns="http://www.w3.org/2000/svg" xmlns:xlink="http://www.w3.org/1999/xlink" version="1.1" id="Layer_1" x="0px" y="0px" width="100px" height="100px" viewBox="0 0 100 100" enable-background="new 0 0 100 100" xml:space="preserve">
<path d="M94.692,68.352H82.029c-0.721-5.785-2.978-11.222-6.565-15.824l8.966-8.959c1.557-1.56,1.557-4.093,0.001-5.649  c-0.756-0.756-1.758-1.173-2.825-1.173s-2.07,0.417-2.825,1.172l-8.965,8.96c-4.592-3.578-10.028-5.826-15.826-6.547V27.649  c0-2.203-1.792-3.995-3.994-3.995c-2.204,0-3.995,1.792-3.995,3.995v12.688c-5.792,0.722-11.223,2.97-15.81,6.547l-8.971-8.971  c-0.755-0.755-1.758-1.171-2.825-1.171c-1.066,0-2.069,0.416-2.823,1.17c-0.755,0.755-1.172,1.757-1.172,2.824  c0,1.066,0.417,2.069,1.171,2.825l8.972,8.978c-3.576,4.582-5.825,10.015-6.546,15.812L5.308,68.347  c-2.203,0-3.995,1.792-3.995,3.994c0,2.203,1.792,3.996,3.995,3.996l15.826,0.005c0.084,0,0.158-0.009,0.224-0.021  c0.063,0.012,0.14,0.021,0.224,0.021h56.798l0.104,0.004l0.144-0.004c0,0,0.061-0.01,0.071-0.012  c0.051,0.007,0.105,0.012,0.164,0.012h15.83c2.203,0,3.995-1.792,3.995-3.995S96.896,68.352,94.692,68.352z M25.899,68.352  c1.931-11.726,12.102-20.435,24.096-20.435c11.998,0,22.174,8.709,24.105,20.435H25.899z"/>
</svg>