<svg xmlns="http://www.w3.org/2000/svg" xmlns:xlink="http://www.w3.org/1999/xlink" version="1.1" id="Layer_1" x="0px" y="0px" width="100px" height="100px" viewBox="0 0 100 100" enable-background="new 0 0 100 100" xml:space="preserve">
<path d="M28.112,63.797h-6.428c-0.969,0-1.758-0.789-1.758-1.759V49.782c0-0.97,0.789-1.757,1.758-1.757h6.428  c0.969,0,1.758,0.787,1.758,1.757v12.256C29.87,63.008,29.081,63.797,28.112,63.797z M21.685,48.727  c-0.581,0-1.055,0.474-1.055,1.056v12.256c0,0.581,0.474,1.055,1.055,1.055h6.428c0.581,0,1.055-0.474,1.055-1.055V49.782  c0-0.582-0.474-1.056-1.055-1.056H21.685z"/>
<path d="M40.102,63.797h-6.427c-0.969,0-1.758-0.789-1.758-1.759V49.782c0-0.97,0.789-1.757,1.758-1.757h6.427  c0.97,0,1.759,0.787,1.759,1.757v12.256C41.86,63.008,41.071,63.797,40.102,63.797z M33.675,48.727  c-0.581,0-1.055,0.474-1.055,1.056v12.256c0,0.581,0.474,1.055,1.055,1.055h6.427c0.583,0,1.057-0.474,1.057-1.055V49.782  c0-0.582-0.474-1.056-1.057-1.056H33.675z"/>
<path d="M51.886,63.797h-6.427c-0.969,0-1.759-0.789-1.759-1.759V49.782c0-0.97,0.79-1.757,1.759-1.757h6.427  c0.971,0,1.759,0.787,1.759,1.757v12.256C53.645,63.008,52.856,63.797,51.886,63.797z M45.459,48.727  c-0.581,0-1.055,0.474-1.055,1.056v12.256c0,0.581,0.474,1.055,1.055,1.055h6.427c0.582,0,1.056-0.474,1.056-1.055V49.782  c0-0.582-0.474-1.056-1.056-1.056H45.459z"/>
<path d="M63.643,63.797h-6.427c-0.97,0-1.759-0.789-1.759-1.759V49.782c0-0.97,0.789-1.757,1.759-1.757h6.427  c0.97,0,1.759,0.787,1.759,1.757v12.256C65.401,63.008,64.612,63.797,63.643,63.797z M57.216,48.727  c-0.582,0-1.056,0.474-1.056,1.056v12.256c0,0.581,0.474,1.055,1.056,1.055h6.427c0.581,0,1.055-0.474,1.055-1.055V49.782  c0-0.582-0.474-1.056-1.055-1.056H57.216z"/>
<path d="M75.812,44.055h-6.428c-0.969,0-1.758-0.787-1.758-1.758V30.041c0-0.97,0.789-1.757,1.758-1.757h6.428  c0.97,0,1.758,0.787,1.758,1.757v12.256C77.569,43.268,76.781,44.055,75.812,44.055z M69.384,28.986  c-0.581,0-1.055,0.474-1.055,1.055v12.256c0,0.583,0.474,1.057,1.055,1.057h6.428c0.581,0,1.055-0.474,1.055-1.057V30.041  c0-0.581-0.474-1.055-1.055-1.055H69.384z"/>
<path d="M87.514,63.797h-6.427c-0.971,0-1.759-0.789-1.759-1.759V49.782c0-0.97,0.788-1.757,1.759-1.757h6.427  c0.969,0,1.759,0.787,1.759,1.757v12.256C89.272,63.008,88.482,63.797,87.514,63.797z M81.087,48.727  c-0.582,0-1.055,0.474-1.055,1.056v12.256c0,0.581,0.473,1.055,1.055,1.055h6.427c0.581,0,1.054-0.474,1.054-1.055V49.782  c0-0.582-0.473-1.056-1.054-1.056H81.087z"/>
<path d="M16.233,63.797H9.807c-0.969,0-1.757-0.789-1.757-1.759V49.782c0-0.97,0.788-1.757,1.757-1.757h6.427  c0.971,0,1.758,0.787,1.758,1.757v12.256C17.991,63.008,17.204,63.797,16.233,63.797z M9.807,48.727  c-0.581,0-1.055,0.474-1.055,1.056v12.256c0,0.581,0.474,1.055,1.055,1.055h6.427c0.582,0,1.056-0.474,1.056-1.055V49.782  c0-0.582-0.474-1.056-1.056-1.056H9.807z"/>
<g>
	<g>
		<path d="M69.435,50.085c-0.805,0.215-1.281,1.041-1.067,1.846c0.218,0.805,1.044,1.282,1.849,1.068l2.676-0.719l-0.781-2.912    L69.435,50.085z"/>
		<path d="M69.824,53.349L69.824,53.349c-0.813,0-1.531-0.552-1.746-1.341c-0.256-0.961,0.317-1.953,1.279-2.211l2.965-0.794    l0.936,3.488l-2.965,0.795C70.14,53.328,69.982,53.349,69.824,53.349z M71.898,49.734l-2.387,0.639    c-0.644,0.173-1.027,0.837-0.855,1.48c0.143,0.528,0.624,0.897,1.168,0.897l0,0c0.106,0,0.211-0.015,0.314-0.041l2.387-0.642    L71.898,49.734z"/>
	</g>
	<path d="M72.68,52.646l-0.936-3.489l2.964-0.796c0.947-0.251,1.964,0.336,2.212,1.279c0.127,0.462,0.063,0.949-0.178,1.367   c-0.241,0.419-0.63,0.719-1.099,0.845L72.68,52.646z M72.477,49.579l0.627,2.335l2.386-0.64c0.313-0.084,0.573-0.284,0.734-0.566   c0.161-0.277,0.204-0.603,0.119-0.913c-0.166-0.631-0.842-1.024-1.48-0.855L72.477,49.579z"/>
</g>
<path d="M68.983,58.109c-0.675,0-1.299-0.401-1.587-1.022c-0.198-0.424-0.222-0.9-0.068-1.336c0.155-0.44,0.472-0.791,0.892-0.985  c0.229-0.107,0.471-0.161,0.722-0.161c0.676,0,1.3,0.402,1.589,1.021c0.408,0.88,0.039,1.921-0.825,2.323  C69.477,58.055,69.234,58.109,68.983,58.109z M68.941,55.068c-0.183,0-0.358,0.04-0.525,0.117c-0.306,0.144-0.536,0.398-0.649,0.72  c-0.114,0.322-0.096,0.673,0.05,0.986c0.293,0.626,1.073,0.923,1.692,0.636c0.632-0.293,0.901-1.059,0.602-1.706  C69.896,55.365,69.438,55.068,68.941,55.068z"/>
<rect x="68.855" y="54.859" transform="matrix(0.4236 0.9058 -0.9058 0.4236 90.7982 -29.9867)" width="0.217" height="2.994"/>
<g>
	<g>
		<path d="M70.817,58.842c-0.537,0.638-0.451,1.588,0.185,2.123c0.639,0.536,1.59,0.451,2.126-0.185l1.781-2.123l-2.311-1.938    L70.817,58.842z"/>
		<path d="M71.971,61.617L71.971,61.617c-0.423,0-0.836-0.151-1.161-0.423c-0.368-0.311-0.595-0.747-0.638-1.227    c-0.042-0.48,0.106-0.949,0.418-1.318l1.971-2.351l2.771,2.321l-1.975,2.353C73.011,61.382,72.506,61.617,71.971,61.617z     M72.635,57.14l-1.588,1.894c-0.208,0.247-0.309,0.561-0.279,0.883c0.028,0.32,0.181,0.612,0.427,0.82    c0.491,0.41,1.289,0.341,1.705-0.148l1.588-1.895L72.635,57.14z"/>
	</g>
	<path d="M74.946,59.078l-2.771-2.322l1.972-2.351c0.619-0.734,1.813-0.84,2.547-0.223c0.762,0.638,0.862,1.781,0.225,2.545   L74.946,59.078z M73.02,56.683l1.852,1.553l1.589-1.891c0.428-0.513,0.361-1.276-0.149-1.705c-0.494-0.413-1.293-0.342-1.706,0.148   L73.02,56.683z"/>
</g>
<path d="M75.887,63.53c-0.097,0-0.194-0.009-0.295-0.025c-0.456-0.081-0.852-0.338-1.116-0.721  c-0.263-0.385-0.362-0.849-0.281-1.309c0.166-0.942,1.053-1.604,2.007-1.431c0.938,0.166,1.567,1.076,1.399,2.028  C77.448,62.918,76.728,63.53,75.887,63.53z M75.902,60.481c-0.615,0-1.142,0.452-1.251,1.073c-0.061,0.341,0.013,0.684,0.207,0.966  c0.192,0.281,0.482,0.469,0.814,0.527c0.699,0.109,1.347-0.362,1.472-1.056c0.122-0.7-0.337-1.369-1.024-1.491  C76.048,60.488,75.976,60.481,75.902,60.481z"/>
<rect x="74.401" y="61.665" transform="matrix(0.9849 0.1732 -0.1732 0.9849 11.8483 -12.2136)" width="2.993" height="0.218"/>
<path d="M87.962,46.37H78.77h-1.557l0.193-0.66h1.566V26.629h-1.565l-0.367-1.264h-8.88l-0.369,1.264h-1.567V45.71h1.566l0.191,0.66  h-1.961H54.928H42.406H31.259H18.64H9.384c-1.454,0-2.637,1.184-2.637,2.636v13.809c0,1.454,1.183,2.637,2.637,2.637h9.256h60.13  h9.192c1.454,0,2.636-1.183,2.636-2.637V49.006C90.598,47.554,89.416,46.37,87.962,46.37z M68.571,25.912h8.059l0.209,0.717H68.36  L68.571,25.912z M66.884,45.05V27.289h11.428V45.05H66.884z M68.358,45.71h8.478l-0.193,0.66h-8.092L68.358,45.71z M9.384,64.79  c-1.09,0-1.976-0.886-1.976-1.976V49.006c0-1.089,0.886-1.976,1.976-1.976h9.256v17.76H9.384z M19.3,64.79V47.03h11.299v17.76H19.3z   M31.259,64.79V47.03h11.147v17.76H31.259z M43.066,64.79V47.03h11.201v17.76H43.066z M54.928,64.79V47.03h11.093v17.76H54.928z   M66.682,64.79V47.03H78.11v17.76H66.682z M89.938,62.814c0,1.09-0.888,1.976-1.977,1.976H78.77V47.03h9.192  c1.089,0,1.977,0.887,1.977,1.976V62.814z"/>
<circle cx="10.833" cy="52.438" r="1.312"/>
<circle cx="23.127" cy="52.646" r="1.312"/>
<circle cx="23.127" cy="56.229" r="1.312"/>
<circle cx="34.764" cy="52.646" r="1.312"/>
<circle cx="39.014" cy="52.646" r="1.312"/>
<circle cx="46.547" cy="52.328" r="1.312"/>
<circle cx="50.797" cy="52.328" r="1.312"/>
<circle cx="50.797" cy="55.625" r="1.312"/>
<circle cx="58.305" cy="52.119" r="1.312"/>
<circle cx="62.555" cy="55.416" r="1.312"/>
<circle cx="82.492" cy="52.328" r="1.312"/>
<circle cx="86.742" cy="52.328" r="1.312"/>
<circle cx="86.742" cy="55.91" r="1.312"/>
<circle cx="82.492" cy="55.91" r="1.312"/>
<circle cx="70.473" cy="39.961" r="1.312"/>
<circle cx="74.723" cy="39.961" r="1.312"/>
<circle cx="70.473" cy="36.169" r="1.312"/>
</svg>