<?xml version="1.0" encoding="utf-8"?>
<!-- Generator: Adobe Illustrator 14.0.0, SVG Export Plug-In . SVG Version: 6.00 Build 43363)  -->
<!DOCTYPE svg PUBLIC "-//W3C//DTD SVG 1.0//EN" "http://www.w3.org/TR/2001/REC-SVG-20010904/DTD/svg10.dtd">
<svg version="1.0" id="Layer_1" xmlns="http://www.w3.org/2000/svg" xmlns:xlink="http://www.w3.org/1999/xlink" x="0px" y="0px"
	 width="100px" height="97.902px" viewBox="0 0 100 97.902" enable-background="new 0 0 100 97.902" xml:space="preserve">
<path d="M4.188,8.774v20.842H1.069C0.48,29.616,0,29.141,0,28.547V1.651C0,0.742,0.679,0,1.611,0h13.78
	c0.928,0,1.61,0.738,1.61,1.648v1.579h21.306c0.593,0,1.069,0.478,1.069,1.066v6.048H21.188V8.758c0-0.908-0.678-1.648-1.614-1.648
	H5.801C4.866,7.11,4.188,7.86,4.188,8.774z"/>
<path d="M47.754,42.238c0,0.591-0.477,1.065-1.069,1.065H12.564H9.447c-0.593,0-1.069-0.475-1.069-1.065V15.341
	c0-0.91,0.678-1.651,1.609-1.651h13.778c0.932,0,1.614,0.738,1.614,1.648v1.58h21.305c0.593,0,1.069,0.478,1.069,1.065V42.238z
	 M31.238,26.926v-6.344h-6.346v6.344h-6.346v6.346h6.346v6.344h6.346v-6.344h6.343v-6.346H31.238z"/>
<path d="M55.364,16.686v81.217H100V16.686H55.364z M97.201,86.413H58.153V55.736h39.048V86.413z M97.201,50.232H58.153V19.561
	h39.048V50.232z"/>
<path d="M94.367,22.176H60.955v25.456h33.412V22.176z M83.102,30.709H72.099c-0.856,0-1.549-0.69-1.549-1.551
	c0-0.854,0.692-1.55,1.549-1.55h11.003c0.859,0,1.552,0.696,1.552,1.55C84.653,30.019,83.961,30.709,83.102,30.709z"/>
<path d="M94.388,58.346H60.979v25.451h33.408V58.346z M83.102,66.887H72.099c-0.856,0-1.549-0.694-1.549-1.548
	c0-0.859,0.692-1.556,1.549-1.556h11.003c0.859,0,1.552,0.696,1.552,1.556C84.653,66.192,83.961,66.887,83.102,66.887z"/>
</svg>
