<?xml version="1.0" encoding="utf-8"?>
<!-- Generator: Adobe Illustrator 16.0.0, SVG Export Plug-In . SVG Version: 6.00 Build 0)  -->
<!DOCTYPE svg PUBLIC "-//W3C//DTD SVG 1.1//EN" "http://www.w3.org/Graphics/SVG/1.1/DTD/svg11.dtd">
<svg version="1.1" id="Layer_1" xmlns="http://www.w3.org/2000/svg" xmlns:xlink="http://www.w3.org/1999/xlink" x="0px" y="0px"
	 width="154.359px" height="133.912px" viewBox="0 0 154.359 133.912" enable-background="new 0 0 154.359 133.912"
	 xml:space="preserve">
<g>
	<g>
		<g>
			<text transform="matrix(1 0 0 1 67.8997 10.7627)" fill="#A9D384" font-family="'Arial-Black'" font-size="6.5816">1000</text>
			<text transform="matrix(1 0 0 1 67.8997 18.8398)" fill="#A9D384" font-family="'Arial-Black'" font-size="6.5816">0011</text>
			<text transform="matrix(1 0 0 1 68.2 26.6182)" fill="#A9D384" font-family="'Arial-Black'" font-size="6.5816">0110</text>
		</g>
	</g>
	<rect x="61.23" y="4" fill="none" stroke="#FAAA2C" stroke-width="1.2456" stroke-miterlimit="10" width="31.24" height="24.253"/>
</g>
<g>
	<g>
		<g>
			<g>
				<text transform="matrix(1 0 0 1 14.1829 80.9736)" fill="#A9D384" font-family="'Arial-Black'" font-size="6.5816">1100</text>
				<text transform="matrix(1 0 0 1 14.1829 89.0498)" fill="#A9D384" font-family="'Arial-Black'" font-size="6.5816">1010</text>
				<text transform="matrix(1 0 0 1 14.4822 96.8291)" fill="#A9D384" font-family="'Arial-Black'" font-size="6.5816">0101</text>
			</g>
		</g>
		
			<rect x="7.512" y="72.185" fill="none" stroke="#FAAA2C" stroke-width="1.2456" stroke-miterlimit="10" width="31.236" height="29.037"/>
	</g>
	<g>
		<g>
			<g>
				<text transform="matrix(1 0 0 1 51.2463 80.9736)" fill="#A9D384" font-family="'Arial-Black'" font-size="6.5816">1100</text>
				<text transform="matrix(1 0 0 1 51.2463 89.0498)" fill="#A9D384" font-family="'Arial-Black'" font-size="6.5816">1010</text>
				<text transform="matrix(1 0 0 1 51.5457 96.8291)" fill="#A9D384" font-family="'Arial-Black'" font-size="6.5816">0101</text>
			</g>
		</g>
		
			<rect x="44.578" y="72.185" fill="none" stroke="#FAAA2C" stroke-width="1.2456" stroke-miterlimit="10" width="31.239" height="29.037"/>
	</g>
	<g>
		<g>
			<g>
				<text transform="matrix(1 0 0 1 88.3123 80.9736)" fill="#A9D384" font-family="'Arial-Black'" font-size="6.5816">1100</text>
				<text transform="matrix(1 0 0 1 88.3123 89.0498)" fill="#A9D384" font-family="'Arial-Black'" font-size="6.5816">1010</text>
				<text transform="matrix(1 0 0 1 88.613 96.8291)" fill="#A9D384" font-family="'Arial-Black'" font-size="6.5816">0101</text>
			</g>
		</g>
		
			<rect x="81.642" y="72.185" fill="none" stroke="#FAAA2C" stroke-width="1.2456" stroke-miterlimit="10" width="31.237" height="29.037"/>
	</g>
	<g>
		<g>
			<g>
				<text transform="matrix(1 0 0 1 125.3787 80.9736)" fill="#A9D384" font-family="'Arial-Black'" font-size="6.5816">1100</text>
				<text transform="matrix(1 0 0 1 125.3787 89.0498)" fill="#A9D384" font-family="'Arial-Black'" font-size="6.5816">1010</text>
				<text transform="matrix(1 0 0 1 125.6775 96.8291)" fill="#A9D384" font-family="'Arial-Black'" font-size="6.5816">0101</text>
			</g>
		</g>
		
			<rect x="118.709" y="72.185" fill="none" stroke="#FAAA2C" stroke-width="1.2456" stroke-miterlimit="10" width="31.238" height="29.037"/>
	</g>
</g>
<g>
	<g>
		<g>
			<g>
				<text transform="matrix(1 0 0 1 32.1453 46.083)" fill="#A9D384" font-family="'Arial-Black'" font-size="6.5816">1100</text>
				<text transform="matrix(1 0 0 1 32.1453 54.1602)" fill="#A9D384" font-family="'Arial-Black'" font-size="6.5816">1010</text>
				<text transform="matrix(1 0 0 1 32.4417 61.9395)" fill="#A9D384" font-family="'Arial-Black'" font-size="6.5816">0101</text>
			</g>
		</g>
		
			<rect x="25.474" y="37.295" fill="none" stroke="#FAAA2C" stroke-width="1.2456" stroke-miterlimit="10" width="31.235" height="29.037"/>
	</g>
	<g>
		<g>
			<g>
				<text transform="matrix(1 0 0 1 104.7996 46.084)" fill="#A9D384" font-family="'Arial-Black'" font-size="6.5816">1100</text>
				<text transform="matrix(1 0 0 1 104.7996 54.1611)" fill="#A9D384" font-family="'Arial-Black'" font-size="6.5816">1010</text>
				<text transform="matrix(1 0 0 1 105.0974 61.9404)" fill="#A9D384" font-family="'Arial-Black'" font-size="6.5816">0101</text>
			</g>
		</g>
		
			<rect x="98.129" y="37.295" fill="none" stroke="#FAAA2C" stroke-width="1.2456" stroke-miterlimit="10" width="31.24" height="29.037"/>
	</g>
</g>
<g>
	
		<line fill="none" stroke="#FAAA2C" stroke-width="1.2456" stroke-miterlimit="10" x1="67.943" y1="28.253" x2="39.094" y2="37.295"/>
	
		<line fill="none" stroke="#FAAA2C" stroke-width="1.2456" stroke-miterlimit="10" x1="85.223" y1="28.253" x2="114.072" y2="37.295"/>
</g>
<g>
	
		<line fill="none" stroke="#FAAA2C" stroke-width="1.2456" stroke-miterlimit="10" x1="33.928" y1="66.456" x2="23.459" y2="72.104"/>
	
		<line fill="none" stroke="#FAAA2C" stroke-width="1.2456" stroke-miterlimit="10" x1="107.732" y1="66.456" x2="97.261" y2="72.104"/>
	
		<line fill="none" stroke="#FAAA2C" stroke-width="1.2456" stroke-miterlimit="10" x1="123.373" y1="66.456" x2="133.845" y2="72.104"/>
	
		<line fill="none" stroke="#FAAA2C" stroke-width="1.2456" stroke-miterlimit="10" x1="49.568" y1="66.456" x2="60.04" y2="72.104"/>
</g>
<g>
	<path fill="#4787C7" d="M27.117,108.007v-2.277c0-0.094-0.02-0.18-0.049-0.263c0.312-0.039,0.557-0.304,0.557-0.628
		c0-0.351-0.284-0.635-0.635-0.635h-3.812c-0.353,0-0.636,0.283-0.636,0.635c0,0.324,0.242,0.589,0.559,0.628
		c-0.03,0.083-0.048,0.169-0.048,0.263v2.285l-4.828,11.688c-0.148,0.4,0.342,0.762,0.764,0.762h12.193
		c0.422,0,0.908-0.375,0.762-0.762L27.117,108.007z"/>
	<path fill="#FFFFFF" d="M27.953,112.099c1.27,3.133,2.973,7.096,2.973,7.096c0.15,0.371-0.084,0.511-0.507,0.511H19.75
		c-0.422,0-0.631-0.116-0.508-0.511c0,0,1.62-4.004,2.877-7.105C23.739,110.675,25.269,112.604,27.953,112.099z"/>
	<path fill="#4787C7" d="M24.449,114.874c-0.772,0-1.396,0.627-1.396,1.396c0,0.771,0.621,1.396,1.396,1.396
		s1.396-0.625,1.396-1.396C25.845,115.5,25.222,114.874,24.449,114.874z M27.117,113.983c0-0.353-0.283-0.635-0.636-0.635
		s-0.636,0.282-0.636,0.635s0.283,0.637,0.636,0.637S27.117,114.336,27.117,113.983z M27.88,116.397
		c-0.562,0-1.017,0.455-1.017,1.02s0.455,1.016,1.017,1.016c0.562,0,1.018-0.451,1.018-1.016S28.441,116.397,27.88,116.397z"/>
	<path fill="#FFFFFF" d="M23.052,105.729h4.064c0-0.09-0.02-0.174-0.047-0.254h-3.971C23.069,105.556,23.052,105.64,23.052,105.729z
		"/>
</g>
<g>
	<path fill="#4787C7" d="M54.937,107.515v12.119c0,0.428,0.949,0.772,2.146,0.772c1.195,0,2.166-0.349,2.166-0.772v-12.119H54.937z"
		/>
	<path fill="#4787C7" d="M57.094,106.74c1.188,0,2.153,0.346,2.153,0.771c0,0.426-0.965,0.774-2.153,0.774
		c-1.191,0-2.156-0.349-2.156-0.774C54.938,107.086,55.902,106.74,57.094,106.74z"/>
	<path fill="#4787C7" d="M59.978,110.062v9.572c0,0.428,0.946,0.772,2.146,0.772c1.195,0,2.166-0.349,2.166-0.772v-9.572H59.978z"/>
	<path fill="#4787C7" d="M62.135,109.286c1.189,0,2.156,0.346,2.156,0.771c0,0.428-0.967,0.772-2.156,0.772
		c-1.188,0-2.153-0.347-2.153-0.772C59.979,109.632,60.945,109.286,62.135,109.286z"/>
	<path fill="#4787C7" d="M64.925,104.979v14.653c0,0.427,0.95,0.772,2.146,0.772c1.197,0,2.167-0.348,2.167-0.772v-14.653H64.925z"
		/>
	<path fill="#4787C7" d="M67.08,104.206c1.191,0,2.157,0.346,2.157,0.771c0,0.429-0.966,0.772-2.157,0.772
		c-1.188,0-2.155-0.347-2.155-0.772S65.89,104.206,67.08,104.206z"/>
</g>
</svg>
