<svg xmlns="http://www.w3.org/2000/svg" xmlns:xlink="http://www.w3.org/1999/xlink" version="1.1" id="Layer_1" x="0px" y="0px" viewBox="0 0 792 612" enable-background="new 0 0 792 612" xml:space="preserve" height="100px" width="100px">
<path stroke="#58595B" stroke-width="3" stroke-linecap="round" stroke-linejoin="round" d="M295.32,213.01  c0.88,4,3.46,7.07,6.67,7.81C301.92,216.6,298.99,213.2,295.32,213.01z M295.32,213.01c0.88,4,3.46,7.07,6.67,7.81  C301.92,216.6,298.99,213.2,295.32,213.01z M295.32,213.01c0.88,4,3.46,7.07,6.67,7.81C301.92,216.6,298.99,213.2,295.32,213.01z   M295.32,213.01c0.88,4,3.46,7.07,6.67,7.81C301.92,216.6,298.99,213.2,295.32,213.01z M295.32,213.01c0.88,4,3.46,7.07,6.67,7.81  C301.92,216.6,298.99,213.2,295.32,213.01z M295.32,213.01c0.88,4,3.46,7.07,6.67,7.81C301.92,216.6,298.99,213.2,295.32,213.01z   M295.32,213.01c0.88,4,3.46,7.07,6.67,7.81C301.92,216.6,298.99,213.2,295.32,213.01z M295.32,213.01c0.88,4,3.46,7.07,6.67,7.81  C301.92,216.6,298.99,213.2,295.32,213.01z M363.68,350.34c-0.71-11.63-2.34-24.61-4.84-38.99  c-13.16-75.76,25.14-157.54-20.49-171.23c-35.98-10.79-84.05,35.27-121.99,104.94c-30.97,56.87-49.74,94.29-43.3,121.4  c0.5,2.13,1.17,4.2,1.99,6.21c7.7,18.83,29.6,32.47,70.87,44.6c52.36,15.4,85.46,15.16,102.88-2.78c4.43-4.55,7.84-10.24,10.32-17.1  C363.45,385.36,364.86,369.74,363.68,350.34z M312,210c0,6.08-3.81,11-8.5,11c-0.52,0-1.02-0.06-1.51-0.18  c0.01,0.06,0.01,0.12,0.01,0.18c0,4.06-2.64,7.41-6.07,7.93c0.68,1.65,1.07,3.66,1.07,5.82c0,5.66-2.69,10.25-6,10.25  s-6-4.59-6-10.25c0-4.46,1.67-8.26,3.99-9.66c-0.63-1.2-0.99-2.6-0.99-4.09c0-4.42,3.13-8,7-8c0.11,0,0.21,0,0.32,0.01  c-0.21-0.95-0.32-1.97-0.32-3.01c0-6.08,3.81-11,8.5-11S312,203.92,312,210z M291.83,193c3.77,0,6.82,1.78,6.82,3.98  s-3.05,3.99-6.82,3.99c-3.77,0-6.83-1.79-6.83-3.99S288.06,193,291.83,193z M267.94,211.75c0-7.04,4.49-12.75,10.03-12.75  c5.54,0,10.03,5.71,10.03,12.75c0,3.9-1.38,7.4-3.56,9.73c0.36,0.94,0.56,1.96,0.56,3.02c0,4.69-3.82,8.5-8.53,8.5  c-4.71,0-8.53-3.81-8.53-8.5c0-2.01,0.71-3.86,1.88-5.32C268.63,217.09,267.94,214.52,267.94,211.75z M276.47,239  c0,3.31-3.86,6-8.62,6c-4.76,0-8.62-2.69-8.62-6s3.86-6,8.62-6C272.61,233,276.47,235.69,276.47,239z M261.42,216.92  c3.55,0,6.43,3.6,6.43,8.04s-2.88,8.04-6.43,8.04c-3.54,0-6.42-3.6-6.42-8.04S257.88,216.92,261.42,216.92z M257.5,255.69  c-2.49,0-4.5-2.34-4.5-5.23c0-2.9,2.01-5.24,4.5-5.24c2.48,0,4.5,2.34,4.5,5.24C262,253.35,259.98,255.69,257.5,255.69z   M276.43,263.29c-4.74,0-8.58-4.09-8.58-9.14c0-5.06,3.84-9.15,8.58-9.15c4.73,0,8.57,4.09,8.57,9.15  C285,259.2,281.16,263.29,276.43,263.29z M291.83,273c-3.77,0-6.83-4.22-6.83-9.43c0-5.2,3.06-9.42,6.83-9.42  c3.77,0,6.82,4.22,6.82,9.42C298.65,268.78,295.6,273,291.83,273z M304.5,255.69c-4.14,0-7.5-4.69-7.5-10.47  c0-5.78,3.36-10.47,7.5-10.47s7.5,4.69,7.5,10.47C312,251,308.64,255.69,304.5,255.69z M314.59,238c-3.54,0-6.41-4.21-6.41-9.41  c0-5.2,2.87-9.41,6.41-9.41c3.54,0,6.41,4.21,6.41,9.41C321,233.79,318.13,238,314.59,238z M295.32,213.01  c0.88,4,3.46,7.07,6.67,7.81C301.92,216.6,298.99,213.2,295.32,213.01z M295.32,213.01c0.88,4,3.46,7.07,6.67,7.81  C301.92,216.6,298.99,213.2,295.32,213.01z M295.32,213.01c0.88,4,3.46,7.07,6.67,7.81C301.92,216.6,298.99,213.2,295.32,213.01z   M295.32,213.01c0.88,4,3.46,7.07,6.67,7.81C301.92,216.6,298.99,213.2,295.32,213.01z M295.32,213.01c0.88,4,3.46,7.07,6.67,7.81  C301.92,216.6,298.99,213.2,295.32,213.01z M295.32,213.01c0.88,4,3.46,7.07,6.67,7.81C301.92,216.6,298.99,213.2,295.32,213.01z   M295.32,213.01c0.88,4,3.46,7.07,6.67,7.81C301.92,216.6,298.99,213.2,295.32,213.01z" fill="#000000"/>
<path stroke="#58595B" stroke-width="3" stroke-linecap="round" stroke-linejoin="round" d="M356.37,476.59  c-8.51,69.88-4.45,92.02-106.76,103.31c-30.31,3.35-54.6-0.88-72.3-12.98c-1.64-1.12-3.22-2.3-4.74-3.56  c-0.09-0.09-0.18-0.19-0.27-0.29c-9.44-10.53-4.13-30.69,11.86-45.03c15.99-14.34,36.61-17.42,46.05-6.89l0.51-0.47l11.53,12.61  c0,0,61.56-0.67,79.23-4.66C338.98,514.65,350.21,496.53,356.37,476.59z" fill="#000000"/>
<path stroke="#58595B" stroke-width="3" stroke-linecap="round" stroke-linejoin="round" d="M230.72,510.68l-0.51,0.47  c-9.44-10.53-30.06-7.45-46.05,6.89c-15.99,14.34-21.3,34.5-11.86,45.03c0.09,0.1,0.18,0.2,0.27,0.29  c-0.26-0.21-0.52-0.42-0.77-0.64c-19.84-16.8-29.82-45.33-28.96-86.13c0.99-46.27,5.79-75.21,15.23-92.9  c-1.27,24.58,35.11,83.81,38.88,90.05L230.72,510.68z" fill="#000000"/>
<path stroke="#58595B" stroke-width="3" stroke-linecap="round" stroke-linejoin="round" d="M360.43,421.52  c-0.02,5.68-0.23,11.85-0.64,18.54c-0.64,10.76-1.77,22.88-3.42,36.51c0,0,0,0,0,0.02c-6.16,19.94-17.39,38.06-34.89,42.04  c-17.67,3.99-79.23,4.66-79.23,4.66l-11.53-12.61l-33.77-36.94c-3.77-6.24-40.15-65.47-38.88-90.05c2.1-3.97,4.43-7.36,7.02-10.26  c2.44-2.75,5.09-5.05,7.97-6.97c0.5,2.13,1.17,4.2,1.99,6.21c7.7,18.83,29.6,32.47,70.87,44.6c52.36,15.4,85.46,15.16,102.88-2.78  c4.43-4.55,7.84-10.24,10.32-17.1c0.42,3.22,0.74,6.69,0.96,10.43C360.33,412.04,360.45,416.6,360.43,421.52z" fill="#000000"/>
<path stroke="#58595B" stroke-width="3" stroke-linecap="round" stroke-linejoin="round" d="M649.16,379.39  c-0.13,0.02-0.26,0.03-0.39,0.05l-9.46,12.68c-0.24,0.05-0.49,0.1-0.75,0.14l-2.22,3.85l-22.35,38.71l-30.25,52.38l-11.5,19.91  c-0.11,0.1-0.22,0.19-0.34,0.27c-0.1,0.08-0.2,0.15-0.31,0.23c-5.95,4.45-12.92,4.85-20.45,2.38  c-31.27-10.26-71.95-70.2-87.28-95.08c-1.55-2.51-2.69-5.31-3.49-8.35c-7.28-27.29,12.9-73.18,11.58-96.8  c-3.16-56.21-4.03-183.18,18.5-158.02c36.95-21.39,107.57,68.23,123.85,120.82c11.94,38.59,33.01,79.63,34.78,102.31  c0.01,0.09,0.01,0.18,0.02,0.26C649.21,376.64,649.24,378.06,649.16,379.39z" fill="#000000"/>
<path stroke="#58595B" stroke-width="3" stroke-linecap="round" stroke-linejoin="round" d="M647.88,453.42  c1.54,22.01-12.75,64.71-22.25,87.89c-2.83,6.89-5.24,12.06-6.68,14.45c-0.91,1.5-3.71,10.15-7.73,15.6l0.13-2.73  c-1.76-0.03-3.65-1.52-5.66-5.27l-36.21-51.12l0.88-2.08l1.18-2.44c0.12-0.1,0.23-0.2,0.35-0.31l0.01-0.03  c0.12-0.08,0.23-0.17,0.34-0.27l11.5-19.91l30.25-52.38l22.35-38.71l2.22-3.85c0.26-0.04,0.51-0.09,0.75-0.14l9.46-12.68  c0.13-0.02,0.26-0.03,0.39-0.05c0.08-1.33,0.05-2.75-0.06-4.26c0.07-0.08,0.13-0.17,0.2-0.26  C656.65,401.61,647.88,453.42,647.88,453.42z" fill="#000000"/>
<path stroke="#58595B" stroke-width="3" stroke-linecap="round" stroke-linejoin="round" d="M611.35,568.63l-0.13,2.73  c-0.3,0.42-0.62,0.82-0.94,1.2c-1.44-0.09-2.89-0.17-4.34-0.24c-0.92-0.05-1.84-0.09-2.76-0.12c-34.91-1.25-71.64,3.52-103.73-3.57  c-64.61-14.27-83.39-48-74.2-100.88c2.07-11.95,4.97-22.11,8.56-30.59c5.65-13.38,13.03-22.57,21.68-27.99  c1.58-1,3.21-1.87,4.88-2.61c0.8,3.04,1.94,5.84,3.49,8.35c15.33,24.88,56.01,84.82,87.28,95.08c7.53,2.47,14.5,2.07,20.45-2.38  l-0.05,0.11c-0.07,0.06-0.14,0.12-0.22,0.18l-0.96,2.26l-0.95,1.98l0.07,0.1l36.21,51.12C607.7,567.11,609.59,568.6,611.35,568.63z" fill="#000000"/>
<path fill="#000000" stroke="#58595B" stroke-width="5" stroke-linecap="round" stroke-linejoin="round" d="M441.696,63.612  c1.235,14.045-2.954,19.455-10.131,21.246c-2.921,0.74-6.338,0.879-10.086,0.74v-3.479H391.65v2.936  c-1.764,0.139-3.45,0.289-5.071,0.428c-0.022,0.012-0.055,0.012-0.077,0.012c-14.893,1.26-23.083,1.04-13.151-21.882  c6.294-14.53-10.439-25.674,33.643-27.743C461.472,33.314,439.15,34.725,441.696,63.612z"/>
<path fill="#000000" stroke="#58595B" stroke-width="5" stroke-linecap="round" stroke-linejoin="round" d="M458.98,409.17  c-8.965,5.42-16.615,14.61-22.471,27.99c-9.525-4.77-20.263-20.71-29.228-20.32c-12.189,0.52-24.16,27.59-36.359,28.03  c-3.213,0.12-7.286-1.88-11.132-4.81c0.425-6.69,0.643-12.86,0.663-18.54c0.021-4.92-0.104-9.48-0.363-13.7  c12.655-9.51,30.441-18.25,30.441-18.25V81.71h32.587v308.04C423.118,389.75,449.455,399.83,458.98,409.17z"/>
<path fill="#000000" stroke="#58595B" stroke-width="2.6977" stroke-linecap="round" stroke-linejoin="round" d="M390.06,359.05h0.47  h32.53 M390.06,341.82h0.47h32.53 M390.06,324.59h0.47h32.53 M390.06,307.37h0.47h32.53 M390.06,290.14h0.47h32.53 M390.06,272.91  h0.47h32.53 M390.06,255.69h0.47h32.53 M390.06,238.46h0.47h32.53 M390.06,221.23h0.47h32.53 M390.06,204.01h0.47h32.53   M390.06,186.78h0.47h32.53 M390.06,169.55h0.47h32.53 M390.06,152.33h0.47h32.53"/>
</svg>