<svg xmlns="http://www.w3.org/2000/svg" xmlns:xlink="http://www.w3.org/1999/xlink" version="1.1" id="Calque_1" x="0px" y="0px" width="100px" height="100px" viewBox="0 0 100 100" enable-background="new 0 0 100 100" xml:space="preserve">
<g>
	<path d="M60.445,6.399v30.726h-6.847v-4.631H19.5v4.631H6.4v56.477h87.2V6.399H60.445z M21.277,34.271h30.544v2.854H21.277V34.271z    M60.573,91.822h-3.26v-8.182h3.26V91.822z M91.823,91.822H62.349v-9.959h-6.813v9.959H8.177V38.901h54.045V8.176h29.601V91.822z"/>
	<path d="M10.557,58.459h6.813v-6.816h-6.813V58.459z M12.334,53.42h3.26v3.26h-3.26V53.42z"/>
	<path d="M19.553,58.459h6.814v-6.816h-6.814V58.459z M21.33,53.42h3.26v3.26h-3.26V53.42z"/>
	<path d="M28.549,58.459h6.813v-6.816h-6.813V58.459z M30.326,53.42h3.26v3.26h-3.26V53.42z"/>
	<path d="M37.544,58.459h6.814v-6.816h-6.814V58.459z M39.321,53.42h3.261v3.26h-3.261V53.42z"/>
	<path d="M46.54,58.459h6.814v-6.816H46.54V58.459z M48.317,53.42h3.26v3.26h-3.26V53.42z"/>
	<path d="M55.536,58.459h6.813v-6.816h-6.813V58.459z M57.312,53.42h3.26v3.26h-3.26V53.42z"/>
	<path d="M71.346,51.643h-6.814v6.816h6.814V51.643z M69.568,56.68h-3.26v-3.26h3.26V56.68z"/>
	<path d="M73.527,58.459h6.813v-6.816h-6.813V58.459z M75.303,53.42h3.26v3.26h-3.26V53.42z"/>
	<path d="M82.522,58.459h6.813v-6.816h-6.813V58.459z M84.298,53.42h3.261v3.26h-3.261V53.42z"/>
	<path d="M10.557,48.383h6.813V41.57h-6.813V48.383z M12.334,43.346h3.26v3.26h-3.26V43.346z"/>
	<path d="M19.553,48.383h6.814V41.57h-6.814V48.383z M21.33,43.346h3.26v3.26h-3.26V43.346z"/>
	<path d="M28.549,48.383h6.813V41.57h-6.813V48.383z M30.326,43.346h3.26v3.26h-3.26V43.346z"/>
	<path d="M37.544,48.383h6.814V41.57h-6.814V48.383z M39.321,43.346h3.261v3.26h-3.261V43.346z"/>
	<path d="M46.54,48.383h6.814V41.57H46.54V48.383z M48.317,43.346h3.26v3.26h-3.26V43.346z"/>
	<path d="M55.536,48.383h6.813V41.57h-6.813V48.383z M57.312,43.346h3.26v3.26h-3.26V43.346z"/>
	<path d="M71.346,41.57h-6.814v6.813h6.814V41.57z M69.568,46.606h-3.26v-3.26h3.26V46.606z"/>
	<path d="M73.527,48.383h6.813V41.57h-6.813V48.383z M75.303,43.346h3.26v3.26h-3.26V43.346z"/>
	<path d="M82.522,48.383h6.813V41.57h-6.813V48.383z M84.298,43.346h3.261v3.26h-3.261V43.346z"/>
	<path d="M10.557,68.531h6.813v-6.814h-6.813V68.531z M12.334,63.494h3.26v3.26h-3.26V63.494z"/>
	<path d="M19.553,68.531h6.814v-6.814h-6.814V68.531z M21.33,63.494h3.26v3.26h-3.26V63.494z"/>
	<path d="M28.549,68.531h6.813v-6.814h-6.813V68.531z M30.326,63.494h3.26v3.26h-3.26V63.494z"/>
	<path d="M37.544,68.531h6.814v-6.814h-6.814V68.531z M39.321,63.494h3.261v3.26h-3.261V63.494z"/>
	<path d="M46.54,68.531h6.814v-6.814H46.54V68.531z M48.317,63.494h3.26v3.26h-3.26V63.494z"/>
	<path d="M55.536,68.531h6.813v-6.814h-6.813V68.531z M57.312,63.494h3.26v3.26h-3.26V63.494z"/>
	<path d="M71.346,61.717h-6.814v6.814h6.814V61.717z M69.568,66.754h-3.26v-3.26h3.26V66.754z"/>
	<path d="M73.527,68.531h6.813v-6.814h-6.813V68.531z M75.303,63.494h3.26v3.26h-3.26V63.494z"/>
	<path d="M82.522,68.531h6.813v-6.814h-6.813V68.531z M84.298,63.494h3.261v3.26h-3.261V63.494z"/>
	<path d="M10.557,78.604h6.813v-6.812h-6.813V78.604z M12.334,73.568h3.26v3.258h-3.26V73.568z"/>
	<path d="M19.553,78.604h6.814v-6.812h-6.814V78.604z M21.33,73.568h3.26v3.258h-3.26V73.568z"/>
	<path d="M28.549,78.604h6.813v-6.812h-6.813V78.604z M30.326,73.568h3.26v3.258h-3.26V73.568z"/>
	<path d="M37.544,78.604h6.814v-6.812h-6.814V78.604z M39.321,73.568h3.261v3.258h-3.261V73.568z"/>
	<path d="M46.54,78.604h6.814v-6.812H46.54V78.604z M48.317,73.568h3.26v3.258h-3.26V73.568z"/>
	<path d="M55.536,78.604h6.813v-6.812h-6.813V78.604z M57.312,73.568h3.26v3.258h-3.26V73.568z"/>
	<path d="M71.346,71.791h-6.814v6.812h6.814V71.791z M69.568,76.826h-3.26v-3.258h3.26V76.826z"/>
	<path d="M73.527,78.604h6.813v-6.812h-6.813V78.604z M75.303,73.568h3.26v3.258h-3.26V73.568z"/>
	<path d="M82.522,78.604h6.813v-6.812h-6.813V78.604z M84.298,73.568h3.261v3.258h-3.261V73.568z"/>
	<path d="M72.796,35.239h8.124v-6.91h6.911v-8.124h-6.911v-6.911h-8.124v6.911h-6.91v8.124h6.91V35.239z M67.663,26.552v-4.568   h6.911v-6.912h4.569v6.912h6.912v4.568h-6.912v6.911h-4.569v-6.911H67.663z"/>
</g>
</svg>