<?xml version="1.0" encoding="utf-8"?>
<!-- Generator: Adobe Illustrator 16.0.0, SVG Export Plug-In . SVG Version: 6.00 Build 0)  -->
<!DOCTYPE svg PUBLIC "-//W3C//DTD SVG 1.1//EN" "http://www.w3.org/Graphics/SVG/1.1/DTD/svg11.dtd">
<svg version="1.1" id="Layer_1" xmlns="http://www.w3.org/2000/svg" xmlns:xlink="http://www.w3.org/1999/xlink" x="0px" y="0px"
	 width="154.359px" height="133.912px" viewBox="0 0 154.359 133.912" enable-background="new 0 0 154.359 133.912"
	 xml:space="preserve">
<g>
	<g opacity="0.6">
		<g>
			<ellipse fill="#4788C8" cx="74.013" cy="68.402" rx="8.802" ry="2.815"/>
			<path fill="#4788C8" d="M65.211,70.235v4.224c0,0,1.984,2.508,8.701,2.508c6.718,0,8.903-2.444,8.903-2.444v-4.525
				c0,0-2.16,2.264-8.903,2.264C67.168,72.257,65.211,70.235,65.211,70.235z"/>
			<path fill="#4788C8" d="M65.211,76.088v4.224c0,0,1.984,2.508,8.701,2.508c6.718,0,8.903-2.443,8.903-2.443v-4.525
				c0,0-2.16,2.266-8.903,2.266C67.168,78.106,65.211,76.088,65.211,76.088z"/>
			<path fill="#4788C8" d="M65.211,81.899v4.224c0,0,1.984,2.508,8.701,2.508c6.718,0,8.903-2.446,8.903-2.446V81.66
				c0,0-2.16,2.264-8.903,2.264C67.168,83.92,65.211,81.899,65.211,81.899z"/>
		</g>
		<path fill="#81D3F0" d="M89.822,82.545c0-0.39,0-1.467,0-2.03c0-0.697-0.551-5.021-5.852-5.021c-5.305,0-5.849,4.208-5.849,5.021
			c0,0.651,0,1.658,0,2.03H77.19c0,0,0,10.099,0,10.39s0.24,0.465,0.704,0.465c0.465,0,11.725,0,12.218,0
			c0.494,0,0.639-0.112,0.639-0.465c0-0.349,0-10.39,0-10.39H89.822z M82.463,90.851l0.99-2.691
			c-0.573-0.215-0.979-0.764-0.979-1.408c0-0.828,0.672-1.5,1.5-1.5c0.824,0,1.502,0.672,1.502,1.5c0,0.646-0.411,1.193-0.984,1.408
			l0.992,2.691H82.463z M87.528,82.545h-7.253c0-0.396,0-1.471,0-1.685c0-0.26,0.203-3.396,3.695-3.396
			c3.488,0,3.558,3.076,3.558,3.396C87.528,81.12,87.528,82.16,87.528,82.545z"/>
	</g>
	<path opacity="0.6" fill="#4788C8" enable-background="new    " d="M49.148,40.837l-33.113,0.159
		c-1.9,0.009-3.434,1.557-3.425,3.458l0.312,64.779c0.014,1.897,1.562,3.435,3.458,3.426l33.112-0.159
		c1.9-0.009,3.434-1.56,3.425-3.458l-0.312-64.779C52.596,42.361,51.048,40.828,49.148,40.837z M32.931,111.614
		c-1.743,0.008-3.163-1.398-3.17-3.143c-0.014-1.742,1.396-3.162,3.139-3.173c1.743-0.008,3.162,1.397,3.17,3.144
		C36.079,110.187,34.672,111.604,32.931,111.614z M50.073,103.396l-34.364,0.166l-0.246-51.208l34.363-0.165L50.073,103.396z"/>
	<g>
		<text transform="matrix(1 0 0 1 17.2122 67.5664)" fill="#AAD485" font-family="'Arial-Black'" font-size="11.2139">1100</text>
		<text transform="matrix(1 0 0 1 17.2122 81.3281)" fill="#AAD485" font-family="'Arial-Black'" font-size="11.2139">1010</text>
		<text transform="matrix(1 0 0 1 17.7205 94.5811)" fill="#AAD485" font-family="'Arial-Black'" font-size="11.2139">0101</text>
	</g>
	<g opacity="0.6">
		<path fill="#FBAB2C" d="M123.043,58.697c9.517,0,17.229,8.74,17.229,19.52c0,10.778-7.712,19.521-17.229,19.521
			c-9.509,0-17.223-8.737-17.223-19.521C105.82,67.438,113.534,58.697,123.043,58.697z"/>
		<path fill="#4788C8" d="M105.82,72.474h0.108c6.293,0,11.808-2.164,14.903-5.421c3.191,2.905,8.396,4.802,14.272,4.802
			c1.586,0,3.121-0.141,4.582-0.396c-2.496-8.113-9.073-13.906-16.789-13.906C114.862,57.549,108.067,63.831,105.82,72.474z"/>
		<path fill="#FFFFFF" d="M128.497,76.493c-1.742,0-3.157,1.415-3.157,3.158c0,1.742,1.415,3.158,3.157,3.158
			c1.744,0,3.16-1.416,3.16-3.158C131.657,77.908,130.241,76.493,128.497,76.493z M117.591,76.493c-1.739,0-3.154,1.415-3.154,3.158
			c0,1.742,1.415,3.158,3.154,3.158c1.743,0,3.157-1.416,3.157-3.158C120.748,77.908,119.334,76.493,117.591,76.493z"/>
		<path fill="#4788C8" d="M117.591,78.217c-0.792,0-1.435,0.642-1.435,1.437s0.643,1.438,1.435,1.438
			c0.79,0,1.438-0.643,1.438-1.438C119.025,78.856,118.381,78.217,117.591,78.217z M128.497,78.217
			c-0.791,0-1.432,0.642-1.432,1.437s0.641,1.438,1.432,1.438c0.792,0,1.438-0.643,1.438-1.438
			C129.934,78.856,129.289,78.217,128.497,78.217z"/>
		<path fill="#FFFFFF" d="M123.109,90.865c-1.575,0-2.797-0.793-2.874-0.847c-0.396-0.269-0.504-0.803-0.242-1.192
			c0.266-0.396,0.796-0.502,1.19-0.242c0.081,0.052,1.898,1.21,3.558,0.021c0.386-0.271,0.923-0.188,1.204,0.196
			c0.276,0.386,0.188,0.925-0.199,1.202C124.846,90.649,123.93,90.865,123.109,90.865z"/>
		<path fill="#FBAB2C" d="M123.043,93.717c-11.729,0-21.241,8.609-21.241,19.232h42.483
			C144.285,102.326,134.775,93.717,123.043,93.717z"/>
	</g>
	
		<line opacity="0.6" fill="none" stroke="#95C0C9" stroke-width="6" stroke-miterlimit="10" enable-background="new    " x1="97.637" y1="44.457" x2="97.637" y2="112.849"/>
	
		<line opacity="0.6" fill="none" stroke="#95C0C9" stroke-width="6" stroke-miterlimit="10" enable-background="new    " x1="58.137" y1="44.457" x2="58.137" y2="112.849"/>
</g>
</svg>
