<?xml version="1.0" encoding="utf-8"?>
<!-- Generator: Adobe Illustrator 16.0.0, SVG Export Plug-In . SVG Version: 6.00 Build 0)  -->
<!DOCTYPE svg PUBLIC "-//W3C//DTD SVG 1.1//EN" "http://www.w3.org/Graphics/SVG/1.1/DTD/svg11.dtd">
<svg version="1.1" id="Layer_1" xmlns="http://www.w3.org/2000/svg" xmlns:xlink="http://www.w3.org/1999/xlink" x="0px" y="0px"
	 width="154.359px" height="133.912px" viewBox="0 0 154.359 133.912" enable-background="new 0 0 154.359 133.912"
	 xml:space="preserve">
<g>
	<text transform="matrix(1 0 0 1 17.2122 67.5664)" fill="#AAD485" font-family="'Arial-Black'" font-size="11.2139">1100001100</text>
	<text transform="matrix(1 0 0 1 17.2122 81.3281)" fill="#AAD485" font-family="'Arial-Black'" font-size="11.2139">1010110001</text>
	<text transform="matrix(1 0 0 1 17.7205 94.5811)" fill="#AAD485" font-family="'Arial-Black'" font-size="11.2139">0101100111</text>
	<text transform="matrix(1 0 0 1 17.7205 109.1299)" fill="#AAD485" font-family="'Arial-Black'" font-size="11.2139">0101100110</text>
	<text transform="matrix(1 0 0 1 -28.4304 67.5664)" fill="#AAD485" font-family="'Arial-Black'" font-size="11.2139">110000</text>
	<text transform="matrix(1 0 0 1 -28.4304 81.3281)" fill="#AAD485" font-family="'Arial-Black'" font-size="11.2139">101011</text>
	<text transform="matrix(1 0 0 1 17.2122 41.8916)" fill="#AAD485" font-family="'Arial-Black'" font-size="11.2139">1100001101</text>
	<text transform="matrix(1 0 0 1 17.2122 55.6533)" fill="#AAD485" font-family="'Arial-Black'" font-size="11.2139">1010110011</text>
	<text transform="matrix(1 0 0 1 -28.4304 41.8916)" fill="#AAD485" font-family="'Arial-Black'" font-size="11.2139">110000</text>
	<text transform="matrix(1 0 0 1 -28.4304 55.6533)" fill="#AAD485" font-family="'Arial-Black'" font-size="11.2139">101011</text>
	<text transform="matrix(1 0 0 1 -27.9216 94.5811)" fill="#AAD485" font-family="'Arial-Black'" font-size="11.2139">010110</text>
	<text transform="matrix(1 0 0 1 -27.9216 109.1299)" fill="#AAD485" font-family="'Arial-Black'" font-size="11.2139">010110</text>
	<text transform="matrix(1 0 0 1 17.2122 121.5)" fill="#AAD485" font-family="'Arial-Black'" font-size="11.2139">1010110001</text>
	<text transform="matrix(1 0 0 1 -27.9216 121.5)" fill="#AAD485" font-family="'Arial-Black'" font-size="11.2139">101011</text>
</g>
</svg>
