<?xml version="1.0" encoding="utf-8"?>
<!-- Generator: Adobe Illustrator 16.0.0, SVG Export Plug-In . SVG Version: 6.00 Build 0)  -->
<!DOCTYPE svg PUBLIC "-//W3C//DTD SVG 1.1//EN" "http://www.w3.org/Graphics/SVG/1.1/DTD/svg11.dtd">
<svg version="1.1" id="Layer_1" xmlns="http://www.w3.org/2000/svg" xmlns:xlink="http://www.w3.org/1999/xlink" x="0px" y="0px"
	 width="154.359px" height="133.912px" viewBox="0 0 154.359 133.912" enable-background="new 0 0 154.359 133.912"
	 xml:space="preserve">
<g>
	<g>
		<g>
			<text transform="matrix(1 0 0 1 67.8997 10.7627)" fill="#A9D384" font-family="'Arial-Black'" font-size="6.5816">1000</text>
			<text transform="matrix(1 0 0 1 67.8997 18.8398)" fill="#A9D384" font-family="'Arial-Black'" font-size="6.5816">0011</text>
			<text transform="matrix(1 0 0 1 68.2 26.6182)" fill="#A9D384" font-family="'Arial-Black'" font-size="6.5816">0110</text>
		</g>
	</g>
	<rect x="61.23" y="4" fill="none" stroke="#FAAA2C" stroke-width="1.2456" stroke-miterlimit="10" width="31.24" height="24.253"/>
</g>
<g>
	<g>
		<g>
			<g>
				<text transform="matrix(1 0 0 1 14.1829 80.9736)" fill="#A9D384" font-family="'Arial-Black'" font-size="6.5816">1100</text>
				<text transform="matrix(1 0 0 1 14.1829 89.0498)" fill="#A9D384" font-family="'Arial-Black'" font-size="6.5816">1010</text>
				<text transform="matrix(1 0 0 1 14.4822 96.8291)" fill="#A9D384" font-family="'Arial-Black'" font-size="6.5816">0101</text>
			</g>
		</g>
		
			<rect x="7.512" y="72.185" fill="none" stroke="#FAAA2C" stroke-width="1.2456" stroke-miterlimit="10" width="31.236" height="29.037"/>
	</g>
	<g>
		<g>
			<g>
				<text transform="matrix(1 0 0 1 51.2463 80.9736)" fill="#A9D384" font-family="'Arial-Black'" font-size="6.5816">1100</text>
				<text transform="matrix(1 0 0 1 51.2463 89.0498)" fill="#A9D384" font-family="'Arial-Black'" font-size="6.5816">1010</text>
				<text transform="matrix(1 0 0 1 51.5457 96.8291)" fill="#A9D384" font-family="'Arial-Black'" font-size="6.5816">0101</text>
			</g>
		</g>
		
			<rect x="44.578" y="72.185" fill="none" stroke="#FAAA2C" stroke-width="1.2456" stroke-miterlimit="10" width="31.239" height="29.037"/>
	</g>
	<g>
		<g>
			<g>
				<text transform="matrix(1 0 0 1 88.3123 80.9736)" fill="#A9D384" font-family="'Arial-Black'" font-size="6.5816">1100</text>
				<text transform="matrix(1 0 0 1 88.3123 89.0498)" fill="#A9D384" font-family="'Arial-Black'" font-size="6.5816">1010</text>
				<text transform="matrix(1 0 0 1 88.613 96.8291)" fill="#A9D384" font-family="'Arial-Black'" font-size="6.5816">0101</text>
			</g>
		</g>
		
			<rect x="81.642" y="72.185" fill="none" stroke="#FAAA2C" stroke-width="1.2456" stroke-miterlimit="10" width="31.237" height="29.037"/>
	</g>
	<g>
		<g>
			<g>
				<text transform="matrix(1 0 0 1 125.3787 80.9736)" fill="#A9D384" font-family="'Arial-Black'" font-size="6.5816">1100</text>
				<text transform="matrix(1 0 0 1 125.3787 89.0498)" fill="#A9D384" font-family="'Arial-Black'" font-size="6.5816">1010</text>
				<text transform="matrix(1 0 0 1 125.6775 96.8291)" fill="#A9D384" font-family="'Arial-Black'" font-size="6.5816">0101</text>
			</g>
		</g>
		
			<rect x="118.709" y="72.185" fill="none" stroke="#FAAA2C" stroke-width="1.2456" stroke-miterlimit="10" width="31.238" height="29.037"/>
	</g>
</g>
<g>
	<g>
		<g>
			<g>
				<text transform="matrix(1 0 0 1 32.1453 46.083)" fill="#A9D384" font-family="'Arial-Black'" font-size="6.5816">1100</text>
				<text transform="matrix(1 0 0 1 32.1453 54.1602)" fill="#A9D384" font-family="'Arial-Black'" font-size="6.5816">1010</text>
				<text transform="matrix(1 0 0 1 32.4417 61.9395)" fill="#A9D384" font-family="'Arial-Black'" font-size="6.5816">0101</text>
			</g>
		</g>
		
			<rect x="25.474" y="37.295" fill="none" stroke="#FAAA2C" stroke-width="1.2456" stroke-miterlimit="10" width="31.235" height="29.037"/>
	</g>
	<g>
		<g>
			<g>
				<text transform="matrix(1 0 0 1 104.7996 46.084)" fill="#A9D384" font-family="'Arial-Black'" font-size="6.5816">1100</text>
				<text transform="matrix(1 0 0 1 104.7996 54.1611)" fill="#A9D384" font-family="'Arial-Black'" font-size="6.5816">1010</text>
				<text transform="matrix(1 0 0 1 105.0974 61.9404)" fill="#A9D384" font-family="'Arial-Black'" font-size="6.5816">0101</text>
			</g>
		</g>
		
			<rect x="98.129" y="37.295" fill="none" stroke="#FAAA2C" stroke-width="1.2456" stroke-miterlimit="10" width="31.24" height="29.037"/>
	</g>
</g>
<g>
	
		<line fill="none" stroke="#FAAA2C" stroke-width="1.2456" stroke-miterlimit="10" x1="67.943" y1="28.253" x2="39.094" y2="37.295"/>
	
		<line fill="none" stroke="#FAAA2C" stroke-width="1.2456" stroke-miterlimit="10" x1="85.223" y1="28.253" x2="114.072" y2="37.295"/>
</g>
<g>
	
		<line fill="none" stroke="#FAAA2C" stroke-width="1.2456" stroke-miterlimit="10" x1="33.928" y1="66.456" x2="23.459" y2="72.104"/>
	
		<line fill="none" stroke="#FAAA2C" stroke-width="1.2456" stroke-miterlimit="10" x1="107.732" y1="66.456" x2="97.261" y2="72.104"/>
	
		<line fill="none" stroke="#FAAA2C" stroke-width="1.2456" stroke-miterlimit="10" x1="123.373" y1="66.456" x2="133.845" y2="72.104"/>
	
		<line fill="none" stroke="#FAAA2C" stroke-width="1.2456" stroke-miterlimit="10" x1="49.568" y1="66.456" x2="60.04" y2="72.104"/>
</g>
</svg>
