<svg xmlns:x="http://ns.adobe.com/Extensibility/1.0/" xmlns:i="http://ns.adobe.com/AdobeIllustrator/10.0/" xmlns:graph="http://ns.adobe.com/Graphs/1.0/" xmlns="http://www.w3.org/2000/svg" xmlns:xlink="http://www.w3.org/1999/xlink" version="1.1" id="Layer_1" x="0px" y="0px" width="100px" height="100px" viewBox="0 0 100 100" enable-background="new 0 0 100 100" xml:space="preserve">
	<g>
		<path fill="#000000" d="M13.978,81.65c4.408,0,7.977-3.582,7.977-7.991c0-4.407-3.569-7.981-7.977-7.981    c-4.409,0-7.992,3.572-7.992,7.981S9.568,81.65,13.978,81.65z"/>
		<path fill="#000000" d="M78.113,36.355c-0.26-0.174-0.536-0.317-0.813-0.437l-27.547-8.223c-0.112-0.039-0.226-0.073-0.343-0.102    l-0.041-0.012l-0.001,0.001c-0.317-0.077-0.646-0.123-0.988-0.123c-2.12,0-4.192,2.48-4.192,4.246L44.157,51.06L24.856,69.136    c-2.513,3.176-1.188,6.977-1.188,6.977c1.384,4.209,6.116,4.357,6.116,4.357l34.439,0.011c1.837,0,3.329-1.501,3.329-3.364    c0-1.866-1.492-3.366-3.329-3.366l-23.776-0.039L50.46,63.637c1.431-1.487,2.159-3.155,2.159-5.328    c0-1.955-0.156-19.049-0.177-21.304l21.575,6.559c1.783,0.771,3.906,0.2,5.081-1.427C80.431,40.26,79.989,37.667,78.113,36.355z"/>
		<path fill="#000000" d="M76.087,34.642l8.772-8.792c1.513-1.22,1.993-3.365,1.1-5.162c-1.042-2.052-3.543-2.866-5.576-1.815    c-0.275,0.15-0.531,0.327-0.766,0.517L67.077,31.953L76.087,34.642z"/>
		<polygon fill="#000000" points="59.088,39.956 53.832,45.22 53.832,56.947 68.063,42.684   "/>
		<path fill="#000000" d="M76.588,43.903c-10.424,0-18.874,8.45-18.874,18.874c0,3.652,1.04,7.059,2.836,9.948l4.158,0.007    c2.354,0,4.265,1.922,4.265,4.312c0,0.978-0.323,1.873-0.863,2.595c2.55,1.284,5.429,2.012,8.479,2.012    c10.423,0,18.873-8.449,18.873-18.873S87.011,43.903,76.588,43.903z"/>
	</g>
</svg>