<svg xmlns="http://www.w3.org/2000/svg" xmlns:xlink="http://www.w3.org/1999/xlink" version="1.1" id="Layer_1" x="0px" y="0px" width="64.5161290323px" height="100px" viewBox="0 0 100 155" enable-background="new 0 0 100 155" xml:space="preserve">
<g>
	<polygon fill-rule="evenodd" clip-rule="evenodd" points="0.007,132.992 22.4,154.698 48.354,122.254 28.85,99.542  "/>
	<path fill-rule="evenodd" clip-rule="evenodd" d="M72.121,95.648c4.496-5.196,16.787-19.413,20.101-23.469   c4.083-4.988,6.24-7.176,4.579-15.737c-1.341-6.901-2.435-12.501-6.056-27.577L52.837,73.259L72.121,95.648z"/>
	<path fill-rule="evenodd" clip-rule="evenodd" d="M50.688,30.597c11.39,0,21.462,3.114,27.749,7.889l11.47-13.352   C86.64,12.399,72.453,0.162,50.312,0.302c-21.016,0.132-35.674,12.611-39.41,24.267l12.006,13.938   C29.195,33.716,39.28,30.597,50.688,30.597z"/>
	<path fill-rule="evenodd" clip-rule="evenodd" d="M9.87,27.535c-3.446,15.302-4.98,20.679-6.321,27.58   c-1.662,8.562,0.759,10.749,4.843,15.737c3.313,4.055,66.819,77.897,71.315,83.094l20.3-20.73L9.87,27.535z"/>
</g>
</svg>