<svg xmlns="http://www.w3.org/2000/svg" xmlns:xlink="http://www.w3.org/1999/xlink" version="1.1" id="Layer_1" x="0px" y="0px" width="100px" height="100px" viewBox="0 0 100 100" enable-background="new 0 0 100 100" xml:space="preserve">
<circle cx="17.091" cy="47.697" r="6.985"/>
<path d="M23.765,79.086c0,1.016,1.185,1.838,2.647,1.838l0,0c1.463,0,2.648-0.822,2.648-1.838v-24.51  c0-1.014-1.185-1.836-2.648-1.836l0,0c-1.462,0-2.647,0.822-2.647,1.836V79.086z"/>
<path d="M27.385,78.693c0-1.287-0.603-2.33-1.347-2.33H20.89c-0.745,0-1.348,1.043-1.348,2.33l0,0c0,1.289,0.603,2.332,1.348,2.332  h5.147C26.782,81.025,27.385,79.982,27.385,78.693L27.385,78.693z"/>
<path d="M34.745,24.411c0.154-0.919-0.94-1.869-2.445-2.122l0,0c-1.504-0.252-2.848,0.291-3.002,1.209l-3.72,22.213  c-0.155,0.921,0.939,1.871,2.444,2.121l0,0c1.504,0.253,2.847-0.288,3.002-1.209L34.745,24.411z"/>
<path d="M48.597,63.836c1.958,0.563,4.25-1.427,5.123-4.448l0,0c0.869-3.02-0.014-5.926-1.974-6.491L27.553,45.93  c-1.958-0.563-4.25,1.429-5.122,4.448l0,0c-0.869,3.021,0.014,5.926,1.972,6.491L48.597,63.836z"/>
<path d="M77.048,80.522c2.008,1.139,4.463,0.606,5.488-1.195l0,0c1.023-1.8,0.227-4.186-1.781-5.328L55.961,59.906  c-2.007-1.143-4.465-0.606-5.489,1.193l0,0c-1.024,1.802-0.226,4.186,1.782,5.326L77.048,80.522z"/>
<path d="M80.316,74.181c2.174,1.056,4.68,0.375,5.599-1.521l0,0c0.917-1.893-0.102-4.284-2.275-5.338L56.784,54.312  c-2.174-1.054-4.681-0.373-5.599,1.522l0,0c-0.918,1.896,0.102,4.282,2.275,5.336L80.316,74.181z"/>
<path d="M78.507,77.657c-0.706,1.099-0.77,2.312-0.144,2.715l4.329,2.785c0.627,0.402,1.705-0.16,2.411-1.259l0,0  c0.706-1.098,0.771-2.313,0.144-2.716l-4.329-2.783C80.291,75.996,79.213,76.56,78.507,77.657L78.507,77.657z"/>
<path d="M89.126,74.955c0.83-1.152,1.017-2.439,0.411-2.875l-4.174-3.011c-0.604-0.436-1.767,0.145-2.599,1.297l0,0  c-0.833,1.154-1.017,2.441-0.413,2.877l4.175,3.011C87.129,76.691,88.294,76.108,89.126,74.955L89.126,74.955z"/>
<path d="M35.541,19.432c-1.019-0.839-2.228-1.054-2.701-0.48l-3.271,3.973c-0.474,0.576-0.032,1.721,0.988,2.561l0,0  c1.017,0.838,2.228,1.052,2.7,0.479l3.272-3.974C37.002,21.415,36.56,20.27,35.541,19.432L35.541,19.432z"/>
</svg>