<svg xmlns="http://www.w3.org/2000/svg" xmlns:xlink="http://www.w3.org/1999/xlink" version="1.0" id="Layer_1" x="0px" y="0px" width="100px" height="100px" viewBox="0 0 100 100" enable-background="new 0 0 100 100" xml:space="preserve">
<path d="M67.243,62.711l18.774-18.773c8.354-8.362,8.376-21.968-0.005-30.348c-8.38-8.38-21.987-8.36-30.347-0.005L36.89,32.358  l-1.806-1.804L14.611,51.028c-9.349,9.355-9.37,24.58,0.007,33.957c9.377,9.376,24.6,9.356,33.955,0.006l20.475-20.473  L67.243,62.711z M59.135,17.286c6.071-6.068,15.766-6.378,22.205-0.891L51.137,46.599L40.479,35.94L59.135,17.286z M18.238,54.622  l16.875-16.875l14.319,14.317L19.222,82.272c-0.334-0.29-0.661-0.596-0.979-0.912C10.859,73.977,10.876,61.989,18.238,54.622z"/>
</svg>