<svg xmlns="http://www.w3.org/2000/svg" xmlns:xlink="http://www.w3.org/1999/xlink" version="1.0" id="svg" x="0px" y="0px" width="100px" height="100px" viewBox="0 0 100 100" enable-background="new 0 0 100 100" xml:space="preserve">
<path fill="#000000" d="M80,33.75H65.295l-9.045-4.522V25c0-0.166-0.036-0.323-0.096-0.468c1.498-2.001,2.596-4.501,2.596-7.032v-5  c0-5.481-2.773-8.488-8.035-8.733c-0.066-0.011-0.134-0.017-0.203-0.017h-1.024c-0.069,0-0.137,0.005-0.203,0.017  C44.024,4.012,41.25,7.019,41.25,12.5v5c0,2.53,1.097,5.031,2.595,7.032C43.786,24.677,43.75,24.834,43.75,25v4.228l-9.045,4.522H20  c-3.446,0-6.25,2.804-6.25,6.25v35c0,3.445,2.804,6.25,6.25,6.25h16.25V90c0,0.689,0.56,1.25,1.25,1.25s1.25-0.561,1.25-1.25v-8.75  h22.5V90c0,0.689,0.561,1.25,1.25,1.25s1.25-0.561,1.25-1.25v-8.75H80c3.445,0,6.25-2.805,6.25-6.25V40  C86.25,36.554,83.445,33.75,80,33.75z M43.75,12.5c0-4.322,1.928-6.25,6.25-6.25c4.322,0,6.25,1.928,6.25,6.25v5  c0,4.398-4.596,8.75-6.25,8.75c-1.655,0-6.25-4.352-6.25-8.75V12.5z M45.559,31.118c0.056-0.028,0.092-0.076,0.142-0.111  c0.074-0.052,0.149-0.098,0.21-0.164c0.055-0.06,0.09-0.128,0.132-0.196s0.089-0.132,0.118-0.208  c0.032-0.084,0.04-0.172,0.053-0.261c0.009-0.06,0.036-0.114,0.036-0.177v-2.956c1.313,1.061,2.664,1.706,3.75,1.706  s2.438-0.646,3.75-1.706V30c0,0.063,0.027,0.117,0.036,0.177c0.013,0.089,0.021,0.177,0.053,0.261  c0.029,0.077,0.075,0.14,0.118,0.208c0.042,0.068,0.077,0.137,0.132,0.196c0.062,0.066,0.136,0.112,0.21,0.164  c0.051,0.035,0.086,0.083,0.143,0.111l5.265,2.632h-19.41L45.559,31.118z M83.75,75c0,2.068-1.682,3.75-3.75,3.75H20  c-2.068,0-3.75-1.682-3.75-3.75V40c0-2.068,1.682-3.75,3.75-3.75h14.998c0.001,0,0.002,0,0.003,0s0.003,0,0.004,0h29.989  c0.001,0,0.003,0,0.004,0s0.002,0,0.003,0H80c2.068,0,3.75,1.682,3.75,3.75V75z M65,53.75H51.25v-2.5H62.5  c0.689,0,1.25-0.561,1.25-1.25c0-0.69-0.561-1.25-1.25-1.25H51.25v-2.5H60c0.689,0,1.25-0.56,1.25-1.25s-0.561-1.25-1.25-1.25h-8.75  V42.5c0-0.69-0.561-1.25-1.25-1.25c-0.69,0-1.25,0.56-1.25,1.25v1.25H40c-0.69,0-1.25,0.56-1.25,1.25s0.56,1.25,1.25,1.25h8.75v2.5  H37.5c-0.69,0-1.25,0.56-1.25,1.25c0,0.689,0.56,1.25,1.25,1.25h11.25v2.5H35c-0.69,0-1.25,0.561-1.25,1.25s0.56,1.25,1.25,1.25  h13.75V60c0,0.689,0.56,1.25,1.25,1.25c0.689,0,1.25-0.561,1.25-1.25v-3.75H65c0.689,0,1.25-0.561,1.25-1.25S65.689,53.75,65,53.75z   M42.5,63.75H35c-0.69,0-1.25,0.561-1.25,1.25s0.56,1.25,1.25,1.25h7.5c0.69,0,1.25-0.561,1.25-1.25S43.19,63.75,42.5,63.75z   M65,63.75h-7.5c-0.689,0-1.25,0.561-1.25,1.25s0.561,1.25,1.25,1.25H65c0.689,0,1.25-0.561,1.25-1.25S65.689,63.75,65,63.75z   M42.5,68.75h-5c-0.69,0-1.25,0.561-1.25,1.25s0.56,1.25,1.25,1.25h5c0.69,0,1.25-0.561,1.25-1.25S43.19,68.75,42.5,68.75z   M62.5,68.75h-5c-0.689,0-1.25,0.561-1.25,1.25s0.561,1.25,1.25,1.25h5c0.689,0,1.25-0.561,1.25-1.25S63.189,68.75,62.5,68.75z   M45,58.75H35c-0.69,0-1.25,0.561-1.25,1.25s0.56,1.25,1.25,1.25h10c0.69,0,1.25-0.561,1.25-1.25S45.69,58.75,45,58.75z M65,58.75  H55c-0.689,0-1.25,0.561-1.25,1.25s0.561,1.25,1.25,1.25h10c0.689,0,1.25-0.561,1.25-1.25S65.689,58.75,65,58.75z"/>
</svg>