<svg xmlns="http://www.w3.org/2000/svg" xmlns:xlink="http://www.w3.org/1999/xlink" version="1.0" x="0px" y="0px" width="100px" height="100px" viewBox="0 0 100 100" overflow="" enable-background="new 0 0 100 100" xml:space="preserve">
    <path d="M70.742,64.211H56.229c-0.635,0-1.152,0.517-1.152,1.151c0,0.323,0.138,0.613,0.353,0.822l10.222,10.223 h0.005c0.21,0.225,0.508,0.368,0.836,0.368c0.401,0,0.75-0.203,0.957-0.511c2.513-2.914,4.127-6.621,4.423-10.695 c0.012-0.068,0.021-0.137,0.021-0.207C71.894,64.728,71.382,64.211,70.742,64.211z"/>
    <path d="M52.175,60.804h16.13v-0.003c0,0,0.004,0.003,0.007,0.003c0.633,0,1.147-0.518,1.147-1.15 c-0.571-9.286-8-16.713-17.284-17.284l-0.004,0.002c-0.631,0.002-1.146,0.518-1.146,1.151v16.131 C51.025,60.286,51.54,60.804,52.175,60.804z"/>
    <path d="M59.204,75.312c0-0.001-0.004-0.004-0.004-0.007l-11.892-11.89V63.41c-0.203-0.207-0.324-0.488-0.324-0.797 h-0.003V45.803c-0.002-0.633-0.514-1.146-1.147-1.146l-0.003-0.002c-9.665,0.594-17.317,8.622-17.317,18.434 c0,10.203,8.268,18.471,18.468,18.471c4.653,0,8.901-1.719,12.148-4.558v-0.004c0.25-0.211,0.41-0.522,0.41-0.875 c0-0.312-0.127-0.599-0.331-0.805L59.204,75.312z"/>
    <path d="M50.198,15.93c2.62,0,4.73-2.11,4.73-4.723c0-2.611-2.11-4.73-4.73-4.73c-2.604,0-4.72,2.12-4.72,4.73 C45.478,13.82,47.594,15.93,50.198,15.93z"/>
    <path d="M77.102,6.361h-14.05c-1.431-2.846-4.078-4.972-7.267-5.671c-0.025-0.016-0.049-0.016-0.06-0.03 c-0.068-0.008-0.138-0.025-0.2-0.025c-0.426,0-0.77,0.347-0.77,0.767c0,0.328,0.211,0.607,0.501,0.709 c3.359,1.825,5.66,5.375,5.66,9.474h8.926c5.938,0,10.754,4.82,10.754,10.762v3.389c0,1.79-1.463,3.258-3.26,3.258H22.983 c-1.805,0-3.26-1.469-3.26-3.258v-3.389c0-5.942,4.817-10.762,10.752-10.762h8.93c0-1.897,0.491-3.672,1.356-5.224H23.739 c-7.246,0-13.114,5.88-13.114,13.125v67.392v0.004c0,7.25,5.869,13.117,13.114,13.117h53.366c7.249,0,13.117-5.867,13.117-13.117 v-0.004V19.487C90.223,12.241,84.349,6.361,77.102,6.361z M77.337,85.297c0,1.806-1.464,3.259-3.268,3.259H26.32 c-1.798,0-3.258-1.453-3.258-3.259V39.714c0-1.799,1.46-3.259,3.258-3.259h47.75c1.804,0,3.268,1.46,3.268,3.259V85.297z"/>
</svg>