<svg xmlns="http://www.w3.org/2000/svg" xmlns:xlink="http://www.w3.org/1999/xlink" version="1.1" id="Layer_1" x="0px" y="0px" width="96px" height="96px" viewBox="0 0 96 96" enable-background="new 0 0 96 96" xml:space="preserve">
<path d="M58,3c-4.416,0-8,3.584-8,8s3.584,8,8,8c4.408,0,8-3.584,8-8S62.416,3,58,3z"/>
<path d="M30,81H10c-2.208,0-4,1.792-4,4v4c0,2.212,1.792,4,4,4s4-1.788,4-4h12c0,2.212,1.792,4,4,4s4-1.788,4-4v-4  C34,82.792,32.208,81,30,81z"/>
<path d="M30.304,22.672l15.936,7.916c0.576,0.28,1.18,0.416,1.776,0.416c1.472,0,2.892-0.812,3.583-2.22  c0.977-1.984,0.172-4.388-1.808-5.368l-15.936-7.912c-1.984-0.992-4.38-0.18-5.36,1.8C27.52,19.28,28.328,21.688,30.304,22.672z"/>
<path d="M58,29c-2.208,0-4,1.792-4,4v14.752l-34.824,7.336c-2.164,0.452-3.544,2.58-3.088,4.74c0.456,2.164,2.584,3.544,4.74,3.088  l33.176-6.984v33.072c0,2.212,1.792,4,4,4s4-1.788,4-4v-56C62,30.792,60.208,29,58,29z"/>
<path d="M86,25H70c-2.208,0-4,1.792-4,4c0,2.212,1.792,4,4,4h16c2.208,0,4-1.788,4-4C90,26.792,88.208,25,86,25z"/>
</svg>