<svg xmlns="http://www.w3.org/2000/svg" xmlns:xlink="http://www.w3.org/1999/xlink" version="1.1" id="Calque_1" x="0px" y="0px" width="100px" height="100px" viewBox="0 0 100 100" enable-background="new 0 0 100 100" xml:space="preserve">
<g>
	<path d="M78.401,51.967c-0.218-0.014-0.419-0.035-0.64-0.035H50.187c-1.11,0-2.011-0.869-2.105-1.963   c-0.006-0.064-0.014-0.125-0.014-0.184v-27.98c0-2.388-1.025-4.651-2.812-6.204c-1.772-1.538-4.169-2.234-6.473-1.872   C18.952,16.837,4,34.556,4,54.942c0,22.993,18.436,41.703,41.102,41.703c20.095,0,37.559-15.169,40.618-35.285   c0.359-2.362-0.313-4.756-1.844-6.568C82.483,53.141,80.51,52.137,78.401,51.967z M79.86,60.438   c-2.622,17.204-17.567,30.189-34.758,30.189c-19.392,0-35.17-16.01-35.17-35.685c0-17.448,12.79-32.604,29.755-35.262   c0.105-0.02,0.219-0.028,0.323-0.028c0.51,0,0.999,0.183,1.385,0.519c0.469,0.41,0.739,1.004,0.739,1.633v27.98   c0,4.504,3.608,8.167,8.052,8.167h27.575c0.613,0,1.207,0.271,1.606,0.756C79.778,59.189,79.955,59.818,79.86,60.438z"/>
	<path d="M95.904,38.25C93.168,20.218,79.378,6.231,61.61,3.447c-2.31-0.359-4.701,0.334-6.468,1.871   c-1.789,1.558-2.823,3.817-2.823,6.201v34.145c0.095,1.102,0.995,1.972,2.106,1.972h27.575c0.214,0,0.423,0.014,0.64,0.034h5.314   c2.349,0,4.584-1.042,6.114-2.859C95.599,43.003,96.264,40.608,95.904,38.25z M89.563,40.901c-0.41,0.476-0.99,0.75-1.608,0.75   H58.252V11.519c0-0.625,0.272-1.218,0.749-1.627c0.47-0.406,1.103-0.59,1.703-0.494C75.91,11.78,87.697,23.74,90.039,39.166   C90.134,39.789,89.958,40.42,89.563,40.901z"/>
</g>
</svg>