<svg xmlns="http://www.w3.org/2000/svg" xmlns:xlink="http://www.w3.org/1999/xlink" version="1.1" id="Capa_1" x="0px" y="0px" width="90px" height="90px" viewBox="0 0 90 90" enable-background="new 0 0 90 90" xml:space="preserve">
<g>
	<g>
		<path d="M71.548,42.286c-0.117,0-0.234-0.012-0.353-0.038c-0.881-0.194-1.438-1.065-1.245-1.947    c0.691-3.147,1.834-11.255-2.486-18.55c-2.869-4.844-7.573-8.27-13.245-9.646c-13.821-3.353-24.365,6.433-27.267,17.351    l-0.218,0.952c-0.202,0.88-1.082,1.428-1.959,1.227c-0.88-0.203-1.429-1.08-1.226-1.959l0.231-1.005    C27.096,16.202,39.155,5.08,54.99,8.929c6.535,1.586,11.964,5.547,15.286,11.156c4.914,8.297,3.642,17.393,2.866,20.918    C72.975,41.766,72.299,42.286,71.548,42.286z"/>
	</g>
	<g>
		<path d="M44.488,89.716c-0.503,0-0.999-0.231-1.32-0.668c-0.533-0.728-0.375-1.75,0.352-2.284c3.229-2.367,6.168-5.119,8.737-8.18    c0.344-0.411,0.87-0.628,1.402-0.577c0.534,0.049,1.009,0.357,1.273,0.824c0.933,1.657,1.997,3.195,3.161,4.572    c0.583,0.689,0.496,1.72-0.193,2.302c-0.688,0.582-1.719,0.496-2.303-0.193c-0.825-0.976-1.604-2.022-2.327-3.128    c-2.365,2.586-4.987,4.939-7.817,7.015C45.161,89.613,44.823,89.716,44.488,89.716z"/>
	</g>
	<g>
		<path d="M32.996,87.562c-0.598,0-1.174-0.329-1.461-0.899c-0.406-0.806-0.083-1.788,0.724-2.194    c12.688-6.393,18.263-15.761,22.396-24.933c0.316-0.7,1.074-1.081,1.827-0.926c0.75,0.159,1.29,0.819,1.296,1.587    c0.001,0.113,0.164,11.391,6.698,18.598c0.606,0.669,0.556,1.702-0.113,2.309c-0.669,0.607-1.703,0.554-2.308-0.113    c-4.239-4.675-6.097-10.655-6.91-15c-4.139,7.789-10.253,15.772-21.417,21.397C33.493,87.506,33.242,87.562,32.996,87.562z"/>
	</g>
	<g>
		<path d="M78.36,57.522c-0.828,0-1.537-0.626-1.624-1.467c-0.416-4.047-0.116-9.079,0.822-13.805l0.034-0.168    c0.907-4.102,2.379-14.608-3.379-24.329c-3.956-6.68-10.399-11.392-18.145-13.27C37.4-0.058,23.232,12.922,19.374,27.441    l-0.335,1.454c-0.803,4.099-2.436,7.946-4.839,11.383c-0.516,0.74-1.533,0.92-2.275,0.402c-0.74-0.517-0.92-1.536-0.402-2.276    c2.141-3.061,3.595-6.49,4.321-10.192l0.36-1.559c4.27-16.07,19.958-30.375,40.638-25.346c8.607,2.086,15.776,7.336,20.185,14.78    c6.352,10.724,4.75,22.22,3.766,26.666l-0.026,0.133c-0.877,4.42-1.16,9.098-0.777,12.835c0.093,0.897-0.561,1.7-1.458,1.792    C78.472,57.52,78.416,57.522,78.36,57.522z"/>
	</g>
	<g>
		<path d="M73.529,68.175c-0.544,0-1.077-0.271-1.387-0.767c-5.334-8.513-3.086-22.607-2.27-26.725l0.041-0.208    c0.722-3.217,1.906-11.371-2.448-18.726c-2.869-4.843-7.573-8.269-13.245-9.646C40.398,8.747,29.855,18.54,26.953,29.455    l-0.218,0.952c-2.102,10.705-8.11,17.698-12.779,21.669c-0.687,0.585-1.72,0.501-2.304-0.186    c-0.585-0.688-0.502-1.719,0.186-2.303c4.272-3.634,9.771-10.031,11.701-19.861l0.243-1.057    c3.312-12.466,15.37-23.587,31.208-19.74c6.535,1.586,11.964,5.547,15.286,11.156c4.952,8.361,3.633,17.51,2.836,21.055    l-0.035,0.183c-0.538,2.715-2.982,16.665,1.835,24.352c0.479,0.764,0.248,1.772-0.518,2.252    C74.125,68.095,73.825,68.175,73.529,68.175z"/>
	</g>
	<g>
		<path d="M69.05,75.307c-0.446,0-0.891-0.181-1.213-0.538c-9.42-10.415-7.095-28.375-5.658-35.613l0.045-0.235    c0.431-1.876,1.531-8.039-1.508-13.172c-1.809-3.053-4.695-5.135-8.346-6.021c-9.072-2.193-15.84,4.242-17.835,11.743    l-0.102,0.447c-3.3,16.804-14.739,26.04-19.504,29.228c-0.751,0.5-1.766,0.3-2.267-0.449c-0.502-0.75-0.301-1.765,0.449-2.267    c4.426-2.961,15.051-11.54,18.125-27.192l0.126-0.552c2.417-9.091,10.667-16.828,21.778-14.133    c4.527,1.099,8.119,3.704,10.388,7.532c3.559,6.011,2.515,12.819,1.901,15.467l-0.046,0.242    c-1.046,5.27-3.785,23.208,4.877,32.785c0.606,0.669,0.554,1.703-0.116,2.308C69.833,75.167,69.44,75.307,69.05,75.307z"/>
	</g>
	<g>
		<path d="M27.204,81.626c-0.628,0-1.227-0.364-1.497-0.977c-0.363-0.826,0.012-1.79,0.837-2.154    C50.163,68.103,54.47,37.767,54.511,37.461c0.01-0.07,0.023-0.141,0.042-0.209c0.011-0.042,1.174-4.549-0.59-7.515    c-0.727-1.221-1.854-2.002-3.443-2.389c-6.255-1.516-8.319,5.826-8.404,6.14C38.237,53.256,24.594,64.146,18.91,67.904    c-0.753,0.498-1.766,0.291-2.264-0.461c-0.498-0.753-0.291-1.766,0.461-2.264c5.342-3.532,18.161-13.763,21.827-32.429    c1.015-3.83,4.868-10.395,12.356-8.576c2.461,0.597,4.307,1.912,5.489,3.909c2.306,3.892,1.167,9.061,0.958,9.907    c-0.324,2.325-5.006,32.555-29.875,43.499C27.647,81.582,27.424,81.626,27.204,81.626z"/>
	</g>
	<g>
		<path fill="none" stroke="#000000" stroke-width="2" stroke-linecap="round" stroke-linejoin="round" stroke-miterlimit="10" d="    M104.173,54.149"/>
	</g>
	<g>
		<path d="M20.586,75.325c-0.628,0-1.228-0.365-1.497-0.978c-0.363-0.826,0.012-1.791,0.838-2.153    c21.685-9.531,26.962-37.319,27.014-37.599c0.16-0.886,1.009-1.473,1.899-1.316c0.887,0.161,1.477,1.01,1.316,1.898    c-0.218,1.21-5.618,29.77-28.914,40.009C21.029,75.28,20.806,75.325,20.586,75.325z"/>
	</g>
</g>
</svg>