<svg xmlns="http://www.w3.org/2000/svg" xmlns:xlink="http://www.w3.org/1999/xlink" version="1.1" id="Layer_1" x="0px" y="0px" width="80.5px" height="77.5px" viewBox="0 0 80.5 77.5" enable-background="new 0 0 80.5 77.5" xml:space="preserve">
<g>
	<path d="M31.376,66.445c-0.063,0-0.127-0.003-0.191-0.01c-0.821-0.099-1.44-0.792-1.44-1.619V35.042l-2.295,5.926   c-0.244,0.627-0.846,1.04-1.52,1.04H4.41c-0.9,0-1.629-0.729-1.629-1.629s0.729-1.629,1.629-1.629h20.405l5.04-13.01   c0.283-0.734,1.056-1.146,1.818-1.014c0.772,0.145,1.33,0.818,1.33,1.602v24.535L42.13,12.31c0.189-0.805,0.959-1.352,1.774-1.242   c0.821,0.095,1.439,0.791,1.439,1.618v29.651l3.979-10.188c0.245-0.625,0.846-1.037,1.518-1.037H76.09   c0.9,0,1.629,0.729,1.629,1.629S76.99,34.37,76.09,34.37H51.952l-6.72,17.21c-0.286,0.729-1.053,1.146-1.82,1.009   c-0.768-0.144-1.327-0.818-1.327-1.601V26.639l-9.127,38.552C32.784,65.933,32.122,66.445,31.376,66.445z"/>
</g>
</svg>