<svg xmlns="http://www.w3.org/2000/svg" xmlns:xlink="http://www.w3.org/1999/xlink" version="1.1" id="Layer_1" x="0px" y="0px" width="96px" height="96px" viewBox="0 0 96 96" enable-background="new 0 0 96 96" xml:space="preserve">
<path d="M70.648,40.036C70.641,40.036,70.641,40.032,70.648,40.036l-0.008-0.008l-0.009-0.004c-0.092-0.088-0.22-0.12-0.319-0.204  c-0.32-0.252-0.648-0.5-1.017-0.64c-0.336-0.128-0.696-0.148-1.052-0.184c-0.156-0.012-0.305-0.084-0.46-0.08  C67.38,38.924,67,39.04,66.616,39.168c-0.108,0.032-0.228,0.024-0.328,0.076c-0.228,0.096-0.416,0.284-0.616,0.428  c-0.236,0.152-0.484,0.256-0.688,0.472L31.356,75.229c-1.528,1.592-1.476,4.123,0.12,5.655c0.776,0.748,1.772,1.108,2.768,1.108  c1.052,0,2.1-0.416,2.888-1.236l30.864-32.204L80,59.992H64c-2.216,0-4,1.783-4,4c0,2.216,1.784,4,4,4h26  c1.632,0,3.1-0.992,3.712-2.516c0.608-1.517,0.236-3.252-0.952-4.381L70.648,40.036L70.648,40.036z"/>
<path d="M92,40.004h-6.141L70.932,22.336c-1.315-1.568-3.6-1.88-5.295-0.732L50.088,32.152c-1.832,1.244-2.308,3.728-1.068,5.556  c1.24,1.828,3.732,2.304,5.561,1.068l12.568-8.524l13.8,16.34c0.756,0.9,1.876,1.416,3.056,1.416h8c2.217,0,4-1.784,4-4  C96,41.796,94.212,40.004,92,40.004z"/>
<path d="M94.023,22.004c0,4.418-3.582,8-8,8s-8-3.582-8-8s3.582-8,8-8S94.023,17.586,94.023,22.004z"/>
<path d="M32,68.004c0-2.212-1.792-4-4-4H4c-2.208,0-4,1.788-4,4s1.792,4,4,4h24C30.204,72.004,32,70.216,32,68.004z"/>
<path d="M4,60.004h32c2.208,0,4-1.788,4-4s-1.792-4-4-4H4c-2.208,0-4,1.788-4,4S1.792,60.004,4,60.004z"/>
<path d="M4,48.004h40c2.208,0,4-1.788,4-4c0-2.208-1.792-4-4-4H4c-2.208,0-4,1.792-4,4C0,46.216,1.792,48.004,4,48.004z"/>
</svg>