<svg xmlns="http://www.w3.org/2000/svg" xmlns:xlink="http://www.w3.org/1999/xlink" version="1.1" id="Layer_1" x="0px" y="0px" width="100px" height="100px" viewBox="0 0 100 100" enable-background="new 0 0 100 100" xml:space="preserve">
<path fill="#000000" d="M49.963,22.932c4.784,0,8.661-3.877,8.661-8.661c0-4.785-3.877-8.661-8.661-8.661  c-4.783,0-8.661,3.876-8.661,8.661C41.302,19.055,45.18,22.932,49.963,22.932"/>
<path fill="#000000" d="M75.826,60.857c0.006-0.735,0.259-13.395-1.237-19.103c-0.993-3.79-2.694-7.389-5.594-10.347  c-0.187-0.191-0.384-0.374-0.579-0.556c-1.408-1.322-3.037-2.45-4.878-3.382c-2.964-1.498-6.479-2.491-10.528-2.972  c-0.279-0.033-0.562-0.064-0.848-0.092c-0.271-0.027-0.546-0.053-0.825-0.076c0.116-0.04-0.417-0.08-0.791-0.057  c-0.377-0.023-0.911,0.017-0.794,0.057c-0.278,0.023-0.553,0.048-0.827,0.076c-0.285,0.028-0.566,0.059-0.847,0.092l0.008,0.003  c-3.707,0.441-6.966,1.313-9.763,2.608c-1.712,0.792-3.252,1.745-4.614,2.854c-0.558,0.456-1.09,0.936-1.588,1.445  c-1.927,1.962-3.321,4.213-4.334,6.612c-2.812,6.653-2.504,22.101-2.496,22.796c-0.155,1.451,0.14,2.611,0.848,3.401  c0.563,0.628,1.357,0.976,2.236,0.976c1.576,0,2.934-1.443,3.178-3.365l0.008-0.038l0.018-0.149c0.012-0.141,0.02-0.283,0.02-0.429  c0.007-0.125,0.006-0.259,0.011-0.383c0.013-0.371,0.022-0.753,0.029-1.138c0.018-0.938,0.026-1.898,0.026-2.916  c0.008-5.504,0.025-11.99,2.558-17.938c-0.368,1.389-0.603,2.825-0.692,4.259c-1.176,4.674-1.188,9.473-1.192,13.684  c-0.003,1.342-0.007,2.615-0.044,3.816c1.413,1.853,3.1,3.481,4.998,4.838V91.15c0,2.229,1.808,4.035,4.037,4.035  s4.037-1.808,4.037-4.035V69.094c1.702,0.401,3.474,0.62,5.296,0.62c1.349,0,2.667-0.121,3.953-0.346V91.15  c0,2.229,1.807,4.035,4.036,4.035c2.229,0,4.035-1.808,4.035-4.035V66.33c2.373-1.455,4.461-3.326,6.17-5.512  c-0.045-1.258-0.051-2.609-0.051-4.039c-0.009-5.047-0.022-10.937-2.045-16.445c0.002-0.695-0.037-1.382-0.115-2.059  c2.78,6.098,2.797,12.823,2.805,18.502c0.001,1.104,0.005,2.166,0.025,3.174c0.01,0.375,0.021,0.745,0.034,1.105  c0.003,0.047,0.003,0.094,0.005,0.14c0,0.176,0.01,0.331,0.024,0.485l0.002,0.024l0.013,0.084c0.01,0.077,0.031,0.151,0.045,0.228  c0.307,1.822,1.619,3.176,3.143,3.176c0.879,0,1.672-0.346,2.234-0.975C75.686,63.43,75.979,62.27,75.826,60.857"/>
</svg>