<svg xmlns="http://www.w3.org/2000/svg" xmlns:xlink="http://www.w3.org/1999/xlink" version="1.1" x="0px" y="0px" width="100px" height="100px" viewBox="-346 256 100 100" enable-background="new -346 256 100 100" xml:space="preserve">
<g id="Layer_2_copy">
</g>
<g id="Layer_1">
</g>
<g id="Layer_4">
	<path d="M-266.17,304.961v-5.884h4.428c-0.344-3.421-1.211-6.688-2.523-9.717h-4.849v-5.885h1.535   c-2.312-3.27-5.203-6.1-8.531-8.333v2.448h-5.883v-5.57c-3.809-1.55-7.972-2.411-12.338-2.411c-14.866,0-28.57,11.165-31.42,23.459   c-0.633,2.734-1.35,9.873-1.35,9.873l-6.825,17.232c-0.138,0.308-0.201,0.666-0.201,1.027c0,1.455,1.172,2.637,2.634,2.637h4.392   v9.158c0,7.14,5.778,12.923,12.914,12.923h5.129v10.03h34.961v-27.81c6.985-5.496,11.676-13.787,12.41-23.179H-266.17z    M-292.485,277.591h5.884v5.884h-5.884V277.591z M-295.433,302.018h-5.883v-5.885h5.883V302.018z M-295.432,290.25h-5.884v-5.885   h5.884V290.25z M-289.547,296.133h-5.883v-5.883h5.883V296.133z M-277.778,310.846h-5.883v-5.885h-5.88v-5.884h-0.003v-5.884h5.883   v5.884h0.003v5.884h5.88V310.846z M-277.778,290.25h-5.883v-5.885h5.883V290.25z M-269.116,294.857H-275v-5.885h5.884V294.857z"/>
	<rect x="-261.574" y="281.422" width="5.884" height="5.885"/>
	<rect x="-255.69" y="299.077" width="5.883" height="5.884"/>
	<rect x="-267.457" y="271.707" width="5.883" height="5.884"/>
	<rect x="-261.574" y="265.823" width="5.884" height="5.884"/>
	<rect x="-275" y="256.22" width="5.884" height="5.885"/>
</g>
</svg>