<svg xmlns="http://www.w3.org/2000/svg" xmlns:xlink="http://www.w3.org/1999/xlink" version="1.1" x="0px" y="0px" width="95.691px" height="100px" viewBox="0 0 95.691 100" enable-background="new 0 0 95.691 100" xml:space="preserve">
<g id="Layer_1">
	<path d="M51.559,15.36L51.559,15.36l-0.013,0.008c-1.164,0.717-7.17,3.188-13.901-3.121c-2.701-2.746-3.982-6.927-3.982-6.927   s2.874,1.293,5.117,0.429c1.518-0.588,3.03-2.405,3.318-2.764c0.699-0.79,1.567-1.459,2.583-1.919   c3.958-1.795,8.628-0.003,10.428,3.993C56.856,8.954,55.263,13.443,51.559,15.36z"/>
</g>
<g id="Layer_2">
	<path d="M75.34,30.216c0,0-11.305-8.507-12.7-9.492c-1.719-1.249-4.3-2.581-7.354-2.652c-0.986-0.023-13.55-0.023-14.537,0   c-3.054,0.071-5.635,1.403-7.354,2.652c-1.395,0.985-12.7,9.492-12.7,9.492c-1.547,1.174-1.922,3.469-0.841,5.14l6.421,10.09   c0.668,1.034,1.74,1.586,2.828,1.586c0.255,0,0.511-0.041,0.764-0.104v43.044h16.632L46.5,67.604h2.896l0.002,22.369H65.94V46.918   h-4.175v0.016H35.972v-0.016h-6.063c0.402-0.105,0.795-0.281,1.156-0.549c1.559-1.168,1.944-3.475,0.858-5.151l-4.468-7.07   c2.496-1.894,6.147-4.663,8.749-6.637c0.587-0.31,1.135-0.241,1.491-0.032c0.86,0.51,0.824,1.315,0.864,1.584l-1.401,15.753h21.621   l-1.303-15.753c0.04-0.269,0.004-1.074,0.864-1.584c0.355-0.209,0.903-0.277,1.49,0.032c2.602,1.974,6.253,4.743,8.75,6.637   l-4.456,7.047c-1.086,1.676-0.701,3.983,0.857,5.15c0.6,0.448,1.286,0.665,1.963,0.665c1.087,0,2.158-0.553,2.827-1.586   l6.409-10.066C77.262,33.686,76.885,31.39,75.34,30.216z"/>
	<path d="M49.398,92.087v3.417c0,2.48,2.094,4.496,4.579,4.496c2.48,0,4.126-2.016,4.126-4.496c0,0,0-1.3,0-3.417H49.398z"/>
	<path d="M37.791,92.087c0,2.117,0,3.417,0,3.417c0,2.48,2.025,4.496,4.505,4.496c2.486,0,4.202-2.016,4.202-4.496v-3.417H37.791z"/>
</g>
</svg>