<svg xmlns="http://www.w3.org/2000/svg" xmlns:xlink="http://www.w3.org/1999/xlink" version="1.1" id="Layer_1" x="0px" y="0px" width="100px" height="100px" viewBox="0 0 100 100" enable-background="new 0 0 100 100" xml:space="preserve">
<g>
	<circle fill="#000000" cx="50.041" cy="12.694" r="8.225"/>
	<ellipse fill="#000000" cx="51.084" cy="47.06" rx="21.217" ry="23.067"/>
	<path fill="#000000" d="M49.65,91.531c0,2.329-1.736,4.219-3.876,4.219l0,0c-2.141,0-3.876-1.89-3.876-4.219V67.687   c0-2.331,1.735-4.219,3.876-4.219l0,0c2.14,0,3.876,1.888,3.876,4.219V91.531z"/>
	<path fill="#000000" d="M61.475,91.352c0,2.315-1.736,4.192-3.877,4.192l0,0c-2.141,0-3.877-1.877-3.877-4.192V67.66   c0-2.314,1.736-4.192,3.877-4.192l0,0c2.141,0,3.877,1.878,3.877,4.192V91.352z"/>
	<path fill="#000000" d="M34.064,35.071c-4.705,2.62-5.523,9.671-5.523,9.671c-1.022,7.453,2.455,16.923,2.455,16.923   c1.432,4.433-1.636,4.634-1.636,4.634c-3.683,1.209-4.91-2.217-4.91-2.217c-4.091-7.453-3.478-19.34-3.478-19.34   c2.66-23.773,31.502-21.155,31.502-21.155l-1.782-0.039c0,0,27.313-2.216,29.723,21.557c0,0,0.556,11.887-3.15,19.341   c0,0-1.111,3.424-4.447,2.216c0,0-2.78-0.202-1.482-4.634c0,0,3.15-9.469,2.224-16.923c0,0-0.741-7.051-5.004-9.67"/>
</g>
</svg>