<?xml version="1.0" encoding="utf-8"?>
<!-- Generator: Adobe Illustrator 16.0.0, SVG Export Plug-In . SVG Version: 6.00 Build 0)  -->
<!DOCTYPE svg PUBLIC "-//W3C//DTD SVG 1.1//EN" "http://www.w3.org/Graphics/SVG/1.1/DTD/svg11.dtd">
<svg version="1.1" id="Layer_1" xmlns="http://www.w3.org/2000/svg" xmlns:xlink="http://www.w3.org/1999/xlink" x="0px" y="0px"
	 width="44.5px" height="42.125px" viewBox="0 0 44.5 42.125" enable-background="new 0 0 44.5 42.125" xml:space="preserve">
<g>
	<line fill="none" stroke="#EF4461" stroke-miterlimit="10" x1="11.451" y1="8.556" x2="26.546" y2="8.556"/>
	<line fill="none" stroke="#EF4461" stroke-miterlimit="10" x1="22.26" y1="14.427" x2="31.111" y2="14.427"/>
	<line fill="none" stroke="#EF4461" stroke-miterlimit="10" x1="22.26" y1="20.39" x2="31.577" y2="20.39"/>
	<line fill="none" stroke="#EF4461" stroke-miterlimit="10" x1="11.451" y1="26.26" x2="31.577" y2="26.26"/>
	<line fill="none" stroke="#EF4461" stroke-miterlimit="10" x1="11.451" y1="32.037" x2="31.577" y2="32.037"/>
	<line fill="none" stroke="#EF4461" stroke-miterlimit="10" x1="15.551" y1="13.247" x2="15.551" y2="22.16"/>
	<line fill="none" stroke="#EF4461" stroke-miterlimit="10" x1="11.451" y1="17.703" x2="20.117" y2="17.703"/>
	<path fill="none" stroke="#EF4461" stroke-miterlimit="10" d="M9.495,2.5c-1.211,0-2.655,1.118-2.655,2.655s0,28.186,0,29.956
		c0,1.77,0.419,2.981,2.096,2.981c1.677,0,23.48,0,25.158,0s2.516-0.745,2.516-2.888s0-24.785,0-26.089
		c0-1.304-5.59-6.615-6.895-6.615C28.41,2.5,10.706,2.5,9.495,2.5z"/>
	<path fill="none" stroke="#EF4461" stroke-miterlimit="10" d="M36.609,9.209c0,0-2.609,0-4.193,0c-1.583,0-2.981-0.838-2.981-2.236
		s0-4.473,0-4.473"/>
</g>
</svg>
