<?xml version="1.0" encoding="utf-8"?>
<!-- Generator: Adobe Illustrator 16.0.0, SVG Export Plug-In . SVG Version: 6.00 Build 0)  -->
<!DOCTYPE svg PUBLIC "-//W3C//DTD SVG 1.1//EN" "http://www.w3.org/Graphics/SVG/1.1/DTD/svg11.dtd">
<svg version="1.1" id="Layer_1" xmlns="http://www.w3.org/2000/svg" xmlns:xlink="http://www.w3.org/1999/xlink" x="0px" y="0px"
	 width="64px" height="64px" viewBox="0 0 64 64" enable-background="new 0 0 64 64" xml:space="preserve">
<g>
	<path fill="#EF4461" d="M32.012,1.136c17.182,0,31.109,13.928,31.109,31.109c0,17.182-13.928,31.109-31.109,31.109
		S0.902,49.426,0.902,32.245C0.902,15.063,14.83,1.136,32.012,1.136z"/>
	<g>
		<defs>
			<circle id="SVGID_1_" cx="32.012" cy="32.245" r="31.109"/>
		</defs>
		<clipPath id="SVGID_2_">
			<use xlink:href="#SVGID_1_"  overflow="visible"/>
		</clipPath>
		<g clip-path="url(#SVGID_2_)">
			<path fill="#EBEEEE" d="M19.859,16.204h24.305c2.146,0,3.889,1.741,3.889,3.889v53.468c0,2.147-1.742,3.889-3.889,3.889H19.859
				c-2.146,0-3.889-1.741-3.889-3.889V20.093C15.971,17.945,17.713,16.204,19.859,16.204z"/>
			<path fill="#FFFFFF" d="M20.346,17.176h23.332c1.879,0,3.402,1.523,3.402,3.402v52.497c0,1.879-1.523,3.402-3.402,3.402H20.346
				c-1.879,0-3.402-1.523-3.402-3.402V20.579C16.943,18.7,18.467,17.176,20.346,17.176z"/>
			<path fill="#EF4461" d="M18.889,25.925h26.248v41.803H18.889V25.925z"/>
			<path fill="#EF4461" d="M35.172,22.037h-6.318c-0.404,0-0.73,0.327-0.73,0.729s0.326,0.729,0.73,0.729h6.318
				c0.402,0,0.729-0.327,0.729-0.729S35.574,22.037,35.172,22.037z M32.012,69.672c-1.342,0-2.43,1.089-2.43,2.431
				c0,1.342,1.088,2.431,2.43,2.431s2.432-1.088,2.432-2.431C34.443,70.761,33.354,69.672,32.012,69.672z"/>
			<path fill="#EF4461" d="M32.256,19.121c0.402,0,0.729,0.326,0.729,0.729s-0.326,0.729-0.729,0.729
				c-0.404,0-0.73-0.326-0.73-0.729S31.852,19.121,32.256,19.121z"/>
		</g>
	</g>
</g>
</svg>
