<?xml version="1.0" encoding="utf-8"?>
<!-- Generator: Adobe Illustrator 16.0.0, SVG Export Plug-In . SVG Version: 6.00 Build 0)  -->
<!DOCTYPE svg PUBLIC "-//W3C//DTD SVG 1.1//EN" "http://www.w3.org/Graphics/SVG/1.1/DTD/svg11.dtd">
<svg version="1.1" id="Layer_1" xmlns="http://www.w3.org/2000/svg" xmlns:xlink="http://www.w3.org/1999/xlink" x="0px" y="0px"
	 width="64px" height="64px" viewBox="0 0 64 64" enable-background="new 0 0 64 64" xml:space="preserve">
<g>
	<path fill="#EF4461" d="M32.445,1.136c17.182,0,31.11,13.928,31.11,31.109c0,17.18-13.928,31.109-31.11,31.109
		c-17.181,0-31.109-13.928-31.109-31.109C1.336,15.064,15.264,1.136,32.445,1.136z"/>
</g>
<path fill="#FFFFFF" d="M21.463,26.197V41.26c0,0,4.331-0.471,6.119,0c1.789,0.471,4.108,4.048,10.48,4.048
	s10.42-2.448,10.42-11.768s-3.954-9.132-4.99-9.132c-1.035,0-9.508,0-9.508,0s-0.059-5.289,0-6.59
	c0.059-1.301,0.659-3.859-2.071-3.859C27.112,13.959,31.16,23.561,21.463,26.197z"/>
<g>
	<path fill="#FFFFFF" d="M16.409,41.107c0,0.757,0.614,1.376,1.365,1.376c0.75,0,1.365-0.619,1.365-1.376V26.632
		c0-0.757-0.614-1.376-1.365-1.376c-0.751,0-1.365,0.619-1.365,1.376V41.107z"/>
</g>
</svg>
