<?xml version="1.0" encoding="utf-8"?>
<!-- Generator: Adobe Illustrator 16.0.0, SVG Export Plug-In . SVG Version: 6.00 Build 0)  -->
<!DOCTYPE svg PUBLIC "-//W3C//DTD SVG 1.1//EN" "http://www.w3.org/Graphics/SVG/1.1/DTD/svg11.dtd">
<svg version="1.1" id="Layer_1" xmlns="http://www.w3.org/2000/svg" xmlns:xlink="http://www.w3.org/1999/xlink" x="0px" y="0px"
	 width="44.5px" height="42.125px" viewBox="0 0 44.5 42.125" enable-background="new 0 0 44.5 42.125" xml:space="preserve">
<g>
	<path fill="none" stroke="#EF4461" stroke-miterlimit="10" d="M39.051,7.143C38.4,6.492,37.398,5.49,36.747,4.838
		c-0.652-0.651-2.055-1.554-3.608,0c-1.553,1.554-20.043,19.442-23.05,22.449c-3.006,3.006-6.263,8.969-5.01,10.222
		s7.183-0.87,11.224-4.911c4.042-4.041,22.048-21.446,22.749-22.147C39.753,9.749,39.703,7.794,39.051,7.143z"/>
	<line fill="none" stroke="#EF4461" stroke-miterlimit="10" x1="30.206" y1="7.695" x2="36.053" y2="13.37"/>
	<path fill="none" stroke="#EF4461" stroke-miterlimit="10" d="M30.206,19.062c0,0,9.498,9.377,10.75,10.63
		c1.252,1.252,1.35,2.959,0,4.309c-1.35,1.35-4.004,3.64-5.375,5.012c-1.372,1.371-3.735,1.64-5.375,0s-9.789-10.42-9.789-10.42"/>
	<path fill="none" stroke="#EF4461" stroke-miterlimit="10" d="M24.378,13.37c0,0-10.13-9.785-10.982-10.637
		c-0.852-0.852-2.447-1.16-3.607,0C8.628,3.894,4.377,7.745,3.475,8.646c-0.902,0.902-1.25,2.357,0,3.607
		c1.25,1.25,11.182,10.585,11.182,10.585"/>
	<line fill="none" stroke="#EF4461" stroke-miterlimit="10" x1="11.192" y1="11.753" x2="17.061" y2="6.283"/>
	<line fill="none" stroke="#EF4461" stroke-miterlimit="10" x1="19.309" y1="13.958" x2="22.102" y2="11.166"/>
	<line fill="none" stroke="#EF4461" stroke-miterlimit="10" x1="28.93" y1="23.679" x2="31.885" y2="20.724"/>
	<line fill="none" stroke="#EF4461" stroke-miterlimit="10" x1="31.235" y1="31.396" x2="36.923" y2="25.707"/>
</g>
</svg>
