<?xml version="1.0" encoding="utf-8"?>
<!-- Generator: Adobe Illustrator 16.0.0, SVG Export Plug-In . SVG Version: 6.00 Build 0)  -->
<!DOCTYPE svg PUBLIC "-//W3C//DTD SVG 1.1//EN" "http://www.w3.org/Graphics/SVG/1.1/DTD/svg11.dtd">
<svg version="1.1" id="Layer_1" xmlns="http://www.w3.org/2000/svg" xmlns:xlink="http://www.w3.org/1999/xlink" x="0px" y="0px"
	 width="64px" height="64px" viewBox="0 0 64 64" enable-background="new 0 0 64 64" xml:space="preserve">
<g>
	<path id="background_4_" fill="#EF4461" d="M63.736,31.659c0.143,17.181-13.67,31.224-30.85,31.367
		C15.707,63.169,1.662,49.357,1.52,32.177C1.381,15.366,14.869,0.956,32.369,0.81C49.549,0.667,63.594,14.479,63.736,31.659z"/>
	<path fill="#FFFFFF" d="M46.533,23.592c-0.014-1.511-1.334-2.811-2.846-2.798c-7.91,0.066-15.82,0.132-23.73,0.198
		c-1.512,0.013-2.842,1.334-2.828,2.845c0.066,7.911,0.131,15.821,0.197,23.731c0.012,1.511,1.363,2.84,2.875,2.828
		c7.91-0.065,15.84-0.132,23.818-0.198c1.02-0.009,1.729-0.523,2.133-1.238c0.359-0.439,0.584-1.021,0.576-1.748
		C46.666,39.461,46.6,31.502,46.533,23.592z M41.008,44.524c-6.023,0.05-12.021,0.1-18.008,0.15
		c-0.049-6.003-0.1-12.005-0.148-18.007c6.002-0.05,12.004-0.1,18.006-0.15C40.908,32.547,40.959,38.587,41.008,44.524z"/>
	<path fill="none" d="M24.92,35.763c0.012-0.01,0.023-0.02,0.035-0.029c-0.021,0-0.041,0-0.061,0
		C24.902,35.734,24.912,35.771,24.92,35.763z"/>
	<path fill="#A6D2AB" stroke="#FFFFFF" stroke-width="3" stroke-miterlimit="10" d="M56.023,15.33
		c-1.135-1.115-2.789-0.966-3.922,0.033c-5.529,4.88-11.061,9.734-16.59,14.599c-1.463,1.286-2.926,2.573-4.389,3.862
		c-1.951-2.217-3.902-4.585-5.854-6.858c-0.986-1.148-2.928-0.95-3.92,0.059c-1.127,1.145-0.951,2.801,0.031,3.947
		c2.516,2.929,5.031,5.859,7.547,8.788c1.033,1.205,2.863,0.9,3.92-0.032c2.213-1.952,4.426-3.904,6.639-5.857
		C45,29.005,50.516,24.14,56.029,19.274c0.01-0.008,0.018-0.016,0.027-0.023C57.189,18.251,57.043,16.333,56.023,15.33z
		 M28.92,35.763c-0.008,0.007-0.018-0.029-0.025-0.029c0.02,0,0.039,0,0.061,0C28.943,35.743,28.932,35.753,28.92,35.763z"/>
	<path fill="#EF4461" d="M56.023,15.33c-1.135-1.115-2.789-0.966-3.922,0.033c-5.529,4.88-11.061,9.734-16.59,14.599
		c-1.463,1.286-2.926,2.573-4.389,3.862c-1.951-2.217-3.902-4.585-5.854-6.858c-0.986-1.148-2.928-0.95-3.92,0.059
		c-1.127,1.145-0.951,2.801,0.031,3.947c2.516,2.929,5.031,5.859,7.547,8.788c1.033,1.205,2.863,0.9,3.92-0.032
		c2.213-1.952,4.426-3.904,6.639-5.857C45,29.005,50.516,24.14,56.029,19.274c0.01-0.008,0.018-0.016,0.027-0.023
		C57.189,18.251,57.043,16.333,56.023,15.33z M28.92,35.763c-0.008,0.007-0.018-0.029-0.025-0.029c0.02,0,0.039,0,0.061,0
		C28.943,35.743,28.932,35.753,28.92,35.763z"/>
</g>
</svg>
