<?xml version="1.0" encoding="utf-8"?>
<!-- Generator: Adobe Illustrator 16.0.0, SVG Export Plug-In . SVG Version: 6.00 Build 0)  -->
<!DOCTYPE svg PUBLIC "-//W3C//DTD SVG 1.1//EN" "http://www.w3.org/Graphics/SVG/1.1/DTD/svg11.dtd">
<svg version="1.1" id="Layer_1" xmlns="http://www.w3.org/2000/svg" xmlns:xlink="http://www.w3.org/1999/xlink" x="0px" y="0px"
	 width="208.25px" height="77.75px" viewBox="0 0 208.25 77.75" enable-background="new 0 0 208.25 77.75" xml:space="preserve">
<g>
	<g>
		<path opacity="0.5" fill="#FFFFFF" d="M161.336,51.514c-16.564-6.75-33.266-14.877-37.33-16.937
			C124.282,42.299,146.445,49.347,161.336,51.514z"/>
		<path opacity="0.5" fill="#FFFFFF" d="M151.236,51.011c-7.883-1.831-18.637-3.94-23.522-5.582
			C130.038,51.092,144.489,51.203,151.236,51.011z"/>
		<path opacity="0.5" fill="#FFFFFF" d="M147.266,53.171c-4.095-0.209-8.417-0.52-13.419-1.177
			C136.95,55.103,144.414,53.9,147.266,53.171z"/>
		<path fill="#FFFFFF" d="M142.155,54.044c23.897-20.145,47.504-42.179,53.151-47.792C196.27,13.111,178.481,37.114,142.155,54.044z
			"/>
		<path fill="#FFFFFF" d="M146.013,53.573c23.073-13.236,44.384-27.193,49.966-31.035C194.758,31.704,167.529,47.423,146.013,53.573
			z"/>
		<path fill="#FFFFFF" d="M153.209,51.383c16.898-5.865,34.481-13.098,38.648-14.939C191.173,44.14,168.193,50.006,153.209,51.383z"
			/>
		<path fill="#FFFFFF" d="M159.889,50.931c7.97-1.412,19.271-2.046,24.237-3.427C181.505,53.036,166.617,51.479,159.889,50.931z"/>
		<path fill="#FFFFFF" d="M161.336,51.514c4.101,0.007,9.129,1.783,14.16,1.391C172.233,55.845,164.145,52.392,161.336,51.514z"/>
	</g>
	<g>
		<path fill="#FFFFFF" d="M15.146,73.859h-2.559l-3.245-4.94c-0.24,0.011-0.436,0.016-0.586,0.016c-0.062,0-0.128-0.001-0.198-0.004
			s-0.144-0.007-0.219-0.012v3.07c0,0.664,0.066,1.078,0.198,1.239c0.179,0.229,0.448,0.342,0.806,0.342h0.375v0.289H5.609V73.57
			h0.36c0.405,0,0.695-0.145,0.869-0.436c0.1-0.161,0.149-0.542,0.149-1.145v-6.826c0-0.665-0.066-1.078-0.198-1.239
			c-0.184-0.229-0.457-0.343-0.82-0.343h-0.36v-0.288h3.492c1.019,0,1.769,0.082,2.252,0.245c0.482,0.164,0.893,0.466,1.229,0.904
			c0.337,0.439,0.505,0.962,0.505,1.57c0,0.649-0.192,1.213-0.576,1.69c-0.384,0.479-0.979,0.815-1.786,1.014l1.98,3.031
			c0.452,0.696,0.841,1.158,1.167,1.387c0.325,0.229,0.75,0.375,1.272,0.436V73.859z M8.337,68.428c0.09,0,0.167,0.001,0.234,0.003
			c0.065,0.003,0.12,0.004,0.162,0.004c0.914,0,1.604-0.218,2.068-0.655c0.464-0.437,0.696-0.992,0.696-1.667
			c0-0.66-0.187-1.196-0.562-1.609c-0.375-0.413-0.871-0.62-1.488-0.62c-0.274,0-0.644,0.05-1.11,0.148V68.428z"/>
		<path fill="#FFFFFF" d="M18.32,67.044c1.021,0.067,1.815,0.502,2.384,1.306c0.483,0.687,0.696,1.453,0.641,2.297
			c-0.039,0.595-0.223,1.187-0.553,1.775c-0.33,0.59-0.759,1.022-1.287,1.298c-0.528,0.276-1.104,0.394-1.728,0.353
			c-1.016-0.067-1.797-0.518-2.344-1.354c-0.461-0.704-0.665-1.475-0.609-2.31c0.04-0.608,0.233-1.203,0.579-1.785
			c0.346-0.58,0.779-0.999,1.299-1.253C17.221,67.117,17.76,67.007,18.32,67.044z M18.061,67.5c-0.26-0.017-0.527,0.042-0.799,0.177
			c-0.273,0.134-0.502,0.388-0.689,0.758c-0.187,0.371-0.301,0.855-0.34,1.455c-0.063,0.966,0.077,1.812,0.421,2.538
			c0.344,0.727,0.835,1.11,1.474,1.151c0.476,0.032,0.881-0.136,1.216-0.502c0.334-0.365,0.533-1.02,0.594-1.962
			c0.078-1.178-0.119-2.122-0.59-2.832C19.029,67.796,18.601,67.535,18.061,67.5z"/>
		<path fill="#FFFFFF" d="M23.817,68.404c0.626-0.961,1.303-1.442,2.029-1.442c0.665,0,1.244,0.313,1.739,0.939
			c0.495,0.626,0.742,1.482,0.742,2.568c0,1.268-0.382,1.836-1.145,2.61c-0.655,0.665-1.386,0.997-2.192,0.997
			c-0.377,0-0.76-0.075-1.148-0.226c-0.39-0.15-0.786-0.376-1.191-0.678v-7.395c0-0.81-0.018-1.309-0.053-1.496
			c-0.036-0.187-0.091-0.314-0.167-0.382c-0.075-0.067-0.169-0.101-0.282-0.101c-0.132,0-0.297,0.042-0.495,0.125l-0.099-0.273
			l1.944-0.873h0.318V68.404z M23.817,68.903v3.818c0.24,0.26,0.488,0.456,0.746,0.588c0.257,0.133,0.52,0.199,0.788,0.199
			c0.429,0,0.829-0.26,1.199-0.779c0.37-0.52,0.555-0.823,0.555-1.815c0-0.914-0.185-1.617-0.555-2.107
			c-0.37-0.491-0.791-0.737-1.262-0.737c-0.25,0-0.5,0.07-0.75,0.211C24.349,68.384,24.108,68.591,23.817,68.903z"/>
		<path fill="#FFFFFF" d="M30.37,69.708c-0.004,0.992,0.229,1.77,0.7,2.334c0.471,0.564,1.025,0.846,1.661,0.846
			c0.424,0,0.793-0.121,1.106-0.361s0.577-0.653,0.789-1.236l0.219,0.146c-0.099,0.666-0.387,1.272-0.863,1.82
			c-0.476,0.547-1.072,0.82-1.789,0.82c-0.777,0-1.443-0.312-1.997-0.937c-0.554-0.625-0.831-1.465-0.831-2.52
			c0-1.143,0.284-2.034,0.852-2.674c0.568-0.639,1.281-0.959,2.139-0.959c0.726,0,1.322,0.247,1.789,0.741
			c0.466,0.494,0.7,1.154,0.7,1.98H30.37z M30.37,69.285h2.998c-0.023-0.428-0.072-0.729-0.148-0.904
			c-0.118-0.272-0.294-0.486-0.527-0.642c-0.233-0.156-0.477-0.233-0.732-0.233c-0.391,0-0.741,0.157-1.05,0.47
			C30.602,68.289,30.422,68.725,30.37,69.285z"/>
		<path fill="#FFFFFF" d="M37.603,66.994v1.502c0.542-1.001,1.098-1.502,1.668-1.502c0.259,0,0.474,0.082,0.643,0.245
			c0.17,0.163,0.255,0.351,0.255,0.565c0,0.189-0.062,0.35-0.184,0.481c-0.123,0.131-0.269,0.196-0.438,0.196
			c-0.165,0-0.35-0.084-0.555-0.251s-0.357-0.251-0.456-0.251c-0.084,0-0.177,0.049-0.275,0.146
			c-0.212,0.199-0.432,0.528-0.658,0.985v3.202c0,0.37,0.044,0.649,0.134,0.839c0.062,0.131,0.17,0.241,0.325,0.328
			s0.379,0.131,0.672,0.131v0.263h-3.316v-0.263c0.33,0,0.575-0.053,0.735-0.16c0.118-0.078,0.2-0.202,0.248-0.372
			c0.023-0.083,0.035-0.319,0.035-0.707v-2.59c0-0.778-0.016-1.241-0.046-1.39c-0.031-0.148-0.088-0.257-0.17-0.325
			s-0.185-0.102-0.308-0.102c-0.146,0-0.311,0.036-0.495,0.109l-0.071-0.263l1.958-0.817H37.603z"/>
		<path fill="#FFFFFF" d="M42.411,64.996v2.196h1.513v0.51h-1.513v4.333c0,0.433,0.06,0.725,0.18,0.875
			c0.12,0.15,0.274,0.226,0.463,0.226c0.156,0,0.307-0.05,0.453-0.149c0.146-0.099,0.259-0.247,0.339-0.441h0.276
			c-0.165,0.477-0.398,0.835-0.7,1.076c-0.302,0.241-0.613,0.361-0.934,0.361c-0.217,0-0.429-0.062-0.637-0.187
			c-0.207-0.124-0.36-0.301-0.459-0.532s-0.148-0.587-0.148-1.069v-4.493h-1.025v-0.241c0.26-0.107,0.524-0.288,0.796-0.543
			c0.271-0.255,0.512-0.558,0.724-0.908c0.109-0.185,0.259-0.522,0.453-1.014H42.411z"/>
		<path fill="#FFFFFF" d="M80.05,73.056c-0.316,0.364-0.625,0.625-0.927,0.784c-0.301,0.158-0.626,0.237-0.975,0.237
			c-0.708,0-1.325-0.326-1.853-0.978c-0.528-0.652-0.792-1.038-0.792-2.061c0-1.023,0.292-1.959,0.876-2.809
			c0.585-0.85,1.336-1.273,2.255-1.273c0.57,0,1.042,0.2,1.414,0.6v-1.317c0-0.815-0.018-1.769-0.054-1.956
			c-0.035-0.187-0.09-0.314-0.166-0.382c-0.076-0.067-0.169-0.101-0.283-0.101c-0.123,0-0.285,0.042-0.488,0.125l-0.092-0.273
			l1.931-0.873l0.317,0.453v8.252c0,0.384,0.019,0.894,0.054,1.079s0.091,0.313,0.169,0.386c0.078,0.073,0.168,0.109,0.272,0.109
			c0.127,0,0.297-0.043,0.509-0.132l0.078,0.273l-1.923,0.88H80.05V73.056z M80.05,72.51v-3.226
			c-0.028-0.354-0.113-0.675-0.254-0.966c-0.142-0.291-0.329-0.511-0.562-0.659c-0.233-0.148-0.46-0.222-0.682-0.222
			c-0.415,0-0.784,0.206-1.11,0.615c-0.429,0.541-0.643,1.33-0.643,2.369c0,1.05,0.207,1.401,0.622,1.959
			c0.415,0.559,0.877,0.838,1.386,0.838C79.234,73.22,79.649,72.983,80.05,72.51z"/>
		<path fill="#FFFFFF" d="M100.532,62.778v5.673c0.522-0.633,0.938-1.04,1.244-1.219c0.306-0.179,0.613-0.27,0.919-0.27
			c0.367,0,0.683,0.112,0.948,0.336c0.264,0.223,0.459,0.573,0.586,1.051c0.09,0.333,0.134,0.941,0.134,1.824v2.072
			c0,0.452,0.033,0.761,0.099,0.927c0.047,0.125,0.127,0.224,0.24,0.296s0.32,0.109,0.622,0.109v0.281h-3.182v-0.281h0.148
			c0.302,0,0.512-0.05,0.63-0.151s0.2-0.25,0.247-0.448c0.015-0.083,0.021-0.327,0.021-0.732v-2.072c0-0.779-0.037-1.291-0.11-1.535
			c-0.073-0.244-0.189-0.427-0.35-0.55c-0.16-0.122-0.353-0.183-0.58-0.183c-0.231,0-0.471,0.067-0.721,0.203
			c-0.25,0.135-0.549,0.408-0.897,0.818v3.319c0,0.488,0.025,0.792,0.074,0.912s0.141,0.219,0.275,0.3
			c0.135,0.081,0.367,0.12,0.697,0.12v0.281h-3.209v-0.281c0.287,0,0.513-0.049,0.678-0.147c0.094-0.052,0.17-0.151,0.226-0.296
			c0.057-0.145,0.085-0.441,0.085-0.436v-6.46c0-1.268-0.018-1.769-0.053-1.956c-0.036-0.187-0.09-0.314-0.163-0.382
			c-0.073-0.067-0.17-0.101-0.293-0.101c-0.099,0-0.26,0.042-0.48,0.125l-0.1-0.273l1.938-0.873H100.532z"/>
		<path fill="#FFFFFF" d="M107.758,68.431c0.758-0.939,1.482-1.409,2.17-1.409c0.354,0,0.657,0.091,0.912,0.272
			s0.458,0.48,0.608,0.897c0.104,0.29,0.156,0.736,0.156,1.336v2.841c0,0.421,0.033,0.707,0.099,0.857
			c0.052,0.121,0.135,0.216,0.251,0.284c0.115,0.067,0.329,0.102,0.64,0.102v0.262h-3.203v-0.262h0.134
			c0.302,0,0.513-0.047,0.633-0.142c0.12-0.094,0.204-0.233,0.25-0.417c0.019-0.072,0.029-0.3,0.029-0.683v-2.725
			c0-0.605-0.077-1.045-0.23-1.319c-0.153-0.273-0.412-0.41-0.774-0.41c-0.561,0-1.12,0.315-1.675,0.944v3.51
			c0,0.45,0.025,0.729,0.077,0.835c0.066,0.141,0.157,0.243,0.272,0.309c0.115,0.065,0.35,0.098,0.703,0.098v0.262h-3.203v-0.262
			h0.142c0.329,0,0.552-0.086,0.667-0.258c0.116-0.172,0.174-0.5,0.174-0.984v-2.471c0-0.799-0.018-1.286-0.053-1.46
			c-0.035-0.174-0.09-0.292-0.163-0.356c-0.073-0.062-0.171-0.094-0.293-0.094c-0.133,0-0.29,0.037-0.474,0.109l-0.105-0.262
			l1.951-0.813h0.305V68.431z"/>
		<path fill="#FFFFFF" d="M117.295,67.022v2.267h-0.233c-0.179-0.712-0.409-1.196-0.689-1.453c-0.28-0.256-0.638-0.385-1.071-0.385
			c-0.33,0-0.597,0.09-0.799,0.269c-0.203,0.179-0.304,0.378-0.304,0.596c0,0.271,0.076,0.503,0.227,0.697
			c0.146,0.199,0.443,0.41,0.891,0.633l1.032,0.516c0.957,0.479,1.435,1.112,1.435,1.896c0,0.605-0.223,1.093-0.668,1.464
			c-0.446,0.371-0.944,0.556-1.495,0.556c-0.396,0-0.849-0.073-1.357-0.218c-0.156-0.049-0.283-0.073-0.382-0.073
			c-0.108,0-0.193,0.063-0.254,0.189h-0.233v-2.376h0.233c0.132,0.678,0.384,1.189,0.757,1.533c0.372,0.344,0.789,0.516,1.251,0.516
			c0.326,0,0.591-0.098,0.795-0.294c0.205-0.196,0.308-0.433,0.308-0.709c0-0.333-0.114-0.614-0.343-0.843
			c-0.229-0.228-0.685-0.516-1.368-0.864c-0.684-0.349-1.131-0.663-1.343-0.945c-0.212-0.276-0.318-0.625-0.318-1.046
			c0-0.547,0.182-1.005,0.547-1.373c0.366-0.369,0.838-0.552,1.418-0.552c0.254,0,0.563,0.056,0.926,0.167
			c0.241,0.073,0.401,0.109,0.481,0.109c0.076,0,0.135-0.018,0.177-0.052c0.042-0.033,0.092-0.108,0.148-0.225H117.295z"/>
		<path fill="#FFFFFF" d="M127.871,68.431c0.759-0.939,1.482-1.409,2.171-1.409c0.354,0,0.657,0.091,0.912,0.272
			s0.457,0.48,0.607,0.897c0.104,0.29,0.156,0.736,0.156,1.336v2.841c0,0.421,0.033,0.707,0.099,0.857
			c0.052,0.121,0.136,0.216,0.251,0.284c0.115,0.067,0.329,0.102,0.64,0.102v0.262h-3.203v-0.262h0.134
			c0.302,0,0.513-0.047,0.633-0.142c0.12-0.094,0.204-0.233,0.25-0.417c0.019-0.072,0.028-0.3,0.028-0.683v-2.725
			c0-0.605-0.077-1.045-0.229-1.319c-0.153-0.273-0.412-0.41-0.774-0.41c-0.561,0-1.119,0.315-1.676,0.944v3.51
			c0,0.45,0.026,0.729,0.078,0.835c0.066,0.141,0.157,0.243,0.272,0.309c0.115,0.065,0.35,0.098,0.704,0.098v0.262h-3.203v-0.262
			h0.141c0.33,0,0.553-0.086,0.668-0.258c0.116-0.172,0.174-0.5,0.174-0.984v-2.471c0-0.799-0.018-1.286-0.054-1.46
			c-0.035-0.174-0.089-0.292-0.162-0.356c-0.073-0.062-0.171-0.094-0.293-0.094c-0.132,0-0.29,0.037-0.474,0.109l-0.106-0.262
			l1.951-0.813h0.304V68.431z"/>
		<path fill="#FFFFFF" d="M140.049,64.017v4.605h2.198c0.4,0,0.694-0.098,0.88-0.293c0.185-0.194,0.309-0.58,0.371-1.156h0.262
			v3.576h-0.262c-0.005-0.41-0.053-0.711-0.145-0.904c-0.092-0.192-0.22-0.336-0.382-0.432c-0.163-0.096-0.404-0.145-0.725-0.145
			h-2.198v2.868c0,0.535,0.03,0.888,0.092,1.059c0.047,0.13,0.146,0.242,0.297,0.335c0.208,0.125,0.424,0.187,0.65,0.187h0.346
			v0.288h-4.115v-0.288h0.34c0.396,0,0.683-0.127,0.862-0.382c0.113-0.166,0.17-0.566,0.17-0.748v-6.826
			c0-0.986-0.031-1.34-0.092-1.511c-0.047-0.13-0.144-0.242-0.29-0.335c-0.203-0.124-0.42-0.187-0.65-0.187h-0.34V63.44h7.134
			l0.092,2.322h-0.248c-0.122-0.493-0.265-0.855-0.427-1.087c-0.163-0.23-0.363-0.398-0.602-0.502
			c-0.238-0.104-0.606-0.156-1.106-0.156H140.049z"/>
		<path fill="#FFFFFF" d="M158.053,67.595v3.897c0,0.745,0.018,1.2,0.053,1.366c0.035,0.166,0.092,0.282,0.169,0.348
			c0.078,0.065,0.169,0.098,0.272,0.098c0.146,0,0.311-0.04,0.495-0.12l0.099,0.246l-1.937,0.793h-0.318v-1.362
			c-0.557,0.6-0.98,0.977-1.272,1.131c-0.293,0.155-0.602,0.231-0.927,0.231c-0.363,0-0.678-0.104-0.943-0.312
			c-0.266-0.209-0.452-0.477-0.555-0.804c-0.104-0.328-0.155-0.792-0.155-1.391v-2.872c0-0.304-0.033-0.515-0.099-0.631
			s-0.164-0.207-0.293-0.271c-0.13-0.063-0.364-0.093-0.704-0.087v-0.261h2.27v4.306c0,0.599,0.105,0.992,0.314,1.179
			c0.21,0.187,0.463,0.281,0.76,0.281c0.203,0,0.432-0.063,0.689-0.189c0.257-0.126,0.562-0.368,0.916-0.723v-3.644
			c0-0.366-0.067-0.613-0.201-0.741c-0.135-0.129-0.414-0.198-0.838-0.207v-0.261H158.053z"/>
		<path fill="#FFFFFF" d="M162.248,68.769c0.758-0.908,1.482-1.363,2.17-1.363c0.354,0,0.658,0.087,0.912,0.263
			c0.255,0.176,0.458,0.465,0.609,0.867c0.104,0.281,0.155,0.712,0.155,1.292v2.746c0,0.407,0.033,0.684,0.099,0.828
			c0.052,0.118,0.135,0.209,0.25,0.274c0.116,0.066,0.329,0.098,0.64,0.098v0.253h-3.202v-0.253h0.134
			c0.301,0,0.512-0.045,0.632-0.137c0.12-0.091,0.204-0.226,0.251-0.403c0.02-0.07,0.029-0.291,0.029-0.66v-2.633
			c0-0.585-0.077-1.01-0.23-1.275c-0.153-0.264-0.411-0.396-0.774-0.396c-0.561,0-1.119,0.304-1.675,0.913v3.392
			c0,0.435,0.026,0.705,0.078,0.807c0.066,0.136,0.157,0.235,0.272,0.298c0.116,0.063,0.351,0.095,0.704,0.095v0.253h-3.203v-0.253
			h0.141c0.331,0,0.553-0.083,0.668-0.249c0.115-0.167,0.173-0.483,0.173-0.951v-2.388c0-0.772-0.018-1.243-0.053-1.412
			s-0.09-0.283-0.163-0.344c-0.073-0.061-0.171-0.091-0.294-0.091c-0.131,0-0.289,0.035-0.473,0.105l-0.106-0.252l1.952-0.787h0.304
			V68.769z"/>
		<path fill="#FFFFFF" d="M172.381,73.204c-0.316,0.364-0.625,0.625-0.927,0.784c-0.302,0.158-0.626,0.237-0.975,0.237
			c-0.707,0-1.325-0.325-1.853-0.978c-0.527-0.651-0.792-1.038-0.792-2.061c0-1.023,0.292-1.96,0.876-2.809
			c0.585-0.849,1.336-1.274,2.255-1.274c0.57,0,1.042,0.2,1.415,0.6v-1.769c0-0.816-0.019-1.316-0.054-1.504
			c-0.035-0.187-0.091-0.314-0.166-0.382s-0.17-0.102-0.282-0.102c-0.123,0-0.285,0.042-0.488,0.125l-0.092-0.272l1.93-0.873h0.318
			v8.252c0,0.836,0.018,1.347,0.054,1.531c0.035,0.185,0.091,0.313,0.169,0.386c0.078,0.072,0.169,0.108,0.272,0.108
			c0.127,0,0.297-0.044,0.509-0.132l0.078,0.273l-1.923,0.88h-0.325V73.204z M172.381,72.658v-3.226
			c-0.029-0.353-0.113-0.675-0.255-0.966c-0.141-0.291-0.329-0.51-0.562-0.658c-0.233-0.148-0.461-0.223-0.683-0.223
			c-0.415,0-0.785,0.206-1.109,0.616c-0.43,0.54-0.644,1.33-0.644,2.368c0,1.05,0.208,1.401,0.622,1.96
			c0.415,0.559,0.877,0.837,1.386,0.837C171.565,73.367,171.979,73.131,172.381,72.658z"/>
		<path fill="#FFFFFF" d="M178.426,73.101c-0.665,0.511-1.082,0.806-1.251,0.885c-0.254,0.117-0.526,0.176-0.813,0.176
			c-0.448,0-0.817-0.152-1.106-0.457c-0.29-0.304-0.435-0.704-0.435-1.2c0-0.313,0.071-0.585,0.212-0.815
			c0.194-0.318,0.529-0.618,1.008-0.898c0.478-0.281,1.273-0.623,2.386-1.026v-0.252c0-0.642-0.103-1.082-0.308-1.32
			c-0.205-0.239-0.503-0.358-0.894-0.358c-0.297,0-0.533,0.08-0.707,0.239c-0.18,0.16-0.269,0.342-0.269,0.547l0.014,0.407
			c0,0.216-0.055,0.382-0.166,0.499c-0.11,0.117-0.255,0.176-0.435,0.176c-0.174,0-0.317-0.062-0.428-0.183
			c-0.111-0.122-0.167-0.288-0.167-0.499c0-0.402,0.208-0.771,0.622-1.109c0.415-0.337,0.997-0.505,1.747-0.505
			c0.575,0,1.046,0.096,1.414,0.288c0.278,0.146,0.483,0.373,0.615,0.682c0.085,0.201,0.127,0.612,0.127,1.236v2.184
			c0,0.613,0.012,0.988,0.035,1.126c0.024,0.139,0.062,0.231,0.117,0.278c0.054,0.046,0.116,0.07,0.188,0.07
			c0.075,0,0.141-0.016,0.197-0.049c0.1-0.061,0.29-0.231,0.573-0.512v0.393c-0.528,0.702-1.032,1.053-1.513,1.053
			c-0.231,0-0.415-0.079-0.551-0.238C178.5,73.756,178.43,73.485,178.426,73.101z M178.426,72.645v-2.451
			c-0.713,0.28-1.172,0.48-1.379,0.597c-0.373,0.206-0.639,0.421-0.799,0.646c-0.161,0.225-0.24,0.471-0.24,0.737
			c0,0.337,0.101,0.616,0.304,0.839c0.202,0.223,0.436,0.333,0.7,0.333C177.37,73.346,177.841,73.113,178.426,72.645z"/>
		<path fill="#FFFFFF" d="M183.104,65.482v2.113h1.514v0.492h-1.514v4.171c0,0.417,0.061,0.698,0.181,0.843
			c0.12,0.145,0.274,0.218,0.463,0.218c0.156,0,0.307-0.048,0.453-0.144c0.146-0.096,0.259-0.238,0.339-0.425h0.275
			c-0.164,0.459-0.398,0.805-0.699,1.036c-0.303,0.231-0.613,0.348-0.934,0.348c-0.217,0-0.429-0.06-0.637-0.179
			c-0.207-0.119-0.36-0.29-0.459-0.512s-0.148-0.565-0.148-1.029v-4.326h-1.025v-0.231c0.26-0.103,0.524-0.278,0.796-0.523
			c0.271-0.246,0.512-0.538,0.724-0.875c0.109-0.177,0.259-0.503,0.453-0.976H183.104z"/>
		<path fill="#FFFFFF" d="M187.688,67.406v5.168c0,0.402,0.029,0.671,0.088,0.804c0.059,0.134,0.146,0.233,0.262,0.298
			c0.116,0.066,0.326,0.098,0.633,0.098v0.253h-3.146v-0.253c0.316,0,0.528-0.029,0.636-0.091s0.194-0.162,0.258-0.302
			c0.063-0.14,0.095-0.41,0.095-0.807v-2.479c0-0.698-0.021-1.149-0.064-1.355c-0.033-0.149-0.084-0.254-0.155-0.312
			c-0.07-0.059-0.167-0.088-0.29-0.088c-0.131,0-0.292,0.035-0.48,0.105l-0.099-0.252l1.951-0.787H187.688z M187.101,63.266
			c0.198,0,0.366,0.069,0.505,0.207c0.14,0.138,0.209,0.305,0.209,0.502s-0.069,0.365-0.209,0.506
			c-0.139,0.141-0.308,0.21-0.505,0.21s-0.368-0.069-0.509-0.21c-0.142-0.141-0.212-0.31-0.212-0.506s0.069-0.364,0.209-0.502
			C186.728,63.334,186.898,63.266,187.101,63.266z"/>
		<path fill="#FFFFFF" d="M198.515,68.769c0.758-0.908,1.482-1.363,2.17-1.363c0.354,0,0.658,0.087,0.912,0.263
			c0.255,0.176,0.457,0.465,0.608,0.867c0.104,0.281,0.155,0.712,0.155,1.292v2.746c0,0.407,0.033,0.684,0.099,0.828
			c0.052,0.118,0.135,0.209,0.25,0.274c0.116,0.066,0.329,0.098,0.64,0.098v0.253h-3.203v-0.253h0.134
			c0.301,0,0.512-0.045,0.632-0.137c0.121-0.091,0.204-0.226,0.251-0.403c0.02-0.07,0.028-0.291,0.028-0.66v-2.633
			c0-0.585-0.076-1.01-0.229-1.275c-0.153-0.264-0.411-0.396-0.774-0.396c-0.561,0-1.119,0.304-1.675,0.913v3.392
			c0,0.435,0.026,0.705,0.078,0.807c0.066,0.136,0.157,0.235,0.272,0.298c0.116,0.063,0.351,0.095,0.704,0.095v0.253h-3.202v-0.253
			h0.141c0.331,0,0.553-0.083,0.669-0.249c0.115-0.167,0.173-0.483,0.173-0.951v-2.388c0-0.772-0.018-1.243-0.053-1.412
			s-0.09-0.283-0.163-0.344c-0.074-0.061-0.171-0.091-0.294-0.091c-0.131,0-0.29,0.035-0.473,0.105l-0.106-0.252l1.951-0.787h0.304
			V68.769z"/>
		<path fill="#FFFFFF" d="M63.958,67.044c1.021,0.067,1.815,0.502,2.383,1.306c0.483,0.687,0.696,1.453,0.641,2.297
			c-0.039,0.595-0.223,1.187-0.552,1.775c-0.33,0.59-0.759,1.022-1.287,1.298c-0.528,0.276-1.104,0.394-1.728,0.353
			c-1.016-0.067-1.797-0.518-2.343-1.354c-0.461-0.704-0.665-1.475-0.61-2.31c0.04-0.608,0.233-1.203,0.579-1.785
			c0.346-0.58,0.78-0.999,1.299-1.253C62.859,67.117,63.398,67.007,63.958,67.044z M63.698,67.5
			c-0.26-0.017-0.526,0.042-0.799,0.177c-0.272,0.134-0.502,0.388-0.689,0.758c-0.186,0.371-0.3,0.855-0.339,1.455
			c-0.063,0.966,0.077,1.812,0.421,2.538c0.345,0.727,0.836,1.11,1.474,1.151c0.477,0.032,0.881-0.136,1.216-0.502
			c0.335-0.365,0.533-1.02,0.595-1.962c0.078-1.178-0.119-2.122-0.591-2.832C64.667,67.796,64.239,67.535,63.698,67.5z"/>
		<path fill="#FFFFFF" d="M71.648,67.044c1.021,0.067,1.815,0.502,2.384,1.306c0.482,0.687,0.696,1.453,0.641,2.297
			c-0.039,0.595-0.224,1.187-0.553,1.775c-0.33,0.59-0.759,1.022-1.287,1.298c-0.528,0.276-1.104,0.394-1.728,0.353
			c-1.016-0.067-1.797-0.518-2.344-1.354c-0.461-0.704-0.665-1.475-0.609-2.31c0.04-0.608,0.232-1.203,0.578-1.785
			c0.347-0.58,0.78-0.999,1.299-1.253C70.549,67.117,71.088,67.007,71.648,67.044z M71.389,67.5
			c-0.26-0.017-0.526,0.042-0.798,0.177c-0.273,0.134-0.503,0.388-0.69,0.758c-0.187,0.371-0.301,0.855-0.34,1.455
			c-0.063,0.966,0.078,1.812,0.422,2.538c0.344,0.727,0.836,1.11,1.474,1.151c0.476,0.032,0.881-0.136,1.216-0.502
			c0.334-0.365,0.533-1.02,0.594-1.962c0.078-1.178-0.119-2.122-0.59-2.832C72.358,67.796,71.929,67.535,71.389,67.5z"/>
		<path fill="#FFFFFF" d="M94.643,67.044c1.021,0.067,1.815,0.502,2.384,1.306c0.483,0.687,0.696,1.453,0.641,2.297
			c-0.039,0.595-0.223,1.187-0.553,1.775c-0.33,0.59-0.759,1.022-1.287,1.298c-0.528,0.276-1.104,0.394-1.728,0.353
			c-1.016-0.067-1.797-0.518-2.344-1.354c-0.461-0.704-0.665-1.475-0.61-2.31c0.041-0.608,0.233-1.203,0.579-1.785
			c0.346-0.58,0.779-0.999,1.299-1.253C93.544,67.117,94.083,67.007,94.643,67.044z M94.384,67.5
			c-0.26-0.017-0.527,0.042-0.799,0.177c-0.273,0.134-0.502,0.388-0.69,0.758c-0.187,0.371-0.3,0.855-0.339,1.455
			c-0.063,0.966,0.077,1.812,0.421,2.538c0.344,0.727,0.835,1.11,1.474,1.151c0.476,0.032,0.881-0.136,1.216-0.502
			c0.334-0.365,0.533-1.02,0.594-1.962c0.078-1.178-0.119-2.122-0.59-2.832C95.353,67.796,94.924,67.535,94.384,67.5z"/>
		<path fill="#FFFFFF" d="M122.139,67.044c1.021,0.067,1.815,0.502,2.383,1.306c0.482,0.687,0.696,1.453,0.641,2.297
			c-0.039,0.595-0.224,1.187-0.553,1.775c-0.33,0.59-0.758,1.022-1.287,1.298c-0.529,0.276-1.104,0.394-1.728,0.353
			c-1.016-0.067-1.797-0.518-2.343-1.354c-0.461-0.704-0.665-1.475-0.61-2.31c0.04-0.608,0.233-1.203,0.579-1.785
			c0.347-0.58,0.78-0.999,1.299-1.253C121.04,67.117,121.579,67.007,122.139,67.044z M121.88,67.5
			c-0.261-0.017-0.526,0.042-0.799,0.177c-0.273,0.134-0.503,0.388-0.689,0.758c-0.188,0.371-0.301,0.855-0.34,1.455
			c-0.063,0.966,0.078,1.812,0.422,2.538c0.344,0.727,0.836,1.11,1.473,1.151c0.477,0.032,0.881-0.136,1.216-0.502
			c0.334-0.365,0.533-1.02,0.594-1.962c0.078-1.178-0.119-2.122-0.59-2.832C122.849,67.796,122.419,67.535,121.88,67.5z"/>
		<path fill="#FFFFFF" d="M148.389,67.188c1.021,0.066,1.815,0.502,2.384,1.306c0.483,0.687,0.696,1.453,0.641,2.297
			c-0.038,0.594-0.223,1.186-0.553,1.776c-0.33,0.589-0.759,1.021-1.287,1.297c-0.528,0.276-1.104,0.394-1.727,0.353
			c-1.016-0.066-1.797-0.518-2.344-1.354c-0.462-0.703-0.665-1.474-0.61-2.31c0.04-0.607,0.233-1.203,0.579-1.784
			c0.346-0.581,0.779-0.999,1.299-1.254C147.29,67.26,147.829,67.151,148.389,67.188z M148.13,67.644
			c-0.26-0.017-0.527,0.042-0.799,0.177c-0.273,0.135-0.502,0.388-0.689,0.759c-0.187,0.37-0.301,0.855-0.34,1.454
			c-0.063,0.967,0.077,1.812,0.422,2.538c0.344,0.727,0.835,1.11,1.473,1.152c0.476,0.031,0.881-0.137,1.215-0.502
			c0.335-0.366,0.533-1.021,0.595-1.962c0.078-1.178-0.119-2.122-0.59-2.832C149.099,67.94,148.67,67.679,148.13,67.644z"/>
		<path fill="#FFFFFF" d="M192.961,67.188c1.021,0.066,1.815,0.502,2.384,1.306c0.482,0.687,0.695,1.453,0.64,2.297
			c-0.039,0.594-0.223,1.186-0.552,1.776c-0.33,0.589-0.759,1.021-1.287,1.297c-0.528,0.276-1.104,0.394-1.728,0.353
			c-1.016-0.066-1.797-0.518-2.344-1.354c-0.461-0.703-0.664-1.474-0.609-2.31c0.04-0.607,0.233-1.203,0.579-1.784
			c0.347-0.581,0.78-0.999,1.299-1.254C191.862,67.26,192.401,67.151,192.961,67.188z M192.702,67.644
			c-0.261-0.017-0.527,0.042-0.799,0.177c-0.273,0.135-0.502,0.388-0.69,0.759c-0.186,0.37-0.3,0.855-0.339,1.454
			c-0.063,0.967,0.078,1.812,0.421,2.538c0.345,0.727,0.836,1.11,1.474,1.152c0.477,0.031,0.881-0.137,1.216-0.502
			c0.334-0.366,0.533-1.021,0.594-1.962c0.077-1.178-0.119-2.122-0.59-2.832C193.671,67.94,193.242,67.679,192.702,67.644z"/>
		<path fill="#FFFFFF" d="M58.813,63.292v0.288c0.288,0,0.521,0.037,0.7,0.109c0.104,0.042,0.189,0.114,0.258,0.219
			c0.068,0.104,0.103,0.215,0.103,0.334c0,0.25-0.104,0.696-0.312,1.34l-1.823,5.82l-1.958-3.99l0.774-1.83
			c0.203-0.686,0.351-1.119,0.445-1.302c0.141-0.27,0.29-0.454,0.445-0.553c0.156-0.099,0.358-0.148,0.608-0.148v-0.288h-2.411
			v0.288l0.248,0.109c0,0,0.189,0.114,0.258,0.219c0.068,0.104,0.103,0.215,0.103,0.334c0,0.25-0.104,0.696-0.311,1.34l-0.513,1.112
			l-0.507-1.034c-0.212-0.66-0.318-1.122-0.318-1.388c0-0.212,0.184-0.506,0.184-0.506s0.085-0.187,0.128-0.187s0.254,0,0.254,0
			v-0.288h-3.28v0.288c0.192,0,0.334,0.017,0.423,0.047c0.118,0.042,0.236,0.109,0.354,0.203c0.089,0.067,0.165,0.15,0.226,0.249
			c0.123,0.197,0.233,0.426,0.332,0.686l0.476,0.899l0.866,2.374l-1.102,3.366l-2.707-5.93c-0.208-0.654-0.312-1.072-0.312-1.254
			c0-0.177,0.066-0.327,0.198-0.453c0.132-0.125,0.324-0.187,0.573-0.187h0.17v-0.288h-3.549v0.288c0.277,0,0.498,0.048,0.661,0.145
			c0.163,0.097,0.292,0.243,0.385,0.44c0.057,0.12,0.191,0.506,0.403,1.162l3.669,8.773h0.255l1.695-5.404l2.317,5.404h0.283
			l2.672-8.517c0.203-0.686,0.352-1.119,0.446-1.302c0.141-0.27,0.29-0.454,0.445-0.553c0.156-0.099,0.359-0.148,0.608-0.148v-0.288
			H58.813z"/>
		<path fill="#FFFFFF" d="M86.746,63.292v0.288h0.346c0.226,0,0.44,0.062,0.643,0.187c0.151,0.094,0.25,0.206,0.297,0.335
			c0.062,0.171,0.092,0.524,0.092,1.06c0,0,0.016,9.255,0,9.573c-0.015,0.318-0.567,1.08-0.771,1.172
			c-0.205,0.093-0.641,0.271-0.785,0.103c-0.331-0.385-0.57-0.609-0.72-0.672s-0.295-0.07-0.438-0.02
			c-0.196,0.069-0.341,0.205-0.434,0.409c-0.068,0.162-0.059,0.362,0.025,0.603c0.104,0.294,0.315,0.513,0.636,0.656
			c0.319,0.144,0.689,0.142,1.107-0.005c0.377-0.133,1.117-0.697,1.223-0.753c0.011-0.002,1.064-0.879,1.277-1.609
			c0.158-0.493,0.237-1.137,0.237-1.932v-7.524c0-0.633,0.057-1.034,0.169-1.2c0.179-0.254,0.465-0.382,0.856-0.382h0.346v-0.288
			H86.746z"/>
	</g>
</g>
</svg>
