<?xml version="1.0" encoding="utf-8"?>
<!-- Generator: Adobe Illustrator 16.0.0, SVG Export Plug-In . SVG Version: 6.00 Build 0)  -->
<!DOCTYPE svg PUBLIC "-//W3C//DTD SVG 1.1//EN" "http://www.w3.org/Graphics/SVG/1.1/DTD/svg11.dtd">
<svg version="1.1" id="Layer_1" xmlns="http://www.w3.org/2000/svg" xmlns:xlink="http://www.w3.org/1999/xlink" x="0px" y="0px"
	 width="64px" height="64px" viewBox="0 0 64 64" enable-background="new 0 0 64 64" xml:space="preserve">
<g>
	<path fill="#EF4461" d="M32.531,0.542c17.18,0,31.107,13.928,31.107,31.109c0,17.182-13.928,31.109-31.107,31.109
		c-17.182,0-31.109-13.927-31.109-31.109C1.422,14.47,15.35,0.542,32.531,0.542z"/>
	<g>
		<path fill="#ECF0F0" d="M45.654,47.692l-9.236-22.374v-4.361h-7.775v4.373l-9.236,22.362c-0.283,0.77,0.652,1.458,1.459,1.458
			h23.33C45.002,49.15,45.938,48.432,45.654,47.692z"/>
		<path fill="#ECF0F0" d="M28.736,20.457c-0.002,0.005-0.002,0.01-0.004,0.015h7.596c-0.002-0.005-0.002-0.01-0.004-0.015
			c0.602-0.075,1.066-0.58,1.066-1.2c0-0.671-0.543-1.215-1.215-1.215h-7.291c-0.672,0-1.215,0.544-1.215,1.215
			C27.67,19.876,28.135,20.382,28.736,20.457z"/>
	</g>
	<path fill="#EF4461" d="M38.018,33.144c2.425,5.993,5.693,13.576,5.693,13.576c0.283,0.709-0.168,0.972-0.973,0.972H22.322
		c-0.805,0-1.205-0.222-0.973-0.972c0,0,3.102-7.662,5.504-13.599C29.957,30.421,32.887,34.113,38.018,33.144z"/>
	<path opacity="0.4" fill="#FFFFFF" d="M31.314,38.457c-1.477,0-2.672,1.197-2.672,2.673s1.195,2.673,2.672,2.673
		s2.674-1.197,2.674-2.673S32.791,38.457,31.314,38.457z M36.418,36.755c0-0.671-0.543-1.215-1.215-1.215
		c-0.67,0-1.215,0.544-1.215,1.215c0,0.671,0.545,1.215,1.215,1.215C35.875,37.97,36.418,37.426,36.418,36.755z M37.877,41.373
		c-1.074,0-1.943,0.871-1.943,1.944c0,1.074,0.869,1.944,1.943,1.944s1.945-0.87,1.945-1.944
		C39.822,42.244,38.951,41.373,37.877,41.373z"/>
	<path fill="#FFFFFF" d="M33.746,14.152c-0.672,0-1.217,0.544-1.217,1.215s0.545,1.215,1.217,1.215c0.67,0,1.215-0.544,1.215-1.215
		S34.416,14.152,33.746,14.152z M30.344,10.75c-0.941,0-1.701,0.762-1.701,1.701c0,0.94,0.76,1.701,1.701,1.701
		c0.939,0,1.701-0.761,1.701-1.701C32.045,11.512,31.283,10.75,30.344,10.75z"/>
</g>
</svg>
