<?xml version="1.0" encoding="utf-8"?>
<!-- Generator: Adobe Illustrator 16.0.0, SVG Export Plug-In . SVG Version: 6.00 Build 0)  -->
<!DOCTYPE svg PUBLIC "-//W3C//DTD SVG 1.1//EN" "http://www.w3.org/Graphics/SVG/1.1/DTD/svg11.dtd">
<svg version="1.1" id="Layer_1" xmlns="http://www.w3.org/2000/svg" xmlns:xlink="http://www.w3.org/1999/xlink" x="0px" y="0px"
	 width="64px" height="64px" viewBox="0 0 64 64" enable-background="new 0 0 64 64" xml:space="preserve">
<g>
	<path fill="#EF4461" d="M32.628,0.809c17.182,0,31.109,13.928,31.109,31.109c0,17.182-13.928,31.109-31.109,31.109
		c-17.18,0-31.109-13.927-31.109-31.109C1.519,14.738,15.448,0.809,32.628,0.809z"/>
	<g>
		<defs>
			<circle id="SVGID_1_" cx="32.628" cy="31.918" r="31.109"/>
		</defs>
		<clipPath id="SVGID_2_">
			<use xlink:href="#SVGID_1_"  overflow="visible"/>
		</clipPath>
		<polygon clip-path="url(#SVGID_2_)" fill="#EF4461" points="-0.425,53.305 19.991,28.516 40.405,43.098 58.875,16.85 
			68.112,0.809 -0.425,0.809 		"/>
	</g>
	<path fill="#ECF0F0" d="M41.118,43.695l19.211-27.096l-2.166-1.207L39.554,41.639L21.397,28.945l-0.193,0.152l0.215-0.283
		l-1.688-1.683L5.894,45.303l1.688,1.682l12.391-16.27l20.543,14.645L41.118,43.695L41.118,43.695z"/>
	<path fill="#FFFFFF" d="M6.866,40.181c-2.953,0-5.348,2.395-5.348,5.347c0,2.953,2.395,5.347,5.348,5.347s5.348-2.394,5.348-5.347
		C12.214,42.576,9.819,40.181,6.866,40.181z M20.476,24.141c-2.953,0-5.346,2.394-5.346,5.347s2.393,5.347,5.346,5.347
		s5.348-2.394,5.348-5.347S23.429,24.141,20.476,24.141z M39.919,36.779c-2.953,0-5.346,2.394-5.346,5.347
		c0,2.954,2.393,5.347,5.346,5.347s5.348-2.393,5.348-5.347C45.267,39.173,42.872,36.779,39.919,36.779z M58.39,11.503
		c-2.953,0-5.346,2.394-5.346,5.347s2.393,5.347,5.346,5.347s5.348-2.394,5.348-5.347S61.343,11.503,58.39,11.503z"/>
</g>
</svg>
