<?xml version="1.0" encoding="utf-8"?>
<!-- Generator: Adobe Illustrator 16.0.0, SVG Export Plug-In . SVG Version: 6.00 Build 0)  -->
<!DOCTYPE svg PUBLIC "-//W3C//DTD SVG 1.1//EN" "http://www.w3.org/Graphics/SVG/1.1/DTD/svg11.dtd">
<svg version="1.1" id="Layer_1" xmlns="http://www.w3.org/2000/svg" xmlns:xlink="http://www.w3.org/1999/xlink" x="0px" y="0px"
	 width="44.5px" height="42.125px" viewBox="0 0 44.5 42.125" enable-background="new 0 0 44.5 42.125" xml:space="preserve">
<g>
	<circle fill="none" stroke="#EF4461" stroke-miterlimit="10" cx="12.954" cy="4.38" r="1.753"/>
	<circle fill="none" stroke="#EF4461" stroke-miterlimit="10" cx="21.835" cy="4.38" r="1.753"/>
	<circle fill="none" stroke="#EF4461" stroke-miterlimit="10" cx="34.465" cy="37.147" r="2.351"/>
	<circle fill="#EF4461" cx="34.575" cy="37.228" r="0.828"/>
	<path fill="none" stroke="#EF4461" stroke-miterlimit="10" d="M11.201,4.835c0,0-3.497-0.46-3.497,3.405
		c0,3.865,1.84,10.675,2.484,13.068c0.645,2.393,3.129,5.89,7.454,5.89c4.325,0,6.71-2.795,7.178-5.706
		c0.468-2.911,2.117-8.834,2.117-13.159c0-4.326-3.349-3.952-3.349-3.952"/>
	<path fill="none" stroke="#EF4461" stroke-miterlimit="10" d="M34.464,34.796V30.51c0,0-0.164-3.312-4.397-3.312
		s-4.417,3.129-4.417,3.129v4.47c0,0,0.194,4.703-3.814,4.703s-4.192-4.703-4.192-4.703v-7.599"/>
</g>
</svg>
