<?xml version="1.0" encoding="utf-8"?>
<!-- Generator: Adobe Illustrator 16.0.0, SVG Export Plug-In . SVG Version: 6.00 Build 0)  -->
<!DOCTYPE svg PUBLIC "-//W3C//DTD SVG 1.1//EN" "http://www.w3.org/Graphics/SVG/1.1/DTD/svg11.dtd">
<svg version="1.1" id="Layer_1" xmlns="http://www.w3.org/2000/svg" xmlns:xlink="http://www.w3.org/1999/xlink" x="0px" y="0px"
	 width="44.5px" height="42.125px" viewBox="0 0 44.5 42.125" enable-background="new 0 0 44.5 42.125" xml:space="preserve">
<g>
	<path fill="none" stroke="#EF4461" stroke-miterlimit="10" d="M13.517,9.399c0,0-2.425,0-3.428,0s-1.087,0.334-1.087,0.836
		c0,0.501,0,24.748,0,25.417c0,0.669,0.167,0.669,0.92,0.669s23.41,0,23.995,0c0.585,0,0.752-0.25,0.752-1.003s0-24.247,0-24.916
		s-0.501-1.003-1.003-1.003c-0.502,0-3.512,0-3.512,0"/>
	<polyline fill="none" stroke="#EF4461" stroke-miterlimit="10" points="15.773,22.86 19.787,26.622 27.813,18.429 	"/>
	<circle fill="none" stroke="#EF4461" stroke-miterlimit="10" cx="21.877" cy="6.305" r="1.756"/>
	<path fill="none" stroke="#EF4461" stroke-miterlimit="10" d="M13.767,8.061c0,0.819,0,1.589,0,2.425s0.418,1.588,1.337,1.588
		c0.92,0,11.956,0,13.21,0s1.505-0.819,1.505-2.007c0-1.188,0-1.086,0-2.006c0-0.919-0.752-1.756-2.006-1.756
		c-1.254,0-2.007,0-2.007,0s-0.335-3.679-4.013-3.679c-3.679,0-3.762,3.679-3.762,3.679s-1.171,0-2.258,0
		C14.687,6.305,13.767,7.243,13.767,8.061z"/>
</g>
</svg>
