<svg xmlns="http://www.w3.org/2000/svg" xmlns:xlink="http://www.w3.org/1999/xlink" version="1.1" id="Capa_1" x="0px" y="0px" width="100px" height="100px" viewBox="0 0 100 100" enable-background="new 0 0 100 100" xml:space="preserve">
<path d="M23.494,41.716c2.316,6.718,6.375,11.147,10.697,10.861c4.32-0.287,7.757-5.213,9.167-12.18L23.494,41.716z"/>
<path d="M44.182,21.127c0.252-1.857,0.733-7.059-0.141-9.733C41.36,3.28,36.277,0.766,30.777,1.131  c-7.498,0.496-12.866,11.567-11.993,24.727c0.241,3.637,0.936,7.052,1.97,10.08l22.716-1.508  C43.278,30.649,43.483,26.233,44.182,21.127z"/>
<path d="M75.36,88.365c-2.532,6.644-6.73,10.937-11.042,10.508c-4.311-0.427-7.585-5.461-8.766-12.473L75.36,88.365z"/>
<path d="M55.356,67.115c-0.193-1.863-0.503-7.077,0.457-9.723c2.943-8.023,8.105-10.372,13.591-9.827  c7.476,0.743,12.481,11.981,11.181,25.106c-0.359,3.626-1.164,7.018-2.296,10.01l-22.653-2.248  C55.948,76.662,55.89,72.242,55.356,67.115z"/>
</svg>