<svg xmlns="http://www.w3.org/2000/svg" xmlns:xlink="http://www.w3.org/1999/xlink" version="1.1" x="0px" y="0px" width="100px" height="100px" viewBox="0 0 100 100" enable-background="new 0 0 100 100" xml:space="preserve">
<g id="Captions" display="none">
</g>
<g id="Your_Icon">
	<path d="M37,32"/>
	<g>
		<circle cx="49.611" cy="12.432" r="7.327"/>
		<path d="M69.577,29.938c0,0,0.142-3.247-2.804-6.165c-2.943-2.919-8.268-2.583-8.268-2.583l-16.551,0.07    c0,0-5.327-0.291-8.245,2.652c-2.919,2.944-2.752,6.188-2.752,6.188l0.103,24.309c0,0,0.728,2.236,3.399,2.226    c2.673-0.012,3.096-1.938,3.096-2.024s-0.04-22.313-0.04-22.313l2.647-0.052l0.3,59.023c0,0-0.049,3.707,4.491,3.687    c0,0,4.21-0.047,4.194-3.38c-0.014-3.332-0.146-34.482-0.146-34.482l2.76-0.012c0,0,0.132,31.15,0.146,34.481    c0.015,3.333,4.223,3.346,4.223,3.346c4.541-0.02,4.461-3.725,4.461-3.725L60.393,32.16l2.646,0.03c0,0,0.15,22.227,0.15,22.313    c0,0.087,0.439,2.008,3.111,1.998c2.672-0.011,3.381-2.255,3.381-2.255L69.577,29.938z M51.587,32.214    c0.498,0,0.902,0.404,0.902,0.901c0,0.499-0.404,0.903-0.902,0.903c-0.499,0-0.903-0.404-0.903-0.903    C50.684,32.618,51.088,32.214,51.587,32.214z M47.449,36.351c0.499,0,0.901,0.404,0.901,0.902s-0.402,0.902-0.901,0.902    s-0.902-0.404-0.902-0.902S46.95,36.351,47.449,36.351z M44.157,37.73c0.964,0,1.747,0.782,1.747,1.747    c0,0.965-0.783,1.748-1.747,1.748c-0.966,0-1.748-0.783-1.748-1.748C42.409,38.512,43.191,37.73,44.157,37.73z M43.312,51.948    c-0.498,0-0.902-0.404-0.902-0.902c0-0.497,0.404-0.901,0.902-0.901s0.901,0.404,0.901,0.901    C44.213,51.544,43.81,51.948,43.312,51.948z M43.312,49.189c-0.498,0-0.902-0.404-0.902-0.902c0-0.497,0.404-0.901,0.902-0.901    s0.901,0.404,0.901,0.901C44.213,48.786,43.81,49.189,43.312,49.189z M46.973,49.666c0,0.499-0.404,0.903-0.902,0.903    c-0.499,0-0.903-0.404-0.903-0.903c0-0.281,0.139-0.523,0.343-0.689c-0.204-0.164-0.343-0.407-0.343-0.689    c0-0.497,0.404-0.901,0.903-0.901c0.498,0,0.902,0.404,0.902,0.901c0,0.283-0.139,0.525-0.343,0.689    C46.834,49.143,46.973,49.385,46.973,49.666z M50.208,49.189c-0.498,0-0.902-0.404-0.902-0.902c0-0.497,0.404-0.901,0.902-0.901    s0.902,0.404,0.902,0.901C51.11,48.786,50.706,49.189,50.208,49.189z M51.421,40.856c0,0.387-0.149,0.725-0.362,1.014    c0.962,0.003,1.742,0.782,1.742,1.744c0,0.966-0.783,1.749-1.747,1.749c-0.204,0-0.392-0.052-0.572-0.116    c-0.303,1.166-1.35,2.03-2.608,2.03c-0.669,0-1.273-0.252-1.745-0.654c-0.188,0.067-0.382,0.119-0.591,0.119    c-0.967,0-1.75-0.783-1.75-1.749c0-0.96,0.777-1.738,1.738-1.744c0.465-0.821,1.336-1.381,2.348-1.381    c0.152,0,0.299,0.021,0.444,0.044c-0.231-0.296-0.392-0.651-0.392-1.057c0-0.962,0.778-1.741,1.741-1.745    c-0.213-0.289-0.361-0.626-0.361-1.013c0-0.965,0.782-1.747,1.748-1.747c0.962,0,1.741,0.779,1.745,1.742    c0.289-0.212,0.628-0.361,1.013-0.361c0.965,0,1.747,0.781,1.747,1.746c0,0.966-0.782,1.749-1.747,1.749    c-0.963,0-1.741-0.779-1.747-1.74c-0.286,0.21-0.621,0.358-1.004,0.359C51.271,40.133,51.421,40.471,51.421,40.856z     M56.571,48.122c-0.856,0-1.538-0.628-1.687-1.441c-0.814-0.15-1.441-0.83-1.441-1.687c0-0.964,0.782-1.746,1.748-1.746    c0.856,0,1.536,0.628,1.686,1.441c0.812,0.149,1.44,0.828,1.44,1.684C58.317,47.339,57.535,48.122,56.571,48.122z"/>
	</g>
</g>
</svg>