<?xml version="1.0" encoding="utf-8"?>
<!-- Generator: Adobe Illustrator 15.1.0, SVG Export Plug-In . SVG Version: 6.00 Build 0)  -->
<!DOCTYPE svg PUBLIC "-//W3C//DTD SVG 1.1//EN" "http://www.w3.org/Graphics/SVG/1.1/DTD/svg11.dtd">
<svg version="1.1" id="Layer_1" xmlns="http://www.w3.org/2000/svg" xmlns:xlink="http://www.w3.org/1999/xlink" x="0px" y="0px"
	 width="85.225px" height="100px" viewBox="0 0 85.225 100" enable-background="new 0 0 85.225 100" xml:space="preserve">
<path d="M81.621,35.73c-1.989,0-3.6,1.61-3.6,3.6c0,0.087,0.043,0.159,0.049,0.245l-13.489,3.552
	c-0.755-1.815-1.695-3.532-2.798-5.133l8.438-4.759c0.655,0.722,1.584,1.193,2.639,1.193c1.987,0,3.6-1.612,3.6-3.6
	c0-1.989-1.61-3.6-3.6-3.6s-3.6,1.611-3.6,3.6c0,0.435,0.104,0.839,0.247,1.224l-8.558,4.829c-2.194-2.876-4.923-5.312-8.051-7.165
	l8.934-11.411c0.496,0.258,1.037,0.44,1.633,0.44c1.988,0,3.6-1.611,3.6-3.6c0-1.989-1.61-3.6-3.6-3.6c-1.988,0-3.6,1.611-3.6,3.6
	c0,0.886,0.356,1.67,0.887,2.298l-9.06,11.577c-3.771-1.992-8.051-3.141-12.594-3.224v-9.416c1.68-0.303,2.982-1.707,2.982-3.475
	c0-1.989-1.613-3.6-3.601-3.6c-1.99,0-3.6,1.61-3.6,3.6c0,1.719,1.229,3.089,2.839,3.446v9.458
	c-1.445,0.047-2.873,0.208-4.274,0.484L29.652,6.946C31.017,6.436,32,5.145,32,3.6C32,1.612,30.387,0,28.4,0
	c-1.989,0-3.6,1.612-3.6,3.6c0,1.951,1.556,3.52,3.494,3.578l3.807,19.421c-1.729,0.434-3.413,1.014-5.021,1.749l-4.961-9.021
	c0.853-0.659,1.436-1.642,1.436-2.802c0-1.988-1.613-3.6-3.6-3.6c-1.989,0-3.6,1.611-3.6,3.6c0,1.988,1.61,3.6,3.6,3.6
	c0.328,0,0.623-0.105,0.923-0.186l4.967,9.03c-2.592,1.332-4.961,3.019-7.014,4.962L6.534,22.146
	c0.387-0.575,0.666-1.227,0.666-1.969c0-1.989-1.613-3.601-3.6-3.601c-1.99,0-3.6,1.612-3.6,3.601c0,1.987,1.61,3.6,3.6,3.6
	c0.738,0,1.386-0.277,1.958-0.659l12.283,11.771c-3.116,3.241-5.356,7.078-6.277,11.05c-0.543,2.35-1.162,8.487-1.162,8.487
	L4.535,69.243c-0.119,0.265-0.174,0.569-0.174,0.885c0,1.248,1.009,2.263,2.266,2.263h3.775v7.874
	c0,6.14,4.968,11.112,11.101,11.112h4.411V100H55.97V76.091c6.553-5.152,10.771-13.165,10.771-22.146
	c0-3.345-0.611-6.538-1.68-9.513l13.364-3.523c0.588,1.189,1.781,2.025,3.2,2.025c1.987,0,3.6-1.612,3.6-3.6
	C85.225,37.344,83.609,35.73,81.621,35.73z M17.207,69.294H17.2c-0.937,0-2.096-0.679-2.096-2.307c0-1.627,2.096-4.086,2.096-4.086
	h0.006c0,0,2.026,2.459,2.026,4.086C19.232,68.615,18.143,69.294,17.207,69.294z M22.546,60.008
	c-0.585,0.116-1.188,0.175-1.802,0.175c-0.284,0-0.569-0.013-0.857-0.037c-2.83-0.247-5.223-1.663-6.097-3.605
	c-0.12-0.269-0.001-0.581,0.266-0.7c0.268-0.124,0.583,0,0.702,0.266c0.707,1.573,2.806,2.773,5.22,2.983
	c0.81,0.072,1.604,0.03,2.359-0.12c0.291-0.057,0.566,0.129,0.625,0.416C23.021,59.671,22.834,59.949,22.546,60.008z"/>
</svg>
