<svg xmlns="http://www.w3.org/2000/svg" xmlns:xlink="http://www.w3.org/1999/xlink" version="1.1" id="Layer_1" x="0px" y="0px" width="100px" height="100px" viewBox="0 0 100 100" enable-background="new 0 0 100 100" xml:space="preserve">
<g>
	<circle fill="#000000" cx="16.849" cy="57.323" r="8.514"/>
</g>
<g>
	<path fill="#000000" d="M88.539,59.309c-11.823-4.224-19.587-4.617-26.575-4.444c0.009,0.454,0.019,0.918,0.027,1.397   c0.038,1.875,0.087,4.207,0.11,6.743c0.006,0.442-0.053,0.871-0.154,1.282c6.531-0.176,12.959,0.154,23.424,3.893   c0.523,0.188,1.059,0.276,1.584,0.276c1.934,0,3.748-1.201,4.436-3.127C92.266,62.879,90.989,60.184,88.539,59.309z"/>
	<g>
		<path fill="#000000" d="M65.066,25.322c-0.721-0.452-1.521-0.667-2.313-0.667c-1.452,0-2.872,0.725-3.701,2.045    c-6.548,10.446-6.807,16.254-6.594,27.669c0.552-0.404,1.214-0.623,1.915-0.623c0.844,0,1.645,0.32,2.256,0.906    c0.125,0.121,0.237,0.254,0.341,0.39c0.414,0.545,0.647,1.201,0.661,1.897c0.018,0.869-0.305,1.695-0.908,2.324    c-0.631,0.657-1.341,1.254-2.111,1.795c-0.629,0.439-1.301,0.842-2.012,1.198c-0.127,0.063-0.255,0.123-0.384,0.183    c-0.127,0.062-0.254,0.121-0.383,0.179c-1.899,0.843-4.035,1.395-6.309,1.623c-0.784,0.079-1.583,0.124-2.396,0.124    c-3.886,0-7.701-0.928-10.684-2.566c-0.372-0.203-0.735-0.415-1.08-0.641c-0.729-0.479-1.227-1.211-1.404-2.063    c-0.177-0.854-0.011-1.724,0.467-2.452c0.604-0.922,1.625-1.472,2.729-1.472c0.636,0,1.253,0.185,1.786,0.535    c2.027,1.329,5.083,2.123,8.177,2.123c1.265,0,2.467-0.128,3.582-0.37c1.984-0.429,3.682-1.222,4.913-2.32    c-4.484-0.049-9.412-0.522-15.914-2.223c-1.431-0.504-2.521-0.811-3.091-0.824c-2.355-0.064-4.983,2.016-5.253,5.085    c-3.028,9.384,18.733,14.15,28.742,10.933c0.295-0.096,0.575-0.197,0.848-0.307c0.412-0.164,0.8-0.343,1.158-0.539    c1.459-0.392,2.614-1.515,3.045-2.951c0.123-0.412,0.188-0.849,0.185-1.301c-0.024-2.486-0.069-4.742-0.11-6.734    c-0.011-0.479-0.021-0.938-0.029-1.393c-0.223-11.255-0.086-15.035,5.252-23.548C67.727,29.295,67.109,26.603,65.066,25.322z"/>
		<path fill="#000000" d="M56.126,55.177c-0.04-0.039-0.087-0.064-0.129-0.101c-0.945-0.788-2.411-0.758-3.325,0.064    c-0.042,0.037-0.089,0.067-0.129,0.108c-0.021,0.021-0.045,0.043-0.066,0.063c-0.121,0.125-0.246,0.244-0.379,0.361    c-0.121,0.109-0.248,0.217-0.378,0.321c-1.073,0.851-2.417,1.506-3.948,1.94c-1.413,0.4-2.984,0.616-4.652,0.616    c-3.277,0-6.403-0.817-8.575-2.243c-0.415-0.271-0.894-0.416-1.388-0.416c-0.859,0-1.653,0.429-2.123,1.146    c-0.372,0.565-0.5,1.244-0.363,1.907c0.137,0.664,0.525,1.232,1.092,1.604c2.991,1.962,7.133,3.088,11.366,3.088    c3.19,0,6.173-0.641,8.696-1.814c0.127-0.061,0.257-0.116,0.382-0.179c0.13-0.065,0.256-0.136,0.383-0.201    c0.436-0.231,0.854-0.479,1.258-0.742c0.869-0.572,1.661-1.221,2.354-1.94c0.47-0.489,0.72-1.132,0.706-1.809    C56.893,56.275,56.615,55.646,56.126,55.177z"/>
	</g>
</g>
</svg>