<svg xmlns="http://www.w3.org/2000/svg" xmlns:xlink="http://www.w3.org/1999/xlink" version="1.1" id="Layer_1" x="0px" y="0px" width="100px" height="100px" viewBox="0 0 100 100" enable-background="new 0 0 100 100" xml:space="preserve">
<g id="Your_Icon">
	<g>
		<path fill="#000000" d="M71.389,18.65H28.611C18.57,18.65,10.4,26.82,10.4,36.861v26.277c0,10.041,8.17,18.212,18.211,18.212    h42.778c10.041,0,18.213-8.171,18.213-18.212V36.861C89.602,26.82,81.43,18.65,71.389,18.65z M87.734,63.139    c0,9.018-7.334,16.346-16.346,16.346H28.611c-9.011,0-16.345-7.328-16.345-16.346V36.861c0-9.015,7.334-16.345,16.345-16.345    h42.778c9.012,0,16.346,7.33,16.346,16.345V63.139L87.734,63.139z"/>
		<path fill="#000000" d="M71.389,23.311H28.611c-7.481,0-13.55,6.069-13.55,13.55v26.277c0,7.486,6.069,13.548,13.55,13.548h42.778    c7.481,0,13.551-6.062,13.551-13.547V36.861C84.939,29.38,78.87,23.311,71.389,23.311z M64.239,45.646L64.239,45.646    L50.714,69.078L37.925,48.416l-0.076,0.067l-1.639-2.837L30.372,35.53l0,0l-0.5-0.862l0.803-0.593    c5.695-4.236,12.453-6.477,19.552-6.477c7.093,0,13.857,2.24,19.552,6.477l0.799,0.593L67.271,40.4L64.239,45.646z"/>
		<polygon fill="#000000" points="64.693,44.86 64.239,45.646 64.239,45.646 67.271,40.4   "/>
		<polygon fill="#000000" points="37.849,48.483 37.925,48.416 37.925,48.416   "/>
		<path fill="#000000" d="M60.882,46.991c-2.547-2.03-5.573-3.278-8.806-3.627l-0.777-0.084l-1.072-4.287l-1.072,4.287l-0.778,0.084    c-3.203,0.345-6.204,1.576-8.738,3.573L50.646,64.72L60.882,46.991z"/>
	</g>
</g>
</svg>