<svg xmlns="http://www.w3.org/2000/svg" xmlns:xlink="http://www.w3.org/1999/xlink" version="1.1" id="Ebene_1" x="0px" y="0px" width="91.2605042017px" height="100px" viewBox="0 0 543.625 595.28" enable-background="new 0 0 543.625 595.28" xml:space="preserve">
<g>
	<path d="M50.469,512.76c2.453,2.782,5.02,5.537,7.631,8.188l26.572-26.063c-2.178-2.229-4.31-4.513-6.351-6.822L50.469,512.76z"/>
	<path d="M419.199,30.802c-3.122-2.093-6.324-4.113-9.512-6.003l-18.266,30.802c2.625,1.555,5.263,3.221,7.847,4.953L419.199,30.802   z"/>
	<path d="M508.346,403.442c0.298-14.711-1.087-29.687-4.236-44.576c0.196-1.35,0.41-3.018,0.632-4.906l34.477,3.827   c0.354-3.136,0.722-6.705,1.09-10.484l-34.504-3.328c1.545-15.778,3.125-36.846,3.125-43.967c0-0.592-0.013-1.181-0.016-1.772   l34.66-0.203c-0.025-3.589-0.104-7.165-0.21-10.733l-34.626,1.117c-0.479-15.333-1.908-30.435-4.249-45.181l34.23-5.396   c-0.564-3.557-1.167-7.093-1.823-10.603l-34.079,6.345c-2.826-15.049-6.615-29.685-11.321-43.772l33.079-10.871   c-1.128-3.405-2.31-6.843-3.543-10.208l-32.758,11.878c-5.268-14.273-11.511-27.92-18.667-40.8l30.903-16.825   c-1.73-3.188-3.543-6.376-5.379-9.474l-30.357,17.937c-3.888-6.448-8.01-12.688-12.373-18.687   c-4.389-6.034-8.958-11.735-13.682-17.119l26.969-23.305c-2.415-2.801-4.908-5.563-7.388-8.201l-25.991,24.513   c-23.594-24.684-50.784-41.523-79.851-49.517L361.505,4.5c-3.661-0.958-7.4-1.804-11.112-2.519l-6.756,35.015   c-10.036-2.118-20.266-3.211-30.627-3.211c-3.795,0-7.583,0.158-11.36,0.454L297.684,0c-3.767,0.434-7.571,1.003-11.316,1.693   l6.156,33.552c-14.053,1.995-27.887,6.03-41.236,12.017l-14.583-28.624c-3.32,1.693-6.652,3.51-9.9,5.406l15.955,27.345   c-9.132,4.743-18.005,10.412-26.526,16.988c-3.395,2.62-6.726,5.385-9.995,8.275l-20.51-21.399   c-2.643,2.532-5.268,5.169-7.82,7.839l21.2,20.201c-10.558,10.266-20.357,21.938-29.226,34.818l-23.314-15.092   c-1.961,3.024-3.896,6.141-5.76,9.264l23.609,14.102c-6.344,10.017-12.157,20.667-17.348,31.883   c-1.372,2.965-2.688,5.985-3.975,9.025l-25.547-9.998c-1.339,3.319-2.644,5.717-3.89,9.096l25.77,9.935   c-0.886,2.294-1.75,4.597-2.579,6.91c-4.599,8.504-17.596,22.058-28.956,33.293l-20.972-20.973   c-2.414,2.415-4.815,4.777-7.145,7.046l20.677,21.206c-0.814,0.791-1.604,1.556-2.362,2.291   c-6.687,6.48-10.249,9.957-12.017,12.178c-2.199,2.28-4.331,4.609-6.401,6.979L60.048,226.09c-2.585,2.65-5.144,5.406-7.604,8.187   l20.991,18.514c-9.323,11.852-17.115,24.667-23.273,38.189l-27.011-14.139c-1.725,3.3-3.385,6.686-4.934,10.051l28.192,12.928   c-5.377,13.632-9.14,27.894-11.186,42.54L2.499,336.15c-0.695,3.647-1.299,7.374-1.797,11.048l33.453,4.552   c-0.463,5.22-0.723,10.479-0.748,15.77c-0.045,9.302,0.603,18.492,1.915,27.514l-35.271,3.928   c0.406,3.688,0.926,7.439,1.535,11.113l35.314-5.861c2.76,13.924,7.14,27.384,13.032,40.17l-33.487,15.381   c1.51,3.425,3.137,6.836,4.836,10.155l32.753-17.21c8.571,16.311,19.694,31.385,33.191,44.723   c9.473,9.831,19.73,17.964,30.554,24.737L98.348,553.54c3.188,1.942,6.482,3.806,9.802,5.577l17.627-32.242   c14.1,7.792,29.033,13.505,44.365,17.802c-1.569-0.412-3.119-0.835-4.639-1.266l-9.697,34.481   c3.425,0.971,6.974,1.891,10.549,2.756l8.431-34.712c14.702,3.836,29.725,6.446,44.688,8.413l-4.38,34.933   c3.483,0.434,6.961,0.839,10.445,1.232l3.877-34.944c12.19,1.397,24.285,2.453,36.074,3.48l3.042,0.265   c1.102,0.251,2.987,0.506,7.219,0.683l-1.967,35.136c2.829,0.159,6.438,0.263,11.042,0.315l0.434-35.244   c1.738,0.016,3.653,0.023,5.775,0.023c0.002,0,0,0,0.002,0c11.202,0,26.225-0.248,41.142-0.638l0.829,35.347   c3.462-0.078,6.914-0.171,10.338-0.263l-0.984-35.372c21.71-0.664,41.222-1.584,45.802-2.412c0.053-0.01,0.105-0.021,0.158-0.03   l3.18,35.873c6.981-0.446,9.473-0.774,10.97-1.049l1.469-0.277l-6.57-36.496c13.106-3.237,25.363-8.165,36.621-14.693   l19.797,33.371c3.347-1.861,6.678-3.856,9.893-5.956l-22.045-32.199c11.438-7.697,21.715-17.16,30.656-28.278l30.45,24.552   c2.336-2.965,4.619-6.075,6.771-9.225l-31.717-22.617c0.854-1.204,1.697-2.42,2.521-3.658   c6.774-10.176,12.347-21.176,16.702-32.755l35.534,12.044c1.167-3.542,2.244-7.164,3.228-10.785l-35.727-10.045   c4.22-13.381,6.865-27.427,7.872-41.809l34.967,0.602c0.025-1.26,0.025-2.505,0.025-3.752c0-2.467-0.038-4.947-0.131-7.413   L508.346,403.442z M487.328,360.919c9.912,45.087,2.247,90.996-21.028,125.957c-19.179,28.809-47.238,47.29-81.139,53.447   c-6.142,1.11-61.571,3.067-94.126,3.067c-14.119,0-17.877-0.382-18.74-0.51l-0.587-0.189l-4.756-0.415   c-60.749-5.295-123.566-10.77-167.667-56.598l-0.152-0.153C34.528,421.753,34.245,315.94,98.501,249.65l0.401-0.408l0.354-0.49   c0.981-1.285,6.066-6.212,10.553-10.56c14.051-13.617,35.285-34.196,42.248-47.7l0.258-0.5l0.188-0.53   c2.927-8.209,6.24-16.326,9.847-24.123C195.596,93.508,251.917,50.623,313.01,50.623c98.746,0,179.081,111.874,179.081,249.385   c0,9.644-3.256,48.456-4.839,57.68l-0.278,1.623L487.328,360.919z"/>
</g>
<path d="M482.017,300.482c0-124.482-76.208-237.099-170.22-237.099c-60.443,0-113.524,43.871-143.735,109.994  c-3.354,7.348-5.43,14.965-8.198,22.831c-8.247,16.205-44.661,47.446-48.321,52.569c-60.278,62.994-67.536,164.611-4.312,227.828  c42.906,45.164,108.874,49.678,165.53,54.717c6.265,2.045,97.122-0.604,105.887-2.205c78.858-14.498,114.598-97.201,97.881-174.275  C477.999,346.117,482.017,309.836,482.017,300.482z M291.55,318.549c-22.98,0-41.607-32.264-41.607-72.074  c0-39.796,18.627-72.068,41.607-72.068c13.813,0,26.053,11.689,33.618,29.659c-4.733-5.575-10.447-8.835-16.599-8.835  c-16.342,0-29.588,22.942-29.588,51.244c0,28.302,13.246,51.251,29.588,51.251c6.152,0,11.867-3.263,16.602-8.841  C317.606,306.861,305.366,318.549,291.55,318.549z M423.129,318.549c-22.976,0-41.607-32.264-41.607-72.074  c0-39.796,18.632-72.068,41.607-72.068c15.727,0,29.408,15.125,36.479,37.43c-5.406-10.205-13.166-16.606-21.792-16.606  c-16.337,0-29.575,22.942-29.575,51.244c0,28.302,13.238,51.251,29.575,51.251c8.628,0,16.39-6.405,21.796-16.616  C452.542,303.424,438.858,318.549,423.129,318.549z"/>
</svg>