<svg xmlns="http://www.w3.org/2000/svg" xmlns:xlink="http://www.w3.org/1999/xlink" version="1.1" x="0px" y="0px" width="100px" height="100px" viewBox="-346 256 100 100" enable-background="new -346 256 100 100" xml:space="preserve">
<g id="Layer_1">
	<g id="Layer_2">
	</g>
</g>
<g id="Layer_3">
</g>
<g id="Layer_2_1_">
</g>
<g id="Foreground">
	<circle cx="-298.273" cy="285.589" r="2.039"/>
	<circle cx="-294.199" cy="278.362" r="2.039"/>
	<circle cx="-299.385" cy="272.25" r="2.039"/>
	<circle cx="-285.304" cy="272.249" r="2.039"/>
	<circle cx="-286.786" cy="280.771" r="2.039"/>
	<circle cx="-305.687" cy="279.662" r="2.039"/>
	<path d="M-246.076,282.553l-12.443,5.498c-2.386-1.425-7.98-4.361-13.581-4.361c-1.653,0-3.209,0.256-4.665,0.776l-16.606,6.288   l-0.203,0.088c-2.475,1.201-3.745,3.716-3.161,6.26c0.039,0.165,0.093,0.321,0.144,0.479l-1.316-0.627l-9.437-4.526   c-0.202-0.091-0.437-0.136-0.677-0.136c-0.727-0.002-1.35,0.438-1.614,1.07c-0.094,0.216-0.149,0.454-0.149,0.706v4.223   l-5.086-0.018c-6.514-0.024-8.555,3.784-8.571,8.5l-0.011,2.893l-5.898-0.021c-3.671-4.834-9.493-9.68-16.649-12.921v44.357   c10.218-1.706,14.236-6.089,19.399-7.564c7.725-2.209,13.166-0.221,13.166-0.221c3.941,5.052,11.729,8.319,18.634,8.346   c0.662,0.002,16.963-0.387,20.936-14.797l27.798-12.929L-246.076,282.553z M-285.126,328.665c-0.349,0.169-0.692,0.253-1.023,0.253   c-1.041,0-1.785-0.861-1.981-1.714c-0.226-0.981,0.213-1.845,1.176-2.312l11.758-5.709c0.345-0.166,0.657-0.59,0.5-1.278   c-0.144-0.627-0.647-1.295-1.299-1.295c-0.142,0-0.278,0.031-0.407,0.094l-18.076,8.776c-0.345,0.167-0.687,0.253-1.016,0.253   c-1.053,0-1.806-0.877-2.004-1.745c-0.228-0.988,0.209-1.855,1.17-2.322l18.076-8.776c0.346-0.168,0.658-0.593,0.499-1.28   c-0.144-0.628-0.647-1.297-1.298-1.297c-0.142,0-0.277,0.031-0.407,0.094l-21.086,10.239c-0.344,0.168-0.686,0.253-1.013,0.253   c-1.052,0-1.804-0.878-2.004-1.746c-0.228-0.988,0.209-1.855,1.167-2.319l21.084-10.239c0.346-0.168,0.658-0.591,0.5-1.279   c-0.143-0.628-0.646-1.295-1.298-1.295c-0.14,0-0.277,0.03-0.406,0.093l-16.369,7.948c-0.343,0.167-0.683,0.252-1.009,0.252   c-1.053,0-1.804-0.881-2.004-1.75c-0.228-0.986,0.207-1.851,1.162-2.313l22.663-11.004c0.354-0.172,0.675-0.614,0.509-1.337   c-0.157-0.688-0.697-1.419-1.387-1.419c-0.144,0-0.283,0.033-0.323,0.061l-10.89,3.317c-0.477,0.231-0.939,0.349-1.378,0.349   c-1.226,0-1.984-0.906-2.191-1.804c-0.207-0.9,0.079-2.108,1.452-2.778l16.596-6.284c1.079-0.385,2.286-0.581,3.586-0.581   c6.286,0,12.962,4.527,13.028,4.573l0.284,0.194l9.694-4.284l0.099,24.228L-285.126,328.665z"/>
</g>
</svg>