<svg xmlns="http://www.w3.org/2000/svg" xmlns:xlink="http://www.w3.org/1999/xlink" version="1.1" id="Livello_1" x="0px" y="0px" width="100px" height="100px" viewBox="0 0 100 100" enable-background="new 0 0 100 100" xml:space="preserve">
<path d="M57.764,20.371c-0.376,1.074-0.698,2.104-0.923,3.018c2.871,0.918,4.756,2.368,4.756,4.009c0,2.5-4.307,4.561-9.932,4.951  c-0.01-2.725,0.439-17.515,11.592-27.612L58.12,0c-4.888,5.635-7.681,12.402-9.277,18.33c-2.046-4.517-7.163-9.546-19.761-10.903  c0,0-0.391,8.467,5.981,14.028C23.872,24.043,14.79,31.235,14.79,50.42c0,27.383,19.561,49.58,35.205,49.58  c15.654,0,35.215-22.197,35.215-49.58C85.21,27.256,71.968,21.572,57.764,20.371z M47.271,26.04c-0.42,2.983-0.532,5.21-0.562,6.206  c-5.073-0.571-8.843-2.51-8.843-4.849c0-1.084,0.83-2.085,2.207-2.905C42.07,25.288,44.482,25.811,47.271,26.04z M27.471,48.35  c0-4.312,2.173-4.785,4.141-4.785s4.141,0.474,4.141,4.785c0,4.316-2.3,7.813-4.141,7.813S27.471,52.666,27.471,48.35z   M34.81,77.437c-1.841,0-4.141-3.496-4.141-7.813c0-4.312,2.173-4.78,4.141-4.78c1.963,0,4.141,0.469,4.141,4.78  C38.95,73.94,36.65,77.437,34.81,77.437z M49.731,90.596c-1.841,0-4.141-3.501-4.141-7.813c0-4.316,2.173-4.785,4.141-4.785  s4.141,0.469,4.141,4.785C53.872,87.095,51.572,90.596,49.731,90.596z M49.731,70.078c-1.841,0-4.141-3.496-4.141-7.813  s2.173-4.785,4.141-4.785s4.141,0.469,4.141,4.785S51.572,70.078,49.731,70.078z M49.731,50.625c-1.841,0-4.141-3.496-4.141-7.813  s2.173-4.785,4.141-4.785s4.141,0.469,4.141,4.785S51.572,50.625,49.731,50.625z M64.653,77.437c-1.841,0-4.141-3.496-4.141-7.813  c0-4.312,2.173-4.78,4.141-4.78s4.141,0.469,4.141,4.78C68.794,73.94,66.494,77.437,64.653,77.437z M67.852,56.162  c-1.841,0-4.141-3.496-4.141-7.813c0-4.312,2.173-4.785,4.141-4.785s4.141,0.474,4.141,4.785  C71.992,52.666,69.692,56.162,67.852,56.162z"/>
</svg>