<svg xmlns="http://www.w3.org/2000/svg" xmlns:xlink="http://www.w3.org/1999/xlink" version="1.1" id="Layer_1" x="0px" y="0px" width="97.435px" height="100px" viewBox="0 0 97.435 100" enable-background="new 0 0 97.435 100" xml:space="preserve">
<path d="M97.265,43.112l-0.013-0.26l-0.078-0.26c-2.122-5.072-9.505-6.426-18.528-6.726c-9.492,0.417-17.722,1.654-18.803,7.865  v9.655c0.273,1.607,1.042,2.877,2.175,3.887v35.709c1.094,5.749,8.203,6.602,16.38,7.019c8.151-0.417,15.273-1.27,16.342-7.019  l0.013-35.352c1.394-1.074,2.37-2.428,2.683-4.244L97.265,43.112z M78.255,39.928c0.13,0,0.26,0,0.391,0.013  c4.141,0,7.916,0.56,10.611,1.4c1.706,0.501,2.683,1.152,3.308,1.673c-0.651,0.501-1.706,1.126-3.255,1.569  c-2.709,0.866-6.472,1.438-10.625,1.438c-4.44,0-8.451-0.677-11.198-1.602c-1.315-0.456-2.317-0.989-2.903-1.458  C66.367,41.484,71.888,39.928,78.255,39.928z M90.69,92.981c0,0,0.039,0.033-0.391,0.378c-1.367,1.211-6.289,2.637-11.901,2.565  c-3.775,0.013-7.188-0.547-9.466-1.354c-1.146-0.364-2.005-0.853-2.448-1.211c-0.416-0.364-0.325-0.378-0.391-0.378v-7.148  c5.378,2.129,12.162,1.791,12.162,1.791V68.906c-5.639,0-9.909-1.614-12.162-2.695v-6.706c3.386,1.127,7.812,1.537,12.553,1.732  c4.531-0.183,8.736-0.58,12.044-1.596V92.981z M92.787,54.075c-1.719,1.543-7.526,3.158-14.141,3.112  c-4.44,0-8.438-0.632-11.198-1.595c-1.367-0.476-2.396-1.042-2.969-1.518c-0.586-0.488-0.586-0.689-0.586-0.689v-6.172  c3.503,1.927,8.828,2.591,14.792,2.845c5.924-0.189,11.106-0.859,14.596-2.708l0.092,6.048  C93.373,53.398,93.359,53.601,92.787,54.075z"/>
<path d="M46.51,13.587H29.206V3.861h6.002c1.068,0,1.94-0.866,1.94-1.927c0-1.068-0.873-1.934-1.94-1.934H13.19  c-1.068,0-1.927,0.866-1.927,1.934c0,1.061,0.859,1.927,1.927,1.927h6.002v9.727H1.901C0.859,13.587,0,14.44,0,15.482  c0,1.048,0.859,1.895,1.901,1.895h13.633v52.357h4.648v4.473c0,0-0.299,1.354,2.096,2.057v21.804c0,1.067,0.859,1.934,1.927,1.934  s1.927-0.866,1.927-1.934V76.263c2.396-0.703,2.096-2.057,2.096-2.057v-4.473h4.635V17.376H46.51c1.042,0,1.888-0.847,1.888-1.895  C48.398,14.44,47.552,13.587,46.51,13.587z M29.271,42.852H19.127V17.376h10.143V42.852z"/>
</svg>