<svg xmlns="http://www.w3.org/2000/svg" xmlns:xlink="http://www.w3.org/1999/xlink" version="1.1" id="Your_Icon" x="0px" y="0px" width="100px" height="100px" viewBox="0 0 100 100" enable-background="new 0 0 100 100" xml:space="preserve">
<g>
	<path d="M45.825,75.747l-16.83,7.093l3.113,7.386c1.702,4.038,5.787,6.207,11.711,3.711c5.926-2.497,6.822-6.766,5.12-10.804   L45.825,75.747z"/>
	<path d="M41.293,58.332c-0.344-4.369-2.408-13.287-6.679-18.425c0,0-9.914-12.229-17.58-8.998   c-7.667,3.231-5.786,18.012-5.786,18.012c0.451,4.36,2.977,10.804,5.602,14.311l3.543,4.737c2.043,2.73,4.705,7.222,6.507,10.799   l17.256-7.273C42.659,67.171,41.584,61.989,41.293,58.332z"/>
	<path d="M49.686,56.73c-1.842,3.976-0.699,8.458,5.134,11.16c5.835,2.704,9.595,0.495,11.438-3.481l3.37-7.272l-16.571-7.679   L49.686,56.73z"/>
	<path d="M83.429,5.67c-7.549-3.498-17.218,7.838-17.218,7.838c-2.922,3.267-5.991,9.471-6.819,13.773l-1.121,5.808   c-0.645,3.348-2.178,8.34-3.611,12.079l16.991,7.873c2.192-4.017,5.303-8.299,7.813-10.974c3.001-3.194,8.209-10.721,9.137-17.337   C88.6,24.73,90.978,9.168,83.429,5.67z"/>
</g>
</svg>