<?xml version="1.0" encoding="utf-8"?>
<!-- Generator: Adobe Illustrator 16.0.0, SVG Export Plug-In . SVG Version: 6.00 Build 0)  -->
<!DOCTYPE svg PUBLIC "-//W3C//DTD SVG 1.1//EN" "http://www.w3.org/Graphics/SVG/1.1/DTD/svg11.dtd">
<svg version="1.1" id="Layer_1" xmlns="http://www.w3.org/2000/svg" xmlns:xlink="http://www.w3.org/1999/xlink" x="0px" y="0px"
	 width="154.359px" height="133.912px" viewBox="0 0 154.359 133.912" enable-background="new 0 0 154.359 133.912"
	 xml:space="preserve">
<g>
	<g>
		<path fill="#A9D384" d="M57.384,41.529l-0.874,2.7c0,0,4.151,1.51,5.927,4.986c1.773,3.475,0.359,7.326,0.359,7.326l2.999,0.973
			c0,0,1.555-5.049-0.83-9.716C62.582,43.13,57.384,41.529,57.384,41.529z"/>
		<path fill="#A9D384" d="M59.623,35.128l-0.875,2.699c0,0,6.507,2.937,9.347,8.497c2.839,5.56,0.897,11.809,0.897,11.809
			l2.999,0.972c0,0,2.994-5.66-1.365-14.198C66.265,36.368,59.623,35.128,59.623,35.128z"/>
		<path fill="#A9D384" d="M61.56,28.38l-0.874,2.7c0,0,9.243,2.415,14.06,11.848c4.816,9.432,1.1,17.839,1.1,17.839l2.999,0.973
			c0,0,3.957-9.408-1.567-20.23C71.751,30.688,61.56,28.38,61.56,28.38z"/>
		<path fill="#A9D384" d="M41.1,49.843l2.699,0.875c0,0-1.211,4.249,0.563,7.724c1.775,3.475,5.723,4.587,5.723,4.587l-0.972,3
			c0,0-5-1.703-7.383-6.37C39.349,54.993,41.1,49.843,41.1,49.843z"/>
		<path fill="#A9D384" d="M34.602,47.904l2.699,0.874c0,0-1.437,6.994,1.402,12.554c2.839,5.561,9.04,7.651,9.04,7.651l-0.972,2.998
			c0,0-6.34-0.894-10.7-9.432C31.713,54.011,34.602,47.904,34.602,47.904z"/>
		<path fill="#A9D384" d="M28,45.517l2.7,0.875c0,0-3.465,8.904,1.351,18.337c4.816,9.433,13.809,11.351,13.809,11.351l-0.971,3
			c0,0-9.941-2.312-15.469-13.133C23.894,55.124,28,45.517,28,45.517z"/>
		<circle fill="#A9D384" cx="53.067" cy="53.177" r="5.307"/>
	</g>
	<g>
		<path fill="#4787C7" d="M125.632,44.89V34.721h-21.794V44.89h-4.745v51.485h31.422V44.89H125.632z M106.107,36.99h17.256v7.9
			h-17.256V36.99z M128.243,94.104h-26.88V47.159h2.475h21.794h2.611V94.104z"/>
	</g>
	<polygon fill="#80D2EF" points="124.893,92.351 103.354,92.351 103.354,81.871 	"/>
</g>
</svg>
