<?xml version="1.0" encoding="utf-8"?>
<!-- Generator: Adobe Illustrator 16.0.0, SVG Export Plug-In . SVG Version: 6.00 Build 0)  -->
<!DOCTYPE svg PUBLIC "-//W3C//DTD SVG 1.1//EN" "http://www.w3.org/Graphics/SVG/1.1/DTD/svg11.dtd">
<svg version="1.1" id="Layer_1" xmlns="http://www.w3.org/2000/svg" xmlns:xlink="http://www.w3.org/1999/xlink" x="0px" y="0px"
	 width="154.359px" height="133.912px" viewBox="0 0 154.359 133.912" enable-background="new 0 0 154.359 133.912"
	 xml:space="preserve">
<g>
	<g>
		<path fill="#A9D384" d="M45.822,59.512l2.414,2.762c0,0,4.433-3.6,9.466-3.258c5.033,0.34,8.364,4.467,8.364,4.467l3.071-2.68
			c0,0-4.568-5.077-11.326-5.534C51.052,54.809,45.822,59.512,45.822,59.512z"/>
		<path fill="#A9D384" d="M40.211,52.775l2.414,2.763c0,0,7.579-5.264,15.632-4.718c8.054,0.545,13.693,6.85,13.693,6.85l3.069-2.68
			c0,0-4.287-7.082-16.653-7.92C46,46.231,40.211,52.775,40.211,52.775z"/>
		<path fill="#A9D384" d="M34.015,46.143l2.414,2.763c0,0,8.818-8.646,22.48-7.72c13.66,0.926,20.513,10.633,20.513,10.633
			l3.072-2.68c0,0-7.804-10.639-23.478-11.702C43.346,36.374,34.015,46.143,34.015,46.143z"/>
		<path opacity="0.3" fill="#A9D384" enable-background="new    " d="M44.224,83.094l2.763-2.415c0,0,3.907,4.168,8.941,4.51
			c5.032,0.34,8.891-3.299,8.891-3.299l2.682,3.071c0,0-5.21,4.413-11.969,3.954C48.772,88.456,44.224,83.094,44.224,83.094z"/>
		<path opacity="0.3" fill="#A9D384" enable-background="new    " d="M37.756,89.01l2.764-2.411c0,0,6.802,6.24,14.854,6.787
			c8.053,0.543,14.49-4.943,14.49-4.943l2.682,3.07c0,0-5.203,6.438-17.568,5.6C42.608,96.272,37.756,89.01,37.756,89.01z"/>
		<path opacity="0.3" fill="#A9D384" enable-background="new    " d="M30.721,94.746l2.765-2.412c0,0,7.571,9.758,21.233,10.685
			c13.66,0.926,21.762-7.771,21.762-7.771l2.683,3.072c0,0-9.168,9.488-24.842,8.427S30.721,94.746,30.721,94.746z"/>
		<circle fill="#A9D384" cx="55.873" cy="72.038" r="6.861"/>
	</g>
	<g>
		<path fill="#4787C7" d="M125.632,44.89V34.721h-21.794V44.89h-4.745v51.485h31.422V44.89H125.632z M106.107,36.99h17.256v7.9
			h-17.256V36.99z M128.243,94.104h-26.88V47.159h2.475h21.794h2.611V94.104z"/>
	</g>
	<polygon fill="#80D2EF" points="124.893,92.351 103.354,92.351 103.354,81.871 	"/>
	<polygon fill="#80D2EF" points="103.354,79.834 103.354,72.092 126.253,82.744 126.253,90.896 	"/>
	<polygon fill="#80D2EF" points="103.354,69.674 103.354,61.932 126.253,72.586 126.253,80.733 	"/>
	<polygon fill="#80D2EF" points="103.354,60.026 103.354,52.283 126.253,62.937 126.253,71.086 	"/>
</g>
</svg>
