<?xml version="1.0" encoding="utf-8"?>
<!-- Generator: Adobe Illustrator 16.0.0, SVG Export Plug-In . SVG Version: 6.00 Build 0)  -->
<!DOCTYPE svg PUBLIC "-//W3C//DTD SVG 1.1//EN" "http://www.w3.org/Graphics/SVG/1.1/DTD/svg11.dtd">
<svg version="1.1" id="Layer_1" xmlns="http://www.w3.org/2000/svg" xmlns:xlink="http://www.w3.org/1999/xlink" x="0px" y="0px"
	 width="154.359px" height="133.912px" viewBox="0 0 154.359 133.912" enable-background="new 0 0 154.359 133.912"
	 xml:space="preserve">
<g>
	<g>
		<path fill="#A9D384" d="M48.017,52.058l1.296,2.793c0,0,4.418-1.859,8.394-0.401c3.977,1.458,5.69,5.566,5.69,5.566l3.104-1.438
			c0,0-2.486-5.166-7.826-7.123C53.337,49.498,48.017,52.058,48.017,52.058z"/>
		<path fill="#A9D384" d="M45.079,45.311l1.295,2.793c0,0,7.347-2.46,13.707-0.127c6.362,2.333,9.425,8.739,9.425,8.739l3.104-1.438
			c0,0-1.791-6.715-11.56-10.297C51.283,41.399,45.079,45.311,45.079,45.311z"/>
		<path fill="#A9D384" d="M41.645,38.509l1.296,2.794c0,0,9.14-4.895,19.932-0.937c10.791,3.958,14.032,13.392,14.032,13.392
			l3.106-1.437c0,0-3.788-10.409-16.17-14.95C51.461,32.83,41.645,38.509,41.645,38.509z"/>
		<path opacity="0.6" fill="#A9D384" enable-background="new    " d="M41.186,70.687l2.794-1.295c0,0,2.169,4.275,6.146,5.734
			c3.977,1.457,7.94-0.568,7.94-0.568l1.438,3.105c0,0-5.235,2.332-10.575,0.373C43.59,76.078,41.186,70.687,41.186,70.687z"/>
		<path opacity="0.6" fill="#A9D384" enable-background="new    " d="M34.582,73.935l2.794-1.295c0,0,4.015,6.629,10.375,8.963
			c6.362,2.33,12.84-0.578,12.84-0.578l1.438,3.104c0,0-5.706,3.965-15.475,0.384C36.785,80.928,34.582,73.935,34.582,73.935z"/>
		<path opacity="0.6" fill="#A9D384" enable-background="new    " d="M27.565,76.903l2.795-1.295c0,0,3.808,9.645,14.6,13.603
			c10.792,3.957,19.364-1.146,19.364-1.146l1.439,3.104c0,0-9.619,5.491-22,0.951C31.382,87.581,27.565,76.903,27.565,76.903z"/>
		<circle fill="#A9D384" cx="53.172" cy="64.516" r="5.759"/>
	</g>
	<g>
		<path fill="#4787C7" d="M125.632,44.89V34.721h-21.794V44.89h-4.745v51.485h31.422V44.89H125.632z M106.107,36.99h17.256v7.9
			h-17.256V36.99z M128.243,94.104h-26.88V47.159h2.475h21.794h2.611V94.104z"/>
	</g>
	<polygon fill="#80D2EF" points="124.893,92.351 103.354,92.351 103.354,81.871 	"/>
	<polygon fill="#80D2EF" points="103.354,79.834 103.354,72.092 126.253,82.744 126.253,90.896 	"/>
	<polygon fill="#80D2EF" points="103.354,69.674 103.354,61.932 126.253,72.586 126.253,80.733 	"/>
</g>
</svg>
