<svg xmlns="http://www.w3.org/2000/svg" xmlns:xlink="http://www.w3.org/1999/xlink" version="1.1" id="Layer_1" x="0px" y="0px" width="100px" height="100px" viewBox="0 0 100 100" enable-background="new 0 0 100 100" xml:space="preserve">
<path fill-rule="evenodd" clip-rule="evenodd" fill="#000000" d="M24.813,0.96v98.08h50.373V0.96H24.813z M70.747,94.601H29.252  V5.399h41.495V94.601z M37.711,20.415h-4.439V39.46h4.439V20.415z M43.424,26.476h-4.439V39.46h4.439V26.476z M49.132,33.624h-4.439  v5.836h4.439V33.624z M50.405,36.344v3.123h4.439v-3.123H50.405z M67.784,69.06H32.392v4.439h35.392V69.06z M45.625,76.153H32.392  v4.439h13.233V76.153z M37.803,83.247h-5.411v4.439h5.411V83.247z M34.305,61.595c0,2.245,1.825,4.072,4.068,4.072  c2.247,0,4.075-1.827,4.075-4.072c0-2.246-1.828-4.073-4.075-4.073C36.13,57.521,34.305,59.349,34.305,61.595z M38.373,60.851  c0.411,0,0.746,0.334,0.746,0.744c0,0.409-0.334,0.743-0.746,0.743c-0.407,0-0.739-0.334-0.739-0.743  C37.634,61.185,37.966,60.851,38.373,60.851z M48.191,47.818c-0.479-0.11-0.977-0.176-1.489-0.176c-3.641,0-6.603,2.964-6.603,6.605  c0,3.641,2.962,6.603,6.603,6.603c0.513,0,1.01-0.064,1.49-0.176c1.922,2.467,4.912,4.063,8.275,4.063  c5.788,0,10.496-4.706,10.496-10.49c0-5.787-4.708-10.496-10.496-10.496C53.104,43.752,50.113,45.35,48.191,47.818z M46.497,57.501  c-1.708-0.109-3.068-1.519-3.068-3.253c0-1.735,1.36-3.147,3.068-3.255c-0.336,1.025-0.523,2.118-0.523,3.255  C45.974,55.384,46.161,56.476,46.497,57.501z M56.468,47.081c3.952,0,7.167,3.217,7.167,7.167c0,3.949-3.215,7.161-7.167,7.161  c-2.088,0-3.964-0.903-5.273-2.331c1.299-1.207,2.117-2.922,2.117-4.83c0-1.907-0.82-3.624-2.119-4.832  C52.504,47.985,54.38,47.081,56.468,47.081z M49.508,52.577c0.295,0.491,0.474,1.059,0.474,1.671s-0.179,1.18-0.474,1.67  c-0.129-0.537-0.205-1.094-0.205-1.67S49.379,53.114,49.508,52.577z M58.753,26.934c5.22,0,9.466-4.246,9.466-9.465  c0-5.22-4.246-9.466-9.466-9.466c-5.219,0-9.465,4.246-9.465,9.466C49.288,22.688,53.534,26.934,58.753,26.934z M60.418,11.568  c2.576,0.728,4.472,3.095,4.472,5.9c0,0.309-0.03,0.609-0.075,0.906l-4.396-1.982V11.568z M59.256,19.521l4.192,1.89  c-1.126,1.339-2.812,2.193-4.695,2.193c-0.828,0-1.619-0.167-2.342-0.467L59.256,19.521z M57.089,11.568v5.323l-3.29,4.183  c-0.739-1.014-1.182-2.258-1.182-3.605C52.617,14.663,54.513,12.296,57.089,11.568z"/>
</svg>