<svg xmlns="http://www.w3.org/2000/svg" xmlns:xlink="http://www.w3.org/1999/xlink" version="1.2" baseProfile="tiny" id="Layer_1" x="0px" y="0px" width="100px" height="100px" viewBox="0 0 100 100" xml:space="preserve">
<g>
	<path d="M58.377,74.154c0.336-0.463,0.535-0.848,0.567-1.422c0.048-0.824-0.556-1.535-0.38-2.383   c0.822-0.74,1.646-1.477,1.276-2.672c0.261-0.898,1.377-1.473,1.035-2.602c-1.349,1.035-3.178,2.506-4.394,2.598   c-0.246,0.02-1.039-0.1-1.111-0.783c-0.038-0.357,0.374-0.926,0.615-1.125c0.841-0.693,1.441-0.328,2.11-0.512   c1.095-0.303,1.841-1.654,1.808-2.789c-0.1,0.555-0.7,0.584-1.061,0.955c-0.313,0.322-0.274,0.865-0.459,1.064   c-0.431,0.465-1.253,0.113-1.805,0.229c-0.763,0.16-1.789,1.244-1.831,2.139c-0.06,1.283,0.877,1.566,1.474,1.684   C55.894,71.049,57.876,71.885,58.377,74.154z"/>
	<path d="M66.183,63.465c-0.816-1.068-2.835-2.059-3.848,0.25c0.76-0.445,1.563-1.201,1.826-0.303   c0.361,1.238-1.688,2.078-1.543,3.369c0.049,0.438,0.394,0.646,0.439,1.006c0.077,0.617-1.031,1.855-0.549,2.631   c0.232,0.371,0.749-0.207,1.149-0.521c0.285,0.908,0.496,1.789,0.731,2.678c0.014,0.291,0.24-0.125,0.261,0.141   c0.003,0.227,0.065,0.479,0.137,0.732c-0.889,0.66-1.776,1.318-2.665,1.979c-0.277-0.236-0.659-0.506-0.713-1.191   c-0.126,0.059-0.443,0.354-0.675,0.502c0.031,0.697,0.435,0.805,0.442,1.447c-0.438,0.287-0.752,0.619-1.158,0.918   c-0.378-0.668-0.737-1.863-0.943-2.799c-0.206,0.227-0.307,0.842-0.453,1.225c0.111,0.51,0.222,1.018,0.237,1.49   c0.299-0.139,0.211,0.564,0.299,0.834c-0.513,0.443-1.039,0.881-1.36,1.398c0.01,0.031,0.019,0.061,0.028,0.092   c1.126-0.303,2.345-1.277,3.62-2.135c1.6-1.078,3.314-2.354,4.831-3.59c0.925-0.754,1.976-1.568,2.583-2.531   c-0.4-0.131-1.028,0.488-1.51,0.621c-0.424-0.66-0.819-1.414-1.244-2.074c0.239-0.609-0.238-0.889-0.353-1.295   c0.882-0.506,1.448-0.244,2.091,0.281c0.618,0.504,1.136,1.457,1.736,1.541c0.258,0.037,0.949-0.281,0.953-0.873   c-0.384-0.895-0.485-1.918-0.604-2.83c0.374-0.336,0.519-0.762,0.539-1.232c-0.027-0.092-0.056-0.182-0.083-0.271   c-0.218,0.07-0.485,0.572-0.738,0.438c0.008-0.838-0.458-0.977-0.689-1.543c-0.217,0.373-0.249,0.973-0.01,1.395   c-0.507-0.021-0.899-0.424-1.339-0.672c0.097,0.57,0.14,1.121-0.088,1.566c-0.659,0.572-1.303,0.525-1.441-0.15   c-0.069-0.338,0.223-0.594,0.161-0.898c-0.107-0.537-0.696-0.115-0.736-0.842C65.651,63.955,66.128,63.791,66.183,63.465z    M65.76,71.779c0.077,0.109,0.241-0.07,0.361-0.102c-0.02,0.232,0.156,0.539,0.15,0.777c-0.206,0.193-0.345,0.166-0.547,0.35   c-0.537-0.611-0.465-1.721-0.683-2.658C65.326,70.543,65.528,71.209,65.76,71.779z"/>
	<path d="M62.18,70.742l-0.001,0.002c-0.005-0.02-0.013-0.041-0.024-0.063c-0.469,0.199-0.806-0.266-1.18-0.291   c-0.538-0.037-1.282,0.736-1.487,1.549c-0.13,0.518,0.037,1.025-0.173,1.574c0.01,0.041,0.024,0.066,0.041,0.086   c0.032,0.053,0.088,0.096,0.163,0.129c-0.044,0.125-0.077,0.236-0.087,0.295c-0.031,0.18,0.046,0.336,0.173,0.352   c0.128,0.016,0.257-0.117,0.288-0.297c0.01-0.055,0.021-0.162,0.028-0.285c0.162-0.008,0.349-0.049,0.544-0.133   c0.016,0.117,0.033,0.213,0.047,0.258c0.056,0.182,0.216,0.244,0.358,0.137c0.143-0.105,0.213-0.338,0.158-0.52   c-0.012-0.037-0.035-0.102-0.067-0.18c0.069-0.055,0.137-0.115,0.204-0.184c0.054-0.053,0.104-0.107,0.152-0.164   c0.06,0.084,0.107,0.148,0.131,0.176c0.106,0.127,0.281,0.096,0.392-0.074c0.11-0.166,0.113-0.404,0.008-0.531   c-0.021-0.025-0.071-0.072-0.138-0.127c0.11-0.191,0.2-0.385,0.271-0.57c0.064,0.029,0.116,0.049,0.144,0.057   c0.144,0.039,0.303-0.098,0.354-0.303c0.052-0.207-0.023-0.406-0.167-0.445c-0.025-0.008-0.073-0.014-0.136-0.02   C62.205,70.979,62.205,70.828,62.18,70.742z"/>
	<path d="M64.604,50.221l-12.347,9c-0.228,0.166-0.278,0.516-0.111,0.781c0.135,0.217,0.373,0.311,0.579,0.248   c0.047-0.016,0.092-0.037,0.134-0.068l12.347-8.998c0.229-0.166,0.278-0.517,0.112-0.782   C65.151,50.136,64.831,50.055,64.604,50.221z"/>
	<path d="M60.6,34.97c-0.167-0.266-0.486-0.347-0.714-0.18l-12.347,8.999c-0.228,0.166-0.278,0.516-0.112,0.782   c0.135,0.217,0.373,0.311,0.58,0.247c0.047-0.014,0.092-0.036,0.134-0.067l12.347-8.999C60.715,35.585,60.765,35.235,60.6,34.97z"/>
	<path d="M54.492,44.83l0.886-0.887c-0.134-0.026-0.287,0.01-0.45,0.129C54.678,44.257,54.529,44.538,54.492,44.83z"/>
	<path d="M19.983,11.443c0.002,0.015,0.004,0.029,0.009,0.043l1.083,3.54l-0.929,8.491c-0.03,0.075-0.035,0.163-0.009,0.246   l12.977,42.446l0.485-0.484L22.461,29.298l18.354,1.25l6.547,21.411l0.484-0.483l-6.434-21.045l15.863-11.862l5.497,17.98   l0.484-0.484l-7.166-23.438c0-0.001,0-0.001-0.001-0.002c-0.002-0.008-0.006-0.014-0.009-0.021   c-0.008-0.02-0.015-0.039-0.025-0.056c-0.004-0.007-0.009-0.013-0.013-0.02c-0.012-0.017-0.023-0.033-0.036-0.047   c-0.006-0.006-0.012-0.011-0.018-0.016c-0.015-0.014-0.029-0.026-0.046-0.037c-0.003-0.001-0.004-0.004-0.007-0.005L42.919,4.336   l-1.249-4.084c-0.032-0.105-0.106-0.19-0.2-0.229c-0.093-0.039-0.194-0.028-0.273,0.031L31.189,7.536l-1.792,0.406l-6.04,0.354   c-0.061,0.003-0.117,0.027-0.164,0.068l-3.112,2.761c0,0,0,0,0,0.001c-0.025,0.022-0.044,0.049-0.061,0.079   c-0.002,0.005-0.005,0.008-0.007,0.012c-0.015,0.028-0.024,0.06-0.03,0.093c-0.001,0.005-0.002,0.011-0.002,0.017   c-0.004,0.032-0.004,0.066,0,0.1C19.981,11.433,19.983,11.438,19.983,11.443z M21.643,15.523l13.571,7.483l2.743,1.513   l-17.171-1.16L21.643,15.523z M22.28,15.136l7.105-1.844l3.169-0.823l6.116,11.705l-5.19-2.862L22.28,15.136z M21.499,26.15   l-0.634-2.073l18.341,1.207l0.647,2.116L21.499,26.15z M56.313,15.42L40.45,27.282l-0.664-2.171L55.65,13.253L56.313,15.42z    M55.217,12.729l-15.706,11.74l-6.434-12.314l9.628-7.196L55.217,12.729z M41.229,0.877l1.079,3.53l-9.478,7.083l-1.079-3.53   L41.229,0.877z M23.525,8.971l4.357-0.256l-6.208,1.898L23.525,8.971z M29.635,8.897c0.006-0.002,0.013-0.004,0.019-0.007   l1.563-0.611l1.084,3.547L21.58,14.608l-0.908-2.971L29.635,8.897z"/>
	<path d="M65.924,44.784l-0.485,0.485l11.31,36.991L60.885,94.121L50.513,60.195l-0.485,0.484l10.26,33.559l-18.354-1.25   l-5.67-18.545l-0.484,0.484l7.196,23.537c0.043,0.143,0.161,0.242,0.293,0.252L62.265,100h0.001   c0.032,0.002,0.065-0.002,0.097-0.012c0.029-0.008,0.058-0.021,0.083-0.041l16.379-12.242c0.107-0.082,0.15-0.232,0.106-0.377   L65.924,44.784z M43.481,98.053l-0.585-1.914l18.354,1.248l0.583,1.904L43.481,98.053z M62.414,99.123l-0.566-1.854l15.863-11.861   l0.568,1.857L62.414,99.123z"/>
	<polygon points="34.833,63.293 35.952,63.369 45.847,53.475 43.734,46.564 29.42,45.59  "/>
	<polygon points="49.147,64.268 48.513,62.195 46.612,64.096  "/>
	<polygon points="49.296,50.026 50.406,48.916 49.999,47.582 48.814,48.451  "/>
	<path d="M29.803,79.453l4.264-4.264l0-0.002l32.888-32.889l0.001,0.002l7.472-7.472c4.54,5.484,7.269,12.521,7.269,20.197   c0,6.572-2.001,12.678-5.427,17.74l1.877,6.139c5.467-6.438,8.766-14.771,8.766-23.879c0-16.928-11.396-31.193-26.934-35.546   l1.88,6.149c3.038,1.227,5.844,2.905,8.328,4.96L25.741,75.035l0.001,0.002l-0.177,0.176c-4.535-5.482-7.26-12.518-7.26-20.188   c0-6.01,1.673-11.63,4.579-16.418l-1.94-6.347c-4.92,6.272-7.854,14.176-7.854,22.766c0,16.424,10.726,30.338,25.555,35.129   l-1.942-6.354C34.21,82.648,31.893,81.184,29.803,79.453z"/>
</g>
</svg>