<svg xmlns="http://www.w3.org/2000/svg" xmlns:xlink="http://www.w3.org/1999/xlink" version="1.1" id="Layer_1" x="0px" y="0px" width="50.4px" height="50.4px" viewBox="0 0 50.4 50.4" enable-background="new 0 0 50.4 50.4" xml:space="preserve">
<g id="Layer_1_1_">
</g>
<path d="M14.827,33.407c0.049,0.235,0.043,0.479-0.024,0.715c-0.059,0.221-0.178,0.427-0.34,0.6c-0.55,0.557-1.45,0.57-2.012,0.027  L9.665,32.03l-0.537,0.658l2.788,2.72c0.761,0.739,2.415,0.692,3.162-0.066c0.26-0.265,0.625-0.865,0.703-1.213l7.347,0.006  c0.792,0,1.574,0.738,1.574,1.524c0,0.797-0.518,1.771-1.606,1.771H11.324c-0.51-0.017-1.144-0.277-1.589-0.652l-6.148-4.616  l-3.58,0.016L0,26.818h0.031V26.77h7.143c0,0,0.748,0.017,1.263,0.315c0.475,0.276,0.896,0.682,0.896,0.682l5.098,4.951  C14.625,32.906,14.761,33.141,14.827,33.407z"/>
<path d="M50.369,32.548l-3.466-0.908V12.563c0-0.917-0.744-1.661-1.66-1.661c-0.264,0-0.505,0.078-0.727,0.188v10.897H43.71V11.933  c-0.001,0.003-0.005,0.006-0.007,0.011v-2c0-0.917-0.742-1.661-1.659-1.661c-0.918,0-1.662,0.744-1.662,1.661v1.319  c0.753,0.303,1.281,1.025,1.281,1.87v8.857h-0.807v-8.829c0-0.721-0.586-1.306-1.307-1.306s-1.306,0.585-1.306,1.306v13.133  l-0.954,0.002l0.009-4.202c-0.002-0.846-0.691-1.531-1.537-1.538c-0.254,0.003-0.503,0.066-0.718,0.188  c-0.234,0.126-0.428,0.307-0.573,0.52c-0.152,0.252-0.233,0.533-0.231,0.825l-0.024,7.594c0,0,0.073,1.316,0.213,1.891  c0.45,2.396,2.448,3.39,2.448,3.39l13.521,6.401L50.369,32.548z"/>
<path d="M28.512,25.577c0.049-0.094,0.11-0.181,0.147-0.282c0.244-0.651,0.213-1.363-0.089-2.005  c-0.27-0.574-0.744-1.048-1.322-1.334c0.066-1.178-0.689-2.303-1.919-2.731c-0.572-0.199-1.196-0.219-1.767-0.065  c-0.342-0.472-0.833-0.838-1.412-1.039c-0.322-0.112-0.657-0.169-0.996-0.169c-1.114,0-2.118,0.627-2.558,1.581  c-1.154,0.026-2.179,0.722-2.562,1.745c-0.107,0.286-0.16,0.584-0.162,0.884c-1.042,0.117-1.941,0.782-2.294,1.729  c-0.207,0.553-0.204,1.143-0.028,1.688h-2.849l6.038,6.939h8.692l5.775-6.939H28.512z M14.849,24.363  c0.229-0.613,0.973-0.982,1.696-0.83l1.224,0.256l-0.454-1.165c-0.113-0.289-0.117-0.589-0.01-0.87  c0.223-0.602,0.927-0.976,1.652-0.84l0.659,0.118l0.126-0.659c0.013-0.067,0.029-0.135,0.053-0.197  c0.253-0.676,1.136-1.045,1.909-0.774c0.431,0.149,0.767,0.46,0.921,0.852l0.281,0.712l0.673-0.365  c0.386-0.207,0.87-0.245,1.304-0.094c0.753,0.261,1.172,0.999,0.953,1.68l-0.222,0.688l0.701,0.176  c0.043,0.012,0.086,0.022,0.138,0.042c0.397,0.138,0.722,0.421,0.89,0.776c0.145,0.308,0.16,0.646,0.045,0.953  c-0.131,0.353-0.423,0.62-0.807,0.757H15.06C14.783,25.219,14.698,24.767,14.849,24.363z"/>
<polygon points="18.345,17.955 17.366,17.955 17.366,13.719 18.345,13.719 18.345,17.955 "/>
<polygon points="20.793,16.449 19.814,16.449 19.814,10.801 20.793,10.801 20.793,16.449 "/>
<polygon points="23.24,16.826 22.262,16.826 22.262,13.201 23.24,13.201 23.24,16.826 "/>
</svg>