<?xml version="1.0" encoding="utf-8"?>
<!-- Generator: Adobe Illustrator 16.0.0, SVG Export Plug-In . SVG Version: 6.00 Build 0)  -->
<!DOCTYPE svg PUBLIC "-//W3C//DTD SVG 1.1//EN" "http://www.w3.org/Graphics/SVG/1.1/DTD/svg11.dtd">
<svg version="1.1" id="Layer_1" xmlns="http://www.w3.org/2000/svg" xmlns:xlink="http://www.w3.org/1999/xlink" x="0px" y="0px"
	 width="154.359px" height="133.912px" viewBox="0 0 154.359 133.912" enable-background="new 0 0 154.359 133.912"
	 xml:space="preserve">
<g display="none">
	<path display="inline" fill="#A9D384" d="M44.606,53.814h14.116V39.698H44.606V53.814z M64.773,39.698v4.033h56.467v-4.033H64.773z
		 M64.773,49.781h36.297v-4.035H64.773V49.781z"/>
	<path display="inline" fill="#A9D384" d="M44.606,78.015h14.116V63.898H44.606V78.015z M64.773,63.898v4.033h56.467v-4.033H64.773z
		 M64.773,73.981h46.383v-4.034H64.773V73.981z"/>
	<path display="inline" fill="#A9D384" d="M44.606,102.216h14.116V88.099H44.606V102.216z M64.773,88.099v4.033h56.467v-4.033
		H64.773z M64.773,98.184h36.297v-4.036H64.773V98.184z"/>
	<path display="inline" fill="#A9D384" d="M44.606,126.416h14.116v-14.117H44.606V126.416z M64.773,112.299v4.034h56.467v-4.034
		H64.773z M64.773,122.381h46.383v-4.032H64.773V122.381z"/>
	<g display="inline">
		<path fill="#FAAA2C" d="M72.416,11.765l2.146-2.266c1.187-1.25,0.389-3.932-1.78-5.991c-2.172-2.058-4.892-2.711-6.079-1.46
			L64.559,4.31L72.416,11.765z"/>
		<path fill="#FAAA2C" d="M54.809,30.326c0,0-0.895,0.008-1.113-0.2l-6.475-6.14c-0.229-0.216-0.27-1.116-0.27-1.116l14.17-14.937
			l7.858,7.453L54.809,30.326z"/>
		<path fill="#FAAA2C" d="M54.381,30.778l-2.051-1.945l14.601-15.394l2.049,1.947L54.381,30.778z"/>
		<path fill="#FAAA2C" d="M48.572,25.267l-2.05-1.944l14.6-15.39l2.053,1.942L48.572,25.267z"/>
		<path fill="#FFFFFF" stroke="#FAAA2C" stroke-width="0.4443" stroke-miterlimit="10" d="M68.875,15.289l-7.604-7.213l3.438-3.624
			l7.604,7.214L68.875,15.289z"/>
		<path fill="#FFFFFF" stroke="#FAAA2C" stroke-width="0.4517" stroke-miterlimit="10" d="M43.581,34.295
			c-0.498-0.485,2.515-10.508,3.154-11.197c0.304-0.317,1.586,1.104,2.165,2.205c0.793,0.224,1.977,0.431,2.58,1.005
			c0.764,0.722,1.027,1.52,1.16,2.587c1.137,0.474,2.253,1.342,1.957,1.654C53.95,31.213,44.106,34.784,43.581,34.295z"/>
		<path fill="#FAAA2C" d="M43.581,34.295c0.155,0.143,1.114-0.062,2.405-0.442c0.262-0.685,0.192-1.389-0.26-1.819
			c-0.45-0.429-1.154-0.464-1.823-0.168C43.594,33.179,43.434,34.152,43.581,34.295z"/>
	</g>
</g>
<g display="none">
	<path display="inline" fill="#A9D384" d="M44.606,53.814h14.116V39.698H44.606V53.814z M64.773,39.698v4.033h56.467v-4.033H64.773z
		 M64.773,49.781h36.297v-4.035H64.773V49.781z"/>
	<path display="inline" fill="#A9D384" d="M44.606,78.015h14.116V63.898H44.606V78.015z M64.773,63.898v4.033h56.467v-4.033H64.773z
		 M64.773,73.981h46.383v-4.034H64.773V73.981z"/>
	<path display="inline" fill="#A9D384" d="M44.606,102.216h14.116V88.099H44.606V102.216z M64.773,88.099v4.033h56.467v-4.033
		H64.773z M64.773,98.184h36.297v-4.036H64.773V98.184z"/>
	<path display="inline" fill="#A9D384" d="M44.606,126.416h14.116v-14.117H44.606V126.416z M64.773,112.299v4.034h56.467v-4.034
		H64.773z M64.773,122.381h46.383v-4.032H64.773V122.381z"/>
	<g display="inline">
		<path fill="#FAAA2C" d="M71.063,24.214l2.146-2.266c1.187-1.25,0.389-3.932-1.78-5.991c-2.172-2.058-4.892-2.711-6.079-1.46
			l-2.145,2.262L71.063,24.214z"/>
		<path fill="#FAAA2C" d="M53.455,42.775c0,0-0.895,0.008-1.113-0.2l-6.475-6.14c-0.229-0.216-0.27-1.116-0.27-1.116l14.17-14.937
			l7.858,7.453L53.455,42.775z"/>
		<path fill="#FAAA2C" d="M53.028,43.227l-2.051-1.945l14.601-15.394l2.049,1.947L53.028,43.227z"/>
		<path fill="#FAAA2C" d="M47.218,37.716l-2.05-1.944l14.6-15.39l2.053,1.942L47.218,37.716z"/>
		<path fill="#FFFFFF" stroke="#FAAA2C" stroke-width="0.4443" stroke-miterlimit="10" d="M67.522,27.738l-7.604-7.213l3.438-3.624
			l7.604,7.214L67.522,27.738z"/>
		<path fill="#FFFFFF" stroke="#FAAA2C" stroke-width="0.4517" stroke-miterlimit="10" d="M42.228,46.744
			c-0.498-0.485,2.515-10.508,3.154-11.197c0.304-0.317,1.586,1.104,2.165,2.205c0.793,0.224,1.977,0.431,2.58,1.005
			c0.764,0.722,1.027,1.52,1.16,2.587c1.137,0.474,2.253,1.342,1.957,1.654C52.597,43.663,42.752,47.233,42.228,46.744z"/>
		<path fill="#FAAA2C" d="M42.228,46.744c0.155,0.143,1.114-0.062,2.405-0.442c0.262-0.685,0.192-1.389-0.26-1.819
			c-0.45-0.429-1.154-0.464-1.823-0.168C42.24,45.628,42.08,46.601,42.228,46.744z"/>
	</g>
</g>
<g display="none">
	<path display="inline" fill="#A9D384" d="M44.606,53.814h14.116V39.698H44.606V53.814z M64.773,39.698v4.033h56.467v-4.033H64.773z
		 M64.773,49.781h36.297v-4.035H64.773V49.781z"/>
	<path display="inline" fill="#A9D384" d="M44.606,78.015h14.116V63.898H44.606V78.015z M64.773,63.898v4.033h56.467v-4.033H64.773z
		 M64.773,73.981h46.383v-4.034H64.773V73.981z"/>
	<path display="inline" fill="#A9D384" d="M44.606,102.216h14.116V88.099H44.606V102.216z M64.773,88.099v4.033h56.467v-4.033
		H64.773z M64.773,98.184h36.297v-4.036H64.773V98.184z"/>
	<path display="inline" fill="#A9D384" d="M44.606,126.416h14.116v-14.117H44.606V126.416z M64.773,112.299v4.034h56.467v-4.034
		H64.773z M64.773,122.381h46.383v-4.032H64.773V122.381z"/>
	<g display="inline">
		<path fill="#FAAA2C" d="M76.302,31.604l2.146-2.266c1.187-1.25,0.389-3.932-1.78-5.991c-2.172-2.058-4.892-2.711-6.079-1.46
			l-2.145,2.262L76.302,31.604z"/>
		<path fill="#FAAA2C" d="M58.695,50.166c0,0-0.895,0.008-1.113-0.2l-6.475-6.14c-0.229-0.216-0.27-1.116-0.27-1.116l14.17-14.937
			l7.858,7.453L58.695,50.166z"/>
		<path fill="#FAAA2C" d="M58.267,50.618l-2.051-1.945l14.601-15.394l2.049,1.947L58.267,50.618z"/>
		<path fill="#FAAA2C" d="M52.458,45.107l-2.05-1.944l14.6-15.39l2.053,1.942L52.458,45.107z"/>
		<path fill="#FFFFFF" stroke="#FAAA2C" stroke-width="0.4443" stroke-miterlimit="10" d="M72.761,35.128l-7.604-7.213l3.438-3.624
			l7.604,7.214L72.761,35.128z"/>
		<path fill="#FFFFFF" stroke="#FAAA2C" stroke-width="0.4517" stroke-miterlimit="10" d="M47.468,54.135
			c-0.498-0.485,2.515-10.508,3.154-11.197c0.304-0.317,1.586,1.104,2.165,2.205c0.793,0.224,1.977,0.431,2.58,1.005
			c0.764,0.722,1.027,1.52,1.16,2.587c1.137,0.474,2.253,1.342,1.957,1.654C57.837,51.053,47.992,54.624,47.468,54.135z"/>
		<path fill="#FAAA2C" d="M47.468,54.135c0.155,0.143,1.114-0.062,2.405-0.442c0.262-0.685,0.192-1.389-0.26-1.819
			c-0.45-0.429-1.154-0.464-1.823-0.168C47.48,53.019,47.32,53.992,47.468,54.135z"/>
	</g>
</g>
<g display="none">
	<path display="inline" fill="#A9D384" d="M44.606,53.814h14.116V39.698H44.606V53.814z M64.773,39.698v4.033h56.467v-4.033H64.773z
		 M64.773,49.781h36.297v-4.035H64.773V49.781z"/>
	<path display="inline" fill="#A9D384" d="M44.606,78.015h14.116V63.898H44.606V78.015z M64.773,63.898v4.033h56.467v-4.033H64.773z
		 M64.773,73.981h46.383v-4.034H64.773V73.981z"/>
	<path display="inline" fill="#A9D384" d="M44.606,102.216h14.116V88.099H44.606V102.216z M64.773,88.099v4.033h56.467v-4.033
		H64.773z M64.773,98.184h36.297v-4.036H64.773V98.184z"/>
	<path display="inline" fill="#A9D384" d="M44.606,126.416h14.116v-14.117H44.606V126.416z M64.773,112.299v4.034h56.467v-4.034
		H64.773z M64.773,122.381h46.383v-4.032H64.773V122.381z"/>
	<path display="inline" fill="#4787C7" d="M69.908,30.351c-0.844-0.831-2.075-0.72-2.917,0.023
		c-4.116,3.631-8.233,7.244-12.349,10.865c-1.088,0.957-2.176,1.914-3.265,2.874c-1.452-1.65-2.904-3.413-4.356-5.104
		c-0.733-0.854-2.179-0.708-2.918,0.043c-0.838,0.853-0.707,2.085,0.025,2.938c1.871,2.18,3.743,4.361,5.615,6.54
		c0.769,0.897,2.131,0.67,2.917-0.024c1.647-1.453,3.294-2.906,4.94-4.358c4.104-3.621,8.208-7.242,12.312-10.863
		c0.007-0.005,0.012-0.011,0.02-0.017C70.777,32.524,70.667,31.097,69.908,30.351z M49.738,45.557
		c-0.006,0.005-0.014-0.022-0.02-0.022c0.014,0,0.031,0,0.045,0C49.755,45.542,49.746,45.55,49.738,45.557z"/>
	<g display="inline">
		<path fill="#FAAA2C" d="M92.095,13.864l2.146-2.266c1.188-1.25,0.389-3.932-1.779-5.991c-2.172-2.058-4.893-2.711-6.08-1.46
			l-2.145,2.262L92.095,13.864z"/>
		<path fill="#FAAA2C" d="M74.489,32.425c0,0-0.895,0.008-1.113-0.2l-6.475-6.14c-0.229-0.216-0.27-1.116-0.27-1.116l14.169-14.937
			l7.859,7.453L74.489,32.425z"/>
		<path fill="#FAAA2C" d="M74.061,32.877l-2.051-1.945l14.601-15.394l2.049,1.947L74.061,32.877z"/>
		<path fill="#FAAA2C" d="M68.251,27.366l-2.05-1.944l14.599-15.39l2.053,1.942L68.251,27.366z"/>
		<path fill="#FFFFFF" stroke="#FAAA2C" stroke-width="0.4443" stroke-miterlimit="10" d="M88.554,17.388l-7.604-7.213l3.438-3.624
			l7.604,7.214L88.554,17.388z"/>
		<path fill="#FFFFFF" stroke="#FAAA2C" stroke-width="0.4517" stroke-miterlimit="10" d="M63.261,36.394
			c-0.498-0.485,2.515-10.508,3.154-11.197c0.304-0.317,1.586,1.104,2.165,2.205c0.793,0.224,1.977,0.431,2.58,1.005
			c0.764,0.722,1.027,1.52,1.16,2.587c1.137,0.474,2.253,1.342,1.957,1.654C73.63,33.312,63.785,36.883,63.261,36.394z"/>
		<path fill="#FAAA2C" d="M63.261,36.394c0.155,0.143,1.114-0.062,2.405-0.442c0.262-0.685,0.192-1.389-0.26-1.819
			c-0.45-0.429-1.154-0.464-1.823-0.168C63.274,35.278,63.114,36.251,63.261,36.394z"/>
	</g>
</g>
<g display="none">
	<path display="inline" fill="#A9D384" d="M44.606,53.814h14.116V39.698H44.606V53.814z M64.773,39.698v4.033h56.467v-4.033H64.773z
		 M64.773,49.781h36.297v-4.035H64.773V49.781z"/>
	<path display="inline" fill="#A9D384" d="M44.606,78.015h14.116V63.898H44.606V78.015z M64.773,63.898v4.033h56.467v-4.033H64.773z
		 M64.773,73.981h46.383v-4.034H64.773V73.981z"/>
	<path display="inline" fill="#A9D384" d="M44.606,102.216h14.116V88.099H44.606V102.216z M64.773,88.099v4.033h56.467v-4.033
		H64.773z M64.773,98.184h36.297v-4.036H64.773V98.184z"/>
	<path display="inline" fill="#A9D384" d="M44.606,126.416h14.116v-14.117H44.606V126.416z M64.773,112.299v4.034h56.467v-4.034
		H64.773z M64.773,122.381h46.383v-4.032H64.773V122.381z"/>
	<path display="inline" fill="#4787C7" d="M69.908,30.351c-0.844-0.831-2.075-0.72-2.917,0.023
		c-4.116,3.631-8.233,7.244-12.349,10.865c-1.088,0.957-2.176,1.914-3.265,2.874c-1.452-1.65-2.904-3.413-4.356-5.104
		c-0.733-0.854-2.179-0.708-2.918,0.043c-0.838,0.853-0.707,2.085,0.025,2.938c1.871,2.18,3.743,4.361,5.615,6.54
		c0.769,0.897,2.131,0.67,2.917-0.024c1.647-1.453,3.294-2.906,4.94-4.358c4.104-3.621,8.208-7.242,12.312-10.863
		c0.007-0.005,0.012-0.011,0.02-0.017C70.777,32.524,70.667,31.097,69.908,30.351z M49.738,45.557
		c-0.006,0.005-0.014-0.022-0.02-0.022c0.014,0,0.031,0,0.045,0C49.755,45.542,49.746,45.55,49.738,45.557z"/>
	<g display="inline">
		<path fill="#FAAA2C" d="M72.415,47.702l2.146-2.266c1.188-1.25,0.389-3.932-1.779-5.991c-2.172-2.058-4.893-2.711-6.08-1.46
			l-2.145,2.262L72.415,47.702z"/>
		<path fill="#FAAA2C" d="M54.808,66.263c0,0-0.895,0.008-1.113-0.2l-6.475-6.14c-0.229-0.216-0.27-1.116-0.27-1.116L61.12,43.871
			l7.859,7.453L54.808,66.263z"/>
		<path fill="#FAAA2C" d="M54.381,66.715l-2.051-1.945l14.601-15.394l2.049,1.947L54.381,66.715z"/>
		<path fill="#FAAA2C" d="M48.571,61.205l-2.05-1.944l14.599-15.39l2.053,1.942L48.571,61.205z"/>
		<path fill="#FFFFFF" stroke="#FAAA2C" stroke-width="0.4443" stroke-miterlimit="10" d="M68.874,51.226l-7.604-7.213l3.438-3.624
			l7.604,7.214L68.874,51.226z"/>
		<path fill="#FFFFFF" stroke="#FAAA2C" stroke-width="0.4517" stroke-miterlimit="10" d="M43.581,70.232
			c-0.498-0.485,2.515-10.508,3.154-11.197c0.304-0.317,1.586,1.104,2.165,2.205c0.793,0.224,1.977,0.431,2.58,1.005
			c0.764,0.722,1.027,1.52,1.16,2.587c1.137,0.474,2.253,1.342,1.957,1.654C53.95,67.151,44.105,70.722,43.581,70.232z"/>
		<path fill="#FAAA2C" d="M43.581,70.232c0.155,0.143,1.114-0.062,2.405-0.442c0.262-0.686,0.192-1.389-0.26-1.818
			c-0.45-0.43-1.154-0.465-1.823-0.168C43.594,69.116,43.433,70.089,43.581,70.232z"/>
	</g>
</g>
<g display="none">
	<path display="inline" fill="#A9D384" d="M44.606,53.814h14.116V39.698H44.606V53.814z M64.773,39.698v4.033h56.467v-4.033H64.773z
		 M64.773,49.781h36.297v-4.035H64.773V49.781z"/>
	<path display="inline" fill="#A9D384" d="M44.606,78.015h14.116V63.898H44.606V78.015z M64.773,63.898v4.033h56.467v-4.033H64.773z
		 M64.773,73.981h46.383v-4.034H64.773V73.981z"/>
	<path display="inline" fill="#A9D384" d="M44.606,102.216h14.116V88.099H44.606V102.216z M64.773,88.099v4.033h56.467v-4.033
		H64.773z M64.773,98.184h36.297v-4.036H64.773V98.184z"/>
	<path display="inline" fill="#A9D384" d="M44.606,126.416h14.116v-14.117H44.606V126.416z M64.773,112.299v4.034h56.467v-4.034
		H64.773z M64.773,122.381h46.383v-4.032H64.773V122.381z"/>
	<path display="inline" fill="#4787C7" d="M69.908,30.351c-0.844-0.831-2.075-0.72-2.917,0.023
		c-4.116,3.631-8.233,7.244-12.349,10.865c-1.088,0.957-2.176,1.914-3.265,2.874c-1.452-1.65-2.904-3.413-4.356-5.104
		c-0.733-0.854-2.179-0.708-2.918,0.043c-0.838,0.853-0.707,2.085,0.025,2.938c1.871,2.18,3.743,4.361,5.615,6.54
		c0.769,0.897,2.131,0.67,2.917-0.024c1.647-1.453,3.294-2.906,4.94-4.358c4.104-3.621,8.208-7.242,12.312-10.863
		c0.007-0.005,0.012-0.011,0.02-0.017C70.777,32.524,70.667,31.097,69.908,30.351z M49.738,45.557
		c-0.006,0.005-0.014-0.022-0.02-0.022c0.014,0,0.031,0,0.045,0C49.755,45.542,49.746,45.55,49.738,45.557z"/>
	<g display="inline">
		<path fill="#FAAA2C" d="M77.656,55.092l2.147-2.266c1.188-1.25,0.389-3.932-1.779-5.991c-2.172-2.058-4.893-2.711-6.081-1.46
			l-2.145,2.262L77.656,55.092z"/>
		<path fill="#FAAA2C" d="M60.049,73.653c0,0-0.895,0.008-1.113-0.199l-6.475-6.141c-0.229-0.216-0.27-1.116-0.27-1.116
			l14.169-14.937l7.859,7.453L60.049,73.653z"/>
		<path fill="#FAAA2C" d="M59.621,74.105l-2.051-1.944l14.601-15.395l2.049,1.947L59.621,74.105z"/>
		<path fill="#FAAA2C" d="M53.811,68.595l-2.05-1.944l14.599-15.39l2.053,1.942L53.811,68.595z"/>
		<path fill="#FFFFFF" stroke="#FAAA2C" stroke-width="0.4443" stroke-miterlimit="10" d="M74.115,58.616l-7.604-7.213l3.438-3.624
			l7.604,7.214L74.115,58.616z"/>
		<path fill="#FFFFFF" stroke="#FAAA2C" stroke-width="0.4517" stroke-miterlimit="10" d="M48.821,77.622
			c-0.498-0.484,2.515-10.507,3.154-11.196c0.304-0.317,1.586,1.104,2.165,2.204c0.793,0.225,1.977,0.432,2.58,1.006
			c0.764,0.721,1.027,1.52,1.16,2.587c1.137,0.474,2.253,1.342,1.957,1.654C59.19,74.541,49.345,78.112,48.821,77.622z"/>
		<path fill="#FAAA2C" d="M48.821,77.622c0.155,0.143,1.114-0.061,2.405-0.441c0.262-0.686,0.192-1.389-0.26-1.818
			c-0.45-0.43-1.154-0.465-1.823-0.168C48.834,76.507,48.674,77.479,48.821,77.622z"/>
	</g>
</g>
<g display="none">
	<path display="inline" fill="#A9D384" d="M44.606,53.814h14.116V39.698H44.606V53.814z M64.773,39.698v4.033h56.467v-4.033H64.773z
		 M64.773,49.781h36.297v-4.035H64.773V49.781z"/>
	<path display="inline" fill="#A9D384" d="M44.606,78.015h14.116V63.898H44.606V78.015z M64.773,63.898v4.033h56.467v-4.033H64.773z
		 M64.773,73.981h46.383v-4.034H64.773V73.981z"/>
	<path display="inline" fill="#A9D384" d="M44.606,102.216h14.116V88.099H44.606V102.216z M64.773,88.099v4.033h56.467v-4.033
		H64.773z M64.773,98.184h36.297v-4.036H64.773V98.184z"/>
	<path display="inline" fill="#A9D384" d="M44.606,126.416h14.116v-14.117H44.606V126.416z M64.773,112.299v4.034h56.467v-4.034
		H64.773z M64.773,122.381h46.383v-4.032H64.773V122.381z"/>
	<path display="inline" fill="#4787C7" d="M69.908,30.351c-0.844-0.831-2.075-0.72-2.917,0.023
		c-4.116,3.631-8.233,7.244-12.349,10.865c-1.088,0.957-2.176,1.914-3.265,2.874c-1.452-1.65-2.904-3.413-4.356-5.104
		c-0.733-0.854-2.179-0.708-2.918,0.043c-0.838,0.853-0.707,2.085,0.025,2.938c1.871,2.18,3.743,4.361,5.615,6.54
		c0.769,0.897,2.131,0.67,2.917-0.024c1.647-1.453,3.294-2.906,4.94-4.358c4.104-3.621,8.208-7.242,12.312-10.863
		c0.007-0.005,0.012-0.011,0.02-0.017C70.777,32.524,70.667,31.097,69.908,30.351z M49.738,45.557
		c-0.006,0.005-0.014-0.022-0.02-0.022c0.014,0,0.031,0,0.045,0C49.755,45.542,49.746,45.55,49.738,45.557z"/>
	<path display="inline" fill="#4787C7" d="M69.908,56.268c-0.844-0.831-2.075-0.72-2.917,0.023
		c-4.116,3.631-8.233,7.245-12.349,10.866c-1.088,0.957-2.176,1.915-3.265,2.874c-1.452-1.65-2.904-3.413-4.356-5.104
		c-0.733-0.854-2.179-0.708-2.918,0.044c-0.838,0.852-0.707,2.084,0.025,2.937c1.871,2.181,3.743,4.361,5.615,6.541
		c0.769,0.896,2.131,0.669,2.917-0.025c1.647-1.451,3.294-2.905,4.94-4.357c4.104-3.621,8.208-7.242,12.312-10.863
		c0.007-0.005,0.012-0.012,0.02-0.017C70.777,58.44,70.667,57.014,69.908,56.268z M49.738,71.474
		c-0.006,0.006-0.014-0.021-0.02-0.021c0.014,0,0.031,0,0.045,0C49.755,71.46,49.746,71.466,49.738,71.474z"/>
	<g display="inline">
		<path fill="#FAAA2C" d="M93.333,38.762l2.147-2.266c1.188-1.25,0.389-3.932-1.779-5.991c-2.173-2.058-4.894-2.711-6.081-1.46
			l-2.145,2.262L93.333,38.762z"/>
		<path fill="#FAAA2C" d="M75.726,57.323c0,0-0.895,0.008-1.113-0.199l-6.475-6.141c-0.229-0.216-0.27-1.116-0.27-1.116
			l14.169-14.937l7.859,7.453L75.726,57.323z"/>
		<path fill="#FAAA2C" d="M75.298,57.775l-2.051-1.944l14.601-15.395l2.049,1.947L75.298,57.775z"/>
		<path fill="#FAAA2C" d="M69.489,52.265l-2.05-1.944l14.599-15.39l2.053,1.942L69.489,52.265z"/>
		<path fill="#FFFFFF" stroke="#FAAA2C" stroke-width="0.4443" stroke-miterlimit="10" d="M89.792,42.286l-7.604-7.213l3.438-3.624
			l7.604,7.214L89.792,42.286z"/>
		<path fill="#FFFFFF" stroke="#FAAA2C" stroke-width="0.4517" stroke-miterlimit="10" d="M64.498,61.292
			C64,60.808,67.013,50.785,67.653,50.096c0.304-0.317,1.586,1.104,2.165,2.204c0.793,0.225,1.977,0.432,2.58,1.006
			c0.764,0.721,1.027,1.52,1.16,2.587c1.137,0.474,2.253,1.342,1.957,1.654C74.867,58.211,65.023,61.782,64.498,61.292z"/>
		<path fill="#FAAA2C" d="M64.498,61.292c0.155,0.143,1.114-0.061,2.405-0.441c0.262-0.686,0.192-1.389-0.26-1.818
			c-0.45-0.43-1.154-0.465-1.823-0.168C64.511,60.177,64.351,61.149,64.498,61.292z"/>
	</g>
</g>
<g display="none">
	<path display="inline" fill="#A9D384" d="M44.606,53.814h14.116V39.698H44.606V53.814z M64.773,39.698v4.033h56.467v-4.033H64.773z
		 M64.773,49.781h36.297v-4.035H64.773V49.781z"/>
	<path display="inline" fill="#A9D384" d="M44.606,78.015h14.116V63.898H44.606V78.015z M64.773,63.898v4.033h56.467v-4.033H64.773z
		 M64.773,73.981h46.383v-4.034H64.773V73.981z"/>
	<path display="inline" fill="#A9D384" d="M44.606,102.216h14.116V88.099H44.606V102.216z M64.773,88.099v4.033h56.467v-4.033
		H64.773z M64.773,98.184h36.297v-4.036H64.773V98.184z"/>
	<path display="inline" fill="#A9D384" d="M44.606,126.416h14.116v-14.117H44.606V126.416z M64.773,112.299v4.034h56.467v-4.034
		H64.773z M64.773,122.381h46.383v-4.032H64.773V122.381z"/>
	<path display="inline" fill="#4787C7" d="M69.908,30.351c-0.844-0.831-2.075-0.72-2.917,0.023
		c-4.116,3.631-8.233,7.244-12.349,10.865c-1.088,0.957-2.176,1.914-3.265,2.874c-1.452-1.65-2.904-3.413-4.356-5.104
		c-0.733-0.854-2.179-0.708-2.918,0.043c-0.838,0.853-0.707,2.085,0.025,2.938c1.871,2.18,3.743,4.361,5.615,6.54
		c0.769,0.897,2.131,0.67,2.917-0.024c1.647-1.453,3.294-2.906,4.94-4.358c4.104-3.621,8.208-7.242,12.312-10.863
		c0.007-0.005,0.012-0.011,0.02-0.017C70.777,32.524,70.667,31.097,69.908,30.351z M49.738,45.557
		c-0.006,0.005-0.014-0.022-0.02-0.022c0.014,0,0.031,0,0.045,0C49.755,45.542,49.746,45.55,49.738,45.557z"/>
	<path display="inline" fill="#4787C7" d="M69.908,56.268c-0.844-0.831-2.075-0.72-2.917,0.023
		c-4.116,3.631-8.233,7.245-12.349,10.866c-1.088,0.957-2.176,1.915-3.265,2.874c-1.452-1.65-2.904-3.413-4.356-5.104
		c-0.733-0.854-2.179-0.708-2.918,0.044c-0.838,0.852-0.707,2.084,0.025,2.937c1.871,2.181,3.743,4.361,5.615,6.541
		c0.769,0.896,2.131,0.669,2.917-0.025c1.647-1.451,3.294-2.905,4.94-4.357c4.104-3.621,8.208-7.242,12.312-10.863
		c0.007-0.005,0.012-0.012,0.02-0.017C70.777,58.44,70.667,57.014,69.908,56.268z M49.738,71.474
		c-0.006,0.006-0.014-0.021-0.02-0.021c0.014,0,0.031,0,0.045,0C49.755,71.46,49.746,71.466,49.738,71.474z"/>
	<g display="inline">
		<path fill="#FAAA2C" d="M78.845,74.251l2.147-2.266c1.188-1.251,0.389-3.932-1.779-5.992c-2.173-2.058-4.894-2.711-6.081-1.46
			l-2.145,2.262L78.845,74.251z"/>
		<path fill="#FAAA2C" d="M61.239,92.812c0,0-0.895,0.008-1.113-0.199l-6.475-6.141c-0.229-0.217-0.27-1.115-0.27-1.115
			l14.169-14.938l7.859,7.453L61.239,92.812z"/>
		<path fill="#FAAA2C" d="M60.811,93.264l-2.051-1.944l14.601-15.395l2.049,1.947L60.811,93.264z"/>
		<path fill="#FAAA2C" d="M55.001,87.753l-2.05-1.944l14.599-15.39l2.053,1.942L55.001,87.753z"/>
		<path fill="#FFFFFF" stroke="#FAAA2C" stroke-width="0.4443" stroke-miterlimit="10" d="M75.304,77.774l-7.604-7.213l3.438-3.624
			l7.604,7.214L75.304,77.774z"/>
		<path fill="#FFFFFF" stroke="#FAAA2C" stroke-width="0.4517" stroke-miterlimit="10" d="M50.011,96.78
			c-0.498-0.484,2.515-10.508,3.154-11.196c0.304-0.317,1.586,1.104,2.165,2.204c0.793,0.225,1.977,0.432,2.58,1.006
			c0.764,0.721,1.027,1.52,1.16,2.587c1.137,0.474,2.253,1.342,1.957,1.654C60.38,93.699,50.535,97.271,50.011,96.78z"/>
		<path fill="#FAAA2C" d="M50.011,96.78c0.155,0.143,1.114-0.061,2.405-0.441c0.262-0.686,0.192-1.389-0.26-1.818
			c-0.45-0.43-1.154-0.465-1.823-0.168C50.024,95.665,49.864,96.638,50.011,96.78z"/>
	</g>
</g>
<g display="none">
	<path display="inline" fill="#A9D384" d="M44.606,53.814h14.116V39.698H44.606V53.814z M64.773,39.698v4.033h56.467v-4.033H64.773z
		 M64.773,49.781h36.297v-4.035H64.773V49.781z"/>
	<path display="inline" fill="#A9D384" d="M44.606,78.015h14.116V63.898H44.606V78.015z M64.773,63.898v4.033h56.467v-4.033H64.773z
		 M64.773,73.981h46.383v-4.034H64.773V73.981z"/>
	<path display="inline" fill="#A9D384" d="M44.606,102.216h14.116V88.099H44.606V102.216z M64.773,88.099v4.033h56.467v-4.033
		H64.773z M64.773,98.184h36.297v-4.036H64.773V98.184z"/>
	<path display="inline" fill="#A9D384" d="M44.606,126.416h14.116v-14.117H44.606V126.416z M64.773,112.299v4.034h56.467v-4.034
		H64.773z M64.773,122.381h46.383v-4.032H64.773V122.381z"/>
	<path display="inline" fill="#4787C7" d="M69.908,30.351c-0.844-0.831-2.075-0.72-2.917,0.023
		c-4.116,3.631-8.233,7.244-12.349,10.865c-1.088,0.957-2.176,1.914-3.265,2.874c-1.452-1.65-2.904-3.413-4.356-5.104
		c-0.733-0.854-2.179-0.708-2.918,0.043c-0.838,0.853-0.707,2.085,0.025,2.938c1.871,2.18,3.743,4.361,5.615,6.54
		c0.769,0.897,2.131,0.67,2.917-0.024c1.647-1.453,3.294-2.906,4.94-4.358c4.104-3.621,8.208-7.242,12.312-10.863
		c0.007-0.005,0.012-0.011,0.02-0.017C70.777,32.524,70.667,31.097,69.908,30.351z M49.738,45.557
		c-0.006,0.005-0.014-0.022-0.02-0.022c0.014,0,0.031,0,0.045,0C49.755,45.542,49.746,45.55,49.738,45.557z"/>
	<path display="inline" fill="#4787C7" d="M69.908,56.268c-0.844-0.831-2.075-0.72-2.917,0.023
		c-4.116,3.631-8.233,7.245-12.349,10.866c-1.088,0.957-2.176,1.915-3.265,2.874c-1.452-1.65-2.904-3.413-4.356-5.104
		c-0.733-0.854-2.179-0.708-2.918,0.044c-0.838,0.852-0.707,2.084,0.025,2.937c1.871,2.181,3.743,4.361,5.615,6.541
		c0.769,0.896,2.131,0.669,2.917-0.025c1.647-1.451,3.294-2.905,4.94-4.357c4.104-3.621,8.208-7.242,12.312-10.863
		c0.007-0.005,0.012-0.012,0.02-0.017C70.777,58.44,70.667,57.014,69.908,56.268z M49.738,71.474
		c-0.006,0.006-0.014-0.021-0.02-0.021c0.014,0,0.031,0,0.045,0C49.755,71.46,49.746,71.466,49.738,71.474z"/>
	<g display="inline">
		<path fill="#FAAA2C" d="M78.845,74.251l2.147-2.266c1.188-1.251,0.389-3.932-1.779-5.992c-2.173-2.058-4.894-2.711-6.081-1.46
			l-2.145,2.262L78.845,74.251z"/>
		<path fill="#FAAA2C" d="M61.239,92.812c0,0-0.895,0.008-1.113-0.199l-6.475-6.141c-0.229-0.217-0.27-1.115-0.27-1.115
			l14.169-14.938l7.859,7.453L61.239,92.812z"/>
		<path fill="#FAAA2C" d="M60.811,93.264l-2.051-1.944l14.601-15.395l2.049,1.947L60.811,93.264z"/>
		<path fill="#FAAA2C" d="M55.001,87.753l-2.05-1.944l14.599-15.39l2.053,1.942L55.001,87.753z"/>
		<path fill="#FFFFFF" stroke="#FAAA2C" stroke-width="0.4443" stroke-miterlimit="10" d="M75.304,77.774l-7.604-7.213l3.438-3.624
			l7.604,7.214L75.304,77.774z"/>
		<path fill="#FFFFFF" stroke="#FAAA2C" stroke-width="0.4517" stroke-miterlimit="10" d="M50.011,96.78
			c-0.498-0.484,2.515-10.508,3.154-11.196c0.304-0.317,1.586,1.104,2.165,2.204c0.793,0.225,1.977,0.432,2.58,1.006
			c0.764,0.721,1.027,1.52,1.16,2.587c1.137,0.474,2.253,1.342,1.957,1.654C60.38,93.699,50.535,97.271,50.011,96.78z"/>
		<path fill="#FAAA2C" d="M50.011,96.78c0.155,0.143,1.114-0.061,2.405-0.441c0.262-0.686,0.192-1.389-0.26-1.818
			c-0.45-0.43-1.154-0.465-1.823-0.168C50.024,95.665,49.864,96.638,50.011,96.78z"/>
	</g>
</g>
<g display="none">
	<path display="inline" fill="#A9D384" d="M44.606,53.814h14.116V39.698H44.606V53.814z M64.773,39.698v4.033h56.467v-4.033H64.773z
		 M64.773,49.781h36.297v-4.035H64.773V49.781z"/>
	<path display="inline" fill="#A9D384" d="M44.606,78.015h14.116V63.898H44.606V78.015z M64.773,63.898v4.033h56.467v-4.033H64.773z
		 M64.773,73.981h46.383v-4.034H64.773V73.981z"/>
	<path display="inline" fill="#A9D384" d="M44.606,102.216h14.116V88.099H44.606V102.216z M64.773,88.099v4.033h56.467v-4.033
		H64.773z M64.773,98.184h36.297v-4.036H64.773V98.184z"/>
	<path display="inline" fill="#A9D384" d="M44.606,126.416h14.116v-14.117H44.606V126.416z M64.773,112.299v4.034h56.467v-4.034
		H64.773z M64.773,122.381h46.383v-4.032H64.773V122.381z"/>
	<path display="inline" fill="#4787C7" d="M69.908,30.351c-0.844-0.831-2.075-0.72-2.917,0.023
		c-4.116,3.631-8.233,7.244-12.349,10.865c-1.088,0.957-2.176,1.914-3.265,2.874c-1.452-1.65-2.904-3.413-4.356-5.104
		c-0.733-0.854-2.179-0.708-2.918,0.043c-0.838,0.853-0.707,2.085,0.025,2.938c1.871,2.18,3.743,4.361,5.615,6.54
		c0.769,0.897,2.131,0.67,2.917-0.024c1.647-1.453,3.294-2.906,4.94-4.358c4.104-3.621,8.208-7.242,12.312-10.863
		c0.007-0.005,0.012-0.011,0.02-0.017C70.777,32.524,70.667,31.097,69.908,30.351z M49.738,45.557
		c-0.006,0.005-0.014-0.022-0.02-0.022c0.014,0,0.031,0,0.045,0C49.755,45.542,49.746,45.55,49.738,45.557z"/>
	<path display="inline" fill="#4787C7" d="M69.908,56.268c-0.844-0.831-2.075-0.72-2.917,0.023
		c-4.116,3.631-8.233,7.245-12.349,10.866c-1.088,0.957-2.176,1.915-3.265,2.874c-1.452-1.65-2.904-3.413-4.356-5.104
		c-0.733-0.854-2.179-0.708-2.918,0.044c-0.838,0.852-0.707,2.084,0.025,2.937c1.871,2.181,3.743,4.361,5.615,6.541
		c0.769,0.896,2.131,0.669,2.917-0.025c1.647-1.451,3.294-2.905,4.94-4.357c4.104-3.621,8.208-7.242,12.312-10.863
		c0.007-0.005,0.012-0.012,0.02-0.017C70.777,58.44,70.667,57.014,69.908,56.268z M49.738,71.474
		c-0.006,0.006-0.014-0.021-0.02-0.021c0.014,0,0.031,0,0.045,0C49.755,71.46,49.746,71.466,49.738,71.474z"/>
	<g display="inline">
		<path fill="#FAAA2C" d="M78.845,74.251l2.147-2.266c1.188-1.251,0.389-3.932-1.779-5.992c-2.173-2.058-4.894-2.711-6.081-1.46
			l-2.145,2.262L78.845,74.251z"/>
		<path fill="#FAAA2C" d="M61.239,92.812c0,0-0.895,0.008-1.113-0.199l-6.475-6.141c-0.229-0.217-0.27-1.115-0.27-1.115
			l14.169-14.938l7.859,7.453L61.239,92.812z"/>
		<path fill="#FAAA2C" d="M60.811,93.264l-2.051-1.944l14.601-15.395l2.049,1.947L60.811,93.264z"/>
		<path fill="#FAAA2C" d="M55.001,87.753l-2.05-1.944l14.599-15.39l2.053,1.942L55.001,87.753z"/>
		<path fill="#FFFFFF" stroke="#FAAA2C" stroke-width="0.4443" stroke-miterlimit="10" d="M75.304,77.774l-7.604-7.213l3.438-3.624
			l7.604,7.214L75.304,77.774z"/>
		<path fill="#FFFFFF" stroke="#FAAA2C" stroke-width="0.4517" stroke-miterlimit="10" d="M50.011,96.78
			c-0.498-0.484,2.515-10.508,3.154-11.196c0.304-0.317,1.586,1.104,2.165,2.204c0.793,0.225,1.977,0.432,2.58,1.006
			c0.764,0.721,1.027,1.52,1.16,2.587c1.137,0.474,2.253,1.342,1.957,1.654C60.38,93.699,50.535,97.271,50.011,96.78z"/>
		<path fill="#FAAA2C" d="M50.011,96.78c0.155,0.143,1.114-0.061,2.405-0.441c0.262-0.686,0.192-1.389-0.26-1.818
			c-0.45-0.43-1.154-0.465-1.823-0.168C50.024,95.665,49.864,96.638,50.011,96.78z"/>
	</g>
</g>
<g display="none">
	<path display="inline" fill="#A9D384" d="M44.606,53.814h14.116V39.698H44.606V53.814z M64.773,39.698v4.033h56.467v-4.033H64.773z
		 M64.773,49.781h36.297v-4.035H64.773V49.781z"/>
	<path display="inline" fill="#A9D384" d="M44.606,78.015h14.116V63.898H44.606V78.015z M64.773,63.898v4.033h56.467v-4.033H64.773z
		 M64.773,73.981h46.383v-4.034H64.773V73.981z"/>
	<path display="inline" fill="#A9D384" d="M44.606,102.216h14.116V88.099H44.606V102.216z M64.773,88.099v4.033h56.467v-4.033
		H64.773z M64.773,98.184h36.297v-4.036H64.773V98.184z"/>
	<path display="inline" fill="#A9D384" d="M44.606,126.416h14.116v-14.117H44.606V126.416z M64.773,112.299v4.034h56.467v-4.034
		H64.773z M64.773,122.381h46.383v-4.032H64.773V122.381z"/>
	<path display="inline" fill="#4787C7" d="M69.908,30.351c-0.844-0.831-2.075-0.72-2.917,0.023
		c-4.116,3.631-8.233,7.244-12.349,10.865c-1.088,0.957-2.176,1.914-3.265,2.874c-1.452-1.65-2.904-3.413-4.356-5.104
		c-0.733-0.854-2.179-0.708-2.918,0.043c-0.838,0.853-0.707,2.085,0.025,2.938c1.871,2.18,3.743,4.361,5.615,6.54
		c0.769,0.897,2.131,0.67,2.917-0.024c1.647-1.453,3.294-2.906,4.94-4.358c4.104-3.621,8.208-7.242,12.312-10.863
		c0.007-0.005,0.012-0.011,0.02-0.017C70.777,32.524,70.667,31.097,69.908,30.351z M49.738,45.557
		c-0.006,0.005-0.014-0.022-0.02-0.022c0.014,0,0.031,0,0.045,0C49.755,45.542,49.746,45.55,49.738,45.557z"/>
	<path display="inline" fill="#4787C7" d="M69.908,56.268c-0.844-0.831-2.075-0.72-2.917,0.023
		c-4.116,3.631-8.233,7.245-12.349,10.866c-1.088,0.957-2.176,1.915-3.265,2.874c-1.452-1.65-2.904-3.413-4.356-5.104
		c-0.733-0.854-2.179-0.708-2.918,0.044c-0.838,0.852-0.707,2.084,0.025,2.937c1.871,2.181,3.743,4.361,5.615,6.541
		c0.769,0.896,2.131,0.669,2.917-0.025c1.647-1.451,3.294-2.905,4.94-4.357c4.104-3.621,8.208-7.242,12.312-10.863
		c0.007-0.005,0.012-0.012,0.02-0.017C70.777,58.44,70.667,57.014,69.908,56.268z M49.738,71.474
		c-0.006,0.006-0.014-0.021-0.02-0.021c0.014,0,0.031,0,0.045,0C49.755,71.46,49.746,71.466,49.738,71.474z"/>
	<g display="inline">
		<path fill="#FAAA2C" d="M71.855,98.105l2.147-2.266c1.188-1.251,0.389-3.932-1.779-5.991c-2.173-2.059-4.894-2.711-6.081-1.461
			l-2.145,2.262L71.855,98.105z"/>
		<path fill="#FAAA2C" d="M54.248,116.666c0,0-0.895,0.008-1.113-0.199l-6.475-6.141c-0.229-0.217-0.27-1.115-0.27-1.115
			L60.56,94.273l7.859,7.453L54.248,116.666z"/>
		<path fill="#FAAA2C" d="M53.821,117.118l-2.051-1.944l14.601-15.395l2.049,1.947L53.821,117.118z"/>
		<path fill="#FAAA2C" d="M48.011,111.607l-2.05-1.944l14.599-15.39l2.053,1.942L48.011,111.607z"/>
		<path fill="#FFFFFF" stroke="#FAAA2C" stroke-width="0.4443" stroke-miterlimit="10" d="M68.314,101.629l-7.604-7.213l3.438-3.624
			l7.604,7.215L68.314,101.629z"/>
		<path fill="#FFFFFF" stroke="#FAAA2C" stroke-width="0.4517" stroke-miterlimit="10" d="M43.021,120.635
			c-0.498-0.484,2.515-10.508,3.154-11.196c0.304-0.317,1.586,1.104,2.165,2.204c0.793,0.225,1.977,0.432,2.58,1.006
			c0.764,0.721,1.027,1.52,1.16,2.587c1.137,0.474,2.253,1.342,1.957,1.654C53.39,117.554,43.545,121.125,43.021,120.635z"/>
		<path fill="#FAAA2C" d="M43.021,120.635c0.155,0.143,1.114-0.061,2.405-0.441c0.262-0.686,0.192-1.389-0.26-1.818
			c-0.45-0.43-1.154-0.465-1.823-0.168C43.033,119.52,42.873,120.492,43.021,120.635z"/>
	</g>
</g>
<g display="none">
	<path display="inline" fill="#A9D384" d="M44.606,53.814h14.116V39.698H44.606V53.814z M64.773,39.698v4.033h56.467v-4.033H64.773z
		 M64.773,49.781h36.297v-4.035H64.773V49.781z"/>
	<path display="inline" fill="#A9D384" d="M44.606,78.015h14.116V63.898H44.606V78.015z M64.773,63.898v4.033h56.467v-4.033H64.773z
		 M64.773,73.981h46.383v-4.034H64.773V73.981z"/>
	<path display="inline" fill="#A9D384" d="M44.606,102.216h14.116V88.099H44.606V102.216z M64.773,88.099v4.033h56.467v-4.033
		H64.773z M64.773,98.184h36.297v-4.036H64.773V98.184z"/>
	<path display="inline" fill="#A9D384" d="M44.606,126.416h14.116v-14.117H44.606V126.416z M64.773,112.299v4.034h56.467v-4.034
		H64.773z M64.773,122.381h46.383v-4.032H64.773V122.381z"/>
	<path display="inline" fill="#4787C7" d="M69.908,30.351c-0.844-0.831-2.075-0.72-2.917,0.023
		c-4.116,3.631-8.233,7.244-12.349,10.865c-1.088,0.957-2.176,1.914-3.265,2.874c-1.452-1.65-2.904-3.413-4.356-5.104
		c-0.733-0.854-2.179-0.708-2.918,0.043c-0.838,0.853-0.707,2.085,0.025,2.938c1.871,2.18,3.743,4.361,5.615,6.54
		c0.769,0.897,2.131,0.67,2.917-0.024c1.647-1.453,3.294-2.906,4.94-4.358c4.104-3.621,8.208-7.242,12.312-10.863
		c0.007-0.005,0.012-0.011,0.02-0.017C70.777,32.524,70.667,31.097,69.908,30.351z M49.738,45.557
		c-0.006,0.005-0.014-0.022-0.02-0.022c0.014,0,0.031,0,0.045,0C49.755,45.542,49.746,45.55,49.738,45.557z"/>
	<path display="inline" fill="#4787C7" d="M69.908,56.268c-0.844-0.831-2.075-0.72-2.917,0.023
		c-4.116,3.631-8.233,7.245-12.349,10.866c-1.088,0.957-2.176,1.915-3.265,2.874c-1.452-1.65-2.904-3.413-4.356-5.104
		c-0.733-0.854-2.179-0.708-2.918,0.044c-0.838,0.852-0.707,2.084,0.025,2.937c1.871,2.181,3.743,4.361,5.615,6.541
		c0.769,0.896,2.131,0.669,2.917-0.025c1.647-1.451,3.294-2.905,4.94-4.357c4.104-3.621,8.208-7.242,12.312-10.863
		c0.007-0.005,0.012-0.012,0.02-0.017C70.777,58.44,70.667,57.014,69.908,56.268z M49.738,71.474
		c-0.006,0.006-0.014-0.021-0.02-0.021c0.014,0,0.031,0,0.045,0C49.755,71.46,49.746,71.466,49.738,71.474z"/>
	<g display="inline">
		<path fill="#FAAA2C" d="M79.328,103.282l2.147-2.266c1.188-1.251,0.389-3.932-1.779-5.991c-2.173-2.059-4.894-2.711-6.081-1.461
			l-2.145,2.262L79.328,103.282z"/>
		<path fill="#FAAA2C" d="M61.721,121.843c0,0-0.895,0.008-1.113-0.199l-6.475-6.141c-0.229-0.217-0.27-1.115-0.27-1.115
			L68.033,99.45l7.859,7.453L61.721,121.843z"/>
		<path fill="#FAAA2C" d="M61.293,122.295l-2.051-1.944l14.601-15.395l2.049,1.947L61.293,122.295z"/>
		<path fill="#FAAA2C" d="M55.484,116.784l-2.05-1.944l14.599-15.39l2.053,1.942L55.484,116.784z"/>
		<path fill="#FFFFFF" stroke="#FAAA2C" stroke-width="0.4443" stroke-miterlimit="10" d="M75.787,106.806l-7.604-7.213l3.438-3.624
			l7.604,7.215L75.787,106.806z"/>
		<path fill="#FFFFFF" stroke="#FAAA2C" stroke-width="0.4517" stroke-miterlimit="10" d="M50.493,125.812
			c-0.498-0.484,2.515-10.508,3.154-11.196c0.304-0.317,1.586,1.104,2.165,2.204c0.793,0.225,1.977,0.432,2.58,1.006
			c0.764,0.721,1.027,1.52,1.16,2.587c1.137,0.474,2.253,1.342,1.957,1.654C60.863,122.73,51.018,126.302,50.493,125.812z"/>
		<path fill="#FAAA2C" d="M50.493,125.812c0.155,0.143,1.114-0.061,2.405-0.441c0.262-0.686,0.192-1.389-0.26-1.818
			c-0.45-0.43-1.154-0.465-1.823-0.168C50.506,124.696,50.346,125.669,50.493,125.812z"/>
	</g>
</g>
<g display="none">
	<path display="inline" fill="#A9D384" d="M44.606,53.814h14.116V39.698H44.606V53.814z M64.773,39.698v4.033h56.467v-4.033H64.773z
		 M64.773,49.781h36.297v-4.035H64.773V49.781z"/>
	<path display="inline" fill="#A9D384" d="M44.606,78.015h14.116V63.898H44.606V78.015z M64.773,63.898v4.033h56.467v-4.033H64.773z
		 M64.773,73.981h46.383v-4.034H64.773V73.981z"/>
	<path display="inline" fill="#A9D384" d="M44.606,102.216h14.116V88.099H44.606V102.216z M64.773,88.099v4.033h56.467v-4.033
		H64.773z M64.773,98.184h36.297v-4.036H64.773V98.184z"/>
	<path display="inline" fill="#A9D384" d="M44.606,126.416h14.116v-14.117H44.606V126.416z M64.773,112.299v4.034h56.467v-4.034
		H64.773z M64.773,122.381h46.383v-4.032H64.773V122.381z"/>
	<path display="inline" fill="#4787C7" d="M69.908,30.351c-0.844-0.831-2.075-0.72-2.917,0.023
		c-4.116,3.631-8.233,7.244-12.349,10.865c-1.088,0.957-2.176,1.914-3.265,2.874c-1.452-1.65-2.904-3.413-4.356-5.104
		c-0.733-0.854-2.179-0.708-2.918,0.043c-0.838,0.853-0.707,2.085,0.025,2.938c1.871,2.18,3.743,4.361,5.615,6.54
		c0.769,0.897,2.131,0.67,2.917-0.024c1.647-1.453,3.294-2.906,4.94-4.358c4.104-3.621,8.208-7.242,12.312-10.863
		c0.007-0.005,0.012-0.011,0.02-0.017C70.777,32.524,70.667,31.097,69.908,30.351z M49.738,45.557
		c-0.006,0.005-0.014-0.022-0.02-0.022c0.014,0,0.031,0,0.045,0C49.755,45.542,49.746,45.55,49.738,45.557z"/>
	<path display="inline" fill="#4787C7" d="M69.908,56.268c-0.844-0.831-2.075-0.72-2.917,0.023
		c-4.116,3.631-8.233,7.245-12.349,10.866c-1.088,0.957-2.176,1.915-3.265,2.874c-1.452-1.65-2.904-3.413-4.356-5.104
		c-0.733-0.854-2.179-0.708-2.918,0.044c-0.838,0.852-0.707,2.084,0.025,2.937c1.871,2.181,3.743,4.361,5.615,6.541
		c0.769,0.896,2.131,0.669,2.917-0.025c1.647-1.451,3.294-2.905,4.94-4.357c4.104-3.621,8.208-7.242,12.312-10.863
		c0.007-0.005,0.012-0.012,0.02-0.017C70.777,58.44,70.667,57.014,69.908,56.268z M49.738,71.474
		c-0.006,0.006-0.014-0.021-0.02-0.021c0.014,0,0.031,0,0.045,0C49.755,71.46,49.746,71.466,49.738,71.474z"/>
	<path display="inline" fill="#4787C7" d="M69.908,105.784c-0.844-0.831-2.075-0.719-2.917,0.023
		c-4.116,3.632-8.233,7.245-12.349,10.866c-1.088,0.957-2.176,1.913-3.265,2.874c-1.452-1.65-2.904-3.413-4.356-5.104
		c-0.733-0.854-2.179-0.708-2.918,0.044c-0.838,0.853-0.707,2.085,0.025,2.938c1.871,2.181,3.743,4.36,5.615,6.54
		c0.769,0.897,2.131,0.669,2.917-0.024c1.647-1.453,3.294-2.905,4.94-4.358c4.104-3.621,8.208-7.242,12.312-10.862
		c0.007-0.006,0.012-0.013,0.02-0.018C70.777,107.958,70.667,106.53,69.908,105.784z M49.738,120.991
		c-0.006,0.004-0.014-0.021-0.02-0.021c0.014,0,0.031,0,0.045,0C49.755,120.976,49.746,120.983,49.738,120.991z"/>
	<g display="inline">
		<path fill="#FAAA2C" d="M94.32,87.818l2.148-2.266c1.188-1.251,0.389-3.932-1.779-5.991c-2.174-2.059-4.895-2.711-6.082-1.461
			l-2.145,2.262L94.32,87.818z"/>
		<path fill="#FAAA2C" d="M76.714,106.379c0,0-0.895,0.008-1.113-0.199l-6.475-6.141c-0.229-0.217-0.27-1.115-0.27-1.115
			l14.169-14.938l7.859,7.453L76.714,106.379z"/>
		<path fill="#FAAA2C" d="M76.286,106.831l-2.051-1.944l14.601-15.395l2.049,1.947L76.286,106.831z"/>
		<path fill="#FAAA2C" d="M70.476,101.32l-2.05-1.944l14.599-15.39l2.053,1.942L70.476,101.32z"/>
		<path fill="#FFFFFF" stroke="#FAAA2C" stroke-width="0.4443" stroke-miterlimit="10" d="M90.779,91.342l-7.604-7.213l3.438-3.624
			l7.604,7.215L90.779,91.342z"/>
		<path fill="#FFFFFF" stroke="#FAAA2C" stroke-width="0.4517" stroke-miterlimit="10" d="M65.486,110.348
			c-0.498-0.484,2.515-10.508,3.154-11.196c0.304-0.317,1.586,1.104,2.165,2.204c0.793,0.225,1.977,0.432,2.58,1.006
			c0.764,0.721,1.027,1.52,1.16,2.587c1.137,0.474,2.253,1.342,1.957,1.654C75.855,107.267,66.01,110.838,65.486,110.348z"/>
		<path fill="#FAAA2C" d="M65.486,110.348c0.155,0.143,1.114-0.061,2.405-0.441c0.262-0.686,0.192-1.389-0.26-1.818
			c-0.45-0.43-1.154-0.465-1.823-0.168C65.499,109.232,65.339,110.205,65.486,110.348z"/>
	</g>
</g>
<g>
	<path fill="#A9D384" d="M44.606,53.814h14.116V39.698H44.606V53.814z M64.773,39.698v4.033h56.467v-4.033H64.773z M64.773,49.781
		h36.297v-4.035H64.773V49.781z"/>
	<path fill="#A9D384" d="M44.606,78.015h14.116V63.898H44.606V78.015z M64.773,63.898v4.033h56.467v-4.033H64.773z M64.773,73.981
		h46.383v-4.034H64.773V73.981z"/>
	<path fill="#A9D384" d="M44.606,102.216h14.116V88.099H44.606V102.216z M64.773,88.099v4.033h56.467v-4.033H64.773z M64.773,98.184
		h36.297v-4.036H64.773V98.184z"/>
	<path fill="#A9D384" d="M44.606,126.416h14.116v-14.117H44.606V126.416z M64.773,112.299v4.034h56.467v-4.034H64.773z
		 M64.773,122.381h46.383v-4.032H64.773V122.381z"/>
	<path fill="#4787C7" d="M69.908,30.351c-0.844-0.831-2.075-0.72-2.917,0.023c-4.116,3.631-8.233,7.244-12.349,10.865
		c-1.088,0.957-2.176,1.914-3.265,2.874c-1.452-1.65-2.904-3.413-4.356-5.104c-0.733-0.854-2.179-0.708-2.918,0.043
		c-0.838,0.853-0.707,2.085,0.025,2.938c1.871,2.18,3.743,4.361,5.615,6.54c0.769,0.897,2.131,0.67,2.917-0.024
		c1.647-1.453,3.294-2.906,4.94-4.358c4.104-3.621,8.208-7.242,12.312-10.863c0.007-0.005,0.012-0.011,0.02-0.017
		C70.777,32.524,70.667,31.097,69.908,30.351z M49.738,45.557c-0.006,0.005-0.014-0.022-0.02-0.022c0.014,0,0.031,0,0.045,0
		C49.755,45.542,49.746,45.55,49.738,45.557z"/>
	<path fill="#4787C7" d="M69.908,56.268c-0.844-0.831-2.075-0.72-2.917,0.023c-4.116,3.631-8.233,7.245-12.349,10.866
		c-1.088,0.957-2.176,1.915-3.265,2.874c-1.452-1.65-2.904-3.413-4.356-5.104c-0.733-0.854-2.179-0.708-2.918,0.044
		c-0.838,0.852-0.707,2.084,0.025,2.937c1.871,2.181,3.743,4.361,5.615,6.541c0.769,0.896,2.131,0.669,2.917-0.025
		c1.647-1.451,3.294-2.905,4.94-4.357c4.104-3.621,8.208-7.242,12.312-10.863c0.007-0.005,0.012-0.012,0.02-0.017
		C70.777,58.44,70.667,57.014,69.908,56.268z M49.738,71.474c-0.006,0.006-0.014-0.021-0.02-0.021c0.014,0,0.031,0,0.045,0
		C49.755,71.46,49.746,71.466,49.738,71.474z"/>
	<path fill="#4787C7" d="M69.908,105.784c-0.844-0.831-2.075-0.719-2.917,0.023c-4.116,3.632-8.233,7.245-12.349,10.866
		c-1.088,0.957-2.176,1.913-3.265,2.874c-1.452-1.65-2.904-3.413-4.356-5.104c-0.733-0.854-2.179-0.708-2.918,0.044
		c-0.838,0.853-0.707,2.085,0.025,2.938c1.871,2.181,3.743,4.36,5.615,6.54c0.769,0.897,2.131,0.669,2.917-0.024
		c1.647-1.453,3.294-2.905,4.94-4.358c4.104-3.621,8.208-7.242,12.312-10.862c0.007-0.006,0.012-0.013,0.02-0.018
		C70.777,107.958,70.667,106.53,69.908,105.784z M49.738,120.991c-0.006,0.004-0.014-0.021-0.02-0.021c0.014,0,0.031,0,0.045,0
		C49.755,120.976,49.746,120.983,49.738,120.991z"/>
</g>
</svg>
