<svg xmlns="http://www.w3.org/2000/svg" xmlns:xlink="http://www.w3.org/1999/xlink" version="1.1" id="Layer_1" x="0px" y="0px" width="50.4px" height="50.4px" viewBox="0 0 50.4 50.4" enable-background="new 0 0 50.4 50.4" xml:space="preserve">
<g id="Layer_1_1_">
</g>
<path fill="#000000" d="M30.028,33.967c-0.288,0-0.562-0.162-0.694-0.441L27.86,30.38c-0.18-0.384-0.014-0.841,0.369-1.02  c0.381-0.176,0.838-0.017,1.02,0.37l1.476,3.145c0.179,0.382,0.014,0.84-0.37,1.021C30.248,33.942,30.138,33.967,30.028,33.967  L30.028,33.967z"/>
<g id="Layer_3">
</g>
<path fill="#000000" d="M42.512,42.928c0.022-0.048,0.943-0.675,0.943-0.675L39.362,24.4l-0.095-0.145  c-0.047-0.07-0.71-1.058-1.96-1.896c1.812-2.501,2.794-5.959,2.794-9.11c0-7.09-6.143-13.367-13.839-13.15  C20.441,0.262,15.07,4.471,13.956,9.286c-0.249,1.071-0.529,3.868-0.529,3.868l-3.419,6.75c-0.053,0.119-0.079,0.259-0.079,0.401  c0,0.569,0.46,1.033,1.032,1.033h2.466v3.585c0,0.786,0.194,1.522,0.515,2.188c0.002-0.001,0.003-0.002,0.006-0.004  c-1.988,1.327-3.182,2.754-3.279,2.872l-0.674,0.821l0.93,0.519c0.938,0.52,2.988,1.857,4.47,3.43l-0.862,0.318l1.312,3.538  l1.239-0.459c0.028,2.538-1.821,6.332-2.663,7.776l2.181,1.757c0,0-1.029,2.207-1.414,2.721h30.666v-0.001  C45.852,50.399,45.061,46.481,42.512,42.928z M25.557,15.447c0.48-1.676,2.113-2.729,3.607-2.318  c0.999,0.268,1.727,0.795,2.163,1.566c0.51,0.906,0.573,2.105,0.184,3.468c-0.304,1.056-0.939,1.953-1.791,2.527  c-0.611,0.41-1.293,0.628-1.971,0.628c-0.298,0-0.596-0.042-0.886-0.125c-0.171-0.049-0.312-0.161-0.398-0.316  s-0.106-0.335-0.058-0.505c0.1-0.349,0.484-0.562,0.822-0.455c0.563,0.157,1.197,0.04,1.748-0.33  c0.591-0.398,1.036-1.034,1.254-1.791c0.201-0.708,0.354-1.707-0.062-2.447c-0.253-0.448-0.707-0.764-1.351-0.939  c-0.808-0.208-1.702,0.423-1.981,1.402c-0.102,0.345-0.479,0.551-0.822,0.456C25.663,16.167,25.458,15.799,25.557,15.447z   M17.507,12.739c0.729,0,1.32,0.592,1.32,1.32c0,0.729-0.592,1.319-1.32,1.319s-1.319-0.59-1.319-1.319  C16.187,13.331,16.778,12.739,17.507,12.739z M12.756,30.353c1.429-1.377,4.852-4.133,9.128-3.727  c1.094,0.105,2.015,0.584,2.766,1.186c-0.406,0.688-0.646,1.173-0.679,1.241l-0.206,0.423l0.934,1.819l-7.536,2.794  C15.787,32.443,13.896,31.085,12.756,30.353z M17.997,42.409c0.569-1.604,0.979-3.384,0.815-4.905l7.623-2.824l0.929,1.812  C24.134,37.391,20.562,40.132,17.997,42.409z M31.123,35.791c-0.654,0-1.306,0.038-1.939,0.115l-3.307-6.438  c0.039-0.074,2.504-4.979,5.807-6.137c0.594-0.208,1.195-0.282,1.762-0.282c2.375,0,3.796,1.642,4.157,2.115l2.887,13.027  C38.467,37.162,35.039,35.791,31.123,35.791z"/>
</svg>