<?xml version="1.0" encoding="utf-8"?>
<!-- Generator: Adobe Illustrator 16.0.0, SVG Export Plug-In . SVG Version: 6.00 Build 0)  -->
<!DOCTYPE svg PUBLIC "-//W3C//DTD SVG 1.1//EN" "http://www.w3.org/Graphics/SVG/1.1/DTD/svg11.dtd">
<svg version="1.1" id="Layer_1" xmlns="http://www.w3.org/2000/svg" xmlns:xlink="http://www.w3.org/1999/xlink" x="0px" y="0px"
	 width="100px" height="72.654px" viewBox="-346.062 271.39 100 72.654" enable-background="new -346.062 271.39 100 72.654"
	 xml:space="preserve">
<path d="M-265.413,325.236c-1.801,0-3.573-0.493-5.125-1.426c-4.712-2.831-6.242-8.969-3.412-13.68l9.371-15.596
	c1.791-2.982,5.07-4.836,8.552-4.836c1.803,0,3.575,0.491,5.126,1.425c2.282,1.371,3.896,3.548,4.539,6.133
	c0.644,2.583,0.243,5.265-1.127,7.546l-9.37,15.596C-258.652,323.383-261.928,325.236-265.413,325.236L-265.413,325.236z
	 M-256.026,292.632c-2.497,0-4.755,1.276-6.038,3.414l-9.369,15.599c-1.999,3.321-0.919,7.654,2.407,9.652
	c1.095,0.658,2.345,1.005,3.614,1.005c2.497,0,4.754-1.275,6.04-3.412l9.37-15.597c0.968-1.609,1.25-3.502,0.795-5.326
	c-0.453-1.822-1.592-3.359-3.202-4.328C-253.506,292.98-254.757,292.632-256.026,292.632L-256.026,292.632z"/>
<path d="M-313.422,287.357c-1.871-2.54-4.874-4.055-8.032-4.055c-2.139,0-4.182,0.671-5.908,1.941l-14.648,10.793
	c-4.425,3.262-5.373,9.512-2.113,13.939c1.873,2.539,4.875,4.057,8.033,4.057c2.138,0,4.181-0.674,5.907-1.943l14.648-10.793
	c2.145-1.578,3.544-3.899,3.942-6.531C-311.191,292.132-311.842,289.501-313.422,287.357z M-328.932,292.167
	c0.782-0.579,1.884-0.411,2.46,0.373c0.577,0.78,0.41,1.885-0.374,2.46c-0.783,0.576-1.883,0.41-2.461-0.371
	C-329.882,293.845-329.714,292.742-328.932,292.167z M-335.972,295.686c0.782-0.576,1.883-0.411,2.461,0.373
	c0.577,0.781,0.408,1.886-0.373,2.461c-0.782,0.575-1.884,0.411-2.461-0.373C-336.922,297.363-336.755,296.262-335.972,295.686z
	 M-339.474,302.742c-0.578-0.782-0.41-1.886,0.373-2.46c0.783-0.577,1.884-0.411,2.461,0.372c0.576,0.783,0.409,1.885-0.374,2.462
	C-337.796,303.692-338.898,303.526-339.474,302.742z M-334.861,308.003c-0.783,0.577-1.884,0.409-2.461-0.371
	c-0.577-0.783-0.411-1.884,0.373-2.461c0.783-0.577,1.884-0.411,2.461,0.371C-333.912,306.325-334.08,307.428-334.861,308.003z
	 M-331.832,303.897c-0.782,0.575-1.884,0.409-2.461-0.373c-0.577-0.782-0.41-1.886,0.373-2.462c0.783-0.576,1.885-0.41,2.461,0.375
	C-330.881,302.22-331.048,303.322-331.832,303.897z M-331.064,299.32c-0.578-0.781-0.41-1.884,0.374-2.46
	c0.782-0.578,1.883-0.41,2.461,0.372c0.576,0.783,0.409,1.885-0.373,2.462C-329.387,300.269-330.489,300.104-331.064,299.32z
	 M-326.551,304.874c-0.782,0.578-1.884,0.41-2.461-0.373c-0.578-0.781-0.409-1.884,0.373-2.46c0.782-0.576,1.884-0.41,2.461,0.373
	C-325.601,303.197-325.768,304.298-326.551,304.874z M-320.684,298.911c-0.783,0.577-1.885,0.409-2.461-0.373
	s-0.41-1.885,0.372-2.461c0.782-0.578,1.885-0.41,2.46,0.372C-319.735,297.233-319.902,298.334-320.684,298.911z"/>
<path d="M-286.911,274.352c-1.873-1.894-4.368-2.945-7.031-2.962c-3.154-0.02-6.167,1.479-8.056,4.011
	c-1.278,1.713-1.961,3.754-1.975,5.897l-0.112,18.194c-0.034,5.497,4.41,9.995,9.909,10.031c3.154,0.018,6.164-1.482,8.055-4.011
	c1.279-1.716,1.962-3.752,1.975-5.896l0.112-18.194C-284.018,278.758-285.04,276.248-286.911,274.352z M-290.776,282.35
	c0.972,0.006,1.755,0.8,1.75,1.772c-0.006,0.972-0.8,1.754-1.77,1.748c-0.974-0.006-1.756-0.798-1.75-1.769
	C-292.542,283.128-291.748,282.344-290.776,282.35z M-293.139,290.936c-0.005,0.972-0.799,1.755-1.77,1.749
	c-0.971-0.005-1.755-0.798-1.75-1.771c0.007-0.972,0.799-1.756,1.771-1.748C-293.916,289.171-293.13,289.963-293.139,290.936z
	 M-297.594,284.947c0.971,0.006,1.755,0.798,1.748,1.772c-0.006,0.971-0.799,1.753-1.771,1.748s-1.755-0.799-1.749-1.771
	C-299.359,285.724-298.567,284.941-297.594,284.947z M-300.756,294.442c0.006-0.971,0.797-1.755,1.771-1.748
	c0.971,0.005,1.755,0.8,1.748,1.77c-0.006,0.975-0.798,1.757-1.771,1.751C-299.979,296.209-300.762,295.415-300.756,294.442z
	 M-297.194,301.471c-0.972-0.006-1.755-0.798-1.749-1.771c0.006-0.971,0.798-1.754,1.771-1.749c0.972,0.006,1.755,0.798,1.749,1.771
	C-295.431,300.694-296.222,301.477-297.194,301.471z M-295.218,296.015c0.006-0.974,0.799-1.754,1.771-1.75
	c0.972,0.007,1.755,0.798,1.75,1.772c-0.007,0.972-0.8,1.753-1.773,1.749C-294.44,297.78-295.223,296.987-295.218,296.015z
	 M-291.99,302.67c-0.971-0.005-1.754-0.798-1.749-1.77c0.005-0.973,0.801-1.757,1.771-1.751c0.974,0.008,1.756,0.801,1.75,1.772
	C-290.224,301.894-291.018,302.678-291.99,302.67z M-289.525,294.138c-0.974-0.004-1.755-0.798-1.751-1.77
	c0.006-0.972,0.799-1.755,1.773-1.75c0.97,0.008,1.754,0.8,1.747,1.772C-287.763,293.361-288.555,294.146-289.525,294.138z"/>
<path d="M-294.882,328.499l-10.179-15.079c-1.489-2.208-3.751-3.703-6.364-4.211c-2.613-0.507-5.27,0.035-7.477,1.525
	c-2.613,1.765-4.254,4.701-4.383,7.859c-0.088,2.136,0.5,4.204,1.7,5.98l10.178,15.081c3.076,4.556,9.283,5.761,13.841,2.688
	c2.614-1.767,4.253-4.705,4.384-7.86C-293.097,332.345-293.684,330.276-294.882,328.499z M-310.101,317.993
	c0.805-0.546,1.899-0.332,2.443,0.474s0.332,1.899-0.474,2.442c-0.805,0.546-1.899,0.332-2.443-0.475
	C-311.12,319.631-310.907,318.537-310.101,317.993z M-312.293,326.903c-0.807,0.546-1.9,0.33-2.444-0.474
	c-0.543-0.808-0.331-1.901,0.473-2.444c0.807-0.543,1.901-0.33,2.445,0.475C-311.275,325.266-311.487,326.36-312.293,326.903z
	 M-309.068,334.082c-0.805,0.546-1.899,0.331-2.443-0.474c-0.542-0.806-0.332-1.9,0.474-2.443c0.805-0.546,1.901-0.331,2.444,0.476
	C-308.051,332.445-308.262,333.539-309.068,334.082z M-307.677,328.854c-0.806,0.546-1.899,0.332-2.444-0.476
	c-0.542-0.805-0.333-1.898,0.475-2.441c0.805-0.542,1.899-0.332,2.444,0.475C-306.659,327.217-306.871,328.312-307.677,328.854z
	 M-304.603,337.399c-0.806,0.544-1.901,0.33-2.444-0.477c-0.544-0.805-0.332-1.898,0.475-2.441c0.806-0.545,1.899-0.331,2.443,0.474
	C-303.587,335.761-303.798,336.854-304.603,337.399z M-303.609,332.254c-0.806,0.543-1.899,0.33-2.443-0.476
	c-0.543-0.807-0.332-1.899,0.475-2.442c0.805-0.544,1.898-0.329,2.443,0.475C-302.592,330.615-302.804,331.708-303.609,332.254z
	 M-304.859,326.543c-0.542-0.805-0.331-1.898,0.475-2.442c0.806-0.544,1.9-0.33,2.443,0.477c0.545,0.805,0.333,1.898-0.473,2.442
	C-303.22,327.562-304.314,327.35-304.859,326.543z M-299.63,335.451c-0.805,0.543-1.899,0.331-2.443-0.476
	c-0.543-0.805-0.332-1.899,0.474-2.443c0.805-0.545,1.898-0.331,2.443,0.475C-298.612,333.814-298.826,334.908-299.63,335.451z"/>
</svg>
