<svg xmlns="http://www.w3.org/2000/svg" xmlns:xlink="http://www.w3.org/1999/xlink" version="1.1" id="Layer_1" x="0px" y="0px" width="40px" height="40px" viewBox="0 0 40 40" enable-background="new 0 0 40 40" xml:space="preserve">
<g>
	<path d="M-23.112,12.466c1.998,0,2.803-0.593,3.126-1.014l0.162-1.899l0.317,1.869c0.198,0.155,0.534,0.281,1.114,0.193   c0.946-0.144,1.202-0.524,1.278-0.783l-0.777-1.307l1.138,1.126c0.998-0.045,1.767-0.301,2.35-0.639l-1.283-0.487l1.73,0.191   c0.924-0.706,1.228-1.546,1.228-1.546h-7.936l-2.448,2.448C-23.112,11.391-23.112,12.132-23.112,12.466z"/>
	<path d="M-28.783,11.463l0.318-1.869l0.162,1.9c0.323,0.42,1.129,1.014,3.126,1.014c0-0.335,0-1.076,0-1.849l-2.448-2.448h-7.936   c0,0,0.303,0.841,1.228,1.546l1.73-0.191l-1.282,0.488c0.582,0.337,1.352,0.594,2.349,0.639l1.138-1.127l-0.778,1.307   c0.078,0.259,0.333,0.64,1.279,0.783C-29.317,11.744-28.981,11.618-28.783,11.463z"/>
	<path d="M-24.352,10.075v7.282c-0.171-0.042-0.342-0.083-0.517-0.126c-2.072-0.499-4.422-1.065-4.422-2.159   c0-0.72,0.628-1.205,1.563-1.205c0.49,0,0.904,0.235,1.187,0.535c0.009,0.028,0.202,0.665,0.16,0.919   c-0.044,0.26,0.477,0.694,0.585,0.434c0.109-0.26,0.253-0.388,0.154-0.734l-0.009-0.005c-0.136-0.816-0.99-1.669-2.078-1.669   c-1.226,0-2.083,0.71-2.083,1.726c0,1.466,2.328,2.064,4.64,2.622c-1.204,0.357-2.054,0.779-2.054,1.479   c0,0.902,1.079,1.465,2.385,1.991c-1.337,0.522-2.497,1.057-2.497,1.915c0,0.922,1.185,1.489,2.446,1.959   c-0.879,0.325-1.474,0.615-1.494,1.068c-0.021,0.494,0.33,0.805,1.174,0.99c-0.185,0.121-0.355,0.259-0.495,0.435   c-0.703,0.892-0.529,2.17-0.521,2.225l0.515-0.074c-0.001-0.011-0.151-1.109,0.415-1.828c0.225-0.285,0.547-0.465,0.946-0.553   v2.418h0.456v-2.418c0.399,0.088,0.719,0.267,0.944,0.551c0.565,0.715,0.418,1.819,0.417,1.83l0.516,0.074   c0.008-0.055,0.182-1.333-0.521-2.225c-0.139-0.177-0.31-0.314-0.495-0.435c0.844-0.186,1.196-0.496,1.174-0.99   c-0.02-0.453-0.615-0.743-1.494-1.068c1.261-0.47,2.446-1.037,2.446-1.959c0-0.858-1.158-1.393-2.497-1.915   c1.307-0.526,2.385-1.089,2.385-1.991c0-0.7-0.849-1.122-2.054-1.479c2.313-0.558,4.64-1.156,4.64-2.622   c0-1.016-0.857-1.726-2.083-1.726c-1.083,0-1.936,0.848-2.076,1.661l-0.02,0.014c-0.099,0.346,0.045,0.474,0.153,0.734   c0.108,0.261,0.63-0.173,0.586-0.434c-0.039-0.233,0.119-0.786,0.154-0.9c0.284-0.31,0.703-0.554,1.204-0.554   c0.935,0,1.562,0.484,1.562,1.205c0,1.094-2.349,1.66-4.42,2.159c-0.177,0.043-0.348,0.084-0.519,0.126v-7.282l2.718-2.718   l-2.946-2.946l-2.946,2.946L-24.352,10.075z M-24.352,26.703c-1.012-0.112-1.525-0.303-1.514-0.572   c0.042-0.191,0.875-0.507,1.514-0.735V26.703z M-24.352,24.68c-1.139-0.408-2.465-0.942-2.465-1.602   c0-0.572,1.277-1.089,2.465-1.547V24.68z M-24.352,20.797c-1.186-0.465-2.353-0.99-2.353-1.625c0-0.465,1.131-0.845,2.353-1.164   V20.797z M-23.896,18.008c1.221,0.319,2.353,0.699,2.353,1.164c0,0.635-1.167,1.16-2.353,1.625V18.008z M-23.896,21.532   c1.188,0.458,2.465,0.975,2.465,1.547c0,0.659-1.327,1.193-2.465,1.602V21.532z M-23.896,25.395   c0.639,0.229,1.471,0.543,1.514,0.734c0.012,0.269-0.502,0.461-1.514,0.573V25.395z"/>
	<path d="M-10.192,0.886c-4.75-2.391-9.626-3.603-14.495-3.603c-8.341,0-13.727,3.55-13.953,3.701l-0.692,0.465l-0.691-0.465   c-0.226-0.151-5.611-3.701-13.953-3.701c-4.869,0-9.746,1.212-14.495,3.603l-0.861,0.434v40.696l1.987-0.555   c0.074-0.021,7.483-2.07,15.123-2.07c4.384,0,7.963,0.662,10.641,1.969l2.25,1.098l0,0h0.001l0,0l2.25-1.098   c2.678-1.307,6.257-1.969,10.641-1.969c7.64,0,15.048,2.049,15.122,2.07l1.986,0.555V1.32L-10.192,0.886z M-42.461,34.564   c-2.729-0.91-5.999-1.371-9.762-1.371c-5.708,0-11.157,1.045-13.979,1.691V3.263c4.033-1.892,8.141-2.85,12.226-2.85   c5.734,0,9.93,1.915,11.515,2.769V34.564z M-12.461,34.885c-2.822-0.646-8.271-1.691-13.979-1.691   c-3.763,0-7.033,0.461-9.762,1.371V3.182c1.585-0.853,5.781-2.769,11.515-2.769c4.085,0,8.193,0.958,12.226,2.85V34.885z"/>
	<path d="M-62.818,8.209c0.954-0.453,8.931-3.995,17.033,0.056l0.1-0.201v-2.85c-7.355-3.138-14.264-1.193-17.133-0.082V8.209z"/>
	<path d="M-62.818,12.718v3.077c0.954-0.453,8.931-3.995,17.033,0.056l0.1-0.201V12.8C-53.04,9.661-59.949,11.607-62.818,12.718z"/>
	<path d="M-62.818,20.305v3.076c0.954-0.453,8.931-3.994,17.033,0.057l0.1-0.201v-2.851C-53.04,17.248-59.949,19.194-62.818,20.305z   "/>
	<path d="M-62.818,27.891v3.076c0.954-0.453,8.931-3.994,17.033,0.056l0.1-0.201v-2.851C-53.04,24.833-59.949,26.78-62.818,27.891z"/>
</g>
<g>
	<path d="M30.481,14.935c1.332,0,1.869-0.396,2.084-0.676l0.108-1.266l0.211,1.246c0.132,0.103,0.356,0.188,0.743,0.129   c0.631-0.096,0.801-0.35,0.853-0.523l-0.519-0.871l0.759,0.75c0.665-0.03,1.178-0.201,1.566-0.426l-0.855-0.325l1.154,0.127   c0.616-0.471,0.818-1.031,0.818-1.031h-5.291l-1.632,1.632C30.481,14.218,30.481,14.712,30.481,14.935z"/>
	<path d="M26.701,14.266l0.212-1.246l0.108,1.267c0.215,0.28,0.752,0.676,2.084,0.676c0-0.223,0-0.717,0-1.232l-1.632-1.632h-5.29   c0,0,0.202,0.56,0.818,1.031L24.154,13l-0.854,0.325c0.388,0.225,0.901,0.396,1.566,0.426L25.624,13l-0.519,0.872   c0.052,0.173,0.222,0.426,0.853,0.522C26.345,14.453,26.569,14.369,26.701,14.266z"/>
	<path d="M29.655,13.34v4.854c-0.114-0.027-0.228-0.055-0.345-0.084c-1.381-0.333-2.948-0.71-2.948-1.439   c0-0.48,0.419-0.803,1.042-0.803c0.327,0,0.603,0.156,0.792,0.356c0.006,0.019,0.134,0.443,0.107,0.613   c-0.029,0.173,0.318,0.463,0.39,0.289c0.073-0.173,0.169-0.258,0.103-0.489l-0.006-0.003c-0.091-0.544-0.66-1.113-1.385-1.113   c-0.817,0-1.389,0.474-1.389,1.15c0,0.977,1.552,1.376,3.093,1.748c-0.803,0.238-1.369,0.52-1.369,0.986   c0,0.601,0.719,0.976,1.59,1.327c-0.892,0.349-1.665,0.705-1.665,1.277c0,0.615,0.79,0.993,1.631,1.306   c-0.586,0.217-0.982,0.41-0.996,0.712c-0.014,0.33,0.22,0.537,0.783,0.66c-0.124,0.081-0.237,0.173-0.33,0.291   c-0.469,0.594-0.353,1.447-0.348,1.483l0.343-0.049c-0.001-0.007-0.101-0.74,0.277-1.219c0.149-0.19,0.365-0.31,0.631-0.369v1.612   h0.304v-1.612c0.266,0.059,0.48,0.178,0.629,0.367c0.377,0.477,0.279,1.213,0.278,1.22l0.344,0.049   c0.005-0.036,0.121-0.889-0.348-1.483c-0.093-0.118-0.206-0.209-0.33-0.291c0.563-0.124,0.797-0.331,0.783-0.66   c-0.013-0.302-0.41-0.495-0.996-0.712c0.841-0.313,1.63-0.691,1.63-1.306c0-0.572-0.772-0.928-1.664-1.277   c0.872-0.351,1.59-0.726,1.59-1.327c0-0.467-0.566-0.748-1.369-0.986c1.541-0.372,3.093-0.771,3.093-1.748   c0-0.677-0.571-1.15-1.389-1.15c-0.723,0-1.291,0.565-1.384,1.107l-0.014,0.009c-0.066,0.231,0.03,0.316,0.102,0.489   c0.072,0.174,0.42-0.116,0.391-0.289c-0.025-0.155,0.08-0.524,0.103-0.6c0.189-0.206,0.469-0.369,0.803-0.369   c0.623,0,1.042,0.323,1.042,0.803c0,0.729-1.566,1.106-2.947,1.439c-0.118,0.029-0.232,0.057-0.346,0.084V13.34l1.812-1.812   l-1.964-1.964l-1.964,1.964L29.655,13.34z M29.655,24.425c-0.675-0.075-1.017-0.202-1.01-0.381c0.028-0.127,0.583-0.338,1.01-0.49   V24.425z M29.655,23.077c-0.759-0.272-1.644-0.628-1.644-1.068c0-0.381,0.851-0.726,1.644-1.031V23.077z M29.655,20.488   c-0.791-0.31-1.569-0.66-1.569-1.083c0-0.31,0.754-0.563,1.569-0.776V20.488z M29.958,18.629c0.814,0.213,1.568,0.466,1.568,0.776   c0,0.423-0.778,0.773-1.568,1.083V18.629z M29.958,20.978c0.792,0.305,1.644,0.65,1.644,1.031c0,0.439-0.885,0.795-1.644,1.068   V20.978z M29.958,23.554c0.426,0.152,0.981,0.362,1.009,0.489c0.008,0.18-0.335,0.308-1.009,0.382V23.554z"/>
	<path d="M39.094,7.214c-3.166-1.594-6.417-2.402-9.663-2.402c-5.561,0-9.151,2.367-9.302,2.467l-0.462,0.31l-0.46-0.31   c-0.15-0.101-3.741-2.467-9.302-2.467c-3.246,0-6.497,0.808-9.664,2.402l-0.574,0.289v27.13l1.325-0.37   c0.049-0.014,4.988-1.38,10.082-1.38c2.922,0,5.309,0.441,7.094,1.313l1.499,0.731l0,0h0.001l0,0l1.5-0.731   c1.785-0.871,4.171-1.313,7.094-1.313c5.093,0,10.032,1.366,10.082,1.38l1.324,0.37V7.503L39.094,7.214z M17.582,29.667   c-1.819-0.607-4-0.914-6.508-0.914c-3.805,0-7.438,0.697-9.32,1.128V8.799c2.689-1.261,5.428-1.899,8.151-1.899   c3.823,0,6.62,1.277,7.677,1.846V29.667z M37.581,29.88c-1.881-0.431-5.514-1.128-9.319-1.128c-2.509,0-4.689,0.307-6.508,0.914   V8.745c1.057-0.569,3.854-1.846,7.677-1.846c2.723,0,5.462,0.639,8.15,1.899V29.88z"/>
	<path d="M4.01,12.096c0.636-0.302,5.954-2.664,11.355,0.038L15.433,12v-1.9C10.529,8.007,5.923,9.304,4.01,10.045V12.096z"/>
	<path d="M4.01,15.102v2.051c0.636-0.302,5.954-2.663,11.355,0.038l0.067-0.134v-1.9C10.529,13.064,5.923,14.361,4.01,15.102z"/>
	<path d="M4.01,20.16v2.051c0.636-0.302,5.954-2.663,11.355,0.038l0.067-0.134v-1.9C10.529,18.122,5.923,19.419,4.01,20.16z"/>
	<path d="M4.01,25.218v2.051c0.636-0.302,5.954-2.663,11.355,0.037l0.067-0.134v-1.9C10.529,23.179,5.923,24.477,4.01,25.218z"/>
</g>
<g>
	<path d="M71.11,16.169c0.999,0,1.402-0.296,1.563-0.507l0.081-0.949l0.159,0.935c0.099,0.077,0.267,0.141,0.557,0.097   c0.473-0.072,0.601-0.263,0.639-0.392l-0.389-0.654l0.569,0.563c0.499-0.022,0.883-0.15,1.175-0.319l-0.641-0.244l0.865,0.095   c0.462-0.353,0.614-0.773,0.614-0.773h-3.968l-1.224,1.224C71.11,15.631,71.11,16.001,71.11,16.169z"/>
	<path d="M68.274,15.667l0.159-0.935l0.081,0.95c0.161,0.21,0.564,0.507,1.563,0.507c0-0.168,0-0.538,0-0.925l-1.224-1.224h-3.968   c0,0,0.151,0.42,0.613,0.773l0.865-0.096l-0.641,0.244c0.291,0.168,0.676,0.297,1.175,0.319l0.568-0.563l-0.389,0.654   c0.039,0.129,0.166,0.32,0.64,0.392C68.008,15.807,68.176,15.744,68.274,15.667z"/>
	<path d="M70.49,14.973v3.641c-0.086-0.021-0.171-0.041-0.259-0.063c-1.036-0.25-2.211-0.533-2.211-1.08   c0-0.36,0.314-0.602,0.781-0.602c0.245,0,0.452,0.118,0.593,0.267c0.004,0.014,0.101,0.333,0.08,0.46   c-0.021,0.13,0.239,0.347,0.293,0.217c0.055-0.13,0.127-0.194,0.077-0.367l-0.004-0.002c-0.068-0.408-0.495-0.834-1.038-0.834   c-0.613,0-1.042,0.354-1.042,0.862c0,0.733,1.164,1.032,2.32,1.312c-0.603,0.179-1.027,0.389-1.027,0.739   c0,0.451,0.54,0.732,1.192,0.996c-0.668,0.261-1.248,0.528-1.248,0.958c0,0.461,0.592,0.745,1.223,0.979   c-0.439,0.163-0.737,0.308-0.747,0.534c-0.011,0.247,0.165,0.402,0.587,0.495c-0.092,0.06-0.178,0.129-0.247,0.218   c-0.352,0.446-0.265,1.085-0.261,1.112l0.258-0.037c-0.001-0.005-0.076-0.555,0.207-0.914c0.112-0.143,0.274-0.232,0.474-0.276   v1.209h0.228v-1.209c0.199,0.044,0.359,0.133,0.472,0.275c0.283,0.358,0.21,0.91,0.208,0.915l0.258,0.037   c0.004-0.027,0.091-0.667-0.261-1.112c-0.07-0.088-0.155-0.157-0.248-0.218c0.422-0.093,0.598-0.248,0.587-0.495   c-0.01-0.227-0.307-0.372-0.747-0.534c0.63-0.235,1.223-0.519,1.223-0.979c0-0.429-0.579-0.696-1.249-0.958   c0.654-0.263,1.192-0.544,1.192-0.996c0-0.35-0.424-0.561-1.026-0.739c1.156-0.279,2.32-0.578,2.32-1.312   c0-0.508-0.428-0.862-1.041-0.862c-0.542,0-0.968,0.424-1.038,0.83l-0.011,0.007c-0.049,0.173,0.023,0.237,0.077,0.367   c0.054,0.13,0.314-0.087,0.293-0.217c-0.019-0.116,0.06-0.393,0.077-0.45c0.142-0.154,0.352-0.277,0.602-0.277   c0.467,0,0.781,0.242,0.781,0.602c0,0.547-1.175,0.83-2.21,1.08c-0.088,0.021-0.174,0.042-0.259,0.063v-3.641l1.359-1.359   l-1.474-1.473l-1.473,1.473L70.49,14.973z M70.49,23.287c-0.506-0.056-0.763-0.151-0.757-0.286   c0.021-0.095,0.437-0.253,0.757-0.368V23.287z M70.49,22.275c-0.569-0.204-1.233-0.471-1.233-0.801   c0-0.286,0.638-0.544,1.233-0.773V22.275z M70.49,20.334c-0.593-0.232-1.177-0.495-1.177-0.813c0-0.232,0.565-0.423,1.177-0.582   V20.334z M70.718,18.94c0.61,0.159,1.177,0.35,1.177,0.582c0,0.317-0.584,0.58-1.177,0.813V18.94z M70.718,20.701   c0.594,0.229,1.232,0.487,1.232,0.773c0,0.33-0.663,0.597-1.232,0.801V20.701z M70.718,22.633c0.319,0.114,0.735,0.272,0.757,0.367   c0.006,0.135-0.251,0.23-0.757,0.287V22.633z"/>
	<path d="M77.57,10.378c-2.374-1.196-4.813-1.801-7.247-1.801c-4.171,0-6.863,1.775-6.977,1.851L63,10.66l-0.346-0.233   c-0.113-0.076-2.806-1.851-6.977-1.851c-2.435,0-4.873,0.606-7.247,1.801L48,10.595v20.348l0.993-0.277   c0.037-0.011,3.742-1.035,7.562-1.035c2.192,0,3.981,0.331,5.32,0.984L63,31.164l0,0h0l0,0l1.125-0.549   c1.339-0.653,3.129-0.984,5.32-0.984c3.82,0,7.524,1.024,7.562,1.035L78,30.943V10.595L77.57,10.378z M61.435,27.218   c-1.364-0.455-2.999-0.686-4.881-0.686c-2.854,0-5.579,0.523-6.99,0.846V11.567c2.017-0.946,4.071-1.425,6.113-1.425   c2.867,0,4.965,0.957,5.758,1.384V27.218z M76.435,27.378c-1.411-0.323-4.136-0.846-6.99-0.846c-1.881,0-3.517,0.23-4.881,0.686   V11.526c0.793-0.427,2.891-1.384,5.758-1.384c2.042,0,4.097,0.479,6.113,1.425V27.378z"/>
	<path d="M51.257,14.04c0.477-0.226,4.466-1.998,8.517,0.028l0.05-0.101v-1.425c-3.677-1.569-7.132-0.596-8.566-0.04V14.04z"/>
	<path d="M51.257,16.294v1.539c0.477-0.227,4.466-1.998,8.517,0.028l0.05-0.101v-1.425C56.146,14.766,52.691,15.739,51.257,16.294z"/>
	<path d="M51.257,20.088v1.538c0.477-0.227,4.466-1.997,8.517,0.028l0.05-0.101v-1.425C56.146,18.56,52.691,19.532,51.257,20.088z"/>
	<path d="M51.257,23.881v1.538c0.477-0.226,4.466-1.997,8.517,0.028l0.05-0.101v-1.425C56.146,22.352,52.691,23.325,51.257,23.881z"/>
</g>
<g>
	<path d="M99.407,17.402c0.666,0,0.934-0.197,1.042-0.338l0.054-0.633l0.106,0.623c0.066,0.052,0.178,0.094,0.372,0.065   c0.315-0.048,0.4-0.175,0.426-0.261l-0.259-0.436l0.379,0.375c0.332-0.015,0.589-0.101,0.784-0.213l-0.428-0.163l0.577,0.064   c0.308-0.235,0.409-0.516,0.409-0.516h-2.645l-0.816,0.816C99.407,17.044,99.407,17.291,99.407,17.402z"/>
	<path d="M97.517,17.068l0.106-0.623l0.054,0.633c0.107,0.14,0.376,0.338,1.042,0.338c0-0.112,0-0.359,0-0.617l-0.816-0.816h-2.646   c0,0,0.101,0.28,0.409,0.515l0.577-0.064l-0.427,0.163c0.194,0.112,0.45,0.198,0.783,0.213l0.379-0.376l-0.259,0.436   c0.026,0.086,0.111,0.213,0.426,0.261C97.338,17.162,97.45,17.12,97.517,17.068z"/>
	<path d="M98.993,16.605v2.427c-0.057-0.014-0.114-0.028-0.172-0.042c-0.691-0.167-1.474-0.355-1.474-0.72   c0-0.24,0.21-0.402,0.521-0.402c0.163,0,0.301,0.079,0.396,0.178c0.003,0.009,0.067,0.222,0.053,0.307   c-0.014,0.087,0.159,0.231,0.195,0.145c0.037-0.086,0.084-0.129,0.051-0.245l-0.003-0.002c-0.045-0.272-0.33-0.556-0.692-0.556   c-0.409,0-0.694,0.236-0.694,0.575c0,0.488,0.776,0.688,1.546,0.874c-0.401,0.119-0.685,0.259-0.685,0.493   c0,0.301,0.36,0.488,0.795,0.664c-0.446,0.174-0.832,0.352-0.832,0.638c0,0.307,0.395,0.497,0.815,0.653   c-0.293,0.108-0.491,0.205-0.498,0.356c-0.007,0.165,0.11,0.268,0.391,0.33c-0.062,0.04-0.119,0.086-0.165,0.145   c-0.234,0.297-0.176,0.723-0.174,0.742l0.172-0.025c-0.001-0.003-0.05-0.37,0.138-0.609c0.075-0.095,0.183-0.155,0.315-0.184v0.806   h0.152v-0.806c0.133,0.029,0.24,0.089,0.315,0.184c0.188,0.238,0.14,0.606,0.139,0.61l0.172,0.025   c0.003-0.019,0.061-0.444-0.174-0.742c-0.046-0.059-0.103-0.105-0.165-0.145c0.281-0.062,0.399-0.166,0.391-0.33   c-0.007-0.151-0.205-0.248-0.498-0.356c0.42-0.156,0.815-0.346,0.815-0.653c0-0.286-0.386-0.464-0.832-0.638   c0.436-0.176,0.795-0.363,0.795-0.664c0-0.233-0.283-0.373-0.685-0.493c0.771-0.186,1.547-0.386,1.547-0.874   c0-0.339-0.286-0.575-0.695-0.575c-0.361,0-0.645,0.283-0.692,0.553l-0.007,0.005c-0.033,0.115,0.015,0.158,0.051,0.245   c0.036,0.087,0.21-0.058,0.195-0.145c-0.013-0.078,0.039-0.262,0.051-0.3c0.094-0.103,0.234-0.185,0.401-0.185   c0.312,0,0.521,0.162,0.521,0.402c0,0.364-0.783,0.553-1.474,0.72c-0.059,0.014-0.116,0.028-0.173,0.042v-2.427l0.906-0.906   l-0.982-0.982l-0.982,0.982L98.993,16.605z M98.993,22.148c-0.337-0.038-0.508-0.101-0.504-0.191   c0.014-0.063,0.292-0.169,0.504-0.245V22.148z M98.993,21.474c-0.379-0.136-0.822-0.314-0.822-0.534   c0-0.191,0.426-0.363,0.822-0.516V21.474z M98.993,20.18c-0.395-0.155-0.784-0.33-0.784-0.542c0-0.155,0.377-0.282,0.784-0.388   V20.18z M99.145,19.25c0.407,0.106,0.785,0.233,0.785,0.388c0,0.212-0.389,0.387-0.785,0.542V19.25z M99.145,20.424   c0.396,0.153,0.822,0.325,0.822,0.516c0,0.22-0.442,0.398-0.822,0.534V20.424z M99.145,21.712c0.213,0.076,0.491,0.181,0.505,0.245   c0.004,0.09-0.168,0.153-0.505,0.191V21.712z"/>
	<path d="M103.713,13.542c-1.583-0.797-3.209-1.201-4.832-1.201c-2.78,0-4.576,1.184-4.651,1.234L94,13.73l-0.231-0.155   c-0.075-0.05-1.871-1.234-4.651-1.234c-1.623,0-3.249,0.404-4.832,1.201L84,13.687v13.565l0.662-0.185   c0.025-0.007,2.495-0.69,5.041-0.69c1.462,0,2.654,0.221,3.547,0.656L94,27.399l0,0h0l0,0l0.75-0.366   c0.893-0.436,2.086-0.656,3.547-0.656c2.547,0,5.016,0.683,5.041,0.69L104,27.252V13.687L103.713,13.542z M92.957,24.769   c-0.91-0.303-2-0.457-3.254-0.457c-1.903,0-3.719,0.348-4.66,0.564v-10.54c1.344-0.631,2.713-0.95,4.075-0.95   c1.911,0,3.31,0.639,3.838,0.923V24.769z M102.957,24.875c-0.941-0.216-2.757-0.564-4.66-0.564c-1.254,0-2.344,0.154-3.254,0.457   V14.308c0.528-0.284,1.927-0.923,3.838-0.923c1.362,0,2.731,0.319,4.076,0.95V24.875z"/>
	<path d="M86.171,15.983c0.318-0.151,2.977-1.332,5.677,0.019l0.034-0.067v-0.95c-2.452-1.046-4.754-0.398-5.711-0.027V15.983z"/>
	<path d="M86.171,17.486v1.026c0.318-0.151,2.977-1.332,5.677,0.019l0.034-0.067v-0.95C89.431,16.467,87.128,17.116,86.171,17.486z"/>
	<path d="M86.171,20.016v1.025c0.318-0.151,2.977-1.332,5.677,0.019l0.034-0.067v-0.95C89.431,18.997,87.128,19.645,86.171,20.016z"/>
	<path d="M86.171,22.544v1.025c0.318-0.151,2.977-1.331,5.677,0.019l0.034-0.067v-0.95C89.431,21.525,87.128,22.174,86.171,22.544z"/>
</g>
</svg>