<?xml version="1.0" encoding="utf-8"?>
<!-- Generator: Adobe Illustrator 14.0.0, SVG Export Plug-In . SVG Version: 6.00 Build 43363)  -->
<!DOCTYPE svg PUBLIC "-//W3C//DTD SVG 1.0//EN" "http://www.w3.org/TR/2001/REC-SVG-20010904/DTD/svg10.dtd">
<svg version="1.0" id="Layer_1" xmlns="http://www.w3.org/2000/svg" xmlns:xlink="http://www.w3.org/1999/xlink" x="0px" y="0px"
	 width="99.038px" height="100px" viewBox="0 0 99.038 100" enable-background="new 0 0 99.038 100" xml:space="preserve">
<polygon points="0,52.379 0,76.725 15.315,76.725 22.655,52.379 "/>
<path d="M51.271,38.261c8.256,0,12.744-5.755,12.744-12.854c0-7.096-5.699-12.843-12.744-12.843
	c-7.037,0-12.744,5.747-12.744,12.843C38.526,32.506,44.234,38.261,51.271,38.261z"/>
<path d="M44.226,57.81c-3.703,0-6.699,3.017-6.699,6.748c0,3.723,2.996,6.751,6.699,6.751c3.697,0,6.689-3.028,6.689-6.751
	C50.915,60.827,47.923,57.81,44.226,57.81z"/>
<path d="M59.583,57.81c-3.7,0-6.696,3.017-6.696,6.748c0,3.723,2.996,6.751,6.696,6.751s6.691-3.028,6.691-6.751
	C66.275,60.827,63.284,57.81,59.583,57.81z"/>
<path d="M68.218,57.634c-0.345,0.958-0.436,2.166,0.231,4.514l4.124,14.577h18.27v23.142h8.195V0h-8.195v52.379H70.899
	L68.218,57.634z"/>
<polygon points="31.422,60.475 26.771,76.725 31.267,76.725 35.804,60.475 "/>
<g>
	<polygon points="24.689,99.867 79.136,99.867 72.573,76.725 31.229,76.725 	"/>
</g>
<path d="M83.938,26.14L78.579,4.304c-0.726-2.956-3.695-4.762-6.619-4.029c-2.936,0.733-4.723,3.719-4,6.675l4.836,19.697
	L64.31,41.641H39.443c-8.88,0-14.933,6.332-16.516,9.986l-0.272,0.752h48.244L83.382,30.2C84.075,28.97,84.276,27.515,83.938,26.14z
	"/>
<path d="M15.884,100c-0.508,0-1.023-0.072-1.535-0.217c-2.9-0.855-4.563-3.915-3.722-6.84l4.688-16.218h11.456l-5.642,19.304
	C20.436,98.438,18.25,100,15.884,100L15.884,100z"/>
</svg>
