<svg xmlns="http://www.w3.org/2000/svg" xmlns:xlink="http://www.w3.org/1999/xlink" version="1.1" id="Ebene_1" x="0px" y="0px" width="100px" height="100px" viewBox="0 0 100 100" enable-background="new 0 0 100 100" xml:space="preserve">
<g>
	<g>
		<path d="M-319.098,26.82h-45.395c-1.204,0-2.18-0.976-2.18-2.181c0-1.204,0.976-2.18,2.18-2.18h45.395    c1.206,0,2.181,0.976,2.181,2.18C-316.917,25.844-317.892,26.82-319.098,26.82z"/>
	</g>
	<g>
		<path d="M-341.795,26.821c-0.964,0-1.844-0.642-2.105-1.617l-2.748-10.269l-25.243-16.382c-1.009-0.656-1.297-2.006-0.642-3.016    c0.657-1.011,2.006-1.299,3.016-0.643l26.647,17.294l3.182,11.888c0.311,1.163-0.379,2.358-1.542,2.669    C-341.419,26.798-341.609,26.821-341.795,26.821z"/>
	</g>
	<g>
		<path d="M-330.314,93.238h-23.232c-1.031,0-1.922-0.723-2.134-1.734l-12.539-59.686c-0.135-0.643,0.027-1.312,0.441-1.823    c0.414-0.509,1.037-0.806,1.693-0.806h48.313c0.658,0,1.279,0.296,1.693,0.806c0.414,0.511,0.576,1.18,0.44,1.823l-12.539,59.686    C-328.391,92.516-329.281,93.238-330.314,93.238z M-351.777,88.877h19.694l11.622-55.327H-363.4L-351.777,88.877z"/>
	</g>
</g>
<g>
	<g>
		<path d="M-196.107,25.903c-5.819,0-10.557-4.739-10.557-10.565c0-5.821,4.737-10.557,10.557-10.557    c5.826,0,10.565,4.736,10.565,10.557C-185.542,21.164-190.281,25.903-196.107,25.903z M-196.107,9.142    c-3.414,0-6.195,2.779-6.195,6.196c0,3.42,2.781,6.204,6.195,6.204c3.422,0,6.206-2.784,6.206-6.204    C-189.901,11.921-192.686,9.142-196.107,9.142z"/>
	</g>
	<g>
		<path d="M-232.998,77.729l-0.179-0.004c-0.589-0.037-14.458-0.881-18.642-1.219c-2.396-0.191-8.758-0.701-8.758-6.082    c0-1.285,0.551-5.506,7.6-5.922c3.706-0.215,12.988-0.854,16.113-1.068l6.996-10.117l3.589,2.48l-8.19,11.842l-1.046,0.074    c-0.128,0.008-12.718,0.883-17.205,1.145c-0.582,0.033-3.494,0.27-3.494,1.566c0,0.336,0,1.355,4.743,1.736    c3.984,0.318,17.354,1.139,18.484,1.207c1.076-0.021,2.096-0.633,2.782-1.645l7.427-10.605l3.572,2.5l-7.407,10.58    C-228.102,76.398-230.498,77.729-232.998,77.729z"/>
	</g>
	<g>
		<path d="M-214.406,98.463L-214.406,98.463c-0.648,0-1.287-0.129-1.897-0.387c-1.95-0.828-4.642-3.582-0.824-12.742l6.012-14.844    l-14.726-9.76c-5.965-5.08-4.332-10.031-1.679-14.626l0.079-0.127l9.468-14.069l-4.433-0.966l-11.926,6.332    c-1.045,0.623-2.853,1.332-4.605,1.332c-2.08,0-3.081-1.026-3.49-1.637c-1.725-2.544-0.731-5.461,2.959-8.663l0.098-0.08    l12.197-9.414c1.431-0.963,3.221-1.313,4.928-0.959l14.719,3.199c0.982,0.215,1.884,0.658,2.682,1.318l7.25,4.867    c2.605,1.759,1.488,6.322,0.44,7.883l-11.938,19.12l11.135,7.631c2.893,1.986,3.954,5.75,2.528,8.945l-0.061,0.121l-10.173,19.441    C-208.674,95.904-211.448,98.463-214.406,98.463z M-214.535,94.084c0.057,0.018,0.098,0.02,0.129,0.02    c0.18,0,1.834-0.162,4.897-5.781l10.12-19.34c0.533-1.264,0.102-2.734-1.037-3.518l-14.577-9.992l14.188-22.725    c0.299-0.446,0.519-1.557,0.465-2.109l-7.23-4.873c-0.272-0.233-0.568-0.387-0.877-0.455l-14.693-3.194    c-0.459-0.094-1.083-0.009-1.535,0.278l-11.973,9.243c-1.54,1.345-2.068,2.179-2.17,2.603c0.671-0.032,1.652-0.34,2.289-0.728    l0.109-0.064l13.392-7.109l12.27,2.674l-13.014,19.334c-2.37,4.122-2.626,6.13,0.671,8.978l17.377,11.494l-7.357,18.172    C-215.225,92.107-214.654,93.822-214.535,94.084z"/>
	</g>
	<g>
		<path d="M-195.881,53.355l-0.152-0.02c-2.436-0.293-4.355-2.283-5.178-4.126l-3.266-7.835l4.025-1.678l3.244,7.785    c0.302,0.678,1.029,1.367,1.59,1.506c1.453-0.031,10.313-0.23,12.843-0.369c2.985-0.162,3.993-0.643,4.278-0.832    c-0.035-0.398-0.402-0.656-3.269-0.865l-11.711-0.992l-6.681-15.143l3.99-1.76l5.637,12.775l9.105,0.773    c2.598,0.189,7.477,0.547,7.287,5.562c-0.158,4.39-6.361,4.724-8.4,4.835c-2.814,0.156-12.768,0.369-13.188,0.379L-195.881,53.355    z"/>
	</g>
</g>
<g>
	<path d="M232.954-61.153c-1.051,0-1.953-0.748-2.145-1.783l-8.857-48.017l-4.24,14.112c-0.277,0.922-1.127,1.555-2.088,1.555   h-25.979v-4.361h24.355l6.371-21.203c0.291-0.964,1.199-1.598,2.207-1.55c1.006,0.055,1.844,0.792,2.025,1.782l8.068,43.748   l10.869-76.531c0.154-1.065,1.057-1.861,2.135-1.874c1.08,0.007,1.998,0.76,2.176,1.821l10.711,64.088l6.189-9.309   c0.404-0.607,1.086-0.973,1.816-0.973h21.275v4.361h-20.109l-8.596,12.932c-0.494,0.748-1.395,1.111-2.271,0.926   c-0.873-0.188-1.547-0.891-1.695-1.771l-9.297-55.621l-10.764,75.794c-0.15,1.061-1.047,1.852-2.113,1.873   C232.983-61.153,232.968-61.153,232.954-61.153z"/>
</g>
<g>
	<g>
		<g>
			<path d="M120.452-80.878c-0.146,0-0.293-0.002-0.439-0.004c-0.145,0.002-0.287,0.004-0.432,0.004v-0.012     c-12.047-0.303-20.336-6.9-22.254-17.779c-1.508-8.551,1.68-17.246,7.213-20.367c0-12.72,0.023-33.853,0.148-42.868     c0.168-12.037,9.824-15.217,14.906-15.217c0.109-0.003,13.551,0.044,13.969,16.309c0.191,7.462,0.131,17.302,0.064,27.719     c-0.027,4.653-0.059,9.343-0.063,13.825c6.057,3.221,9.643,12.334,8.111,21.285c-1.791,10.449-9.693,16.791-21.225,17.094     V-80.878z M119.599-172.761c-1.061,0.009-10.4,0.391-10.551,10.918c-0.129,9.324-0.148,31.692-0.148,44.193v1.527l-1.434,0.521     c-4.354,1.586-7.084,9.141-5.844,16.172c0.744,4.223,4.025,13.99,18.389,14.186c13.615-0.191,16.678-9.467,17.367-13.477     c1.264-7.389-1.875-15.367-6.721-17.076l-1.455-0.512v-1.545c0-4.918,0.033-10.113,0.064-15.269     c0.066-10.381,0.127-20.187-0.063-27.58C128.901-172.386,120.55-172.757,119.599-172.761z"/>
		</g>
	</g>
	<g>
		<path d="M119.563-89.978c-6.76,0-12.26-5.5-12.26-12.26c0-6.762,5.5-12.262,12.26-12.262c6.764,0,12.264,5.5,12.264,12.262    C131.827-95.478,126.327-89.978,119.563-89.978z M119.563-110.138c-4.354,0-7.898,3.543-7.898,7.9    c0,4.355,3.545,7.898,7.898,7.898c4.357,0,7.902-3.543,7.902-7.898C127.466-106.595,123.921-110.138,119.563-110.138z"/>
	</g>
	<g>
		<path d="M119.563-110.138c-1.203,0-2.178-0.977-2.178-2.182v-43.15c0-1.205,0.975-2.181,2.178-2.181    c1.207,0,2.182,0.976,2.182,2.181v43.15C121.745-111.114,120.771-110.138,119.563-110.138z"/>
	</g>
	<g>
		<path d="M96.356-161.772h-7.129c-1.207,0-2.182-0.976-2.182-2.181s0.975-2.181,2.182-2.181h7.129c1.205,0,2.18,0.976,2.18,2.181    S97.562-161.772,96.356-161.772z"/>
	</g>
	<g>
		<path d="M96.356-142.225h-7.129c-1.207,0-2.182-0.976-2.182-2.181c0-1.204,0.975-2.18,2.182-2.18h7.129    c1.205,0,2.18,0.976,2.18,2.18C98.536-143.201,97.562-142.225,96.356-142.225z"/>
	</g>
	<g>
		<path d="M96.356-122.679h-7.129c-1.207,0-2.182-0.975-2.182-2.18s0.975-2.182,2.182-2.182h7.129c1.205,0,2.18,0.977,2.18,2.182    S97.562-122.679,96.356-122.679z"/>
	</g>
</g>
<g>
	<path d="M620.323,82.049c-0.756,0-1.48-0.33-1.979-0.908l-25.203-29.166c-0.945-1.093-0.824-2.744,0.27-3.691   c1.092-0.943,2.746-0.824,3.691,0.27l22.84,26.435l36.307-60.349c0.744-1.238,2.352-1.636,3.59-0.894   c1.238,0.745,1.639,2.353,0.893,3.591l-38.166,63.443c-0.432,0.721-1.184,1.188-2.018,1.258   C620.474,82.045,620.397,82.049,620.323,82.049z"/>
</g>
<g>
	<g>
		<path d="M38.009,70.197l-1.594-0.428c-2.928-0.785-6.068-1.305-9.334-1.543c-3.246-0.236-6.48-0.18-9.457,0.166l-1.643,0.193    l-0.627-1.527c-2.041-4.951-2.906-11.209-2.438-17.614C13.974,34.996,21.15,24.1,29.607,24.1c0.234,0,0.469,0.008,0.703,0.026    c8.664,0.634,14.604,12.749,13.516,27.58c-0.467,6.407-2.234,12.47-4.973,17.071L38.009,70.197z M23.164,63.721    c1.395,0,2.82,0.053,4.236,0.156c2.932,0.215,5.775,0.639,8.48,1.264c1.957-3.838,3.225-8.654,3.598-13.753    c0.877-11.979-3.467-22.471-9.486-22.913c-0.129-0.01-0.256-0.014-0.385-0.014c-5.205,0-11.406,8.559-12.338,21.299    c-0.373,5.101,0.176,10.05,1.555,14.134C20.238,63.777,21.693,63.721,23.164,63.721z"/>
	</g>
	<g>
		<path d="M28.005,99c-6.33,0-11.555-8.129-11.895-18.506c-0.033-0.988-0.018-1.977,0.041-2.941l0.117-1.984l22.414-0.73    l0.246,1.975c0.123,0.977,0.201,1.961,0.234,2.926c0.344,10.588-4.447,19.047-10.912,19.258L28.005,99z M20.457,79.795    c0.002,0.188,0.006,0.373,0.014,0.559c0.275,8.418,4.193,14.285,7.535,14.285l0.105-0.002c3.391-0.109,6.973-6.197,6.693-14.754    c-0.008-0.186-0.014-0.369-0.025-0.555L20.457,79.795z"/>
	</g>
	<g>
		<path d="M61.992,47.905l-0.844-1.418c-2.74-4.604-4.506-10.666-4.975-17.071C55.086,14.584,61.025,2.468,69.689,1.833    c0.236-0.017,0.469-0.025,0.701-0.025c8.461,0,15.637,10.896,16.693,25.344c0.467,6.411-0.398,12.667-2.438,17.615l-0.627,1.525    l-1.639-0.19c-2.986-0.347-6.219-0.405-9.459-0.168c-3.27,0.239-6.412,0.758-9.334,1.544L61.992,47.905z M70.391,6.168    c-0.127,0-0.254,0.004-0.381,0.014c-6.021,0.441-10.363,10.935-9.486,22.914c0.373,5.099,1.639,9.915,3.598,13.753    c2.703-0.626,5.547-1.05,8.48-1.264c2.91-0.213,5.816-0.208,8.574,0.017c1.379-4.08,1.932-9.03,1.559-14.133    C81.803,14.728,75.602,6.168,70.391,6.168z"/>
	</g>
	<g>
		<path d="M71.994,76.709l-0.246-0.004c-6.463-0.213-11.254-8.672-10.908-19.259c0.031-0.977,0.109-1.961,0.23-2.926l0.246-1.975    l22.422,0.732l0.115,1.99c0.057,0.982,0.068,1.969,0.039,2.93C83.551,68.578,78.324,76.709,71.994,76.709z M65.223,57.036    c-0.01,0.186-0.018,0.369-0.023,0.555c-0.281,8.556,3.303,14.644,6.693,14.755l0.102,0.002c3.346,0,7.264-5.867,7.539-14.29    c0.006-0.184,0.01-0.367,0.012-0.553L65.223,57.036z"/>
	</g>
</g>
<g>
	<g>
		
			<rect x="-463.441" y="-197.833" transform="matrix(0.7071 0.7071 -0.7071 0.7071 -249.0146 278.6148)" width="5.231" height="73.106"/>
	</g>
	<g>
		<path d="M-476.229-121.305c-0.668,0-1.34-0.256-1.848-0.766l-21.682-21.68c-1.021-1.023-1.021-2.678,0-3.701    c1.023-1.021,2.68-1.021,3.701,0l21.68,21.68c1.021,1.023,1.021,2.68,0,3.703C-474.89-121.561-475.558-121.305-476.229-121.305z"/>
	</g>
	<g>
		<path d="M-488.331-122.574c-0.555,0-1.115-0.213-1.539-0.639l-8.148-8.148c-0.852-0.85-0.852-2.232,0-3.084    c0.854-0.85,2.234-0.852,3.084,0l8.146,8.148c0.852,0.852,0.852,2.23,0,3.084C-487.212-122.787-487.772-122.574-488.331-122.574z"/>
	</g>
	<g>
		<path d="M-425.679-172.576c-0.668,0-1.336-0.256-1.848-0.767l-21.68-21.679c-1.021-1.021-1.021-2.678,0-3.701    c1.021-1.021,2.678-1.021,3.701,0.001l21.678,21.679c1.023,1.022,1.023,2.679,0,3.701    C-424.339-172.832-425.007-172.576-425.679-172.576z"/>
	</g>
	<g>
		<path d="M-496.905-121.484c-0.668,0-1.338-0.254-1.85-0.766c-1.021-1.02-1.021-2.678,0-3.699l4.068-4.068    c1.021-1.021,2.678-1.021,3.701,0.002c1.021,1.02,1.021,2.678,0,3.699l-4.068,4.068    C-495.565-121.738-496.235-121.484-496.905-121.484z"/>
	</g>
	<g>
		<path d="M-426.431-185.016c-0.559,0-1.117-0.213-1.543-0.639l-8.146-8.147c-0.852-0.851-0.852-2.231,0-3.083    c0.852-0.851,2.232-0.852,3.084,0l8.146,8.148c0.852,0.851,0.852,2.232,0,3.083C-425.315-185.229-425.874-185.016-426.431-185.016    z"/>
	</g>
	<g>
		<path d="M-430.071-189.316c-0.67,0-1.338-0.255-1.85-0.766c-1.021-1.021-1.021-2.679,0-3.701l4.068-4.067    c1.021-1.021,2.678-1.021,3.699,0c1.023,1.021,1.023,2.678,0,3.7l-4.068,4.068C-428.731-189.572-429.401-189.316-430.071-189.316z    "/>
	</g>
</g>
<g>
	<g>
		<g>
			<path d="M-14.792-107.219H-50.1c-0.58,0-1.139-0.23-1.549-0.645c-0.408-0.412-0.637-0.973-0.633-1.553     c0.006-0.355,0.316-35.621,0-56.268c-0.105-6.969,1.48-12.165,4.709-15.442c3.09-3.136,6.949-3.794,9.643-3.794     c2.078,0,3.557,0.386,3.719,0.43c0.951,0.257,1.611,1.119,1.611,2.104c0,10.667,7.635,19.63,18.152,21.311     c1.059,0.168,1.836,1.082,1.836,2.153v49.523C-12.612-108.193-13.586-107.219-14.792-107.219z M-47.903-111.578h30.932v-45.551     c-11.088-2.583-19.125-12.018-19.926-23.387c-1.861-0.156-5.129-0.025-7.568,2.45c-2.379,2.415-3.541,6.559-3.453,12.316     C-47.649-148.046-47.84-119.648-47.903-111.578z"/>
		</g>
		<g>
			<path d="M28.453-107.219H-6.856c-1.205,0-2.18-0.975-2.18-2.18v-49.523c0-1.072,0.779-1.985,1.836-2.153     c10.518-1.681,18.154-10.644,18.154-21.311c0-1.084,0.795-2.003,1.867-2.159c0.252-0.036,7.607-1.051,12.873,4.221     c3.285,3.289,4.947,8.205,4.938,14.61c-0.025,18.874,0,56.313,0,56.315c0,0.578-0.23,1.133-0.639,1.543     C29.583-107.447,29.031-107.219,28.453-107.219z M-4.676-111.578h30.945c-0.004-8.266-0.02-37.993,0.002-54.142     c0.006-5.206-1.225-9.083-3.662-11.522c-2.363-2.365-5.424-2.934-7.379-3.027c-0.898,11.259-8.898,20.576-19.906,23.14V-111.578z     "/>
		</g>
		<g>
			<path d="M-10.622-163.537c-10.971,0-19.896-8.925-19.896-19.896s8.926-19.897,19.896-19.897c10.973,0,19.896,8.926,19.896,19.897     S0.351-163.537-10.622-163.537z M-10.622-198.969c-8.566,0-15.535,6.97-15.535,15.536c0,8.565,6.969,15.535,15.535,15.535     c8.568,0,15.537-6.97,15.537-15.535C4.916-191.999-2.053-198.969-10.622-198.969z"/>
		</g>
	</g>
	<g>
		<rect x="-12.801" y="-201.15" width="4.361" height="5.359"/>
	</g>
	<g>
		<rect x="1.736" y="-185.613" width="5.361" height="4.361"/>
	</g>
	<g>
		<rect x="-28.334" y="-185.613" width="5.357" height="4.361"/>
	</g>
	<g>
		<path d="M-10.397-181.495l2.318-2.492c0,0-9.824-8.59-10.707-7.646C-19.618-190.737-10.397-181.495-10.397-181.495"/>
	</g>
	<g>
		<circle cx="-10.206" cy="-183.55" r="3.027"/>
	</g>
</g>
<g>
	<g>
		<g>
			<path d="M-239.82-147.275c1.264-0.672,2.584-1.252,3.953-1.734c-0.049-0.201-0.115-0.393-0.17-0.593     c-1.332,0.661-2.602,1.435-3.787,2.313C-239.822-147.284-239.822-147.279-239.82-147.275z"/>
		</g>
		<g>
			<path d="M-252.332-113.906c-2.879,3.195-6.596,7.146-7.973,8.729c-0.041,0.041-0.172,0.135-0.287,0.207     c-0.02-0.057-0.178-0.182-0.273-0.281c-7.75-8.922-20.846-23.979-20.846-37.759c0-11.667,9.496-21.161,21.158-21.161     c8.367,0,15.605,4.881,19.039,11.94c1.18-0.777,2.416-1.472,3.703-2.079c-4.154-8.384-12.773-14.093-22.742-14.093     c-14.002,0-25.389,11.248-25.389,25.393c0,14.809,12.699,29.96,21.953,40.609c0.031,0.043,1.518,1.705,3.355,1.705h0.164     c1.836,0,3.322-1.662,3.355-1.705c1.094-1.256,4.148-4.49,6.602-7.158C-251.182-111-251.793-112.447-252.332-113.906z"/>
		</g>
	</g>
	<g>
		<path d="M-225.953-153.379c-14.002,0-25.389,11.247-25.389,25.392c0,14.81,12.697,29.962,21.955,40.61    c0.033,0.041,1.516,1.701,3.355,1.701h0.162c1.834,0,3.322-1.66,3.357-1.701c9.26-10.648,21.955-25.797,21.955-40.61    C-200.557-142.132-211.945-153.379-225.953-153.379 M-225.705-90.152c-0.043,0.039-0.174,0.135-0.285,0.205    c-0.023-0.057-0.176-0.182-0.273-0.281c-7.752-8.924-20.846-23.98-20.846-37.759c0-11.666,9.494-21.162,21.156-21.162    c11.672,0,21.166,9.496,21.166,21.166C-204.787-114.209-217.881-99.152-225.705-90.152"/>
	</g>
</g>
<g>
	<g>
		<path d="M-341.928-140.125c-7.568,0-13.727-6.156-13.727-13.725c0-7.57,6.158-13.729,13.727-13.729    c7.57,0,13.728,6.159,13.728,13.729C-328.2-146.281-334.358-140.125-341.928-140.125z M-341.928-163.217    c-5.164,0-9.365,4.203-9.365,9.368c0,5.164,4.201,9.364,9.365,9.364c5.164,0,9.369-4.201,9.369-9.364    C-332.56-159.015-336.765-163.217-341.928-163.217z"/>
	</g>
	<g>
		<path d="M-308.987-153.85c0,9.081-3.695,17.316-9.658,23.28l3.326,3.326c6.816-6.816,11.037-16.228,11.037-26.606    c0-10.38-4.221-19.793-11.037-26.607l-3.326,3.325C-312.683-171.168-308.987-162.932-308.987-153.85"/>
	</g>
	<g>
		<path d="M-374.868-153.85c0-9.082,3.691-17.318,9.658-23.282l-3.326-3.325c-6.816,6.814-11.041,16.228-11.041,26.607    c0,10.379,4.225,19.79,11.041,26.606l3.326-3.326C-371.176-136.533-374.868-144.769-374.868-153.85"/>
	</g>
	<g>
		<path d="M-320.753-153.85c0,5.838-2.375,11.133-6.207,14.965l3.324,3.327c4.688-4.685,7.59-11.158,7.59-18.292    c0-7.137-2.902-13.607-7.59-18.292l-3.324,3.325C-323.128-164.983-320.753-159.689-320.753-153.85"/>
	</g>
	<g>
		<path d="M-363.104-153.85c0-5.84,2.375-11.134,6.209-14.967l-3.326-3.325c-4.686,4.686-7.59,11.155-7.59,18.292    c0,7.134,2.904,13.607,7.59,18.292l3.326-3.327C-360.729-142.717-363.104-148.012-363.104-153.85"/>
	</g>
	<g>
		<path d="M-341.928-100.794c-1.205,0-2.18-0.977-2.18-2.182v-37.325c0-1.203,0.975-2.18,2.18-2.18c1.203,0,2.181,0.977,2.181,2.18    v37.325C-339.747-101.771-340.726-100.794-341.928-100.794z"/>
	</g>
</g>
<g>
	<g>
		<path d="M-103.811-114.615h-52.021c-1.203,0-2.182-0.979-2.182-2.182v-52.021c0-1.205,0.979-2.181,2.182-2.181h52.021    c1.207,0,2.182,0.976,2.182,2.181v52.021C-101.629-115.594-102.604-114.615-103.811-114.615z M-153.65-118.979h47.66v-47.659    h-47.66V-118.979z"/>
	</g>
	<g>
		<path d="M-117.254-128.063h-25.131c-1.205,0-2.182-0.977-2.182-2.18v-25.128c0-1.205,0.977-2.181,2.182-2.181h25.131    c1.203,0,2.18,0.976,2.18,2.181v25.128C-115.074-129.039-116.051-128.063-117.254-128.063z M-140.207-132.424h20.771v-20.766    h-20.771V-132.424z"/>
	</g>
	<g>
		<path d="M-147.41-176.691c-1.205,0-2.182-0.976-2.182-2.181v-10.051c0-1.205,0.977-2.181,2.182-2.181    c1.203,0,2.18,0.976,2.18,2.181v10.051C-145.23-177.667-146.207-176.691-147.41-176.691z"/>
	</g>
	<g>
		<path d="M-129.82-176.691c-1.205,0-2.18-0.976-2.18-2.181v-10.051c0-1.205,0.975-2.181,2.18-2.181    c1.203,0,2.182,0.976,2.182,2.181v10.051C-127.639-177.667-128.617-176.691-129.82-176.691z"/>
	</g>
	<g>
		<path d="M-112.229-176.691c-1.203,0-2.18-0.976-2.18-2.181v-10.051c0-1.205,0.977-2.181,2.18-2.181c1.205,0,2.18,0.976,2.18,2.181    v10.051C-110.049-177.667-111.023-176.691-112.229-176.691z"/>
	</g>
	<g>
		<path d="M-147.41-93.346c-1.205,0-2.182-0.977-2.182-2.182v-10.051c0-1.203,0.977-2.18,2.182-2.18c1.203,0,2.18,0.977,2.18,2.18    v10.051C-145.23-94.322-146.207-93.346-147.41-93.346z"/>
	</g>
	<g>
		<path d="M-129.82-93.346c-1.205,0-2.18-0.977-2.18-2.182v-10.051c0-1.203,0.975-2.18,2.18-2.18c1.203,0,2.182,0.977,2.182,2.18    v10.051C-127.639-94.322-128.617-93.346-129.82-93.346z"/>
	</g>
	<g>
		<path d="M-112.229-93.346c-1.203,0-2.18-0.977-2.18-2.182v-10.051c0-1.203,0.977-2.18,2.18-2.18c1.205,0,2.18,0.977,2.18,2.18    v10.051C-110.049-94.322-111.023-93.346-112.229-93.346z"/>
	</g>
	<g>
		<path d="M-82.826-158.217h-10.049c-1.203,0-2.182-0.976-2.182-2.18c0-1.205,0.979-2.181,2.182-2.181h10.049    c1.207,0,2.182,0.976,2.182,2.181C-80.645-159.193-81.619-158.217-82.826-158.217z"/>
	</g>
	<g>
		<path d="M-82.826-140.625h-10.049c-1.203,0-2.182-0.977-2.182-2.182c0-1.203,0.979-2.18,2.182-2.18h10.049    c1.207,0,2.182,0.977,2.182,2.18C-80.645-141.602-81.619-140.625-82.826-140.625z"/>
	</g>
	<g>
		<path d="M-82.826-123.037h-10.049c-1.203,0-2.182-0.977-2.182-2.182c0-1.203,0.979-2.18,2.182-2.18h10.049    c1.207,0,2.182,0.977,2.182,2.18C-80.645-124.014-81.619-123.037-82.826-123.037z"/>
	</g>
	<g>
		<path d="M-166.385-158.217h-10.049c-1.205,0-2.182-0.976-2.182-2.18c0-1.205,0.977-2.181,2.182-2.181h10.049    c1.205,0,2.182,0.976,2.182,2.181C-164.203-159.193-165.18-158.217-166.385-158.217z"/>
	</g>
	<g>
		<path d="M-166.385-140.625h-10.049c-1.205,0-2.182-0.977-2.182-2.182c0-1.203,0.977-2.18,2.182-2.18h10.049    c1.205,0,2.182,0.977,2.182,2.18C-164.203-141.602-165.18-140.625-166.385-140.625z"/>
	</g>
	<g>
		<path d="M-166.385-123.037h-10.049c-1.205,0-2.182-0.977-2.182-2.182c0-1.203,0.977-2.18,2.182-2.18h10.049    c1.205,0,2.182,0.977,2.182,2.18C-164.203-124.014-165.18-123.037-166.385-123.037z"/>
	</g>
</g>
<g>
	<g>
		<g>
			<path d="M422.225-82.114l-11.965-6.898c-1.045-0.602-1.402-1.936-0.801-2.979c0.602-1.045,1.936-1.4,2.979-0.801l8.322,4.799     c3.803-6.59,5.803-14.063,5.803-21.736c0-24.019-19.541-43.56-43.561-43.56c-14.996,0-28.754,7.568-36.799,20.246     c-4.422,6.964-6.76,15.025-6.76,23.314c0,7.668,1.998,15.143,5.799,21.736l8.713-4.264c1.084-0.529,2.389-0.082,2.916,1     c0.531,1.082,0.082,2.387-0.998,2.916l-12.252,5.996l-1.047-1.641c-4.9-7.691-7.494-16.594-7.494-25.744     c0-9.117,2.574-17.987,7.441-25.652c8.85-13.944,23.984-22.269,40.48-22.269c26.426,0,47.922,21.498,47.922,47.921     c0,9.209-2.621,18.154-7.576,25.867L422.225-82.114z"/>
		</g>
		<g>
			<path d="M411.855-126.076c-0.771,0-1.523-0.412-1.918-1.141c-0.574-1.058-0.184-2.381,0.877-2.956l9.145-4.964     c1.059-0.574,2.383-0.184,2.959,0.875c0.572,1.059,0.18,2.382-0.877,2.957l-9.148,4.964     C412.563-126.161,412.207-126.076,411.855-126.076z"/>
		</g>
		<g>
			<path d="M383.002-141.239c-1.205,0-2.18-0.976-2.18-2.18v-12.051c0-1.204,0.975-2.18,2.18-2.18s2.182,0.976,2.182,2.18v12.051     C385.184-142.215,384.207-141.239,383.002-141.239z"/>
		</g>
		<g>
			<path d="M353.955-126.076c-0.393,0-0.789-0.105-1.146-0.328l-9.598-5.956c-1.021-0.634-1.338-1.979-0.701-3.001     c0.635-1.024,1.979-1.339,3.002-0.704l9.596,5.956c1.021,0.635,1.34,1.98,0.703,3.003     C355.396-126.442,354.684-126.076,353.955-126.076z"/>
		</g>
	</g>
	<g>
		<path d="M398.422-80.842h-29.248c-1.203,0-2.182-0.977-2.182-2.182s0.979-2.18,2.182-2.18h29.248c1.205,0,2.18,0.975,2.18,2.18    S399.627-80.842,398.422-80.842z"/>
	</g>
	<path d="M383-120.205c-4.711,0-8.531,3.819-8.531,8.53c0,4.713,3.82,8.533,8.531,8.533c4.713,0,8.533-3.82,8.533-8.533   C391.533-116.385,387.713-120.205,383-120.205z M383-107.25c-2.441,0-4.422-1.979-4.422-4.424c0-2.441,1.98-4.424,4.422-4.424   c2.447,0,4.426,1.982,4.426,4.424C387.426-109.229,385.447-107.25,383-107.25z"/>
	<g>
		<path d="M381.193-115.704c-1.262,0.014-2.018,0.029-2.018,0.029l0.092,1.646C379.73-114.76,380.396-115.344,381.193-115.704z"/>
		<path d="M384.758-115.731c1.568,0.682,2.668,2.24,2.668,4.059c0,2.445-1.98,4.424-4.426,4.424c-1.402,0-2.637-0.666-3.447-1.684    l0.16,2.889c0,0,36.846-3.219,36.643-6.873C416.211-115.53,395.098-115.77,384.758-115.731z"/>
	</g>
</g>
<g>
	<g>
		<path d="M-81.234,22.184c-0.002,0-0.002,0-0.002,0c-4.431,0-8.421-2.8-9.932-6.968c-1.984-5.473,0.857-11.539,6.327-13.523    c1.165-0.42,2.375-0.635,3.603-0.635c4.431,0,8.421,2.798,9.929,6.961c1.985,5.476-0.856,11.547-6.331,13.532    C-78.801,21.971-80.011,22.184-81.234,22.184z M-81.238,5.418c-0.719,0-1.43,0.125-2.114,0.375    c-3.214,1.165-4.879,4.725-3.714,7.937c0.887,2.448,3.23,4.094,5.83,4.094h0.002c0.715,0,1.426-0.125,2.107-0.373    c3.217-1.165,4.884-4.729,3.719-7.945C-76.295,7.061-78.637,5.418-81.238,5.418z"/>
	</g>
	<g>
		<path d="M-105.995,98.473c-0.714,0-1.426-0.195-2.103-0.58c-5.272-3.002-2.69-7.693-1.304-10.213    c0.391-0.707,0.757-1.375,0.999-1.973c1.933-4.781,4.72-13.234,4.98-14.033l3.381-12.846l4.217,1.109l-3.432,13.033    c-0.123,0.375-3.027,9.238-5.102,14.373c-0.342,0.836-0.788,1.652-1.224,2.441c-1.868,3.393-1.549,3.639-0.409,4.289    c0.964-0.57,2.957-4.137,3.934-5.887c4.198-7.516,4.668-8.379,4.686-8.412l0.428-0.74c1.426-2.717,1.856-3.707,2.814-6.314    l1.527-4.033l4.076,1.545l-1.518,4.012c-1.109,3.02-1.592,4.084-3.439,7.57l-0.393,0.744l-0.064,0.023    c-0.521,0.941-1.695,3.055-4.31,7.734c-2.521,4.516-4.195,7.318-6.672,8.008C-105.274,98.422-105.635,98.473-105.995,98.473z"/>
	</g>
	<g>
		<path d="M-78.098,98.238c-0.002,0-0.002,0-0.002,0c-1.92,0-4.463-1.295-8.777-10.9l-0.082-0.209l-3.053-9.268l-4.699-13.834    c-6.37-2.832-6.467-7.801-5.583-12.779l2.735-13.161l-1.76,0.929l-7.117,8.161c-0.162,0.205-0.354,0.461-0.563,0.742    c-1.836,2.447-3.396,4.321-5.375,4.321c-0.622,0-1.213-0.193-1.713-0.559c-4.102-2.972,0.703-11.716,0.91-12.087l0.054-0.092    l7.828-12.559c0.992-1.363,3.462-2.877,5.186-3.201l10.08-2.862c1.012-0.135,1.999-0.019,2.966,0.326l8.475,2.103    c3.047,0.767,3.553,5.437,3.101,7.261l-5.146,24.087l-0.764,3.246c0.039,3.662,0.049,3.826,0.4,7.469l5.402,15.684    c1.488,5.266,2.962,14.73-0.973,16.803C-77.045,98.111-77.561,98.238-78.098,98.238z M-82.852,85.654    c2.077,4.609,3.488,6.67,4.275,7.58c0.304-1.727,0.34-5.475-1.197-10.934l-5.514-15.994l-0.025-0.258    c-0.399-4.129-0.404-4.207-0.447-8.363l-0.002-0.266l0.873-3.715l5.154-24.116c0.127-0.519-0.046-1.639-0.283-2.14l-8.46-2.115    c-0.289-0.11-0.567-0.155-0.85-0.143l-9.983,2.838c-0.557,0.085-2.025,0.962-2.424,1.44l-7.656,12.292    c-0.757,1.372-1.363,3.007-1.699,4.333c0.236-0.305,0.448-0.586,0.6-0.791c0.256-0.34,0.485-0.646,0.68-0.889l0.058-0.068    l7.679-8.81l10.67-5.622l-4.607,22.159c-0.84,4.721-0.393,6.697,3.807,8.268l0.969,0.363l5.36,15.771L-82.852,85.654z"/>
	</g>
	<g>
		<path d="M-55.771,57.285c-1.711,0-3.943-0.682-6.754-1.615c-0.439-0.146-0.852-0.283-1.213-0.398    c-3.535-1.117-9.795-3.967-10.059-4.088l-0.513-0.232l-0.337-0.453c-0.664-0.898-0.844-1.136-0.904-1.21    c-0.063-0.07-0.063-0.07-1.023-1.398l-0.149-0.207l-0.145-0.301l-3.776-9.068l4.024-1.676l3.678,8.833    c0.507,0.699,0.68,0.939,0.749,1.033c0.075,0.09,0.211,0.268,0.714,0.945c1.56,0.697,6.325,2.803,9.056,3.665    c0.379,0.119,0.811,0.264,1.275,0.418c0.801,0.266,2.225,0.74,3.453,1.063c-1.795-1.674-5.445-3.569-7.281-4.522    c-1.357-0.705-2.531-1.314-3.401-1.881l-0.438-0.287l-4.404-7.648l-6.844-11.096l3.712-2.29l6.877,11.152l3.901,6.777    c0.689,0.406,1.627,0.893,2.609,1.403c4.777,2.48,10.723,5.57,10.678,10.103c-0.01,0.953-0.449,1.809-1.207,2.35    C-54.115,57.098-54.869,57.285-55.771,57.285z"/>
	</g>
</g>
<g>
	<g>
		<path d="M337.308,94.867c-24.344,0-44.148-19.805-44.148-44.15c0-24.342,19.805-44.146,44.148-44.146    c24.342,0,44.148,19.804,44.148,44.146C381.456,71.557,362.575,94.867,337.308,94.867z M337.308,10.931    c-21.939,0-39.787,17.848-39.787,39.786c0,21.939,17.848,39.789,39.787,39.789c22.408,0,39.787-21.389,39.787-39.789    C377.095,28.779,359.247,10.931,337.308,10.931z"/>
	</g>
	<g>
		<path d="M355.173,65.27c-0.43,0-0.863-0.127-1.24-0.389L336.067,52.51c-0.59-0.406-0.941-1.076-0.941-1.792V25.944    c0-1.204,0.979-2.181,2.182-2.181s2.18,0.977,2.18,2.181v23.633l16.928,11.72c0.99,0.686,1.236,2.043,0.553,3.035    C356.542,64.941,355.862,65.27,355.173,65.27z"/>
	</g>
	<g>
		<path d="M379.276,52.898h-6.648c-1.205,0-2.182-0.977-2.182-2.181c0-1.203,0.977-2.182,2.182-2.182h6.648    c1.203,0,2.18,0.979,2.18,2.182C381.456,51.922,380.479,52.898,379.276,52.898z"/>
	</g>
	<g>
		<path d="M302.149,52.898h-6.811c-1.205,0-2.18-0.977-2.18-2.181c0-1.203,0.975-2.182,2.18-2.182h6.811    c1.203,0,2.18,0.979,2.18,2.182C304.329,51.922,303.353,52.898,302.149,52.898z"/>
	</g>
	<g>
		<path d="M337.308,94.867c-1.203,0-2.182-0.977-2.182-2.182v-6.914c0-1.203,0.979-2.18,2.182-2.18s2.18,0.977,2.18,2.18v6.914    C339.487,93.891,338.511,94.867,337.308,94.867z"/>
	</g>
	<g>
		<path d="M337.308,17.806c-1.203,0-2.182-0.976-2.182-2.18V8.751c0-1.204,0.979-2.18,2.182-2.18s2.18,0.976,2.18,2.18v6.875    C339.487,16.83,338.511,17.806,337.308,17.806z"/>
	</g>
</g>
<g id="Expanded_1_">
	<g>
		<g>
			<g>
				<path d="M454.222,61.873c-0.658,0-1.287-0.287-1.717-0.785L437.622,43.92c-0.822-0.951-0.719-2.385,0.229-3.207      c0.949-0.818,2.385-0.72,3.209,0.228l12.896,14.885l10.67-16.552c0.682-1.054,2.09-1.354,3.145-0.677      c1.057,0.68,1.357,2.087,0.678,3.141L456.13,60.83c-0.389,0.602-1.037,0.986-1.754,1.035      C454.325,61.869,454.272,61.873,454.222,61.873z"/>
			</g>
		</g>
		<g>
			<g>
				<path d="M542.86,67.5c-0.734,0-1.455-0.35-1.891-1.004l-10.971-16.349L517.37,65.26c-0.801,0.965-2.234,1.09-3.197,0.289      c-0.965-0.805-1.092-2.238-0.291-3.201l14.57-17.439c0.457-0.551,1.131-0.875,1.859-0.816c0.715,0.04,1.371,0.412,1.77,1.004      l12.658,18.867c0.701,1.041,0.424,2.453-0.615,3.152C543.733,67.377,543.298,67.5,542.86,67.5z"/>
			</g>
		</g>
		<g>
			<g>
				<path d="M491.714,91.631c-10.609,0-20.869-4.135-28.65-11.816c-0.898-0.881-0.902-2.316-0.023-3.213      c0.879-0.891,2.318-0.902,3.213-0.02c8.982,8.854,21.666,12.406,33.92,9.514c17.922-4.234,29.861-21.205,27.766-39.47      c-0.145-1.245,0.754-2.375,1.998-2.519c1.26-0.152,2.377,0.754,2.516,2.001c2.355,20.554-11.072,39.644-31.23,44.414      C498.058,91.266,494.872,91.631,491.714,91.631z"/>
			</g>
		</g>
		<g>
			<g>
				<path d="M454.22,61.873c-1.031,0-1.961-0.703-2.209-1.754c-2.518-10.63-0.74-21.606,5-30.897      c5.736-9.297,14.756-15.8,25.387-18.316c14.705-3.466,30.043,1.4,40.061,12.713c0.832,0.942,0.742,2.376-0.193,3.208      c-0.939,0.825-2.375,0.741-3.209-0.194c-8.906-10.06-22.551-14.394-35.611-11.303c-9.449,2.232-17.467,8.014-22.566,16.275      c-5.102,8.261-6.684,18.014-4.445,27.465c0.289,1.225-0.469,2.451-1.689,2.742C454.565,61.852,454.392,61.873,454.22,61.873z"/>
			</g>
		</g>
	</g>
</g>
<g>
	<g>
		<path d="M193.823,84.111c-17.139,0-35.584-3.684-35.584-11.771v-0.947l6.756-6.313V41.714c0-18.021,11.977-31.1,28.479-31.1    c16.504,0,28.48,13.079,28.48,31.1v23.301l7.455,6.313v1.012C229.409,80.428,210.964,84.111,193.823,84.111z M162.854,73.051    c1.746,2.625,12.537,6.699,30.969,6.699c18.307,0,29.074-4.018,30.934-6.646l-7.162-6.064V41.714    c0-15.494-10.146-26.739-24.121-26.739s-24.117,11.245-24.117,26.739v25.26L162.854,73.051z"/>
	</g>
	<g>
		<path d="M202.03,86.113c0,3.621-3.83,6.561-8.557,6.561c-4.725,0-8.553-2.939-8.553-6.561H202.03z"/>
		<path d="M193.474,93.109c-4.957,0-8.988-3.139-8.988-6.996v-0.438h17.98v0.438C202.466,89.971,198.433,93.109,193.474,93.109z     M185.376,86.549c0.297,3.174,3.816,5.689,8.098,5.689c4.283,0,7.803-2.516,8.1-5.689H185.376z"/>
	</g>
	<g>
		<path d="M196.929,12.795V9.342c0-1.707-1.547-3.093-3.455-3.093c-1.906,0-3.451,1.386-3.451,3.093v3.453"/>
		<path d="M197.364,12.795h-0.873V9.342c0-1.465-1.352-2.656-3.018-2.656c-1.66,0-3.014,1.191-3.014,2.656v3.453h-0.873V9.342    c0-1.945,1.744-3.529,3.887-3.529c2.146,0,3.891,1.584,3.891,3.529V12.795z"/>
	</g>
</g>
</svg>