<?xml version="1.0" encoding="utf-8"?>
<!-- Generator: Adobe Illustrator 16.0.0, SVG Export Plug-In . SVG Version: 6.00 Build 0)  -->
<!DOCTYPE svg PUBLIC "-//W3C//DTD SVG 1.1//EN" "http://www.w3.org/Graphics/SVG/1.1/DTD/svg11.dtd">
<svg version="1.1" id="Layer_1" xmlns="http://www.w3.org/2000/svg" xmlns:xlink="http://www.w3.org/1999/xlink" x="0px" y="0px"
	 width="100px" height="88.39px" viewBox="-346.088 267.688 100 88.39" enable-background="new -346.088 267.688 100 88.39"
	 xml:space="preserve">
<g id="Layer_1_1_">
	<path d="M-246.091,351.051c0-0.002,0-0.004,0-0.006c0-0.011-0.002-0.021-0.002-0.031c-0.003-0.572-0.032-1.141-0.079-1.707
		c-0.816-11.524-9.572-21.842-19.186-24.069c-2.244-0.52-8.11-1.106-8.11-1.106l-14.156-7.386c-0.249-0.11-0.542-0.165-0.84-0.165
		c-1.196,0-2.167,0.965-2.167,2.164v5.387h-4.174v-23.42h-4.107v23.443c-7.183,0.248-9.855,3.996-9.855,10.581v4.215h-7.407
		c-2.698-3.074-4.675-5.469-9.834-9.133c-7.222-5.128-16.083-6.367-20.077-6.878v33.139h99.498c0.187-0.999,0.332-2.012,0.405-3.046
		c0.031-0.354,0.039-0.711,0.054-1.067c0.008-0.273,0.043-0.54,0.043-0.814C-246.088,351.117-246.091,351.085-246.091,351.051z
		 M-275.917,333.72c-1.514,0-2.741-1.228-2.741-2.741c0-1.51,1.228-2.741,2.741-2.741c1.515,0,2.741,1.231,2.741,2.741
		C-273.176,332.492-274.402,333.72-275.917,333.72z"/>
	<g>
		<path d="M-311.509,301.402c-5.763,0-8.215-3.705-9.206-6.16c-1.877,1.904-5.501,4.902-10.178,5.499
			c-3.74,0.481-7.39-0.669-10.852-3.409c-3.085-2.443-4.649-6.268-4.294-10.496c0.343-4.074,2.401-7.714,5.243-9.272
			c4.208-2.308,8.83-1.794,11.012-1.351c0.819-3.726,3.787-9.001,10.817-8.49c3.561,0.259,6.318,1.581,8.197,3.93
			c3.48,4.349,2.588,10.61,2.548,10.874c-0.093,0.62-0.67,1.048-1.294,0.957c-0.621-0.092-1.051-0.671-0.96-1.293
			c0.009-0.056,0.778-5.562-2.082-9.127c-1.465-1.826-3.678-2.859-6.575-3.068c-7.642-0.546-8.558,7.394-8.594,7.731
			c-0.036,0.34-0.224,0.648-0.508,0.835c-0.285,0.187-0.641,0.237-0.968,0.136c-0.057-0.018-5.734-1.752-10.5,0.862
			c-2.157,1.183-3.792,4.183-4.068,7.467c-0.291,3.453,0.962,6.558,3.438,8.518c2.959,2.341,6.034,3.326,9.135,2.938
			c5.862-0.74,10.037-6.158,10.078-6.213c0.279-0.366,0.751-0.532,1.195-0.413c0.446,0.115,0.777,0.488,0.84,0.944
			c0.04,0.272,1.067,6.757,8.344,6.297c2.123-0.137,3.259-1.67,4.464-3.293c1.188-1.601,2.414-3.256,4.603-3.505
			c2.022-0.23,3.219,0.506,3.868,1.165c1.774,1.799,1.442,4.834,1.398,5.174c-0.08,0.624-0.656,1.067-1.274,0.985
			c-0.623-0.08-1.064-0.649-0.985-1.272c0.076-0.626,0.087-2.433-0.764-3.291c-0.434-0.438-1.081-0.599-1.984-0.498
			c-1.205,0.137-2.052,1.278-3.032,2.599c-1.323,1.783-2.969,4.005-6.146,4.208C-310.906,301.393-311.212,301.402-311.509,301.402
			L-311.509,301.402z"/>
		<path d="M-295.002,295.312c-0.094,0-0.189-0.012-0.285-0.036c-0.608-0.156-0.976-0.776-0.82-1.384
			c0.016-0.063,0.715-2.983-0.645-4.986c-0.719-1.061-1.938-1.712-3.624-1.938c-1.748-0.232-3.176,1.071-4.683,2.453
			c-1.533,1.403-3.106,2.855-5.229,2.777c-3.794-0.144-5.484-2.815-6.842-4.962c-0.413-0.654-0.803-1.271-1.223-1.786
			c-1.984-2.444-3.543-3.435-6.551-2.057c-3.871,1.774-2.239,8.098-2.223,8.161c0.162,0.607-0.198,1.232-0.807,1.395
			c-0.602,0.162-1.23-0.196-1.394-0.803c-0.09-0.336-2.147-8.248,3.474-10.823c4.536-2.076,7.135,0.064,9.268,2.69
			c0.505,0.622,0.95,1.324,1.379,2.005c1.292,2.043,2.407,3.806,5.003,3.903c1.164,0.056,2.355-1.036,3.604-2.18
			c1.741-1.596,3.72-3.405,6.524-3.032c2.364,0.316,4.119,1.301,5.218,2.929c1.938,2.876,0.997,6.657,0.957,6.815
			C-294.033,294.971-294.495,295.312-295.002,295.312L-295.002,295.312z"/>
	</g>
</g>
</svg>
