<?xml version="1.0" encoding="utf-8"?>
<!-- Generator: Adobe Illustrator 16.0.0, SVG Export Plug-In . SVG Version: 6.00 Build 0)  -->
<!DOCTYPE svg PUBLIC "-//W3C//DTD SVG 1.1//EN" "http://www.w3.org/Graphics/SVG/1.1/DTD/svg11.dtd">
<svg version="1.1" id="Layer_1" xmlns="http://www.w3.org/2000/svg" xmlns:xlink="http://www.w3.org/1999/xlink" x="0px" y="0px"
	 width="67.667px" height="67.333px" viewBox="0 0 67.667 67.333" enable-background="new 0 0 67.667 67.333" xml:space="preserve">
<g>
	<path fill="#5BB5E6" d="M33.845,2.927c17.182,0,31.109,13.928,31.109,31.109S51.027,65.145,33.845,65.145
		S2.736,51.217,2.736,34.036S16.664,2.927,33.845,2.927z"/>
	<g>
		<defs>
			<circle id="SVGID_1_" cx="33.845" cy="34.036" r="31.109"/>
		</defs>
		<clipPath id="SVGID_2_">
			<use xlink:href="#SVGID_1_"  overflow="visible"/>
		</clipPath>
		<g clip-path="url(#SVGID_2_)">
			<path fill="#EBEEEE" d="M21.693,17.996h24.305c2.146,0,3.889,1.741,3.889,3.889v53.468c0,2.148-1.742,3.889-3.889,3.889H21.693
				c-2.146,0-3.889-1.74-3.889-3.889V21.884C17.804,19.737,19.546,17.996,21.693,17.996z"/>
			<path fill="#FFFFFF" d="M22.179,18.968h23.332c1.879,0,3.402,1.523,3.402,3.402v52.497c0,1.88-1.523,3.402-3.402,3.402H22.179
				c-1.879,0-3.402-1.522-3.402-3.402V22.37C18.777,20.491,20.3,18.968,22.179,18.968z"/>
			<path fill="#5BB5E6" d="M20.722,27.717H46.97V69.52H20.722V27.717z"/>
			<path fill="#5BB5E6" d="M37.005,23.829h-6.318c-0.404,0-0.73,0.327-0.73,0.729s0.326,0.729,0.73,0.729h6.318
				c0.402,0,0.729-0.327,0.729-0.729S37.408,23.829,37.005,23.829z M33.845,71.463c-1.342,0-2.43,1.09-2.43,2.432
				s1.088,2.43,2.43,2.43s2.432-1.088,2.432-2.43S35.187,71.463,33.845,71.463z"/>
			<path fill="#5BB5E6" d="M34.089,20.912c0.402,0,0.729,0.326,0.729,0.729s-0.326,0.729-0.729,0.729
				c-0.404,0-0.73-0.326-0.73-0.729S33.685,20.912,34.089,20.912z"/>
		</g>
	</g>
</g>
</svg>
