<?xml version="1.0" encoding="utf-8"?>
<!-- Generator: Adobe Illustrator 16.0.0, SVG Export Plug-In . SVG Version: 6.00 Build 0)  -->
<!DOCTYPE svg PUBLIC "-//W3C//DTD SVG 1.1//EN" "http://www.w3.org/Graphics/SVG/1.1/DTD/svg11.dtd">
<svg version="1.1" id="Layer_1" xmlns="http://www.w3.org/2000/svg" xmlns:xlink="http://www.w3.org/1999/xlink" x="0px" y="0px"
	 width="67.667px" height="67.333px" viewBox="0 0 67.667 67.333" enable-background="new 0 0 67.667 67.333" xml:space="preserve">
<g>
	<path fill="#EE4461" d="M34.445,3.065c17.183,0,31.11,13.928,31.11,31.109c0,17.18-13.928,31.108-31.11,31.108
		c-17.181,0-31.108-13.929-31.108-31.108C3.336,16.994,17.264,3.065,34.445,3.065z"/>
</g>
<path fill="#FFFFFF" d="M23.463,28.126v15.062c0,0,4.331-0.471,6.119,0c1.789,0.471,4.108,4.048,10.479,4.048
	c6.372,0,10.42-2.447,10.42-11.768c0-9.319-3.953-9.131-4.989-9.131c-1.035,0-9.509,0-9.509,0s-0.059-5.289,0-6.59
	c0.059-1.301,0.659-3.859-2.071-3.859C29.112,15.888,33.16,25.49,23.463,28.126z"/>
<g>
	<path fill="#FFFFFF" d="M18.409,43.036c0,0.758,0.614,1.377,1.365,1.377c0.75,0,1.365-0.619,1.365-1.377V28.562
		c0-0.757-0.614-1.376-1.365-1.376c-0.751,0-1.365,0.62-1.365,1.376V43.036z"/>
</g>
</svg>
