<?xml version="1.0" encoding="utf-8"?>
<!-- Generator: Adobe Illustrator 16.0.0, SVG Export Plug-In . SVG Version: 6.00 Build 0)  -->
<!DOCTYPE svg PUBLIC "-//W3C//DTD SVG 1.1//EN" "http://www.w3.org/Graphics/SVG/1.1/DTD/svg11.dtd">
<svg version="1.1" id="Layer_1" xmlns="http://www.w3.org/2000/svg" xmlns:xlink="http://www.w3.org/1999/xlink" x="0px" y="0px"
	 width="42px" height="41px" viewBox="0 0 42 41" enable-background="new 0 0 42 41" xml:space="preserve">
<g>
	<path fill="none" stroke="#EF4461" stroke-miterlimit="10" d="M37.768,6.384c-0.651-0.651-1.653-1.653-2.305-2.305
		s-2.055-1.554-3.608,0c-1.553,1.554-20.043,19.441-23.05,22.449c-3.006,3.006-6.263,8.969-5.01,10.221
		c1.252,1.253,7.183-0.869,11.224-4.91S37.067,10.393,37.768,9.691C38.47,8.989,38.419,7.035,37.768,6.384z"/>
	<line fill="none" stroke="#EF4461" stroke-miterlimit="10" x1="28.922" y1="6.936" x2="34.769" y2="12.611"/>
	<path fill="none" stroke="#EF4461" stroke-miterlimit="10" d="M28.922,18.303c0,0,9.498,9.377,10.75,10.629
		c1.252,1.253,1.35,2.959,0,4.309c-1.35,1.351-4.004,3.641-5.375,5.012s-3.735,1.641-5.375,0c-1.641-1.64-9.789-10.42-9.789-10.42"
		/>
	<path fill="none" stroke="#EF4461" stroke-miterlimit="10" d="M23.095,12.611c0,0-10.13-9.785-10.982-10.637
		c-0.852-0.852-2.447-1.16-3.607,0C7.345,3.135,3.094,6.985,2.191,7.887c-0.902,0.902-1.25,2.357,0,3.607
		c1.25,1.25,11.182,10.584,11.182,10.584"/>
	<line fill="none" stroke="#EF4461" stroke-miterlimit="10" x1="9.909" y1="10.994" x2="15.777" y2="5.523"/>
	<line fill="none" stroke="#EF4461" stroke-miterlimit="10" x1="18.026" y1="13.198" x2="20.818" y2="10.406"/>
	<line fill="none" stroke="#EF4461" stroke-miterlimit="10" x1="27.646" y1="22.92" x2="30.602" y2="19.964"/>
	<line fill="none" stroke="#EF4461" stroke-miterlimit="10" x1="29.952" y1="30.636" x2="35.64" y2="24.947"/>
</g>
</svg>
