<?xml version="1.0" encoding="utf-8"?>
<!-- Generator: Adobe Illustrator 16.0.0, SVG Export Plug-In . SVG Version: 6.00 Build 0)  -->
<!DOCTYPE svg PUBLIC "-//W3C//DTD SVG 1.1//EN" "http://www.w3.org/Graphics/SVG/1.1/DTD/svg11.dtd">
<svg version="1.1" id="Layer_1" xmlns="http://www.w3.org/2000/svg" xmlns:xlink="http://www.w3.org/1999/xlink" x="0px" y="0px"
	 width="28.625px" height="45.5px" viewBox="0 0 28.625 45.5" enable-background="new 0 0 28.625 45.5" xml:space="preserve">
<path fill="#FFFFFF" d="M22.945,2.132H6.022c-1.995,0-3.613,1.618-3.613,3.612v0.501v33.388v0.5c0,1.995,1.618,3.612,3.613,3.612
	h16.923c1.996,0,3.611-1.618,3.611-3.612v-0.5V6.246V5.745C26.557,3.75,24.941,2.132,22.945,2.132z M14.483,43.34
	c-0.91,0-1.649-0.741-1.649-1.65c0-0.91,0.739-1.65,1.649-1.65s1.65,0.74,1.65,1.65C16.134,42.599,15.394,43.34,14.483,43.34z
	 M25.231,8.235v29.408c0,0.365-0.299,0.663-0.664,0.663H4.4c-0.365,0-0.663-0.298-0.663-0.663V8.235
	c0-0.365,0.298-0.664,0.663-0.664h20.167C24.932,7.572,25.231,7.871,25.231,8.235z M9.31,4.953c0-0.312,0.252-0.565,0.564-0.565
	h9.352c0.312,0,0.564,0.253,0.564,0.565v0.065c0,0.311-0.252,0.564-0.564,0.564H9.874c-0.312,0-0.564-0.253-0.564-0.564V4.953z"/>
</svg>
