<?xml version="1.0" encoding="utf-8"?>
<!-- Generator: Adobe Illustrator 16.0.0, SVG Export Plug-In . SVG Version: 6.00 Build 0)  -->
<!DOCTYPE svg PUBLIC "-//W3C//DTD SVG 1.1//EN" "http://www.w3.org/Graphics/SVG/1.1/DTD/svg11.dtd">
<svg version="1.1" id="Layer_1" xmlns="http://www.w3.org/2000/svg" xmlns:xlink="http://www.w3.org/1999/xlink" x="0px" y="0px"
	 width="42px" height="41px" viewBox="0 0 42 41" enable-background="new 0 0 42 41" xml:space="preserve">
<g>
	<circle fill="none" stroke="#58BB6C" stroke-miterlimit="10" cx="11.708" cy="3.618" r="1.753"/>
	<circle fill="none" stroke="#58BB6C" stroke-miterlimit="10" cx="20.589" cy="3.618" r="1.753"/>
	<circle fill="none" stroke="#58BB6C" stroke-miterlimit="10" cx="33.219" cy="36.384" r="2.352"/>
	<circle fill="#58BB6C" cx="33.329" cy="36.466" r="0.828"/>
	<path fill="none" stroke="#58BB6C" stroke-miterlimit="10" d="M9.955,4.073c0,0-3.497-0.46-3.497,3.405
		c0,3.865,1.84,10.675,2.484,13.067c0.645,2.393,3.129,5.89,7.454,5.89c4.325,0,6.711-2.795,7.178-5.706
		c0.469-2.91,2.117-8.834,2.117-13.159c0-4.326-3.35-3.952-3.35-3.952"/>
	<path fill="none" stroke="#58BB6C" stroke-miterlimit="10" d="M33.217,34.033v-4.286c0,0-0.164-3.312-4.396-3.312
		c-4.234,0-4.418,3.129-4.418,3.129v4.47c0,0,0.195,4.702-3.814,4.702c-4.008,0-4.192-4.702-4.192-4.702v-7.599"/>
</g>
</svg>
