<svg xmlns="http://www.w3.org/2000/svg" xmlns:xlink="http://www.w3.org/1999/xlink" version="1.1" x="0px" y="0px" width="95.691px" height="100px" viewBox="0 0 95.691 100" enable-background="new 0 0 95.691 100" xml:space="preserve">
<g id="Layer_1">
</g>
<g id="Layer_2">
	<circle cx="48.441" cy="8.109" r="8.031"/>
	<path d="M38.292,91.756l-0.001,3.741c0,2.485,2.028,4.503,4.512,4.503c2.489,0,4.208-2.018,4.208-4.503v-3.741H38.292z"/>
	<path d="M78.059,30.055c0,0-12.299-8.605-13.816-9.601c-1.871-1.264-4.68-2.611-8.002-2.683c-1.032-0.022-4.893-0.028-7.043-0.031   v-0.001c0,0-0.282,0-0.735,0c-0.456,0-0.738,0-0.738,0v0.001c-2.15,0.002-6.01,0.008-7.042,0.031   c-3.322,0.072-6.13,1.419-8.001,2.683c-1.519,0.996-13.816,9.601-13.816,9.601c-1.683,1.186-2.092,3.509-0.916,5.197l7.214,10.362   c0.728,1.044,1.892,1.604,3.076,1.604c0.737,0,1.483-0.218,2.135-0.671c1.696-1.182,2.114-3.514,0.933-5.21l-5.087-7.309   c2.714-1.915,6.687-4.714,9.518-6.712c0.639-0.313,1.235-0.244,1.622-0.032c0.936,0.515,0.896,1.331,0.939,1.601l-0.002,15.852   h20.329l-0.002-15.852c0.043-0.271,0.003-1.086,0.939-1.601c0.386-0.212,0.983-0.281,1.62,0.032   c2.832,1.998,6.805,4.797,9.52,6.712l-5.089,7.309c-1.181,1.696-0.763,4.028,0.935,5.21c0.651,0.453,1.396,0.671,2.135,0.671   c1.183,0,2.35-0.561,3.076-1.604l7.215-10.362C80.149,33.564,79.741,31.24,78.059,30.055z"/>
	<polygon points="30.356,46.844 30.356,89.959 35.348,89.959 35.348,89.954 47.01,89.954 47.012,67.559 49.913,67.559    49.915,89.954 61.177,89.954 61.177,89.959 66.48,89.959 66.48,46.844  "/>
	<path d="M49.916,92.076v3.421c0,2.485,2.095,4.503,4.585,4.503c2.483,0,4.132-2.018,4.132-4.503l-0.001-3.421H49.916z"/>
</g>
</svg>