<svg xmlns="http://www.w3.org/2000/svg" xmlns:xlink="http://www.w3.org/1999/xlink" version="1.1" id="Layer_1" x="0px" y="0px" width="100px" height="100px" viewBox="0 0 100 100" enable-background="new 0 0 100 100" xml:space="preserve">
<path d="M89.258,46.688c1.577-3.213,2.372-6.571,2.372-9.979c0-12.537-10.193-22.737-22.729-22.737  c-7.867,0-14.818,4.012-18.901,10.099c-4.083-6.087-11.026-10.099-18.886-10.099c-12.543,0-22.744,10.201-22.744,22.737  c0,3.38,0.803,6.739,2.604,10.463c0.833,1.854,1.801,3.64,2.815,5.388h-1.576c-2.125,0-3.844,1.719-3.844,3.844  c0,2.123,1.719,3.842,3.844,3.842h6.793c7.92,10.225,18.15,18.197,26.393,23.525c0.93,0.666,1.823,1.248,2.672,1.738  c0.601,0.346,1.26,0.518,1.929,0.518c0.668,0,1.329-0.172,1.929-0.518c0.834-0.488,1.727-1.062,2.545-1.641  c8.49-5.494,18.969-13.646,27-24.264h6.313c2.124,0,3.843-1.719,3.843-3.844c0-2.123-1.719-3.842-3.843-3.842h-1.253  c0.945-1.659,1.861-3.333,2.65-5.089C89.204,46.782,89.235,46.737,89.258,46.688z M50.181,77.492  c-0.061,0.047-0.119,0.084-0.173,0.125c-0.098-0.064-0.196-0.131-0.292-0.203c-6.396-4.143-14-9.908-20.613-17.168h6.17  c1.486,0,2.838-0.855,3.477-2.197l1.861-3.945l5.832,14.318c0.563,1.385,1.877,2.316,3.363,2.391  c0.067,0.004,0.134,0.004,0.194,0.004c1.419,0,2.732-0.785,3.4-2.045l6.021-11.387l0.391,0.566c0.721,1.035,1.898,1.654,3.158,1.654  h8.582C65.937,65.881,58.79,71.916,50.181,77.492z M64.983,51.92l-2.845-4.11c-0.767-1.1-1.931-1.757-3.394-1.647  c-1.336,0.078-2.536,0.852-3.168,2.037l-5.125,9.695L44.43,43.107c-0.569-1.411-1.929-2.35-3.452-2.394  c-1.494,0.014-2.928,0.821-3.58,2.2l-4.557,9.648h-9.848c-2.005-2.912-3.852-5.97-5.331-9.259c-1.065-2.169-1.606-4.387-1.606-6.593  c0-8.299,6.756-15.052,15.059-15.052c8.295,0,15.043,6.752,15.043,15.052c0,2.122,1.719,3.842,3.843,3.842  c2.125,0,3.845-1.72,3.845-3.842c0-8.299,6.754-15.052,15.057-15.052c8.295,0,15.043,6.752,15.043,15.052  c0,2.224-0.533,4.443-1.592,6.593l0.029,0.016c-0.143,0.25-0.27,0.487-0.352,0.675c-1.187,2.661-2.71,5.306-4.46,7.927H64.983z"/>
</svg>