<svg xmlns="http://www.w3.org/2000/svg" xmlns:xlink="http://www.w3.org/1999/xlink" version="1.1" id="Layer_1" x="0px" y="0px" width="100px" height="100px" viewBox="0 0 100 100" enable-background="new 0 0 100 100" xml:space="preserve">
<path d="M61.111,69.444H38.889c-4.602,0-8.333,3.73-8.333,8.333V100h8.333h22.223h8.333V77.777  C69.444,73.175,65.712,69.444,61.111,69.444z"/>
<circle cx="19.445" cy="61.111" r="8.333"/>
<circle cx="50" cy="55.556" r="9.722"/>
<path d="M25,77.777c0-1.451,0.225-2.851,0.64-4.166H6.944C3.109,73.611,0,76.72,0,80.556V100h25V77.777z"/>
<circle cx="80.556" cy="61.111" r="8.333"/>
<path d="M75,77.777c0-1.451-0.226-2.851-0.641-4.166h18.696c3.836,0,6.944,3.108,6.944,6.944V100H75V77.777z"/>
<path d="M80.556,0H19.444c-3.068,0-5.556,2.487-5.556,5.556v25c0,3.068,2.488,5.556,5.556,5.556c0.003,0,0.004,0,0.007,0h24.993  L50,43.056l5.556-6.944h24.993c0.003,0,0.004,0,0.007,0c3.068,0,5.556-2.488,5.556-5.556v-25C86.111,2.487,83.624,0,80.556,0z   M37.5,20.833h-4.167V25h-5.556v-4.167h-4.167v-5.556h4.167v-4.167h5.556v4.167H37.5V20.833z M55.729,19.035L50,24.738l-5.729-5.704  c-1.331-1.307-1.91-2.74-1.91-4.021c0-2.185,1.459-3.642,3.668-3.642c2.061,0,2.765,0.955,3.97,2.335  c1.207-1.381,1.91-2.335,3.97-2.335c2.213,0,3.669,1.457,3.669,3.642C57.639,16.295,57.06,17.729,55.729,19.035z M69.444,25  c-3.068,0-5.556-2.487-5.556-5.556c0-2.065,1.141-3.847,2.813-4.804c-0.216-0.021-0.435-0.058-0.648-0.133  c-1.447-0.51-2.165-2.234-2.165-2.234s1.638-0.9,3.087-0.392c1.003,0.353,1.646,1.279,1.951,1.82  c0.207-0.844,0.559-1.363,0.843-1.774c0.257-0.368,0.369-0.542,0.369-0.816h1.389c0,0.72-0.326,1.192-0.615,1.608  c-0.237,0.34-0.479,0.689-0.628,1.253C72.95,14.381,75,16.664,75,19.444C75,22.513,72.513,25,69.444,25z"/>
</svg>