<svg xmlns="http://www.w3.org/2000/svg" xmlns:xlink="http://www.w3.org/1999/xlink" xmlns:a="http://ns.adobe.com/AdobeSVGViewerExtensions/3.0/" version="1.1" x="0px" y="0px" width="100px" height="100px" viewBox="-2.403 -1.495 100 100" enable-background="new -2.403 -1.495 100 100" xml:space="preserve">
<defs>
</defs>
<path d="M68.936,82.819H17.208c-3.206,0-5.806,2.195-5.806,4.905c0,2.708,2.6,4.905,5.806,4.905h51.728c3.205,0,5.8-2.197,5.8-4.905  C74.735,85.015,72.141,82.819,68.936,82.819z"/>
<path d="M8.411,35.671c1.947,6.111,4.44,10.913,6.111,12.042v-0.545c-1.647-1.607-3.876-6.099-5.652-11.672  c-2.047-6.428-2.801-12.139-1.939-13.873c0.228,0.013,0.457,0.022,0.689,0.022v2.026h2.039v-2.205  c3.216-0.561,5.582-2.409,5.582-4.608V5.509c0-2.643-3.412-4.786-7.618-4.786V0H4.609v1.113C1.898,1.848,0,3.538,0,5.509V16.86  c0,1.713,1.437,3.209,3.59,4.056v2.757h2.039v-2.198c0.313,0.053,0.635,0.094,0.964,0.123C5.547,23.043,6.275,28.966,8.411,35.671z   M4.253,16.75V5.62h7.443v11.13H4.253z"/>
<path d="M7.838,8.94c-0.553-0.797-0.944,0.875-2.102,2.208c-1.169,1.348,0.596,2.488,1.981,2.488s2.895-1.119,1.792-2.488  C8.482,9.869,8.482,9.869,7.838,8.94z"/>
<path d="M15.63,82.682c2.588-0.665,4.206-3.57,3.614-6.481l-4.123-20.295c-0.592-2.913-3.169-4.734-5.757-4.069  c-2.588,0.667-4.206,3.569-3.614,6.482l4.123,20.294C10.464,81.525,13.042,83.349,15.63,82.682z"/>
<path d="M90.689,71.755c-2.044-1.152-4.669,0.705-6.403,4.225l-19.129-7.93c-0.6-0.525-1.296-0.819-2.033-0.777L35.84,68.877  l-1.404-7.954l18.931,0.464c1.683,0.044,3.076-2.325,3.104-5.286c0.032-2.957-1.311-5.393-2.999-5.435l-20.938-0.512l-0.727-4.124  c-0.571-3.229-2.903-5.542-5.761-6.142c1.848-1.119,3.298-3.061,4.073-5.423c-2.652-0.058-4.786-2.288-4.786-5.041h0.242  c0.62,2.054,2.454,3.555,4.647,3.555c0.097,0,0.188-0.018,0.283-0.024c0.179-0.931,0.265-1.906,0.227-2.911  c-0.224-5.735-4.132-10.165-8.737-9.893c-4.602,0.27-8.152,5.139-7.929,10.874c0.188,4.887,3.062,8.817,6.757,9.705  c-3.052,1.721-4.875,5.38-4.228,9.042l2.213,12.533c0.026,0,0.06-0.002,0.088-0.002l0.057,0.318  c-0.028-0.002-0.062,0.001-0.089,0.001l0.777,4.396c0.001,0.045-0.007,0.084-0.007,0.13l0.241,6.201  c0.166,4.28,3.117,7.582,6.591,7.379c0.327-0.018,0.636-0.098,0.948-0.177c0.172,0.03,0.343,0.064,0.52,0.051l33.93-1.994  l-0.046,0.193l21.592,8.955c0.383,0.758,0.885,1.337,1.498,1.684c2.432,1.37,5.697-1.479,7.295-6.362  C93.801,78.188,93.121,73.123,90.689,71.755z M38.004,57.518c0.061-0.034,0.132-0.068,0.188-0.101l-0.175-4.524l3.824-0.226  l0.184,4.804l-3.683,0.216c-0.104,0.062-0.22,0.125-0.337,0.189V57.518z M26.792,24.193c0.596,0,1.079,0.565,1.079,1.263  c0,0.697-0.483,1.263-1.079,1.263c-0.596,0-1.079-0.566-1.079-1.263C25.713,24.759,26.195,24.193,26.792,24.193z"/>
</svg>