<?xml version="1.0" encoding="utf-8"?>
<!-- Generator: Adobe Illustrator 16.0.0, SVG Export Plug-In . SVG Version: 6.00 Build 0)  -->
<!DOCTYPE svg PUBLIC "-//W3C//DTD SVG 1.1//EN" "http://www.w3.org/Graphics/SVG/1.1/DTD/svg11.dtd">
<svg version="1.1" id="Layer_1" xmlns="http://www.w3.org/2000/svg" xmlns:xlink="http://www.w3.org/1999/xlink" x="0px" y="0px"
	 width="67.667px" height="67.333px" viewBox="0 0 67.667 67.333" enable-background="new 0 0 67.667 67.333" xml:space="preserve">
<g>
	<path id="background_5_" fill="#58BA6C" d="M64.736,33.659c0.143,17.181-13.67,31.224-30.849,31.367
		C16.707,65.168,2.662,51.358,2.52,34.176C2.381,17.366,15.869,2.956,33.369,2.81C50.548,2.667,64.593,16.479,64.736,33.659z"/>
	<path fill="#FFFFFF" d="M47.533,25.592c-0.014-1.511-1.334-2.811-2.846-2.798c-7.91,0.066-15.82,0.132-23.73,0.198
		c-1.512,0.013-2.842,1.334-2.828,2.845c0.066,7.911,0.131,15.82,0.197,23.731c0.012,1.511,1.363,2.841,2.875,2.828
		c7.91-0.065,15.839-0.132,23.818-0.198c1.02-0.009,1.729-0.523,2.133-1.238c0.359-0.439,0.584-1.021,0.576-1.748
		C47.666,41.461,47.599,33.502,47.533,25.592z M42.007,46.524c-6.023,0.05-12.021,0.1-18.007,0.15
		c-0.049-6.004-0.1-12.006-0.148-18.008c6.002-0.05,12.003-0.1,18.005-0.15C41.908,34.547,41.958,40.586,42.007,46.524z"/>
	<path fill="none" d="M25.92,37.763c0.012-0.01,0.023-0.021,0.035-0.029c-0.021,0-0.041,0-0.061,0.001
		C25.902,37.735,25.912,37.77,25.92,37.763z"/>
	<path fill="#A5D2AA" stroke="#FFFFFF" stroke-width="3" stroke-miterlimit="10" d="M57.023,17.33
		c-1.135-1.115-2.789-0.966-3.922,0.033c-5.529,4.88-11.061,9.734-16.59,14.599c-1.463,1.286-2.925,2.573-4.388,3.861
		c-1.951-2.216-3.902-4.584-5.854-6.857c-0.986-1.148-2.928-0.95-3.92,0.059c-1.127,1.145-0.951,2.801,0.031,3.947
		c2.516,2.93,5.031,5.859,7.547,8.788c1.033,1.205,2.863,0.899,3.92-0.032c2.212-1.951,4.425-3.904,6.638-5.857
		C46,31.005,51.515,26.14,57.029,21.274c0.01-0.008,0.018-0.016,0.027-0.023C58.189,20.251,58.042,18.333,57.023,17.33z
		 M29.92,37.763c-0.008,0.007-0.018-0.028-0.025-0.028c0.02-0.001,0.039-0.001,0.061-0.001
		C29.943,37.743,29.932,37.753,29.92,37.763z"/>
	<path fill="#58BA6C" d="M57.023,17.33c-1.135-1.115-2.789-0.966-3.922,0.033c-5.529,4.88-11.061,9.734-16.59,14.599
		c-1.463,1.286-2.925,2.573-4.388,3.861c-1.951-2.216-3.902-4.584-5.854-6.857c-0.986-1.148-2.928-0.95-3.92,0.059
		c-1.127,1.145-0.951,2.801,0.031,3.947c2.516,2.93,5.031,5.859,7.547,8.788c1.033,1.205,2.863,0.899,3.92-0.032
		c2.212-1.951,4.425-3.904,6.638-5.857C46,31.005,51.515,26.14,57.029,21.274c0.01-0.008,0.018-0.016,0.027-0.023
		C58.189,20.251,58.042,18.333,57.023,17.33z M29.92,37.763c-0.008,0.007-0.018-0.028-0.025-0.028
		c0.02-0.001,0.039-0.001,0.061-0.001C29.943,37.743,29.932,37.753,29.92,37.763z"/>
</g>
</svg>
