<?xml version="1.0" encoding="utf-8"?>
<!-- Generator: Adobe Illustrator 16.0.0, SVG Export Plug-In . SVG Version: 6.00 Build 0)  -->
<!DOCTYPE svg PUBLIC "-//W3C//DTD SVG 1.1//EN" "http://www.w3.org/Graphics/SVG/1.1/DTD/svg11.dtd">
<svg version="1.1" id="Layer_1" xmlns="http://www.w3.org/2000/svg" xmlns:xlink="http://www.w3.org/1999/xlink" x="0px" y="0px"
	 width="170.375px" height="77.75px" viewBox="0 0 170.375 77.75" enable-background="new 0 0 170.375 77.75" xml:space="preserve">
<g>
	<g>
		<path fill="#FFFFFF" d="M117.65,52.652c-0.909,0-1.7-0.223-2.373-0.672c-0.675-0.451-1.135-1.775-1.378-2.545
			c-1.747,1.797-4.034,2.923-6.858,2.923c-1.471,0-2.672-0.868-3.602-1.774c-0.931-0.905-1.396-2.596-1.396-3.951
			c0-3.349,2.574-5.766,11.906-6.67l0.147-3.821V36.02c0-1.177-0.514-1.837-1.093-2.531s-1.174-0.887-2.138-0.887
			c-0.962,0-1.914-0.062-2.584,0.402c-0.668,0.464-1.27,0.952-1.285,1.655c-0.018,1.045,0.147,1.825-0.385,2.413
			c-0.53,0.588-1.237,0.881-2.118,0.881c-0.524,0-0.946-0.153-1.274-0.464c-0.325-0.31-0.473-0.998-0.473-1.52
			c0-1.257,1.127-2.305,3.414-3.686c2.285-1.38,4.408-2.069,6.368-2.069c1.765,0,3.194,0.521,4.287,1.566
			c1.096,1.045,0.923,2.45,0.923,4.215v0.293l-0.018,11.074v0.173c0,1.713,0.924,2.571,2.036,2.571c0.538,0,1.168-0.327,1.886-0.979
			l0.171-0.05c0.131,0,0.253,0.085,0.369,0.257c0.113,0.17,0.17,0.354,0.17,0.55c0,0.475-0.495,1.053-1.482,1.74
			C119.882,52.312,118.808,52.652,117.65,52.652z M114.13,41.433c-4.752,1.081-7.983,1.985-7.983,4.474
			c0,2.326,1.519,3.629,3.31,3.629c0.861,0,1.709-0.21,2.55-0.646c0.838-0.434,1.749-0.989,2.045-1.628L114.13,41.433z"/>
		<path fill="#FFFFFF" d="M143.711,35.015c2.167,0,2.593-1.911,2.593-2.31c0-0.402-0.322-1.646-2.487-1.646
			s-3.332,1.164-4.212,1.164c-0.882,0-1.646-1.886-6.319-1.886c-4.672,0-8.687,4.011-8.687,8.906c0,3.731,3.974,6.1,3.692,6.539
			c-0.281,0.443-3.49,2.567-3.49,4.455c0,2.607,3.551,3.431,3.048,3.932c-0.501,0.5-4.655,2.767-4.655,6.659
			c0,2.007,1.526,7.062,9.229,7.062c8.787,0,13.358-7.022,13.358-10.754c0-2.727-2.229-5.956-5.213-6.339
			c-3.143-0.404-8.87,0-9.912,0c-1.042,0-1.765-0.32-2.207-1.766c-0.44-1.444,0.241-2.286,0.762-2.447c0.522-0.161,0.884,0,4.073,0
			c6.963,0,9.128-5.737,9.128-8.256c0-2.518-0.852-3.662-1.042-3.98C141.179,34.029,142.506,35.015,143.711,35.015z M130.777,54.529
			c2.689,0,6.219,0,7.822,0c1.606,0,3.452,1.525,3.452,4.454c0,2.929-1.963,6.219-7.3,6.219c-5.338,0-7.745-3.05-7.745-5.217
			S128.089,54.529,130.777,54.529z M133.466,45.142c-4.052,0-5.016-4.896-5.016-7.184c0-1.059,0.603-5.977,4.654-5.977
			s5.015,4.615,5.015,6.58C138.12,40.833,138.24,45.142,133.466,45.142z"/>
		<path fill="#FFFFFF" d="M164.463,39.207c0-1.58,0.2-8.917-8.526-8.917c-7.157,0-9.603,6.909-9.603,10.859
			c0,3.392,2.183,10.858,9.872,10.858c6.019,0,8.663-5.096,7.929-5.451c-1.153-0.561-1.583,2.041-6.404,2.041
			c-2.978,0-7.719-2.469-7.719-7.178v-2.212H164.463z M155.7,32.124c4.25,0,4.976,4.909,4.515,5.732h-10.182
			C150.033,37.856,151.448,32.124,155.7,32.124z"/>
		<path fill="#FFFFFF" d="M96.569,18.236c0.308,0.247-0.436,7.138-0.436,7.509c0,0.374-1.033,0.56-1.18,0
			c-0.147-0.557-1.49-7.199-7.573-7.199c-6.084,0-6.208,4.597-6.208,5.587c0,5.027,3.724,5.897,7.697,7.884s8.876,4.22,8.876,10.18
			c0,5.959-6.578,9.871-11.546,9.871c-4.964,0-7.695-1.24-8.257-1.924c-0.558-0.682-1.488-8.194-1.737-8.568
			c-0.25-0.371,1.392-0.797,1.553-0.061c1.613,7.697,7.999,8.565,9.216,8.565c1.219,0,6.488-0.991,6.488-6.206
			c0-5.215-4.841-6.89-8.628-8.722c-3.786-1.831-8.133-4.253-8.133-9.343c0-5.091,5.214-9.436,11.36-9.436
			S96.257,17.987,96.569,18.236z"/>
	</g>
	<g>
		<g>
			<path fill="#FFFFFF" d="M59.708,12.904c-0.087-0.091-0.256-0.132-0.376-0.092l-16.719,5.604c-0.12,0.04-0.143,0.144-0.053,0.232
				l13.434,13.003c0.09,0.088,0.263,0.129,0.384,0.093l16.406-4.953c0.121-0.037,0.148-0.141,0.061-0.231L59.708,12.904z"/>
		</g>
		<g>
			<path fill="#FFFFFF" d="M26.142,3.538c-0.086-0.092-0.255-0.139-0.376-0.105L9.132,8.168C9.011,8.202,8.984,8.304,9.073,8.393
				l12.919,12.993c0.089,0.089,0.261,0.137,0.384,0.106l16.403-4.126c0.122-0.03,0.152-0.131,0.066-0.223L26.142,3.538z"/>
		</g>
		<g>
			<path fill="#FFFFFF" d="M36.142,37.474c-0.086-0.092-0.257-0.145-0.379-0.117l-17.076,3.875
				c-0.123,0.028-0.152,0.125-0.064,0.215l12.875,13.339c0.088,0.09,0.259,0.14,0.381,0.108L48.28,50.77
				c0.122-0.03,0.152-0.131,0.066-0.223L36.142,37.474z"/>
		</g>
		<g>
			<path fill="#FFFFFF" d="M7.669,9.906C7.7,9.784,7.798,9.758,7.887,9.847l13.034,13.122c0.088,0.089,0.135,0.262,0.104,0.384
				l-4.143,15.944c-0.032,0.122-0.129,0.147-0.216,0.056L3.809,25.899c-0.087-0.091-0.133-0.266-0.102-0.388L7.669,9.906z"/>
		</g>
		<g>
			<path fill="#FFFFFF" d="M17.892,43.42c0.028-0.123,0.122-0.148,0.208-0.057l12.39,13.05c0.087,0.091,0.134,0.267,0.105,0.389
				l-3.708,15.735c-0.029,0.123-0.124,0.149-0.211,0.059L14.343,59.793c-0.088-0.091-0.136-0.266-0.108-0.388L17.892,43.42z"/>
		</g>
		<g>
			<path fill="#FFFFFF" d="M41.02,19.949c0.028-0.123,0.125-0.151,0.215-0.063l13.377,13.118c0.09,0.088,0.136,0.26,0.103,0.381
				L50.231,49.64c-0.034,0.121-0.132,0.146-0.219,0.055L37.386,36.417c-0.087-0.091-0.134-0.267-0.106-0.389L41.02,19.949z"/>
		</g>
		<g>
			<path fill="#FFFFFF" d="M22.681,23.702c0.029-0.122,0.153-0.249,0.275-0.281l16.235-4.268c0.122-0.032,0.198,0.042,0.169,0.165
				l-3.825,16.253c-0.029,0.122-0.153,0.246-0.276,0.274l-16.226,3.787c-0.123,0.028-0.199-0.049-0.169-0.171L22.681,23.702z"/>
		</g>
		<g>
			<path fill="#FFFFFF" d="M32.233,57.128c0.028-0.123,0.15-0.25,0.272-0.282l16.673-4.474c0.122-0.033,0.194,0.04,0.16,0.161
				l-4.34,15.729c-0.034,0.121-0.16,0.249-0.282,0.282l-15.899,4.431c-0.122,0.034-0.198-0.039-0.169-0.162L32.233,57.128z"/>
		</g>
		<g>
			<path fill="#FFFFFF" d="M56.311,33.707c0.035-0.121,0.161-0.25,0.282-0.286l15.532-4.636c0.121-0.036,0.196,0.035,0.168,0.158
				l-3.56,15.5c-0.028,0.123-0.15,0.252-0.271,0.288l-16.423,4.802c-0.121,0.036-0.192-0.035-0.158-0.156L56.311,33.707z"/>
		</g>
	</g>
	
		<text transform="matrix(1.0412 0 0 1 56.6494 63.0176)" fill="#FFFFFF" stroke="#FFFFFF" stroke-width="0.0463" stroke-miterlimit="10" font-family="'Myriad-Roman'" font-size="8.7924">BIONETWORKS</text>
</g>
</svg>
