<?xml version="1.0" encoding="utf-8"?>
<!-- Generator: Adobe Illustrator 16.0.0, SVG Export Plug-In . SVG Version: 6.00 Build 0)  -->
<!DOCTYPE svg PUBLIC "-//W3C//DTD SVG 1.1//EN" "http://www.w3.org/Graphics/SVG/1.1/DTD/svg11.dtd">
<svg version="1.1" id="Layer_1" xmlns="http://www.w3.org/2000/svg" xmlns:xlink="http://www.w3.org/1999/xlink" x="0px" y="0px"
	 width="67.667px" height="67.333px" viewBox="0 0 67.667 67.333" enable-background="new 0 0 67.667 67.333" xml:space="preserve">
<g>
	<path fill="#82509F" d="M34.531,2.335c17.18,0,31.107,13.928,31.107,31.109S51.71,64.553,34.531,64.553
		c-17.181,0-31.109-13.928-31.109-31.109S17.35,2.335,34.531,2.335z"/>
	<g>
		<path fill="#EBEFF0" d="M47.654,49.485l-9.236-22.374V22.75h-7.775v4.373l-9.236,22.362c-0.283,0.77,0.652,1.459,1.459,1.459
			h23.33C47.001,50.944,47.937,50.225,47.654,49.485z"/>
		<path fill="#EBEFF0" d="M30.736,22.25c-0.002,0.005-0.002,0.01-0.004,0.015h7.595c-0.002-0.005-0.002-0.01-0.004-0.015
			c0.602-0.075,1.066-0.58,1.066-1.2c0-0.671-0.543-1.215-1.215-1.215h-7.291c-0.672,0-1.215,0.544-1.215,1.215
			C29.67,21.669,30.135,22.175,30.736,22.25z"/>
	</g>
	<path fill="#82509F" d="M40.017,34.936c2.426,5.993,5.693,13.576,5.693,13.576c0.283,0.709-0.168,0.973-0.973,0.973H24.322
		c-0.805,0-1.205-0.223-0.973-0.973c0,0,3.102-7.662,5.504-13.598C31.957,32.214,34.886,35.907,40.017,34.936z"/>
	<path opacity="0.4" fill="#FFFFFF" d="M33.314,40.25c-1.477,0-2.672,1.196-2.672,2.673s1.195,2.674,2.672,2.674
		c1.476,0,2.673-1.197,2.673-2.674S34.791,40.25,33.314,40.25z M38.417,38.548c0-0.671-0.543-1.216-1.215-1.216
		c-0.67,0-1.215,0.545-1.215,1.216s0.545,1.215,1.215,1.215C37.875,39.763,38.417,39.219,38.417,38.548z M39.876,43.167
		c-1.074,0-1.943,0.87-1.943,1.943c0,1.074,0.869,1.945,1.943,1.945s1.945-0.871,1.945-1.945
		C41.822,44.037,40.951,43.167,39.876,43.167z"/>
	<path fill="#FFFFFF" d="M35.746,15.945c-0.672,0-1.217,0.544-1.217,1.215s0.545,1.215,1.217,1.215c0.67,0,1.215-0.544,1.215-1.215
		S36.416,15.945,35.746,15.945z M32.344,12.543c-0.941,0-1.701,0.762-1.701,1.701c0,0.94,0.76,1.701,1.701,1.701
		c0.939,0,1.701-0.761,1.701-1.701C34.045,13.305,33.283,12.543,32.344,12.543z"/>
</g>
</svg>
