<?xml version="1.0" encoding="utf-8"?>
<!-- Generator: Adobe Illustrator 16.0.0, SVG Export Plug-In . SVG Version: 6.00 Build 0)  -->
<!DOCTYPE svg PUBLIC "-//W3C//DTD SVG 1.1//EN" "http://www.w3.org/Graphics/SVG/1.1/DTD/svg11.dtd">
<svg version="1.1" id="Layer_1" xmlns="http://www.w3.org/2000/svg" xmlns:xlink="http://www.w3.org/1999/xlink" x="0px" y="0px"
	 width="67.667px" height="67.333px" viewBox="0 0 67.667 67.333" enable-background="new 0 0 67.667 67.333" xml:space="preserve">
<g>
	<path fill="#F3BA4E" d="M32.695,3.065c17.181,0,31.109,13.928,31.109,31.109S49.876,65.283,32.695,65.283
		c-17.18,0-31.109-13.927-31.109-31.108C1.586,16.994,15.516,3.065,32.695,3.065z"/>
	<g>
		<defs>
			<circle id="SVGID_1_" cx="32.695" cy="34.174" r="31.109"/>
		</defs>
		<clipPath id="SVGID_2_">
			<use xlink:href="#SVGID_1_"  overflow="visible"/>
		</clipPath>
		<polygon clip-path="url(#SVGID_2_)" fill="#F3BA4E" points="-0.357,55.561 20.059,30.771 40.472,45.354 58.943,19.105 
			68.179,3.065 -0.357,3.065 		"/>
	</g>
	<path fill="#EBEFF0" d="M41.185,45.951l19.211-27.096l-2.166-1.207L39.621,43.895L21.465,31.201l-0.193,0.152l0.215-0.283
		l-1.688-1.683L5.961,47.559l1.688,1.682l12.391-16.269l20.542,14.645L41.185,45.951L41.185,45.951z"/>
	<path fill="#FFFFFF" d="M6.934,42.437c-2.953,0-5.348,2.395-5.348,5.347c0,2.953,2.395,5.348,5.348,5.348s5.348-2.395,5.348-5.348
		C12.281,44.832,9.887,42.437,6.934,42.437z M20.543,26.396c-2.953,0-5.346,2.394-5.346,5.347s2.393,5.347,5.346,5.347
		s5.348-2.394,5.348-5.347S23.496,26.396,20.543,26.396z M39.986,39.035c-2.953,0-5.346,2.394-5.346,5.347s2.393,5.347,5.346,5.347
		s5.348-2.394,5.348-5.347S42.939,39.035,39.986,39.035z M58.457,13.759c-2.953,0-5.346,2.394-5.346,5.347s2.393,5.347,5.346,5.347
		s5.348-2.394,5.348-5.347S61.41,13.759,58.457,13.759z"/>
</g>
</svg>
