<?xml version="1.0" encoding="utf-8"?>
<!-- Generator: Adobe Illustrator 16.0.0, SVG Export Plug-In . SVG Version: 6.00 Build 0)  -->
<!DOCTYPE svg PUBLIC "-//W3C//DTD SVG 1.1//EN" "http://www.w3.org/Graphics/SVG/1.1/DTD/svg11.dtd">
<svg version="1.1" id="Layer_1" xmlns="http://www.w3.org/2000/svg" xmlns:xlink="http://www.w3.org/1999/xlink" x="0px" y="0px"
	 width="42px" height="41px" viewBox="0 0 42 41" enable-background="new 0 0 42 41" xml:space="preserve">
<g>
	<path fill="none" stroke="#F4BB4E" stroke-miterlimit="10" d="M12.695,10.225c0,0-2.424,0-3.428,0S8.18,10.559,8.18,11.061
		c0,0.501,0,24.749,0,25.417c0,0.67,0.167,0.67,0.92,0.67s23.409,0,23.995,0s0.752-0.251,0.752-1.004c0-0.752,0-24.247,0-24.916
		s-0.501-1.003-1.002-1.003c-0.502,0-3.512,0-3.512,0"/>
	<polyline fill="none" stroke="#F4BB4E" stroke-miterlimit="10" points="14.953,23.687 18.966,27.448 26.992,19.255 	"/>
	<circle fill="none" stroke="#F4BB4E" stroke-miterlimit="10" cx="21.056" cy="7.131" r="1.756"/>
	<path fill="none" stroke="#F4BB4E" stroke-miterlimit="10" d="M12.946,8.887c0,0.819,0,1.589,0,2.425s0.418,1.588,1.337,1.588
		c0.92,0,11.957,0,13.211,0s1.505-0.819,1.505-2.007c0-1.188,0-1.086,0-2.006c0-0.919-0.753-1.756-2.007-1.756s-2.006,0-2.006,0
		s-0.336-3.679-4.014-3.679c-3.679,0-3.762,3.679-3.762,3.679s-1.172,0-2.258,0C13.866,7.131,12.946,8.069,12.946,8.887z"/>
</g>
</svg>
