<svg xmlns="http://www.w3.org/2000/svg" xmlns:xlink="http://www.w3.org/1999/xlink" version="1.1" id="Layer_1" x="0px" y="0px" width="100px" height="100px" viewBox="0 0 100 100" enable-background="new 0 0 100 100" xml:space="preserve">
<path fill="#000000" d="M66.846,32.183c-8.546-0.94-14.009,7.748-14.009,7.748l-0.279-0.042c0,0-5.465-8.688-14.011-7.751  c-8.543,0.94-25.214,11.15-5.742,29.27C52.279,79.529,47.654,74.177,52.558,78.92l0.279,0.044c4.903-4.742,0.28,0.609,19.753-17.513  C92.062,43.333,75.391,33.121,66.846,32.183z M67.552,46.42c-7.095,5.64-14.42,14.769-14.494,14.86l-2.44,3.054l-5.901-11.542  c-0.634-1.241-0.143-2.762,1.099-3.396c1.241-0.634,2.762-0.143,3.397,1.098l2.386,4.668c2.864-3.313,7.813-8.72,12.812-12.694  c1.091-0.867,2.68-0.686,3.547,0.405C68.825,43.964,68.643,45.552,67.552,46.42z"/>
</svg>