<svg xmlns="http://www.w3.org/2000/svg" xmlns:xlink="http://www.w3.org/1999/xlink" version="1.1" id="Layer_1" x="0px" y="0px" width="100px" height="100px" viewBox="0 0 100 100" enable-background="new 0 0 100 100" xml:space="preserve">
<g>
	<g>
		<circle fill="#000000" cx="18.212" cy="59.831" r="11.371"/>
	</g>
	<g>
		<path fill="#000000" d="M74.911,32.823c2.345-2.711,6.389-5.155,12.879-7.535c3.022-1.108,4.573-4.456,3.465-7.478    c-0.864-2.36-3.095-3.823-5.471-3.823c-0.666,0-1.345,0.115-2.007,0.357c-11.34,4.158-17.537,9.396-20.608,15.045    c1.961-0.199,3.896-0.255,5.668-0.255C71.475,29.134,73.766,30.634,74.911,32.823z"/>
		<path fill="#000000" d="M78.827,68.066c0.022-0.073,0.05-0.146,0.069-0.222c-0.021,0.074-0.047,0.146-0.07,0.22L78.827,68.066z"/>
		<path fill="#000000" d="M78.287,69.275c0.025-0.047,0.05-0.092,0.074-0.139l0,0C78.337,69.184,78.312,69.23,78.287,69.275z"/>
		<path fill="#000000" d="M78.243,69.354c-0.052,0.084-0.11,0.162-0.165,0.242C78.133,69.516,78.191,69.438,78.243,69.354z"/>
		<path fill="#000000" d="M78.953,64.982c0.027,0.121,0.048,0.242,0.066,0.363C79.001,65.225,78.98,65.104,78.953,64.982z"/>
		<path fill="#000000" d="M79.104,66.143c0.002,0.02,0,0.036,0,0.056C79.104,66.18,79.104,66.161,79.104,66.143z"/>
		<path fill="#000000" d="M79.059,65.562c0.012,0.09,0.017,0.179,0.022,0.269C79.074,65.741,79.07,65.652,79.059,65.562z"/>
		<path fill="#000000" d="M77.913,69.833c-0.042,0.055-0.088,0.104-0.132,0.157C77.825,69.938,77.872,69.888,77.913,69.833z"/>
		<path fill="#000000" d="M77.508,70.311c0.01-0.009,0.016-0.019,0.023-0.026c-0.039,0.042-0.083,0.081-0.123,0.122    C77.439,70.372,77.477,70.344,77.508,70.311z"/>
		<path fill="#000000" d="M75.688,54.38c-1.662-4.817-3.067-8.894-3.42-12.463c-1.01,0.587-2.179,0.929-3.431,0.929    c-3.76,0-5.932,0.367-7.108,0.687c0.513,1.02,1.582,2.742,3.818,5.348c2.23,2.599,4.932,5.29,7.604,7.854    c0.848,0.812,1.688,1.609,2.514,2.39c0.26,0.246,0.521,0.494,0.777,0.733l1.504,1.423C77.245,58.928,76.461,56.626,75.688,54.38z"/>
		<path fill="#000000" d="M68.459,71.182c0.496,0.49,1.064,0.902,1.688,1.221c-0.571-0.293-1.104-0.67-1.582-1.122L68.459,71.182z"/>
		<path fill="#000000" d="M69.779,70.958c-0.025-0.019-0.055-0.037-0.078-0.058C69.727,70.921,69.754,70.938,69.779,70.958z"/>
		<path fill="#000000" d="M70.331,71.322c-0.071-0.04-0.142-0.081-0.211-0.125C70.189,71.241,70.26,71.282,70.331,71.322z"/>
		<path fill="#000000" d="M78.361,69.138L78.361,69.138c0.193-0.343,0.348-0.702,0.466-1.069l-0.001-0.002    C78.707,68.439,78.552,68.799,78.361,69.138z"/>
		<path fill="#000000" d="M74.578,35.023c-0.043-0.258-0.098-0.512-0.174-0.757c-0.057-0.188-0.124-0.371-0.2-0.55    c-0.886-2.089-2.956-3.554-5.367-3.554c-1.937,0-4.075,0.067-6.22,0.323c-0.221,0.025-0.44,0.055-0.66,0.084    c-0.177,0.024-0.354,0.051-0.53,0.079c-5.161,0.794-10.133,2.818-12.11,7.796c-2.231,5.617,0.848,11.744,5.865,17.824    c1.012,1.228,2.101,2.45,3.243,3.67c1.923-0.453,3.634-1.168,5.034-2.11c0.148-0.101,0.294-0.205,0.438-0.312    c0.146-0.108,0.289-0.22,0.429-0.334c0.108-0.091,0.22-0.181,0.323-0.272c0.188-0.168,0.367-0.339,0.539-0.517    c0.828-0.863,1.942-1.34,3.142-1.34c0.815,0,1.603,0.229,2.282,0.648c-2.072-2.034-4.098-4.118-5.846-6.153    c-2.184-2.546-3.313-4.304-3.899-5.444c-0.267-0.519-0.421-0.91-0.509-1.188c0.101-0.045,0.223-0.093,0.359-0.144    c1.1-0.402,3.453-0.955,8.12-0.955c1.252,0,2.406-0.398,3.356-1.068c0.17-0.121,0.332-0.25,0.488-0.388    c0.192-0.17,0.375-0.353,0.545-0.546c0.893-1.024,1.438-2.359,1.438-3.825C74.664,35.66,74.631,35.339,74.578,35.023z"/>
		<path fill="#000000" d="M70.163,72.41c-0.006-0.002-0.013-0.005-0.017-0.008C70.15,72.405,70.157,72.408,70.163,72.41z"/>
		<path fill="#000000" d="M79.021,68.984c-0.015,0.031-0.025,0.062-0.039,0.092C78.996,69.047,79.008,69.016,79.021,68.984z"/>
		<path fill="#000000" d="M70.12,71.197c-0.115-0.075-0.229-0.155-0.341-0.239C69.891,71.041,70.004,71.122,70.12,71.197z"/>
		<path fill="#000000" d="M69.701,70.9c-0.141-0.108-0.278-0.229-0.411-0.353C69.422,70.672,69.559,70.79,69.701,70.9z"/>
		<path fill="#000000" d="M70.672,56.965c-0.053-0.052-0.115-0.088-0.173-0.135c-1.263-1.051-3.22-1.012-4.44,0.085    c-0.057,0.051-0.121,0.091-0.175,0.147c-0.372,0.388-0.782,0.748-1.226,1.09c-0.141,0.108-0.284,0.218-0.434,0.322    c-0.144,0.101-0.293,0.196-0.442,0.293c-1.32,0.851-2.873,1.516-4.597,1.973c-0.189,0.051-0.381,0.099-0.576,0.144    c-0.192,0.046-0.385,0.093-0.582,0.132c-1.483,0.303-3.071,0.461-4.73,0.461c-4.377,0-8.551-1.093-11.452-2.996    c-0.554-0.362-1.194-0.557-1.854-0.557c-1.147,0-2.208,0.573-2.835,1.53c-0.497,0.757-0.669,1.661-0.485,2.548    c0.184,0.885,0.701,1.646,1.458,2.143c3.995,2.621,9.526,4.125,15.18,4.125c3.666,0,7.129-0.634,10.17-1.81    c0.176-0.067,0.352-0.139,0.523-0.209c0.173-0.072,0.346-0.146,0.516-0.22c0.482-0.213,0.951-0.443,1.409-0.686    c0.154-0.082,0.312-0.16,0.464-0.244c0.154-0.086,0.303-0.182,0.454-0.271c1.476-0.876,2.8-1.903,3.927-3.077    c0.627-0.652,0.963-1.511,0.942-2.415C71.695,58.434,71.326,57.591,70.672,56.965z"/>
	</g>
</g>
<path fill="#000000" d="M78.156,63.124c-0.244-0.375-0.53-0.731-0.869-1.052l-1.012-0.956l-0.541-0.511  c-1.219-1.149-2.49-2.353-3.765-3.58c0.444,0.678,0.695,1.464,0.712,2.293c0.023,1.162-0.406,2.266-1.213,3.104  c-1.244,1.296-2.712,2.423-4.352,3.37c-0.152,0.089-0.309,0.175-0.463,0.26s-0.312,0.166-0.467,0.247  c-0.303,0.155-0.607,0.304-0.92,0.448c-0.168,0.077-0.332,0.158-0.502,0.232c-0.172,0.073-0.349,0.142-0.521,0.211  c-3.254,1.326-6.983,2.043-10.938,2.043c-5.837,0-11.562-1.561-15.71-4.282c-0.973-0.638-1.639-1.617-1.875-2.755  c-0.236-1.141-0.015-2.303,0.624-3.275c0.807-1.23,2.17-1.966,3.645-1.966c0.849,0,1.674,0.247,2.386,0.714  c2.707,1.776,6.789,2.837,10.92,2.837c1.377,0,2.697-0.116,3.944-0.331c-1.261-1.363-2.457-2.734-3.55-4.111  c-3.121-0.455-6.505-1.127-10.304-2.119c-1.911-0.672-3.366-1.08-4.127-1.102c-3.146-0.087-6.656,2.692-7.017,6.791  c-3.4,10.535,16.595,16.71,30.997,15.856h0.001c8.871,0,13.164-1.229,14.895-4.29c0.448-0.605,0.807-1.282,1.051-2.028  C79.854,67.121,79.441,64.841,78.156,63.124z"/>
</svg>