<svg xmlns="http://www.w3.org/2000/svg" xmlns:xlink="http://www.w3.org/1999/xlink" version="1.1" id="Layer_1" x="0px" y="0px" width="90.478px" height="100px" viewBox="0 0 90.478 100" enable-background="new 0 0 90.478 100" xml:space="preserve">
<path d="M53.771,0C33.499,0,17.06,16.436,17.06,36.709c0,20.271,16.439,36.709,36.712,36.709c20.273,0,36.706-16.438,36.706-36.709  C90.478,16.436,74.045,0,53.771,0z M38.7,41.429c0-2.441,1.979-4.437,4.44-4.437c2.455,0,4.44,1.996,4.44,4.437  c0,2.464-1.985,4.446-4.44,4.446C40.679,45.875,38.7,43.893,38.7,41.429z M53.31,67.591c-6.204,0-11.244-2.649-11.244-5.924H64.56  C64.56,64.941,59.527,67.591,53.31,67.591z M64.416,45.875c-2.454,0-4.446-1.982-4.446-4.446c0-2.441,1.992-4.437,4.446-4.437  c2.448,0,4.44,1.996,4.44,4.437C68.856,43.893,66.864,45.875,64.416,45.875z"/>
<path d="M81.096,91.289c0,4.805-8.385,8.711-18.73,8.711c-10.332,0-16.445-4.7-18.717-8.711c-2.278-4.011-0.032-0.013-0.032-0.013  c-3.112-3.737-5.944-6.367-9.089-8.398c-1.745,3.359-7.07,4.817-12.63,3.255c-6.068-1.726-10.065-6.406-8.919-10.449  c0.052-0.176,0.156-0.325,0.228-0.495c-3.574-0.904-7.617-1.907-12.279-3.138c-0.664-0.169-1.061-0.853-0.885-1.511  c0.176-0.657,0.853-1.061,1.51-0.872c9.863,2.571,6.992,1.888,12.806,3.75c2.331-2.39,6.927-3.301,11.692-1.946  c5.82,1.653,9.688,6.016,8.984,9.947c4.466,2.396,8.093,5.053,10.254,7.943c-0.032-0.026,0.013,0.025,0.013,0.025  c0-0.013,0.006-0.013,0.006-0.013c0.775,0.495,7.435,4.707,17.155,4.707C72.809,94.082,81.024,91.257,81.096,91.289z"/>
<path d="M56.643,92.604c-0.064,0.091-0.137,0.156-0.201,0.234c-0.104-0.014-0.215-0.026-0.319-0.053  c0.247-0.533,0.632-1.041-0.3-1.419c0.566,0.267,1.218,0.144,1.816,0.352c0.371,0.117,0.437,0.651,1.127,0.599  C58.043,92.266,57.346,92.474,56.643,92.604z"/>
<path d="M62.053,91.354c-1.113-0.456-1.334-1.811-0.579-2.748c-0.222,0.014-0.43,0.046-0.651,0.065  c0.014,0.449-0.149,1.048-0.267,1.562c-0.085,0.325,0.755,0.3,0.593,0.905c-0.215,0.813-1.107,1.321-1.914,1.302  c0.247,0.163,0.579,0.476,0.892,0.82c0.124,0,0.241,0.007,0.371,0.02C60.354,92.78,61.415,91.634,62.053,91.354z"/>
<path d="M64.684,92.278c0.228-0.228,0.332-0.664,0.475-0.95l-0.006-0.013c-0.534-0.072-0.983-0.365-1.191-0.859  c-0.117,0.201-0.234,0.403-0.352,0.611c0.879,0.02,1.465,0.795,0.748,1.472c0.449,0.286,0.554,0.437,0.775,0.729  c0.013,0,0.025,0,0.039,0C65.009,92.937,64.846,92.61,64.684,92.278z"/>
<path d="M54.638,89.544c-2.116-0.801,1.335-2.266,1.868-2.486c0.586-0.241,1.569-0.046,1.569,0.618c0,0.808-1.367,1.419-2.103,1.647  c1.152,0.221,0.898-0.312,1.478-0.586c0.43-0.209,1.113-0.391,1.478-0.664c0.222-0.17,0.085-0.515,0.358-0.859  c0.801-0.99,4.629-0.854,4.023,0.794c0.397,0.11,0.794,0.104,1.087-0.007c-0.579-1.529,1.908-1.399,2.761-1.282  c1.582,0.202,0.95,1.692-0.163,1.315c0,0.195,0.014,0.338,0.092,0.547c1.139-0.469,2.129-1.022,2.884-0.378  c0.56,0.469,0.847,1.159,0.476,1.706c0.156,0,0.306,0,0.455,0.013c-0.846-1.68,2.012-1.419,2.383-0.183  c1.921-1.367,1.713,1.967,1.752,1.85c-0.02-0.078,0.201,0.234,0.286,0.137c0.013,0.032,0.091,0.123,0.156,0.201  c3.294-0.689,5.325-1.367,5.358-1.354c-2.402-2.279-8.275-5.795-18.613-5.795c-7.924,0-13.881,1.908-17.175,3.881  c0.312,0.195,1.614,1.002,3.646,1.888c0.964-0.325,2.266-0.547,2.722-0.481c0.293-3.178,4.316,1.191,1.81,0.729  c0.339,0.515,0.202,0.996-0.182,1.303c0.104,0.02,0.234,0.052,0.338,0.078c0.358-0.3,0.756-0.561,1.094-0.717  C53.381,91.12,54.312,90.144,54.638,89.544z"/>
<path d="M72.795,90.403c-0.13,0.482-0.059,0.717,0.209,1.225c0.228-0.046,0.455-0.104,0.677-0.163  c-0.183-0.091-0.364-0.188-0.547-0.28C73.199,91.074,72.782,90.729,72.795,90.403z"/>
<path d="M69.631,91.628c-1.197-0.541,0.488-1.811,0.502-1.693c-0.072-0.117-1.706,0.651-2.37,0.769  c0.774-0.117,1.641,0.234,1.36,1.101c0.873-0.222,1.225,0.312,1.237,0.996c0.02,0,0.039,0,0.065-0.014  C70.445,92.317,70.387,91.953,69.631,91.628z"/>
</svg>