<svg xmlns="http://www.w3.org/2000/svg" xmlns:xlink="http://www.w3.org/1999/xlink" version="1.1" id="Layer_1" x="0px" y="0px" width="50px" height="50px" viewBox="0 0 50 50" enable-background="new 0 0 50 50" xml:space="preserve">
<g>
	<g>
		<circle fill="#000000" cx="683.798" cy="3613.543" r="2.722"/>
	</g>
	<g>
		<g>
			<polygon fill="#000000" points="667.215,3621.643 667.096,3621.664 666.981,3621.719    "/>
			<path fill="#000000" d="M670.965,3620.113l-0.005-0.049c-0.011-0.092-0.007-0.182-0.004-0.271l-3.86,1.87l0.119-0.021     l-0.233,0.076l0.114-0.055l-2.04,0.356l3.024,0.543l3.369-1.188l-0.468-1.217L670.965,3620.113z"/>
			<polygon fill="#000000" points="668.366,3623.15 668.148,3623.111 667.943,3623.18    "/>
			<path fill="#000000" d="M671.625,3621.965l-3.477,1.146l0.218,0.039l-0.423,0.029l0.205-0.068l-6.765-1.205l-0.287-0.051     l-0.26,0.135l-2.566,2.278l2.906-0.638l-0.095-0.018l0.548-0.082l-0.453,0.1l6.885,1.227l0.215,0.037l0.21-0.068l4.651-1.535     c-0.305-0.07-0.593-0.199-0.846-0.397C671.981,3622.648,671.759,3622.326,671.625,3621.965z"/>
			<polygon fill="#000000" points="661.082,3623.613 661.177,3623.631 661.63,3623.531    "/>
			<path fill="#000000" d="M671.732,3619.86c0,0.029-0.011,0.056-0.009,0.089l0.449,1.17l0.177-0.063L671.732,3619.86z"/>
			<path fill="#000000" d="M672.371,3621.719c0.085,0.22,0.207,0.422,0.397,0.572c0.283,0.225,0.635,0.324,0.993,0.283     c0,0,0.244-0.029,0.623-0.072l-0.43-1.305L672.371,3621.719z"/>
			<polygon fill="#000000" points="683.339,3617.053 683.33,3617.053 683.332,3617.061    "/>
			<path fill="#000000" d="M671.5,3621.475c0.004,0.025,0.013,0.051,0.017,0.076l0.007,0.018L671.5,3621.475z"/>
			<polygon fill="#000000" points="681.532,3616.273 681.544,3616.275 681.584,3616.265    "/>
			<path fill="#000000" d="M671.722,3619.978c-0.002-0.011,0.002-0.021,0.002-0.028l-0.024-0.066L671.722,3619.978z"/>
		</g>
		<g>
			<path fill="#000000" d="M689.647,3616.198l-6.232,1.229l-2.36,0.514c0.53,0.594,1.804,1.62,3.045,2.844l5.945-3.133l18.038,0.684     l0.203-1.105L689.647,3616.198z"/>
		</g>
	</g>
	<g>
		<polygon fill="#000000" points="691.565,3621.357 690.935,3620.948 690.396,3621.482   "/>
		<polygon fill="#000000" points="693.587,3618.316 690.935,3620.948 691.565,3621.357 690.396,3621.482 690.935,3620.948     688.235,3619.206 686.314,3620.191 690.555,3622.928 691.186,3623.338 691.723,3622.803 695.934,3618.412   "/>
		<g>
			<polygon fill="#000000" points="686.488,3621.979 685.934,3621.525 685.3,3622.035    "/>
			<polygon fill="#000000" points="690.111,3618.184 685.934,3621.525 686.488,3621.979 685.3,3622.035 685.934,3621.525      685.078,3620.828 684.02,3621.371 683.688,3621.107 680.273,3617.859 679.446,3619.011 685.367,3623.475 685.985,3623.939      686.559,3623.42 692.289,3618.254    "/>
			<polygon fill="#000000" points="680.706,3617.256 680.336,3617.771 681.089,3617.568    "/>
			<polygon fill="#000000" points="680.216,3617.803 680.273,3617.859 680.336,3617.771    "/>
			<g>
				<path fill="#000000" d="M680.336,3617.771l0.753-0.203c0,0,1.638-0.379,1.838-0.432c-0.217-0.555-0.764-0.928-1.383-0.861      l-8.585,2.189l-0.025,0.008l-0.024,0.002c-0.701,0.082-1.198,0.693-1.177,1.386l0.617,1.196l-0.177,0.063l0.067,0.175      l0.018,0.044l0.005,0.049c0.013,0.117,0.065,0.225,0.108,0.332l1.584-0.521l0.43,1.305c1.93-0.225,7.768-0.906,7.77-0.906      c0.201-0.021,0.386-0.109,0.557-0.223l-1.261-2.396l-1.177-1.118L680.336,3617.771z"/>
			</g>
		</g>
	</g>
</g>
<g>
	<g>
		<polygon fill="#000000" points="25.118,25.173 28.93,18.076 27.532,18.723 37.326,20.807 37.861,18.296 28.067,16.213     27.126,16.012 26.668,16.861 21.934,25.617   "/>
	</g>
	<path fill="#000000" d="M34.412,23.604c0,1.894-1.538,3.43-3.434,3.43c-1.893,0-3.431-1.536-3.431-3.43   c0-1.895,1.538-3.432,3.431-3.432C32.874,20.173,34.412,21.709,34.412,23.604z"/>
	<g>
		<path fill="#000000" d="M25.658,25.398l0.604-0.467l0.564,0.511l0.806,0.728c-0.359-1.51-1.712-2.493-3.051-2.196l-6.973,1.535    l3.545,3.384L25.658,25.398z"/>
		<path fill="#000000" d="M23.388,29.463c1.318,0.056,2.422,0.092,2.422,0.092c0.67-0.147,1.21-0.588,1.542-1.182l-1.181-1.069    L23.388,29.463z"/>
		<path fill="#000000" d="M15.397,28.25c0.003,0.217,0.022,0.437,0.071,0.659c0.696-0.969,2.336-0.201,3.215,0.141L16.534,27    L15.397,28.25z"/>
	</g>
	<g>
		<path fill="#000000" d="M1.369,28.351c0.357,0.977,1.122,2.253,2.6,4.573l0.676,1.064l0.796-0.98    c1.352-1.665,3.447-4.387,3.468-4.415l-1.347,0.104l4.289,4.081l0.674,0.643l0.625-0.689l4.187-4.604l-1.303,0.047l4.604,4.394    l0.566,0.542l0.62-0.481l5.125-3.975l-1.165-0.044l4.395,3.974l0.576,0.522l0.605-0.487l4.918-3.978l-1.214-0.063l3.976,3.976    l0.607,0.605l0.639-0.569l4.602-4.081L43.6,28.43l3.663,4.184l1.367-1.197l-3.664-4.186l-0.603-0.688L43.68,27.15l-4.602,4.08    l1.246,0.036l-3.977-3.974l-0.58-0.58l-0.636,0.516l-4.917,3.976l1.182,0.033l-4.396-3.976l-0.563-0.512l-0.604,0.467    l-5.125,3.975l1.186,0.063l-4.604-4.395l-0.673-0.645l-0.627,0.689l-4.186,4.605l1.299-0.049l-4.287-4.079l-0.732-0.698    l-0.616,0.802c-0.02,0.026-2.102,2.729-3.438,4.377l1.472,0.085c-1.343-2.111-2.127-3.409-2.422-4.219L1.369,28.351z"/>
	</g>
</g>
</svg>