<svg xmlns="http://www.w3.org/2000/svg" xmlns:xlink="http://www.w3.org/1999/xlink" version="1.1" id="Layer_1" x="0px" y="0px" width="100px" height="100px" viewBox="102.242 329.481 100 100" enable-background="new 102.242 329.481 100 100" xml:space="preserve">
<circle stroke="#000000" stroke-width="2" stroke-miterlimit="10" cx="136.337" cy="340.37" r="1.999"/>
<circle stroke="#000000" stroke-width="2" stroke-miterlimit="10" cx="150.592" cy="360.22" r="1.998"/>
<circle stroke="#000000" stroke-width="2" stroke-miterlimit="10" cx="156.854" cy="354.092" r="1.998"/>
<circle stroke="#000000" stroke-width="2" stroke-miterlimit="10" cx="144.863" cy="354.092" r="1.998"/>
<circle stroke="#000000" stroke-width="2" stroke-miterlimit="10" cx="161.383" cy="347.164" r="1.998"/>
<circle stroke="#000000" stroke-width="2" stroke-miterlimit="10" cx="140.866" cy="347.164" r="1.998"/>
<circle stroke="#000000" stroke-width="2" stroke-miterlimit="10" cx="166.18" cy="340.37" r="1.999"/>
<line fill="none" stroke="#000000" stroke-width="2" stroke-miterlimit="10" x1="136.378" y1="340.418" x2="166.221" y2="340.418"/>
<line fill="none" stroke="#000000" stroke-width="2" stroke-miterlimit="10" x1="140.907" y1="347.212" x2="161.424" y2="347.212"/>
<line fill="none" stroke="#000000" stroke-width="2" stroke-miterlimit="10" x1="144.904" y1="354.14" x2="156.895" y2="354.14"/>
<ellipse stroke="#000000" stroke-width="2" stroke-miterlimit="10" cx="136.337" cy="378.428" rx="1.998" ry="1.836"/>
<ellipse stroke="#000000" stroke-width="2" stroke-miterlimit="10" cx="150.592" cy="360.191" rx="1.998" ry="1.836"/>
<ellipse stroke="#000000" stroke-width="2" stroke-miterlimit="10" cx="156.854" cy="365.822" rx="1.998" ry="1.836"/>
<ellipse stroke="#000000" stroke-width="2" stroke-miterlimit="10" cx="144.863" cy="365.822" rx="1.998" ry="1.836"/>
<ellipse stroke="#000000" stroke-width="2" stroke-miterlimit="10" cx="161.383" cy="372.186" rx="1.998" ry="1.836"/>
<ellipse stroke="#000000" stroke-width="2" stroke-miterlimit="10" cx="140.866" cy="372.186" rx="1.998" ry="1.836"/>
<ellipse stroke="#000000" stroke-width="2" stroke-miterlimit="10" cx="166.18" cy="378.428" rx="1.998" ry="1.836"/>
<line fill="none" stroke="#000000" stroke-width="2" stroke-miterlimit="10" x1="136.378" y1="378.387" x2="166.221" y2="378.387"/>
<line fill="none" stroke="#000000" stroke-width="2" stroke-miterlimit="10" x1="140.907" y1="372.126" x2="161.424" y2="372.126"/>
<line fill="none" stroke="#000000" stroke-width="2" stroke-miterlimit="10" x1="144.904" y1="365.731" x2="156.895" y2="365.731"/>
<circle stroke="#000000" stroke-width="2" stroke-miterlimit="10" cx="150.459" cy="398.457" r="1.999"/>
<circle stroke="#000000" stroke-width="2" stroke-miterlimit="10" cx="156.721" cy="392.329" r="1.998"/>
<circle stroke="#000000" stroke-width="2" stroke-miterlimit="10" cx="144.73" cy="392.329" r="1.998"/>
<circle stroke="#000000" stroke-width="2" stroke-miterlimit="10" cx="161.25" cy="385.401" r="1.998"/>
<circle stroke="#000000" stroke-width="2" stroke-miterlimit="10" cx="140.733" cy="385.401" r="1.998"/>
<line fill="none" stroke="#000000" stroke-width="2" stroke-miterlimit="10" x1="140.774" y1="385.449" x2="161.291" y2="385.449"/>
<line fill="none" stroke="#000000" stroke-width="2" stroke-miterlimit="10" x1="144.771" y1="392.376" x2="156.762" y2="392.376"/>
<ellipse stroke="#000000" stroke-width="2" stroke-miterlimit="10" cx="136.203" cy="418.714" rx="1.998" ry="2.036"/>
<ellipse stroke="#000000" stroke-width="2" stroke-miterlimit="10" cx="150.459" cy="398.494" rx="1.998" ry="2.036"/>
<ellipse stroke="#000000" stroke-width="2" stroke-miterlimit="10" cx="156.721" cy="404.737" rx="1.998" ry="2.035"/>
<ellipse stroke="#000000" stroke-width="2" stroke-miterlimit="10" cx="144.73" cy="404.737" rx="1.998" ry="2.035"/>
<ellipse stroke="#000000" stroke-width="2" stroke-miterlimit="10" cx="161.25" cy="411.793" rx="1.998" ry="2.035"/>
<ellipse stroke="#000000" stroke-width="2" stroke-miterlimit="10" cx="140.733" cy="411.793" rx="1.999" ry="2.035"/>
<ellipse stroke="#000000" stroke-width="2" stroke-miterlimit="10" cx="166.047" cy="418.714" rx="1.998" ry="2.036"/>
<line fill="none" stroke="#000000" stroke-width="2" stroke-miterlimit="10" x1="136.245" y1="418.623" x2="166.088" y2="418.623"/>
<line fill="none" stroke="#000000" stroke-width="2" stroke-miterlimit="10" x1="140.774" y1="411.694" x2="161.291" y2="411.694"/>
<line fill="none" stroke="#000000" stroke-width="2" stroke-miterlimit="10" x1="144.771" y1="404.633" x2="156.762" y2="404.633"/>
<ellipse stroke="#000000" stroke-width="2" stroke-miterlimit="10" cx="160.717" cy="425.116" rx="1.998" ry="2.036"/>
<ellipse stroke="#000000" stroke-width="2" stroke-miterlimit="10" cx="140.2" cy="425.116" rx="1.999" ry="2.036"/>
<line fill="none" stroke="#000000" stroke-width="2" stroke-miterlimit="10" x1="140.241" y1="425.018" x2="160.758" y2="425.018"/>
<ellipse stroke="#000000" stroke-width="2" stroke-miterlimit="10" cx="160.717" cy="334.388" rx="1.998" ry="2.036"/>
<ellipse stroke="#000000" stroke-width="2" stroke-miterlimit="10" cx="140.2" cy="334.388" rx="1.999" ry="2.036"/>
<line fill="none" stroke="#000000" stroke-width="2" stroke-miterlimit="10" x1="140.241" y1="334.289" x2="160.758" y2="334.289"/>
</svg>