<svg xmlns="http://www.w3.org/2000/svg" xmlns:xlink="http://www.w3.org/1999/xlink" version="1.1" x="0px" y="0px" width="100px" height="100px" viewBox="0 0 100 100" enable-background="new 0 0 100 100" xml:space="preserve">
<g id="Captions" display="none">
</g>
<g id="Your_Icon">
	<g>
		<path d="M61.895,7.907L57.141,5H43.658l-4.264,2.907C33.307,7.987,28,12.779,28,18.236V61.26c0,4.563,3.629,8.796,8.229,10.227    c1.781,1.271,4.27,2.408,7.677,2.757c0,0,2.532,1.923,2.98,5.923c0,0,0.896,2.259,2.629,2.739c0.059,1.191,0.509,5.328,3.9,8.614    c2.863,2.774,7.013,4.176,12.348,4.176c0.445,0,0.9-0.01,1.361-0.029l-0.084-1.998c-5.41,0.231-9.519-0.971-12.212-3.563    c-2.801-2.698-3.24-6.179-3.309-7.207c1.717-0.502,2.604-2.776,2.604-2.776c0.448-4,2.876-6.37,2.876-6.37    c2.717-0.278,4.792-1.014,6.374-1.899C68.255,71.033,72,66.602,72,61.26V18.236C72,12.491,67.573,7.981,61.895,7.907z M69,27v11    h-8v1h8v10h-8v1h8v11h-8v1h7.982c-0.069,1.756-0.578,3.51-1.464,5H32.973C31.758,65.422,31,63.527,31,61.585V19.928    C31,15.172,35.472,11,40.569,11h20.229C65.475,11,69,14.838,69,19.928V26h-8v1H69z M71,61.26c0,3.211-1.488,6.055-3.771,7.83    C68.944,67.208,70,64.563,70,61.585V19.928C70,14.268,66.044,10,60.799,10H40.569C34.938,10,30,14.639,30,19.928v41.657    c0,2.676,1.219,5.231,3.109,7.143C30.67,66.877,29,64.115,29,61.26V18.236C29,13.266,33.931,9,39.551,9h0.154l4.262-3h12.893    l4.752,3h0.141C66.938,9,71,13.005,71,18.236V61.26z"/>
		<circle cx="50.844" cy="7.969" r="1.219"/>
	</g>
</g>
</svg>