<svg xmlns="http://www.w3.org/2000/svg" xmlns:xlink="http://www.w3.org/1999/xlink" version="1.0" x="0px" y="0px" width="100px" height="67.395px" viewBox="0 0 100 67.395" overflow="visible" enable-background="new 0 0 100 67.395" xml:space="preserve">
    <path d="M96.543,32.133l-24.951-0.753l-7.249,17.345c-0.534,1.41-1.966,2.206-3.387,2.009c-1.64-0.118-2.938-1.484-2.938-3.157 V20.034L40.625,65.327c-0.171,0.439-0.427,0.816-0.743,1.133c-0.016,0.011-0.026,0.021-0.042,0.032 c-0.042,0.049-0.091,0.091-0.144,0.133c-0.551,0.477-1.277,0.771-2.067,0.771c-1.747,0-3.168-1.422-3.168-3.17V35.492 l-1.944,4.648c-0.535,1.415-1.971,2.217-3.414,2.009L1.485,40.167C0.667,40.167,0,39.504,0,38.681 c0-0.816,0.667-1.479,1.485-1.479l25.951-1.309l7.217-17.287c0.625-1.635,2.452-2.458,4.087-1.833 c1.052,0.4,1.763,1.303,1.976,2.329c0.048,0.235,0.08,0.476,0.08,0.721v27.371L58.141,2.031 c0.561-1.469,2.104-2.276,3.602-1.966c1.483,0.256,2.617,1.554,2.617,3.114v29.085l2.115-5.074 c0.512-1.336,1.838-2.131,3.199-2.03l26.869-0.043c1.94,0,3.511,1.571,3.511,3.504C100,30.562,98.483,32.133,96.543,32.133 z"/>
</svg>