<svg xmlns="http://www.w3.org/2000/svg" xmlns:xlink="http://www.w3.org/1999/xlink" version="1.1" id="Layer_1" x="0px" y="0px" width="100px" height="87.501px" viewBox="0 0 100 87.501" enable-background="new 0 0 100 87.501" xml:space="preserve">
<path d="M75.982,0C62.499,0,57.894,6.251,50,15.296C42.107,6.251,37.495,0,24.011,0C9.541,0,0,9.541,0,23.848  c0,8.391,3.784,17.766,12.499,26.317L50,87.501l37.501-37.336C96.216,41.614,100,32.239,100,23.848C100,9.541,90.46,0,75.982,0z   M65.973,24.291c3.067,0,5.555,2.487,5.555,5.556c0,3.068-2.487,5.555-5.555,5.555c-3.068,0-5.556-2.487-5.556-5.555  C60.417,26.778,62.904,24.291,65.973,24.291z M34.028,24.291c3.067,0,5.556,2.487,5.556,5.556c0,3.068-2.488,5.555-5.556,5.555  s-5.556-2.487-5.556-5.555C28.472,26.778,30.96,24.291,34.028,24.291z M75,49.985l-9.723,9.729c0,0-6.944,6.945-15.277,6.945  c-8.333,0-15.278-6.945-15.278-6.945L25,49.985c-1.389-1.39-1.47-2.005-1.389-2.778c0.184-1.761,2.225-2.793,6.944-1.389  c6.612,1.968,15.392,4.167,19.444,4.167c4.053,0,12.832-2.199,19.444-4.167c4.72-1.404,6.76-0.372,6.944,1.389  C76.471,47.98,76.389,48.596,75,49.985z"/>
</svg>