<svg xmlns="http://www.w3.org/2000/svg" xmlns:xlink="http://www.w3.org/1999/xlink" version="1.1" id="Your_Icon" x="0px" y="0px" width="100px" height="100px" viewBox="0 0 100 100" enable-background="new 0 0 100 100" xml:space="preserve">
<g>
	<ellipse cx="32.845" cy="53.499" rx="10.438" ry="10.875"/>
	<path d="M22.782,16.624l5.375,2.75l-2.375,3.25c0,0,0.9,2.137,1.125,2.875c0.336,1.103,0.893,3.353,1,4.5   c0.094,0.996,0.063,3.018-0.125,4c-0.225,1.175-0.992,3.484-1.625,4.5c-0.666,1.069-2.454,2.922-3.5,3.625   c-0.978,0.657-3.259,1.373-4.375,1.75c-0.553,0.187-1.828,0.222-2.25,0.625c-0.543,0.52-0.698,2.145-0.875,2.875   c-0.247,1.019-0.599,3.088-0.75,4.125c-0.123,0.84-0.401,2.526-0.375,3.375c0.045,1.458,0.625,4.34,1,5.75   c0.456,1.718,1.832,5.062,2.875,6.5c0.74,1.021,2.72,2.646,3.75,3.375c1.336,0.944,4.277,2.411,5.75,3.125   c1.285,0.623,3.871,1.878,5.25,2.25c1.604,0.433,4.968,0.608,6.625,0.5c1.37-0.09,4.121-0.566,5.375-1.125   c1.154-0.515,3.087-2.262,3.875-3.25c0.94-1.181,2.216-3.964,2.75-5.375c0.604-1.599,1.76-4.83,2.125-6.5   c0.155-0.708-0.121-3.877,0.5-4.25c0.458-0.275,1.752-0.161,2.218,0.1c0.311,0.174,0.943-0.078,1.084,0.25   c0.344,0.81-0.534,5.282-0.677,6.15c-0.262,1.593-1.058,4.738-1.625,6.25c-0.417,1.112-1.457,3.268-2.125,4.25   c-0.447,0.659-1.536,1.839-2.125,2.375c-0.661,0.602-2.09,1.697-2.875,2.125c-1.085,0.592-3.427,1.447-4.625,1.75   c-0.917,0.231-2.805,0.466-3.75,0.5c-1.564,0.057-4.714-0.074-6.25-0.375c-1.475-0.289-4.345-1.218-5.75-1.75   c-1.125-0.426-4.375-2-4.375-2s-2.693-1.396-3.5-2c-0.973-0.729-2.734-2.431-3.5-3.375c-0.742-0.916-1.929-2.969-2.5-4   c-0.447-0.808-1.384-2.403-1.75-3.25c-0.392-0.907-1.01-2.791-1.25-3.75c-0.27-1.076-0.613-3.273-0.75-4.375   c-0.101-0.809-0.358-2.442-0.25-3.25c0.062-0.461,0.625-1.75,0.625-1.75l-5.375-0.875l2.25-4.625l3.625,2.375l2-3.75   c0,0-1.45-2.186-1.75-3c-0.307-0.834-0.563-2.613-0.625-3.5c-0.059-0.842-0.001-2.54,0.125-3.375   c0.126-0.832,0.576-2.464,0.875-3.25c0.323-0.849,1.131-2.487,1.625-3.25c0.482-0.745,2.25-2.75,2.25-2.75s2.489-1.491,3.375-1.875   c0.753-0.326,3.125-1,3.125-1L22.782,16.624z"/>
	<ellipse fill="#000000" cx="33.157" cy="53.812" rx="6.5" ry="6.313"/>
	<path d="M38.907,63.249l3.625,5.75l-3,1.375l3,4.625c0,0,3.846,2.054,5.25,2.375c1.249,0.285,3.874,0.404,5.125,0.125   c1.568-0.351,3.61-1.509,4.875-2.5c0.646-0.506,2.686-3.242,3-4c0.577-1.39,0.476-3.37,0.5-4.875c0.03-1.846-0.407-9.65-0.407-9.65   l4.167-0.166c0,0-0.301,7.536-0.385,9.191c-0.068,1.355-0.354,4.077-0.75,5.375c-0.375,1.23-1.504,3.578-2.25,4.625   c-0.744,1.044-2.511,2.991-3.625,3.625c-1.653,0.94-5.473,1.837-7.375,1.875c-1.66,0.033-6.5-1.375-6.5-1.375l-3-1.625l-2.75-2.125   l-3.125-4.375l-5,1v-7.75l3.5-0.5l3.25-0.75L38.907,63.249z"/>
	<path d="M51.157,55.499l-1.25-5.5l-3.5-14.125l-1.625-7.875l7.5-3.625l8-2.375l7.125-0.125l8.875,0.125l2.375-0.125   c0,0,2.278,20.646,0,27c-0.402,1.123-2.161,2.868-3.032,3.684c-0.92,0.861-2.939,2.434-4.093,2.941   c-1.257,0.553-5.375,1.125-5.375,1.125l-7.375-0.125l-6-0.375L51.157,55.499z"/>
	<path d="M80.375,29.474h1.75l4.75,0.375L91,29.974l6,0.375l-4.125,27.375l-26.083-1.166c0,0,7.457-2.833,9.458-4.584   c1.045-0.914,2.545-3.401,2.875-4.75c0.431-1.762,0.25-7.25,0.25-7.25l-0.125-5.5l-0.125-4.875L80.375,29.474z"/>
	<path fill="#000000" d="M80.134,30h1.691l4.593,0.362l3.988,0.121l5.802,0.362L92.22,57.25L67,56.125c0,0,7.21-2.732,9.145-4.422   c1.011-0.881,2.461-3.281,2.78-4.582c0.416-1.699,0.241-6.993,0.241-6.993l-0.12-5.305l-0.121-4.703L80.134,30z"/>
	<polygon points="30.782,52.749 34.407,56.124 36.782,50.749  "/>
	
		<ellipse transform="matrix(0.9077 -0.4196 0.4196 0.9077 -14.6285 32.5286)" fill="#000000" cx="66.625" cy="49.516" rx="11.417" ry="3.624"/>
</g>
</svg>