<svg xmlns="http://www.w3.org/2000/svg" xmlns:xlink="http://www.w3.org/1999/xlink" version="1.1" id="Layer_1" x="0px" y="0px" width="100px" height="100px" viewBox="0 0 100 100" enable-background="new 0 0 100 100" xml:space="preserve">
<path d="M44.712,37.981h-1.738h-1.765v-1.518v-1.986c0-0.789-0.641-1.43-1.431-1.43h-8.013c-0.79,0-1.43,0.641-1.43,1.43v1.986  v1.518h-1.383h-2.121c-0.792,0-1.431,0.641-1.431,1.431v8.013c0,0.791,0.64,1.431,1.431,1.431h2.121h1.383V50v2.359  c0,0.791,0.641,1.432,1.43,1.432h8.013c0.791,0,1.431-0.641,1.431-1.432V50v-1.144h1.765h1.738c0.792,0,1.431-0.64,1.431-1.431  v-8.013C46.143,38.622,45.503,37.981,44.712,37.981z M43.282,45.993h-0.308h-3.196h-1.431v1.432V50v0.929h-5.151V50v-2.575v-1.432  h-1.431h-2.813h-0.69v-5.151h0.69h2.813h1.431v-1.43v-2.949v-0.555h5.151v0.555v2.949v1.43h1.431h3.196h0.308V45.993z"/>
<path d="M90.079,73.919h-6.31V46.431c0-0.791-0.641-1.432-1.431-1.432H54.85V24.65c0-0.79-0.641-1.431-1.431-1.431H18.124  c-0.792,0-1.432,0.641-1.432,1.431v49.27H9.919c-0.79,0-1.429,0.641-1.429,1.43c0,0.791,0.64,1.432,1.429,1.432h7.741  c0.079,0,0.155-0.011,0.232-0.023c0.075,0.012,0.151,0.023,0.231,0.023h35.294h7.231c0.791,0,1.431-0.641,1.431-1.432V62.321h11.597  V75.35c0,0.791,0.64,1.432,1.431,1.432h7.23h7.741c0.789,0,1.43-0.641,1.43-1.432C91.509,74.561,90.868,73.919,90.079,73.919z   M19.554,26.08h32.434v20.351v27.488H19.554V26.08z M75.108,59.459H60.649c-0.791,0-1.431,0.641-1.431,1.432v13.028H54.85V47.861  h26.059v26.058h-4.37V60.891C76.539,60.101,75.898,59.459,75.108,59.459z"/>
</svg>