<?xml version="1.0" encoding="utf-8"?>
<!-- Generator: Adobe Illustrator 16.0.0, SVG Export Plug-In . SVG Version: 6.00 Build 0)  -->
<!DOCTYPE svg PUBLIC "-//W3C//DTD SVG 1.1//EN" "http://www.w3.org/Graphics/SVG/1.1/DTD/svg11.dtd">
<svg version="1.1" id="Layer_1" xmlns="http://www.w3.org/2000/svg" xmlns:xlink="http://www.w3.org/1999/xlink" x="0px" y="0px"
	 width="154.359px" height="133.912px" viewBox="0 0 154.359 133.912" enable-background="new 0 0 154.359 133.912"
	 xml:space="preserve">
<g>
	<path fill="#A9D384" d="M44.606,53.814h14.116V39.698H44.606V53.814z M64.773,39.698v4.033h56.467v-4.033H64.773z M64.773,49.781
		h36.297v-4.035H64.773V49.781z"/>
	<path fill="#A9D384" d="M44.606,78.015h14.116V63.898H44.606V78.015z M64.773,63.898v4.033h56.467v-4.033H64.773z M64.773,73.981
		h46.383v-4.034H64.773V73.981z"/>
	<path fill="#A9D384" d="M44.606,102.216h14.116V88.099H44.606V102.216z M64.773,88.099v4.033h56.467v-4.033H64.773z M64.773,98.185
		h36.297v-4.037H64.773V98.185z"/>
	<path fill="#A9D384" d="M44.606,126.416h14.116v-14.117H44.606V126.416z M64.773,112.299v4.034h56.467v-4.034H64.773z
		 M64.773,122.381h46.383v-4.032H64.773V122.381z"/>
	<g>
		<path fill="#FAAA2C" d="M71.063,24.214l2.146-2.266c1.188-1.25,0.39-3.932-1.779-5.991c-2.173-2.058-4.893-2.711-6.079-1.46
			l-2.146,2.262L71.063,24.214z"/>
		<path fill="#FAAA2C" d="M53.455,42.775c0,0-0.895,0.008-1.113-0.2l-6.475-6.14c-0.229-0.216-0.27-1.116-0.27-1.116l14.17-14.937
			l7.857,7.453L53.455,42.775z"/>
		<path fill="#FAAA2C" d="M53.028,43.227l-2.051-1.945l14.601-15.394l2.049,1.947L53.028,43.227z"/>
		<path fill="#FAAA2C" d="M47.218,37.716l-2.05-1.944l14.601-15.39l2.053,1.942L47.218,37.716z"/>
		<path fill="#FFFFFF" stroke="#FAAA2C" stroke-width="0.4443" stroke-miterlimit="10" d="M67.522,27.738l-7.604-7.213l3.438-3.624
			l7.604,7.214L67.522,27.738z"/>
		<path fill="#FFFFFF" stroke="#FAAA2C" stroke-width="0.4517" stroke-miterlimit="10" d="M42.228,46.744
			c-0.498-0.485,2.515-10.508,3.153-11.197c0.305-0.317,1.586,1.104,2.165,2.205c0.793,0.224,1.978,0.431,2.58,1.005
			c0.765,0.722,1.027,1.52,1.16,2.587c1.137,0.474,2.253,1.342,1.957,1.654C52.597,43.663,42.752,47.233,42.228,46.744z"/>
		<path fill="#FAAA2C" d="M42.228,46.744c0.154,0.143,1.113-0.062,2.404-0.442c0.263-0.685,0.192-1.389-0.26-1.819
			c-0.45-0.429-1.153-0.464-1.823-0.168C42.24,45.628,42.08,46.601,42.228,46.744z"/>
	</g>
</g>
</svg>
