<?xml version="1.0" encoding="utf-8"?>
<!-- Generator: Adobe Illustrator 16.0.0, SVG Export Plug-In . SVG Version: 6.00 Build 0)  -->
<!DOCTYPE svg PUBLIC "-//W3C//DTD SVG 1.1//EN" "http://www.w3.org/Graphics/SVG/1.1/DTD/svg11.dtd">
<svg version="1.1" id="Layer_1" xmlns="http://www.w3.org/2000/svg" xmlns:xlink="http://www.w3.org/1999/xlink" x="0px" y="0px"
	 width="154.359px" height="133.912px" viewBox="0 0 154.359 133.912" enable-background="new 0 0 154.359 133.912"
	 xml:space="preserve">
<g>
	<path fill="#A9D384" d="M44.606,53.814h14.116V39.698H44.606V53.814z M64.773,39.698v4.033h56.467v-4.033H64.773z M64.773,49.781
		h36.297v-4.035H64.773V49.781z"/>
	<path fill="#A9D384" d="M44.606,78.015h14.116V63.898H44.606V78.015z M64.773,63.898v4.033h56.467v-4.033H64.773z M64.773,73.981
		h46.383v-4.034H64.773V73.981z"/>
	<path fill="#A9D384" d="M44.606,102.216h14.116V88.099H44.606V102.216z M64.773,88.099v4.033h56.467v-4.033H64.773z M64.773,98.185
		h36.297v-4.037H64.773V98.185z"/>
	<path fill="#A9D384" d="M44.606,126.416h14.116v-14.117H44.606V126.416z M64.773,112.299v4.034h56.467v-4.034H64.773z
		 M64.773,122.381h46.383v-4.032H64.773V122.381z"/>
	<path fill="#4787C7" d="M69.908,30.351c-0.844-0.831-2.075-0.72-2.917,0.023c-4.116,3.631-8.233,7.244-12.349,10.865
		c-1.088,0.957-2.177,1.914-3.266,2.874c-1.452-1.65-2.903-3.413-4.355-5.104c-0.733-0.854-2.18-0.708-2.918,0.043
		c-0.838,0.854-0.707,2.085,0.024,2.938c1.871,2.18,3.743,4.361,5.615,6.54c0.77,0.896,2.131,0.67,2.917-0.024
		c1.647-1.453,3.294-2.906,4.94-4.358c4.104-3.621,8.208-7.242,12.312-10.863c0.007-0.005,0.012-0.011,0.021-0.017
		C70.777,32.524,70.667,31.097,69.908,30.351z M49.738,45.557c-0.006,0.005-0.014-0.022-0.021-0.022c0.015,0,0.031,0,0.046,0
		C49.755,45.542,49.746,45.55,49.738,45.557z"/>
	<g>
		<path fill="#FAAA2C" d="M77.656,55.092l2.147-2.266c1.188-1.25,0.389-3.932-1.779-5.991c-2.172-2.058-4.894-2.711-6.081-1.46
			l-2.146,2.262L77.656,55.092z"/>
		<path fill="#FAAA2C" d="M60.049,73.653c0,0-0.895,0.008-1.112-0.199l-6.476-6.141c-0.229-0.216-0.27-1.116-0.27-1.116L66.36,51.26
			l7.859,7.453L60.049,73.653z"/>
		<path fill="#FAAA2C" d="M59.621,74.104l-2.051-1.943l14.601-15.395l2.05,1.947L59.621,74.104z"/>
		<path fill="#FAAA2C" d="M53.811,68.595l-2.05-1.944l14.599-15.39l2.053,1.942L53.811,68.595z"/>
		<path fill="#FFFFFF" stroke="#FAAA2C" stroke-width="0.4443" stroke-miterlimit="10" d="M74.115,58.616l-7.604-7.213l3.438-3.624
			l7.604,7.214L74.115,58.616z"/>
		<path fill="#FFFFFF" stroke="#FAAA2C" stroke-width="0.4517" stroke-miterlimit="10" d="M48.821,77.622
			c-0.498-0.484,2.515-10.507,3.154-11.196c0.304-0.317,1.586,1.104,2.165,2.204c0.793,0.225,1.977,0.432,2.58,1.006
			c0.764,0.721,1.026,1.521,1.159,2.588c1.138,0.474,2.253,1.342,1.957,1.653C59.19,74.541,49.345,78.112,48.821,77.622z"/>
		<path fill="#FAAA2C" d="M48.821,77.622c0.155,0.143,1.114-0.061,2.405-0.441c0.262-0.686,0.191-1.389-0.261-1.818
			c-0.449-0.43-1.153-0.465-1.822-0.168C48.834,76.507,48.674,77.479,48.821,77.622z"/>
	</g>
</g>
</svg>
