<?xml version="1.0" encoding="utf-8"?>
<!-- Generator: Adobe Illustrator 16.0.0, SVG Export Plug-In . SVG Version: 6.00 Build 0)  -->
<!DOCTYPE svg PUBLIC "-//W3C//DTD SVG 1.1//EN" "http://www.w3.org/Graphics/SVG/1.1/DTD/svg11.dtd">
<svg version="1.1" id="Layer_1" xmlns="http://www.w3.org/2000/svg" xmlns:xlink="http://www.w3.org/1999/xlink" x="0px" y="0px"
	 width="154.359px" height="133.912px" viewBox="0 0 154.359 133.912" enable-background="new 0 0 154.359 133.912"
	 xml:space="preserve">
<g>
	<path fill="#A9D384" d="M44.606,53.814h14.116V39.698H44.606V53.814z M64.773,39.698v4.033h56.467v-4.033H64.773z M64.773,49.781
		h36.297v-4.035H64.773V49.781z"/>
	<path fill="#A9D384" d="M44.606,78.015h14.116V63.898H44.606V78.015z M64.773,63.898v4.033h56.467v-4.033H64.773z M64.773,73.981
		h46.383v-4.034H64.773V73.981z"/>
	<path fill="#A9D384" d="M44.606,102.216h14.116V88.099H44.606V102.216z M64.773,88.099v4.033h56.467v-4.033H64.773z M64.773,98.185
		h36.297v-4.037H64.773V98.185z"/>
	<path fill="#A9D384" d="M44.606,126.416h14.116v-14.117H44.606V126.416z M64.773,112.299v4.034h56.467v-4.034H64.773z
		 M64.773,122.381h46.383v-4.032H64.773V122.381z"/>
	<path fill="#4787C7" d="M69.908,30.351c-0.844-0.831-2.075-0.72-2.917,0.023c-4.116,3.631-8.233,7.244-12.349,10.865
		c-1.088,0.957-2.177,1.914-3.266,2.874c-1.452-1.65-2.903-3.413-4.355-5.104c-0.733-0.854-2.18-0.708-2.918,0.043
		c-0.838,0.854-0.707,2.085,0.024,2.938c1.871,2.18,3.743,4.361,5.615,6.54c0.77,0.896,2.131,0.67,2.917-0.024
		c1.647-1.453,3.294-2.906,4.94-4.358c4.104-3.621,8.208-7.242,12.312-10.863c0.007-0.005,0.012-0.011,0.021-0.017
		C70.777,32.524,70.667,31.097,69.908,30.351z M49.738,45.557c-0.006,0.005-0.014-0.022-0.021-0.022c0.015,0,0.031,0,0.046,0
		C49.755,45.542,49.746,45.55,49.738,45.557z"/>
	<path fill="#4787C7" d="M69.908,56.268c-0.844-0.831-2.075-0.72-2.917,0.023c-4.116,3.631-8.233,7.245-12.349,10.866
		c-1.088,0.957-2.177,1.915-3.266,2.874c-1.452-1.65-2.903-3.413-4.355-5.104c-0.733-0.854-2.18-0.708-2.918,0.044
		c-0.838,0.852-0.707,2.084,0.024,2.937c1.871,2.181,3.743,4.36,5.615,6.541c0.77,0.896,2.131,0.669,2.917-0.025
		c1.647-1.45,3.294-2.905,4.94-4.356c4.104-3.622,8.208-7.242,12.312-10.863c0.007-0.005,0.012-0.012,0.021-0.017
		C70.777,58.44,70.667,57.014,69.908,56.268z M49.738,71.474c-0.006,0.006-0.014-0.021-0.021-0.021c0.015,0,0.031,0,0.046,0
		C49.755,71.46,49.746,71.466,49.738,71.474z"/>
	<path fill="#4787C7" d="M69.908,105.784c-0.844-0.831-2.075-0.719-2.917,0.023c-4.116,3.631-8.233,7.244-12.349,10.865
		c-1.088,0.957-2.177,1.913-3.266,2.874c-1.452-1.649-2.903-3.413-4.355-5.104c-0.733-0.854-2.18-0.707-2.918,0.045
		c-0.838,0.853-0.707,2.085,0.024,2.938c1.871,2.182,3.743,4.36,5.615,6.54c0.77,0.897,2.131,0.669,2.917-0.024
		c1.647-1.453,3.294-2.904,4.94-4.357c4.104-3.621,8.208-7.242,12.312-10.861c0.007-0.007,0.012-0.014,0.021-0.019
		C70.777,107.958,70.667,106.53,69.908,105.784z M49.738,120.991c-0.006,0.004-0.014-0.021-0.021-0.021c0.015,0,0.031,0,0.046,0
		C49.755,120.976,49.746,120.983,49.738,120.991z"/>
</g>
</svg>
