<?xml version="1.0" encoding="utf-8"?>
<!-- Generator: Adobe Illustrator 16.0.0, SVG Export Plug-In . SVG Version: 6.00 Build 0)  -->
<!DOCTYPE svg PUBLIC "-//W3C//DTD SVG 1.1//EN" "http://www.w3.org/Graphics/SVG/1.1/DTD/svg11.dtd">
<svg version="1.1" id="Layer_1" xmlns="http://www.w3.org/2000/svg" xmlns:xlink="http://www.w3.org/1999/xlink" x="0px" y="0px"
	 width="154.359px" height="133.912px" viewBox="0 0 154.359 133.912" enable-background="new 0 0 154.359 133.912"
	 xml:space="preserve">
<g>
	<g>
		<path fill="#A9D384" d="M36.626,69.045l2.588,2.599c0,0,4.19-3.879,9.234-3.865c5.045,0.014,8.637,3.916,8.637,3.916l2.892-2.875
			c0,0-4.889-4.77-11.661-4.786C41.54,64.013,36.626,69.045,36.626,69.045z"/>
		<path fill="#A9D384" d="M30.59,62.686l2.589,2.601c0,0,7.222-5.745,15.292-5.723c8.071,0.021,14.108,5.947,14.108,5.947
			l2.889-2.873c0,0-4.736-6.789-17.131-6.823C35.943,55.781,30.59,62.686,30.59,62.686z"/>
		<path fill="#A9D384" d="M23.977,56.47l2.588,2.601c0,0,8.239-9.2,21.933-9.163c13.691,0.038,21.16,9.28,21.16,9.28l2.892-2.873
			c0,0-8.478-10.11-24.187-10.154S23.977,56.47,23.977,56.47z"/>
		<circle fill="#A9D384" cx="47.469" cy="80.893" r="6.86"/>
	</g>
	<g>
		<path fill="#4787C7" d="M125.632,44.89V34.721h-21.794V44.89h-4.745v51.485h31.422V44.89H125.632z M106.107,36.99h17.256v7.9
			h-17.256V36.99z M128.243,94.104h-26.88V47.159h2.475h21.794h2.611V94.104z"/>
	</g>
	<g>
		<polygon fill="#A9D384" points="124.892,92.351 103.354,92.351 103.354,81.872 		"/>
		<polygon fill="#A9D384" points="104.946,50.796 126.483,50.796 126.483,61.273 		"/>
		<polygon fill="#A9D384" points="103.354,79.835 103.354,72.092 126.252,82.745 126.252,90.896 		"/>
		<polygon fill="#A9D384" points="103.355,69.675 103.355,61.932 126.253,72.585 126.253,80.735 		"/>
		<polygon fill="#A9D384" points="103.355,60.026 103.355,52.283 126.253,62.936 126.253,71.087 		"/>
	</g>
</g>
</svg>
