<?xml version="1.0" encoding="utf-8"?>
<!-- Generator: Adobe Illustrator 16.0.0, SVG Export Plug-In . SVG Version: 6.00 Build 0)  -->
<!DOCTYPE svg PUBLIC "-//W3C//DTD SVG 1.1//EN" "http://www.w3.org/Graphics/SVG/1.1/DTD/svg11.dtd">
<svg version="1.1" id="Layer_1" xmlns="http://www.w3.org/2000/svg" xmlns:xlink="http://www.w3.org/1999/xlink" x="0px" y="0px"
	 width="154.359px" height="133.912px" viewBox="0 0 154.359 133.912" enable-background="new 0 0 154.359 133.912"
	 xml:space="preserve">
<g>
	<g>
		<path fill="#A9D384" d="M53.147,47.666l0.16,2.833c0,0,4.416-0.09,7.325,2.511c2.909,2.6,2.98,6.702,2.98,6.702l3.148-0.175
			c0,0-0.374-5.27-4.281-8.761C58.573,47.282,53.147,47.666,53.147,47.666z"/>
		<path fill="#A9D384" d="M52.925,40.888l0.159,2.833c0,0,7.128,0.39,11.782,4.551c4.655,4.16,5.1,10.688,5.1,10.688l3.147-0.176
			c0,0,0.75-6.359-6.398-12.749C59.567,39.646,52.925,40.888,52.925,40.888z"/>
		<path fill="#A9D384" d="M52.296,33.896l0.16,2.833c0,0,9.492-1.084,17.389,5.974c7.896,7.058,7.464,16.24,7.464,16.24l3.147-0.175
			c0,0,0.295-10.202-8.765-18.301C62.633,32.369,52.296,33.896,52.296,33.896z"/>
		<path fill="#A9D384" d="M40.963,61.297l2.833-0.159c0,0,0.404,4.399,3.314,7c2.91,2.6,6.993,2.213,6.993,2.213l0.176,3.148
			c0,0-5.277,0.217-9.184-3.275C41.188,66.732,40.963,61.297,40.963,61.297z"/>
		<path fill="#A9D384" d="M34.202,61.833l2.833-0.159c0,0,1.185,7.042,5.838,11.202c4.655,4.16,11.192,3.871,11.192,3.871
			l0.176,3.148c0,0-6.235,1.455-13.383-4.935C33.712,68.571,34.202,61.833,34.202,61.833z"/>
		<path fill="#A9D384" d="M27.184,61.99l2.834-0.158c0,0-0.019,9.554,7.879,16.612c7.896,7.058,16.974,5.602,16.974,5.602
			l0.177,3.148c0,0-10.104,1.434-19.165-6.664C26.823,72.433,27.184,61.99,27.184,61.99z"/>
		<circle fill="#A9D384" cx="53.326" cy="60.087" r="5.307"/>
	</g>
	<g>
		<path fill="#4787C7" d="M125.632,44.89V34.721h-21.794V44.89h-4.745v51.485h31.422V44.89H125.632z M106.107,36.99h17.256v7.9
			h-17.256V36.99z M128.243,94.104h-26.88V47.159h2.475h21.794h2.611V94.104z"/>
	</g>
	<polygon fill="#80D2EF" points="124.893,92.351 103.354,92.351 103.354,81.871 	"/>
	<polygon fill="#80D2EF" points="103.354,79.834 103.354,72.092 126.253,82.744 126.253,90.896 	"/>
</g>
</svg>
