<?xml version="1.0" encoding="utf-8"?>
<!-- Generator: Adobe Illustrator 16.0.0, SVG Export Plug-In . SVG Version: 6.00 Build 0)  -->
<!DOCTYPE svg PUBLIC "-//W3C//DTD SVG 1.1//EN" "http://www.w3.org/Graphics/SVG/1.1/DTD/svg11.dtd">
<svg version="1.1" id="Layer_1" xmlns="http://www.w3.org/2000/svg" xmlns:xlink="http://www.w3.org/1999/xlink" x="0px" y="0px"
	 width="154.359px" height="133.912px" viewBox="0 0 154.359 133.912" enable-background="new 0 0 154.359 133.912"
	 xml:space="preserve">
<g>
	<g>
		<path fill="#A9D384" d="M61.014,43.253l-2.007,2.007c0,0,3.011,3.233,3.011,7.135s-3.011,6.688-3.011,6.688l2.229,2.23
			c0,0,3.68-3.79,3.68-9.03C64.916,47.043,61.014,43.253,61.014,43.253z"/>
		<path fill="#A9D384" d="M65.919,38.571l-2.006,2.006c0,0,4.459,5.575,4.459,11.818s-4.57,10.925-4.57,10.925l2.229,2.229
			c0,0,5.241-3.679,5.241-13.266C71.271,42.696,65.919,38.571,65.919,38.571z"/>
		<path fill="#A9D384" d="M70.714,33.442l-2.006,2.007c0,0,7.134,6.354,7.134,16.945c0,10.591-7.134,16.388-7.134,16.388l2.229,2.23
			c0,0,7.804-6.58,7.804-18.73C78.74,40.132,70.714,33.442,70.714,33.442z"/>
		<path fill="#A9D384" d="M42.731,43.253l2.007,2.007c0,0-3.011,3.233-3.011,7.135s3.011,6.688,3.011,6.688l-2.23,2.23
			c0,0-3.678-3.79-3.678-9.03C38.829,47.043,42.731,43.253,42.731,43.253z"/>
		<path fill="#A9D384" d="M37.826,38.571l2.007,2.006c0,0-4.46,5.575-4.46,11.818s4.572,10.925,4.572,10.925l-2.229,2.229
			c0,0-5.239-3.679-5.239-13.266C32.475,42.696,37.826,38.571,37.826,38.571z"/>
		<path fill="#A9D384" d="M33.031,33.442l2.007,2.007c0,0-7.135,6.354-7.135,16.945c0,10.591,7.135,16.388,7.135,16.388l-2.229,2.23
			c0,0-7.804-6.58-7.804-18.73C25.006,40.132,33.031,33.442,33.031,33.442z"/>
		<circle fill="#A9D384" cx="51.873" cy="51.665" r="5.307"/>
	</g>
	<g>
		<path fill="#4787C7" d="M125.632,44.89V34.721h-21.794V44.89h-4.745v51.485h31.422V44.89H125.632z M106.107,36.99h17.256v7.9
			h-17.256V36.99z M128.243,94.104h-26.88V47.159h2.475h21.794h2.611V94.104z"/>
	</g>
</g>
</svg>
