<?xml version="1.0" encoding="utf-8"?>
<!-- Generator: Adobe Illustrator 16.0.0, SVG Export Plug-In . SVG Version: 6.00 Build 0)  -->
<!DOCTYPE svg PUBLIC "-//W3C//DTD SVG 1.1//EN" "http://www.w3.org/Graphics/SVG/1.1/DTD/svg11.dtd">
<svg version="1.1" id="Layer_1" xmlns="http://www.w3.org/2000/svg" xmlns:xlink="http://www.w3.org/1999/xlink" x="0px" y="0px"
	 width="154.359px" height="133.912px" viewBox="0 0 154.359 133.912" enable-background="new 0 0 154.359 133.912"
	 xml:space="preserve">
<g>
	<g>
		<path fill="#A9D384" d="M61.014,43.253l-2.007,2.007c0,0,3.011,3.233,3.011,7.135s-3.011,6.688-3.011,6.688l2.229,2.23
			c0,0,3.68-3.79,3.68-9.03C64.916,47.043,61.014,43.253,61.014,43.253z"/>
		<path fill="#A9D384" d="M65.919,38.571l-2.006,2.006c0,0,4.459,5.575,4.459,11.818s-4.57,10.925-4.57,10.925l2.229,2.229
			c0,0,5.241-3.679,5.241-13.266C71.271,42.696,65.919,38.571,65.919,38.571z"/>
		<path fill="#A9D384" d="M70.714,33.442l-2.006,2.007c0,0,7.134,6.354,7.134,16.945c0,10.591-7.134,16.388-7.134,16.388l2.229,2.23
			c0,0,7.804-6.58,7.804-18.73C78.74,40.132,70.714,33.442,70.714,33.442z"/>
		<path fill="#A9D384" d="M42.731,43.253l2.007,2.007c0,0-3.011,3.233-3.011,7.135s3.011,6.688,3.011,6.688l-2.23,2.23
			c0,0-3.678-3.79-3.678-9.03C38.829,47.043,42.731,43.253,42.731,43.253z"/>
		<path fill="#A9D384" d="M37.826,38.571l2.007,2.006c0,0-4.46,5.575-4.46,11.818s4.572,10.925,4.572,10.925l-2.229,2.229
			c0,0-5.239-3.679-5.239-13.266C32.475,42.696,37.826,38.571,37.826,38.571z"/>
		<path fill="#A9D384" d="M33.031,33.442l2.007,2.007c0,0-7.135,6.354-7.135,16.945c0,10.591,7.135,16.388,7.135,16.388l-2.229,2.23
			c0,0-7.804-6.58-7.804-18.73C25.006,40.132,33.031,33.442,33.031,33.442z"/>
		<polygon fill="#4787C7" points="53.386,96.375 62.639,82.772 61.635,79.987 52.383,92.251 		"/>
		<polygon fill="#4787C7" points="52.383,85.784 65.092,92.14 63.643,88.183 53.162,82.663 		"/>
		<polygon fill="#4787C7" points="59.406,75.64 52.94,83.556 52.383,81.548 58.291,73.744 		"/>
		<polygon fill="#4787C7" points="60.743,79.207 52.383,75.417 52.383,77.312 61.413,81.325 		"/>
		<polygon fill="#4787C7" points="58.737,74.502 52.383,71.735 52.383,70.771 58.737,73.187 		"/>
		<polygon fill="#4787C7" points="52.383,77.312 57.511,70.177 56.897,68.949 52.383,75.417 		"/>
		<polygon fill="#4787C7" points="52.383,70.771 56.396,66.832 55.894,65.829 52.148,70.293 		"/>
		<polygon fill="#4787C7" points="56.396,69.67 52.383,67.835 52.383,66.386 56.897,68.949 		"/>
		<g>
			
				<rect x="52.215" y="64.795" transform="matrix(-0.9138 -0.4061 0.4061 -0.9138 77.1941 146.4734)" fill="#4787C7" width="3.844" height="0.503"/>
		</g>
		<g>
			
				<rect x="53.718" y="63.42" transform="matrix(-0.5556 -0.8315 0.8315 -0.5556 29.6356 146.4991)" fill="#4787C7" width="0.503" height="3.819"/>
		</g>
		<g>
			
				<rect x="52.041" y="62.564" transform="matrix(-0.9289 -0.3703 0.3703 -0.9289 80.0284 140.9935)" fill="#4787C7" width="3.012" height="0.503"/>
		</g>
		<g>
			
				<rect x="53.266" y="61.562" transform="matrix(-0.4418 -0.8971 0.8971 -0.4418 20.8002 138.5831)" fill="#4787C7" width="0.502" height="2.517"/>
		</g>
		<g>
			
				<rect x="53.3" y="60.2" transform="matrix(-0.3707 -0.9287 0.9287 -0.3707 16.0957 134.3179)" fill="#4787C7" width="0.503" height="3.012"/>
		</g>
		<polygon fill="#4787C7" points="50.359,96.375 41.106,82.772 42.109,79.987 51.363,92.251 		"/>
		<polygon fill="#4787C7" points="51.363,85.784 38.654,92.14 40.103,88.183 50.582,82.663 		"/>
		<polygon fill="#4787C7" points="44.34,75.64 50.805,83.556 51.363,81.548 45.454,73.744 		"/>
		<polygon fill="#4787C7" points="43.003,79.207 51.363,75.417 51.363,77.312 42.332,81.325 		"/>
		<polygon fill="#4787C7" points="45.009,74.502 51.363,71.735 51.363,70.771 45.009,73.187 		"/>
		<polygon fill="#4787C7" points="51.363,77.312 46.235,70.177 46.847,68.949 51.363,75.417 		"/>
		<polygon fill="#4787C7" points="51.363,70.771 47.349,66.832 47.851,65.829 51.597,70.293 		"/>
		<polygon fill="#4787C7" points="47.349,69.67 51.363,67.835 51.363,66.386 46.847,68.949 		"/>
		<g>
			
				<rect x="49.354" y="63.124" transform="matrix(-0.4049 -0.9144 0.9144 -0.4049 10.2147 136.7386)" fill="#4787C7" width="0.504" height="3.843"/>
		</g>
		<g>
			
				<rect x="47.86" y="65.074" transform="matrix(-0.8321 -0.5546 0.5546 -0.8321 54.9493 147.287)" fill="#4787C7" width="3.819" height="0.503"/>
		</g>
		<g>
			
				<rect x="49.949" y="61.309" transform="matrix(-0.3707 -0.9287 0.9287 -0.3707 10.4711 132.7262)" fill="#4787C7" width="0.503" height="3.013"/>
		</g>
		<g>
			
				<rect x="48.974" y="62.57" transform="matrix(-0.8967 -0.4426 0.4426 -0.8967 67.4774 141.3876)" fill="#4787C7" width="2.518" height="0.503"/>
		</g>
		<g>
			
				<rect x="48.691" y="61.456" transform="matrix(-0.9289 -0.3703 0.3703 -0.9289 73.9772 137.6167)" fill="#4787C7" width="3.013" height="0.503"/>
		</g>
		<path fill="#80D2EF" d="M69.362,93.646L53.551,56.728c2.001-0.678,3.445-2.569,3.445-4.798c0-2.799-2.271-5.069-5.069-5.069
			c-2.798,0-5.067,2.27-5.067,5.069c0,2.206,1.411,4.078,3.379,4.774l-0.355-0.236L34.384,93.646l3.704,1.365L50.98,58.555
			l-1,41.915h3.704l-1.298-41.915l13.271,36.458L69.362,93.646z"/>
		<circle fill="#A9D384" cx="51.873" cy="51.665" r="5.307"/>
	</g>
	<g>
		<path fill="#4787C7" d="M125.632,44.89V34.721h-21.794V44.89h-4.745v51.485h31.422V44.89H125.632z M106.107,36.99h17.256v7.9
			h-17.256V36.99z M128.243,94.104h-26.88V47.159h2.475h21.794h2.611V94.104z"/>
		<polygon fill="#FAAA2C" points="121.007,68.957 108.598,87.319 113.562,73.753 108.598,73.753 121.007,55.225 116.54,68.957 		"/>
	</g>
</g>
</svg>
