<svg xmlns="http://www.w3.org/2000/svg" xmlns:xlink="http://www.w3.org/1999/xlink" version="1.1" id="Layer_1" x="0px" y="0px" width="100px" height="100px" viewBox="0 0 100 100" enable-background="new 0 0 100 100" xml:space="preserve">
<path fill="#000000" d="M98.863,52.538c0-15.789-22.727-43.401-27.271-43.401c-7.062,0-10.466,20.103-11.477,40.037l-5.569-6.921V8  h-9.091v34.336l-5.612,6.036c-1.06-19.667-4.466-39.235-11.434-39.235c-4.545,0-27.273,27.612-27.273,43.401  c0,15.776-4.545,31.557,4.546,35.504c9.09,3.944,27.272,3.944,31.818,0c1.684-1.462,2.742-12.673,2.716-26.204L50,51.706  l9.786,9.261c-0.074,13.92,0.994,25.582,2.714,27.075c4.546,3.944,22.727,3.944,31.818,0  C103.409,84.095,98.863,68.314,98.863,52.538z"/>
</svg>