<svg xmlns="http://www.w3.org/2000/svg" xmlns:xlink="http://www.w3.org/1999/xlink" version="1.1" id="Layer_1" x="0px" y="0px" width="100px" height="100px" viewBox="0 0 100 100" enable-background="new 0 0 100 100" xml:space="preserve">
<g>
	<polygon points="88.696,24.597 88.699,22.659 86.264,22.653 86.261,24.593 84.347,24.6 84.339,29.954 90.602,29.964 90.61,24.589     "/>
	<polygon points="84.336,31.923 84.288,60.994 84.299,60.994 84.261,82.69 85.824,83.605 87.381,89.152 88.955,83.61 90.522,82.81    90.561,60.953 90.549,60.953 90.597,31.935  "/>
	<path d="M26.657,15.854l33.571-0.025c4.248-0.002,3.928-5.501-0.012-5.848c-1.91-0.166-6.222-0.545-7.718-0.677   c-1.479-0.129-2.581-1.369-2.583-2.569c-0.002-3.77-0.98-5.738-4.543-5.735L41.49,1.003c-3.565,0.002-4.539,1.971-4.537,5.743   c0,1.199-1.1,2.439-2.578,2.57c-1.497,0.136-5.807,0.521-7.712,0.691C22.72,10.358,22.404,15.856,26.657,15.854z M43.513,3.333   c1.216,0,2.197,0.984,2.202,2.197c0.004,1.214-0.983,2.199-2.199,2.2c-1.214-0.001-2.194-0.979-2.201-2.194   C41.313,4.32,42.296,3.335,43.513,3.333z"/>
	<path d="M65.295,13.394c-0.097,0.936-0.429,2.097-1.057,2.774c-0.569,0.62-1.618,1.356-3.344,1.362l-34.744,0.02   c-1.728,0-2.773-0.744-3.345-1.361c-0.635-0.678-0.964-1.836-1.07-2.769H10.033l0.044,85.33l66.979-0.039l-0.045-85.323   L65.295,13.394z M26.259,83.167c-1.953,0-3.536-1.583-3.536-3.536s1.583-3.536,3.536-3.536c1.953,0,3.536,1.583,3.536,3.536   S28.212,83.167,26.259,83.167z M26.259,67.88c-1.953,0-3.536-1.583-3.536-3.536s1.583-3.535,3.536-3.535   c1.953,0,3.536,1.582,3.536,3.535S28.212,67.88,26.259,67.88z M26.259,52.594c-1.953,0-3.536-1.583-3.536-3.536   c0-1.953,1.583-3.536,3.536-3.536c1.953,0,3.536,1.583,3.536,3.536C29.795,51.011,28.212,52.594,26.259,52.594z M26.259,37.308   c-1.953,0-3.536-1.583-3.536-3.536s1.583-3.536,3.536-3.536c1.953,0,3.536,1.583,3.536,3.536S28.212,37.308,26.259,37.308z    M35.059,31.725l28.324-0.023l0.004,4.059L35.06,35.777L35.059,31.725z M35.061,46.996h28.33v4.059h-28.33V46.996z M35.064,62.281   h28.331v4.06H35.064V62.281z M63.4,81.616l-28.329,0.022l-0.005-4.055l28.335-0.023L63.4,81.616z"/>
</g>
</svg>