<svg xmlns="http://www.w3.org/2000/svg" xmlns:xlink="http://www.w3.org/1999/xlink" version="1.1" id="Layer_1" x="0px" y="0px" width="100px" height="100px" viewBox="0 0 100 100" enable-background="new 0 0 100 100" xml:space="preserve">
<path fill="#000000" d="M49.997,87.549l-36.819-28.54C6.609,54.122,2.823,46.657,2.823,38.552c0-14.1,11.472-25.57,25.573-25.57  c8.85,0,16.964,4.573,21.601,11.92c4.638-7.347,12.757-11.92,21.614-11.92c14.098,0,25.566,11.471,25.566,25.57  c0,8.111-3.786,15.576-10.388,20.481L49.997,87.549z M28.396,16.981c-11.896,0-21.573,9.676-21.573,21.57  c0,6.828,3.198,13.123,8.773,17.271l34.4,26.665l34.375-26.642c5.608-4.167,8.806-10.462,8.806-17.295  c0-11.894-9.675-21.57-21.566-21.57c-8.586,0-16.35,5.096-19.78,12.983l-1.834,4.216l-1.834-4.216  C44.733,22.078,36.974,16.981,28.396,16.981z"/>
<polygon points="41.217,50.026 40.455,52.201 27.673,52.201 27.673,48.643 37.931,48.643 40.816,40.402 48.315,57.197   56.207,32.901 62.359,49.532 72.329,49.532 72.329,53.09 59.881,53.09 56.426,43.747 48.84,67.1 "/>
</svg>