<svg xmlns="http://www.w3.org/2000/svg" xmlns:xlink="http://www.w3.org/1999/xlink" version="1.1" id="Layer_1" x="0px" y="0px" width="100px" height="100px" viewBox="0 0 100 100" enable-background="new 0 0 100 100" xml:space="preserve">
<g>
	<path d="M62.113,36.685V10.149c0-5.236-4.65-9.481-10.384-9.481H48.27c-5.736,0-10.384,4.245-10.384,9.481v26.443v0.093H62.113z"/>
	<path d="M36.591,37.886H10.149c-5.238,0-9.481,4.649-9.481,10.385v3.458c0,5.734,4.243,10.385,9.481,10.385h26.441V37.886z"/>
	<path d="M89.852,37.886H63.41l-0.001,24.227h26.442c5.237,0,9.48-4.65,9.48-10.385v-3.458   C99.332,42.535,95.089,37.886,89.852,37.886z"/>
	<path d="M37.886,62.761v27.091c0,5.238,4.648,9.48,10.384,9.48h3.459c5.733,0,10.384-4.242,10.384-9.48V62.761H37.886z"/>
</g>
<path d="M37.887,37.933v23.58h24.229v-23.58H37.887z M44.001,56.757c-0.621,0-1.125-0.504-1.125-1.125s0.504-1.125,1.125-1.125  s1.125,0.504,1.125,1.125S44.622,56.757,44.001,56.757z M44.001,50.882c-0.621,0-1.125-0.504-1.125-1.125s0.504-1.125,1.125-1.125  s1.125,0.504,1.125,1.125S44.622,50.882,44.001,50.882z M44.001,44.882c-0.621,0-1.125-0.504-1.125-1.125s0.504-1.125,1.125-1.125  s1.125,0.504,1.125,1.125S44.622,44.882,44.001,44.882z M50.001,56.757c-0.621,0-1.125-0.504-1.125-1.125s0.504-1.125,1.125-1.125  s1.125,0.504,1.125,1.125S50.622,56.757,50.001,56.757z M50.001,50.882c-0.621,0-1.125-0.504-1.125-1.125s0.504-1.125,1.125-1.125  s1.125,0.504,1.125,1.125S50.622,50.882,50.001,50.882z M50.001,44.882c-0.621,0-1.125-0.504-1.125-1.125s0.504-1.125,1.125-1.125  s1.125,0.504,1.125,1.125S50.622,44.882,50.001,44.882z M55.876,56.819c-0.621,0-1.125-0.504-1.125-1.125s0.504-1.125,1.125-1.125  s1.125,0.504,1.125,1.125S56.497,56.819,55.876,56.819z M55.876,50.944c-0.621,0-1.125-0.504-1.125-1.125s0.504-1.125,1.125-1.125  s1.125,0.504,1.125,1.125S56.497,50.944,55.876,50.944z M55.876,44.944c-0.621,0-1.125-0.504-1.125-1.125s0.504-1.125,1.125-1.125  s1.125,0.504,1.125,1.125S56.497,44.944,55.876,44.944z"/>
</svg>