<svg xmlns="http://www.w3.org/2000/svg" xmlns:xlink="http://www.w3.org/1999/xlink" version="1.1" id="Your_Icon_copia" x="0px" y="0px" width="100px" height="100px" viewBox="0 0 100 100" enable-background="new 0 0 100 100" xml:space="preserve">
<path d="M10.342,9.197l-0.244,0.244C-2.174,21.714-2.956,40.573,8.356,51.885l39.132,39.132  c11.627,11.628,31.897,11.424,43.754-0.434l0.24-0.24c11.42-11.42,10.779-29.622-1.461-41.861L50.891,9.35  C39.003-2.538,22.141-2.601,10.342,9.197z M87.404,51.1c10.252,10.251,11.713,26.372,1.461,36.626l-0.24,0.24  c-10.252,10.252-28.27,10.685-38.52,0.434L10.973,49.267C0.724,39.018,2.465,22.309,12.716,12.059l0.156-0.156l0.044-0.044  c10.249-10.25,25.106-10.141,35.356,0.109L87.404,51.1z"/>
<path d="M68.553,67.604c0.051-1.259,0.137-2.511,0.217-3.788c0.043-0.68,0.088-1.357,0.125-2.04c0.043-0.776,0.08-1.551,0.104-2.331  c0.213-7.107-0.637-14.366-7.811-21.539c-7.158-7.158-14.413-8.021-21.522-7.807c-0.049,1.621-0.143,3.18-0.236,4.664  c-0.026,0.401,0.022,0.864-0.001,1.253c4.166-0.161,8.052,0.172,11.666,1.792L38.758,50.146c-1.62-3.615-1.953-7.5-1.792-11.667  c0.031-0.769,0.035-1.583,0.081-2.381c0.029-0.476,0.042-0.974,0.071-1.462c0.09-1.435,0.172-2.917,0.222-4.424  c0.027-0.77,0.034-1.555,0.033-2.343c-0.011-5.706-0.889-11.891-4.846-18.501c-0.829-1.381-2.621-1.833-4.003-1.005  c-0.211,0.126-0.399,0.274-0.566,0.44c-0.921,0.923-1.06,2.467-0.359,3.638c0.938,1.567,1.466,2.9,2.305,4.679L18.069,28.954  c-1.778-0.838-3.111-1.369-4.678-2.306c-1.171-0.701-2.675-0.525-3.6,0.398c-0.166,0.167-0.334,0.335-0.461,0.547  c-0.828,1.383-0.389,3.164,0.994,3.991c6.61,3.957,12.788,4.829,18.494,4.839c0.042-0.778,0.084-1.552,0.133-2.313  c0.074-1.198,0.041-2.471,0.091-3.624c-2.534,0.015-4.784,0.129-7.751-0.829l9.315-9.315c0.958,2.968,0.843,5.215,0.83,7.75  c-0.004,0.778,0.026,1.609-0.004,2.389c-0.052,1.233-0.102,2.497-0.181,3.746c-0.043,0.708-0.071,1.43-0.112,2.142  c-0.043,0.777-0.071,1.561-0.096,2.341c-0.215,7.11,0.652,14.371,7.81,21.527c7.174,7.174,14.434,8.027,21.543,7.813  c0.045-1.642,0.141-3.221,0.232-4.724c0.023-0.38,0.15-0.646,0.172-1.017c-3.861,0.148-7.691-0.34-10.685-1.274l11.868-11.869  c0.936,2.992,1.424,6.824,1.275,10.683c-0.029,0.769-0.119,1.495-0.166,2.295c-0.027,0.453-0.082,0.887-0.109,1.351  c-0.09,1.457-0.191,2.938-0.24,4.469c-0.023,0.77-0.041,1.543-0.035,2.331c0.029,5.653,0.934,11.762,4.908,18.267  c0.84,1.375,2.635,1.806,4.01,0.967c0.201-0.125,0.381-0.27,0.541-0.428c0.932-0.932,1.236-2.315,0.52-3.489  c-0.744-1.218-1.447-2.51-1.766-3.501l12.137-12.138c0.992,0.317,2.283,1.021,3.502,1.763c1.174,0.72,2.604,0.462,3.537-0.47  c0.16-0.161,0.279-0.366,0.402-0.568c0.84-1.375,0.396-3.181-0.98-4.021c-6.504-3.975-12.629-4.894-18.281-4.924  c-0.039,0.745-0.082,1.487-0.127,2.218c-0.076,1.229-0.197,2.379-0.246,3.559c2.816-0.003,5.438,0.038,8.453,0.95l-9.889,9.888  c-0.912-3.014-0.953-5.636-0.949-8.45C68.48,69.139,68.525,68.385,68.553,67.604z M46.754,59.164  c-0.886-0.423-2.633-1.91-3.924-3.201c-1.057-1.057-1.589-1.757-2.74-3.222l13.6-13.601c1.465,1.152,2.166,1.685,3.223,2.74  c1.293,1.292,2.777,3.038,3.201,3.924L46.754,59.164z"/>
</svg>