<?xml version="1.0" encoding="utf-8"?>
<!-- Generator: Adobe Illustrator 15.1.0, SVG Export Plug-In . SVG Version: 6.00 Build 0)  -->
<!DOCTYPE svg PUBLIC "-//W3C//DTD SVG 1.1//EN" "http://www.w3.org/Graphics/SVG/1.1/DTD/svg11.dtd">
<svg version="1.1" id="Layer_1" xmlns="http://www.w3.org/2000/svg" xmlns:xlink="http://www.w3.org/1999/xlink" x="0px" y="0px"
	 width="100px" height="19.178px" viewBox="0 0 100 19.178" enable-background="new 0 0 100 19.178" xml:space="preserve">
<path fill="#010101" d="M99.424,3.781c-0.318,0-0.575,0.445-0.575,1.005v1.029c-0.022,0-0.044-0.008-0.067-0.008H74.325V1.004
	C74.325,0.445,74.023,0,73.649,0s-0.675,0.445-0.675,1.004V4.39H32.66c-0.598,0-1.08,0.445-1.08,1.004v3.174h-3.402
	c-0.599,0-1.096,0.463-1.258,1.098H5.396L0,12.012h26.92c0.162,0.634,0.659,1.097,1.258,1.097h3.402v0.667
	c0,0.56,0.482,1.013,1.08,1.013h40.315v3.377c0,0.559,0.301,1.013,0.675,1.013s0.676-0.454,0.676-1.013v-4.794h24.456
	c0.023,0,0.045-0.008,0.067-0.009v1.021c0,0.559,0.257,1.013,0.575,1.013c0.319,0,0.576-0.454,0.576-1.013V4.786
	C100,4.228,99.743,3.781,99.424,3.781z"/>
</svg>
