<svg xmlns="http://www.w3.org/2000/svg" xmlns:xlink="http://www.w3.org/1999/xlink" version="1.1" id="Layer_16" x="0px" y="0px" width="48px" height="48px" viewBox="0 0 48 48" enable-background="new 0 0 48 48" xml:space="preserve">
<g>
	<path fill="#000000" d="M24.006,29.38L4.113,18.588C3.87,18.456,3.78,18.152,3.912,17.91c0.133-0.244,0.439-0.332,0.678-0.201   l19.422,10.536l19.912-10.539c0.244-0.127,0.548-0.036,0.677,0.208s0.035,0.547-0.208,0.677L24.006,29.38z"/>
</g>
<path fill="#000000" d="M24.014,7.934c7.731,0,13.999,4.241,13.999,9.476c0,0.268-0.026,0.528-0.06,0.791l-13.944,7.471  l-13.933-7.465c-0.033-0.265-0.06-0.528-0.06-0.797C10.017,12.175,16.284,7.934,24.014,7.934 M24.014,6.934  c-8.27,0-14.997,4.699-14.997,10.476c0,0.347,0.036,0.675,0.067,0.923l0.064,0.512l0.455,0.244l13.933,7.464l0.473,0.253  l0.472-0.253l13.945-7.47l0.456-0.244l0.064-0.515c0.034-0.281,0.066-0.586,0.066-0.914C39.013,11.633,32.284,6.934,24.014,6.934  L24.014,6.934z"/>
<path fill="#000000" d="M34.94,17.24L25.34,24.2c-0.04,0.03-0.09,0.06-0.14,0.069c-0.13-0.43-0.61-0.75-1.2-0.75  s-1.07,0.32-1.2,0.75c-0.05-0.01-0.1-0.039-0.14-0.069l-9.601-6.96c-0.21-0.15-0.26-0.44-0.1-0.65c0.15-0.21,0.43-0.25,0.64-0.1  l8.301,6.02l-6.21-8.54c-0.15-0.21-0.11-0.5,0.1-0.649c0.21-0.15,0.51-0.11,0.66,0.1l6.21,8.53l-3.17-9.73  c-0.08-0.25,0.05-0.51,0.3-0.59c0.24-0.07,0.5,0.061,0.58,0.3l3.17,9.73L23.52,10.45c0-0.271,0.221-0.48,0.49-0.48  c0.26,0,0.48,0.21,0.48,0.48L24.5,21.52l3.13-9.59c0.08-0.239,0.34-0.38,0.58-0.3c0.25,0.08,0.38,0.34,0.3,0.59L25.32,21.98  l6.229-8.561c0.15-0.21,0.44-0.26,0.66-0.1c0.2,0.149,0.25,0.439,0.1,0.649l-6.21,8.54l8.29-6.02c0.21-0.15,0.5-0.11,0.65,0.1  S35.15,17.09,34.94,17.24z"/>
<ellipse transform="matrix(0.9994 0.0337 -0.0337 0.9994 1.0713 -0.6417)" fill="#000000" cx="19.568" cy="31.454" rx="1.869" ry="2.562"/>
<ellipse transform="matrix(0.959 -0.2836 0.2836 0.959 -8.631 5.7715)" fill="#000000" cx="15.621" cy="32.699" rx="1.195" ry="2.202"/>
<ellipse transform="matrix(0.9467 -0.3222 0.3222 0.9467 -10.4658 6.1339)" fill="#000000" cx="13.3" cy="34.688" rx="1.26" ry="1.605"/>
<path fill="#000000" d="M12.128,36.457c0.452,0.687,0.396,1.519-0.125,1.859c-0.52,0.344-1.306,0.063-1.757-0.621  c-0.449-0.685-0.394-1.517,0.124-1.859C10.893,35.493,11.678,35.771,12.128,36.457z"/>
<ellipse transform="matrix(0.7822 -0.623 0.623 0.7822 -22.6322 14.4941)" fill="#000000" cx="9.416" cy="39.619" rx="1.125" ry="1.257"/>
<ellipse transform="matrix(-0.9994 0.0337 -0.0337 -0.9994 57.9441 61.9307)" fill="#000000" cx="28.45" cy="31.454" rx="1.869" ry="2.562"/>
<ellipse transform="matrix(-0.959 -0.2834 0.2834 -0.959 54.1977 73.2404)" fill="#000000" cx="32.397" cy="32.699" rx="1.196" ry="2.202"/>
<ellipse transform="matrix(-0.9466 -0.3223 0.3223 -0.9466 56.4053 78.714)" fill="#000000" cx="34.718" cy="34.688" rx="1.259" ry="1.605"/>
<path fill="#000000" d="M35.89,36.457c-0.451,0.687-0.394,1.519,0.125,1.859c0.52,0.344,1.305,0.063,1.757-0.621  c0.45-0.685,0.395-1.517-0.124-1.859C37.125,35.493,36.339,35.771,35.89,36.457z"/>
<ellipse transform="matrix(-0.7822 -0.623 0.623 -0.7822 44.1164 94.6598)" fill="#000000" cx="38.603" cy="39.619" rx="1.125" ry="1.258"/>
<path fill="#000000" d="M46.63,9.34L46.57,8.7L46.01,8.38C40.02,4.92,32.23,3.01,24.06,3.01c-8.17,0-15.989,1.9-22.04,5.351  L1.46,8.69L1.4,9.33C-0.21,26.03,7.52,41.82,9.09,44.82C9.44,45.49,9.95,46.47,24.3,46.47c13.84,0,14.29-0.899,14.65-1.63l0.09-0.17  C41.82,39.17,48.12,24.73,46.63,9.34z M37.83,44.28c-0.08,0.17-0.58,0.31-1.4,0.43c0.561-1.2,0.931-3.45-1.729-6.33  c-2.681-2.899-6.11-4.36-8.12-3.02c-2.08,1.38-0.5,8.46-1.35,9.859H24.3c-0.5,0-1.01,0-1.51-0.01c-0.84-1.43,0.72-8.47-1.35-9.85  c-2.011-1.341-5.44,0.12-8.12,3.02c-2.641,2.86-2.301,5.09-1.75,6.3c-0.79-0.12-1.28-0.26-1.36-0.42  C9.56,43.01,0.97,26.73,2.64,9.45C8.69,6,16.38,4.26,24.06,4.26c7.66,0,15.311,1.73,21.33,5.2C47.06,26.74,38.46,43.02,37.83,44.28z  "/>
<path fill="#000000" stroke="#231F20" stroke-miterlimit="10" d="M1.209,30.098"/>
</svg>