<svg xmlns="http://www.w3.org/2000/svg" xmlns:xlink="http://www.w3.org/1999/xlink" version="1.1" id="Layer_1" x="0px" y="0px" width="100px" height="44.157px" viewBox="114.5 37.275 100 44.157" enable-background="new 114.5 37.275 100 44.157" xml:space="preserve">
<path d="M200.416,48.775h-74.429c-1.979,0-3.583,1.604-3.583,3.583v13.291c0,1.979,1.604,3.583,3.583,3.583h74.429  c1.979,0,3.584-1.604,3.584-3.583V52.358C203.999,50.379,202.395,48.775,200.416,48.775z M128.84,66.705  c-0.519,0-0.94-0.421-0.94-0.94s0.421-0.94,0.94-0.94c0.52,0,0.941,0.421,0.941,0.94S129.36,66.705,128.84,66.705z M128.84,62.502  c-0.519,0-0.94-0.421-0.94-0.94s0.421-0.94,0.94-0.94c0.52,0,0.941,0.421,0.941,0.94S129.36,62.502,128.84,62.502z M128.84,58.299  c-0.519,0-0.94-0.421-0.94-0.94c0-0.52,0.421-0.941,0.94-0.941c0.52,0,0.941,0.421,0.941,0.941  C129.781,57.877,129.36,58.299,128.84,58.299z M128.84,54.095c-0.519,0-0.94-0.421-0.94-0.94s0.421-0.941,0.94-0.941  c0.52,0,0.941,0.421,0.941,0.941S129.36,54.095,128.84,54.095z M131.588,64.604c-0.519,0-0.94-0.421-0.94-0.94s0.421-0.94,0.94-0.94  c0.52,0,0.941,0.421,0.941,0.94S132.107,64.604,131.588,64.604z M131.588,60.4c-0.519,0-0.94-0.421-0.94-0.94  s0.421-0.941,0.94-0.941c0.52,0,0.941,0.422,0.941,0.941S132.107,60.4,131.588,60.4z M131.588,56.197c-0.519,0-0.94-0.421-0.94-0.94  c0-0.52,0.421-0.941,0.94-0.941c0.52,0,0.941,0.421,0.941,0.941C132.529,55.775,132.107,56.197,131.588,56.197z M134.626,66.705  c-0.519,0-0.94-0.421-0.94-0.94s0.421-0.94,0.94-0.94c0.52,0,0.941,0.421,0.941,0.94S135.146,66.705,134.626,66.705z   M134.626,62.502c-0.519,0-0.94-0.421-0.94-0.94s0.421-0.94,0.94-0.94c0.52,0,0.941,0.421,0.941,0.94S135.146,62.502,134.626,62.502  z M134.626,58.299c-0.519,0-0.94-0.421-0.94-0.94c0-0.52,0.421-0.941,0.94-0.941c0.52,0,0.941,0.421,0.941,0.941  C135.567,57.877,135.146,58.299,134.626,58.299z M134.626,54.095c-0.519,0-0.94-0.421-0.94-0.94s0.421-0.941,0.94-0.941  c0.52,0,0.941,0.421,0.941,0.941S135.146,54.095,134.626,54.095z M137.375,64.604c-0.52,0-0.94-0.421-0.94-0.94  s0.421-0.94,0.94-0.94s0.94,0.421,0.94,0.94S137.894,64.604,137.375,64.604z M137.375,60.4c-0.52,0-0.94-0.421-0.94-0.94  s0.421-0.941,0.94-0.941s0.94,0.422,0.94,0.941S137.894,60.4,137.375,60.4z M137.375,56.197c-0.52,0-0.94-0.421-0.94-0.94  c0-0.52,0.421-0.941,0.94-0.941s0.94,0.421,0.94,0.941C138.315,55.775,137.894,56.197,137.375,56.197z M140.531,66.705  c-0.52,0-0.94-0.421-0.94-0.94s0.421-0.94,0.94-0.94s0.941,0.421,0.941,0.94C141.472,66.284,141.051,66.705,140.531,66.705z   M140.531,62.502c-0.52,0-0.94-0.421-0.94-0.94s0.421-0.94,0.94-0.94s0.941,0.421,0.941,0.94S141.051,62.502,140.531,62.502z   M140.531,58.299c-0.52,0-0.94-0.421-0.94-0.94c0-0.52,0.421-0.941,0.94-0.941s0.941,0.421,0.941,0.941  C141.472,57.877,141.051,58.299,140.531,58.299z M140.531,54.095c-0.52,0-0.94-0.421-0.94-0.94s0.421-0.941,0.94-0.941  s0.941,0.421,0.941,0.941C141.472,53.674,141.051,54.095,140.531,54.095z M143.279,64.604c-0.52,0-0.94-0.421-0.94-0.94  s0.421-0.94,0.94-0.94s0.941,0.421,0.941,0.94S143.798,64.604,143.279,64.604z M143.279,60.4c-0.52,0-0.94-0.421-0.94-0.94  s0.421-0.941,0.94-0.941s0.941,0.422,0.941,0.941S143.798,60.4,143.279,60.4z M143.279,56.197c-0.52,0-0.94-0.421-0.94-0.94  c0-0.52,0.421-0.941,0.94-0.941s0.941,0.421,0.941,0.941C144.22,55.775,143.798,56.197,143.279,56.197z M177.134,63.121  c0,1.979-1.604,3.584-3.584,3.584h-20.697c-1.979,0-3.584-1.604-3.584-3.584v-8.234c0-1.979,1.605-3.584,3.584-3.584h20.697  c1.979,0,3.584,1.605,3.584,3.584V63.121z M182.449,64.604c-0.52,0-0.94-0.421-0.94-0.94s0.421-0.94,0.94-0.94  c0.519,0,0.94,0.421,0.94,0.94S182.969,64.604,182.449,64.604z M182.449,60.4c-0.52,0-0.94-0.421-0.94-0.94s0.421-0.94,0.94-0.94  c0.519,0,0.94,0.421,0.94,0.94S182.969,60.4,182.449,60.4z M182.449,56.197c-0.52,0-0.94-0.421-0.94-0.941s0.421-0.94,0.94-0.94  c0.519,0,0.94,0.421,0.94,0.94S182.969,56.197,182.449,56.197z M185.197,66.705c-0.52,0-0.94-0.421-0.94-0.94s0.421-0.94,0.94-0.94  s0.94,0.421,0.94,0.94S185.717,66.705,185.197,66.705z M185.197,62.502c-0.52,0-0.94-0.421-0.94-0.941  c0-0.519,0.421-0.939,0.94-0.939s0.94,0.421,0.94,0.939C186.138,62.081,185.717,62.502,185.197,62.502z M185.197,58.299  c-0.52,0-0.94-0.421-0.94-0.941s0.421-0.94,0.94-0.94s0.94,0.421,0.94,0.94S185.717,58.299,185.197,58.299z M185.197,54.095  c-0.52,0-0.94-0.421-0.94-0.941c0-0.519,0.421-0.94,0.94-0.94s0.94,0.421,0.94,0.94C186.138,53.674,185.717,54.095,185.197,54.095z   M188.354,64.604c-0.52,0-0.94-0.421-0.94-0.94s0.421-0.94,0.94-0.94s0.94,0.421,0.94,0.94S188.873,64.604,188.354,64.604z   M188.354,60.4c-0.52,0-0.94-0.421-0.94-0.94s0.421-0.94,0.94-0.94s0.94,0.421,0.94,0.94S188.873,60.4,188.354,60.4z   M188.354,56.197c-0.52,0-0.94-0.421-0.94-0.941s0.421-0.94,0.94-0.94s0.94,0.421,0.94,0.94S188.873,56.197,188.354,56.197z   M191.102,66.705c-0.52,0-0.94-0.421-0.94-0.94s0.421-0.94,0.94-0.94s0.94,0.421,0.94,0.94S191.621,66.705,191.102,66.705z   M191.102,62.502c-0.52,0-0.94-0.421-0.94-0.941c0-0.519,0.421-0.939,0.94-0.939s0.94,0.421,0.94,0.939  C192.042,62.081,191.621,62.502,191.102,62.502z M191.102,58.299c-0.52,0-0.94-0.421-0.94-0.941s0.421-0.94,0.94-0.94  s0.94,0.421,0.94,0.94S191.621,58.299,191.102,58.299z M191.102,54.095c-0.52,0-0.94-0.421-0.94-0.941c0-0.519,0.421-0.94,0.94-0.94  s0.94,0.421,0.94,0.94C192.042,53.674,191.621,54.095,191.102,54.095z M194.14,64.604c-0.52,0-0.94-0.421-0.94-0.94  s0.421-0.94,0.94-0.94s0.94,0.421,0.94,0.94S194.659,64.604,194.14,64.604z M194.14,60.4c-0.52,0-0.94-0.421-0.94-0.94  s0.421-0.94,0.94-0.94s0.94,0.421,0.94,0.94S194.659,60.4,194.14,60.4z M194.14,56.197c-0.52,0-0.94-0.421-0.94-0.941  s0.421-0.94,0.94-0.94s0.94,0.421,0.94,0.94S194.659,56.197,194.14,56.197z M196.888,66.705c-0.52,0-0.94-0.421-0.94-0.94  s0.421-0.94,0.94-0.94s0.94,0.421,0.94,0.94S197.407,66.705,196.888,66.705z M196.888,62.502c-0.52,0-0.94-0.421-0.94-0.941  c0-0.519,0.421-0.939,0.94-0.939s0.94,0.421,0.94,0.939C197.828,62.081,197.407,62.502,196.888,62.502z M196.888,58.299  c-0.52,0-0.94-0.421-0.94-0.941s0.421-0.94,0.94-0.94s0.94,0.421,0.94,0.94S197.407,58.299,196.888,58.299z M196.888,54.095  c-0.52,0-0.94-0.421-0.94-0.941c0-0.519,0.421-0.94,0.94-0.94s0.94,0.421,0.94,0.94C197.828,53.674,197.407,54.095,196.888,54.095z"/>
</svg>