<svg xmlns="http://www.w3.org/2000/svg" xmlns:xlink="http://www.w3.org/1999/xlink" version="1.1" id="Calque_1" x="0px" y="0px" width="100px" height="100px" viewBox="0 0 100 100" enable-background="new 0 0 100 100" xml:space="preserve">
<path d="M79.324,11.595c-0.622-1.494-1.598-2.501-2.899-2.994c-1.113-0.421-2.269-0.379-3.203-0.208  c-0.375-0.451-0.933-0.743-1.565-0.743c-1.128,0-2.041,0.914-2.041,2.044c0,1.128,0.913,2.042,2.041,2.042  c1.061,0,1.92-0.808,2.023-1.839c0.68-0.105,1.465-0.119,2.196,0.156c0.886,0.335,1.563,1.054,2.015,2.138  c2.45,5.881-2.213,25.742-3.304,30.178c-0.459,0.156-0.794,0.578-0.794,1.089c0,6.705-4.353,12.16-9.703,12.16  c-5.35,0-9.702-5.455-9.702-12.16c0-0.441-0.255-0.812-0.617-1.009c-1.054-4.275-5.79-24.34-3.323-30.258  c0.451-1.081,1.126-1.8,2.009-2.136c0.748-0.285,1.549-0.267,2.236-0.155c0.105,1.03,0.964,1.836,2.022,1.836  c1.128,0,2.042-0.914,2.042-2.042c0-1.13-0.914-2.044-2.042-2.044c-0.635,0-1.194,0.295-1.568,0.749  c-0.94-0.175-2.107-0.223-3.232,0.203c-1.302,0.492-2.277,1.499-2.9,2.993c-2.684,6.438,2.153,26.831,3.25,31.241  c-0.119,0.183-0.206,0.389-0.206,0.624c0,7.402,4.636,13.515,10.593,14.375c-0.877,4.979,1.448,9.848,1.565,10.087  c3.586,7.042,4.017,13.732,1.183,18.356c-2.098,3.422-5.825,5.307-10.496,5.307c-11.216,0-19.231-8.836-19.317-8.931  c-0.134-0.148-1.857-2.04-4.036-4.028c0.573-1.03,0.901-2.213,0.901-3.473c0-3.954-3.218-7.17-7.173-7.17  c-3.954,0-7.171,3.216-7.171,7.17c0,3.955,3.217,7.173,7.171,7.173c1.856,0,3.544-0.715,4.819-1.875  c1.593,1.462,3.011,2.935,3.755,3.757c0.352,0.396,8.769,9.705,21.051,9.705c5.512,0,9.944-2.279,12.481-6.418  c3.268-5.33,2.869-12.85-1.085-20.612c-0.023-0.049-2.226-4.646-1.292-8.99c6.204-0.569,11.112-6.816,11.112-14.433  c0-0.16-0.033-0.312-0.091-0.45C77.029,39.015,82.045,18.125,79.324,11.595z M25.279,81.55c-3.526,0-6.395-2.87-6.395-6.397  c0-3.525,2.869-6.395,6.395-6.395c3.527,0,6.397,2.869,6.397,6.395c0,1.059-0.263,2.057-0.72,2.937  c-0.366-0.323-0.741-0.646-1.121-0.96c0.263-0.606,0.413-1.273,0.413-1.977c0-2.742-2.224-4.967-4.969-4.967  c-2.743,0-4.967,2.225-4.967,4.967c0,2.745,2.224,4.969,4.967,4.969c1.197,0,2.281-0.44,3.139-1.146  c0.37,0.308,0.737,0.63,1.102,0.954C28.389,80.934,26.907,81.55,25.279,81.55z M25.279,71.91c-1.788,0-3.243,1.454-3.243,3.242  c0,1.789,1.455,3.245,3.243,3.245c0.644,0,1.24-0.194,1.746-0.519c0.143,0.105,0.287,0.214,0.431,0.325  c-0.615,0.441-1.364,0.707-2.177,0.707c-2.072,0-3.757-1.687-3.757-3.759c0-2.071,1.685-3.756,3.757-3.756  c2.072,0,3.758,1.685,3.758,3.756c0,0.413-0.083,0.804-0.207,1.177c-0.145-0.111-0.289-0.221-0.434-0.327  c0.075-0.272,0.127-0.554,0.127-0.85C28.523,73.364,27.068,71.91,25.279,71.91z"/>
</svg>