<svg xmlns="http://www.w3.org/2000/svg" xmlns:xlink="http://www.w3.org/1999/xlink" version="1.1" id="Layer_1" x="0px" y="0px" width="26.95px" height="100px" viewBox="0 0 26.95 100" enable-background="new 0 0 26.95 100" xml:space="preserve">
<path d="M15.507,22.888c-6.311,0-11.444-5.133-11.444-11.443C4.062,5.134,9.196,0,15.507,0c6.31,0,11.443,5.134,11.443,11.444  C26.95,17.754,21.816,22.888,15.507,22.888z M15.507,0.659c-5.947,0-10.785,4.838-10.785,10.786c0,5.947,4.838,10.785,10.785,10.785  c5.946,0,10.784-4.838,10.784-10.785C26.291,5.497,21.453,0.659,15.507,0.659z"/>
<path d="M21.242,11.444c0-3.168-2.567-5.737-5.735-5.737c-3.168,0-5.737,2.569-5.737,5.737c0,2.264,1.315,4.215,3.22,5.148  c0.075-1.59,0.115-3.301,0.115-5.148c0-1.325,1.078-2.403,2.402-2.403c1.324,0,2.402,1.078,2.402,2.403  c0,1.876-0.041,3.624-0.114,5.259C19.822,15.819,21.242,13.798,21.242,11.444z"/>
<path d="M4.53,62.44c-0.332,0-0.601-0.27-0.601-0.602v-9.522c0-6.549,1.933-9.4,4.171-12.701c3.031-4.474,6.806-10.04,6.806-28.171  c0-0.332,0.269-0.601,0.601-0.601c0.331,0,0.6,0.269,0.6,0.601c0,18.5-3.888,24.235-7.013,28.845  C6.879,43.556,5.13,46.136,5.13,52.316v9.522C5.13,62.171,4.862,62.44,4.53,62.44z"/>
<path d="M7.236,61.989c0,0.415-0.336,0.751-0.75,0.751H2.574c-0.415,0-0.75-0.336-0.75-0.751l0,0c0-0.415,0.335-0.751,0.75-0.751  h3.912C6.9,61.238,7.236,61.574,7.236,61.989L7.236,61.989z"/>
<circle cx="9.69" cy="72.778" r="1.524"/>
<circle cx="9.69" cy="81.065" r="1.524"/>
<path d="M6.697,81.065c0-1.437,1.012-2.635,2.362-2.925v-2.438c-1.35-0.29-2.362-1.489-2.362-2.925s1.012-2.635,2.362-2.925v-3.445  c0-1.706-1.389-3.095-3.094-3.095h-2.87C1.389,63.313,0,64.702,0,66.408v17.458c0,1.707,1.389,3.096,3.095,3.096h2.87  c1.665,0,3.023-1.323,3.088-2.973C7.707,83.696,6.697,82.5,6.697,81.065z"/>
<path d="M20.616,67.374H10.26v2.467c1.38,0.267,2.422,1.48,2.422,2.938s-1.042,2.671-2.422,2.937v2.414  c1.38,0.267,2.422,1.479,2.422,2.937c0,1.46-1.046,2.675-2.43,2.938c-0.073,2.306-1.966,4.158-4.288,4.158h-2.87  c-0.694,0-1.348-0.169-1.929-0.462v6.294c0,3.316,2.688,6.006,6.005,6.006h13.446c3.315,0,6.004-2.689,6.004-6.006V73.379  C26.62,70.062,23.932,67.374,20.616,67.374z M21.601,91.774c0,1.668-1.352,3.021-3.019,3.021c-1.669,0-3.021-1.353-3.021-3.021  v-18.97c0-1.667,1.352-3.02,3.021-3.02c1.667,0,3.019,1.353,3.019,3.02V91.774z"/>
</svg>