<svg xmlns="http://www.w3.org/2000/svg" xmlns:xlink="http://www.w3.org/1999/xlink" version="1.1" id="Layer_1" x="0px" y="0px" width="96px" height="96px" viewBox="0 0 96 96" enable-background="new 0 0 96 96" xml:space="preserve">
<path d="M17.22,51.756c3.432-2.288,3.948-2.5,5.952-0.5c6.72,6.712,12.784,2.672,16.048,0.5c3.432-2.288,3.948-2.5,5.952-0.5  c6.721,6.712,12.78,2.672,16.049,0.5c3.432-2.288,3.947-2.5,5.951-0.5c2.764,2.764,5.416,3.704,7.813,3.704  c3.42,0,6.315-1.92,8.236-3.204c3.436-2.288,3.947-2.5,5.951-0.5c1.564,1.564,4.092,1.564,5.656,0s1.564-4.092,0-5.656  c-6.729-6.724-12.788-2.672-16.049-0.5c-3.432,2.284-3.951,2.5-5.951,0.5c-6.729-6.724-12.788-2.672-16.049-0.5  c-3.432,2.284-3.947,2.5-5.951,0.5c-6.72-6.724-12.788-2.672-16.048-0.5c-3.432,2.284-3.948,2.5-5.952,0.5  c-6.724-6.72-12.788-2.668-16.048-0.496c-3.432,2.284-3.948,2.5-5.952,0.5c-1.564-1.568-4.096-1.568-5.656,0  c-1.564,1.564-1.564,4.087,0,5.656C7.888,57.968,13.956,53.928,17.22,51.756z"/>
<path d="M78.779,61.9c-3.432,2.295-3.943,2.5-5.951,0.5c-6.729-6.721-12.78-2.672-16.049-0.5c-3.432,2.295-3.943,2.5-5.951,0.5  c-6.72-6.721-12.784-2.672-16.048-0.5c-3.432,2.295-3.944,2.5-5.952,0.5c-6.724-6.721-12.788-2.672-16.048-0.5  c-3.432,2.295-3.944,2.5-5.952,0.5c-1.564-1.564-4.092-1.564-5.656,0c-1.564,1.572-1.564,4.092,0,5.656  c6.716,6.728,12.784,2.672,16.048,0.5c3.432-2.281,3.948-2.5,5.952-0.5c6.72,6.728,12.788,2.672,16.048,0.5  c3.432-2.281,3.948-2.5,5.952-0.5c6.721,6.728,12.788,2.672,16.049,0.5c3.432-2.281,3.951-2.5,5.951-0.5  c2.764,2.764,5.42,3.711,7.816,3.711c3.424,0,6.316-1.92,8.232-3.211c3.436-2.281,3.951-2.5,5.951-0.5  c1.564,1.571,4.092,1.571,5.656,0c1.564-1.564,1.564-4.084,0-5.656C88.1,55.68,82.048,59.729,78.779,61.9z"/>
<path d="M78.779,78.704c-3.432,2.288-3.943,2.5-5.951,0.5c-6.729-6.728-12.788-2.681-16.049-0.5c-3.432,2.288-3.943,2.5-5.951,0.5  c-6.72-6.728-12.788-2.681-16.048-0.5c-3.432,2.288-3.944,2.5-5.952,0.5c-6.724-6.728-12.788-2.681-16.048-0.5  c-3.432,2.288-3.944,2.5-5.952,0.5c-1.564-1.572-4.092-1.572-5.656,0c-1.564,1.563-1.564,4.084,0,5.655  c6.716,6.721,12.784,2.673,16.048,0.5c3.432-2.287,3.944-2.508,5.952-0.5c6.72,6.721,12.788,2.673,16.048,0.5  c3.432-2.287,3.944-2.508,5.952-0.5c6.721,6.721,12.788,2.673,16.049,0.5c3.432-2.287,3.943-2.508,5.951-0.5  c2.764,2.757,5.416,3.705,7.813,3.705c3.42,0,6.315-1.92,8.236-3.205c3.432-2.287,3.943-2.508,5.951-0.5  c1.564,1.564,4.092,1.564,5.656,0c1.564-1.571,1.564-4.092,0-5.655C88.1,72.477,82.04,76.523,78.779,78.704z"/>
<path d="M58,42.832c1.1,0,2-0.9,2-2v-4h16v4c0,1.1,0.9,2,2,2s2-0.9,2-2v-18.8c0-6.04,4.816-10.596,11.2-10.596c1.104,0,2-0.896,2-2  c0-1.1-0.896-2-2-2c-8.104,0-14.468,5.82-15.084,13.42c-0.044,0-0.08-0.024-0.116-0.024H60.116c0.596-5.42,5.132-9.4,11.084-9.4  c1.104,0,2-0.9,2-2c0-1.104-0.896-2-2-2c-8.524,0-15.2,6.416-15.2,14.592v18.8C56,41.932,56.9,42.832,58,42.832z M76,32.832H60v-8  h16V32.832z"/>
</svg>