<svg xmlns="http://www.w3.org/2000/svg" xmlns:xlink="http://www.w3.org/1999/xlink" version="1.1" id="Layer_1" x="0px" y="0px" width="96px" height="96px" viewBox="0 0 96 96" enable-background="new 0 0 96 96" xml:space="preserve">
<path d="M50.805,54.305l5.283,14.1c0.604,1.596,2.128,2.588,3.748,2.588c0.469,0,0.939-0.084,1.408-0.252  c2.072-0.772,3.115-3.084,2.34-5.148l-6-16c-0.447-1.196-1.432-2.1-2.668-2.444l-18.124-5.084C36.572,42,36.36,42.04,36.14,42.016  c-0.26-0.032-0.516-0.084-0.772-0.064c-0.272,0.024-0.52,0.112-0.78,0.196c-0.232,0.072-0.46,0.112-0.676,0.228  c-0.244,0.116-0.44,0.3-0.652,0.468c-0.192,0.148-0.388,0.28-0.548,0.464c-0.18,0.208-0.296,0.456-0.432,0.704  c-0.1,0.18-0.248,0.324-0.324,0.524L18.328,81.62c-0.76,2.08,0.3,4.376,2.376,5.132c0.456,0.172,0.92,0.252,1.38,0.252  c1.628,0,3.16-1,3.752-2.615l12.352-33.613L50.805,54.305L50.805,54.305z"/>
<path d="M31.316,27.016l13.788,12.908c0.74,0.696,1.716,1.084,2.732,1.084h8c2.204,0,4-1.784,4-4c0-2.208-1.796-4-4-4h-6.42  L34.444,18.996c-1.36-1.268-3.432-1.44-4.98-0.396L13.92,29.152c-1.828,1.24-2.304,3.732-1.064,5.56  c1.24,1.828,3.732,2.304,5.556,1.064L31.316,27.016z"/>
<path d="M57.855,15c0,4.418-3.582,8-8,8c-4.417,0-8-3.582-8-8s3.582-8,8-8C54.273,7,57.855,10.582,57.855,15z"/>
<path d="M79.836,73h-32c-2.208,0-4,1.792-4,4v8c0,2.212,1.792,4,4,4c2.204,0,4-1.788,4-4v-4h24v4c0,2.212,1.788,4,4,4  c2.204,0,4-1.788,4-4v-8C83.836,74.792,82.04,73,79.836,73z"/>
</svg>