<?xml version="1.0" encoding="utf-8"?>
<!-- Generator: Adobe Illustrator 14.0.0, SVG Export Plug-In . SVG Version: 6.00 Build 43363)  -->
<!DOCTYPE svg PUBLIC "-//W3C//DTD SVG 1.0//EN" "http://www.w3.org/TR/2001/REC-SVG-20010904/DTD/svg10.dtd">
<svg version="1.0" id="Layer_1" xmlns="http://www.w3.org/2000/svg" xmlns:xlink="http://www.w3.org/1999/xlink" x="0px" y="0px"
	 width="71.395px" height="100px" viewBox="0 0 71.395 100" enable-background="new 0 0 71.395 100" xml:space="preserve">
<g>
	<circle cx="35.564" cy="13.745" r="13.745"/>
</g>
<path d="M53.701,31.673c-2.253,0-9.075,0-16.183,0v12.835l2.976,0.729v-2.976c0-1.934,1.762-3.689,4.977-1.527
	c4.529,3.053,9.405,20.394,4.116,19.711c-2.553-0.326-3.995-1.563-6.806-1.721c-2.283-0.118-2.283-1.1-2.287-2.391
	c-0.003-1.292,0-5.437,0-5.437v-2.311c-0.964-0.232-2.081-0.504-2.976-0.726v15.871c0,0,4.462-3.033,7.653-0.562
	c2.011,1.564,3.271,6.066-2.952,9.734c-1.436,0.874-9.253,2.942-11.708-1.662h-2.767c-1.248,0-2.26,1.02-2.26,2.267
	c0,1.247,1.012,2.263,2.26,2.263h16.388c2.589,0,4.697,2.109,4.697,4.701s-2.108,4.697-4.697,4.697H27.175
	c-0.579,0-1.052,0.474-1.052,1.059c0,0.582,0.474,1.053,1.052,1.053h16.957c2.589,0,4.697,2.108,4.697,4.701
	c0,2.592-2.108,4.698-4.697,4.698H24.3c-1.005,0-1.822-0.814-1.822-1.823c0-1.005,0.817-1.822,1.822-1.822h19.832
	c0.578,0,1.053-0.471,1.053-1.052c0-0.582-0.475-1.056-1.053-1.056H27.175c-2.589,0-4.697-2.108-4.697-4.698
	c0-2.592,2.108-4.704,4.697-4.704h16.957c0.578,0,1.053-0.471,1.053-1.052s-0.475-1.056-1.053-1.056H27.744
	c-3.255,0-5.904-2.65-5.904-5.908s2.649-5.911,5.904-5.911h3.658c0.023,0,0.043,0.013,0.067,0.013h1.244
	c1.211,0,1.164-1.281,1.16-1.281v-18.28c-1.029,0.286-2.206,0.612-2.972,0.824v2.021c0,0,0.003,4.146,0,5.437
	c0,1.291-0.01,2.273-2.287,2.391c-2.808,0.158-4.25,1.396-6.808,1.721c-5.287,0.683-0.407-16.658,4.112-19.711
	c3.214-2.162,4.983-0.407,4.983,1.527v3.235l2.972-0.821V31.673c-6.876,0-13.338,0-15.47,0C8.675,31.673,0,39.555,0,49.279
	c0,4.953,0,39.298,0,42.624s2.616,6.023,5.935,6.023c3.325,0,6.015-2.697,6.015-6.023c0-3.874,0-38.431,0-38.431h4.983V100h37.467
	V53.472h5.037c0,0,0,34.557,0,38.431c0,3.326,2.693,6.023,6.019,6.023c3.326,0,5.938-2.697,5.938-6.023s0-37.67,0-42.624
	C71.395,39.555,63.425,31.673,53.701,31.673z"/>
</svg>
