<svg xmlns="http://www.w3.org/2000/svg" xmlns:xlink="http://www.w3.org/1999/xlink" version="1.1" id="Layer_1" x="0px" y="0px" width="100px" height="100px" viewBox="-346 256 100 100" enable-background="new -346 256 100 100" xml:space="preserve">
<path d="M-295.982,256.129c-14.572,0-26.383,11.811-26.383,26.354c0,9.742,5.312,18.241,13.19,22.806v14.388h4.063V309.61h3.467  v10.066h3.988V309.61h3.467v10.066h4.061V309.61h3.467v10.066h3.868v-14.388c7.877-4.565,13.192-13.061,13.192-22.806  C-269.602,267.94-281.415,256.129-295.982,256.129z M-305.711,296.208c-3.609,0-6.537-2.922-6.537-6.529  c0-3.607,2.928-6.525,6.537-6.525c3.611,0,6.539,2.918,6.539,6.525C-299.172,293.285-302.1,296.208-305.711,296.208z   M-300.094,304.2l4.2-7.27l4.196,7.27H-300.094z M-286.089,296.208c-3.611,0-6.538-2.922-6.538-6.529  c0-3.607,2.927-6.525,6.538-6.525s6.537,2.918,6.537,6.525C-279.552,293.285-282.478,296.208-286.089,296.208z"/>
<path d="M-259.749,336.786c-0.68-0.279-1.399-0.424-2.146-0.424c-2.38,0-4.576,1.45-5.462,3.605l-0.153,0.373l-18.062-7.327  l18.062-7.327l0.155,0.374c0.884,2.157,3.078,3.604,5.458,3.604c0.743,0,1.466-0.139,2.146-0.419  c1.443-0.594,2.568-1.711,3.169-3.146c0.604-1.438,0.609-3.024,0.019-4.464c-0.578-1.402-1.663-2.508-3.06-3.119l-0.358-0.156  l0.144-0.367c0.565-1.415,0.562-2.965-0.009-4.361c-0.885-2.155-3.083-3.604-5.467-3.604c-0.746,0-1.467,0.143-2.146,0.423  c-2.972,1.223-4.396,4.635-3.178,7.607l0.155,0.378l-25.501,10.345l-25.501-10.345l0.154-0.378c1.22-2.975-0.208-6.387-3.181-7.607  c-0.679-0.278-1.4-0.421-2.145-0.421c-2.384,0-4.581,1.448-5.464,3.602c-0.576,1.398-0.581,2.948-0.014,4.361l0.146,0.367  l-0.358,0.156c-1.397,0.615-2.484,1.724-3.058,3.119c-0.589,1.439-0.583,3.025,0.02,4.464c0.602,1.437,1.725,2.554,3.163,3.143  c0.683,0.28,1.406,0.424,2.152,0.424c2.379,0,4.572-1.449,5.458-3.606l0.152-0.374l18.058,7.327l-18.058,7.327l-0.152-0.373  c-0.887-2.158-3.081-3.607-5.458-3.607c-0.747,0-1.471,0.145-2.151,0.426c-1.437,0.59-2.56,1.706-3.163,3.146  s-0.608,3.024-0.021,4.461c0.574,1.398,1.661,2.505,3.057,3.115l0.359,0.159l-0.146,0.364c-0.565,1.418-0.561,2.969,0.013,4.364  c0.884,2.157,3.08,3.604,5.465,3.604c0.744,0,1.466-0.139,2.145-0.419c2.975-1.223,4.402-4.641,3.181-7.613l-0.154-0.378  l25.501-10.339l25.501,10.339l-0.155,0.378c-1.222,2.971,0.204,6.388,3.18,7.615c0.676,0.275,1.395,0.415,2.133,0.415  c0.003,0,0.003,0,0.003,0c2.389,0,4.591-1.448,5.479-3.603c0.569-1.397,0.571-2.946,0.008-4.366l-0.146-0.364l0.358-0.157  c1.398-0.61,2.485-1.717,3.062-3.115C-255.345,341.415-256.775,338.003-259.749,336.786z"/>
</svg>