<svg xmlns="http://www.w3.org/2000/svg" xmlns:xlink="http://www.w3.org/1999/xlink" version="1.0" id="svg" x="0px" y="0px" width="100px" height="100px" viewBox="0 0 100 100" enable-background="new 0 0 100 100" xml:space="preserve">
<path fill="#000000" d="M80.484,44.494c-0.723-1.748-2.209-2.828-4.234-3.14V30c0-15.548-12.354-23.029-24.457-23.7  c-0.111-0.032-0.229-0.05-0.35-0.05h-2.887c-0.122,0-0.239,0.018-0.35,0.05C36.104,6.971,23.75,14.452,23.75,30v11.364  c-2.023,0.309-3.51,1.386-4.234,3.131c-1.683,4.054,1.078,10.366,4.601,13.889C24.36,58.628,24.68,58.75,25,58.75  c0.046,0,0.09-0.021,0.137-0.025c1.784,6.164,5.078,12.532,8.613,17.592V92.5c0,0.45,0.242,0.866,0.634,1.088  c0.191,0.107,0.403,0.162,0.616,0.162c0.223,0,0.445-0.061,0.643-0.178l12.203-7.322H55c2.205,0,5.453-2.607,8.75-6.628V92.5  c0,0.689,0.561,1.25,1.25,1.25s1.25-0.561,1.25-1.25V76.314c3.536-5.06,6.829-11.429,8.613-17.592  c0.046,0.006,0.09,0.025,0.137,0.025c0.32,0,0.641-0.122,0.884-0.366C79.404,54.861,82.166,48.551,80.484,44.494z M21.825,45.454  c0.341-0.821,0.979-1.333,1.925-1.557V50c0,1.454,0.148,2.975,0.415,4.529C22.031,51.427,20.946,47.568,21.825,45.454z M55,83.75  h-7.5H45c-3.661,0-18.75-18.439-18.75-33.75V30C26.25,15.4,38.562,8.75,50,8.75c11.438,0,23.75,6.65,23.75,21.25v20  C73.75,65.311,58.661,83.75,55,83.75z M75.836,54.529c0.266-1.557,0.414-3.075,0.414-4.529v-6.113  c0.947,0.227,1.585,0.741,1.926,1.563C79.053,47.567,77.968,51.427,75.836,54.529z M63.018,26.25l2.866-2.866  c1.599-1.599,1.337-4.182-0.625-6.143c-1.962-1.962-4.546-2.224-6.143-0.625l-2.866,2.866l-2.866-2.866  c-0.685-0.686-1.557-1.047-2.521-1.047c-1.963,0-4.088,1.554-4.942,3.614c-0.653,1.575-0.399,3.106,0.695,4.201l2.866,2.866  l-2.866,2.866c-1.599,1.599-1.336,4.182,0.625,6.143c1.102,1.103,2.401,1.668,3.61,1.668c0.942,0,1.832-0.343,2.53-1.043  l2.866-2.866l2.865,2.866c0.686,0.686,1.558,1.047,2.521,1.047c1.966,0,4.091-1.554,4.943-3.614  c0.651-1.575,0.397-3.106-0.695-4.201L63.018,26.25z M60.884,18.384c0.785-0.783,2.05,0.066,2.607,0.625  c0.475,0.476,0.806,1.04,0.907,1.549c0.117,0.579-0.105,0.881-0.282,1.059l-2.866,2.866l-3.232-3.232L60.884,18.384z M51.616,34.116  c-0.783,0.784-2.049-0.066-2.607-0.625c-0.559-0.559-1.409-1.823-0.625-2.607l2.866-2.866l3.232,3.232L51.616,34.116z M64.27,32.36  c-0.602,1.451-2.486,2.652-3.386,1.756l-12.5-12.5c-0.134-0.134-0.541-0.541-0.153-1.476c0.457-1.104,1.688-2.071,2.632-2.071  c0.299,0,0.537,0.1,0.753,0.315l12.5,12.5C64.25,31.018,64.657,31.425,64.27,32.36z"/>
</svg>