<?xml version="1.0" encoding="utf-8"?>
<!-- Generator: Adobe Illustrator 15.0.0, SVG Export Plug-In . SVG Version: 6.00 Build 0)  -->
<!DOCTYPE svg PUBLIC "-//W3C//DTD SVG 1.1//EN" "http://www.w3.org/Graphics/SVG/1.1/DTD/svg11.dtd">
<svg version="1.1" id="Layer_1" xmlns="http://www.w3.org/2000/svg" xmlns:xlink="http://www.w3.org/1999/xlink" x="0px" y="0px"
	 width="100px" height="100px" viewBox="0 0 100 100" enable-background="new 0 0 100 100" xml:space="preserve">
<path d="M92.814,31.525C91.5,22,84.99,21.189,84.555,20.341c-0.031-0.061-0.043-0.221-0.041-0.448L84.6,18.55
	c0.401-4.252,2.041-14.479,2.041-14.479c-0.106,0.007-6.463,0.484-6.353,1.378c0.003,0.021,0.017,0.04,0.021,0.06
	c-0.055,1.021-0.74,13.756-1.088,14.128c-0.681,0.728-4.088-0.02-6.89,8.922c-2.556,8.158-2.417,17.454-12.554,26.684
	c-9.071,8.261-22.27,13.501-33.369,12.096C19.277,66.436,8.91,61.173,8.91,61.173L8.879,61.26c-0.677-0.551-1.784-0.252-2.788,0.48
	c-1.118,0.814-2.67,1.979-2.557,3.177c0.194,2.056,0.569,4.612,1.367,6.854c0.797,2.244,3.236,9.356,12.373,13.823
	c9.149,4.476,22.123,4.296,31.605,3.125C58.361,87.55,98.991,76.288,92.814,31.525z M66.95,66.943
	C51.16,78.711,37.344,79.093,27.16,77.855C15.006,76.381,7.806,67.208,7.52,66.29c-0.065-0.207,0.232-0.499,0.615-0.892
	c1.955,1.969,9.24,8.666,19.389,10.274c11.209,1.777,26.914-1.891,38.408-10.983c12.312-9.738,15.285-24.661,15.373-34.431
	c0.024-2.79-0.062-4.415-0.107-5.485c0.072-1.649,0.271-2.372,0.738-2.372c0.334,0,0.562,0.184,0.73,0.471
	c0.357,1.061,0.727,2.94,0.869,6.537C83.938,39.608,81.789,55.889,66.95,66.943z"/>
</svg>
