<svg xmlns="http://www.w3.org/2000/svg" xmlns:xlink="http://www.w3.org/1999/xlink" version="1.1" id="Your_Icon" x="0px" y="0px" width="100px" height="100px" viewBox="0 0 100 100" enable-background="new 0 0 100 100" xml:space="preserve">
<path d="M54.361,76.408c2.707,0,4.91,2.203,4.91,4.91s-2.203,4.907-4.91,4.907c-2.705,0-4.908-2.2-4.908-4.907  S51.656,76.408,54.361,76.408 M47.658,55.468c6.553,0,8.371-5.5,8.42-8.435v-5.904c11.863-1.32,21.248-16.198,21.248-34.311V5.28  h-9.109v3.078h6.006C73.713,24.928,65,38.156,54.361,38.156S35.01,24.928,34.498,8.358h6.137V5.28h-9.238v1.538  c0,18.292,9.574,33.289,21.604,34.353V47c-0.016,0.554-0.285,5.39-5.342,5.39c-6.527,0-8.455,5.479-8.561,8.378l-0.002,0.055  l0.002,0.054c0.102,2.9,2.004,8.382,8.488,8.382c3.572,0,4.705,2.58,5.064,4.263c-3.582,0.784-6.275,3.979-6.275,7.798  c0,4.404,3.584,7.985,7.986,7.985c4.404,0,7.988-3.581,7.988-7.985c0-3.922-2.844-7.187-6.572-7.854  c-0.494-3.085-2.584-7.284-8.191-7.284c-4.893,0-5.365-4.604-5.41-5.356C42.213,60.212,42.664,55.468,47.658,55.468"/>
<path d="M54.361,83.424c1.164,0,2.107-0.942,2.107-2.107c0-1.162-0.943-2.106-2.107-2.106c-1.162,0-2.105,0.944-2.105,2.106  C52.256,82.481,53.199,83.424,54.361,83.424"/>
</svg>