<svg xmlns="http://www.w3.org/2000/svg" xmlns:xlink="http://www.w3.org/1999/xlink" version="1.1" id="Layer_1" x="0px" y="0px" width="50.4px" height="50.4px" viewBox="0 0 50.4 50.4" enable-background="new 0 0 50.4 50.4" xml:space="preserve">
<g id="Layer_1_1_">
</g>
<path d="M42.384,47.319h-2.883h-2.887l-0.043-4.804c-0.044-1.801-0.314-3.118-1.172-4.217c-0.774-0.994-1.554-2.199-4.863-3.207  c-4.939-1.509-7.875,0.138-9.324,1.274C18.948,38.139,14.126,47,14.126,47H6.844c-0.958,0-1.734,0.759-1.734,1.691  c0,0.935,0.776,1.691,1.734,1.691c0,0,8.634,0,8.73,0c0.51,0,1.016-0.219,1.359-0.64l5.456-6.701l3.984,3.983h-5.329  c-0.955,0-1.729,0.756-1.729,1.686c0,0.936,0.775,1.689,1.729,1.689h8.91c0.686,0,1.306-0.396,1.584-1.008  c0.193-0.43,0.206-0.982,0.03-1.402c-0.05-0.593-4.173-6.999-4.173-6.999c0.48-0.017,0.985,0.028,1.488,0.19  c1.465,0.456,2.51,1.407,2.513,1.407c0,0,0.178,0.17,0.263,0.256l1.692,6.295c0.107,0.326,0.532,1.261,1.673,1.261h4.476h2.883  c0.954,0,1.729-0.569,1.729-1.499C44.112,47.969,43.338,47.319,42.384,47.319z"/>
<g>
	<path d="M17.277,20.139c0.581,0.172,1.19,0.258,1.807,0.258c1.22,0,2.473-0.331,3.612-0.973c3.07-1.729,4.132-5.521,2.418-8.633   c-0.227-0.41-0.74-0.557-1.151-0.333c-0.409,0.226-0.559,0.741-0.333,1.15c1.261,2.288,0.485,5.073-1.765,6.34   c-1.319,0.744-2.815,0.949-4.105,0.568c-1.009-0.3-1.781-0.918-2.235-1.788c-0.316-0.608-0.449-1.283-0.396-2.006   c0.034-0.467-0.316-0.873-0.783-0.907c-0.47-0.028-0.873,0.316-0.907,0.783c-0.076,1.027,0.126,2.034,0.584,2.913   C14.683,18.779,15.839,19.713,17.277,20.139z"/>
	<path d="M46.359,11.962c-1.152-1.163-2.746-1.809-4.44-1.75c-0.959,0.018-2.153,0.35-3.062,0.829   c-0.347-0.855-0.818-1.504-1.266-1.966c-1.508-1.549-3.508-1.994-4.772-1.905c-0.023,0.002-0.043,0.015-0.065,0.019   c0-0.148,0.006-0.296-0.003-0.444c-0.114-1.859-0.99-3.54-2.464-4.731c-2.034-1.65-4.834-2.321-7.308-1.759   c-1.648,0.376-3.917,1.468-5.36,4.53c-0.199,0.423-0.019,0.928,0.405,1.127c0.42,0.198,0.927,0.018,1.127-0.405   c0.913-1.936,2.366-3.181,4.205-3.601c1.975-0.451,4.226,0.094,5.866,1.424c1.41,1.141,1.778,2.543,1.839,3.519   c0.094,1.532-0.516,3.137-1.631,4.293c-0.325,0.337-0.315,0.873,0.021,1.198c0.164,0.158,0.377,0.237,0.588,0.237   c0.223,0,0.443-0.087,0.609-0.259c0.964-1,1.619-2.226,1.922-3.526c0.115,0.049,0.239,0.078,0.37,0.068   c0.961-0.066,2.404,0.335,3.437,1.396c1.016,1.045,1.438,2.501,1.256,4.328c-0.163,1.63-0.907,2.915-2.152,3.716   c-1.584,1.021-3.787,1.167-6.045,0.4c-0.264-0.09-0.555-0.043-0.776,0.123c-0.224,0.166-0.351,0.43-0.341,0.708   c0.005,0.153,0.041,0.25,0.109,0.425c0.971,2.531,1.967,7.101-2.273,9.271c-1.789,0.918-3.615,1.019-5.277,0.296   c-2.17-0.943-3.951-3.203-4.764-6.047c-0.082-0.287-0.309-0.509-0.596-0.584c-0.289-0.078-0.596,0.002-0.81,0.21   c-1.192,1.163-3.174,2.4-4.427,2.458c-1.425,0.066-2.62-0.406-3.459-1.366c-1.004-1.146-1.386-2.875-1.05-4.747   c0.083-0.461-0.223-0.901-0.684-0.984c-0.457-0.08-0.9,0.223-0.984,0.684c-0.428,2.381,0.098,4.627,1.443,6.162   c1.175,1.342,2.877,2.024,4.812,1.942c1.57-0.071,3.336-1.141,4.542-2.081c1.082,2.748,3.004,4.91,5.301,5.907   c0.955,0.415,1.943,0.621,2.947,0.621c1.251,0,2.525-0.322,3.777-0.963c1.978-1.012,3.218-2.568,3.741-4.519   c1.151,1.014,2.979,2.345,5.45,2.345c0.413-0.002,0.846-0.037,1.294-0.12c1.765-0.325,3.32-1.339,4.27-2.783   c0.655-0.997,0.975-2.122,0.933-3.245c3.23-0.359,5.465-2.542,5.548-5.557C48.212,14.922,47.573,13.183,46.359,11.962z    M41.659,20.772c-0.001,0-0.002,0-0.004,0c-0.257,0-0.502,0.117-0.662,0.318c-0.16,0.203-0.221,0.466-0.163,0.718   c0.228,0.984,0.026,2.021-0.565,2.92c-0.696,1.06-1.848,1.805-3.161,2.046c-2.818,0.527-4.746-1.278-5.896-2.353   c-0.094-0.087-0.177-0.166-0.259-0.238c0.015-1.077-0.137-2.233-0.488-3.47c2.197,0.403,4.3,0.062,5.935-0.989   c1.671-1.076,2.708-2.842,2.921-4.972c0.077-0.771,0.056-1.458-0.029-2.076c0.073-0.019,0.148-0.032,0.216-0.073   c0.665-0.385,1.718-0.686,2.447-0.699c1.265-0.039,2.383,0.42,3.208,1.25c0.896,0.903,1.348,2.167,1.308,3.656   C46.401,19.18,44.47,20.772,41.659,20.772z"/>
</g>
<path d="M41.791,45.817c1.482-0.748,2.074-2.558,1.328-4.036c-0.745-1.479-2.556-2.073-4.04-1.322  c-1.479,0.753-2.071,2.56-1.324,4.037C38.505,45.973,40.314,46.568,41.791,45.817z"/>
</svg>