<svg xmlns="http://www.w3.org/2000/svg" xmlns:xlink="http://www.w3.org/1999/xlink" version="1.1" x="0px" y="0px" width="100px" height="100px" viewBox="-346 256 100 100" enable-background="new -346 256 100 100" xml:space="preserve">
<g id="Layer_1">
	<g id="Layer_2">
	</g>
	<path d="M-327.043,258.763v4.446v4.45l7.407,0.067c2.775,0.066,4.808,0.483,6.501,1.804c1.532,1.196,3.39,2.396,4.945,7.5   c2.325,7.615-0.211,12.143-1.964,14.375c-2.735,3.49-16.396,10.927-16.396,10.927v9.068c0,1.48-1.17,2.677-2.61,2.677   c-1.442,0-2.607-1.196-2.607-2.677c0,0,0-11.153,0-11.302c0-0.786,0.337-1.566,0.985-2.093l10.333-8.413l-6.143-6.145v8.218   c0,1.473-1.164,2.667-2.597,2.667c-1.443,0-2.605-1.195-2.605-2.667v-13.737c0-1.058,0.611-2.016,1.554-2.443   c0.663-0.298,1.517-0.317,2.164-0.045c0.914,0.078,10.791,6.433,10.791,6.433c0.025-0.74-0.043-1.518-0.293-2.294   c-0.704-2.259-2.169-3.871-2.169-3.875c0,0-0.264-0.272-0.395-0.405l-9.708-2.608c-0.502-0.167-1.943-0.823-1.943-2.58v-6.901   v-4.446c0-1.472,0.878-2.665,2.312-2.665C-328.045,256.098-327.043,257.291-327.043,258.763z"/>
	<path d="M-313.421,261.308c1.3-2.576,4.442-3.603,7.009-2.306c2.569,1.293,3.602,4.435,2.296,7.015   c-1.308,2.569-4.446,3.596-7.011,2.299C-313.695,267.015-314.725,263.872-313.421,261.308z"/>
	<path d="M-335.813,337.559h-0.051v-81.085h-7.977v99.443h0.134V356h7.894v-10.999h52.919c-0.517-0.275-0.871-0.812-0.871-1.44   c0-0.906,0.733-1.641,1.639-1.641c0.907,0,1.642,0.734,1.642,1.641c0,0.628-0.356,1.165-0.873,1.44h25.263V356h7.939v-18.441   H-335.813z"/>
	<path d="M-255.103,316.432h-11.944c0.094,0.207,0.149,0.434,0.149,0.677c0,0.906-0.733,1.64-1.64,1.64   c-0.905,0-1.64-0.733-1.64-1.64c0-0.243,0.056-0.47,0.149-0.677h-21.359c0.121-0.229,0.195-0.486,0.195-0.765   c0-0.904-0.733-1.64-1.639-1.64c-0.907,0-1.643,0.735-1.643,1.64c0,0.278,0.076,0.535,0.197,0.765h-3.086   c0.122-0.229,0.198-0.487,0.198-0.765c0-0.906-0.734-1.642-1.641-1.642c-0.905,0-1.64,0.735-1.64,1.642   c0,0.277,0.076,0.535,0.197,0.765h-32.785v5.487v12.789h35.219c-0.58-0.253-0.984-0.829-0.984-1.502   c0-0.906,0.734-1.642,1.641-1.642c0.906,0,1.639,0.735,1.639,1.642c0,0.673-0.404,1.249-0.983,1.502h47.729v-11.452   C-248.772,319.781-251.243,316.432-255.103,316.432z M-305.804,324.102c-0.906,0-1.641-0.733-1.641-1.64s0.734-1.641,1.641-1.641   c0.906,0,1.64,0.734,1.64,1.641S-304.898,324.102-305.804,324.102z M-290.669,325.13c-0.906,0-1.642-0.734-1.642-1.64   c0-0.906,0.735-1.641,1.642-1.641c0.905,0,1.64,0.734,1.64,1.641C-289.029,324.396-289.764,325.13-290.669,325.13z    M-285.007,328.013c-0.906,0-1.642-0.734-1.642-1.641c0-0.905,0.735-1.64,1.642-1.64c0.904,0,1.64,0.734,1.64,1.64   C-283.367,327.278-284.103,328.013-285.007,328.013z M-284.184,323.278c-0.906,0-1.641-0.734-1.641-1.641s0.734-1.641,1.641-1.641   s1.64,0.734,1.64,1.641S-283.277,323.278-284.184,323.278z M-274.302,326.778c-0.906,0-1.639-0.734-1.639-1.642   c0-0.905,0.732-1.641,1.639-1.641c0.907,0,1.64,0.735,1.64,1.641C-272.662,326.044-273.395,326.778-274.302,326.778z"/>
	<circle cx="-279.655" cy="312.58" r="1.64"/>
</g>
<g id="Layer_3">
</g>
<g id="Layer_2_1_">
</g>
</svg>