<svg xmlns="http://www.w3.org/2000/svg" xmlns:xlink="http://www.w3.org/1999/xlink" version="1.1" x="0px" y="0px" width="100px" height="100px" viewBox="-346 256 100 100" enable-background="new -346 256 100 100" xml:space="preserve">
<g id="Layer_1">
	<g id="Layer_2">
	</g>
</g>
<g id="Layer_3">
</g>
<g id="Layer_2_1_">
	<path d="M-270.506,296.571c2.956,0.53,5.261,2.004,6.668,4.262c1.765,2.835,2.047,6.81,0.791,11.195   c-0.181,0.622-0.391,1.213-0.633,1.781c-2.146,5.058-6.734,8.244-11.392,8.244c-0.922,0-1.85-0.124-2.762-0.386   c-1.135-0.327-1.79-1.512-1.466-2.646c0.326-1.136,1.52-1.787,2.644-1.466c3.439,0.998,7.315-1.345,9.038-5.412   c0.175-0.413,0.331-0.851,0.463-1.302c0.902-3.153,0.79-5.98-0.312-7.749c-0.771-1.238-2.013-1.995-3.795-2.314   c-2.618-0.467-5.69,0.518-6.627,3.791c-0.325,1.134-1.509,1.792-2.644,1.467c-1.135-0.323-1.792-1.509-1.467-2.642   c0.339-1.188,0.877-2.243,1.555-3.161l-22.687,12.136l3.444,16.274h36.963c8.106-7.165,14.773-20.772,14.773-32.065   c0-4.309-0.74-8.568-2.05-12.625l-23.378,12.5C-272.449,296.385-271.494,296.393-270.506,296.571z"/>
	<circle cx="-316.179" cy="315.062" r="2.851"/>
	<circle cx="-325.352" cy="312.077" r="2.851"/>
	<circle cx="-309.676" cy="321.964" r="2.852"/>
	<circle cx="-308.339" cy="331.048" r="2.851"/>
	<path d="M-298.774,332.958l-15.866,17.809c-4.065-0.537-18.011-3.42-22.446-17.998c-4.874-16.012,4.05-27.101,7.091-30.29   l22.184,7.546l56.279-30.101c-5.874-13.4-18.492-23.657-34.012-23.786c-16.893-0.142-34.019,10.871-37.447,28.396   c-0.718,3.106-1.532,11.223-1.532,11.223l-2.062,2.915l-4.556-1.549l-1.021,0.899c-0.658,0.579-16.024,14.432-9.424,36.117   c6.068,19.948,27.549,21.423,27.765,21.437l1.137,0.066l7.819-8.775V356h40.582l0.263-23.08h-34.761L-298.774,332.958z    M-310.791,291.636c2.268,0,4.1,1.833,4.1,4.096c0,2.265-1.832,4.1-4.1,4.1c-2.263,0-4.098-1.834-4.098-4.1   C-314.889,293.468-313.054,291.636-310.791,291.636z"/>
</g>
</svg>