<svg xmlns="http://www.w3.org/2000/svg" xmlns:xlink="http://www.w3.org/1999/xlink" version="1.1" id="Layer_1" x="0px" y="0px" width="75px" height="75px" viewBox="0 0 75 75" enable-background="new 0 0 75 75" xml:space="preserve">
<path d="M52.278,25.514c-0.355-1.501-0.733-2.51-0.733-2.51c-0.332-1.157-1.009-2.005-1.146-2.407  c-0.138-0.401-0.229-1.146-0.412-1.845c-0.184-0.699-0.895-2.029-1.215-2.464c-0.321-0.436-0.723-0.688-1.124-0.779  c-0.4-0.092-1.042-0.367-1.248-0.516c-0.207-0.149-1.089-0.733-1.742-1.032c-0.653-0.298-1.295-0.665-1.295-0.665  c-0.101-0.1-0.054-0.184-0.073-0.325c-0.019-0.141,0-0.359,0.046-0.626s-0.003-0.21,0.084-0.691  c0.088-0.481,0.214-0.409,0.214-0.409c-0.011,0.187,0.337,0.226,0.481,0.191c0.146-0.034,0.505-0.294,0.653-0.497  c0.149-0.203,0.397-0.535,0.52-1.085c0.123-0.55-0.43-0.506-0.43-0.506s0.104-0.149,0.16-0.361c0.059-0.212,0.087-0.888,0.109-1.141  c0.023-0.252,0.034-0.796-0.086-1.416c-0.121-0.619-0.471-1.123-0.59-1.381C44.33,4.793,43.58,4.02,42.938,3.773  c-0.642-0.246-1.639-0.258-1.919-0.287c-0.281-0.029-1.232,0-1.754,0.31s-0.854,0.739-1.192,1.175  c-0.338,0.436-0.613,1.14-0.762,1.599s-0.16,1.748-0.16,1.748c-0.447-0.132-0.471,0.332-0.477,0.67  c-0.005,0.338,0.189,0.796,0.442,1.25c0.252,0.452,0.718,0.371,0.718,0.371s0.03,0.581,0.038,0.764  c0.008,0.184,0.015,1.888-0.046,2.147c-0.062,0.26-0.329,0.268-0.504,0.199c-0.176-0.069-0.138-0.115-0.291-0.146  c-0.152-0.031-1.169,0-1.307,0.023c-0.137,0.023-0.435,0.221-0.634,0.298c-0.198,0.077-1.069,0.046-1.177,0.015  c-0.106-0.03-0.573-0.145-1.215,0.062s-0.817,0.481-1.215,0.978c-0.396,0.497-0.703,1.154-0.84,1.459  c-0.138,0.306-0.321,0.978-0.344,1.375c-0.023,0.398-0.161,0.963-0.367,1.185s-0.702,0.833-0.908,1.13  c-0.207,0.298-0.619,1.215-0.712,1.391c-0.091,0.175-0.183,0.451-0.474,0.695c-0.29,0.245-1.054,1.245-1.345,1.704  c-0.29,0.458-0.702,1.215-1.046,2.162c-0.344,0.948-0.963,1.849-1.284,2.032c-0.321,0.184-1.207,0.849-1.406,0.956  s-0.237,0.313-0.229,0.917c0.008,0.604,0.146,1.055,0.184,1.299c0.039,0.245,0.229,0.573,0.497,0.566  c0.268-0.008,0.329,0.015,0.573,0.122c0.244,0.107,0.672,0.183,0.894,0.176c0.222-0.008,0.291-0.146,0.52-0.367  c0.229-0.222,0.046-0.443,0.046-0.443c-0.703-0.573-0.71-0.84-0.71-0.84c0.352-0.031,0.81-0.382,0.81-0.382s0.405-0.343,0.688-0.55  c0.283-0.207,0.176-0.611,0.244-0.649c0.069-0.039,0.474-0.466,0.833-0.68s1.758-1.214,1.919-1.375  c0.16-0.161,0.625-0.71,0.854-1.139c0.229-0.428,0.505-1.085,0.505-1.085c1.017-1.222,1.772-2.078,2.093-2.514  c0.321-0.436,0.437-0.672,0.512-0.604c0.077,0.069-0.015,1.009-0.022,1.551c-0.008,0.542-0.114,2.025-0.184,2.308  c-0.068,0.283-0.451,1.23-0.542,1.566c-0.092,0.336-0.145,1.322-0.176,1.551c-0.03,0.229,0.107,1.016,0.191,1.184  c0.084,0.167-0.009,0.367-0.36,0.413c-0.351,0.045-0.068,0.344-0.251,0.519c-0.184,0.176-0.665,0.55-0.917,1.062  c-0.253,0.512-0.627,0.97-0.795,1.192c-0.168,0.221-0.198,0.352-0.016,0.488c0.184,0.138,0.275,0.206,0.131,0.306  c-0.146,0.1-0.359,0.52-0.451,0.795s-0.229,0.588-0.352,1.207s-0.421,0.764-0.695,1.688c-0.275,0.926-0.206,1.415-0.222,1.843  s0.229,0.619,0.153,0.833c-0.076,0.213-0.367,1.443-0.497,2.062c-0.13,0.619-0.306,1.605-0.32,2.767  c-0.016,1.161,0.175,3.231,0.175,3.896s-0.236,0.855-0.442,1.658c-0.206,0.802-0.077,1.161-0.237,1.498  c-0.16,0.336-0.596,0.863-1.329,2.308c-0.733,1.443-0.955,3.407-0.963,3.621s-0.222,1.918-0.375,5.096  c-0.152,3.178-0.45,3.478-0.527,3.82c-0.075,0.344-0.526,0.825-0.68,1.031c-0.152,0.207-0.335,0.482-0.794,0.757  c-0.458,0.275-0.924,0.688-1.192,0.886c-0.267,0.199-0.389,0.787-0.443,1.215s0.046,0.481,0.413,0.642  c0.367,0.161,0.711,0.222,1.795,0.268c1.086,0.046,1.146-0.268,1.445-0.336c0.297-0.068,0.816-0.42,1.397-0.412  c0.581,0.007,0.588-0.336,0.688-0.52c0.099-0.184,0.145-0.627,0.175-0.879c0.03-0.253-0.1-1.047-0.084-1.383  s0.022-0.787,0.229-1.536c0.206-0.749,0.473-1.611,0.642-2.147c0.169-0.534,0.779-1.963,1.093-2.43  c0.313-0.465,0.816-1.222,1.184-2.139s0.451-2.575,0.475-2.767c0.022-0.19,0.129-2.734,0.129-2.734  c0.573-0.619,1.093-1.819,1.299-2.239c0.207-0.42,1.108-2.628,1.192-2.842s0.222-0.496,0.405-0.985s0.374-1.009,0.596-1.36  s0.771-1.146,0.97-1.628c0.2-0.48,0.497-1.376,0.597-1.611c0.1-0.238,0.184-0.092,0.184-0.092c0.213,1.352,0.206,3.43,0.206,3.43  s-0.345,4.783-0.345,5.784s0.191,1.413,0.367,1.59c0.176,0.176,0.902,0.932,1.215,1.283c0.313,0.352,0.871,0.352,1.178,0.344  c0.305-0.008,0.862-0.397,1.054-0.573c0.19-0.176,1.33-1.261,1.422-1.383c0.091-0.122,0.656-0.825,0.656-0.825  s0.138,0.175,0.222,0.268c0.084,0.091,0.252,0.091,0.481,0.053c0.229-0.038,0.557-0.29,0.695-0.39  c0.138-0.099,0.466-0.496,0.588-0.68s0.382-0.634,0.451-0.916c0.069-0.283,0.13-0.888,0.145-1.338  c0.016-0.451-0.113-0.695-0.229-0.81c-0.113-0.115-0.328-0.421-0.664-0.811s-0.657-1.101-0.657-1.101  c0.031-0.076,0.421-1.94,0.444-2.101c0.022-0.161,0.183-1.283,0.183-1.283s0.214-0.397,0.427-0.741  c0.215-0.344,0.91-1.758,1.056-2.056s0.68-1.742,0.757-2.147c0.076-0.405,0.092-0.512,0.259-1.551  c0.168-1.039-0.076-1.452-0.076-1.452c-0.382-0.428-0.443-0.587-0.443-0.587c0.054-0.253,0.229-0.91,0.008-2.247  c-0.222-1.336-0.357-2.284-0.208-2.353c0.148-0.068,0.444-0.334,0.547-0.541c0.104-0.206,0.245-0.267,0.245-0.267  c0.171,0,1.242,0.009,1.598-0.014s2.258-0.252,2.864-0.39c0.607-0.138,1.502-0.424,1.983-0.894c0.481-0.47,0.481-1.375,0.481-1.375  S52.634,27.016,52.278,25.514z M48.943,26.396c-0.012,0.068-0.721,0.436-0.91,0.562c-0.19,0.125-0.508,0.498-2.182,0.75  c0,0,0.055-0.212,0.135-0.43s0.332-0.802,0.47-1.261s0.253-1.307,0.299-1.627c0.045-0.32,0.252-1.272,0.344-1.719  c0,0,1.501,2.706,1.719,3.049C49.035,26.064,48.955,26.328,48.943,26.396z M47.058,23.668c0,0-0.171,0.594-0.284,1.566  s-0.306,1.38-0.306,1.38s-0.256,0.668-0.313,0.818c-0.028,0.072-0.06,0.156-0.084,0.24l-0.009,0.001c0,0-0.826,0.185-1.356,0.305  c-0.448,0.102-0.937-0.089-1.207-0.182c-0.271-0.093-0.738-0.161-1.327-0.107c-0.517,0.046-0.594,0.133-0.894,0.463  c-0.299,0.33-0.273,0.48-0.188,0.599s-0.17,0.191-0.327,0.276c-0.156,0.084-0.32,0.322-0.188,0.45  c0.132,0.128,0.515,0.115,0.668,0.107c0.154-0.008,0.368-0.014,0.346,0.139c-0.022,0.152,0.01,0.444,0.098,0.524  c0.089,0.081,0.422,0.142,0.483,0.145c0.062,0.002,0.114,0.158-0.015,0.32c-0.13,0.163,0.064,0.263,0.217,0.27  s0.226,0.087,0.205,0.193c-0.02,0.106,0.076,0.325,0.259,0.348c0.183,0.024,0.651,0.038,0.857-0.014  c0.232-0.059,1-0.436,1.177-0.626c0,0,0.142-0.104,0.294-0.241c-0.089,0.257-0.148,0.428-0.148,0.428s0.022,0.224,0.023,0.467  c0,0.244,0,0.755,0.157,1.678c0.156,0.925,0.144,1.428,0.109,1.709c-0.034,0.282-0.032,0.312-0.096,0.596  c-0.064,0.282-2.918,1.118-5.18,0.32c-2.263-0.8-2.617-0.267-3.637-0.533c-1.021-0.267-2.528-0.177-3.15-0.576  c-0.62-0.399-1.405-0.308-2.499-1.107c0,0-0.498-0.243-0.217-0.615c0,0,0.472-0.608,0.621-0.872  c0.149-0.264,0.388-0.695,0.575-0.887c0.188-0.192,0.306-0.3,0.401-0.387c0.095-0.087,0.161-0.103,0.157-0.368  s0.229-0.23,0.229-0.23s0.398-0.039,0.302-0.391c-0.098-0.353-0.221-0.706-0.176-1.229c0.044-0.524,0.092-1.001,0.092-1.001  s-0.007-0.244,0.241-0.926c0.248-0.681,0.419-0.576,0.527-3.134c0,0,0.074-1.103,0.051-1.487c-0.023-0.384,0.384,0.06,1.186-3.383  c0.58-2.483,0.187-2.033,1.123-4.49l1.124-0.032c0,0,0.125-0.016,0.273,0.067c0,0,0.025,2.908,2.199,3.484  c1.682,0.446,2.279,0.299,2.989-0.056c0.71-0.355,1.774-1.659,2.002-3.179c0,0,0.852,0.42,1.238,0.657c0,0-0.934,3.097-0.214,5.547  C45.819,21.916,46.168,23.01,47.058,23.668z M30.47,33.773c0.375,0.352,1.284,0.566,2.005,0.924c1.089,0.538,1.467,0.461,2.35,0.596  c1.203,0.183,2.35,0.378,3.051,0.334c0.715-0.043,1.225,0.331,2.176,0.388c0.404,0.025,1.317,0.424,1.811,0.355  c0.273-0.038,0.458,0.161,2.131-0.104c1.308-0.206,1.029-0.874,1.21-0.583c0.18,0.289,0.418,0.229,0.497,1.026  c0.062,0.63-0.115,1.891-0.281,2.582c-0.352,1.456-1.012,2.831-1.492,3.695c-0.253,0.456-0.556,1.321-1.448,2.061  c-0.496,0.41-1.403,0.827-2.004,0.889s-1.987-0.29-2.601-0.527c-0.438-0.17-1.153-0.575-1.728-1.055  c-0.395-0.33-0.507-0.81-0.702-1.207c-0.196-0.397-0.92-1.865-1.513-2.109c-0.168-0.069-0.903-0.504-1.219-0.627  c-0.315-0.121-1.045-0.202-1.556-0.553c-0.51-0.352-0.693-0.501-1.054-0.852c-0.36-0.352-0.559-0.857-0.559-0.857  s-0.135,0.352-0.345,0.765s-0.631,1.265-0.717,1.08c-0.235-0.505,0.221-0.598,0.235-1.5c0.016-0.902,0.647-2.184,0.723-2.413  c0.074-0.23,0.112-0.043,0.24-0.704C29.883,34.33,30.47,33.773,30.47,33.773"/>
</svg>