<svg xmlns="http://www.w3.org/2000/svg" xmlns:xlink="http://www.w3.org/1999/xlink" xml:space="preserve" width="100px" height="100px" style="shape-rendering:geometricPrecision; text-rendering:geometricPrecision; image-rendering:optimizeQuality; fill-rule:evenodd; clip-rule:evenodd" viewBox="0 0 100 100">
 <defs>
  <style type="text/css">
   
    .str0 {stroke:black;stroke-width:0.900007}
    .fil0 {fill:black}
   
  </style>
 </defs>
 <g id="Layer_x0020_1">
  <metadata id="CorelCorpID_0Corel-Layer"/>
  <g id="_378370816">
   <path id="_380809616" class="fil0 str0" d="M20.3813 5.13547l7.64888 0c-0.0177167,0.360239 -0.0271656,0.72284 -0.0271656,1.0878 0,5.46028 1.97128,10.4599 5.23941,14.3281l5.46618 -6.16895 3.01538 2.67286 -5.61028 6.32958c3.33664,2.7449 7.48707,4.53665 12.0355,4.95594l0 -8.72487 4.02877 0 0 8.73432c4.715,-0.412208 9.00716,-2.29844 12.4147,-5.19453l-5.98942 -5.85477 2.81695 -2.88191 5.99532 5.86304c3.13349,-3.82916 5.015,-8.72487 5.015,-14.0588 0,-0.364964 -0.00944889,-0.727565 -0.0271656,-1.0878l7.21541 0c8.50637,0 15.4643,6.95793 15.4643,15.4631l0 58.8028c0,8.50519 -6.95793,15.4631 -15.4643,15.4631l-59.2375 0c-8.50637,0 -15.4643,-6.95793 -15.4643,-15.4631l0 -58.8028c0,-8.50519 6.95793,-15.4631 15.4643,-15.4631zm41.0271 32.4463c-12.6769,-1.65238 -7.29573,11.4958 -7.29573,24.0652 0,12.5706 -3.75594,23.3033 8.92802,22.7588 12.6851,-0.543311 6.62486,-10.6312 10.9985,-22.7588 4.37484,-12.1265 0.0448822,-22.4128 -12.6308,-24.0652zm-21.3687 0c12.6769,-1.65238 7.29573,11.4958 7.29573,24.0652 0,12.5706 3.75594,23.3033 -8.92802,22.7588 -12.6851,-0.543311 -6.62486,-10.6312 -10.9985,-22.7588 -4.37484,-12.1265 -0.0448822,-22.4128 12.6308,-24.0652z"/>
   <path id="_378368872" class="fil0" d="M39.9972 5.13547l20.4391 0c0.0377956,0.357877 0.0566934,0.720478 0.0566934,1.0878 0,5.67524 -4.60043,10.2769 -10.2769,10.2769 -5.67524,0 -10.2757,-4.60161 -10.2757,-10.2769 0,-0.367326 0.0188978,-0.729927 0.0566934,-1.0878z"/>
  </g>
 </g>
</svg>