<svg xmlns="http://www.w3.org/2000/svg" xmlns:xlink="http://www.w3.org/1999/xlink" version="1.1" id="Layer_1" x="0px" y="0px" width="96px" height="96px" viewBox="0 0 96 96" enable-background="new 0 0 96 96" xml:space="preserve">
<path d="M8,34H2c-1.104,0-2,0.9-2,2v24c0,1.1,0.896,2,2,2h6V34z"/>
<path d="M32,42h32v12H32V42z"/>
<path d="M94,34h-6v28h6c1.1,0,2-0.9,2-2V36C96,34.9,95.1,34,94,34z"/>
<path d="M28,42V28c0-1.1-0.896-2-2-2H14c-1.104,0-2,0.9-2,2v40c0,1.1,0.896,2,2,2h12c1.104,0,2-0.9,2-2V42z"/>
<path d="M84,62V28c0-1.1-0.9-2-2-2H70c-1.1,0-2,0.9-2,2v40c0,1.1,0.9,2,2,2h12c1.1,0,2-0.9,2-2V62z"/>
</svg>