<?xml version="1.0" encoding="utf-8"?>
<!-- Generator: Adobe Illustrator 16.0.0, SVG Export Plug-In . SVG Version: 6.00 Build 0)  -->
<!DOCTYPE svg PUBLIC "-//W3C//DTD SVG 1.1//EN" "http://www.w3.org/Graphics/SVG/1.1/DTD/svg11.dtd">
<svg version="1.1" id="Layer_1" xmlns="http://www.w3.org/2000/svg" xmlns:xlink="http://www.w3.org/1999/xlink" x="0px" y="0px"
	 width="100px" height="79.642px" viewBox="0 0 100 79.642" enable-background="new 0 0 100 79.642" xml:space="preserve">
<g id="Layer_1_1_">
	<path fill="#010101" d="M94.079,0.686c-0.277-0.023-0.559-0.031-0.834-0.041c-0.215-0.004-0.421-0.031-0.636-0.031
		c-0.025,0-0.051,0.001-0.076,0.001c-0.001,0-0.003,0-0.004,0c-0.009,0-0.018,0.003-0.023,0.003
		c-0.445,0.002-0.891,0.023-1.329,0.059c-8.983,0.638-17.023,7.461-18.76,14.954c-0.401,1.749-0.86,6.318-0.86,6.318l-4.99,11.029
		c-0.087,0.198-0.131,0.427-0.131,0.66c0,0.931,0.753,1.687,1.687,1.687h3.436v5.86c0,4.57,3.695,8.273,8.266,8.273h3.284v5.771
		c-3.884,1.991-8.583,4.93-12.691,9.021c-7.981,7.945-10.849,15.392-10.849,15.392H100V1.98C98.136,1.279,96.148,0.83,94.079,0.686z
		 M76.266,26.497c-1.158,0-2.099-0.941-2.099-2.098c0-1.161,0.939-2.101,2.099-2.101s2.099,0.94,2.099,2.101
		C78.365,25.555,77.427,26.497,76.266,26.497z"/>
</g>
<g id="Layer_2">
	<path fill="#010101" d="M60.466,65.498c-0.911,0-1.663-0.752-1.663-1.662c0-0.912,0.752-1.653,1.663-1.653
		c0.912,0,1.653,0.741,1.653,1.653C62.12,64.746,61.378,65.498,60.466,65.498L60.466,65.498z M60.466,60.308
		c-0.911,0-1.663-0.741-1.663-1.652c0-0.912,0.752-1.654,1.663-1.654c0.912,0,1.653,0.742,1.653,1.654
		C62.12,59.565,61.378,60.308,60.466,60.308L60.466,60.308z M60.466,55.127c-0.911,0-1.663-0.741-1.663-1.653
		c0-0.911,0.752-1.663,1.663-1.663c0.912,0,1.653,0.752,1.653,1.663C62.12,54.384,61.378,55.127,60.466,55.127L60.466,55.127z
		 M60.466,49.957c-0.911,0-1.663-0.752-1.663-1.664c0-0.911,0.752-1.662,1.663-1.662c0.912,0,1.653,0.751,1.653,1.662
		C62.12,49.205,61.378,49.957,60.466,49.957L60.466,49.957z M60.466,44.765c-0.911,0-1.663-0.741-1.663-1.653
		s0.752-1.663,1.663-1.663c0.912,0,1.653,0.751,1.653,1.663S61.378,44.765,60.466,44.765L60.466,44.765z M60.466,39.595
		c-0.911,0-1.663-0.751-1.663-1.664s0.752-1.664,1.663-1.664c0.912,0,1.653,0.751,1.653,1.664S61.378,39.595,60.466,39.595
		L60.466,39.595z M60.466,34.403c-0.911,0-1.663-0.742-1.663-1.653c0-0.912,0.752-1.664,1.663-1.664
		c0.912,0,1.653,0.751,1.653,1.664C62.12,33.661,61.378,34.403,60.466,34.403L60.466,34.403z M60.466,29.222
		c-0.911,0-1.663-0.742-1.663-1.653c0-0.912,0.752-1.664,1.663-1.664c0.912,0,1.653,0.751,1.653,1.664
		C62.12,28.48,61.378,29.222,60.466,29.222L60.466,29.222z M60.466,24.042c-0.911,0-1.663-0.742-1.663-1.654
		c0-0.911,0.752-1.663,1.663-1.663c0.912,0,1.653,0.751,1.653,1.663C62.12,23.299,61.378,24.042,60.466,24.042L60.466,24.042z
		 M60.466,18.859c-0.911,0-1.663-0.741-1.663-1.653c0-0.911,0.752-1.663,1.663-1.663c0.912,0,1.653,0.751,1.653,1.663
		C62.12,18.119,61.378,18.859,60.466,18.859L60.466,18.859z M60.466,13.679c-0.911,0-1.663-0.741-1.663-1.653
		s0.752-1.664,1.663-1.664c0.912,0,1.653,0.751,1.653,1.664S61.378,13.679,60.466,13.679L60.466,13.679z M60.466,8.498
		c-0.911,0-1.663-0.741-1.663-1.653c0-0.922,0.752-1.664,1.663-1.664c0.912,0,1.653,0.742,1.653,1.664
		C62.12,7.757,61.378,8.498,60.466,8.498L60.466,8.498z M60.466,3.317c-0.911,0-1.663-0.742-1.663-1.653
		C58.803,0.751,59.555,0,60.466,0c0.912,0,1.653,0.751,1.653,1.664C62.12,2.575,61.378,3.317,60.466,3.317L60.466,3.317z"/>
	<path fill="#010101" d="M53.178,56.096l2.197-2.196L32.751,31.274c0.338-0.422,0.645-0.868,0.929-1.329l18.816,8.62l1.296-2.828
		l-18.791-8.607c0.274-0.828,0.468-1.691,0.575-2.58h17.202v-3.108H35.591c-0.07-0.62-0.191-1.223-0.344-1.815l17.434-6.893
		l-1.146-2.891l-17.401,6.88c-0.322-0.61-0.697-1.187-1.107-1.737L44.539,3.722L42.364,1.5L30.9,12.717
		c-1.959-1.646-4.395-2.738-7.069-3.042V0.719h-3.108v8.969c-2.527,0.303-4.838,1.311-6.731,2.823L7.623,6.145L5.426,8.343
		l6.381,6.381c-1.487,1.896-2.478,4.199-2.761,6.717H0v3.109h9.061c0.306,2.538,1.321,4.859,2.848,6.754l-6.471,6.333l2.174,2.221
		l6.516-6.377c1.869,1.455,4.127,2.426,6.595,2.722v14.593h3.108v-14.58c0.769-0.086,1.516-0.241,2.24-0.454l9.13,21.345
		l2.858-1.222l-9.129-21.34c0.564-0.325,1.102-0.688,1.611-1.086L53.178,56.096z M22.317,33.201c-5.655,0-10.254-4.6-10.254-10.253
		c0-5.655,4.6-10.254,10.254-10.254c5.655,0,10.255,4.6,10.255,10.254C32.573,28.602,27.972,33.201,22.317,33.201z"/>
</g>
</svg>
