<svg xmlns:x="http://ns.adobe.com/Extensibility/1.0/" xmlns:i="http://ns.adobe.com/AdobeIllustrator/10.0/" xmlns:graph="http://ns.adobe.com/Graphs/1.0/" xmlns="http://www.w3.org/2000/svg" xmlns:xlink="http://www.w3.org/1999/xlink" version="1.1" x="0px" y="0px" width="100px" height="100px" viewBox="0 0 100 100" enable-background="new 0 0 100 100" xml:space="preserve">
<metadata>
	<sfw xmlns="http://ns.adobe.com/SaveForWeb/1.0/">
		<slices/>
		<sliceSourceBounds y="-8242" x="-8141" width="16383" height="16383" bottomLeftOrigin="true"/>
		<optimizationSettings/>
	</sfw>
</metadata>
<g id="Captions" display="none">
	<rect x="-192" y="-138" display="inline" width="185" height="99"/>
	<rect y="-174" display="inline" width="100" height="30"/>
	<text transform="matrix(1 0 0 1 66 -157.5)" display="inline" fill="#000000" font-family="'Helvetica'" font-size="2.4">http://thenounproject.com</text>
	<text transform="matrix(1 0 0 1 7.166 -162.5)" display="inline"><tspan x="0" y="0" fill="#000000" font-family="'Helvetica-Bold'" font-size="6.1578">The Noun Project</tspan><tspan x="1.12" y="4.8" fill="#000000" font-family="'Helvetica-Bold'" font-size="4">Icon Template</tspan></text>
	
		<text transform="matrix(1 0 0 1 -178.5 -127.5)" display="inline" fill="#000000" font-family="'Helvetica-Bold'" font-size="6.1578">Reminders</text>
	<line display="inline" fill="#000000" stroke="#FFFFFF" stroke-miterlimit="10" x1="8" y1="-152.5" x2="18" y2="-152.5"/>
	<line display="inline" fill="#000000" stroke="#FFFFFF" stroke-miterlimit="10" x1="-179" y1="-121.5" x2="-162" y2="-121.5"/>
	<g display="inline">
		<g>
			<g>
				<rect x="-170.802" y="-106.682" fill="#000000" width="8.721" height="8.642"/>
				<path fill="#000000" d="M-164.455-95.688h4.747v-4.703h-4.747V-95.688z M-159.266-95.251h-5.63v-5.579h5.63V-95.251      L-159.266-95.251z M-166.221-93.938h8.279v-8.203h-8.279V-93.938L-166.221-93.938z M-157.5-93.5h-9.163v-9.079h9.163V-93.5      L-157.5-93.5z"/>
				<polygon fill="#000000" points="-166.149,-93.867 -166.292,-94.009 -158.013,-102.213 -157.871,-102.071     "/>
			</g>
		</g>
	</g>
	<rect x="-179" y="-80" display="inline" fill="none" width="35" height="32.5"/>
	<text transform="matrix(1 0 0 1 -179 -77.8428)" display="inline"><tspan x="0" y="0" fill="#000000" font-family="'Helvetica-Bold'" font-size="3">Strokes</tspan><tspan x="0" y="5" fill="#000000" font-family="'Helvetica'" font-size="2.4">Try to keep strokes at 4px</tspan><tspan x="0" y="10" fill="#000000" font-family="'Helvetica'" font-size="2.4">Minimum stroke weight is 2px</tspan><tspan x="0" y="14.5" fill="#000000" font-family="'Helvetica'" font-size="2.4">For thicker strokes use even </tspan><tspan x="0" y="17.5" fill="#000000" font-family="'Helvetica'" font-size="2.4">numbers: 6px, 8px etc.</tspan><tspan x="0" y="22" fill="#000000" font-family="'Helvetica-Bold'" font-size="2.4">Remember to expand strokes </tspan><tspan x="0" y="25" fill="#000000" font-family="'Helvetica-Bold'" font-size="2.4">before saving as an SVG </tspan></text>
	<rect x="-136.5" y="-80" display="inline" fill="none" width="35" height="32.5"/>
	<text transform="matrix(1 0 0 1 -136.5 -77.8428)" display="inline"><tspan x="0" y="0" fill="#000000" font-family="'Helvetica-Bold'" font-size="3">Size</tspan><tspan x="0" y="5" fill="#000000" font-family="'Helvetica'" font-size="2.4">Cannot be wider or taller than </tspan><tspan x="0" y="8.5" fill="#000000" font-family="'Helvetica'" font-size="2.4">100px (artboar size)</tspan><tspan x="0" y="13.5" fill="#000000" font-family="'Helvetica'" font-size="2.4">Scale your icon to fill as much of </tspan><tspan x="0" y="16.5" fill="#000000" font-family="'Helvetica'" font-size="2.4">the Safe Area as possible (within </tspan><tspan x="0" y="19.5" fill="#000000" font-family="'Helvetica'" font-size="2.4">the guides)</tspan></text>
	<rect x="-94" y="-80" display="inline" fill="none" width="35" height="32.5"/>
	<text transform="matrix(1 0 0 1 -94 -77.8428)" display="inline"><tspan x="0" y="0" fill="#000000" font-family="'Helvetica-Bold'" font-size="3">Ungroup</tspan><tspan x="0" y="5" fill="#000000" font-family="'Helvetica'" font-size="2.4">If your design has more than one </tspan><tspan x="0" y="8" fill="#000000" font-family="'Helvetica'" font-size="2.4">shape, make sure to ungroup.</tspan></text>
	<rect x="-50" y="-80" display="inline" fill="none" width="35" height="32.5"/>
	<text transform="matrix(1 0 0 1 -50 -77.8428)" display="inline"><tspan x="0" y="0" fill="#000000" font-family="'Helvetica-Bold'" font-size="3">Save as</tspan><tspan x="0" y="5" fill="#000000" font-family="'Helvetica'" font-size="2.4">Save as .SVG and make sure </tspan><tspan x="0" y="8" fill="#000000" font-family="'Helvetica'" font-size="2.4">&#8220;Use Artboards&#8221; is checked.</tspan></text>
	
		<text transform="matrix(1.0074 0 0 1 -125.542 -107.4067)" display="inline" fill="#000000" font-family="'Helvetica'" font-size="2.5731">100px</text>
	
		<text transform="matrix(1.0074 0 0 1 -41 -99)" display="inline" fill="#000000" font-family="'Helvetica-Bold'" font-size="5.1462">.SVG</text>
	<rect x="-126.514" y="-103.185" display="inline" fill="#000000" width="10.261" height="10.185"/>
	<rect x="-126.477" y="-106.234" display="inline" fill="#000000" width="0.522" height="2.337"/>
	<rect x="-116.812" y="-106.234" display="inline" fill="#000000" width="0.523" height="2.337"/>
	<rect x="-127" y="-105.663" display="inline" fill="#000000" width="11.233" height="0.572"/>
	<g display="inline">
		<rect x="-83.805" y="-104.156" fill="#000000" width="10.305" height="10.156"/>
		<rect x="-76.809" y="-109.293" fill="#000000" width="3.308" height="3.261"/>
	</g>
	<rect x="-178.5" y="-115.5" display="inline" fill="#000000" stroke="#FFFFFF" stroke-miterlimit="10" width="30" height="30"/>
	<rect x="-136.5" y="-115.5" display="inline" fill="#000000" stroke="#FFFFFF" stroke-miterlimit="10" width="30" height="30"/>
	<rect x="-93.5" y="-115.5" display="inline" fill="#000000" stroke="#FFFFFF" stroke-miterlimit="10" width="30" height="30"/>
	<rect x="-49.5" y="-115.5" display="inline" fill="#000000" stroke="#FFFFFF" stroke-miterlimit="10" width="30" height="30"/>
</g>
<g id="Your_Icon">
	<g>
		<rect x="45" y="-107" fill="#000000" width="9" height="25"/>
		<g>
			<rect x="37" y="-99" fill="#000000" width="25" height="9"/>
		</g>
	</g>
	<path fill="#000000" d="M49.526-123.425c-15.698,0-28.425,12.726-28.425,28.425c0,15.699,12.727,28.425,28.425,28.425   c15.7,0,28.426-12.727,28.426-28.425C77.952-110.699,65.227-123.425,49.526-123.425z M49.526-74.05   c-11.569,0-20.948-9.379-20.948-20.95c0-11.57,9.379-20.949,20.948-20.949c11.571,0,20.949,9.379,20.949,20.949   C70.476-83.429,61.098-74.05,49.526-74.05z"/>
	<path fill="#000000" d="M36.211-70.2c6.104,9.592,13.314,18.213,13.314,18.213s7.216-8.621,13.317-18.213H36.211z"/>
	<g>
		<g>
			<path fill="#000000" d="M223-70.817c0,3.765-3.053,6.817-6.817,6.817h-56.365c-3.765,0-6.817-3.053-6.817-6.817v-29.365     c0-3.765,3.053-6.817,6.817-6.817h56.365c3.765,0,6.817,3.052,6.817,6.817V-70.817z M220-100.097     c0-2.708-2.195-4.903-4.903-4.903h-56.193c-2.708,0-4.903,2.195-4.903,4.903v29.193c0,2.708,2.195,4.903,4.903,4.903h56.193     c2.708,0,4.903-2.195,4.903-4.903V-100.097z"/>
			<path fill="#000000" d="M224-70.787c0,4.301-3.487,7.787-7.788,7.787h-56.424c-4.301,0-7.788-3.486-7.788-7.787v-29.426     c0-4.301,3.487-7.787,7.788-7.787h56.424c4.301,0,7.788,3.486,7.788,7.787V-70.787z M215.568-65h0.026     c3.225,0,5.405-2.563,5.405-5.787v-0.025C221-67.574,218.808-65,215.568-65z M159.391-106c-3.225,0-5.391,2.943-5.391,6.167     v29.046c0,3.224,2.166,5.787,5.391,5.787h0.026c-3.239,0-5.417-2.574-5.417-5.812v-28.994c0-3.238,2.178-6.193,5.417-6.193     h56.151c3.239,0,5.432,2.955,5.432,6.193v-0.027c0-3.223-2.181-6.167-5.405-6.167H159.391z M220-100.067     c0-2.172-1.762-3.933-3.935-3.933h-56.131c-2.173,0-3.935,1.761-3.935,3.933v29.133c0,2.173,1.762,3.934,3.935,3.934h56.131     c2.173,0,3.935-1.761,3.935-3.934V-100.067z"/>
		</g>
	</g>
	<g>
		<g>
			<path fill="#000000" d="M154-91v20.238c0,3.337,2.796,5.762,6.132,5.762h58.132C221.6-65,224-67.425,224-70.762V-91H154z M194-72     h-38v-3h38V-72z M204.907-86.976l3.055,6.191l6.833,0.992l-4.944,4.819l1.167,6.805l-6.11-3.213l-6.112,3.213l1.168-6.805     l-4.944-4.819l6.833-0.992L204.907-86.976z"/>
		</g>
	</g>
	<g>
		<g>
			<path fill="#000000" d="M165.064-98.657c-0.059-0.231-0.143-0.444-0.246-0.639c-0.105-0.194-0.241-0.362-0.405-0.505     c-0.164-0.142-0.356-0.251-0.578-0.331c-0.219-0.078-0.477-0.118-0.767-0.118c-0.428,0-0.796,0.086-1.106,0.258     c-0.311,0.173-0.562,0.403-0.758,0.69c-0.193,0.289-0.338,0.615-0.432,0.982c-0.095,0.367-0.14,0.74-0.14,1.123     c0,0.382,0.045,0.756,0.14,1.123c0.094,0.366,0.238,0.693,0.432,0.981c0.195,0.289,0.447,0.519,0.758,0.69     c0.311,0.172,0.679,0.259,1.106,0.259c0.312,0,0.589-0.055,0.829-0.164c0.239-0.108,0.445-0.258,0.617-0.449     s0.308-0.414,0.405-0.668c0.095-0.254,0.16-0.527,0.189-0.82h1.369c-0.029,0.479-0.133,0.917-0.309,1.314     c-0.176,0.396-0.413,0.739-0.712,1.026c-0.3,0.289-0.651,0.51-1.055,0.667c-0.405,0.158-0.851,0.236-1.335,0.236     c-0.6,0-1.136-0.111-1.611-0.332s-0.877-0.522-1.207-0.903c-0.329-0.382-0.582-0.827-0.757-1.335     c-0.176-0.509-0.265-1.052-0.265-1.627c0-0.569,0.089-1.106,0.265-1.615c0.175-0.509,0.428-0.955,0.757-1.335     c0.33-0.383,0.731-0.685,1.207-0.91c0.476-0.224,1.012-0.336,1.611-0.336c0.447,0,0.87,0.061,1.267,0.185     c0.397,0.123,0.746,0.303,1.049,0.539c0.304,0.235,0.549,0.522,0.735,0.858c0.187,0.336,0.303,0.722,0.35,1.155H165.064z"/>
		</g>
		<g>
			<path fill="#000000" d="M169.901-101.203h1.491l3.087,8.012h-1.505l-0.751-2.121h-3.197l-0.753,2.121h-1.447L169.901-101.203z      M169.408-96.379h2.444l-1.201-3.443h-0.032L169.408-96.379z"/>
		</g>
		<g>
			<path fill="#000000" d="M175.242-101.203h3.826c0.883,0,1.545,0.19,1.986,0.572s0.663,0.914,0.663,1.594     c0,0.381-0.058,0.698-0.169,0.948c-0.111,0.251-0.244,0.452-0.393,0.606c-0.149,0.154-0.297,0.265-0.443,0.332     s-0.253,0.111-0.319,0.135v0.021c0.119,0.016,0.247,0.053,0.388,0.113c0.138,0.06,0.267,0.155,0.386,0.286     c0.12,0.131,0.219,0.301,0.299,0.511c0.078,0.209,0.117,0.471,0.117,0.785c0,0.471,0.035,0.899,0.106,1.285     c0.07,0.385,0.181,0.661,0.331,0.825h-1.504c-0.105-0.172-0.167-0.364-0.185-0.573c-0.02-0.209-0.028-0.411-0.028-0.606     c0-0.367-0.022-0.683-0.066-0.948c-0.046-0.266-0.128-0.486-0.249-0.662c-0.119-0.176-0.282-0.305-0.487-0.387     s-0.47-0.124-0.791-0.124h-2.065v3.3h-1.402V-101.203z M176.645-97.556h2.302c0.448,0,0.788-0.107,1.021-0.321     c0.232-0.213,0.349-0.532,0.349-0.959c0-0.254-0.038-0.462-0.113-0.622c-0.074-0.162-0.177-0.287-0.309-0.377     c-0.131-0.09-0.28-0.149-0.448-0.179c-0.168-0.03-0.343-0.045-0.522-0.045h-2.278V-97.556z"/>
		</g>
		<g>
			<path fill="#000000" d="M183.143-101.203h3.321c0.613,0,1.145,0.104,1.594,0.314c0.448,0.209,0.815,0.496,1.099,0.858     c0.286,0.363,0.497,0.788,0.635,1.275c0.14,0.485,0.209,1.006,0.209,1.559c0,0.554-0.069,1.074-0.209,1.56     c-0.138,0.486-0.349,0.91-0.635,1.273c-0.283,0.364-0.65,0.649-1.099,0.858c-0.449,0.209-0.98,0.315-1.594,0.315h-3.321V-101.203     z M184.545-94.335h1.381c0.546,0,0.992-0.074,1.34-0.219c0.35-0.146,0.621-0.348,0.821-0.605c0.196-0.259,0.331-0.562,0.402-0.91     s0.106-0.724,0.106-1.127s-0.035-0.78-0.106-1.127c-0.071-0.348-0.206-0.651-0.402-0.909c-0.2-0.258-0.472-0.46-0.821-0.606     c-0.348-0.146-0.794-0.218-1.34-0.218h-1.381V-94.335z"/>
		</g>
	</g>
	<path fill="#000000" d="M328.49-120.335c-0.909-0.62-2.408-0.638-3.332-0.041l-30.568,19.767c-0.924,0.597-1.221,1.86-0.66,2.807   l0.051,0.085c0.561,0.946,1.02,2.621,1.02,3.721V-56c0,1.1,0.9,2,2,2h18c1.1,0,2-0.9,2-2v-22c0-1.1,0.9-2,2-2h13c1.1,0,2,0.9,2,2   v22c0,1.1,0.9,2,2,2h19c1.1,0,2-0.9,2-2v-37.324c0-1.1,0.389-2.812,0.864-3.804l0.283-0.592c0.476-0.992,0.121-2.311-0.788-2.931   L328.49-120.335z"/>
	<path fill="#000000" d="M487-101.574l2.519-8.426l8.481,9.613C494.325-100.104,487-101.574,487-101.574z"/>
	<rect x="434.582" y="-83.742" fill="#000000" width="4.46" height="6.022"/>
	<g>
		<g>
			<path fill="#000000" d="M602-53c-19.3,0-35-15.701-35-35c0-19.299,15.7-35,35-35c19.299,0,35,15.701,35,35     C637-68.701,621.299-53,602-53z M602-116.396c-15.658,0-28.396,12.738-28.396,28.396c0,15.658,12.738,28.396,28.396,28.396     c15.657,0,28.396-12.738,28.396-28.396C630.396-103.658,617.657-116.396,602-116.396z"/>
		</g>
		<g>
			<g>
				<path fill="#000000" d="M593.602-71.708c0.154-0.68,0.384-1.582,0.692-2.703l4.15-15.159c0.045-0.176,0.082-0.352,0.115-0.528      c0.033-0.175,0.05-0.34,0.05-0.494c0-0.9-0.285-1.46-0.855-1.681c-0.571-0.219-1.613-0.362-3.127-0.428v-1.78      c1.266-0.088,3.104-0.269,5.514-0.544c2.411-0.274,4.118-0.511,5.121-0.708l2.88-0.561l-5.24,19.214      c-0.439,1.647-0.735,2.79-0.89,3.428c-0.395,1.626-0.594,2.681-0.594,3.163c0,0.484,0.11,0.797,0.331,0.939      c0.219,0.144,0.461,0.215,0.726,0.215c0.683,0,1.53-0.582,2.543-1.747c1.014-1.164,1.906-2.384,2.677-3.658l1.483,0.956      c-2.2,3.229-3.884,5.404-5.051,6.525c-1.914,1.846-3.959,2.769-6.137,2.769c-1.232,0-2.338-0.378-3.316-1.138      c-0.979-0.757-1.468-1.916-1.468-3.477C593.206-69.653,593.338-70.521,593.602-71.708z M609.475-110.037      c0.879,0.879,1.319,1.945,1.319,3.197c0,1.252-0.44,2.324-1.319,3.213c-0.879,0.89-1.944,1.335-3.197,1.335      c-1.252,0-2.323-0.445-3.213-1.335c-0.89-0.89-1.335-1.961-1.335-3.213c0-1.252,0.445-2.317,1.335-3.197      c0.89-0.878,1.961-1.318,3.213-1.318C607.53-111.355,608.596-110.916,609.475-110.037z"/>
			</g>
		</g>
	</g>
	<g>
		<path fill="#000000" d="M56.37,31.562c0.071-2.527,0.354-5.067,0.856-7.408c0.077-0.362,0.168-0.168,0.256-1.154H19.419    C14.9,23,15,26.774,15,30.991v5.728C15,40.937,14.9,44,19.419,44h38.258C56.709,40,56.256,35.621,56.37,31.562z"/>
		<path fill="#000000" d="M33.448,54H18.245C14.406,54,15,56.517,15,60.076v4.832C15,68.467,14.406,71,18.245,71h15.357    C32.912,64.2,32.994,58.533,33.448,54z"/>
		<path fill="#000000" d="M85,36.719v-5.728C85,26.774,83.584,23,78.442,23H59.725c-0.141,0.986-0.271,0.949-0.392,1.438    C57.88,30.398,58.112,37,59.931,44h18.512C83.584,44,85,40.937,85,36.719z M77.192,33.774c0-4.755,2.016-8.61,3.409-8.61    c0.038,0,0.076,0.014,0.114,0.02c-0.974,1.433-0.785,5.269-0.768,8.591c0.021,3.852-0.206,7.157,0.768,8.59    c-0.038,0.007-0.076,0.021-0.114,0.021C79.208,42.385,77.192,38.529,77.192,33.774z"/>
		<path fill="#000000" d="M84.648,74.902L84,62.812v-0.637l0.648-12.092h-3.688c0,0-38.085,3.149-43.814,3.149    c0,0-1.444-0.245-2.136,1.229L36,62.363V63l-0.99,7.524c0.692,1.475,2.136,1.229,2.136,1.229c5.729,0,43.814,3.149,43.814,3.149    H84.648z M80.289,72.589V52.094c0-0.344,0.436-0.622,0.972-0.622c0.537,0,0.974,0.278,0.974,0.622v20.495    c0,0.345-0.437,0.623-0.974,0.623C80.725,73.212,80.289,72.934,80.289,72.589z"/>
	</g>
	<path fill="#000000" d="M211.074,35.111l2.658-8.62l8.613,9.937C218.573,36.685,211.074,35.111,211.074,35.111z"/>
	<g>
		<path fill="#000000" d="M337.176,42.064c-1.24,0.595-1.771,2.091-1.172,3.332c0.599,1.244,2.084,1.771,3.332,1.175    c1.24-0.595,1.771-2.088,1.168-3.332C339.913,41.999,338.424,41.469,337.176,42.064z"/>
		
			<rect x="317.743" y="41.36" transform="matrix(-0.4318 -0.9019 0.9019 -0.4318 418.0984 365.4934)" fill="#000000" width="12.842" height="19.405"/>
		<path fill="#000000" d="M351.586,38.793c-3.332-6.304-9.953-10.605-17.58-10.605c-4.28,0-8.24,1.353-11.482,3.653    c-2.463-2.269-5.751-3.653-9.365-3.653c-6.516,0-11.979,4.508-13.447,10.573C294.205,39.658,290,44.44,290,50.203    c0,6.404,5.193,11.594,11.598,11.594c0.812,0,1.598-0.083,2.361-0.242C305.658,68.691,312.066,74,319.722,74    c5.139,0,9.715-2.395,12.687-6.127c0.526,0.04,1.061,0.068,1.598,0.068c5.503,0,10.483-2.239,14.082-5.853    c0.465,0.058,0.934,0.087,1.414,0.087c6.509,0,11.784-5.276,11.784-11.785C361.286,44.596,357.1,39.781,351.586,38.793z     M341.42,55.064L315.561,67.44l-9.549-19.949l25.863-12.376l9.975,4.32l2.924,6.112L341.42,55.064z"/>
	</g>
	<g>
		<path fill="#000000" d="M498.237,43.88c0.775-0.781,0.52-1.554-0.568-1.717l-20.795-3.124c-1.088-0.163-2.365-1.109-2.839-2.102    l-9.35-19.579c-0.474-0.992-1.249-0.992-1.723,0l-9.347,19.579c-0.474,0.992-1.751,1.938-2.839,2.102l-20.798,3.124    c-1.088,0.163-1.344,0.936-0.568,1.717l15.094,15.212c0.775,0.781,1.262,2.308,1.082,3.393l-3.576,21.543    c-0.18,1.085,0.464,1.543,1.43,1.018l18.627-10.125c0.966-0.525,2.548-0.525,3.514,0l18.627,10.125    c0.966,0.525,1.609,0.067,1.43-1.018l-3.576-21.543c-0.18-1.085,0.307-2.611,1.082-3.393L498.237,43.88z M477,54c0,1.1-0.9,2-2,2    h-6c-1.1,0-2,0.9-2,2v6c0,1.1-0.9,2-2,2h-3c-1.1,0-2-0.9-2-2v-6c0-1.1-0.9-2-2-2h-5c-1.1,0-2-0.9-2-2v-2c0-1.1,0.9-2,2-2h5    c1.1,0,2-0.9,2-2v-6c0-1.1,0.9-2,2-2h3c1.1,0,2,0.9,2,2v6c0,1.1,0.9,2,2,2h6c1.1,0,2,0.9,2,2V54z"/>
	</g>
	<g>
		<polygon fill="#000000" points="585,29 631,29 631,25 626,25 626,22 621,22 621,19 572,19 572,80 576,80 576,24 578,24 578,85     582,85 582,27 585,27   "/>
		<path fill="#000000" d="M585,44v45h49V44H585z M605.944,76.404c-0.485,1.07-1.157,1.966-2.015,2.687    c-0.858,0.722-1.86,1.257-3.004,1.604c-1.145,0.348-2.376,0.522-3.694,0.522c-1.095,0-2.227-0.1-3.396-0.299    s-2.114-0.484-2.836-0.858l1.307-4.029c0.646,0.323,1.361,0.585,2.146,0.783c0.783,0.199,1.66,0.299,2.63,0.299    c1.542,0,2.718-0.41,3.526-1.231c0.808-0.821,1.213-1.815,1.213-2.985c0-1.418-0.424-2.34-1.269-3.012    C599.706,69.213,598.375,69,596.56,69H594v-2.819l4.451-6.157l2.097-1.52L597.567,59H592v-4h14v2.226l-5.311,7.052L599,65.285    v0.187l1.393-0.224c0.869,0.074,1.609,0.273,2.394,0.597c0.783,0.323,1.423,0.79,2.007,1.399s1.03,1.361,1.379,2.257    c0.348,0.896,0.511,1.929,0.511,3.098C606.683,74.066,606.43,75.335,605.944,76.404z M628,81h-15v-4h6V61.853l0.16-2.538    l-1.99,2.202l-3.421,2.275l-2.103-2.862l8.458-6.93H623v23h5V81z"/>
		<g>
			<path fill="#000000" d="M598.644,39.208c0-0.316-0.116-0.574-0.349-0.772s-0.525-0.379-0.876-0.542     c-0.352-0.163-0.733-0.332-1.144-0.505c-0.411-0.173-0.793-0.386-1.144-0.639c-0.352-0.252-0.645-0.566-0.877-0.943     c-0.232-0.376-0.349-0.855-0.349-1.44c0-0.505,0.084-0.943,0.252-1.314c0.169-0.371,0.409-0.681,0.721-0.928     c0.312-0.248,0.681-0.431,1.106-0.55s0.9-0.178,1.426-0.178c0.604,0,1.173,0.052,1.708,0.155     c0.534,0.104,0.975,0.255,1.321,0.453l-0.639,1.708c-0.218-0.139-0.544-0.265-0.979-0.379c-0.437-0.113-0.906-0.171-1.411-0.171     c-0.476,0-0.839,0.095-1.092,0.282c-0.252,0.188-0.379,0.441-0.379,0.758c0,0.297,0.116,0.545,0.35,0.742     c0.232,0.198,0.524,0.382,0.876,0.55s0.732,0.342,1.144,0.52c0.411,0.179,0.792,0.394,1.144,0.646     c0.352,0.252,0.644,0.564,0.876,0.936s0.35,0.834,0.35,1.389s-0.092,1.032-0.275,1.433c-0.183,0.401-0.44,0.735-0.771,1.003     c-0.332,0.268-0.733,0.466-1.203,0.594c-0.471,0.129-0.988,0.193-1.552,0.193c-0.743,0-1.396-0.069-1.961-0.208     s-0.98-0.277-1.247-0.416l0.653-1.737c0.108,0.06,0.25,0.124,0.423,0.193s0.369,0.133,0.587,0.192s0.447,0.109,0.69,0.148     c0.242,0.04,0.492,0.06,0.75,0.06c0.604,0,1.066-0.102,1.389-0.305C598.482,39.934,598.644,39.624,598.644,39.208z"/>
			<path fill="#000000" d="M605,31.604h6.164v1.812h-4.129v2.421h3.758v1.812h-3.758v2.54h4.203V42H605V31.604z"/>
			<path fill="#000000" d="M615.723,31.708c0.416-0.079,0.874-0.141,1.374-0.186s0.997-0.067,1.493-0.067     c0.515,0,1.032,0.043,1.552,0.127s0.987,0.252,1.403,0.505c0.416,0.252,0.755,0.604,1.018,1.055     c0.262,0.45,0.394,1.037,0.394,1.76c0,0.653-0.114,1.205-0.342,1.655c-0.228,0.451-0.53,0.819-0.906,1.106     s-0.805,0.495-1.284,0.624c-0.48,0.129-0.979,0.193-1.493,0.193c-0.049,0-0.129,0-0.237,0c-0.109,0-0.223-0.003-0.342-0.008     c-0.118-0.005-0.235-0.012-0.349-0.022c-0.114-0.01-0.195-0.02-0.245-0.029V42h-2.035V31.708z M618.753,33.208     c-0.198,0-0.387,0.008-0.564,0.022c-0.179,0.015-0.322,0.032-0.431,0.052v3.371c0.039,0.01,0.099,0.021,0.178,0.03     s0.164,0.017,0.253,0.021c0.089,0.006,0.176,0.008,0.26,0.008s0.146,0,0.186,0c0.268,0,0.532-0.024,0.795-0.074     c0.262-0.05,0.497-0.141,0.705-0.274s0.374-0.319,0.498-0.558c0.123-0.237,0.186-0.549,0.186-0.936     c0-0.326-0.06-0.596-0.179-0.81c-0.118-0.212-0.274-0.383-0.468-0.512c-0.192-0.129-0.413-0.218-0.661-0.268     C619.263,33.232,619.01,33.208,618.753,33.208z"/>
		</g>
	</g>
	<g>
	</g>
	<path fill="#000000" d="M207.879,37.907L211.391,25h-55.952c-1.891,0-3.438,1.6-3.438,3.554v45.492C152,76,153.548,78,155.438,78   h65.318c1.893,0,3.243-2,3.243-3.954V39.622C218,40.026,207.879,37.907,207.879,37.907z M195,32h10v3h-10V32z M195,38h8v3h-8V38z    M160,32h31v18h-31V32z M175,71h-15v-3h15V71z M175,65h-15v-3h15V65z M175,59h-15v-3h15V59z M197,71h-18v-3h18V71z M200,47h-5v-3h5   V47z M216,65h-37v-3h37V65z M216,59h-37v-3h37V59z"/>
	<g>
		<rect x="470" y="-105" fill="#000000" width="6" height="6"/>
		<path fill="#000000" d="M483.819-99.136L487-112h-55.178c-1.864,0-3.822,1.849-3.822,3.776v44.861    c0,1.928,1.958,3.362,3.822,3.362h64.414c1.866,0,3.764-1.435,3.764-3.362v-33.947C494-96.91,483.819-99.136,483.819-99.136z     M459-107h6v5h-6V-107z M469-90v6h-6v-6H469z M454-101h5v5h4v6h-6v-6h-3v3h-5v-5h5V-101z M463-85v5h-5v-5H463z M457-89v5h-4v-5    H457z M448-107h6v6h-6V-107z M435-107h10v10h-10V-107z M445-64h-10v-10h10V-64z M469-74h10v10h-10l0,0h-12v-5h-4v5h-5v-15h-4v-5    h-5v-5h-4v-4h14v4h-5v5h5v5h4v6h4v-6h6v6h6 M479-98.232V-84h-5v5h5v-5h-5v5h-5v-5h4v-5h-4v-5h4v-2h-6v-11h12V-98.232z"/>
		<rect x="437" y="-72" fill="#000000" width="6" height="6"/>
		<rect x="457" y="-73" fill="#000000" width="6" height="4"/>
		<rect x="437" y="-105" fill="#000000" width="6" height="5"/>
	</g>
	<rect x="471" y="-72" fill="#000000" width="6" height="6"/>
</g>
</svg>