<?xml version="1.0" encoding="utf-8"?>
<!-- Generator: Adobe Illustrator 16.0.0, SVG Export Plug-In . SVG Version: 6.00 Build 0)  -->
<!DOCTYPE svg PUBLIC "-//W3C//DTD SVG 1.1//EN" "http://www.w3.org/Graphics/SVG/1.1/DTD/svg11.dtd">
<svg version="1.1" id="Layer_1" xmlns="http://www.w3.org/2000/svg" xmlns:xlink="http://www.w3.org/1999/xlink" x="0px" y="0px"
	 width="146.838px" height="213.333px" viewBox="0 0 146.838 213.333" enable-background="new 0 0 146.838 213.333"
	 xml:space="preserve">
<g>
	<circle fill="#81D3F0" cx="79.619" cy="62.789" r="9.434"/>
	<path fill="#81D3F0" d="M55.384,17.584L52.266,3.982c0,0,28.275-6.323,57.279,10.859c29,17.183,34.936,44.646,34.936,44.646
		l-13.367,2.965c0,0-4.721-21.665-28.57-35.794C78.695,12.529,55.384,17.584,55.384,17.584z"/>
	<path fill="#81D3F0" d="M62.692,28.765l4.041,11.795c0,0,11.105-2.821,24.532,5.132c13.427,7.956,14.078,18.615,14.078,18.615
		l12.026-3.15c0,0-2.924-16.128-19.792-26.123C80.711,25.044,62.692,28.765,62.692,28.765z"/>
</g>
<path fill="#4788C8" d="M86.551,80.341v110.518H9.127V75.484h56.502c-5.427-5.977-6.592-15.016-2.258-22.323
	c0.707-1.196,1.535-2.279,2.445-3.256H13.313c-5.816,0-10.53,4.716-10.53,10.532v140.402c0,5.815,4.714,10.53,10.53,10.53h69.053
	c5.817,0,10.531-4.715,10.531-10.53V76.198C91.057,78.023,88.892,79.416,86.551,80.341z M47.686,208.236
	c-3.839,0-6.949-3.113-6.949-6.951c0-3.84,3.11-6.951,6.949-6.951c3.841,0,6.953,3.111,6.953,6.951
	C54.639,205.123,51.527,208.236,47.686,208.236z"/>
<g>
	<path fill="#4788C8" d="M69.834,90.62H22.331v13.95h47.504V90.62z"/>
	<path fill="#81D3F0" d="M54.294,113.929H22.331v13.949h31.964V113.929z"/>
	<path fill="#AAD485" d="M60.513,137.238H22.331v13.948h38.183V137.238z"/>
	<path fill="#AAD485" d="M42.862,165.213v6.185h-6.184v-6.185H42.862z"/>
	<path fill="#81D3F0" d="M35.096,165.213v6.185h-6.188v-6.185H35.096z"/>
	<path fill="#4788C8" d="M27.325,165.213v6.185h-6.186v-6.185H27.325z"/>
	<path fill="#BDBDBD" d="M54.497,183.827h4.632v-18.613h-4.632V183.827z M66.799,183.827v-18.613h-4.534v18.613H66.799z
		 M70.036,171.428v12.398h4.533v-12.398H70.036z M36.678,172.91v9.405h6.184v-9.405H36.678z M28.909,172.91v9.405h6.188v-9.405
		H28.909z M21.139,172.91v9.405h6.186v-9.405H21.139z"/>
</g>
</svg>
