<?xml version="1.0" encoding="utf-8"?>
<!-- Generator: Adobe Illustrator 16.0.0, SVG Export Plug-In . SVG Version: 6.00 Build 0)  -->
<!DOCTYPE svg PUBLIC "-//W3C//DTD SVG 1.1//EN" "http://www.w3.org/Graphics/SVG/1.1/DTD/svg11.dtd">
<svg version="1.1" id="Layer_1" xmlns="http://www.w3.org/2000/svg" xmlns:xlink="http://www.w3.org/1999/xlink" x="0px" y="0px"
	 width="154.359px" height="133.912px" viewBox="0 0 154.359 133.912" enable-background="new 0 0 154.359 133.912"
	 xml:space="preserve">
<g>
	<path fill="#FFFFFF" d="M25.555,122.456c-7.375,0-10.375-5.216-6.666-11.59l51.548-88.6c3.709-6.375,9.777-6.375,13.486,0
		l51.546,88.6c3.709,6.374,0.709,11.59-6.666,11.59H25.555z"/>
	<path fill="none" stroke="#4787C7" stroke-width="8.0454" stroke-miterlimit="10" d="M25.555,122.456
		c-7.375,0-10.375-5.216-6.666-11.59l51.548-88.6c3.709-6.375,9.777-6.375,13.486,0l51.546,88.6
		c3.709,6.374,0.709,11.59-6.666,11.59H25.555z"/>
</g>
<g>
	<path fill="#FAAA2C" d="M78.281,96.342h-2.834c-0.037-6.508-0.218-11.38-0.545-14.617c-0.546-5.345-1.474-11.654-2.783-18.926
		c-1.418-8.145-2.126-13.472-2.126-15.981c0-3.164,0.636-5.536,1.908-7.118c1.273-1.582,2.947-2.373,5.019-2.373
		c2.146,0,3.836,0.754,5.073,2.264c1.236,1.509,1.854,3.864,1.854,7.063c0,2.727-0.728,8.109-2.182,16.145
		c-1.309,7.054-2.181,12.898-2.618,17.534C78.61,84.969,78.355,90.307,78.281,96.342z M76.919,100.943
		c1.855,0,3.429,0.654,4.718,1.964c1.29,1.309,1.938,2.89,1.938,4.744c0,1.782-0.656,3.327-1.965,4.637s-2.871,1.964-4.69,1.964
		c-1.818,0-3.373-0.638-4.663-1.909c-1.291-1.273-1.937-2.836-1.937-4.691c0-1.891,0.635-3.48,1.909-4.771
		C73.5,101.589,75.064,100.943,76.919,100.943z"/>
</g>
</svg>
