<?xml version="1.0" encoding="utf-8"?>
<!-- Generator: Adobe Illustrator 16.0.0, SVG Export Plug-In . SVG Version: 6.00 Build 0)  -->
<!DOCTYPE svg PUBLIC "-//W3C//DTD SVG 1.1//EN" "http://www.w3.org/Graphics/SVG/1.1/DTD/svg11.dtd">
<svg version="1.1" id="Layer_1" xmlns="http://www.w3.org/2000/svg" xmlns:xlink="http://www.w3.org/1999/xlink" x="0px" y="0px"
	 width="102px" height="102px" viewBox="0 0 102 102" enable-background="new 0 0 102 102" xml:space="preserve">
<g display="none">
	<g display="inline">
		<path fill="#FBAB2C" d="M51.136,1.17c27.613,0,50,22.385,50,50c0,27.614-22.388,49.999-50,49.999c-27.614,0-50-22.385-50-49.999
			C1.136,23.555,23.521,1.17,51.136,1.17z"/>
	</g>
	<g display="inline">
		<path fill="#4788C8" d="M29.565,53.312c0.44-4.114,5.877-2.865,6.098,0c0,3.672,3.573,15.633,15.413,15.633
			c11.841,0,15.367-11.154,15.367-15.633c-0.149-3.674,6.099-3.454,6.318,0c0.219,3.451-4.336,21.815-18.734,21.815l0.072,5.951
			c0,0,2.572,0,5.95,0c3.38,0,3.38,6.172-0.221,6.172c-3.599,0-14.692,0-17.777,0c-3.085,0-2.864-6.135,0-6.135
			c2.867,0,5.883,0,5.883,0V74.98C35.882,74.98,28.756,59.85,29.565,53.312z"/>
		<path fill="#FFFFFF" d="M51.42,21.047c-8.733,0-10.314,7.452-10.314,9.484c0,0.229,0,0.683,0,1.297h12.615v2.714H41.105
			c0,0.696,0,1.454,0,2.255h12.616v2.715H41.105c0,0.887,0,1.795,0,2.705h12.616v2.711H41.105c0,4.287,0,8.081,0,8.975
			c0,2.563,2.113,9.483,10.314,9.483c8.202,0,10.233-7.338,10.233-9.483c0-2.146,0-20.754,0-23.37
			C61.654,27.917,60.152,21.047,51.42,21.047z"/>
	</g>
</g>
<g display="none">
	<g display="inline">
		<path fill="#AAD485" d="M51.135,1.06c27.678,0,50.111,22.434,50.111,50.109s-22.436,50.11-50.111,50.11
			c-27.674,0-50.109-22.436-50.109-50.11S23.461,1.06,51.135,1.06z"/>
	</g>
	<g display="inline">
		<g>
			<path fill="#4788C8" d="M46.259,24.097c0,1.001-0.812,1.815-1.814,1.815l0,0c-1.002,0-1.814-0.813-1.814-1.815v-7.258
				c0-1.001,0.812-1.813,1.814-1.813l0,0c1.003,0,1.814,0.812,1.814,1.813V24.097z"/>
			<path fill="#4788C8" d="M40.583,24.246c0.709,0.708,0.709,1.858,0,2.566l0,0c-0.709,0.708-1.857,0.708-2.566,0.001l-5.131-5.133
				c-0.711-0.709-0.711-1.858,0-2.568l0,0c0.708-0.708,1.857-0.708,2.564,0L40.583,24.246z"/>
			<path fill="#4788C8" d="M35.983,29.767c1.001,0,1.812,0.812,1.812,1.816l0,0c0,1.001-0.812,1.812-1.812,1.813h-7.258
				c-1.003,0-1.816-0.812-1.816-1.813l0,0c0-1.004,0.813-1.816,1.816-1.816H35.983z"/>
			<path fill="#4788C8" d="M36.728,36.579c0.709-0.708,1.857-0.708,2.564,0.001l0,0c0.709,0.708,0.709,1.855,0.003,2.565
				l-5.131,5.132c-0.711,0.708-1.858,0.708-2.567,0l0,0c-0.711-0.709-0.71-1.858-0.002-2.566L36.728,36.579z"/>
			<path fill="#4788C8" d="M51.925,27.72c-0.71,0.708-1.859,0.708-2.566,0l0,0c-0.71-0.709-0.71-1.858,0-2.566l5.131-5.132
				c0.708-0.708,1.857-0.708,2.568,0.001l0,0c0.707,0.708,0.707,1.857,0,2.565L51.925,27.72z"/>
			<path fill="#4788C8" d="M51.93,34.304c-1,0-1.812-0.812-1.812-1.815l0,0c0-1,0.812-1.815,1.812-1.815h7.26
				c1.002,0.001,1.814,0.815,1.814,1.816l0,0c0,1.001-0.812,1.814-1.814,1.814H51.93z"/>
		</g>
		<path fill="#FFFFFF" d="M41.108,87.29c0,0,0-6.322,0-8.604c0-2.281-10.155-16.373-12.228-21.039
			c-2.075-4.664,3.109-6.632,6.113-4.975c3.006,1.656,5.183,5.287,5.183,5.287s0-21.87,0-26.328c0-4.457,8.706-4.558,8.706,0
			c0,4.56,0,15.03,0,11.402s7.257-3.732,7.257,1.865c0-3.939,7.461-2.59,7.461,2.28c0-4.872,7.981-2.694,7.981,1.555
			c0,4.25,0.562,14.582,0,16.583s-2.435,8.123-3.108,11.091C67.794,79.376,67.02,87.29,67.02,87.29H41.108z"/>
	</g>
</g>
<g display="none">
	<g display="inline">
		<g>
			<path fill="#1E429B" d="M51.135,1.06c27.676,0,50.111,22.434,50.111,50.109s-22.438,50.11-50.111,50.11
				s-50.11-22.435-50.11-50.11S23.46,1.06,51.135,1.06z"/>
		</g>
	</g>
	<g display="inline">
		<circle fill="#FFFFFF" cx="71.217" cy="22.087" r="5.87"/>
		<path fill="#FFFFFF" d="M44.056,47.409c-0.576,2.417,5.396,4.108,6.1,1.267c0.704-2.846,2.646-10.705,2.646-10.705l4.837-1.266
			c0,0-4.837,11.739-4.722,13.926c0.117,2.188,1.267,3.799,1.267,3.799S43.021,77.104,41.523,80.785
			c-1.496,3.684,3.963,7.913,6.331,3.34c2.368-4.574,11.625-22.443,11.625-22.443s8.059,18.414,10.014,22.443
			c1.957,4.025,9.42,0.405,7.596-3.568c-1.82-3.975-12.658-27.623-12.658-27.623l4.256-9.783c0,0,1.152,3.107,1.498,4.258
			c0.346,1.15,7.826,3.913,10.588,5.294c2.764,1.382,5.555-4.777,2.764-6.099c-2.791-1.323-6.907-3.222-7.825-3.913
			c-0.922-0.691-2.765-7.597-2.765-7.597s-0.461-3.568-4.143-5.64c-3.682-2.072-7.418-0.305-9.438,0
			c-2.021,0.303-10.243,1.381-11.625,2.992C46.358,34.058,44.632,44.992,44.056,47.409z"/>
		<path fill="#4788C8" d="M15.004,44.058c-1.003,0-1.814-0.812-1.814-1.815l0,0c0-1.001,0.812-1.813,1.814-1.813h21.882
			c1,0,1.814,0.812,1.814,1.815l0,0c0,1.001-0.814,1.815-1.814,1.815L15.004,44.058z"/>
		<path fill="#4788C8" d="M21.815,57.884c-1.001,0-1.813-0.812-1.813-1.813l0,0c0-1.002,0.812-1.815,1.813-1.815h21.881
			c1.004,0.001,1.816,0.813,1.816,1.815l0,0c0,1.002-0.812,1.813-1.816,1.813H21.815z"/>
		<path fill="#4788C8" d="M14.571,71.499c-1.001,0-1.814-0.812-1.814-1.813l0,0c0-1.002,0.813-1.814,1.814-1.814h21.882
			c1.003,0,1.815,0.812,1.815,1.814l0,0c0,1.002-0.812,1.815-1.815,1.815L14.571,71.499z"/>
	</g>
</g>
<g display="none" opacity="0.5">
	<circle display="inline" fill="#FFFFFF" cx="51.136" cy="51.169" r="50"/>
</g>
<g>
	<g>
		<circle fill="#80D2EF" cx="51.504" cy="50.585" r="50.11"/>
	</g>
	<path fill="#1E429A" d="M71.158,37.46c-0.018-2.09-1.844-3.888-3.936-3.87c-10.94,0.091-21.884,0.181-32.825,0.272
		c-2.09,0.018-3.931,1.846-3.912,3.936c0.091,10.941,0.183,21.885,0.273,32.827c0.018,2.09,1.887,3.928,3.976,3.911
		c10.942-0.091,21.912-0.183,32.947-0.272c1.409-0.014,2.392-0.725,2.951-1.714c0.496-0.608,0.807-1.413,0.797-2.417
		C71.343,59.41,71.25,48.404,71.158,37.46z M63.516,66.414c-8.33,0.068-16.629,0.138-24.907,0.207
		C38.54,58.318,38.47,50.016,38.4,41.713c8.303-0.069,16.606-0.138,24.91-0.208C63.379,49.846,63.449,58.203,63.516,66.414z"/>
	<path fill="#FFFFFF" d="M84.285,26.033c-1.567-1.544-3.855-1.337-5.422,0.043c-7.649,6.75-15.301,13.465-22.951,20.195
		c-2.022,1.778-4.043,3.558-6.069,5.342c-2.697-3.066-5.396-6.343-8.096-9.487c-1.363-1.587-4.049-1.315-5.423,0.081
		c-1.557,1.584-1.313,3.875,0.046,5.46c3.478,4.053,6.958,8.105,10.437,12.157c1.43,1.666,3.961,1.244,5.422-0.045
		c3.062-2.701,6.123-5.401,9.182-8.102c7.629-6.729,15.258-13.46,22.885-20.19c0.013-0.01,0.024-0.021,0.037-0.032
		C85.9,30.073,85.697,27.419,84.285,26.033z M46.796,54.297c-0.011,0.01-0.025-0.041-0.037-0.041c0.027,0,0.056,0,0.083,0
		C46.829,54.268,46.812,54.282,46.796,54.297z"/>
</g>
<g opacity="0.2">
	<circle cx="51.136" cy="51.169" r="50"/>
</g>
</svg>
