<?xml version="1.0" encoding="utf-8"?>
<!-- Generator: Adobe Illustrator 16.0.0, SVG Export Plug-In . SVG Version: 6.00 Build 0)  -->
<!DOCTYPE svg PUBLIC "-//W3C//DTD SVG 1.1//EN" "http://www.w3.org/Graphics/SVG/1.1/DTD/svg11.dtd">
<svg version="1.1" id="Layer_1" xmlns="http://www.w3.org/2000/svg" xmlns:xlink="http://www.w3.org/1999/xlink" x="0px" y="0px"
	 width="84.223px" height="100px" viewBox="0 0 84.223 100" enable-background="new 0 0 84.223 100" xml:space="preserve">
<path fill="#010101" d="M48.387,0c-4.616,0-8.715,2.059-11.555,5.259c-1.28-2.02-3.447-3.346-5.905-3.346
	c-3.938,0-7.13,3.405-7.13,7.606c0,4.202,3.193,7.606,7.13,7.606c0.731,0,1.424-0.151,2.084-0.369
	C33.663,24.716,40.254,31,48.387,31c8.559,0,15.498-6.94,15.498-15.501C63.884,6.938,56.946,0,48.387,0z"/>
<path fill="#010101" d="M58.524,90.884c-0.201,0.08-0.404,0.115-0.604,0.115c-0.662,0-1.283-0.396-1.538-1.051
	c-0.334-0.85,0.085-1.808,0.933-2.142l21.638-8.658c4.692-2.021,5.95-5.913,4.951-9.136l0.01-0.002l-8.826-26.596
	c-1.487-4.467-4.956-11.763-12.415-14.725c-3.556,3.85-8.632,6.273-14.284,6.273c-6.281,0-11.848-2.984-15.408-7.604h-1.876
	c-9.368,0.084-14.145,2.836-18.184,9.816L1.158,66.316c-2.015,3.149-1.652,7.916,3.111,11.132l8.715,5.604L7.224,100h74.208
	l-6.063-15.724L58.524,90.884z M47.784,66.688l0.026-0.009c0,0,3.027,3.848,3.05,6.638c0.006,0.853-0.168,1.349-0.354,1.695
	l-5.941,2.515l-14.309,5.931c-0.946,0.403-1.708,0.904-2.386,1.44c-1.496-0.77-2.712-2.09-3.273-3.782
	c-0.77-2.337,0.246-4.951,0.297-5.141c0.7-2.562,1.563-5.468,2.256-8.03c-2.74-0.572-5.488-1.141-8.226-1.72
	c-4.186-0.864-2.984-6.996,1.211-6.122c4.071,0.847,8,1.574,12.065,2.424c0.85,0.173,1.75,0.523,2.231,0.993
	c0.939,0.916,1.313,2.211,0.846,3.908c-0.298,1.103-0.602,2.203-0.898,3.305c1.866-0.62,4.852-1.556,7.029-2.23
	c-0.919-2.521-1.626-5.527-1.309-8.529c0.873-8.19,7.595-11.61,7.881-11.751c1.64-0.812,3.618-0.142,4.431,1.492
	c0.813,1.636,0.141,3.623-1.493,4.43c-0.126,0.065-3.765,2.021-4.243,6.527C46.474,62.583,47.042,64.779,47.784,66.688z
	 M51.906,66.795c-1.672-5.051,1.075-10.496,6.115-12.161c5.051-1.668,10.486,1.065,12.15,6.108c0.67,2.024,0.565,4.091-0.058,5.975
	L56.78,72.362C54.554,71.261,52.744,69.329,51.906,66.795z"/>
</svg>
