<svg xmlns="http://www.w3.org/2000/svg" xmlns:xlink="http://www.w3.org/1999/xlink" version="1.1" id="Layer_1" x="0px" y="0px" width="96px" height="96px" viewBox="0 0 96 96" enable-background="new 0 0 96 96" xml:space="preserve">
<path d="M56.359,47.252c-1.295-0.08-2.58-0.164-3.812-0.164c-4.724,0-5.82,1.264-5.972,8.164h47.951  c-0.836-2.704-2.348-4.788-4.619-6.012c-2.744-1.476-9.381-4.676-16.828-8.148C69.132,48.064,62.128,47.624,56.359,47.252z"/>
<path d="M26.892,55.252H42.56c0.084-6.271,0.948-12.164,9.988-12.164c1.32,0,2.688,0.084,4.072,0.172  c6.048,0.392,10.204,0.328,12.772-3.876c-9.385-4.336-19.256-8.728-23.973-10.508c-0.76-0.28-1.628-0.084-2.18,0.524  c-3.124,3.412-11.06,7.06-17.888,7.06c-2.524,0-5.984-0.52-8.12-3.012c-2.14-2.496-5.152-3.98-8.06-3.98  c-3.748,0-8.06,2.616-8.396,9.764C17.708,40.44,24.328,49.132,26.892,55.252z"/>
<path d="M25.548,59.252c-0.008,0-0.016,0-0.024,0c-0.004,0-0.008,0-0.012,0h-24.8v6c0,1.1,0.896,2,2,2h85.24  c1.952,0,3.864-0.8,5.235-2.2c1.377-1.396,2.141-3.319,2.097-5.276c-0.005-0.188-0.052-0.336-0.06-0.523H25.548z"/>
<path d="M0.712,43.28v11.968H22.42C18.764,48.264,11.232,44.108,0.712,43.28z"/>
</svg>