<svg xmlns="http://www.w3.org/2000/svg" xmlns:xlink="http://www.w3.org/1999/xlink" version="1.1" id="Layer_1" x="0px" y="0px" width="100px" height="100px" viewBox="0 0 100 100" enable-background="new 0 0 100 100" xml:space="preserve">
<g>
	<circle fill="#000000" cx="62.877" cy="15.183" r="1.386"/>
	<polygon fill="#000000" points="60.271,14.186 55.173,14.245 60.062,15.697  "/>
	<path fill="#000000" d="M88.054,27.067h-0.821c-5.34,0-9.668,4.328-9.668,9.668v3.423c0,3.87,2.278,7.199,5.563,8.743   c-0.037,0.143-0.062,0.291-0.062,0.445v3.577c0,1.011,0.826,1.837,1.837,1.837h1.224c-0.074,2.135-1.136,22.256-14.487,22.256   c-6.504,0-9.362-3.717-12.387-7.65c-0.508-0.659-1.026-1.329-1.567-1.99c0.247-0.214,0.501-0.417,0.736-0.646   c8.72-8.508,6.952-25.979,6.197-33.439c-0.077-0.768-0.142-1.415-0.186-1.943h2.92c1.222,0,2.221-0.999,2.221-2.221v-0.495   c0-1.223-0.923-1.84-2.052-1.373c0,0-2.21,0.916-4.646,0.916c-2.438,0-4.646-0.916-4.646-0.916   c-1.129-0.467-2.053,0.149-2.053,1.373v0.495c0,1.222,0.999,2.221,2.222,2.221h3.002c0.045,0.603,0.12,1.353,0.212,2.248   c0.71,7.026,2.375,23.481-5.302,30.972c-0.209,0.203-0.442,0.376-0.663,0.564c-2.989-2.912-7.012-4.983-13.82-3.812V45.754   c-0.009,0.015-0.022,0.029-0.031,0.045c0-0.002,0-0.003,0-0.005c0.002-0.031,0.019-0.061,0.019-0.091   c0-2.58-7.686-5.338-19.127-5.338c-11.442,0-19.128,2.759-19.128,5.338c0,0.022,0.013,0.044,0.014,0.066   c-0.003-0.007-0.01-0.013-0.014-0.02v35.394c0,3.114,8.566,5.64,19.134,5.64c5.449,0,4.924,4.766,11.178,4.746V76.472   c1.223,0.266,2.319,0.569,3.273,0.902v7.464c2.915-0.989,4.683-2.281,4.683-3.694v-9.807c1.19,0.134,2.345,0.211,3.45,0.211   c3.843,0,7.158-0.82,9.938-2.418c0.551,0.665,1.091,1.362,1.641,2.078c3.183,4.139,6.791,8.829,14.782,8.829   c13.526,0,17.359-16.44,17.51-25.276h1.23c1.011,0,1.837-0.826,1.837-1.837v-3.577c0-0.153-0.024-0.3-0.061-0.443   c3.286-1.544,5.565-4.874,5.565-8.745v-3.423C97.722,31.395,93.394,27.067,88.054,27.067z M37.147,48.703v26.132   c-0.964-0.32-2.052-0.614-3.273-0.869V55.392c-6.268,0.019-5.706-4.759-11.178-4.759c-8.578,0-15.68-1.619-18.321-3.934   c2.249-2.057,9.045-3.87,18.315-3.87c9.277,0,16.079,1.815,18.321,3.875C40.155,47.454,38.84,48.131,37.147,48.703z M41.83,68.303   v-3.916c5.492-1.075,8.708,0.191,11.237,2.459C50.065,68.353,46.311,68.852,41.83,68.303z"/>
	<path fill="#000000" d="M62.877,26.664c6.342,0,11.48-5.14,11.48-11.48c0-6.34-5.139-11.48-11.48-11.48   c-6.339,0-11.48,5.14-11.48,11.48C51.396,21.524,56.538,26.664,62.877,26.664z M62.877,6.724c4.673,0,8.459,3.788,8.459,8.459   c0,4.672-3.786,8.459-8.459,8.459c-4.672,0-8.46-3.787-8.46-8.459C54.417,10.512,58.205,6.724,62.877,6.724z"/>
</g>
</svg>