<svg xmlns="http://www.w3.org/2000/svg" xmlns:xlink="http://www.w3.org/1999/xlink" version="1.0" x="0px" y="0px" width="100px" height="100px" viewBox="0 0 100 100" overflow="" enable-background="new 0 0 100 100" xml:space="preserve">
    <path d="M65.188,42.455c-3.204,0.722-5.215,3.912-4.485,7.116c0.096,0.454,0.256,0.872,0.438,1.273l-4.561,6.611 c-2.066-0.298-4.214,0.509-5.567,2.265l-6.474-1.052c-0.22-0.762-0.581-1.476-1.109-2.121c-2.082-2.539-5.825-2.92-8.371-0.849 c-2.545,2.087-2.915,5.831-0.843,8.377c0.167,0.212,0.364,0.407,0.557,0.589l-1.885,6.671c-2.142,0.609-3.859,2.396-4.253,4.74 c-0.55,3.239,1.632,6.31,4.87,6.854c3.248,0.544,6.314-1.642,6.865-4.881c0.324-1.978-0.359-3.883-1.674-5.2l1.935-6.869 c0.692-0.226,1.357-0.57,1.958-1.055c0.164-0.143,0.316-0.284,0.474-0.438l7.191,1.185c0.417,0.953,1.065,1.82,1.963,2.479 c2.665,1.935,6.384,1.351,8.322-1.313c1.237-1.692,1.44-3.825,0.727-5.644l4.845-6.997c0.567,0.031,1.135-0.014,1.698-0.135 c3.214-0.728,5.225-3.909,4.499-7.116C71.582,43.739,68.391,41.728,65.188,42.455z"/>
    <path d="M50.269,16.437c2.604,0,4.701-2.098,4.701-4.695c0-2.594-2.097-4.702-4.701-4.702 c-2.588,0-4.691,2.107-4.691,4.702C45.577,14.339,47.68,16.437,50.269,16.437z"/>
    <path d="M77.011,6.925H63.046c-1.423-2.828-4.055-4.942-7.225-5.638c-0.023-0.012-0.049-0.012-0.058-0.029 c-0.069-0.007-0.138-0.024-0.2-0.024c-0.423,0-0.766,0.343-0.766,0.761c0,0.327,0.21,0.605,0.497,0.706 c3.342,1.812,5.627,5.342,5.627,9.417h8.872c5.901,0,10.688,4.792,10.688,10.696v3.37c0,1.781-1.452,3.239-3.24,3.239H23.218 c-1.795,0-3.241-1.458-3.241-3.239v-3.37c0-5.904,4.788-10.696,10.688-10.696h8.876c0-1.885,0.488-3.651,1.349-5.192H23.969 c-7.202,0-13.036,5.844-13.036,13.049v66.982v0.006c0,7.205,5.833,13.038,13.036,13.038h53.045c7.203,0,13.037-5.833,13.037-13.038 v-0.006V19.974C90.052,12.77,84.214,6.925,77.011,6.925z M77.242,85.384c0,1.797-1.454,3.241-3.247,3.241h-47.46 c-1.788,0-3.239-1.444-3.239-3.241V40.078c0-1.789,1.451-3.24,3.239-3.24h47.46c1.793,0,3.247,1.451,3.247,3.24V85.384z"/>
</svg>