<?xml version="1.0" encoding="utf-8"?>
<!-- Generator: Adobe Illustrator 16.0.0, SVG Export Plug-In . SVG Version: 6.00 Build 0)  -->
<!DOCTYPE svg PUBLIC "-//W3C//DTD SVG 1.1//EN" "http://www.w3.org/Graphics/SVG/1.1/DTD/svg11.dtd">
<svg version="1.1" id="Layer_1" xmlns="http://www.w3.org/2000/svg" xmlns:xlink="http://www.w3.org/1999/xlink" x="0px" y="0px"
	 width="154.359px" height="133.912px" viewBox="0 0 154.359 133.912" enable-background="new 0 0 154.359 133.912"
	 xml:space="preserve">
<g>
	<polygon fill="#FAAA2C" stroke="#4787C7" stroke-width="4.8186" stroke-miterlimit="10" points="51.063,4.904 105.232,4.904 
		138.701,38.374 138.701,93.899 103.797,128.804 51.063,128.804 16.344,94.086 16.344,37.813 	"/>
	<path fill="#FFFFFF" d="M66.144,111.76c-14.453,0-16.862-15.028-16.862-15.028s-2.41-51.426-2.41-55.02s7.721-3.614,7.721,0
		s0.803,23.092,0.803,23.092h2.083c0,0,0-35.302,0-39.823c0-4.521,9.843-4.643,9.843,0c0,3.517,0,32.754,0,32.754h2.956
		c0,0,0-29.606,0-36.608c0-7.001,10.46-6.03,10.46,0s0,36.86,0,36.86h2.837c0,0,0-23.604,0-31.053c0-5.988,9.75-6.191,9.75,0
		s0,47.308,0,47.308s1.698,0.537,2.195,0s5.107-17.265,15.97-17.265c2.778-0.105,3.12,4.882,3.12,4.882s-1.757,1.864-4.117,7.778
		c-2.359,5.914-4.193,15.433-5.646,18.782c-1.452,3.349-4.672,15.916-6.09,17.76c-1.418,1.843-5.71,5.581-11.785,5.581
		C80.898,111.76,80.595,111.76,66.144,111.76z"/>
</g>
</svg>
