<?xml version="1.0" encoding="utf-8"?>
<!-- Generator: Adobe Illustrator 16.0.0, SVG Export Plug-In . SVG Version: 6.00 Build 0)  -->
<!DOCTYPE svg PUBLIC "-//W3C//DTD SVG 1.1//EN" "http://www.w3.org/Graphics/SVG/1.1/DTD/svg11.dtd">
<svg version="1.1" id="Layer_1" xmlns="http://www.w3.org/2000/svg" xmlns:xlink="http://www.w3.org/1999/xlink" x="0px" y="0px"
	 width="141.547px" height="160.441px" viewBox="0 0 141.547 160.441" enable-background="new 0 0 141.547 160.441"
	 xml:space="preserve">
<g>
	<path fill="#AAD485" d="M116.778,143.928c-4.562,0-8.257,3.697-8.257,8.258c0,4.562,3.695,8.256,8.257,8.256
		c4.562,0,8.255-3.693,8.255-8.256C125.033,147.625,121.341,143.928,116.778,143.928z M24.77,143.928
		c-4.558,0-8.261,3.697-8.261,8.258c0,4.562,3.703,8.256,8.261,8.256c4.562,0,8.26-3.693,8.26-8.256
		C33.029,147.625,29.332,143.928,24.77,143.928z M70.777,3.033c-3.915,0-7.08,3.17-7.08,7.078c0,3.911,3.165,7.077,7.08,7.077
		c3.902,0,7.076-3.166,7.076-7.077C77.854,6.203,74.68,3.033,70.777,3.033z M19.369,2.974l-3.25,1.884
		C4.891,11.362,1.482,26.534,7.969,37.802c0.025,0.035,43.834-25.394,43.908-25.439C45.393,1.096,30.597-3.53,19.369,2.974z
		 M125.429,4.857l-3.249-1.884C110.946-3.53,96.156,1.096,89.676,12.36c0.076,0.049,43.881,25.476,43.906,25.439
		C140.064,26.534,136.658,11.362,125.429,4.857z"/>
	<path fill="#4788C8" d="M70.777,18.89c39.08,0,70.77,31.689,70.77,70.776c0,39.09-31.689,70.775-70.77,70.775
		C31.686,160.441,0,128.756,0,89.666C0,50.579,31.686,18.89,70.777,18.89z"/>
	<path fill="#FFFFFF" d="M70.777,29.478c33.242,0,60.183,26.947,60.183,60.188c0,33.238-26.94,60.188-60.183,60.188
		s-60.193-26.949-60.193-60.188C10.584,56.425,37.535,29.478,70.777,29.478z"/>
	<path fill="#9EA7A8" d="M70.777,35.405c-1.307,0-2.369,1.058-2.369,2.359c0,1.305,1.062,2.358,2.369,2.358
		c1.301,0,2.357-1.053,2.357-2.358C73.135,36.462,72.078,35.405,70.777,35.405z M122.676,87.309c-1.305,0-2.359,1.057-2.359,2.357
		c0,1.305,1.055,2.359,2.359,2.359c1.307,0,2.357-1.055,2.357-2.359C125.033,88.365,123.982,87.309,122.676,87.309z M18.869,87.309
		c-1.297,0-2.36,1.057-2.36,2.357c0,1.305,1.063,2.359,2.36,2.359c1.307,0,2.359-1.055,2.359-2.359
		C21.229,88.365,20.176,87.309,18.869,87.309z M33.029,51.919c-1.305,0-2.361,1.056-2.361,2.359s1.057,2.358,2.361,2.358
		c1.297,0,2.355-1.055,2.355-2.358S34.326,51.919,33.029,51.919z M108.521,51.919c-1.305,0-2.361,1.056-2.361,2.359
		s1.057,2.358,2.361,2.358c1.303,0,2.358-1.055,2.358-2.358S109.824,51.919,108.521,51.919z M108.521,122.695
		c-1.305,0-2.361,1.057-2.361,2.357c0,1.305,1.057,2.361,2.361,2.361c1.303,0,2.358-1.057,2.358-2.361
		C110.88,123.752,109.824,122.695,108.521,122.695z M33.029,122.695c-1.305,0-2.361,1.057-2.361,2.357
		c0,1.305,1.057,2.361,2.361,2.361c1.297,0,2.355-1.057,2.355-2.361C35.385,123.752,34.326,122.695,33.029,122.695z M70.777,139.209
		c-1.307,0-2.369,1.058-2.369,2.361c0,1.303,1.062,2.357,2.369,2.357c1.301,0,2.357-1.055,2.357-2.357
		C73.135,140.267,72.078,139.209,70.777,139.209z"/>
	<path fill="#FBAB2C" d="M72.898,85.277l25.282,12.736c2.321,1.174,3.261,4.012,2.089,6.338c-1.168,2.326-4.01,3.262-6.336,2.091
		L68.654,93.703c-2.332-1.172-3.268-4.012-2.094-6.336C67.729,85.041,70.57,84.105,72.898,85.277z"/>
	<path fill="#FBAB2C" d="M70.777,49.561c2.598,0,4.717,2.114,4.717,4.718v35.387c0,2.604-2.119,4.719-4.717,4.719
		c-2.607,0-4.723-2.115-4.723-4.719V54.279C66.055,51.675,68.17,49.561,70.777,49.561z"/>
</g>
</svg>
