<?xml version="1.0" encoding="utf-8"?>
<!-- Generator: Adobe Illustrator 16.0.0, SVG Export Plug-In . SVG Version: 6.00 Build 0)  -->
<!DOCTYPE svg PUBLIC "-//W3C//DTD SVG 1.1//EN" "http://www.w3.org/Graphics/SVG/1.1/DTD/svg11.dtd">
<svg version="1.1" id="Layer_1" xmlns="http://www.w3.org/2000/svg" xmlns:xlink="http://www.w3.org/1999/xlink" x="0px" y="0px"
	 width="154.359px" height="133.912px" viewBox="0 0 154.359 133.912" enable-background="new 0 0 154.359 133.912"
	 xml:space="preserve">
<g>
	<path fill="#FAAA2C" d="M123.491,18.354H61.355L50.391,9.215H32.117c-4.037,0-7.31,3.272-7.31,7.308v32.896
		c0,4.036,3.273,7.31,7.31,7.31h91.374c4.036,0,7.307-3.274,7.307-7.31V25.667C130.798,21.629,127.527,18.354,123.491,18.354z"/>
	<path fill="#4787C7" d="M21.15,27.49h113.305v25.584H21.15V27.49z"/>
	<path fill="#1E429A" d="M17.496,32.973h120.615v25.584H17.496V32.973z"/>
	<path fill="#FAAA2C" d="M15.671,38.457h124.266c4.039,0,7.312,3.271,7.312,7.31l-9.137,71.27c0,4.041-3.274,7.311-7.313,7.311
		H24.807c-4.037,0-7.311-3.27-7.311-7.311l-9.139-71.27C8.357,41.73,11.632,38.457,15.671,38.457z"/>
	<path fill="#4787C7" d="M77.803,109.727c16.147,0,29.238-13.093,29.238-29.239c0-16.147-13.091-29.239-29.238-29.239
		c-16.149,0-29.241,13.092-29.241,29.239C48.563,96.634,61.654,109.727,77.803,109.727z M77.803,56.729
		c13.118,0,23.759,10.637,23.759,23.758c0,13.119-10.641,23.757-23.759,23.757c-13.122,0-23.759-10.638-23.759-23.757
		C54.045,67.367,64.681,56.729,77.803,56.729z M76,92.092c0.994,1.616,2.613,1.616,3.604,0l10.567-10.47
		c0.992-1.612,0.18-2.935-1.802-2.935h-5.084v-9.16c0-1.011-0.817-1.832-1.831-1.832h-7.308c-1.011,0-1.826,0.821-1.826,1.832v9.16
		h-5.084c-1.987,0-2.793,1.323-1.801,2.935L76,92.092z"/>
</g>
</svg>
