<?xml version="1.0" encoding="utf-8"?>
<!-- Generator: Adobe Illustrator 16.0.0, SVG Export Plug-In . SVG Version: 6.00 Build 0)  -->
<!DOCTYPE svg PUBLIC "-//W3C//DTD SVG 1.1//EN" "http://www.w3.org/Graphics/SVG/1.1/DTD/svg11.dtd">
<svg version="1.1" id="Layer_1" xmlns="http://www.w3.org/2000/svg" xmlns:xlink="http://www.w3.org/1999/xlink" x="0px" y="0px"
	 width="102px" height="102px" viewBox="0 0 102 102" enable-background="new 0 0 102 102" xml:space="preserve">
<g display="none">
	<g display="inline">
		<circle fill="#81D3F0" cx="51.136" cy="51.169" r="50"/>
	</g>
	<g display="inline">
		<path fill="#4788C8" d="M69.003,75.965c-1.773,0-3.208,1.435-3.208,3.205c0,1.773,1.435,3.206,3.208,3.206
			c1.77,0,3.205-1.433,3.205-3.206C72.208,77.399,70.772,75.965,69.003,75.965z M33.271,75.965c-1.771,0-3.206,1.435-3.206,3.205
			c0,1.773,1.435,3.206,3.206,3.206s3.207-1.433,3.207-3.206C36.478,77.399,35.042,75.965,33.271,75.965z M51.136,21.25
			c-1.519,0-2.749,1.23-2.749,2.748c0,1.518,1.23,2.747,2.749,2.747s2.749-1.229,2.749-2.747
			C53.885,22.48,52.654,21.25,51.136,21.25z M31.174,21.226l-1.261,0.731c-4.362,2.527-5.686,8.418-3.168,12.795
			c0.012,0.013,17.022-9.863,17.052-9.881C41.279,20.498,35.533,18.701,31.174,21.226z M72.361,21.958l-1.261-0.731
			c-4.363-2.525-10.107-0.729-12.623,3.646c0.027,0.018,17.04,9.894,17.049,9.88C78.043,30.376,76.72,24.485,72.361,21.958z"/>
		<path fill="#4788C8" d="M51.136,27.409c15.178,0,27.485,12.305,27.485,27.483c0,15.181-12.308,27.484-27.485,27.484
			c-15.18,0-27.485-12.304-27.485-27.484C23.65,39.713,35.956,27.409,51.136,27.409z"/>
		<path fill="#FFFFFF" d="M51.136,31.519c12.908,0,23.373,10.464,23.373,23.373c0,12.909-10.465,23.375-23.373,23.375
			c-12.909,0-23.373-10.466-23.373-23.375C27.763,41.983,38.227,31.519,51.136,31.519z"/>
		<path fill="#9EA7A8" d="M51.136,33.821c-0.505,0-0.917,0.411-0.917,0.917c0,0.506,0.412,0.916,0.917,0.916
			c0.506,0,0.917-0.409,0.917-0.916C52.053,34.231,51.642,33.821,51.136,33.821z M71.291,53.976c-0.506,0-0.916,0.41-0.916,0.916
			c0,0.507,0.41,0.916,0.916,0.916c0.507,0,0.917-0.409,0.917-0.916C72.208,54.386,71.798,53.976,71.291,53.976z M30.981,53.976
			c-0.507,0-0.917,0.41-0.917,0.916c0,0.507,0.41,0.916,0.917,0.916c0.506,0,0.916-0.409,0.916-0.916
			C31.897,54.386,31.487,53.976,30.981,53.976z M36.478,40.234c-0.506,0-0.916,0.411-0.916,0.916c0,0.507,0.41,0.917,0.916,0.917
			c0.505,0,0.915-0.409,0.915-0.917C37.393,40.645,36.982,40.234,36.478,40.234z M65.795,40.234c-0.508,0-0.917,0.411-0.917,0.916
			c0,0.507,0.409,0.917,0.917,0.917c0.505,0,0.914-0.409,0.914-0.917C66.709,40.645,66.3,40.234,65.795,40.234z M65.795,67.719
			c-0.508,0-0.917,0.411-0.917,0.916c0,0.507,0.409,0.916,0.917,0.916c0.505,0,0.914-0.409,0.914-0.916
			C66.709,68.13,66.3,67.719,65.795,67.719z M36.478,67.719c-0.506,0-0.916,0.411-0.916,0.916c0,0.507,0.41,0.916,0.916,0.916
			c0.505,0,0.915-0.409,0.915-0.916C37.393,68.13,36.982,67.719,36.478,67.719z M51.136,74.133c-0.505,0-0.917,0.409-0.917,0.915
			c0,0.508,0.412,0.917,0.917,0.917c0.506,0,0.917-0.409,0.917-0.917C52.053,74.542,51.642,74.133,51.136,74.133z"/>
		<path fill="#4788C8" d="M51.96,53.188l9.819,4.947c0.902,0.454,1.267,1.557,0.812,2.46c-0.456,0.902-1.559,1.267-2.462,0.812
			l-9.818-4.946c-0.903-0.456-1.268-1.56-0.813-2.462C49.954,53.097,51.057,52.732,51.96,53.188z"/>
		<path fill="#4788C8" d="M51.136,39.318c1.01,0,1.833,0.821,1.833,1.832v13.742c0,1.012-0.823,1.834-1.833,1.834
			c-1.011,0-1.834-0.822-1.834-1.834V41.15C49.302,40.139,50.125,39.318,51.136,39.318z"/>
	</g>
</g>
<g>
	<g>
		<path fill="#FBAB2C" d="M51.136,1.17c27.613,0,50,22.385,50,50c0,27.614-22.387,49.999-50,49.999c-27.614,0-50-22.385-50-49.999
			C1.136,23.555,23.521,1.17,51.136,1.17z"/>
	</g>
	<g>
		<path fill="#4788C8" d="M29.565,53.312c0.44-4.114,5.877-2.865,6.098,0c0,3.672,3.573,15.633,15.413,15.633
			c11.841,0,15.367-11.154,15.367-15.633c-0.149-3.674,6.099-3.453,6.318,0c0.219,3.451-4.335,21.816-18.733,21.816l0.072,5.951
			c0,0,2.572,0,5.95,0c3.379,0,3.379,6.172-0.221,6.172c-3.599,0-14.692,0-17.777,0s-2.864-6.135,0-6.135c2.867,0,5.883,0,5.883,0
			v-6.135C35.882,74.981,28.756,59.849,29.565,53.312z"/>
		<path fill="#FFFFFF" d="M51.42,21.047c-8.733,0-10.314,7.452-10.314,9.484c0,0.229,0,0.683,0,1.297h12.615v2.714H41.105
			c0,0.696,0,1.454,0,2.255h12.615v2.715H41.105c0,0.887,0,1.795,0,2.705h12.615v2.711H41.105c0,4.287,0,8.081,0,8.974
			c0,2.564,2.113,9.484,10.314,9.484c8.202,0,10.234-7.338,10.234-9.484c0-2.146,0-20.754,0-23.37
			C61.654,27.917,60.153,21.047,51.42,21.047z"/>
	</g>
</g>
<g display="none">
	<g display="inline">
		<path fill="#AAD485" d="M51.135,1.06c27.677,0,50.111,22.434,50.111,50.109s-22.435,50.11-50.111,50.11
			c-27.674,0-50.109-22.435-50.109-50.11S23.461,1.06,51.135,1.06z"/>
	</g>
	<g display="inline">
		<g>
			<path fill="#4788C8" d="M46.259,24.097c0,1.001-0.812,1.815-1.814,1.815l0,0c-1.002,0-1.814-0.813-1.814-1.815v-7.258
				c0-1.001,0.812-1.813,1.814-1.813l0,0c1.003,0,1.814,0.812,1.814,1.813V24.097z"/>
			<path fill="#4788C8" d="M40.583,24.246c0.709,0.708,0.709,1.858,0,2.566l0,0c-0.709,0.708-1.857,0.708-2.566,0.001l-5.131-5.133
				c-0.711-0.709-0.711-1.858,0-2.568l0,0c0.708-0.708,1.857-0.708,2.564,0L40.583,24.246z"/>
			<path fill="#4788C8" d="M35.983,29.767c1.001,0,1.812,0.812,1.812,1.816l0,0c0,1.001-0.812,1.812-1.812,1.813h-7.258
				c-1.003,0-1.816-0.812-1.816-1.813l0,0c0-1.004,0.813-1.816,1.816-1.816H35.983z"/>
			<path fill="#4788C8" d="M36.728,36.579c0.709-0.708,1.857-0.708,2.564,0.001l0,0c0.709,0.708,0.709,1.855,0.003,2.565
				l-5.131,5.132c-0.711,0.708-1.858,0.708-2.567,0l0,0c-0.711-0.709-0.71-1.858-0.002-2.566L36.728,36.579z"/>
			<path fill="#4788C8" d="M51.925,27.72c-0.71,0.708-1.859,0.708-2.566,0l0,0c-0.71-0.709-0.71-1.858,0-2.566l5.131-5.132
				c0.708-0.708,1.857-0.708,2.568,0.001l0,0c0.707,0.708,0.707,1.857,0,2.565L51.925,27.72z"/>
			<path fill="#4788C8" d="M51.93,34.304c-1.001,0-1.813-0.812-1.813-1.815l0,0c0-1,0.812-1.815,1.813-1.815h7.259
				c1.002,0.001,1.815,0.815,1.815,1.816l0,0c0,1.001-0.813,1.814-1.815,1.814L51.93,34.304z"/>
		</g>
		<path fill="#FFFFFF" d="M41.108,87.29c0,0,0-6.322,0-8.604S30.953,62.312,28.88,57.647c-2.075-4.664,3.109-6.633,6.113-4.975
			c3.006,1.656,5.183,5.287,5.183,5.287s0-21.87,0-26.328c0-4.457,8.706-4.558,8.706,0c0,4.56,0,15.03,0,11.402
			c0-3.628,7.256-3.732,7.256,1.865c0-3.939,7.462-2.59,7.462,2.28c0-4.872,7.981-2.694,7.981,1.555c0,4.25,0.562,14.582,0,16.584
			s-2.434,8.123-3.109,11.09c-0.678,2.969-1.453,10.883-1.453,10.883H41.108z"/>
	</g>
</g>
<g display="none">
	<g display="inline">
		<g>
			<path fill="#1E429B" d="M51.135,1.06c27.675,0,50.111,22.434,50.111,50.109s-22.437,50.11-50.111,50.11
				S1.025,78.845,1.025,51.169S23.46,1.06,51.135,1.06z"/>
		</g>
	</g>
	<g display="inline">
		<circle fill="#FFFFFF" cx="71.217" cy="22.087" r="5.87"/>
		<path fill="#FFFFFF" d="M44.056,47.409c-0.576,2.417,5.396,4.109,6.1,1.267c0.704-2.846,2.646-10.705,2.646-10.705l4.836-1.266
			c0,0-4.836,11.739-4.721,13.926c0.117,2.187,1.266,3.799,1.266,3.799s-11.162,22.674-12.66,26.355
			c-1.496,3.684,3.963,7.913,6.331,3.34c2.368-4.574,11.625-22.444,11.625-22.444s8.058,18.415,10.013,22.444
			c1.957,4.026,9.42,0.405,7.596-3.568c-1.82-3.975-12.658-27.623-12.658-27.623l4.256-9.783c0,0,1.152,3.107,1.498,4.258
			c0.345,1.15,7.826,3.913,10.588,5.294c2.763,1.382,5.554-4.777,2.763-6.099c-2.791-1.323-6.907-3.222-7.825-3.913
			c-0.922-0.691-2.764-7.597-2.764-7.597s-0.461-3.568-4.143-5.64s-7.418-0.305-9.438,0c-2.021,0.303-10.243,1.381-11.625,2.992
			C46.358,34.058,44.632,44.992,44.056,47.409z"/>
		<path fill="#4788C8" d="M15.004,44.058c-1.003,0-1.814-0.812-1.814-1.815l0,0c0-1.001,0.812-1.813,1.814-1.813h21.882
			c1,0,1.814,0.812,1.814,1.815l0,0c0,1.001-0.814,1.815-1.814,1.815L15.004,44.058z"/>
		<path fill="#4788C8" d="M21.815,57.884c-1.001,0-1.813-0.812-1.813-1.814l0,0c0-1.002,0.812-1.815,1.813-1.815h21.881
			c1.004,0.001,1.816,0.813,1.816,1.815l0,0c0,1.002-0.812,1.814-1.816,1.814H21.815z"/>
		<path fill="#4788C8" d="M14.571,71.499c-1.001,0-1.814-0.812-1.814-1.814l0,0c0-1.002,0.813-1.814,1.814-1.814h21.882
			c1.003,0,1.815,0.812,1.815,1.815l0,0c0,1.001-0.812,1.815-1.815,1.815L14.571,71.499z"/>
	</g>
</g>
<g opacity="0.5">
	<circle fill="#FFFFFF" cx="51.136" cy="51.169" r="50"/>
</g>
</svg>
