<?xml version="1.0" encoding="utf-8"?>
<!-- Generator: Adobe Illustrator 16.0.0, SVG Export Plug-In . SVG Version: 6.00 Build 0)  -->
<!DOCTYPE svg PUBLIC "-//W3C//DTD SVG 1.1//EN" "http://www.w3.org/Graphics/SVG/1.1/DTD/svg11.dtd">
<svg version="1.1" id="Layer_1" xmlns="http://www.w3.org/2000/svg" xmlns:xlink="http://www.w3.org/1999/xlink" x="0px" y="0px"
	 width="245.333px" height="293.333px" viewBox="0 0 245.333 293.333" enable-background="new 0 0 245.333 293.333"
	 xml:space="preserve">
<path fill="#4788C8" d="M130.947,282.208l101.17-55.626c5.807-3.193,7.926-10.49,4.734-16.297L128.025,12.361
	c-3.193-5.808-10.49-7.926-16.296-4.733L10.559,63.254c-5.808,3.193-7.927,10.49-4.734,16.297L114.65,277.475
	C117.842,283.282,125.138,285.401,130.947,282.208z M62.767,38.392c5.323-2.927,12.013-0.984,14.938,4.339
	c2.927,5.324,0.985,12.012-4.339,14.939c-5.323,2.927-12.01,0.984-14.938-4.339C55.501,48.007,57.443,41.319,62.767,38.392z
	 M23.94,92.116l104.991-57.728l86.025,156.458l-104.992,57.728L23.94,92.116z"/>
<path fill="#81D3F0" d="M92.178,252.912l-20.192-37.863l-5.68,13.252c0,0-44.014-13.629-34.71-85.826
	c-50.483,61.212,23.981,106.246,23.981,106.246l-6.31,11.133L92.178,252.912z"/>
<path fill="#81D3F0" d="M146.593,25.862l20.271,37.823l5.65-13.263c0,0,44.042,13.541,34.883,85.756
	c50.363-61.315-24.197-106.199-24.197-106.199l6.29-11.144L146.593,25.862z"/>
</svg>
