<svg xmlns="http://www.w3.org/2000/svg" xmlns:xlink="http://www.w3.org/1999/xlink" version="1.1" x="0px" y="0px" width="100px" height="100px" viewBox="-346 256 100 100" enable-background="new -346 256 100 100" xml:space="preserve">
<g id="Layer_2_copy">
</g>
<g id="Layer_1">
	<polygon points="-276.668,282.423 -287.972,267.2 -292.636,282.423  "/>
</g>
<g id="Layer_4">
	<path d="M-258.587,283.352l0.071-0.023c-5.095-16.322-19.7-27.287-36.343-27.287c-16.212,0-32.18,11.669-36.351,26.564l0.011,0.003   c-0.054,0.195-0.123,0.389-0.168,0.586c-0.733,3.164-1.563,11.431-1.563,11.431l-7.903,19.956   c-0.159,0.355-0.232,0.769-0.232,1.188c0,1.683,1.357,3.051,3.051,3.051h5.084v10.604c0,8.27,6.692,14.968,14.953,14.968h5.94   v11.612h40.481v-32.201c8.823-6.942,14.503-17.732,14.503-29.829C-257.053,290.282-257.604,286.727-258.587,283.352z    M-275.118,304.776c-1.862,1.085-4.064,0.778-4.921-0.689c-0.855-1.466-0.041-3.537,1.821-4.623   c1.861-1.086,4.065-0.777,4.921,0.688C-272.439,301.619-273.255,303.689-275.118,304.776z M-276.652,282.538l3.038,4.091   l-18.293,0.068l-12.979,9.67l4.289,5.781l-1.967,1.459l-10.041-13.523l1.967-1.463l4.289,5.778l12.978-9.67l0.671-2.192h-34.706   c4.162-12.719,18.489-22.906,32.547-22.906c14.421,0,27.135,9.134,32.253,22.906H-276.652z"/>
</g>
</svg>