<svg xmlns="http://www.w3.org/2000/svg" xmlns:xlink="http://www.w3.org/1999/xlink" version="1.1" id="Layer_1" x="0px" y="0px" width="100px" height="100px" viewBox="0 0 100 100" enable-background="new 0 0 100 100" xml:space="preserve">
<rect x="35.829" y="14.779" fill="#000000" width="30.021" height="23.814"/>
<path fill="#000000" d="M69.542,4.755C65.62,2.422,59.954,0.96,50.646,0.96c-9.152,0-13.786,1.54-17.875,3.795  c-4.159,2.293-7.581,5.659-7.581,12.641v37.971c0,11.644,3.991,20.862,25.596,20.862c22.615,0,25.702-8.354,25.702-20.862V16.131  C76.488,9.15,73.867,7.327,69.542,4.755z M35.279,65.78c-2.604,0-4.715-2.113-4.715-4.717c0-2.604,2.111-4.716,4.715-4.716  c2.604,0,4.715,2.111,4.715,4.716C39.994,63.667,37.883,65.78,35.279,65.78z M50.839,69.73c-3.694,0-6.69-2.996-6.69-6.691  c0-3.694,2.996-6.691,6.69-6.691c3.695,0,6.692,2.997,6.692,6.691C57.531,66.734,54.534,69.73,50.839,69.73z M66.401,65.78  c-2.606,0-4.717-2.113-4.717-4.717c0-2.604,2.11-4.716,4.717-4.716c2.604,0,4.714,2.111,4.714,4.716  C71.115,63.667,69.005,65.78,66.401,65.78z M72.057,36.435c0.005,0.13,0.014,0.26,0.014,0.392c0,0.131-0.009,0.261-0.014,0.391  v0.059h-0.003c-0.356,7.627-9.714,13.739-21.214,13.739c-11.502,0-20.86-6.114-21.215-13.739h-0.017c0,0,0-17.175,0-17.36  c0-7.688,9.505-13.919,21.232-13.919c11.726,0,21.231,6.231,21.231,13.919C72.07,20.102,72.057,36.435,72.057,36.435z"/>
<rect x="47.513" y="77.862" fill="#000000" width="6.653" height="20.512"/>
<rect x="48.413" y="93.715" fill="#000000" width="4.853" height="3.644"/>
<rect x="50.408" y="93.715" fill="#000000" width="0.861" height="3.644"/>
</svg>