<?xml version="1.0" encoding="utf-8"?>
<!-- Generator: Adobe Illustrator 14.0.0, SVG Export Plug-In . SVG Version: 6.00 Build 43363)  -->
<!DOCTYPE svg PUBLIC "-//W3C//DTD SVG 1.0//EN" "http://www.w3.org/TR/2001/REC-SVG-20010904/DTD/svg10.dtd">
<svg version="1.0" id="Layer_1" xmlns="http://www.w3.org/2000/svg" xmlns:xlink="http://www.w3.org/1999/xlink" x="0px" y="0px"
	 width="100px" height="99.792px" viewBox="0 0 100 99.792" enable-background="new 0 0 100 99.792" xml:space="preserve">
<rect x="0.065" y="63.671" width="82.226" height="6.473"/>
<g>
	<path d="M61.169,81.148c0-4.313-18.994-3.881-18.994,0.058c0,0.621,0,13.248,0,14.6c-0.189,2.012,1.271,3.983,3.289,3.983
		c1.503,0,50.873,0.003,50.873,0.003c2.022,0,3.659-1.634,3.659-3.655c0,0,0.004-46.152,0.004-46.226
		c0-29.045-24.93-52.391-54.525-49.7c-2.011,0.186-3.496,1.96-3.314,3.976c0,1.339,0,15.731,0,15.731h19.009V8.776
		c18.17,4.873,31.509,21.461,31.516,41.122c-0.065,19.647-13.338,36.312-31.516,41.158V81.148z"/>
</g>
<path d="M67.573,50.021c0-4.527,3.667-8.191,8.19-8.191c4.516,0,8.197,3.664,8.197,8.191c0,4.512-3.682,8.192-8.197,8.192
	C71.24,58.213,67.573,54.532,67.573,50.021z"/>
<path d="M57.1,41.542H29.657L0,46.081v12.121l21.572,0.004c-0.653-1.057-1.049-2.291-1.049-3.62c0-3.821,3.111-6.929,6.93-6.929
	h15.03l12.18-2.545l0.679,3.235l-12.518,2.614H27.453c-2,0-3.623,1.621-3.623,3.625c0,1.986,1.598,3.595,3.576,3.62l29.755,0.003
	c4.604-0.036,8.296-3.742,8.296-8.323C65.457,45.282,61.731,41.542,57.1,41.542z"/>
</svg>
