<svg xmlns="http://www.w3.org/2000/svg" xmlns:xlink="http://www.w3.org/1999/xlink" version="1.1" id="Layer_1" x="0px" y="0px" width="96px" height="96px" viewBox="0 0 96 96" enable-background="new 0 0 96 96" xml:space="preserve">
<path d="M48,43.336c5.512,0,10-4.484,10-10c0-5.512-4.488-10-10-10c-5.512,0-10,4.488-10,10C38,38.852,42.488,43.336,48,43.336z"/>
<path d="M48,57.336c13.236,0,24-10.764,24-24c0-13.236-10.764-24-24-24c-13.236,0-24,10.764-24,24  C24,46.572,34.764,57.336,48,57.336z M48,19.336c7.721,0,14,6.28,14,14c0,7.72-6.279,14-14,14c-7.72,0-14-6.28-14-14  C34,25.616,40.28,19.336,48,19.336z"/>
<path d="M93.716,76.313l-19.664-32.78C69.968,53.943,59.84,61.336,48,61.336s-21.964-7.4-26.052-17.804L2.284,76.313  c-0.432,0.711-0.372,1.623,0.156,2.271c0.524,0.656,1.404,0.916,2.192,0.648l20.828-6.944l13.792,13.788  c0.38,0.384,0.892,0.584,1.416,0.584c0.176,0,0.356-0.024,0.532-0.08c0.696-0.196,1.232-0.744,1.408-1.436L48,63.572l5.393,21.58  c0.172,0.695,0.711,1.252,1.412,1.436c0.176,0.057,0.355,0.08,0.531,0.08c0.523,0,1.036-0.204,1.416-0.584L70.54,72.296  l20.828,6.944c0.796,0.264,1.668,0.008,2.196-0.648C94.084,77.936,94.148,77.023,93.716,76.313z"/>
</svg>