<svg xmlns="http://www.w3.org/2000/svg" xmlns:xlink="http://www.w3.org/1999/xlink" version="1.1" x="0px" y="0px" width="100px" height="100px" viewBox="-346 256 100 100" enable-background="new -346 256 100 100" xml:space="preserve">
<g id="Layer_1">
	<path d="M-299.798,312.722l-6.923,5.8l4.462,4.466h10.774l9.253-9.367c-3.416-7.712-7.84-14.236-13.09-15.731   c-3.545-0.927-7.202,0.613-9.058,2.508l-7.214,7.823l1.876-5.18c0.653-2.28-0.668-4.658-2.948-5.309   c-2.282-0.652-4.657,0.667-5.307,2.946l-5.302,18.554c-0.067,0.24-0.113,0.482-0.139,0.722c-0.005,0.042,0,0.085-0.003,0.124   c-0.018,0.216-0.021,0.433-0.005,0.645c0.005,0.089,0.021,0.174,0.034,0.26c0.022,0.169,0.05,0.333,0.093,0.497   c0.024,0.096,0.054,0.189,0.087,0.285c0.052,0.159,0.114,0.311,0.185,0.463c0.041,0.085,0.079,0.169,0.123,0.253   c0.105,0.188,0.222,0.364,0.354,0.534c0.026,0.033,0.043,0.072,0.068,0.105c0.003,0.006,0.012,0.01,0.017,0.016   c0.184,0.223,0.395,0.426,0.624,0.609c0.067,0.055,0.14,0.101,0.208,0.15c0.091,0.065,0.175,0.138,0.271,0.196   c0.053,0.03,0.112,0.043,0.166,0.069c0.226,0.124,0.459,0.222,0.7,0.301c0.103,0.036,0.201,0.079,0.306,0.105   c0.333,0.084,0.676,0.133,1.021,0.137c0.007,0,0.01,0.003,0.017,0.003h0.003l0,0c0.257,0,0.511-0.029,0.765-0.074   c0.077-0.014,0.149-0.04,0.223-0.056c0.175-0.043,0.348-0.089,0.519-0.151c0.092-0.036,0.18-0.082,0.271-0.121   c0.144-0.069,0.287-0.137,0.424-0.219c0.097-0.06,0.188-0.125,0.282-0.19c0.074-0.053,0.152-0.096,0.221-0.15l1.939-1.575   l13.376-11.032L-299.798,312.722z"/>
	<g id="Layer_2">
	</g>
	<path d="M-302.91,294.833c4.521-2.68,6.012-8.511,3.339-13.023c-2.678-4.52-8.505-6.016-13.03-3.337   c-4.511,2.675-6.007,8.505-3.329,13.022C-313.256,296.01-307.422,297.505-302.91,294.833z"/>
	<path d="M-265.41,301.423c4.523-2.677,6.013-8.51,3.34-13.023c-2.678-4.52-8.507-6.014-13.03-3.338   c-4.51,2.676-6.007,8.506-3.329,13.026C-275.756,302.603-269.924,304.095-265.41,301.423z"/>
	<polygon points="-322.444,286.411 -335.694,282.173 -335.064,280.204 -321.812,284.443 -322.444,286.411  "/>
	<polygon points="-323.717,291.233 -335.909,291.233 -335.909,289.166 -323.717,289.166 -323.717,291.233  "/>
	<polygon points="-335.483,301.741 -336.334,299.855 -319.903,292.438 -319.052,294.32 -335.483,301.741  "/>
	<circle cx="-342.402" cy="290.2" r="3.445"/>
	<g>
		<path d="M-284.983,336.384h-12.256l-4.978,6.42h27.861c-0.082-2.445-0.92-7.405-2.415-13.171L-284.983,336.384z"/>
		<path d="M-264.316,305.835c-2.692-0.692-5.469,0.013-7.461,1.209c-0.397,0.166-0.785,0.374-1.136,0.662l-3.035,2.494    l-14.674,14.854h-9.567l0.019,0.02h-3.075c-2.545,0-4.611,2.065-4.611,4.612s2.065,4.612,4.611,4.612h3.18h4.451l-0.015,0.017    h9.903l8.357-6.897c-0.003-0.01-0.003-0.02-0.007-0.033l0.226-0.146l2.36-1.948l0.646,2.187l-0.012,0.007l4.435,15.321H-246    C-246.265,335.12-251.532,309.408-264.316,305.835z"/>
	</g>
</g>
<g id="Layer_3">
</g>
<g id="Layer_2_1_">
</g>
</svg>